<svg xmlns="http://www.w3.org/2000/svg" xmlns:xlink="http://www.w3.org/1999/xlink" width="612pt" height="792pt" viewBox="0 0 612 792" version="1.1">

<!-- Asteroid Silhouette -->
<path style="fill:#c7c7c7;fill-opacity:1;fill-rule:nonzero;stroke:#211e1e;stroke-width:1.5;stroke-linecap:butt;stroke-linejoin:miter;stroke-miterlimit:4;stroke-opacity:1" d="m 296.7725,602.52809 c 10.13672,-4.32422 24.32422,-4.32422 30.40625,-6.48438 6.08203,-2.16406 10.13672,-2.16406 24.32812,-2.16406 14.19141,0 -10.13672,-17.29688 10.13672,-17.29688 20.27344,0 26.35547,0 34.46094,0 8.11328,0 12.16797,8.64844 20.27734,-6.48437 8.10547,-15.13281 8.10547,-10.8086 8.10547,-19.45703 0,-8.64844 0,-19.45703 0,-25.94532 0,-6.48828 2.02735,-23.78125 6.08203,-34.59375 4.05469,-10.80859 0,-17.29296 0,-30.26562 0,-12.97266 2.02735,-12.97266 -10.13672,-21.62109 -12.16015,-8.64844 4.05469,-8.64844 -2.02734,-15.13672 -6.07812,-6.48438 -6.07812,-4.32422 -8.10937,-12.96875 -2.02344,-8.64844 6.08593,2.16015 -4.05469,-19.46094 -10.13672,-21.61719 -16.21485,-25.94141 -16.21485,-25.94141 0,0 12.16016,-4.32422 -8.10937,-4.32422 -20.27344,0 -26.35547,0 -26.35547,0 l -32.4375,0 -32.43359,-10.8125 -28.38282,-2.16015 c 0,0 -20.27343,4.32422 -22.30078,8.64844 -2.02734,4.32421 6.08203,-6.48829 -2.02734,4.32421 -8.10938,10.8086 -16.21875,21.61719 -16.21875,21.61719 0,0 -2.02734,2.16406 -8.10547,6.48828 -6.08203,4.32422 -12.16406,-10.80859 -12.16406,4.32422 0,15.13281 -12.16406,49.72656 -12.16406,49.72656 0,0 0,-10.80859 0,4.32422 0,15.13282 -4.05469,-2.16406 0,15.13282 4.05468,17.29687 -2.02735,38.91796 -2.02735,38.91796 0,0 -8.10937,-8.64843 -2.02734,6.48438 6.08203,15.13672 16.21875,12.97266 16.21875,17.29687 0,4.32422 4.05469,4.32422 -6.08203,12.97266 -10.13672,8.64844 -14.19141,6.48438 -16.21875,12.97266 -2.02735,6.48437 -2.02735,-8.64844 -2.02735,6.48437 0,15.13281 6.08203,10.8125 8.10938,17.29688 2.02734,6.48437 -4.05469,6.48437 8.10937,12.97265 12.16407,6.48438 26.35157,4.32422 36.48828,6.48438 10.13672,2.16406 2.02735,2.16406 18.2461,2.16406 16.21875,0 4.05469,2.16016 20.27344,0 l 28.38281,6.48438 z m 0,0"/>

</svg>