<svg xmlns="http://www.w3.org/2000/svg" xmlns:xlink="http://www.w3.org/1999/xlink" width="612pt" height="792pt" viewBox="0 0 612 792" version="1.1">

<!-- D'Tarn Silhouette -->
<path style="fill:#c7c7c7;fill-opacity:1;fill-rule:nonzero;stroke:#211e1e;stroke-width:1.5;stroke-linecap:butt;stroke-linejoin:miter;stroke-miterlimit:4;stroke-opacity:1" d="m 310.95764,395.01664 5.16797,0 0,-72.98828 3.44141,0 48.21875,218.67188 -3.61329,27.53515 -5.16406,0 0,7.2461 1.72266,0 0,5.88672 -1.72266,0 0,2.7539 1.72266,0 0,0 0,5.51172 -1.72266,1.375 1.72266,1.37891 0,10.01953 -1.72266,0 1.72266,2.75781 0,8.64063 -1.72266,1.3789 -10.05469,0 -1.72265,-1.3789 0,-8.64063 1.72265,-2.75781 -1.72265,0 0,-10.01953 1.72265,-1.37891 -1.72265,-1.375 0,-5.51172 1.72265,0 0,-2.7539 -1.72265,0 0,-5.88672 1.72265,0 0,-7.2461 -2.39062,0 -9.49609,44.96875 -5.44532,1.37891 0,-61.48047 -15.49609,-11.02734 0,-7.98047 -4.62109,0 0,7.28516 1.71875,0 0,5.88671 -1.71875,0 0,2.75782 1.71875,0 0,0 0,5.50781 -1.71875,1.37891 1.71875,1.3789 0,10.01953 -1.71875,0 1.71875,2.75391 0,8.64453 -1.71875,1.37891 -10.05469,0 -1.72266,-1.37891 0,-8.64453 1.72266,-2.75391 -1.72266,0 0,-10.01953 1.72266,-1.3789 -1.72266,-1.37891 0,-5.50781 1.72266,0 0,-2.75782 -1.72266,0 0,-5.88671 1.72266,0 0,-7.28516 -4.83985,0 0,7.98047 -15.49609,11.02734 0,61.48047 -5.44531,-1.37891 -9.5,-44.96875 -3.16016,0 0,7.2461 1.72266,0 0,5.88672 -1.72266,0 0,2.7539 1.72266,0 0,0 0,5.51172 -1.72266,1.375 1.72266,1.37891 0,10.01953 -1.72266,0 1.72266,2.75781 0,8.64063 -1.72266,1.3789 -10.05469,0 -1.72265,-1.3789 0,-8.64063 1.72265,-2.75781 -1.72265,0 0,-10.01953 1.72265,-1.37891 -1.72265,-1.375 0,-5.51172 1.72265,0 0,-2.7539 -1.72265,0 0,-5.88672 1.72265,0 0,-7.2461 -4.39453,0 -3.60937,-27.53515 48.21484,-218.67188 3.44531,0 0,72.98828 5.16797,0 4.39844,13.77344 4.78125,-13.77344 z m 0,0"/>

</svg>