<svg xmlns="http://www.w3.org/2000/svg" xmlns:xlink="http://www.w3.org/1999/xlink" width="612pt" height="792pt" viewBox="0 0 612 792" version="1.1">

<defs>
<g>

</g>
</defs>

<!-- Fixed Jump Gate Silhouette -->
<path style="fill-rule:nonzero;fill:rgb(78.432898%,78.040742%,78.138399%);fill-opacity:1;stroke-width:1.5;stroke-linecap:butt;stroke-linejoin:miter;stroke:rgb(13.730068%,12.159915%,12.54902%);stroke-opacity:1;stroke-miterlimit:4;" d="M 9 252 L 9 198.015625 L 170.375 36.640625 L 268.8125 36.640625 L 275.84375 22.578125 L 311 22.578125 L 346.15625 22.578125 L 353.1875 36.640625 L 451.625 36.640625 L 603 189 L 603 256.5 L 603 257.507812 L 571.15625 275.703125 L 557.09375 261.640625 L 585.21875 212.421875 L 564.125 191.328125 L 514.90625 219.453125 L 500.84375 205.390625 L 528.96875 156.171875 L 507.875 135.078125 L 458.65625 163.203125 L 444.59375 149.140625 L 472.71875 99.921875 L 444.59375 71.796875 L 395.375 106.953125 L 325.0625 113.984375 L 325.0625 149.140625 L 388.34375 156.171875 L 388.34375 184.296875 L 325.0625 191.328125 L 325.0625 226.484375 L 388.34375 233.515625 L 388.34375 261.640625 L 325.0625 268.671875 L 325.0625 303.828125 L 388.34375 310.859375 L 388.34375 338.984375 L 325.0625 346.015625 L 325.0625 381.171875 L 388.34375 388.203125 L 388.34375 416.328125 L 325.0625 423.359375 L 325.0625 458.515625 L 388.34375 465.546875 L 388.34375 493.671875 L 325.0625 500.703125 L 325.0625 535.859375 L 388.34375 542.890625 L 388.34375 571.015625 L 325.0625 578.046875 L 325.0625 606.171875 L 311 606.171875 L 296.9375 606.171875 L 296.9375 578.046875 L 233.65625 571.015625 L 233.65625 542.890625 L 296.9375 535.859375 L 296.9375 500.703125 L 233.65625 493.671875 L 233.65625 465.546875 L 296.9375 458.515625 L 296.9375 423.359375 L 233.65625 416.328125 L 233.65625 388.203125 L 296.9375 381.171875 L 296.9375 346.015625 L 233.65625 338.984375 L 233.65625 310.859375 L 296.9375 303.828125 L 296.9375 268.671875 L 233.65625 261.640625 L 233.65625 233.515625 L 296.9375 226.484375 L 296.9375 191.328125 L 233.65625 184.296875 L 233.65625 156.171875 L 296.9375 149.140625 L 296.9375 113.984375 L 226.625 106.953125 L 177.40625 71.796875 L 149.28125 99.921875 L 177.40625 149.140625 L 163.34375 163.203125 L 114.125 135.078125 L 93.03125 156.171875 L 121.15625 205.390625 L 107.09375 219.453125 L 57.875 191.328125 L 36.78125 212.421875 L 64.90625 261.640625 L 50.84375 275.703125 L 9.363281 252 L 9 252 Z M 9 252 " transform="matrix(1,0,0,-1,0,793)"/>

<!-- FORWARD -->

<!-- PORT -->

<!-- PRIMARY -->

<!-- STARBOARD -->

<!-- AFT -->

</svg>