<svg xmlns="http://www.w3.org/2000/svg" xmlns:xlink="http://www.w3.org/1999/xlink" width="612pt" height="792pt" viewBox="0 0 612 792" version="1.1">

<!-- Gormok Silhouette -->
<path style="fill:#c7c7c7;fill-opacity:1;fill-rule:evenodd;stroke:#211e1e;stroke-width:1.5;stroke-linecap:butt;stroke-linejoin:miter;stroke-miterlimit:2.61299992;stroke-opacity:1" d="m 339.66871,528.5281 1.61719,0 29.83594,-30.53125 0,-16.02734 2.03125,0 0,5.07421 8.39062,0 0,-18.01171 -2.33594,0 0,-14.1211 -3.72265,0 0,6.98438 -2.33203,0 0,8.01172 -2.03125,0 0,-11.25782 c -41.76172,-45.85156 -14.23829,-15.67968 -53.4336,-58.65234 -0.004,-0.004 -0.0234,-0.0312 -0.0234,-0.0508 l 0,-3.69922 -3.91015,-6.71484 -2.10547,0 0,-7.53907 -1.54297,0 0,-12.66797 -2.47266,0 0,14.72266 -3.21093,0 0,-14.72266 -2.46485,0 0,12.66797 -1.55859,0 0,7.53907 -2.09375,0 -3.91016,6.71484 0,3.80469 -0.18359,0.48047 c -38.45703,42.15625 -11.38281,12.48437 -52.9375,58.11718 l 0,11.25782 -2.03906,0 0,-8.01172 -2.32813,0 0,-6.98438 -3.71484,0 0,14.1211 -2.33985,0 0,18.01171 8.38282,0 0,-5.07421 2.03906,0 0,16.02734 29.83984,30.53125 10.76563,0 3.60547,13.45312 41.41797,0 3.61328,-13.45312 9.15234,0 z m 0,0"/>

</svg>