<svg xmlns="http://www.w3.org/2000/svg" xmlns:xlink="http://www.w3.org/1999/xlink" width="612pt" height="792pt" viewBox="0 0 612 792" version="1.1">

<!-- Lupa Silhouette -->
<path style="fill:#c7c7c7;fill-opacity:1;fill-rule:nonzero;stroke:#211e1e;stroke-width:1.5;stroke-linecap:butt;stroke-linejoin:miter;stroke-miterlimit:4;stroke-opacity:1" d="m 306.56093,571.16012 c 14.47265,0 19.29296,-28.9375 19.29296,-28.9375 0,0 24.69141,-24.89453 77.17579,14.46875 19.29296,14.46875 -57.87891,-77.17578 -67.52735,-96.46485 -9.64844,-19.29687 19.29297,-43.41015 9.64844,-62.70312 -9.64844,-19.29297 -24.11719,-24.11719 -38.58984,-24.11719 l -1.78907,0 c -14.46875,0 -28.9375,4.82422 -38.58593,24.11719 -9.64844,19.29297 19.29296,43.40625 9.64843,62.70312 -9.64843,19.28907 -86.82031,110.9336 -67.52734,96.46485 52.48437,-39.36328 77.17187,-14.46875 77.17187,-14.46875 0,0 4.82422,28.9375 19.29297,28.9375 l 1.78907,0 z m 0,0"/>

</svg>