<svg xmlns="http://www.w3.org/2000/svg" xmlns:xlink="http://www.w3.org/1999/xlink" width="612pt" height="792pt" viewBox="0 0 612 792" version="1.1">

<!-- Rafa Silhouette -->
<path style="fill:#c7c7c7;fill-opacity:1;fill-rule:nonzero;stroke:#211e1e;stroke-width:1.5;stroke-linecap:butt;stroke-linejoin:miter;stroke-miterlimit:4;stroke-opacity:1" d="m 306.57373,585.60919 5.55078,0 0,5.55078 16.64844,0 0,-5.55078 27.7539,0 0,-16.64844 11.09766,0 0,-22.20312 -11.09766,0 0,-105.45313 -16.65234,-16.64843 0,-66.60547 -11.10156,0 -22.19922,-27.75 -22.20313,27.75 -11.09765,0 0,66.60547 -16.65235,16.64843 0,105.45313 -11.09765,0 0,22.20312 11.09765,0 0,16.64844 27.75,0 0,5.55078 16.65235,0 0,-5.55078 5.55078,0 z m 0,0"/>

</svg>