<svg xmlns="http://www.w3.org/2000/svg" xmlns:xlink="http://www.w3.org/1999/xlink" width="612pt" height="792pt" viewBox="0 0 612 792" version="1.1">

<!-- Shodroma Silhouette -->
<path style="fill:#c7c7c7;fill-opacity:1;fill-rule:nonzero;stroke:#211e1e;stroke-width:1.5;stroke-linecap:butt;stroke-linejoin:miter;stroke-miterlimit:4;stroke-opacity:1" d="m 306.79155,544.58152 33.82422,-11.27735 11.27343,11.27735 5.63672,-5.64063 25.36719,25.37109 5.63672,-5.64062 5.64062,-5.63672 -25.37109,-25.36719 5.64062,-5.63672 -11.27734,-11.27343 11.27734,-33.82422 -11.27734,-33.82422 11.27734,-11.27344 -5.64062,-5.63672 25.37109,-25.37109 -5.64062,-5.63672 -5.63672,-5.63672 -25.36719,25.36719 -5.63672,-5.63672 -11.27343,11.27344 -33.82422,-11.27344 0,0 -33.82422,11.27734 -11.27344,-11.27734 -5.63672,5.63672 -25.36718,-25.36719 -5.64063,5.63672 -5.63672,5.64063 25.36719,25.36718 -5.63672,5.63672 11.27734,11.27344 -11.27734,33.82422 11.27734,33.82422 -11.27734,11.27343 5.63672,5.63672 -25.36719,25.36719 5.63672,5.63672 5.64063,5.64062 25.36718,-25.36718 5.63672,5.63672 11.27344,-11.27735 33.82422,11.27735 0,0 z m 0,0"/>

</svg>