<svg xmlns="http://www.w3.org/2000/svg" xmlns:xlink="http://www.w3.org/1999/xlink" width="612pt" height="792pt" viewBox="0 0 612 792" version="1.1">

<!-- Thor'ka Silhouette -->
<path style="fill:#c7c7c7;fill-opacity:1;fill-rule:nonzero;stroke:#211e1e;stroke-width:1.5;stroke-linecap:butt;stroke-linejoin:miter;stroke-miterlimit:4;stroke-opacity:1" d="m 262.25424,520.68728 c 0,0 29.25,-9 29.25,4.5 0,13.5 -11.25,18 -11.25,24.75 0,6.75 4.5,18 27,18 22.5,0 27,-11.25 27,-18 0,-6.75 -11.25,-11.25 -11.25,-24.75 0,-13.5 29.25,-4.5 29.25,-4.5 0,0 -9,-29.25 4.5,-29.25 13.5,0 18,11.25 24.75,11.25 6.75,0 18,-4.5 18,-27 0,-22.5 -11.25,-27 -18,-27 -6.75,0 -11.25,11.25 -24.75,11.25 -13.5,0 -4.5,-29.25 -4.5,-29.25 l 0,0 c 0,0 -29.25,9 -29.25,-4.5 0,-13.5 11.25,-18 11.25,-24.75 0,-6.75 -4.5,-18 -27,-18 -22.5,0 -27,11.25 -27,18 0,6.75 11.25,11.25 11.25,24.75 0,13.5 -29.25,4.5 -29.25,4.5 0,0 9,29.25 -4.5,29.25 -13.5,0 -18,-11.25 -24.75,-11.25 -6.75,0 -18,4.5 -18,27 0,22.5 11.25,27 18,27 6.75,0 11.25,-11.25 24.75,-11.25 13.5,0 4.5,29.25 4.5,29.25 l 0,0 z m 0,0"/>

</svg>