<svg xmlns="http://www.w3.org/2000/svg" xmlns:xlink="http://www.w3.org/1999/xlink" width="612pt" height="792pt" viewBox="0 0 612 792" version="1.1">

<!-- Tokrana Silhouette -->
<path style="fill:#c7c7c7;fill-opacity:1;fill-rule:nonzero;stroke:#211e1e;stroke-width:1.5;stroke-linecap:butt;stroke-linejoin:miter;stroke-miterlimit:4;stroke-opacity:1" d="m 306.06703,536.92574 c 34.375,0 62.2461,-27.86719 62.2461,-62.24609 0,-34.375 -27.8711,-62.2461 -62.2461,-62.2461 -34.3789,0 -62.24609,27.8711 -62.24609,62.2461 0,34.3789 27.86719,62.24609 62.24609,62.24609 z m 0,0"/>
<path style="fill:#c7c7c7;fill-opacity:1;fill-rule:nonzero;stroke:#211e1e;stroke-width:1.5;stroke-linecap:butt;stroke-linejoin:miter;stroke-miterlimit:4;stroke-opacity:1" d="m 286.34828,495.3398 c 6.75,13.5 -9,27 -4.5,42.75 4.5,15.75 13.5,29.25 24.75,29.25 l -0.24609,0 c 11.25,0 20.25,-13.5 24.75,-29.25 4.5,-15.75 -11.25,-29.25 -4.5,-42.75 l 0,-0.82031 c 13.5,-6.75 27,9 42.75,4.5 15.75,-4.5 29.25,-13.5 29.25,-24.75 l 0,0.24609 c 0,-11.25 -13.5,-20.25 -29.25,-24.75 -15.75,-4.5 -29.25,11.25 -42.75,4.5 l -0.82031,-0.24609 c -6.75,-13.5 9,-27 4.5,-42.75 -4.5,-15.75 -13.5,-29.25 -24.75,-29.25 l 0.24609,0 c -11.25,0 -20.25,13.5 -24.75,29.25 -4.5,15.75 11.25,29.25 4.5,42.75 l 0,0.82031 c -13.5,6.75 -27,-9 -42.75,-4.5 -15.75,4.5 -29.25,13.5 -29.25,24.75 l 0,-0.24609 c 0,11.25 13.5,20.25 29.25,24.75 15.75,4.5 29.25,-11.25 42.75,-4.5 l 0.82031,0.24609 z m 0,0"/>

</svg>