<svg xmlns="http://www.w3.org/2000/svg" xmlns:xlink="http://www.w3.org/1999/xlink" width="612pt" height="792pt" viewBox="0 0 612 792" version="1.1">

<!-- Tora Silhouette -->
<path style="fill:#c7c7c7;fill-opacity:1;fill-rule:nonzero;stroke:#211e1e;stroke-width:1.5;stroke-linecap:butt;stroke-linejoin:miter;stroke-miterlimit:4;stroke-opacity:1" d="m 275.35811,507.10968 0,27.22656 7.42578,0 0,-12.375 7.42579,14.84766 0,27.22656 4.94921,0 0,-14.85156 12.375,24.75 12.375,-24.75 0,14.85156 4.94922,0 0,-27.22656 7.42578,-14.84766 0,12.375 7.42579,0 0,-27.22656 27.22265,0 0,-7.42578 -12.375,0 14.85156,-7.42578 27.22657,0 0,-4.94922 -14.85157,0 24.75,-12.375 -24.75,-12.375 14.85157,0 0,-4.94922 -27.22657,0 -14.85156,-7.42578 12.375,0 0,-7.42578 -27.22265,0 0,0 0,-27.22266 -7.42579,0 0,12.375 -7.42578,-14.85156 0,-27.22656 -4.94922,0 0,14.85156 -12.375,-24.75 -12.375,24.75 0,-14.85156 -4.94921,0 0,27.22656 -7.42579,14.85156 0,-12.375 -7.42578,0 0,27.22266 -27.22265,0 0,7.42578 12.375,0 -14.85157,7.42578 -27.22656,0 0,4.94922 14.85156,0 -24.75,12.375 24.75,12.375 -14.85156,0 0,4.94922 27.22656,0 14.85157,7.42578 -12.375,0 0,7.42578 27.22265,0 0,0 z m 0,0"/>

</svg>