<svg xmlns="http://www.w3.org/2000/svg" xmlns:xlink="http://www.w3.org/1999/xlink" width="612pt" height="792pt" viewBox="0 0 612 792" version="1.1">

<!-- Breaching Pod -->
<path style="fill-rule:nonzero;fill:rgb(13.730068%,12.159915%,12.54902%);fill-opacity:1;stroke-width:0.2669;stroke-linecap:butt;stroke-linejoin:miter;stroke:rgb(13.730068%,12.159915%,12.54902%);stroke-opacity:1;stroke-miterlimit:4;" d="M 515.25 425.25 L 507.960938 425.25 L 504.316406 423.425781 L 504.316406 419.78125 L 502.492188 417.960938 L 502.492188 410.671875 L 504.316406 408.847656 L 504.316406 408.847656 L 502.492188 405.203125 L 502.492188 403.378906 L 504.316406 407.027344 L 509.78125 407.027344 L 509.78125 407.027344 L 509.78125 407.027344 L 509.78125 408.847656 L 509.78125 408.847656 L 515.25 408.847656 " transform="matrix(1,0,0,-1,17,781)"/>
<path style="fill-rule:nonzero;fill:rgb(13.730068%,12.159915%,12.54902%);fill-opacity:1;stroke-width:0.2669;stroke-linecap:butt;stroke-linejoin:miter;stroke:rgb(13.730068%,12.159915%,12.54902%);stroke-opacity:1;stroke-miterlimit:4;" d="M 515.25 425.25 L 522.539062 425.25 L 526.183594 423.425781 L 526.183594 419.78125 L 528.007812 417.960938 L 528.007812 410.671875 L 526.183594 408.847656 L 526.183594 408.847656 L 528.007812 405.203125 L 528.007812 403.378906 L 526.183594 407.027344 L 520.71875 407.027344 L 520.71875 407.027344 L 520.71875 407.027344 L 520.71875 408.847656 L 520.71875 408.847656 L 515.25 408.847656 " transform="matrix(1,0,0,-1,17,781)"/>

</svg>