<svg xmlns="http://www.w3.org/2000/svg" xmlns:xlink="http://www.w3.org/1999/xlink" width="612pt" height="792pt" viewBox="0 0 612 792" version="1.1">

<!-- Combat Flyer -->
<path style="fill-rule:nonzero;fill:rgb(13.730068%,12.159915%,12.54902%);fill-opacity:1;stroke-width:0.5;stroke-linecap:butt;stroke-linejoin:miter;stroke:rgb(13.730068%,12.159915%,12.54902%);stroke-opacity:1;stroke-miterlimit:4;" d="M 516.445312 71.71875 C 516.445312 71.71875 515.601562 72.09375 513.914062 70.40625 C 512.226562 68.71875 513.914062 67.03125 512.226562 65.34375 C 510.539062 63.65625 508.851562 65.34375 508.851562 65.34375 L 505.476562 73.78125 C 505.476562 73.78125 505.476562 72.09375 505.476562 70.40625 C 505.476562 68.71875 504.632812 62.8125 505.476562 61.125 C 511.289062 48.65625 513.914062 42.5625 513.914062 42.5625 L 513.914062 37.5 C 513.914062 37.5 515.601562 38.34375 516.445312 38.34375 " transform="matrix(1,0,0,-1,0,793)"/>
<path style="fill-rule:nonzero;fill:rgb(13.730068%,12.159915%,12.54902%);fill-opacity:1;stroke-width:0.5;stroke-linecap:butt;stroke-linejoin:miter;stroke:rgb(13.730068%,12.159915%,12.54902%);stroke-opacity:1;stroke-miterlimit:4;" d="M 510.570312 64.6875 C 510.570312 64.6875 511.320312 66.375 512.164062 66.375 C 513.007812 66.375 513.757812 64.6875 513.757812 64.6875 L 510.570312 64.6875 Z M 510.570312 64.6875 " transform="matrix(1,0,0,-1,0,793)"/>
<path style="fill-rule:nonzero;fill:rgb(13.730068%,12.159915%,12.54902%);fill-opacity:1;stroke-width:0.5;stroke-linecap:butt;stroke-linejoin:miter;stroke:rgb(13.730068%,12.159915%,12.54902%);stroke-opacity:1;stroke-miterlimit:4;" d="M 505.414062 61.6875 L 505.414062 57.46875 " transform="matrix(1,0,0,-1,0,793)"/>
<path style="fill-rule:nonzero;fill:rgb(13.730068%,12.159915%,12.54902%);fill-opacity:1;stroke-width:0.5;stroke-linecap:butt;stroke-linejoin:miter;stroke:rgb(13.730068%,12.159915%,12.54902%);stroke-opacity:1;stroke-miterlimit:4;" d="M 513.101562 47.8125 L 504.664062 50.34375 L 504.664062 52.03125 L 502.976562 52.03125 L 503.820312 52.03125 L 503.820312 55.40625 L 503.820312 52.03125 L 502.976562 52.03125 L 502.976562 48.65625 L 504.664062 40.21875 L 504.664062 36 L 504.664062 40.21875 L 505.507812 41.0625 L 514.789062 42.75 L 513.101562 47.8125 Z M 513.101562 47.8125 " transform="matrix(1,0,0,-1,0,793)"/>
<path style="fill-rule:nonzero;fill:rgb(13.730068%,12.159915%,12.54902%);fill-opacity:1;stroke-width:0.5;stroke-linecap:butt;stroke-linejoin:miter;stroke:rgb(13.730068%,12.159915%,12.54902%);stroke-opacity:1;stroke-miterlimit:4;" d="M 516.476562 71.71875 C 516.476562 71.71875 517.320312 72.09375 519.007812 70.40625 C 520.695312 68.71875 519.007812 67.03125 520.695312 65.34375 C 522.382812 63.65625 524.070312 65.34375 524.070312 65.34375 L 527.445312 73.78125 C 527.445312 73.78125 527.445312 72.09375 527.445312 70.40625 C 527.445312 68.71875 528.289062 62.8125 527.445312 61.125 C 521.632812 48.65625 519.007812 42.5625 519.007812 42.5625 L 519.007812 37.5 C 519.007812 37.5 517.320312 38.34375 516.476562 38.34375 " transform="matrix(1,0,0,-1,0,793)"/>
<path style="fill-rule:nonzero;fill:rgb(13.730068%,12.159915%,12.54902%);fill-opacity:1;stroke-width:0.5;stroke-linecap:butt;stroke-linejoin:miter;stroke:rgb(13.730068%,12.159915%,12.54902%);stroke-opacity:1;stroke-miterlimit:4;" d="M 522.351562 64.6875 C 522.351562 64.6875 521.601562 66.375 520.757812 66.375 C 519.914062 66.375 519.164062 64.6875 519.164062 64.6875 L 522.351562 64.6875 Z M 522.351562 64.6875 " transform="matrix(1,0,0,-1,0,793)"/>
<path style="fill-rule:nonzero;fill:rgb(13.730068%,12.159915%,12.54902%);fill-opacity:1;stroke-width:0.5;stroke-linecap:butt;stroke-linejoin:miter;stroke:rgb(13.730068%,12.159915%,12.54902%);stroke-opacity:1;stroke-miterlimit:4;" d="M 527.507812 61.6875 L 527.507812 57.46875 " transform="matrix(1,0,0,-1,0,793)"/>
<path style="fill-rule:nonzero;fill:rgb(13.730068%,12.159915%,12.54902%);fill-opacity:1;stroke-width:0.5;stroke-linecap:butt;stroke-linejoin:miter;stroke:rgb(13.730068%,12.159915%,12.54902%);stroke-opacity:1;stroke-miterlimit:4;" d="M 519.820312 47.8125 L 528.257812 50.34375 L 528.257812 52.03125 L 529.945312 52.03125 L 529.101562 52.03125 L 529.101562 55.40625 L 529.101562 52.03125 L 529.945312 52.03125 L 529.945312 48.65625 L 528.257812 40.21875 L 528.257812 36 L 528.257812 40.21875 L 527.414062 41.0625 L 518.132812 42.75 L 519.820312 47.8125 Z M 519.820312 47.8125 " transform="matrix(1,0,0,-1,0,793)"/>
<path style="fill-rule:nonzero;fill:rgb(100%,100%,100%);fill-opacity:1;stroke-width:0.5;stroke-linecap:butt;stroke-linejoin:miter;stroke:rgb(13.730068%,12.159915%,12.54902%);stroke-opacity:1;stroke-miterlimit:4;" d="M 513.945312 67.640625 L 515.210938 70.171875 L 517.742188 70.171875 L 519.007812 67.640625 L 513.945312 67.640625 Z M 513.945312 67.640625 " transform="matrix(1,0,0,-1,0,793)"/>

</svg>