<svg xmlns="http://www.w3.org/2000/svg" xmlns:xlink="http://www.w3.org/1999/xlink" width="612pt" height="792pt" viewBox="0 0 612 792" version="1.1">

<!-- Hades -->
<path style="fill-rule:nonzero;fill:rgb(13.730068%,12.159915%,12.54902%);fill-opacity:1;stroke-width:0.2669;stroke-linecap:butt;stroke-linejoin:miter;stroke:rgb(13.730068%,12.159915%,12.54902%);stroke-opacity:1;stroke-miterlimit:4;" d="M 556.902344 193.390625 L 561.683594 189.804688 L 561.683594 191 L 558.097656 196.980469 L 558.097656 200.566406 L 558.097656 198.175781 L 559.292969 198.175781 L 560.488281 200.566406 L 561.683594 194.585938 L 562.882812 195.78125 L 561.683594 205.347656 L 562.882812 204.152344 L 562.882812 202.957031 L 570.054688 199.371094 L 570.054688 200.566406 L 561.683594 208.933594 C 561.683594 208.933594 561.683594 212.523438 560.488281 216.109375 C 559.292969 219.695312 556.902344 222.089844 556.902344 222.089844 C 556.902344 222.089844 554.511719 219.695312 553.316406 216.109375 C 552.121094 212.523438 552.121094 208.933594 552.121094 208.933594 L 543.75 200.566406 L 543.75 199.371094 L 550.925781 202.957031 L 550.925781 204.152344 L 552.121094 205.347656 L 550.925781 195.78125 L 552.121094 194.585938 L 553.316406 200.566406 L 554.511719 198.175781 L 555.707031 198.175781 L 555.707031 200.566406 L 555.707031 196.980469 L 552.121094 191 L 552.121094 189.804688 L 556.902344 193.390625 Z M 556.902344 193.390625 " transform="matrix(1,0,0,-1,13,783)"/>

</svg>