<svg xmlns="http://www.w3.org/2000/svg" xmlns:xlink="http://www.w3.org/1999/xlink" width="612pt" height="792pt" viewBox="0 0 612 792" version="1.1">

<!-- Hexes -->
<path style="fill:none;stroke-width:0.375;stroke-linecap:butt;stroke-linejoin:miter;stroke:rgb(13.730068%,12.159915%,12.54902%);stroke-opacity:1;stroke-miterlimit:4;" d="M 230.90625 561.375 L 232.59375 561.375 L 233.4375 559.6875 L 232.59375 558 L 230.90625 558 L 230.0625 559.6875 L 230.90625 561.375 Z M 230.90625 561.375 " transform="matrix(1,0,0,-1,0,793)"/>
<path style="fill:none;stroke-width:0.375;stroke-linecap:butt;stroke-linejoin:miter;stroke:rgb(13.730068%,12.159915%,12.54902%);stroke-opacity:1;stroke-miterlimit:4;" d="M 230.90625 558 L 232.59375 558 L 233.4375 556.3125 L 232.59375 554.625 L 230.90625 554.625 L 230.0625 556.3125 L 230.90625 558 Z M 230.90625 558 " transform="matrix(1,0,0,-1,0,793)"/>
<path style="fill:none;stroke-width:0.375;stroke-linecap:butt;stroke-linejoin:miter;stroke:rgb(13.730068%,12.159915%,12.54902%);stroke-opacity:1;stroke-miterlimit:4;" d="M 230.90625 554.625 L 232.59375 554.625 L 233.4375 552.9375 L 232.59375 551.25 L 230.90625 551.25 L 230.0625 552.9375 L 230.90625 554.625 Z M 230.90625 554.625 " transform="matrix(1,0,0,-1,0,793)"/>
<path style="fill:none;stroke-width:0.375;stroke-linecap:butt;stroke-linejoin:miter;stroke:rgb(13.730068%,12.159915%,12.54902%);stroke-opacity:1;stroke-miterlimit:4;" d="M 233.4375 556.3125 L 235.125 556.3125 L 235.96875 554.625 L 235.125 552.9375 L 233.4375 552.9375 L 232.59375 554.625 L 233.4375 556.3125 Z M 233.4375 556.3125 " transform="matrix(1,0,0,-1,0,793)"/>
<path style="fill:none;stroke-width:0.375;stroke-linecap:butt;stroke-linejoin:miter;stroke:rgb(13.730068%,12.159915%,12.54902%);stroke-opacity:1;stroke-miterlimit:4;" d="M 233.4375 559.6875 L 235.125 559.6875 L 235.96875 558 L 235.125 556.3125 L 233.4375 556.3125 L 232.59375 558 L 233.4375 559.6875 Z M 233.4375 559.6875 " transform="matrix(1,0,0,-1,0,793)"/>
<path style="fill:none;stroke-width:0.375;stroke-linecap:butt;stroke-linejoin:miter;stroke:rgb(13.730068%,12.159915%,12.54902%);stroke-opacity:1;stroke-miterlimit:4;" d="M 228.375 556.3125 L 230.0625 556.3125 L 230.90625 554.625 L 230.0625 552.9375 L 228.375 552.9375 L 227.53125 554.625 L 228.375 556.3125 Z M 228.375 556.3125 " transform="matrix(1,0,0,-1,0,793)"/>
<path style="fill:none;stroke-width:0.375;stroke-linecap:butt;stroke-linejoin:miter;stroke:rgb(13.730068%,12.159915%,12.54902%);stroke-opacity:1;stroke-miterlimit:4;" d="M 228.375 559.6875 L 230.0625 559.6875 L 230.90625 558 L 230.0625 556.3125 L 228.375 556.3125 L 227.53125 558 L 228.375 559.6875 Z M 228.375 559.6875 " transform="matrix(1,0,0,-1,0,793)"/>

</svg>