<svg xmlns="http://www.w3.org/2000/svg" xmlns:xlink="http://www.w3.org/1999/xlink" width="612pt" height="792pt" viewBox="0 0 612 792" version="1.1">

<!-- Limpet-Bore -->
<path style=" stroke:none;fill-rule:nonzero;fill:rgb(13.730068%,12.159915%,12.54902%);fill-opacity:1;" d="M 575.695312 349.84375 C 573.71875 349.84375 571.363281 351.84375 571.363281 351.84375 L 569.007812 349.84375 L 564.53125 351.84375 L 568.363281 352.175781 L 570.03125 353.175781 L 569.363281 355.84375 L 564.695312 354.175781 L 560.195312 358.175781 L 564.363281 356.84375 L 569.863281 358.511719 L 570.863281 360.84375 L 568.570312 363.21875 L 575.695312 360.96875 L 582.195312 363.53125 L 579.695312 360.59375 L 580.445312 358.78125 L 586.363281 356.84375 L 591.03125 359.011719 L 586.53125 354.675781 L 580.882812 356.34375 L 580.695312 353.675781 L 582.363281 352.34375 L 586.363281 352.34375 L 582.507812 349.84375 L 579.363281 351.84375 C 579.363281 351.84375 577.675781 349.84375 575.695312 349.84375 Z M 575.695312 349.84375 "/>

</svg>