<svg xmlns="http://www.w3.org/2000/svg" xmlns:xlink="http://www.w3.org/1999/xlink" width="612pt" height="792pt" viewBox="0 0 612 792" version="1.1">

<!-- Uplift Assault Shuttle -->
<path style="fill-rule:evenodd;fill:rgb(13.69955%,12.199588%,12.500191%);fill-opacity:1;stroke-width:0.072;stroke-linecap:butt;stroke-linejoin:miter;stroke:rgb(13.69955%,12.199588%,12.500191%);stroke-opacity:1;stroke-miterlimit:2.613;" d="M 493.996094 36.390625 L 494.371094 36.015625 L 494.675781 36.015625 L 494.675781 36.011719 L 495.078125 36.011719 L 495.078125 36.015625 L 495.382812 36.015625 L 495.757812 36.390625 L 495.878906 36.390625 L 496.050781 35.753906 L 496.40625 35.753906 L 496.238281 36.390625 L 496.40625 37.722656 L 497.703125 37.722656 L 497.703125 37.570312 C 497.703125 37.300781 497.824219 37.082031 497.96875 37.082031 L 499.488281 37.082031 C 499.636719 37.082031 499.753906 37.300781 499.753906 37.570312 L 499.753906 37.722656 L 501.328125 37.722656 C 501.402344 37.722656 501.460938 37.78125 501.460938 37.855469 L 501.460938 38.976562 C 501.460938 39.011719 501.445312 39.046875 501.421875 39.070312 L 501.433594 39.070312 L 499.765625 40.742188 L 499.765625 39.109375 L 499.753906 39.109375 L 499.753906 43.617188 L 504.5 43 C 504.5 43.578125 504.5 44.160156 504.5 44.738281 L 499.753906 46.796875 L 499.753906 47.785156 C 499.753906 48.054688 499.636719 48.273438 499.488281 48.273438 L 497.96875 48.273438 C 497.824219 48.273438 497.703125 48.054688 497.703125 47.785156 L 497.703125 47.382812 L 497.058594 47.601562 C 496.90625 50.039062 496.488281 51.40625 495.996094 51.40625 C 495.992188 51.40625 495.992188 51.402344 495.988281 51.402344 C 495.863281 51.648438 495.441406 51.835938 494.933594 51.847656 L 494.933594 51.859375 L 494.816406 51.859375 L 494.816406 51.847656 C 494.3125 51.835938 493.890625 51.648438 493.765625 51.402344 C 493.765625 51.402344 493.761719 51.40625 493.757812 51.40625 C 493.265625 51.40625 492.847656 50.039062 492.699219 47.601562 L 492.050781 47.382812 L 492.050781 47.785156 C 492.050781 48.054688 491.933594 48.273438 491.785156 48.273438 L 490.265625 48.273438 C 490.117188 48.273438 490 48.054688 490 47.785156 L 490 46.796875 L 485.253906 44.738281 C 485.253906 44.160156 485.253906 43.578125 485.253906 43 L 490 43.617188 L 490 39.109375 L 489.972656 39.109375 L 489.972656 40.742188 L 488.304688 39.070312 L 488.328125 39.066406 C 488.308594 39.042969 488.292969 39.011719 488.292969 38.976562 L 488.292969 37.855469 C 488.292969 37.78125 488.355469 37.722656 488.425781 37.722656 L 490 37.722656 L 490 37.570312 C 490 37.300781 490.117188 37.082031 490.265625 37.082031 L 491.785156 37.082031 C 491.933594 37.082031 492.050781 37.300781 492.050781 37.570312 L 492.050781 37.722656 L 493.347656 37.722656 L 493.519531 36.390625 L 493.347656 35.753906 L 493.703125 35.753906 L 493.875 36.390625 L 493.996094 36.390625 Z M 493.800781 50.585938 L 494.660156 50.585938 L 494.660156 49.460938 L 493.800781 49.460938 L 493.800781 50.585938 Z M 495.09375 50.585938 L 495.953125 50.585938 L 495.953125 49.460938 L 495.09375 49.460938 L 495.09375 50.585938 Z M 494.878906 51.308594 C 495.46875 51.308594 495.953125 51.128906 495.953125 50.902344 C 495.953125 50.894531 495.953125 50.886719 495.953125 50.878906 L 493.804688 50.878906 C 493.800781 50.886719 493.800781 50.894531 493.800781 50.902344 C 493.800781 51.128906 494.285156 51.308594 494.878906 51.308594 Z M 497.703125 39.109375 L 496.582031 39.109375 L 496.84375 41.160156 C 496.890625 41.472656 496.9375 41.8125 496.972656 42.171875 L 497.011719 42.46875 L 497.003906 42.476562 C 497.023438 42.714844 497.039062 42.957031 497.058594 43.207031 L 497.703125 43.304688 L 497.703125 39.109375 Z M 492.050781 39.109375 L 493.171875 39.109375 L 492.910156 41.160156 C 492.863281 41.472656 492.820312 41.8125 492.78125 42.171875 L 492.746094 42.46875 L 492.753906 42.476562 C 492.730469 42.714844 492.714844 42.957031 492.699219 43.207031 L 492.050781 43.304688 L 492.050781 39.109375 Z M 492.050781 39.109375 " transform="matrix(1,0,0,-1,0,792)"/>

</svg>