<svg xmlns="http://www.w3.org/2000/svg" xmlns:xlink="http://www.w3.org/1999/xlink" width="612pt" height="792pt" viewBox="0 0 612 792" version="1.1">

<!-- Gatling Railgun -->
<path style="fill-rule:evenodd;fill:rgb(100%,100%,100%);fill-opacity:1;stroke-width:0.72;stroke-linecap:butt;stroke-linejoin:miter;stroke:rgb(13.69955%,12.199588%,12.500191%);stroke-opacity:1;stroke-miterlimit:2.613;" d="M 379.238281 430.34375 L 382.300781 430.34375 L 382.300781 436.878906 L 384.515625 439.097656 L 384.515625 436.925781 L 386.601562 436.925781 L 386.601562 443.523438 L 384.476562 443.523438 L 384.476562 445.445312 L 386.601562 445.445312 L 386.601562 447.488281 L 388.734375 449.621094 L 388.734375 445.445312 L 390.988281 445.445312 L 390.988281 449.621094 L 393.125 447.488281 L 393.125 445.445312 L 395.25 445.445312 L 395.25 443.523438 L 393.125 443.523438 L 393.125 436.925781 L 395.207031 436.925781 L 395.207031 439.097656 L 397.425781 436.878906 L 397.425781 430.34375 L 400.488281 430.34375 L 400.488281 408.757812 L 379.238281 408.757812 L 379.238281 430.34375 Z M 388.734375 436.925781 L 390.992188 436.925781 L 390.992188 443.523438 L 388.734375 443.523438 L 388.734375 436.925781 Z M 384.515625 430.34375 L 386.601562 430.34375 L 386.601562 434.835938 L 384.515625 434.835938 L 384.515625 430.34375 Z M 388.734375 430.34375 L 390.992188 430.34375 L 390.992188 434.835938 L 388.734375 434.835938 L 388.734375 430.34375 Z M 393.125 430.34375 L 395.210938 430.34375 L 395.210938 434.835938 L 393.125 434.835938 L 393.125 430.34375 Z M 393.125 430.34375 " transform="matrix(1,0,0,-1,0,792)"/>

<!-- Damage Boxes -->
<path style="fill:none;stroke-width:1.44;stroke-linecap:butt;stroke-linejoin:miter;stroke:rgb(13.69955%,12.199588%,12.500191%);stroke-opacity:1;stroke-miterlimit:2.613;" d="M 383.40625 425.40625 L 389.863281 425.40625 L 389.863281 418.949219 L 383.40625 418.949219 L 383.40625 425.40625 Z M 383.40625 412.496094 L 389.863281 412.496094 L 389.863281 418.949219 L 383.40625 418.949219 L 383.40625 412.496094 Z M 389.863281 418.953125 L 396.316406 418.953125 L 396.316406 425.40625 L 389.863281 425.40625 L 389.863281 418.953125 Z M 389.863281 418.953125 L 396.316406 418.953125 L 396.316406 412.496094 L 389.863281 412.496094 L 389.863281 418.953125 Z M 389.863281 418.953125 " transform="matrix(1,0,0,-1,0,792)"/>

</svg>