<svg xmlns="http://www.w3.org/2000/svg" xmlns:xlink="http://www.w3.org/1999/xlink" width="612pt" height="792pt" viewBox="0 0 612 792" version="1.1">

<!-- Gatling Railgun -->
<path style="fill-rule:evenodd;fill:rgb(100%,100%,100%);fill-opacity:1;stroke-width:0.72;stroke-linecap:butt;stroke-linejoin:miter;stroke:rgb(13.69955%,12.199588%,12.500191%);stroke-opacity:1;stroke-miterlimit:2.613;" d="M 212.675781 430.34375 L 215.738281 430.34375 L 215.738281 436.878906 L 217.953125 439.097656 L 217.953125 436.925781 L 220.039062 436.925781 L 220.039062 443.523438 L 217.910156 443.523438 L 217.910156 445.445312 L 220.039062 445.445312 L 220.039062 447.488281 L 222.171875 449.621094 L 222.171875 445.445312 L 224.425781 445.445312 L 224.425781 449.621094 L 226.558594 447.488281 L 226.558594 445.445312 L 228.6875 445.445312 L 228.6875 443.523438 L 226.558594 443.523438 L 226.558594 436.925781 L 228.644531 436.925781 L 228.644531 439.097656 L 230.863281 436.878906 L 230.863281 430.34375 L 233.925781 430.34375 L 233.925781 408.757812 L 212.675781 408.757812 L 212.675781 430.34375 Z M 222.171875 436.925781 L 224.429688 436.925781 L 224.429688 443.523438 L 222.171875 443.523438 L 222.171875 436.925781 Z M 217.953125 430.34375 L 220.039062 430.34375 L 220.039062 434.835938 L 217.953125 434.835938 L 217.953125 430.34375 Z M 222.171875 430.34375 L 224.429688 430.34375 L 224.429688 434.835938 L 222.171875 434.835938 L 222.171875 430.34375 Z M 226.558594 430.34375 L 228.644531 430.34375 L 228.644531 434.835938 L 226.558594 434.835938 L 226.558594 430.34375 Z M 226.558594 430.34375 " transform="matrix(1,0,0,-1,0,792)"/>

<!-- Damage Boxes -->
<!--
<path style="fill:none;stroke-width:1.44;stroke-linecap:butt;stroke-linejoin:miter;stroke:rgb(13.69955%,12.199588%,12.500191%);stroke-opacity:1;stroke-miterlimit:2.613;" d="M 216.84375 425.40625 L 223.300781 425.40625 L 223.300781 418.949219 L 216.84375 418.949219 L 216.84375 425.40625 Z M 216.84375 412.496094 L 223.300781 412.496094 L 223.300781 418.949219 L 216.84375 418.949219 L 216.84375 412.496094 Z M 223.300781 418.953125 L 229.753906 418.953125 L 229.753906 425.40625 L 223.300781 425.40625 L 223.300781 418.953125 Z M 223.300781 418.953125 L 229.753906 418.953125 L 229.753906 412.496094 L 223.300781 412.496094 L 223.300781 418.953125 Z M 223.300781 418.953125 " transform="matrix(1,0,0,-1,0,792)"/>
-->
<path style="fill:none;stroke-width:1.44;stroke-linecap:butt;stroke-linejoin:miter;stroke:rgb(13.69955%,12.199588%,12.500191%);stroke-opacity:1;stroke-miterlimit:2.613;" d="M 216.84375 425.40625 L 223.300781 425.40625 L 223.300781 418.949219 L 216.84375 418.949219 L 216.84375 425.40625 Z M 216.84375 412.496094 " transform="matrix(1,0,0,-1,0,792)"/>
<path style="fill:none;stroke-width:1.44;stroke-linecap:butt;stroke-linejoin:miter;stroke:rgb(13.69955%,12.199588%,12.500191%);stroke-opacity:1;stroke-miterlimit:2.613;" d="M 223.300781 418.953125 L 229.753906 418.953125 L 229.753906 425.40625 L 223.300781 425.40625 L 223.300781 418.953125 Z M 223.300781 418.953125 " transform="matrix(1,0,0,-1,0,792)"/>
<path style="fill:none;stroke-width:1.44;stroke-linecap:butt;stroke-linejoin:miter;stroke:rgb(13.69955%,12.199588%,12.500191%);stroke-opacity:1;stroke-miterlimit:2.613;" d="M 216.84375 412.496094 L 223.300781 412.496094 L 223.300781 418.949219 L 216.84375 418.949219 L 216.84375 412.496094 Z M 223.300781 418.953125 " transform="matrix(1,0,0,-1,0,792)"/>
<path style="fill:none;stroke-width:1.44;stroke-linecap:butt;stroke-linejoin:miter;stroke:rgb(13.69955%,12.199588%,12.500191%);stroke-opacity:1;stroke-miterlimit:2.613;" d="M 223.300781 418.953125 L 229.753906 418.953125 L 229.753906 412.496094 L 223.300781 412.496094 L 223.300781 418.953125 Z M 223.300781 418.953125 " transform="matrix(1,0,0,-1,0,792)"/>

</svg>