<svg xmlns="http://www.w3.org/2000/svg" xmlns:xlink="http://www.w3.org/1999/xlink" width="612pt" height="792pt" viewBox="0 0 612 792" version="1.1">

<!-- Gauss Cannon -->
<path style="fill-rule:evenodd;fill:rgb(100%,100%,100%);fill-opacity:1;stroke-width:0.72;stroke-linecap:butt;stroke-linejoin:miter;stroke:rgb(13.69955%,12.199588%,12.500191%);stroke-opacity:1;stroke-miterlimit:2.613;" d="M 301.578125 443.253906 L 301.578125 462.765625 L 295.015625 469.328125 L 288.71875 481.925781 L 288.71875 488.578125 L 286.414062 488.578125 L 286.414062 482.101562 L 282.371094 482.101562 L 282.371094 488.578125 L 280.066406 488.578125 L 280.066406 481.925781 L 273.769531 469.328125 L 267.207031 462.765625 L 267.207031 443.253906 L 301.578125 443.253906 Z M 282.199219 475.605469 L 279.691406 470.847656 L 284.390625 473.269531 L 289.09375 470.847656 L 286.585938 475.605469 L 282.199219 475.605469 Z M 282.375 479.886719 L 286.542969 479.886719 L 286.542969 477.757812 L 282.375 477.757812 L 282.375 479.886719 Z M 282.375 479.886719 " transform="matrix(1,0,0,-1,0,792)"/>

<!-- Damage Boxes -->
<path style="fill:none;stroke-width:1.44;stroke-linecap:butt;stroke-linejoin:miter;stroke:rgb(13.69955%,12.199588%,12.500191%);stroke-opacity:1;stroke-miterlimit:2.613;" d="M 284.394531 460.417969 L 290.847656 460.417969 L 290.847656 453.964844 L 284.394531 453.964844 L 284.394531 460.417969 Z M 284.394531 460.417969 L 290.847656 460.417969 L 290.847656 466.871094 L 284.394531 466.871094 L 284.394531 460.417969 Z M 284.394531 447.507812 L 290.847656 447.507812 L 290.847656 453.960938 L 284.394531 453.960938 L 284.394531 447.507812 Z M 290.847656 453.960938 L 297.300781 453.960938 L 297.300781 460.414062 L 290.847656 460.414062 L 290.847656 453.960938 Z M 290.847656 453.960938 L 297.300781 453.960938 L 297.300781 447.507812 L 290.847656 447.507812 L 290.847656 453.960938 Z M 277.9375 453.960938 L 284.390625 453.960938 L 284.390625 460.414062 L 277.9375 460.414062 L 277.9375 453.960938 Z M 277.9375 466.871094 L 284.390625 466.871094 L 284.390625 460.417969 L 277.9375 460.417969 L 277.9375 466.871094 Z M 277.9375 453.960938 L 284.390625 453.960938 L 284.390625 447.507812 L 277.9375 447.507812 L 277.9375 453.960938 Z M 271.484375 460.417969 L 277.9375 460.417969 L 277.9375 453.964844 L 271.484375 453.964844 L 271.484375 460.417969 Z M 271.484375 447.507812 L 277.9375 447.507812 L 277.9375 453.960938 L 271.484375 453.960938 L 271.484375 447.507812 Z M 271.484375 447.507812 " transform="matrix(1,0,0,-1,0,792)"/>

</svg>