<svg xmlns="http://www.w3.org/2000/svg" xmlns:xlink="http://www.w3.org/1999/xlink" width="612pt" height="792pt" viewBox="0 0 612 792" version="1.1">

<!-- Laser Lance -->
<path style="fill-rule:evenodd;fill:rgb(100%,100%,100%);fill-opacity:1;stroke-width:0.72;stroke-linecap:butt;stroke-linejoin:miter;stroke:rgb(13.69955%,12.199588%,12.500191%);stroke-opacity:1;stroke-miterlimit:2.613;" d="M 270.3125 460.21875 L 270.410156 460.3125 L 279.867188 469.773438 L 279.867188 471.632812 L 276.78125 471.632812 L 276.78125 474.839844 L 279.867188 474.839844 L 279.867188 476.421875 L 279.9375 476.421875 L 279.9375 476.808594 L 281.917969 480.238281 L 281.917969 480.425781 L 279 480.425781 L 279 483.632812 L 282.15625 483.632812 L 282.15625 485.601562 L 284.363281 489.421875 L 284.394531 489.367188 L 284.421875 489.421875 L 286.628906 485.601562 L 286.628906 483.632812 L 289.785156 483.632812 L 289.785156 480.425781 L 286.867188 480.425781 L 286.867188 480.238281 L 288.847656 476.808594 L 288.847656 476.421875 L 288.917969 476.421875 L 288.917969 474.839844 L 292.003906 474.839844 L 292.003906 471.632812 L 288.917969 471.632812 L 288.917969 469.683594 L 298.472656 460.132812 L 298.371094 460.226562 L 298.371094 460.226562 L 298.378906 460.21875 L 298.371094 460.21875 L 298.371094 443.253906 L 270.3125 443.253906 L 270.3125 460.21875 Z M 270.3125 460.21875 " transform="matrix(1,0,0,-1,0,792)"/>

<!-- Damage Boxes -->
<path style="fill:none;stroke-width:1.44;stroke-linecap:butt;stroke-linejoin:miter;stroke:rgb(13.69955%,12.199588%,12.500191%);stroke-opacity:1;stroke-miterlimit:2.613;" d="M 274.8125 460.417969 L 281.265625 460.417969 L 281.265625 453.964844 L 274.8125 453.964844 L 274.8125 460.417969 Z M 274.8125 447.507812 L 281.265625 447.507812 L 281.265625 453.964844 L 274.8125 453.964844 L 274.8125 447.507812 Z M 281.265625 453.964844 L 287.722656 453.964844 L 287.722656 460.417969 L 281.265625 460.417969 L 281.265625 453.964844 Z M 287.71875 460.417969 L 294.175781 460.417969 L 294.175781 453.964844 L 287.71875 453.964844 L 287.71875 460.417969 Z M 281.265625 453.964844 L 287.722656 453.964844 L 287.722656 447.507812 L 281.265625 447.507812 L 281.265625 453.964844 Z M 287.71875 447.507812 L 294.175781 447.507812 L 294.175781 453.964844 L 287.71875 453.964844 L 287.71875 447.507812 Z M 287.71875 447.507812 " transform="matrix(1,0,0,-1,0,792)"/>

</svg>