<svg xmlns="http://www.w3.org/2000/svg" xmlns:xlink="http://www.w3.org/1999/xlink" width="612pt" height="792pt" viewBox="0 0 612 792" version="1.1">

<!-- Packet Torpedo -->
<path style="fill:none;stroke-width:0.75;stroke-linecap:butt;stroke-linejoin:miter;stroke:rgb(13.730068%,12.159915%,12.54902%);stroke-opacity:1;stroke-miterlimit:4;" d="M 406.125 504 C 409.230469 504 411.75 505.007812 411.75 506.25 C 411.75 507.492188 409.230469 508.5 406.125 508.5 C 403.019531 508.5 400.5 507.492188 400.5 506.25 C 400.5 505.007812 403.019531 504 406.125 504 Z M 406.125 504 " transform="matrix(1,0,0,-1,0,793)"/>
<path style="fill:none;stroke-width:0.75;stroke-linecap:butt;stroke-linejoin:miter;stroke:rgb(13.730068%,12.159915%,12.54902%);stroke-opacity:1;stroke-miterlimit:4;" d="M 406.125 508.5 C 409.230469 508.5 411.75 509.507812 411.75 510.75 C 411.75 511.992188 409.230469 513 406.125 513 C 403.019531 513 400.5 511.992188 400.5 510.75 C 400.5 509.507812 403.019531 508.5 406.125 508.5 Z M 406.125 508.5 " transform="matrix(1,0,0,-1,0,793)"/>
<path style="fill:none;stroke-width:0.75;stroke-linecap:butt;stroke-linejoin:miter;stroke:rgb(13.730068%,12.159915%,12.54902%);stroke-opacity:1;stroke-miterlimit:4;" d="M 400.5 515.25 C 400.5 514.007812 403.019531 513 406.125 513 C 409.230469 513 411.75 514.007812 411.75 515.25 " transform="matrix(1,0,0,-1,0,793)"/>
<path style="fill-rule:nonzero;fill:rgb(100%,100%,100%);fill-opacity:1;stroke-width:0.75;stroke-linecap:butt;stroke-linejoin:miter;stroke:rgb(13.730068%,12.159915%,12.54902%);stroke-opacity:1;stroke-miterlimit:4;" d="M 390.25 465.75 L 390.25 483.75 L 401.5 497.25 L 401.5 504 L 406 501.75 L 406 515.25 L 406 501.75 L 410.5 504 L 410.5 497.25 L 421.75 483.75 L 421.75 465.75 L 390.25 465.75 Z M 390.25 465.75 " transform="matrix(1,0,0,-1,0,793)"/>

<!-- Damage Boxes -->
<path style="fill-rule:nonzero;fill:rgb(100%,100%,100%);fill-opacity:1;stroke-width:1.5;stroke-linecap:butt;stroke-linejoin:miter;stroke:rgb(13.730068%,12.159915%,12.54902%);stroke-opacity:1;stroke-miterlimit:4;" d="M 409.5 483.75 L 409.5 490.5 L 402.75 490.5 L 402.75 483.75 L 409.5 483.75 Z M 409.5 483.75 " transform="matrix(1,0,0,-1,0,793)"/>
<path style="fill-rule:nonzero;fill:rgb(100%,100%,100%);fill-opacity:1;stroke-width:1.5;stroke-linecap:butt;stroke-linejoin:miter;stroke:rgb(13.730068%,12.159915%,12.54902%);stroke-opacity:1;stroke-miterlimit:4;" d="M 406.25 477 L 406.25 483.75 L 399.5 483.75 L 399.5 477 L 406.25 477 Z M 406.25 477 " transform="matrix(1,0,0,-1,0,793)"/>
<path style="fill-rule:nonzero;fill:rgb(100%,100%,100%);fill-opacity:1;stroke-width:1.5;stroke-linecap:butt;stroke-linejoin:miter;stroke:rgb(13.730068%,12.159915%,12.54902%);stroke-opacity:1;stroke-miterlimit:4;" d="M 413 477 L 413 483.75 L 406.25 483.75 L 406.25 477 L 413 477 Z M 413 477 " transform="matrix(1,0,0,-1,0,793)"/>
<path style="fill-rule:nonzero;fill:rgb(100%,100%,100%);fill-opacity:1;stroke-width:1.5;stroke-linecap:butt;stroke-linejoin:miter;stroke:rgb(13.730068%,12.159915%,12.54902%);stroke-opacity:1;stroke-miterlimit:4;" d="M 402.75 470.25 L 402.75 477 L 396 477 L 396 470.25 L 402.75 470.25 Z M 402.75 470.25 " transform="matrix(1,0,0,-1,0,793)"/>
<path style="fill-rule:nonzero;fill:rgb(100%,100%,100%);fill-opacity:1;stroke-width:1.5;stroke-linecap:butt;stroke-linejoin:miter;stroke:rgb(13.730068%,12.159915%,12.54902%);stroke-opacity:1;stroke-miterlimit:4;" d="M 409.5 470.25 L 409.5 477 L 402.75 477 L 402.75 470.25 L 409.5 470.25 Z M 409.5 470.25 " transform="matrix(1,0,0,-1,0,793)"/>
<path style="fill-rule:nonzero;fill:rgb(100%,100%,100%);fill-opacity:1;stroke-width:1.5;stroke-linecap:butt;stroke-linejoin:miter;stroke:rgb(13.730068%,12.159915%,12.54902%);stroke-opacity:1;stroke-miterlimit:4;" d="M 416.25 470.25 L 416.25 477 L 409.5 477 L 409.5 470.25 L 416.25 470.25 Z M 416.25 470.25 " transform="matrix(1,0,0,-1,0,793)"/>

</svg>