<svg xmlns="http://www.w3.org/2000/svg" xmlns:xlink="http://www.w3.org/1999/xlink" width="612pt" height="792pt" viewBox="0 0 612 792" version="1.1">

<!-- Proximity Laser -->
<path style="fill-rule:nonzero;fill:rgb(100%,100%,100%);fill-opacity:1;stroke-width:0.75;stroke-linecap:butt;stroke-linejoin:miter;stroke:rgb(13.730068%,12.159915%,12.54902%);stroke-opacity:1;stroke-miterlimit:4;" d="M 165 388.75 L 165 411.25 L 169.5 411.25 L 169.5 413.5 L 167.25 413.5 L 167.25 415.75 L 169.5 415.75 L 169.5 418 L 167.25 418 L 167.25 420.25 L 169.5 420.25 L 169.5 422.5 L 167.25 422.5 L 173 429.25 L 178.5 422.5 L 176.25 422.5 L 176.25 420.25 L 183 420.25 L 183 422.5 L 180.75 422.5 L 186.25 429.25 L 192 422.5 L 189.75 422.5 L 189.75 420.25 L 192 420.25 L 192 418 L 189.75 418 L 189.75 415.75 L 192 415.75 L 192 413.5 L 189.75 413.5 L 189.75 411.25 L 194.25 411.25 L 194.25 388.75 L 165 388.75 Z M 165 388.75 " transform="matrix(1,0,0,-1,0,792)"/>
<path style="fill-rule:nonzero;fill:rgb(100%,100%,100%);fill-opacity:1;stroke-width:0.75;stroke-linecap:butt;stroke-linejoin:miter;stroke:rgb(13.730068%,12.159915%,12.54902%);stroke-opacity:1;stroke-miterlimit:4;" d="M 176.25 418 L 176.25 415.75 L 183 415.75 L 183 418 L 176.25 418 " transform="matrix(1,0,0,-1,0,792)"/>
<path style="fill-rule:nonzero;fill:rgb(100%,100%,100%);fill-opacity:1;stroke-width:0.75;stroke-linecap:butt;stroke-linejoin:miter;stroke:rgb(13.730068%,12.159915%,12.54902%);stroke-opacity:1;stroke-miterlimit:4;" d="M 176.25 413.5 L 176.25 411.25 L 183 411.25 L 183 413.5 L 176.25 413.5 " transform="matrix(1,0,0,-1,0,792)"/>

<!-- Damage Boxes -->
<path style="fill-rule:nonzero;fill:rgb(100%,100%,100%);fill-opacity:1;stroke-width:1.5;stroke-linecap:butt;stroke-linejoin:miter;stroke:rgb(13.730068%,12.159915%,12.54902%);stroke-opacity:1;stroke-miterlimit:4;" d="M 176.25 406.75 L 176.25 400 L 169.5 400 L 169.5 406.75 L 176.25 406.75 Z M 176.25 406.75 " transform="matrix(1,0,0,-1,0,792)"/>
<path style="fill-rule:nonzero;fill:rgb(100%,100%,100%);fill-opacity:1;stroke-width:1.5;stroke-linecap:butt;stroke-linejoin:miter;stroke:rgb(13.730068%,12.159915%,12.54902%);stroke-opacity:1;stroke-miterlimit:4;" d="M 183 406.75 L 183 400 L 176.25 400 L 176.25 406.75 L 183 406.75 Z M 183 406.75 " transform="matrix(1,0,0,-1,0,792)"/>
<path style="fill-rule:nonzero;fill:rgb(100%,100%,100%);fill-opacity:1;stroke-width:1.5;stroke-linecap:butt;stroke-linejoin:miter;stroke:rgb(13.730068%,12.159915%,12.54902%);stroke-opacity:1;stroke-miterlimit:4;" d="M 189.75 406.75 L 189.75 400 L 183 400 L 183 406.75 L 189.75 406.75 Z M 189.75 406.75 " transform="matrix(1,0,0,-1,0,792)"/>
<path style="fill-rule:nonzero;fill:rgb(100%,100%,100%);fill-opacity:1;stroke-width:1.5;stroke-linecap:butt;stroke-linejoin:miter;stroke:rgb(13.730068%,12.159915%,12.54902%);stroke-opacity:1;stroke-miterlimit:4;" d="M 176.25 400 L 176.25 393.25 L 169.5 393.25 L 169.5 400 L 176.25 400 Z M 176.25 400 " transform="matrix(1,0,0,-1,0,792)"/>
<path style="fill-rule:nonzero;fill:rgb(100%,100%,100%);fill-opacity:1;stroke-width:1.5;stroke-linecap:butt;stroke-linejoin:miter;stroke:rgb(13.730068%,12.159915%,12.54902%);stroke-opacity:1;stroke-miterlimit:4;" d="M 183 400 L 183 393.25 L 176.25 393.25 L 176.25 400 L 183 400 Z M 183 400 " transform="matrix(1,0,0,-1,0,792)"/>
<path style="fill-rule:nonzero;fill:rgb(100%,100%,100%);fill-opacity:1;stroke-width:1.5;stroke-linecap:butt;stroke-linejoin:miter;stroke:rgb(13.730068%,12.159915%,12.54902%);stroke-opacity:1;stroke-miterlimit:4;" d="M 189.75 400 L 189.75 393.25 L 183 393.25 L 183 400 L 189.75 400 Z M 189.75 400 " transform="matrix(1,0,0,-1,0,792)"/>

</svg>