<svg xmlns="http://www.w3.org/2000/svg" xmlns:xlink="http://www.w3.org/1999/xlink" width="612pt" height="792pt" viewBox="0 0 612 792" version="1.1">

<!-- Antimatter Torpedo -->
<path style="fill-rule:nonzero;fill:rgb(100%,100%,100%);fill-opacity:1;stroke-width:0.75;stroke-linecap:butt;stroke-linejoin:miter;stroke:rgb(13.730068%,12.159915%,12.54902%);stroke-opacity:1;stroke-miterlimit:4;" d="M 461.25 416.25 L 461.25 434.25 L 468 434.25 L 463.5 443.25 L 461.25 443.25 L 461.25 445.5 L 452.25 454.5 L 456.75 456.75 L 447.75 470.25 L 438.75 456.75 L 443.25 454.5 L 434.25 445.5 L 434.25 443.25 L 432 443.25 L 427.5 434.25 L 434.25 434.25 L 434.25 416.25 L 461.25 416.25 " transform="matrix(1,0,0,-1,0,793)"/>

<!-- Damage Boxes -->
<path style="fill-rule:nonzero;fill:rgb(100%,100%,100%);fill-opacity:1;stroke-width:1.5;stroke-linecap:butt;stroke-linejoin:miter;stroke:rgb(13.730068%,12.159915%,12.54902%);stroke-opacity:1;stroke-miterlimit:4;" d="M 447.75 443.25 L 441 443.25 L 441 436.5 L 447.75 436.5 L 447.75 443.25 Z M 447.75 443.25 " transform="matrix(1,0,0,-1,0,793)"/>
<path style="fill-rule:nonzero;fill:rgb(100%,100%,100%);fill-opacity:1;stroke-width:1.5;stroke-linecap:butt;stroke-linejoin:miter;stroke:rgb(13.730068%,12.159915%,12.54902%);stroke-opacity:1;stroke-miterlimit:4;" d="M 454.5 443.25 L 447.75 443.25 L 447.75 436.5 L 454.5 436.5 L 454.5 443.25 Z M 454.5 443.25 " transform="matrix(1,0,0,-1,0,793)"/>
<path style="fill-rule:nonzero;fill:rgb(100%,100%,100%);fill-opacity:1;stroke-width:1.5;stroke-linecap:butt;stroke-linejoin:miter;stroke:rgb(13.730068%,12.159915%,12.54902%);stroke-opacity:1;stroke-miterlimit:4;" d="M 447.75 436.5 L 441 436.5 L 441 429.75 L 447.75 429.75 L 447.75 436.5 Z M 447.75 436.5 " transform="matrix(1,0,0,-1,0,793)"/>
<path style="fill-rule:nonzero;fill:rgb(100%,100%,100%);fill-opacity:1;stroke-width:1.5;stroke-linecap:butt;stroke-linejoin:miter;stroke:rgb(13.730068%,12.159915%,12.54902%);stroke-opacity:1;stroke-miterlimit:4;" d="M 454.5 436.5 L 447.75 436.5 L 447.75 429.75 L 454.5 429.75 L 454.5 436.5 Z M 454.5 436.5 " transform="matrix(1,0,0,-1,0,793)"/>
<path style="fill-rule:nonzero;fill:rgb(100%,100%,100%);fill-opacity:1;stroke-width:1.5;stroke-linecap:butt;stroke-linejoin:miter;stroke:rgb(13.730068%,12.159915%,12.54902%);stroke-opacity:1;stroke-miterlimit:4;" d="M 447.75 429.75 L 441 429.75 L 441 423 L 447.75 423 L 447.75 429.75 Z M 447.75 429.75 " transform="matrix(1,0,0,-1,0,793)"/>
<path style="fill-rule:nonzero;fill:rgb(100%,100%,100%);fill-opacity:1;stroke-width:1.5;stroke-linecap:butt;stroke-linejoin:miter;stroke:rgb(13.730068%,12.159915%,12.54902%);stroke-opacity:1;stroke-miterlimit:4;" d="M 454.5 429.75 L 447.75 429.75 L 447.75 423 L 454.5 423 L 454.5 429.75 Z M 454.5 429.75 " transform="matrix(1,0,0,-1,0,793)"/>

</svg>