<svg xmlns="http://www.w3.org/2000/svg" xmlns:xlink="http://www.w3.org/1999/xlink" width="612pt" height="792pt" viewBox="0 0 612 792" version="1.1">

<!-- Antiproton Defender -->
<path style="fill-rule:nonzero;fill:rgb(100%,100%,100%);fill-opacity:1;stroke-width:0.75;stroke-linecap:butt;stroke-linejoin:miter;stroke:rgb(13.730068%,12.159915%,12.54902%);stroke-opacity:1;stroke-miterlimit:4;" d="M 295.957031 319.5 L 295.957031 328.792969 L 291.457031 333.292969 L 291.457031 337.792969 L 302.707031 344.542969 L 300.457031 346.792969 L 300.457031 351.292969 L 308.292969 360.292969 L 316.207031 351.292969 L 316.207031 346.792969 L 313.957031 344.542969 L 325.207031 337.792969 L 325.207031 333.292969 L 320.707031 328.792969 L 320.707031 319.5 L 295.957031 319.5 Z M 295.957031 319.5 " transform="matrix(1,0,0,-1,0,793)"/>

<!-- Damage Boxes -->
<path style="fill-rule:nonzero;fill:rgb(100%,100%,100%);fill-opacity:1;stroke-width:1.5;stroke-linecap:butt;stroke-linejoin:miter;stroke:rgb(13.730068%,12.159915%,12.54902%);stroke-opacity:1;stroke-miterlimit:4;" d="M 308.292969 331 L 308.292969 337.75 L 301.542969 337.75 L 301.542969 331 L 308.292969 331 Z M 308.292969 331 " transform="matrix(1,0,0,-1,0,793)"/>
<path style="fill-rule:nonzero;fill:rgb(100%,100%,100%);fill-opacity:1;stroke-width:1.5;stroke-linecap:butt;stroke-linejoin:miter;stroke:rgb(13.730068%,12.159915%,12.54902%);stroke-opacity:1;stroke-miterlimit:4;" d="M 315.042969 331 L 315.042969 337.75 L 308.292969 337.75 L 308.292969 331 L 315.042969 331 Z M 315.042969 331 " transform="matrix(1,0,0,-1,0,793)"/>
<path style="fill-rule:nonzero;fill:rgb(100%,100%,100%);fill-opacity:1;stroke-width:1.5;stroke-linecap:butt;stroke-linejoin:miter;stroke:rgb(13.730068%,12.159915%,12.54902%);stroke-opacity:1;stroke-miterlimit:4;" d="M 308.292969 324.25 L 308.292969 331 L 301.542969 331 L 301.542969 324.25 L 308.292969 324.25 Z M 308.292969 324.25 " transform="matrix(1,0,0,-1,0,793)"/>
<path style="fill-rule:nonzero;fill:rgb(100%,100%,100%);fill-opacity:1;stroke-width:1.5;stroke-linecap:butt;stroke-linejoin:miter;stroke:rgb(13.730068%,12.159915%,12.54902%);stroke-opacity:1;stroke-miterlimit:4;" d="M 315.042969 324.25 L 315.042969 331 L 308.292969 331 L 308.292969 324.25 L 315.042969 324.25 Z M 315.042969 324.25 " transform="matrix(1,0,0,-1,0,793)"/>

</svg>