<svg xmlns="http://www.w3.org/2000/svg" xmlns:xlink="http://www.w3.org/1999/xlink" width="612pt" height="792pt" viewBox="0 0 612 792" version="1.1">

<!-- Antimatter Converter -->
<path style="fill-rule:nonzero;fill:rgb(100%,100%,100%);fill-opacity:1;stroke-width:0.75;stroke-linecap:butt;stroke-linejoin:miter;stroke:rgb(13.730068%,12.159915%,12.54902%);stroke-opacity:1;stroke-miterlimit:4;" d="M 210.585069 514.123619 L 210.585069 523.123619 L 206.085069 527.623619 L 206.085069 541.123619 L 210.585069 536.623619 L 210.585069 552.373619 L 215.085069 547.873619 L 215.085069 545.623619 L 219.585069 541.123619 L 225.335069 556.873619 L 230.835069 541.123619 L 235.335069 545.623619 L 235.335069 547.873619 L 239.835069 552.373619 L 239.835069 536.623619 L 244.335069 541.123619 L 244.335069 527.623619 L 239.835069 523.123619 L 239.835069 514.123619 L 210.585069 514.123619 " transform="matrix(1,0,0,-1,-95.5421,865.6119)"/>

<!-- Damage Boxes -->
<path style="fill-rule:nonzero;fill:rgb(100%,100%,100%);fill-opacity:1;stroke-width:1.5;stroke-linecap:butt;stroke-linejoin:miter;stroke:rgb(13.730068%,12.159915%,12.54902%);stroke-opacity:1;stroke-miterlimit:4;" d="M 228.585069 532.123619 L 228.585069 538.873619 L 221.835069 538.873619 L 221.835069 532.123619 L 228.585069 532.123619 Z M 228.585069 532.123619 " transform="matrix(1,0,0,-1,-95.5421,865.6119)"/>
<path style="fill-rule:nonzero;fill:rgb(100%,100%,100%);fill-opacity:1;stroke-width:1.5;stroke-linecap:butt;stroke-linejoin:miter;stroke:rgb(13.730068%,12.159915%,12.54902%);stroke-opacity:1;stroke-miterlimit:4;" d="M 221.835069 525.373619 L 221.835069 532.123619 L 215.085069 532.123619 L 215.085069 525.373619 L 221.835069 525.373619 Z M 221.835069 525.373619 " transform="matrix(1,0,0,-1,-95.5421,865.6119)"/>
<path style="fill-rule:nonzero;fill:rgb(100%,100%,100%);fill-opacity:1;stroke-width:1.5;stroke-linecap:butt;stroke-linejoin:miter;stroke:rgb(13.730068%,12.159915%,12.54902%);stroke-opacity:1;stroke-miterlimit:4;" d="M 228.585069 525.373619 L 228.585069 532.123619 L 221.835069 532.123619 L 221.835069 525.373619 L 228.585069 525.373619 Z M 228.585069 525.373619 " transform="matrix(1,0,0,-1,-95.5421,865.6119)"/>
<path style="fill-rule:nonzero;fill:rgb(100%,100%,100%);fill-opacity:1;stroke-width:1.5;stroke-linecap:butt;stroke-linejoin:miter;stroke:rgb(13.730068%,12.159915%,12.54902%);stroke-opacity:1;stroke-miterlimit:4;" d="M 235.335069 525.373619 L 235.335069 532.123619 L 228.585069 532.123619 L 228.585069 525.373619 L 235.335069 525.373619 Z M 235.335069 525.373619 " transform="matrix(1,0,0,-1,-95.5421,865.6119)"/>
<path style="fill-rule:nonzero;fill:rgb(100%,100%,100%);fill-opacity:1;stroke-width:1.5;stroke-linecap:butt;stroke-linejoin:miter;stroke:rgb(13.730068%,12.159915%,12.54902%);stroke-opacity:1;stroke-miterlimit:4;" d="M 221.835069 518.623619 L 221.835069 525.373619 L 215.085069 525.373619 L 215.085069 518.623619 L 221.835069 518.623619 Z M 221.835069 518.623619 " transform="matrix(1,0,0,-1,-95.5421,865.6119)"/>
<path style="fill-rule:nonzero;fill:rgb(100%,100%,100%);fill-opacity:1;stroke-width:1.5;stroke-linecap:butt;stroke-linejoin:miter;stroke:rgb(13.730068%,12.159915%,12.54902%);stroke-opacity:1;stroke-miterlimit:4;" d="M 228.585069 518.623619 L 228.585069 525.373619 L 221.835069 525.373619 L 221.835069 518.623619 L 228.585069 518.623619 Z M 228.585069 518.623619 " transform="matrix(1,0,0,-1,-95.5421,865.6119)"/>
<path style="fill-rule:nonzero;fill:rgb(100%,100%,100%);fill-opacity:1;stroke-width:1.5;stroke-linecap:butt;stroke-linejoin:miter;stroke:rgb(13.730068%,12.159915%,12.54902%);stroke-opacity:1;stroke-miterlimit:4;" d="M 235.335069 518.623619 L 235.335069 525.373619 L 228.585069 525.373619 L 228.585069 518.623619 L 235.335069 518.623619 Z M 235.335069 518.623619 " transform="matrix(1,0,0,-1,-95.5421,865.6119)"/>

</svg>