<svg xmlns="http://www.w3.org/2000/svg" xmlns:xlink="http://www.w3.org/1999/xlink" width="612pt" height="792pt" viewBox="0 0 612 792" version="1.1">

<!-- Antimatter Shredder -->
<path style="fill-rule:nonzero;fill:rgb(100%,100%,100%);fill-opacity:1;stroke-width:0.75;stroke-linecap:butt;stroke-linejoin:miter;stroke:rgb(13.730068%,12.159915%,12.54902%);stroke-opacity:1;stroke-miterlimit:4;" d="M 191.25 332.5 L 191.25 348.25 L 186.75 352.75 L 186.75 361.75 L 186.75 357.25 L 191.25 357.25 L 191.25 361.75 L 191.25 357.25 L 195.75 357.25 L 195.75 361.75 L 195.75 357.25 L 200.25 357.25 L 200.25 361.75 L 200.25 357.25 L 204.75 357.25 L 204.75 361.75 L 204.75 357.25 L 209.25 357.25 L 209.25 361.75 L 209.25 357.25 L 213.75 357.25 L 213.75 361.75 L 213.75 357.25 L 218.25 357.25 L 218.25 361.75 L 218.25 357.25 L 222.75 357.25 L 222.75 361.75 L 222.75 357.25 L 227.25 357.25 L 227.25 361.75 L 227.25 357.25 L 231.75 357.25 L 231.75 361.75 L 231.75 357.25 L 236.25 357.25 L 236.25 361.75 L 236.25 357.25 L 240.75 357.25 L 240.75 361.75 L 240.75 352.75 L 236.25 348.25 L 236.25 332.5 L 191.25 332.5 Z M 191.25 332.5 " transform="matrix(1,0,0,-1,0,793)"/>

<!-- Damage Boxes -->
<path style="fill-rule:nonzero;fill:rgb(100%,100%,100%);fill-opacity:1;stroke-width:1.5;stroke-linecap:butt;stroke-linejoin:miter;stroke:rgb(13.730068%,12.159915%,12.54902%);stroke-opacity:1;stroke-miterlimit:4;" d="M 203.5 343.75 L 203.5 350.5 L 196.75 350.5 L 196.75 343.75 L 203.5 343.75 Z M 203.5 343.75 " transform="matrix(1,0,0,-1,0,793)"/>
<path style="fill-rule:nonzero;fill:rgb(100%,100%,100%);fill-opacity:1;stroke-width:1.5;stroke-linecap:butt;stroke-linejoin:miter;stroke:rgb(13.730068%,12.159915%,12.54902%);stroke-opacity:1;stroke-miterlimit:4;" d="M 210.25 343.75 L 210.25 350.5 L 203.5 350.5 L 203.5 343.75 L 210.25 343.75 Z M 210.25 343.75 " transform="matrix(1,0,0,-1,0,793)"/>
<path style="fill-rule:nonzero;fill:rgb(100%,100%,100%);fill-opacity:1;stroke-width:1.5;stroke-linecap:butt;stroke-linejoin:miter;stroke:rgb(13.730068%,12.159915%,12.54902%);stroke-opacity:1;stroke-miterlimit:4;" d="M 217 343.75 L 217 350.5 L 210.25 350.5 L 210.25 343.75 L 217 343.75 Z M 217 343.75 " transform="matrix(1,0,0,-1,0,793)"/>
<path style="fill-rule:nonzero;fill:rgb(100%,100%,100%);fill-opacity:1;stroke-width:1.5;stroke-linecap:butt;stroke-linejoin:miter;stroke:rgb(13.730068%,12.159915%,12.54902%);stroke-opacity:1;stroke-miterlimit:4;" d="M 223.75 343.75 L 223.75 350.5 L 217 350.5 L 217 343.75 L 223.75 343.75 Z M 223.75 343.75 " transform="matrix(1,0,0,-1,0,793)"/>
<path style="fill-rule:nonzero;fill:rgb(100%,100%,100%);fill-opacity:1;stroke-width:1.5;stroke-linecap:butt;stroke-linejoin:miter;stroke:rgb(13.730068%,12.159915%,12.54902%);stroke-opacity:1;stroke-miterlimit:4;" d="M 230.5 343.75 L 230.5 350.5 L 223.75 350.5 L 223.75 343.75 L 230.5 343.75 Z M 230.5 343.75 " transform="matrix(1,0,0,-1,0,793)"/>
<path style="fill-rule:nonzero;fill:rgb(100%,100%,100%);fill-opacity:1;stroke-width:1.5;stroke-linecap:butt;stroke-linejoin:miter;stroke:rgb(13.730068%,12.159915%,12.54902%);stroke-opacity:1;stroke-miterlimit:4;" d="M 203.5 337 L 203.5 343.75 L 196.75 343.75 L 196.75 337 L 203.5 337 Z M 203.5 337 " transform="matrix(1,0,0,-1,0,793)"/>
<path style="fill-rule:nonzero;fill:rgb(100%,100%,100%);fill-opacity:1;stroke-width:1.5;stroke-linecap:butt;stroke-linejoin:miter;stroke:rgb(13.730068%,12.159915%,12.54902%);stroke-opacity:1;stroke-miterlimit:4;" d="M 210.25 337 L 210.25 343.75 L 203.5 343.75 L 203.5 337 L 210.25 337 Z M 210.25 337 " transform="matrix(1,0,0,-1,0,793)"/>
<path style="fill-rule:nonzero;fill:rgb(100%,100%,100%);fill-opacity:1;stroke-width:1.5;stroke-linecap:butt;stroke-linejoin:miter;stroke:rgb(13.730068%,12.159915%,12.54902%);stroke-opacity:1;stroke-miterlimit:4;" d="M 217 337 L 217 343.75 L 210.25 343.75 L 210.25 337 L 217 337 Z M 217 337 " transform="matrix(1,0,0,-1,0,793)"/>
<path style="fill-rule:nonzero;fill:rgb(100%,100%,100%);fill-opacity:1;stroke-width:1.5;stroke-linecap:butt;stroke-linejoin:miter;stroke:rgb(13.730068%,12.159915%,12.54902%);stroke-opacity:1;stroke-miterlimit:4;" d="M 223.75 337 L 223.75 343.75 L 217 343.75 L 217 337 L 223.75 337 Z M 223.75 337 " transform="matrix(1,0,0,-1,0,793)"/>
<path style="fill-rule:nonzero;fill:rgb(100%,100%,100%);fill-opacity:1;stroke-width:1.5;stroke-linecap:butt;stroke-linejoin:miter;stroke:rgb(13.730068%,12.159915%,12.54902%);stroke-opacity:1;stroke-miterlimit:4;" d="M 230.5 337 L 230.5 343.75 L 223.75 343.75 L 223.75 337 L 230.5 337 Z M 230.5 337 " transform="matrix(1,0,0,-1,0,793)"/>

</svg>