<svg xmlns="http://www.w3.org/2000/svg" xmlns:xlink="http://www.w3.org/1999/xlink" width="612pt" height="792pt" viewBox="0 0 612 792" version="1.1">

<!-- Assault Laser -->
<path style="fill-rule:nonzero;fill:rgb(100%,100%,100%);fill-opacity:1;stroke-width:0.75;stroke-linecap:butt;stroke-linejoin:miter;stroke:rgb(13.730068%,12.159915%,12.54902%);stroke-opacity:1;stroke-miterlimit:4;" d="M 323.332031 562.292969 L 323.332031 591.542969 L 316.582031 591.542969 L 316.582031 596.042969 L 321.082031 596.042969 L 321.082031 598.292969 L 316.582031 598.292969 L 316.582031 600.542969 L 321.082031 600.542969 L 312.082031 609.542969 L 303.082031 600.542969 L 307.582031 600.542969 L 307.582031 598.292969 L 303.082031 598.292969 L 303.082031 596.042969 L 307.582031 596.042969 L 307.582031 591.542969 L 300.832031 591.542969 L 300.832031 562.292969 L 323.332031 562.292969 Z M 323.332031 562.292969 " transform="matrix(1,0,0,-1,0,793)"/>

<!-- Damage Boxes -->
<path style="fill-rule:nonzero;fill:rgb(100%,100%,100%);fill-opacity:1;stroke-width:1.5;stroke-linecap:butt;stroke-linejoin:miter;stroke:rgb(13.730068%,12.159915%,12.54902%);stroke-opacity:1;stroke-miterlimit:4;" d="M 312.082031 580.292969 L 312.082031 587.042969 L 305.332031 587.042969 L 305.332031 580.292969 L 312.082031 580.292969 Z M 312.082031 580.292969 " transform="matrix(1,0,0,-1,0,793)"/>
<path style="fill-rule:nonzero;fill:rgb(100%,100%,100%);fill-opacity:1;stroke-width:1.5;stroke-linecap:butt;stroke-linejoin:miter;stroke:rgb(13.730068%,12.159915%,12.54902%);stroke-opacity:1;stroke-miterlimit:4;" d="M 318.832031 580.292969 L 318.832031 587.042969 L 312.082031 587.042969 L 312.082031 580.292969 L 318.832031 580.292969 Z M 318.832031 580.292969 " transform="matrix(1,0,0,-1,0,793)"/>
<path style="fill-rule:nonzero;fill:rgb(100%,100%,100%);fill-opacity:1;stroke-width:1.5;stroke-linecap:butt;stroke-linejoin:miter;stroke:rgb(13.730068%,12.159915%,12.54902%);stroke-opacity:1;stroke-miterlimit:4;" d="M 312.082031 573.542969 L 312.082031 580.292969 L 305.332031 580.292969 L 305.332031 573.542969 L 312.082031 573.542969 Z M 312.082031 573.542969 " transform="matrix(1,0,0,-1,0,793)"/>
<path style="fill-rule:nonzero;fill:rgb(100%,100%,100%);fill-opacity:1;stroke-width:1.5;stroke-linecap:butt;stroke-linejoin:miter;stroke:rgb(13.730068%,12.159915%,12.54902%);stroke-opacity:1;stroke-miterlimit:4;" d="M 318.832031 573.542969 L 318.832031 580.292969 L 312.082031 580.292969 L 312.082031 573.542969 L 318.832031 573.542969 Z M 318.832031 573.542969 " transform="matrix(1,0,0,-1,0,793)"/>
<path style="fill-rule:nonzero;fill:rgb(100%,100%,100%);fill-opacity:1;stroke-width:1.5;stroke-linecap:butt;stroke-linejoin:miter;stroke:rgb(13.730068%,12.159915%,12.54902%);stroke-opacity:1;stroke-miterlimit:4;" d="M 312.082031 566.792969 L 312.082031 573.542969 L 305.332031 573.542969 L 305.332031 566.792969 L 312.082031 566.792969 Z M 312.082031 566.792969 " transform="matrix(1,0,0,-1,0,793)"/>
<path style="fill-rule:nonzero;fill:rgb(100%,100%,100%);fill-opacity:1;stroke-width:1.5;stroke-linecap:butt;stroke-linejoin:miter;stroke:rgb(13.730068%,12.159915%,12.54902%);stroke-opacity:1;stroke-miterlimit:4;" d="M 318.832031 566.792969 L 318.832031 573.542969 L 312.082031 573.542969 L 312.082031 566.792969 L 318.832031 566.792969 Z M 318.832031 566.792969 " transform="matrix(1,0,0,-1,0,793)"/>

</svg>