<svg xmlns="http://www.w3.org/2000/svg" xmlns:xlink="http://www.w3.org/1999/xlink" width="612pt" height="792pt" viewBox="0 0 612 792" version="1.1">

<!-- Ballistic Torpedo -->
<path style="fill-rule:nonzero;fill:rgb(100%,100%,100%);fill-opacity:1;stroke-width:0.75;stroke-linecap:butt;stroke-linejoin:miter;stroke:rgb(13.730068%,12.159915%,12.54902%);stroke-opacity:1;stroke-miterlimit:4;" d="M 307.25 459 L 310.75 472.5 L 314 459 L 307.25 459 Z M 307.25 459 " transform="matrix(1,0,0,-1,0,793)"/>
<path style="fill-rule:nonzero;fill:rgb(100%,100%,100%);fill-opacity:1;stroke-width:0.75;stroke-linecap:butt;stroke-linejoin:miter;stroke:rgb(13.730068%,12.159915%,12.54902%);stroke-opacity:1;stroke-miterlimit:4;" d="M 310.5 452.25 L 314 452.25 L 325.25 441 L 325.25 434.25 L 314 423 L 307.25 423 L 296 434.25 L 296 441 L 307.25 452.25 L 310.5 452.25 " transform="matrix(1,0,0,-1,0,793)"/>
<path style="fill-rule:nonzero;fill:rgb(100%,100%,100%);fill-opacity:1;stroke-width:0.75;stroke-linecap:butt;stroke-linejoin:miter;stroke:rgb(13.730068%,12.159915%,12.54902%);stroke-opacity:1;stroke-miterlimit:4;" d="M 310.75 451.671875 C 312.3125 451.671875 313.578125 452.9375 313.578125 454.5 C 313.578125 456.0625 312.3125 457.328125 310.75 457.328125 C 309.1875 457.328125 307.921875 456.0625 307.921875 454.5 C 307.921875 452.9375 309.1875 451.671875 310.75 451.671875 Z M 310.75 451.671875 " transform="matrix(1,0,0,-1,0,793)"/>
<path style="fill-rule:nonzero;fill:rgb(100%,100%,100%);fill-opacity:1;stroke-width:0.75;stroke-linecap:butt;stroke-linejoin:miter;stroke:rgb(13.730068%,12.159915%,12.54902%);stroke-opacity:1;stroke-miterlimit:4;" d="M 305.578125 450 C 307.140625 450 308.40625 451.265625 308.40625 452.828125 C 308.40625 454.390625 307.140625 455.65625 305.578125 455.65625 C 304.015625 455.65625 302.75 454.390625 302.75 452.828125 C 302.75 451.265625 304.015625 450 305.578125 450 Z M 305.578125 450 " transform="matrix(1,0,0,-1,0,793)"/>
<path style="fill-rule:nonzero;fill:rgb(100%,100%,100%);fill-opacity:1;stroke-width:0.75;stroke-linecap:butt;stroke-linejoin:miter;stroke:rgb(13.730068%,12.159915%,12.54902%);stroke-opacity:1;stroke-miterlimit:4;" d="M 315.671875 450 C 317.234375 450 318.5 451.265625 318.5 452.828125 C 318.5 454.390625 317.234375 455.65625 315.671875 455.65625 C 314.109375 455.65625 312.84375 454.390625 312.84375 452.828125 C 312.84375 451.265625 314.109375 450 315.671875 450 Z M 315.671875 450 " transform="matrix(1,0,0,-1,0,793)"/>
<path style="fill-rule:nonzero;fill:rgb(100%,100%,100%);fill-opacity:1;stroke-width:0.75;stroke-linecap:butt;stroke-linejoin:miter;stroke:rgb(13.730068%,12.159915%,12.54902%);stroke-opacity:1;stroke-miterlimit:4;" d="M 306.671875 454.5 C 308.234375 454.5 309.5 455.765625 309.5 457.328125 C 309.5 458.890625 308.234375 460.15625 306.671875 460.15625 C 305.109375 460.15625 303.84375 458.890625 303.84375 457.328125 C 303.84375 455.765625 305.109375 454.5 306.671875 454.5 Z M 306.671875 454.5 " transform="matrix(1,0,0,-1,0,793)"/>
<path style="fill-rule:nonzero;fill:rgb(100%,100%,100%);fill-opacity:1;stroke-width:0.75;stroke-linecap:butt;stroke-linejoin:miter;stroke:rgb(13.730068%,12.159915%,12.54902%);stroke-opacity:1;stroke-miterlimit:4;" d="M 314.578125 454.5 C 316.140625 454.5 317.40625 455.765625 317.40625 457.328125 C 317.40625 458.890625 316.140625 460.15625 314.578125 460.15625 C 313.015625 460.15625 311.75 458.890625 311.75 457.328125 C 311.75 455.765625 313.015625 454.5 314.578125 454.5 Z M 314.578125 454.5 " transform="matrix(1,0,0,-1,0,793)"/>
<path style="fill-rule:nonzero;fill:rgb(100%,100%,100%);fill-opacity:1;stroke-width:0.75;stroke-linecap:butt;stroke-linejoin:miter;stroke:rgb(13.730068%,12.159915%,12.54902%);stroke-opacity:1;stroke-miterlimit:4;" d="M 310.578125 456.25 C 312.140625 456.25 313.40625 457.515625 313.40625 459.078125 C 313.40625 460.640625 312.140625 461.90625 310.578125 461.90625 C 309.015625 461.90625 307.75 460.640625 307.75 459.078125 C 307.75 457.515625 309.015625 456.25 310.578125 456.25 Z M 310.578125 456.25 " transform="matrix(1,0,0,-1,0,793)"/>

<!-- Damage Boxes -->
<path style="fill-rule:nonzero;fill:rgb(100%,100%,100%);fill-opacity:1;stroke-width:1.5;stroke-linecap:butt;stroke-linejoin:miter;stroke:rgb(13.730068%,12.159915%,12.54902%);stroke-opacity:1;stroke-miterlimit:4;" d="M 314 441 L 314 447.75 L 307.25 447.75 L 307.25 441 L 314 441 Z M 314 441 " transform="matrix(1,0,0,-1,0,793)"/>
<path style="fill-rule:nonzero;fill:rgb(100%,100%,100%);fill-opacity:1;stroke-width:1.5;stroke-linecap:butt;stroke-linejoin:miter;stroke:rgb(13.730068%,12.159915%,12.54902%);stroke-opacity:1;stroke-miterlimit:4;" d="M 307.25 434.25 L 307.25 441 L 300.5 441 L 300.5 434.25 L 307.25 434.25 Z M 307.25 434.25 " transform="matrix(1,0,0,-1,0,793)"/>
<path style="fill-rule:nonzero;fill:rgb(100%,100%,100%);fill-opacity:1;stroke-width:1.5;stroke-linecap:butt;stroke-linejoin:miter;stroke:rgb(13.730068%,12.159915%,12.54902%);stroke-opacity:1;stroke-miterlimit:4;" d="M 314 434.25 L 314 441 L 307.25 441 L 307.25 434.25 L 314 434.25 Z M 314 434.25 " transform="matrix(1,0,0,-1,0,793)"/>
<path style="fill-rule:nonzero;fill:rgb(100%,100%,100%);fill-opacity:1;stroke-width:1.5;stroke-linecap:butt;stroke-linejoin:miter;stroke:rgb(13.730068%,12.159915%,12.54902%);stroke-opacity:1;stroke-miterlimit:4;" d="M 320.75 434.25 L 320.75 441 L 314 441 L 314 434.25 L 320.75 434.25 Z M 320.75 434.25 " transform="matrix(1,0,0,-1,0,793)"/>
<path style="fill-rule:nonzero;fill:rgb(100%,100%,100%);fill-opacity:1;stroke-width:1.5;stroke-linecap:butt;stroke-linejoin:miter;stroke:rgb(13.730068%,12.159915%,12.54902%);stroke-opacity:1;stroke-miterlimit:4;" d="M 314 427.5 L 314 434.25 L 307.25 434.25 L 307.25 427.5 L 314 427.5 Z M 314 427.5 " transform="matrix(1,0,0,-1,0,793)"/>

</svg>