<svg xmlns="http://www.w3.org/2000/svg" xmlns:xlink="http://www.w3.org/1999/xlink" width="612pt" height="792pt" viewBox="0 0 612 792" version="1.1">

<!-- Ballistic Mine Launcher -->
<path style="fill-rule:nonzero;fill:rgb(100%,100%,100%);fill-opacity:1;stroke-width:0.75;stroke-linecap:butt;stroke-linejoin:miter;stroke:rgb(13.730068%,12.159915%,12.54902%);stroke-opacity:1;stroke-miterlimit:4;" d="M 207.667969 534.417969 L 207.667969 563.917969 L 212.917969 563.917969 L 212.832031 569.332031 L 207.167969 573.5 L 212.667969 580.667969 L 216 578.832031 L 219.667969 582.332031 L 223 578.832031 L 225.832031 581 L 231.332031 573.667969 L 225.667969 569.167969 L 225.667969 563.917969 L 230.917969 563.917969 L 230.917969 534.417969 L 207.667969 534.417969 Z M 207.667969 534.417969 " transform="matrix(1,0,0,-1,0,810)"/>
<path style="fill-rule:nonzero;fill:rgb(100%,100%,100%);fill-opacity:1;stroke-width:0.75;stroke-linecap:butt;stroke-linejoin:miter;stroke:rgb(13.730068%,12.159915%,12.54902%);stroke-opacity:1;stroke-miterlimit:4;" d="M 219.5 576.5 L 212.5 573.832031 L 219.167969 571.667969 L 226.167969 574 L 219.5 576.5 Z M 219.5 576.5 " transform="matrix(1,0,0,-1,0,810)"/>

<!-- Damage Boxes -->
<path style="fill-rule:nonzero;fill:rgb(100%,100%,100%);fill-opacity:1;stroke-width:1.5;stroke-linecap:butt;stroke-linejoin:miter;stroke:rgb(13.730068%,12.159915%,12.54902%);stroke-opacity:1;stroke-miterlimit:4;" d="M 222.75 565.730469 L 222.75 558.980469 L 216 558.980469 L 216 565.730469 L 222.75 565.730469 Z M 222.75 565.730469 " transform="matrix(1,0,0,-1,0,810)"/>
<path style="fill-rule:nonzero;fill:rgb(100%,100%,100%);fill-opacity:1;stroke-width:1.5;stroke-linecap:butt;stroke-linejoin:miter;stroke:rgb(13.730068%,12.159915%,12.54902%);stroke-opacity:1;stroke-miterlimit:4;" d="M 219.25 558.980469 L 219.25 552.230469 L 212.5 552.230469 L 212.5 558.980469 L 219.25 558.980469 Z M 219.25 558.980469 " transform="matrix(1,0,0,-1,0,810)"/>
<path style="fill-rule:nonzero;fill:rgb(100%,100%,100%);fill-opacity:1;stroke-width:1.5;stroke-linecap:butt;stroke-linejoin:miter;stroke:rgb(13.730068%,12.159915%,12.54902%);stroke-opacity:1;stroke-miterlimit:4;" d="M 226 558.980469 L 226 552.230469 L 219.25 552.230469 L 219.25 558.980469 L 226 558.980469 Z M 226 558.980469 " transform="matrix(1,0,0,-1,0,810)"/>
<path style="fill-rule:nonzero;fill:rgb(100%,100%,100%);fill-opacity:1;stroke-width:1.5;stroke-linecap:butt;stroke-linejoin:miter;stroke:rgb(13.730068%,12.159915%,12.54902%);stroke-opacity:1;stroke-miterlimit:4;" d="M 219.25 552.230469 L 219.25 545.480469 L 212.5 545.480469 L 212.5 552.230469 L 219.25 552.230469 Z M 219.25 552.230469 " transform="matrix(1,0,0,-1,0,810)"/>
<path style="fill-rule:nonzero;fill:rgb(100%,100%,100%);fill-opacity:1;stroke-width:1.5;stroke-linecap:butt;stroke-linejoin:miter;stroke:rgb(13.730068%,12.159915%,12.54902%);stroke-opacity:1;stroke-miterlimit:4;" d="M 226 552.230469 L 226 545.480469 L 219.25 545.480469 L 219.25 552.230469 L 226 552.230469 Z M 226 552.230469 " transform="matrix(1,0,0,-1,0,810)"/>
<path style="fill-rule:nonzero;fill:rgb(100%,100%,100%);fill-opacity:1;stroke-width:1.5;stroke-linecap:butt;stroke-linejoin:miter;stroke:rgb(13.730068%,12.159915%,12.54902%);stroke-opacity:1;stroke-miterlimit:4;" d="M 219.25 545.480469 L 219.25 538.730469 L 212.5 538.730469 L 212.5 545.480469 L 219.25 545.480469 Z M 219.25 545.480469 " transform="matrix(1,0,0,-1,0,810)"/>
<path style="fill-rule:nonzero;fill:rgb(100%,100%,100%);fill-opacity:1;stroke-width:1.5;stroke-linecap:butt;stroke-linejoin:miter;stroke:rgb(13.730068%,12.159915%,12.54902%);stroke-opacity:1;stroke-miterlimit:4;" d="M 226 545.480469 L 226 538.730469 L 219.25 538.730469 L 219.25 545.480469 L 226 545.480469 Z M 226 545.480469 " transform="matrix(1,0,0,-1,0,810)"/>

</svg>