<svg xmlns="http://www.w3.org/2000/svg" xmlns:xlink="http://www.w3.org/1999/xlink" width="612pt" height="792pt" viewBox="0 0 612 792" version="1.1">

<!-- Battle Laser -->
<path style="fill-rule:nonzero;fill:rgb(100%,100%,100%);fill-opacity:1;stroke-width:0.75;stroke-linecap:butt;stroke-linejoin:miter;stroke:rgb(13.730068%,12.159915%,12.54902%);stroke-opacity:1;stroke-miterlimit:4;" d="M 297 564.75 L 297 582.75 L 308.25 594 L 303.75 594 L 303.75 596.25 L 308.25 596.25 L 308.25 598.5 L 303.75 598.5 L 303.75 600.75 L 308.25 600.75 L 308.25 603 L 303.75 603 L 311.5 609.75 L 319.5 603 L 315 603 L 315 600.75 L 319.5 600.75 L 319.5 598.5 L 315 598.5 L 315 596.25 L 319.5 596.25 L 319.5 594 L 315 594 L 326.25 582.75 L 326.25 564.75 L 297 564.75 " transform="matrix(1,0,0,-1,0,793)"/>

<!-- Damage Boxes -->
<path style="fill-rule:nonzero;fill:rgb(100%,100%,100%);fill-opacity:1;stroke-width:1.5;stroke-linecap:butt;stroke-linejoin:miter;stroke:rgb(13.730068%,12.159915%,12.54902%);stroke-opacity:1;stroke-miterlimit:4;" d="M 315 582.75 L 315 589.5 L 308.25 589.5 L 308.25 582.75 L 315 582.75 Z M 315 582.75 " transform="matrix(1,0,0,-1,0,793)"/>
<path style="fill-rule:nonzero;fill:rgb(100%,100%,100%);fill-opacity:1;stroke-width:1.5;stroke-linecap:butt;stroke-linejoin:miter;stroke:rgb(13.730068%,12.159915%,12.54902%);stroke-opacity:1;stroke-miterlimit:4;" d="M 311.75 576 L 311.75 582.75 L 305 582.75 L 305 576 L 311.75 576 Z M 311.75 576 " transform="matrix(1,0,0,-1,0,793)"/>
<path style="fill-rule:nonzero;fill:rgb(100%,100%,100%);fill-opacity:1;stroke-width:1.5;stroke-linecap:butt;stroke-linejoin:miter;stroke:rgb(13.730068%,12.159915%,12.54902%);stroke-opacity:1;stroke-miterlimit:4;" d="M 318.5 576 L 318.5 582.75 L 311.75 582.75 L 311.75 576 L 318.5 576 Z M 318.5 576 " transform="matrix(1,0,0,-1,0,793)"/>
<path style="fill-rule:nonzero;fill:rgb(100%,100%,100%);fill-opacity:1;stroke-width:1.5;stroke-linecap:butt;stroke-linejoin:miter;stroke:rgb(13.730068%,12.159915%,12.54902%);stroke-opacity:1;stroke-miterlimit:4;" d="M 308.25 569.25 L 308.25 576 L 301.5 576 L 301.5 569.25 L 308.25 569.25 Z M 308.25 569.25 " transform="matrix(1,0,0,-1,0,793)"/>
<path style="fill-rule:nonzero;fill:rgb(100%,100%,100%);fill-opacity:1;stroke-width:1.5;stroke-linecap:butt;stroke-linejoin:miter;stroke:rgb(13.730068%,12.159915%,12.54902%);stroke-opacity:1;stroke-miterlimit:4;" d="M 315 569.25 L 315 576 L 308.25 576 L 308.25 569.25 L 315 569.25 Z M 315 569.25 " transform="matrix(1,0,0,-1,0,793)"/>
<path style="fill-rule:nonzero;fill:rgb(100%,100%,100%);fill-opacity:1;stroke-width:1.5;stroke-linecap:butt;stroke-linejoin:miter;stroke:rgb(13.730068%,12.159915%,12.54902%);stroke-opacity:1;stroke-miterlimit:4;" d="M 321.75 569.25 L 321.75 576 L 315 576 L 315 569.25 L 321.75 569.25 Z M 321.75 569.25 " transform="matrix(1,0,0,-1,0,793)"/>

</svg>