<svg xmlns="http://www.w3.org/2000/svg" xmlns:xlink="http://www.w3.org/1999/xlink" width="612pt" height="792pt" viewBox="0 0 612 792" version="1.1">

<!-- Bio-Thruster (8) -->
<path style="fill-rule:nonzero;fill:rgb(100%,100%,100%);fill-opacity:1;stroke-width:0.75;stroke-linecap:butt;stroke-linejoin:miter;stroke:rgb(13.730068%,12.159915%,12.54902%);stroke-opacity:1;stroke-miterlimit:4;" d="M 366.75 144 L 366.75 112.5 L 371.25 117 L 401.75 117 L 406.25 112.5 L 406.25 144 L 397.25 153 L 375.75 153 L 366.75 144 Z M 366.75 144 " transform="matrix(1,0,0,-1,0,793)"/>
<path style="fill-rule:nonzero;fill:rgb(100%,100%,100%);fill-opacity:1;stroke-width:0.75;stroke-linecap:butt;stroke-linejoin:miter;stroke:rgb(13.730068%,12.159915%,12.54902%);stroke-opacity:1;stroke-miterlimit:4;" d="M 406.25 144 L 366.75 144 " transform="matrix(1,0,0,-1,0,793)"/>
<path style="fill-rule:nonzero;fill:rgb(100%,100%,100%);fill-opacity:1;stroke-width:0.75;stroke-linecap:butt;stroke-linejoin:miter;stroke:rgb(13.730068%,12.159915%,12.54902%);stroke-opacity:1;stroke-miterlimit:4;" d="M 369 146.25 L 404 146.25 " transform="matrix(1,0,0,-1,0,793)"/>
<path style="fill-rule:nonzero;fill:rgb(100%,100%,100%);fill-opacity:1;stroke-width:0.75;stroke-linecap:butt;stroke-linejoin:miter;stroke:rgb(13.730068%,12.159915%,12.54902%);stroke-opacity:1;stroke-miterlimit:4;" d="M 371.25 148.5 L 401.75 148.5 " transform="matrix(1,0,0,-1,0,793)"/>
<path style="fill-rule:nonzero;fill:rgb(100%,100%,100%);fill-opacity:1;stroke-width:0.75;stroke-linecap:butt;stroke-linejoin:miter;stroke:rgb(13.730068%,12.159915%,12.54902%);stroke-opacity:1;stroke-miterlimit:4;" d="M 373.5 150.75 L 399.5 150.75 " transform="matrix(1,0,0,-1,0,793)"/>
<path style="fill-rule:nonzero;fill:rgb(100%,100%,100%);fill-opacity:1;stroke-width:0.75;stroke-linecap:butt;stroke-linejoin:miter;stroke:rgb(13.730068%,12.159915%,12.54902%);stroke-opacity:1;stroke-miterlimit:4;" d="M 377.5 144 L 382 150.75 L 391 150.75 L 395.5 144 L 377.5 144 Z M 377.5 144 " transform="matrix(1,0,0,-1,0,793)"/>

<!-- Annotation -->
<path style="opacity:0.5;fill:#ffffff;fill-opacity:1;fill-rule:nonzero;stroke:#ff1e1e;stroke-width:1.5;stroke-linecap:butt;stroke-linejoin:miter;stroke-miterlimit:4;stroke-opacity:1" d="m 389.83158,642.32733 0,6.75 -6.75,0 0,-6.75 6.75,0 z m 0,0"/>
     
<!-- Damage Boxes -->
<path style="fill-rule:nonzero;fill:rgb(100%,100%,100%);fill-opacity:1;stroke-width:1.5;stroke-linecap:butt;stroke-linejoin:miter;stroke:rgb(13.730068%,12.159915%,12.54902%);stroke-opacity:1;stroke-miterlimit:4;" d="M 380.25 137.25 L 380.25 130.5 L 373.5 130.5 L 373.5 137.25 L 380.25 137.25 Z M 380.25 137.25 " transform="matrix(1,0,0,-1,0,793)"/>
<path style="fill-rule:nonzero;fill:rgb(100%,100%,100%);fill-opacity:1;stroke-width:1.5;stroke-linecap:butt;stroke-linejoin:miter;stroke:rgb(13.730068%,12.159915%,12.54902%);stroke-opacity:1;stroke-miterlimit:4;" d="M 387 137.25 L 387 130.5 L 380.25 130.5 L 380.25 137.25 L 387 137.25 Z M 387 137.25 " transform="matrix(1,0,0,-1,0,793)"/>
<path style="fill-rule:nonzero;fill:rgb(100%,100%,100%);fill-opacity:1;stroke-width:1.5;stroke-linecap:butt;stroke-linejoin:miter;stroke:rgb(13.730068%,12.159915%,12.54902%);stroke-opacity:1;stroke-miterlimit:4;" d="M 393.75 137.25 L 393.75 130.5 L 387 130.5 L 387 137.25 L 393.75 137.25 Z M 393.75 137.25 " transform="matrix(1,0,0,-1,0,793)"/>
<path style="fill-rule:nonzero;fill:rgb(100%,100%,100%);fill-opacity:1;stroke-width:1.5;stroke-linecap:butt;stroke-linejoin:miter;stroke:rgb(13.730068%,12.159915%,12.54902%);stroke-opacity:1;stroke-miterlimit:4;" d="M 400.5 137.25 L 400.5 130.5 L 393.75 130.5 L 393.75 137.25 L 400.5 137.25 Z M 400.5 137.25 " transform="matrix(1,0,0,-1,0,793)"/>
<path style="fill-rule:nonzero;fill:rgb(100%,100%,100%);fill-opacity:1;stroke-width:1.5;stroke-linecap:butt;stroke-linejoin:miter;stroke:rgb(13.730068%,12.159915%,12.54902%);stroke-opacity:1;stroke-miterlimit:4;" d="M 380.25 130.5 L 380.25 123.75 L 373.5 123.75 L 373.5 130.5 L 380.25 130.5 Z M 380.25 130.5 " transform="matrix(1,0,0,-1,0,793)"/>
<path style="fill-rule:nonzero;fill:rgb(100%,100%,100%);fill-opacity:1;stroke-width:1.5;stroke-linecap:butt;stroke-linejoin:miter;stroke:rgb(13.730068%,12.159915%,12.54902%);stroke-opacity:1;stroke-miterlimit:4;" d="M 387 130.5 L 387 123.75 L 380.25 123.75 L 380.25 130.5 L 387 130.5 Z M 387 130.5 " transform="matrix(1,0,0,-1,0,793)"/>
<path style="fill-rule:nonzero;fill:rgb(100%,100%,100%);fill-opacity:1;stroke-width:1.5;stroke-linecap:butt;stroke-linejoin:miter;stroke:rgb(13.730068%,12.159915%,12.54902%);stroke-opacity:1;stroke-miterlimit:4;" d="M 393.75 130.5 L 393.75 123.75 L 387 123.75 L 387 130.5 L 393.75 130.5 Z M 393.75 130.5 " transform="matrix(1,0,0,-1,0,793)"/>
<path style="fill-rule:nonzero;fill:rgb(100%,100%,100%);fill-opacity:1;stroke-width:1.5;stroke-linecap:butt;stroke-linejoin:miter;stroke:rgb(13.730068%,12.159915%,12.54902%);stroke-opacity:1;stroke-miterlimit:4;" d="M 400.5 130.5 L 400.5 123.75 L 393.75 123.75 L 393.75 130.5 L 400.5 130.5 Z M 400.5 130.5 " transform="matrix(1,0,0,-1,0,793)"/>

</svg>