<svg xmlns="http://www.w3.org/2000/svg" xmlns:xlink="http://www.w3.org/1999/xlink" width="612pt" height="792pt" viewBox="0 0 612 792" version="1.1">

<!-- Blast Laser -->
<path style="fill-rule:nonzero;fill:rgb(100%,100%,100%);fill-opacity:1;stroke-width:0.75;stroke-linecap:butt;stroke-linejoin:miter;stroke:rgb(13.730068%,12.159915%,12.54902%);stroke-opacity:1;stroke-miterlimit:4;" d="M 216.25 484.75 L 216.25 527.5 L 223 527.5 L 223 530.875 L 218.5 535.375 L 223 535.375 L 223 537.625 L 218.5 542.125 L 223 542.125 L 223 544.375 L 218.5 548.875 L 223 548.875 L 227.5 553.125 L 232 548.875 L 236.5 548.875 L 232 544.375 L 232 542.125 L 236.5 542.125 L 232 537.625 L 232 535.375 L 236.5 535.375 L 232 530.875 L 232 527.5 L 238.75 527.5 L 238.75 484.75 L 216.25 484.75 Z M 216.25 484.75 " transform="matrix(1,0,0,-1,0,792)"/>

<!-- Damage Boxes -->
<path style="fill-rule:nonzero;fill:rgb(100%,100%,100%);fill-opacity:1;stroke-width:1.5;stroke-linecap:butt;stroke-linejoin:miter;stroke:rgb(13.730068%,12.159915%,12.54902%);stroke-opacity:1;stroke-miterlimit:4;" d="M 227.5 516.25 L 227.5 523 L 220.75 523 L 220.75 516.25 L 227.5 516.25 Z M 227.5 516.25 " transform="matrix(1,0,0,-1,0,792)"/>
<path style="fill-rule:nonzero;fill:rgb(100%,100%,100%);fill-opacity:1;stroke-width:1.5;stroke-linecap:butt;stroke-linejoin:miter;stroke:rgb(13.730068%,12.159915%,12.54902%);stroke-opacity:1;stroke-miterlimit:4;" d="M 234.25 516.25 L 234.25 523 L 227.5 523 L 227.5 516.25 L 234.25 516.25 Z M 234.25 516.25 " transform="matrix(1,0,0,-1,0,792)"/>
<path style="fill-rule:nonzero;fill:rgb(100%,100%,100%);fill-opacity:1;stroke-width:1.5;stroke-linecap:butt;stroke-linejoin:miter;stroke:rgb(13.730068%,12.159915%,12.54902%);stroke-opacity:1;stroke-miterlimit:4;" d="M 227.5 509.5 L 227.5 516.25 L 220.75 516.25 L 220.75 509.5 L 227.5 509.5 Z M 227.5 509.5 " transform="matrix(1,0,0,-1,0,792)"/>
<path style="fill-rule:nonzero;fill:rgb(100%,100%,100%);fill-opacity:1;stroke-width:1.5;stroke-linecap:butt;stroke-linejoin:miter;stroke:rgb(13.730068%,12.159915%,12.54902%);stroke-opacity:1;stroke-miterlimit:4;" d="M 234.25 509.5 L 234.25 516.25 L 227.5 516.25 L 227.5 509.5 L 234.25 509.5 Z M 234.25 509.5 " transform="matrix(1,0,0,-1,0,792)"/>
<path style="fill-rule:nonzero;fill:rgb(100%,100%,100%);fill-opacity:1;stroke-width:1.5;stroke-linecap:butt;stroke-linejoin:miter;stroke:rgb(13.730068%,12.159915%,12.54902%);stroke-opacity:1;stroke-miterlimit:4;" d="M 227.5 502.75 L 227.5 509.5 L 220.75 509.5 L 220.75 502.75 L 227.5 502.75 Z M 227.5 502.75 " transform="matrix(1,0,0,-1,0,792)"/>
<path style="fill-rule:nonzero;fill:rgb(100%,100%,100%);fill-opacity:1;stroke-width:1.5;stroke-linecap:butt;stroke-linejoin:miter;stroke:rgb(13.730068%,12.159915%,12.54902%);stroke-opacity:1;stroke-miterlimit:4;" d="M 234.25 502.75 L 234.25 509.5 L 227.5 509.5 L 227.5 502.75 L 234.25 502.75 Z M 234.25 502.75 " transform="matrix(1,0,0,-1,0,792)"/>
<path style="fill-rule:nonzero;fill:rgb(100%,100%,100%);fill-opacity:1;stroke-width:1.5;stroke-linecap:butt;stroke-linejoin:miter;stroke:rgb(13.730068%,12.159915%,12.54902%);stroke-opacity:1;stroke-miterlimit:4;" d="M 227.5 496 L 227.5 502.75 L 220.75 502.75 L 220.75 496 L 227.5 496 Z M 227.5 496 " transform="matrix(1,0,0,-1,0,792)"/>
<path style="fill-rule:nonzero;fill:rgb(100%,100%,100%);fill-opacity:1;stroke-width:1.5;stroke-linecap:butt;stroke-linejoin:miter;stroke:rgb(13.730068%,12.159915%,12.54902%);stroke-opacity:1;stroke-miterlimit:4;" d="M 234.25 496 L 234.25 502.75 L 227.5 502.75 L 227.5 496 L 234.25 496 Z M 234.25 496 " transform="matrix(1,0,0,-1,0,792)"/>
<path style="fill-rule:nonzero;fill:rgb(100%,100%,100%);fill-opacity:1;stroke-width:1.5;stroke-linecap:butt;stroke-linejoin:miter;stroke:rgb(13.730068%,12.159915%,12.54902%);stroke-opacity:1;stroke-miterlimit:4;" d="M 227.5 489.25 L 227.5 496 L 220.75 496 L 220.75 489.25 L 227.5 489.25 Z M 227.5 489.25 " transform="matrix(1,0,0,-1,0,792)"/>
<path style="fill-rule:nonzero;fill:rgb(100%,100%,100%);fill-opacity:1;stroke-width:1.5;stroke-linecap:butt;stroke-linejoin:miter;stroke:rgb(13.730068%,12.159915%,12.54902%);stroke-opacity:1;stroke-miterlimit:4;" d="M 234.25 489.25 L 234.25 496 L 227.5 496 L 227.5 489.25 L 234.25 489.25 Z M 234.25 489.25 " transform="matrix(1,0,0,-1,0,792)"/>

</svg>