<svg xmlns="http://www.w3.org/2000/svg" xmlns:xlink="http://www.w3.org/1999/xlink" width="612pt" height="792pt" viewBox="0 0 612 792" version="1.1">

<!-- Bulkhead (3) -->
<path style="fill-rule:nonzero;fill:rgb(100%,100%,100%);fill-opacity:1;stroke-width:0.75;stroke-linecap:butt;stroke-linejoin:miter;stroke:rgb(13.730068%,12.159915%,12.54902%);stroke-opacity:1;stroke-miterlimit:4;" d="M 295.75 425.25 L 325 425.25 L 327.25 423 L 325 423 L 325 420.75 L 327.25 420.75 L 327.25 418.5 L 325 418.5 L 325 416.25 L 327.25 416.25 L 327.25 414 L 325 414 L 325 411.75 L 327.25 411.75 L 325 409.5 L 295.75 409.5 L 293.5 411.75 L 295.75 411.75 L 295.75 414 L 293.5 414 L 293.5 416.25 L 295.75 416.25 L 295.75 418.5 L 293.5 418.5 L 293.5 420.75 L 295.75 420.75 L 295.75 423 L 293.5 423 L 295.75 425.25 Z M 295.75 425.25 " transform="matrix(1,0,0,-1,0,793)"/>

<!-- Damage Boxes -->
<path style="fill-rule:nonzero;fill:rgb(100%,100%,100%);fill-opacity:1;stroke-width:1.5;stroke-linecap:butt;stroke-linejoin:miter;stroke:rgb(13.730068%,12.159915%,12.54902%);stroke-opacity:1;stroke-miterlimit:4;" d="M 307 414 L 307 420.75 L 300.25 420.75 L 300.25 414 L 307 414 Z M 307 414 " transform="matrix(1,0,0,-1,0,793)"/>
<path style="fill-rule:nonzero;fill:rgb(100%,100%,100%);fill-opacity:1;stroke-width:1.5;stroke-linecap:butt;stroke-linejoin:miter;stroke:rgb(13.730068%,12.159915%,12.54902%);stroke-opacity:1;stroke-miterlimit:4;" d="M 313.75 414 L 313.75 420.75 L 307 420.75 L 307 414 L 313.75 414 Z M 313.75 414 " transform="matrix(1,0,0,-1,0,793)"/>
<path style="fill-rule:nonzero;fill:rgb(100%,100%,100%);fill-opacity:1;stroke-width:1.5;stroke-linecap:butt;stroke-linejoin:miter;stroke:rgb(13.730068%,12.159915%,12.54902%);stroke-opacity:1;stroke-miterlimit:4;" d="M 320.5 414 L 320.5 420.75 L 313.75 420.75 L 313.75 414 L 320.5 414 Z M 320.5 414 " transform="matrix(1,0,0,-1,0,793)"/>

</svg>