<svg xmlns="http://www.w3.org/2000/svg" xmlns:xlink="http://www.w3.org/1999/xlink" width="612pt" height="792pt" viewBox="0 0 612 792" version="1.1">

<!-- Bulkhead (1) -->
<path style="fill-rule:nonzero;fill:rgb(100%,100%,100%);fill-opacity:1;stroke-width:0.75;stroke-linecap:butt;stroke-linejoin:miter;stroke:rgb(13.730068%,12.159915%,12.54902%);stroke-opacity:1;stroke-miterlimit:4;" d="M 219.664062 470.914062 L 235.082031 470.75 L 237.332031 468.5 L 235.082031 468.5 L 235.082031 466.25 L 237.332031 466.25 L 237.332031 464 L 235.082031 464 L 235.082031 461.75 L 237.332031 461.75 L 237.332031 459.5 L 235.082031 459.5 L 235.082031 457.25 L 237.332031 457.25 L 235.082031 455 L 219.664062 455.164062 L 217.414062 457.414062 L 219.664062 457.414062 L 219.664062 459.664062 L 217.414062 459.664062 L 217.414062 461.914062 L 219.664062 461.914062 L 219.664062 464.164062 L 217.414062 464.164062 L 217.414062 466.414062 L 219.664062 466.414062 L 219.664062 468.664062 L 217.414062 468.664062 L 219.664062 470.914062 Z M 219.664062 470.914062 " transform="matrix(1,0,0,-1,0,792)"/>

<!-- Damage Boxes -->
<path style="fill-rule:nonzero;fill:rgb(100%,100%,100%);fill-opacity:1;stroke-width:1.5;stroke-linecap:butt;stroke-linejoin:miter;stroke:rgb(13.730068%,12.159915%,12.54902%);stroke-opacity:1;stroke-miterlimit:4;" d="M 230.667969 459.332031 L 230.667969 466.082031 L 223.917969 466.082031 L 223.917969 459.332031 L 230.667969 459.332031 Z M 230.667969 459.332031 " transform="matrix(1,0,0,-1,0,792)"/>

</svg>