<svg xmlns="http://www.w3.org/2000/svg" xmlns:xlink="http://www.w3.org/1999/xlink" width="612pt" height="792pt" viewBox="0 0 612 792" version="1.1">

<!-- Burst Beam -->
<path style="fill-rule:nonzero;fill:rgb(100%,100%,100%);fill-opacity:1;stroke-width:0.75;stroke-linecap:butt;stroke-linejoin:miter;stroke:rgb(13.730068%,12.159915%,12.54902%);stroke-opacity:1;stroke-miterlimit:4;" d="M 256.5 551.25 L 256.5 573.75 L 263.25 573.75 L 263.25 589.5 L 267.75 585 L 267.75 582.75 L 270 582.75 L 270 580.5 L 267.75 580.5 L 267.75 573.75 L 274.5 573.75 L 274.5 580.5 L 272.25 580.5 L 272.25 582.75 L 274.5 582.75 L 274.5 585 L 279 589.5 L 279 573.75 L 285.75 573.75 L 285.75 551.25 L 256.5 551.25 Z M 256.5 551.25 " transform="matrix(1,0,0,-1,0,793)"/>

<!-- Damage Boxes -->
<path style="fill-rule:nonzero;fill:rgb(100%,100%,100%);fill-opacity:1;stroke-width:1.5;stroke-linecap:butt;stroke-linejoin:miter;stroke:rgb(13.730068%,12.159915%,12.54902%);stroke-opacity:1;stroke-miterlimit:4;" d="M 267.75 562.5 L 267.75 569.25 L 261 569.25 L 261 562.5 L 267.75 562.5 Z M 267.75 562.5 " transform="matrix(1,0,0,-1,0,793)"/>
<path style="fill-rule:nonzero;fill:rgb(100%,100%,100%);fill-opacity:1;stroke-width:1.5;stroke-linecap:butt;stroke-linejoin:miter;stroke:rgb(13.730068%,12.159915%,12.54902%);stroke-opacity:1;stroke-miterlimit:4;" d="M 274.5 562.5 L 274.5 569.25 L 267.75 569.25 L 267.75 562.5 L 274.5 562.5 Z M 274.5 562.5 " transform="matrix(1,0,0,-1,0,793)"/>
<path style="fill-rule:nonzero;fill:rgb(100%,100%,100%);fill-opacity:1;stroke-width:1.5;stroke-linecap:butt;stroke-linejoin:miter;stroke:rgb(13.730068%,12.159915%,12.54902%);stroke-opacity:1;stroke-miterlimit:4;" d="M 281.25 562.5 L 281.25 569.25 L 274.5 569.25 L 274.5 562.5 L 281.25 562.5 Z M 281.25 562.5 " transform="matrix(1,0,0,-1,0,793)"/>
<path style="fill-rule:nonzero;fill:rgb(100%,100%,100%);fill-opacity:1;stroke-width:1.5;stroke-linecap:butt;stroke-linejoin:miter;stroke:rgb(13.730068%,12.159915%,12.54902%);stroke-opacity:1;stroke-miterlimit:4;" d="M 267.75 555.75 L 267.75 562.5 L 261 562.5 L 261 555.75 L 267.75 555.75 Z M 267.75 555.75 " transform="matrix(1,0,0,-1,0,793)"/>
<path style="fill-rule:nonzero;fill:rgb(100%,100%,100%);fill-opacity:1;stroke-width:1.5;stroke-linecap:butt;stroke-linejoin:miter;stroke:rgb(13.730068%,12.159915%,12.54902%);stroke-opacity:1;stroke-miterlimit:4;" d="M 274.5 555.75 L 274.5 562.5 L 267.75 562.5 L 267.75 555.75 L 274.5 555.75 Z M 274.5 555.75 " transform="matrix(1,0,0,-1,0,793)"/>
<path style="fill-rule:nonzero;fill:rgb(100%,100%,100%);fill-opacity:1;stroke-width:1.5;stroke-linecap:butt;stroke-linejoin:miter;stroke:rgb(13.730068%,12.159915%,12.54902%);stroke-opacity:1;stroke-miterlimit:4;" d="M 281.25 555.75 L 281.25 562.5 L 274.5 562.5 L 274.5 555.75 L 281.25 555.75 Z M 281.25 555.75 " transform="matrix(1,0,0,-1,0,793)"/>

</svg>