<svg xmlns="http://www.w3.org/2000/svg" xmlns:xlink="http://www.w3.org/1999/xlink" width="612pt" height="792pt" viewBox="0 0 612 792" version="1.1">

<!-- C & C (8) -->
<path style="fill-rule:nonzero;fill:rgb(56.865797%,56.079957%,56.275273%);fill-opacity:1;stroke-width:0.75;stroke-linecap:butt;stroke-linejoin:miter;stroke:rgb(13.730068%,12.159915%,12.54902%);stroke-opacity:1;stroke-miterlimit:4;" d="M 288 402.75 C 288 407.71875 283.96875 411.75 279 411.75 L 263.25 411.75 C 258.28125 411.75 254.25 407.71875 254.25 402.75 L 254.25 380.230469 C 254.25 375.257812 258.28125 371.230469 263.25 371.230469 L 279 371.230469 C 283.96875 371.230469 288 375.257812 288 380.230469 L 288 402.75 Z M 288 402.75 " transform="matrix(1,0,0,-1,0,793)"/>

<!-- Damage Boxes -->
<path style="fill-rule:nonzero;fill:rgb(100%,100%,100%);fill-opacity:1;stroke-width:1.5;stroke-linecap:butt;stroke-linejoin:miter;stroke:rgb(13.730068%,12.159915%,12.54902%);stroke-opacity:1;stroke-miterlimit:4;" d="M 274.5 405 L 267.75 405 L 267.75 398.25 L 274.5 398.25 L 274.5 405 Z M 274.5 405 " transform="matrix(1,0,0,-1,0,793)"/>
<path style="fill-rule:nonzero;fill:rgb(100%,100%,100%);fill-opacity:1;stroke-width:1.5;stroke-linecap:butt;stroke-linejoin:miter;stroke:rgb(13.730068%,12.159915%,12.54902%);stroke-opacity:1;stroke-miterlimit:4;" d="M 267.75 398.230469 L 261 398.230469 L 261 391.480469 L 267.75 391.480469 L 267.75 398.230469 Z M 267.75 398.230469 " transform="matrix(1,0,0,-1,0,793)"/>
<path style="fill-rule:nonzero;fill:rgb(100%,100%,100%);fill-opacity:1;stroke-width:1.5;stroke-linecap:butt;stroke-linejoin:miter;stroke:rgb(13.730068%,12.159915%,12.54902%);stroke-opacity:1;stroke-miterlimit:4;" d="M 274.5 398.230469 L 267.75 398.230469 L 267.75 391.480469 L 274.5 391.480469 L 274.5 398.230469 Z M 274.5 398.230469 " transform="matrix(1,0,0,-1,0,793)"/>
<path style="fill-rule:nonzero;fill:rgb(100%,100%,100%);fill-opacity:1;stroke-width:1.5;stroke-linecap:butt;stroke-linejoin:miter;stroke:rgb(13.730068%,12.159915%,12.54902%);stroke-opacity:1;stroke-miterlimit:4;" d="M 281.25 398.230469 L 274.5 398.230469 L 274.5 391.480469 L 281.25 391.480469 L 281.25 398.230469 Z M 281.25 398.230469 " transform="matrix(1,0,0,-1,0,793)"/>
<path style="fill-rule:nonzero;fill:rgb(100%,100%,100%);fill-opacity:1;stroke-width:1.5;stroke-linecap:butt;stroke-linejoin:miter;stroke:rgb(13.730068%,12.159915%,12.54902%);stroke-opacity:1;stroke-miterlimit:4;" d="M 267.75 391.480469 L 261 391.480469 L 261 384.730469 L 267.75 384.730469 L 267.75 391.480469 Z M 267.75 391.480469 " transform="matrix(1,0,0,-1,0,793)"/>
<path style="fill-rule:nonzero;fill:rgb(100%,100%,100%);fill-opacity:1;stroke-width:1.5;stroke-linecap:butt;stroke-linejoin:miter;stroke:rgb(13.730068%,12.159915%,12.54902%);stroke-opacity:1;stroke-miterlimit:4;" d="M 274.5 391.480469 L 267.75 391.480469 L 267.75 384.730469 L 274.5 384.730469 L 274.5 391.480469 Z M 274.5 391.480469 " transform="matrix(1,0,0,-1,0,793)"/>
<path style="fill-rule:nonzero;fill:rgb(100%,100%,100%);fill-opacity:1;stroke-width:1.5;stroke-linecap:butt;stroke-linejoin:miter;stroke:rgb(13.730068%,12.159915%,12.54902%);stroke-opacity:1;stroke-miterlimit:4;" d="M 281.25 391.480469 L 274.5 391.480469 L 274.5 384.730469 L 281.25 384.730469 L 281.25 391.480469 Z M 281.25 391.480469 " transform="matrix(1,0,0,-1,0,793)"/>
<path style="fill-rule:nonzero;fill:rgb(100%,100%,100%);fill-opacity:1;stroke-width:1.5;stroke-linecap:butt;stroke-linejoin:miter;stroke:rgb(13.730068%,12.159915%,12.54902%);stroke-opacity:1;stroke-miterlimit:4;" d="M 274.5 384.730469 L 267.75 384.730469 L 267.75 377.980469 L 274.5 377.980469 L 274.5 384.730469 Z M 274.5 384.730469 " transform="matrix(1,0,0,-1,0,793)"/>

</svg>