<svg xmlns="http://www.w3.org/2000/svg" xmlns:xlink="http://www.w3.org/1999/xlink" width="612pt" height="792pt" viewBox="0 0 612 792" version="1.1">

<!-- C & C (8) -->
<path style="fill-rule:nonzero;fill:rgb(56.865797%,56.079957%,56.275273%);fill-opacity:1;stroke-width:0.75;stroke-linecap:butt;stroke-linejoin:miter;stroke:rgb(13.730068%,12.159915%,12.54902%);stroke-opacity:1;stroke-miterlimit:4;" d="M 375.75 258.25 C 380.71875 258.25 384.75 262.28125 384.75 267.25 L 384.75 276.75 C 384.75 281.71875 380.71875 285.75 375.75 285.75 L 353.25 285.75 C 348.28125 285.75 344.25 281.71875 344.25 276.75 L 344.25 267.25 C 344.25 262.28125 348.28125 258.25 353.25 258.25 L 375.75 258.25 Z M 375.75 258.25 " transform="matrix(1,0,0,-1,0,793)"/>

<!-- Damage Boxes -->
<path style="fill-rule:nonzero;fill:rgb(100%,100%,100%);fill-opacity:1;stroke-width:1.5;stroke-linecap:butt;stroke-linejoin:miter;stroke:rgb(13.730068%,12.159915%,12.54902%);stroke-opacity:1;stroke-miterlimit:4;" d="M 357.75 272.25 L 357.75 279 L 351 279 L 351 272.25 L 357.75 272.25 Z M 357.75 272.25 " transform="matrix(1,0,0,-1,0,793)"/>
<path style="fill-rule:nonzero;fill:rgb(100%,100%,100%);fill-opacity:1;stroke-width:1.5;stroke-linecap:butt;stroke-linejoin:miter;stroke:rgb(13.730068%,12.159915%,12.54902%);stroke-opacity:1;stroke-miterlimit:4;" d="M 364.5 272.25 L 364.5 279 L 357.75 279 L 357.75 272.25 L 364.5 272.25 Z M 364.5 272.25 " transform="matrix(1,0,0,-1,0,793)"/>
<path style="fill-rule:nonzero;fill:rgb(100%,100%,100%);fill-opacity:1;stroke-width:1.5;stroke-linecap:butt;stroke-linejoin:miter;stroke:rgb(13.730068%,12.159915%,12.54902%);stroke-opacity:1;stroke-miterlimit:4;" d="M 371.25 272.25 L 371.25 279 L 364.5 279 L 364.5 272.25 L 371.25 272.25 Z M 371.25 272.25 " transform="matrix(1,0,0,-1,0,793)"/>
<path style="fill-rule:nonzero;fill:rgb(100%,100%,100%);fill-opacity:1;stroke-width:1.5;stroke-linecap:butt;stroke-linejoin:miter;stroke:rgb(13.730068%,12.159915%,12.54902%);stroke-opacity:1;stroke-miterlimit:4;" d="M 378 272.25 L 378 279 L 371.25 279 L 371.25 272.25 L 378 272.25 Z M 378 272.25 " transform="matrix(1,0,0,-1,0,793)"/>
<path style="fill-rule:nonzero;fill:rgb(100%,100%,100%);fill-opacity:1;stroke-width:1.5;stroke-linecap:butt;stroke-linejoin:miter;stroke:rgb(13.730068%,12.159915%,12.54902%);stroke-opacity:1;stroke-miterlimit:4;" d="M 357.75 265.5 L 357.75 272.25 L 351 272.25 L 351 265.5 L 357.75 265.5 Z M 357.75 265.5 " transform="matrix(1,0,0,-1,0,793)"/>
<path style="fill-rule:nonzero;fill:rgb(100%,100%,100%);fill-opacity:1;stroke-width:1.5;stroke-linecap:butt;stroke-linejoin:miter;stroke:rgb(13.730068%,12.159915%,12.54902%);stroke-opacity:1;stroke-miterlimit:4;" d="M 364.5 265.5 L 364.5 272.25 L 357.75 272.25 L 357.75 265.5 L 364.5 265.5 Z M 364.5 265.5 " transform="matrix(1,0,0,-1,0,793)"/>
<path style="fill-rule:nonzero;fill:rgb(100%,100%,100%);fill-opacity:1;stroke-width:1.5;stroke-linecap:butt;stroke-linejoin:miter;stroke:rgb(13.730068%,12.159915%,12.54902%);stroke-opacity:1;stroke-miterlimit:4;" d="M 371.25 265.5 L 371.25 272.25 L 364.5 272.25 L 364.5 265.5 L 371.25 265.5 Z M 371.25 265.5 " transform="matrix(1,0,0,-1,0,793)"/>
<path style="fill-rule:nonzero;fill:rgb(100%,100%,100%);fill-opacity:1;stroke-width:1.5;stroke-linecap:butt;stroke-linejoin:miter;stroke:rgb(13.730068%,12.159915%,12.54902%);stroke-opacity:1;stroke-miterlimit:4;" d="M 378 265.5 L 378 272.25 L 371.25 272.25 L 371.25 265.5 L 378 265.5 Z M 378 265.5 " transform="matrix(1,0,0,-1,0,793)"/>

</svg>