<svg xmlns="http://www.w3.org/2000/svg" xmlns:xlink="http://www.w3.org/1999/xlink" width="612pt" height="792pt" viewBox="0 0 612 792" version="1.1">

<!-- Cargo (48) -->
<path style="fill-rule:nonzero;fill:rgb(100%,100%,100%);fill-opacity:1;stroke-width:0.75;stroke-linecap:butt;stroke-linejoin:miter;stroke:rgb(13.730068%,12.159915%,12.54902%);stroke-opacity:1;stroke-miterlimit:4;" d="M 281.2501 333 L 281.2501 405 L 335.2501 405 L 335.2501 333 L 281.2501 333 Z M 281.2501 333 " transform="matrix(1,0,0,-1,-0.0001,793)"/>

<!-- Annotation -->
<!-- Letter -->
<path style="opacity:0.5;fill:#ffffff;fill-opacity:1;fill-rule:nonzero;stroke:#ff1e1e;stroke-width:1.5;stroke-linecap:butt;stroke-linejoin:miter;stroke-miterlimit:4;stroke-opacity:1" d="m 311.5904,395.67241 0,-6.75 -6.75,0 0,6.75 6.75,0 z m 0,0"/>
<!-- Number -->
<path style="opacity:0.5;fill:#ffffff;fill-opacity:1;fill-rule:nonzero;stroke:#ff1e1e;stroke-width:1.5;stroke-linecap:butt;stroke-linejoin:miter;stroke-miterlimit:4;stroke-opacity:1" d="m 311.58668,459.05435 0,-6.75 -6.75,0 0,6.75 6.75,0 z m 0,0"/>
     
<!-- Damage Boxes -->
<path style="fill-rule:nonzero;fill:rgb(100%,100%,100%);fill-opacity:1;stroke-width:1.5;stroke-linecap:butt;stroke-linejoin:miter;stroke:rgb(13.730068%,12.159915%,12.54902%);stroke-opacity:1;stroke-miterlimit:4;" d="M 294.7501 389.25 L 294.7501 396 L 288.0001 396 L 288.0001 389.25 L 294.7501 389.25 Z M 294.7501 389.25 " transform="matrix(1,0,0,-1,-0.0001,793)"/>
<path style="fill-rule:nonzero;fill:rgb(100%,100%,100%);fill-opacity:1;stroke-width:1.5;stroke-linecap:butt;stroke-linejoin:miter;stroke:rgb(13.730068%,12.159915%,12.54902%);stroke-opacity:1;stroke-miterlimit:4;" d="M 301.5001 389.25 L 301.5001 396 L 294.7501 396 L 294.7501 389.25 L 301.5001 389.25 Z M 301.5001 389.25 " transform="matrix(1,0,0,-1,-0.0001,793)"/>
<path style="fill-rule:nonzero;fill:rgb(100%,100%,100%);fill-opacity:1;stroke-width:1.5;stroke-linecap:butt;stroke-linejoin:miter;stroke:rgb(13.730068%,12.159915%,12.54902%);stroke-opacity:1;stroke-miterlimit:4;" d="M 308.2501 389.25 L 308.2501 396 L 301.5001 396 L 301.5001 389.25 L 308.2501 389.25 Z M 308.2501 389.25 " transform="matrix(1,0,0,-1,-0.0001,793)"/>
<path style="fill-rule:nonzero;fill:rgb(100%,100%,100%);fill-opacity:1;stroke-width:1.5;stroke-linecap:butt;stroke-linejoin:miter;stroke:rgb(13.730068%,12.159915%,12.54902%);stroke-opacity:1;stroke-miterlimit:4;" d="M 315.0001 389.25 L 315.0001 396 L 308.2501 396 L 308.2501 389.25 L 315.0001 389.25 Z M 315.0001 389.25 " transform="matrix(1,0,0,-1,-0.0001,793)"/>
<path style="fill-rule:nonzero;fill:rgb(100%,100%,100%);fill-opacity:1;stroke-width:1.5;stroke-linecap:butt;stroke-linejoin:miter;stroke:rgb(13.730068%,12.159915%,12.54902%);stroke-opacity:1;stroke-miterlimit:4;" d="M 321.7501 389.25 L 321.7501 396 L 315.0001 396 L 315.0001 389.25 L 321.7501 389.25 Z M 321.7501 389.25 " transform="matrix(1,0,0,-1,-0.0001,793)"/>
<path style="fill-rule:nonzero;fill:rgb(100%,100%,100%);fill-opacity:1;stroke-width:1.5;stroke-linecap:butt;stroke-linejoin:miter;stroke:rgb(13.730068%,12.159915%,12.54902%);stroke-opacity:1;stroke-miterlimit:4;" d="M 328.5001 389.25 L 328.5001 396 L 321.7501 396 L 321.7501 389.25 L 328.5001 389.25 Z M 328.5001 389.25 " transform="matrix(1,0,0,-1,-0.0001,793)"/>
<path style="fill-rule:nonzero;fill:rgb(100%,100%,100%);fill-opacity:1;stroke-width:1.5;stroke-linecap:butt;stroke-linejoin:miter;stroke:rgb(13.730068%,12.159915%,12.54902%);stroke-opacity:1;stroke-miterlimit:4;" d="M 294.7501 382.5 L 294.7501 389.25 L 288.0001 389.25 L 288.0001 382.5 L 294.7501 382.5 Z M 294.7501 382.5 " transform="matrix(1,0,0,-1,-0.0001,793)"/>
<path style="fill-rule:nonzero;fill:rgb(100%,100%,100%);fill-opacity:1;stroke-width:1.5;stroke-linecap:butt;stroke-linejoin:miter;stroke:rgb(13.730068%,12.159915%,12.54902%);stroke-opacity:1;stroke-miterlimit:4;" d="M 301.5001 382.5 L 301.5001 389.25 L 294.7501 389.25 L 294.7501 382.5 L 301.5001 382.5 Z M 301.5001 382.5 " transform="matrix(1,0,0,-1,-0.0001,793)"/>
<path style="fill-rule:nonzero;fill:rgb(100%,100%,100%);fill-opacity:1;stroke-width:1.5;stroke-linecap:butt;stroke-linejoin:miter;stroke:rgb(13.730068%,12.159915%,12.54902%);stroke-opacity:1;stroke-miterlimit:4;" d="M 308.2501 382.5 L 308.2501 389.25 L 301.5001 389.25 L 301.5001 382.5 L 308.2501 382.5 Z M 308.2501 382.5 " transform="matrix(1,0,0,-1,-0.0001,793)"/>
<path style="fill-rule:nonzero;fill:rgb(100%,100%,100%);fill-opacity:1;stroke-width:1.5;stroke-linecap:butt;stroke-linejoin:miter;stroke:rgb(13.730068%,12.159915%,12.54902%);stroke-opacity:1;stroke-miterlimit:4;" d="M 315.0001 382.5 L 315.0001 389.25 L 308.2501 389.25 L 308.2501 382.5 L 315.0001 382.5 Z M 315.0001 382.5 " transform="matrix(1,0,0,-1,-0.0001,793)"/>
<path style="fill-rule:nonzero;fill:rgb(100%,100%,100%);fill-opacity:1;stroke-width:1.5;stroke-linecap:butt;stroke-linejoin:miter;stroke:rgb(13.730068%,12.159915%,12.54902%);stroke-opacity:1;stroke-miterlimit:4;" d="M 321.7501 382.5 L 321.7501 389.25 L 315.0001 389.25 L 315.0001 382.5 L 321.7501 382.5 Z M 321.7501 382.5 " transform="matrix(1,0,0,-1,-0.0001,793)"/>
<path style="fill-rule:nonzero;fill:rgb(100%,100%,100%);fill-opacity:1;stroke-width:1.5;stroke-linecap:butt;stroke-linejoin:miter;stroke:rgb(13.730068%,12.159915%,12.54902%);stroke-opacity:1;stroke-miterlimit:4;" d="M 328.5001 382.5 L 328.5001 389.25 L 321.7501 389.25 L 321.7501 382.5 L 328.5001 382.5 Z M 328.5001 382.5 " transform="matrix(1,0,0,-1,-0.0001,793)"/>
<path style="fill-rule:nonzero;fill:rgb(100%,100%,100%);fill-opacity:1;stroke-width:1.5;stroke-linecap:butt;stroke-linejoin:miter;stroke:rgb(13.730068%,12.159915%,12.54902%);stroke-opacity:1;stroke-miterlimit:4;" d="M 294.7501 375.75 L 294.7501 382.5 L 288.0001 382.5 L 288.0001 375.75 L 294.7501 375.75 Z M 294.7501 375.75 " transform="matrix(1,0,0,-1,-0.0001,793)"/>
<path style="fill-rule:nonzero;fill:rgb(100%,100%,100%);fill-opacity:1;stroke-width:1.5;stroke-linecap:butt;stroke-linejoin:miter;stroke:rgb(13.730068%,12.159915%,12.54902%);stroke-opacity:1;stroke-miterlimit:4;" d="M 301.5001 375.75 L 301.5001 382.5 L 294.7501 382.5 L 294.7501 375.75 L 301.5001 375.75 Z M 301.5001 375.75 " transform="matrix(1,0,0,-1,-0.0001,793)"/>
<path style="fill-rule:nonzero;fill:rgb(100%,100%,100%);fill-opacity:1;stroke-width:1.5;stroke-linecap:butt;stroke-linejoin:miter;stroke:rgb(13.730068%,12.159915%,12.54902%);stroke-opacity:1;stroke-miterlimit:4;" d="M 308.2501 375.75 L 308.2501 382.5 L 301.5001 382.5 L 301.5001 375.75 L 308.2501 375.75 Z M 308.2501 375.75 " transform="matrix(1,0,0,-1,-0.0001,793)"/>
<path style="fill-rule:nonzero;fill:rgb(100%,100%,100%);fill-opacity:1;stroke-width:1.5;stroke-linecap:butt;stroke-linejoin:miter;stroke:rgb(13.730068%,12.159915%,12.54902%);stroke-opacity:1;stroke-miterlimit:4;" d="M 315.0001 375.75 L 315.0001 382.5 L 308.2501 382.5 L 308.2501 375.75 L 315.0001 375.75 Z M 315.0001 375.75 " transform="matrix(1,0,0,-1,-0.0001,793)"/>
<path style="fill-rule:nonzero;fill:rgb(100%,100%,100%);fill-opacity:1;stroke-width:1.5;stroke-linecap:butt;stroke-linejoin:miter;stroke:rgb(13.730068%,12.159915%,12.54902%);stroke-opacity:1;stroke-miterlimit:4;" d="M 321.7501 375.75 L 321.7501 382.5 L 315.0001 382.5 L 315.0001 375.75 L 321.7501 375.75 Z M 321.7501 375.75 " transform="matrix(1,0,0,-1,-0.0001,793)"/>
<path style="fill-rule:nonzero;fill:rgb(100%,100%,100%);fill-opacity:1;stroke-width:1.5;stroke-linecap:butt;stroke-linejoin:miter;stroke:rgb(13.730068%,12.159915%,12.54902%);stroke-opacity:1;stroke-miterlimit:4;" d="M 328.5001 375.75 L 328.5001 382.5 L 321.7501 382.5 L 321.7501 375.75 L 328.5001 375.75 Z M 328.5001 375.75 " transform="matrix(1,0,0,-1,-0.0001,793)"/>
<path style="fill-rule:nonzero;fill:rgb(100%,100%,100%);fill-opacity:1;stroke-width:1.5;stroke-linecap:butt;stroke-linejoin:miter;stroke:rgb(13.730068%,12.159915%,12.54902%);stroke-opacity:1;stroke-miterlimit:4;" d="M 294.7501 369 L 294.7501 375.75 L 288.0001 375.75 L 288.0001 369 L 294.7501 369 Z M 294.7501 369 " transform="matrix(1,0,0,-1,-0.0001,793)"/>
<path style="fill-rule:nonzero;fill:rgb(100%,100%,100%);fill-opacity:1;stroke-width:1.5;stroke-linecap:butt;stroke-linejoin:miter;stroke:rgb(13.730068%,12.159915%,12.54902%);stroke-opacity:1;stroke-miterlimit:4;" d="M 301.5001 369 L 301.5001 375.75 L 294.7501 375.75 L 294.7501 369 L 301.5001 369 Z M 301.5001 369 " transform="matrix(1,0,0,-1,-0.0001,793)"/>
<path style="fill-rule:nonzero;fill:rgb(100%,100%,100%);fill-opacity:1;stroke-width:1.5;stroke-linecap:butt;stroke-linejoin:miter;stroke:rgb(13.730068%,12.159915%,12.54902%);stroke-opacity:1;stroke-miterlimit:4;" d="M 308.2501 369 L 308.2501 375.75 L 301.5001 375.75 L 301.5001 369 L 308.2501 369 Z M 308.2501 369 " transform="matrix(1,0,0,-1,-0.0001,793)"/>
<path style="fill-rule:nonzero;fill:rgb(100%,100%,100%);fill-opacity:1;stroke-width:1.5;stroke-linecap:butt;stroke-linejoin:miter;stroke:rgb(13.730068%,12.159915%,12.54902%);stroke-opacity:1;stroke-miterlimit:4;" d="M 315.0001 369 L 315.0001 375.75 L 308.2501 375.75 L 308.2501 369 L 315.0001 369 Z M 315.0001 369 " transform="matrix(1,0,0,-1,-0.0001,793)"/>
<path style="fill-rule:nonzero;fill:rgb(100%,100%,100%);fill-opacity:1;stroke-width:1.5;stroke-linecap:butt;stroke-linejoin:miter;stroke:rgb(13.730068%,12.159915%,12.54902%);stroke-opacity:1;stroke-miterlimit:4;" d="M 321.7501 369 L 321.7501 375.75 L 315.0001 375.75 L 315.0001 369 L 321.7501 369 Z M 321.7501 369 " transform="matrix(1,0,0,-1,-0.0001,793)"/>
<path style="fill-rule:nonzero;fill:rgb(100%,100%,100%);fill-opacity:1;stroke-width:1.5;stroke-linecap:butt;stroke-linejoin:miter;stroke:rgb(13.730068%,12.159915%,12.54902%);stroke-opacity:1;stroke-miterlimit:4;" d="M 328.5001 369 L 328.5001 375.75 L 321.7501 375.75 L 321.7501 369 L 328.5001 369 Z M 328.5001 369 " transform="matrix(1,0,0,-1,-0.0001,793)"/>
<path style="fill-rule:nonzero;fill:rgb(100%,100%,100%);fill-opacity:1;stroke-width:1.5;stroke-linecap:butt;stroke-linejoin:miter;stroke:rgb(13.730068%,12.159915%,12.54902%);stroke-opacity:1;stroke-miterlimit:4;" d="M 294.7501 362.25 L 294.7501 369 L 288.0001 369 L 288.0001 362.25 L 294.7501 362.25 Z M 294.7501 362.25 " transform="matrix(1,0,0,-1,-0.0001,793)"/>
<path style="fill-rule:nonzero;fill:rgb(100%,100%,100%);fill-opacity:1;stroke-width:1.5;stroke-linecap:butt;stroke-linejoin:miter;stroke:rgb(13.730068%,12.159915%,12.54902%);stroke-opacity:1;stroke-miterlimit:4;" d="M 301.5001 362.25 L 301.5001 369 L 294.7501 369 L 294.7501 362.25 L 301.5001 362.25 Z M 301.5001 362.25 " transform="matrix(1,0,0,-1,-0.0001,793)"/>
<path style="fill-rule:nonzero;fill:rgb(100%,100%,100%);fill-opacity:1;stroke-width:1.5;stroke-linecap:butt;stroke-linejoin:miter;stroke:rgb(13.730068%,12.159915%,12.54902%);stroke-opacity:1;stroke-miterlimit:4;" d="M 308.2501 362.25 L 308.2501 369 L 301.5001 369 L 301.5001 362.25 L 308.2501 362.25 Z M 308.2501 362.25 " transform="matrix(1,0,0,-1,-0.0001,793)"/>
<path style="fill-rule:nonzero;fill:rgb(100%,100%,100%);fill-opacity:1;stroke-width:1.5;stroke-linecap:butt;stroke-linejoin:miter;stroke:rgb(13.730068%,12.159915%,12.54902%);stroke-opacity:1;stroke-miterlimit:4;" d="M 315.0001 362.25 L 315.0001 369 L 308.2501 369 L 308.2501 362.25 L 315.0001 362.25 Z M 315.0001 362.25 " transform="matrix(1,0,0,-1,-0.0001,793)"/>
<path style="fill-rule:nonzero;fill:rgb(100%,100%,100%);fill-opacity:1;stroke-width:1.5;stroke-linecap:butt;stroke-linejoin:miter;stroke:rgb(13.730068%,12.159915%,12.54902%);stroke-opacity:1;stroke-miterlimit:4;" d="M 321.7501 362.25 L 321.7501 369 L 315.0001 369 L 315.0001 362.25 L 321.7501 362.25 Z M 321.7501 362.25 " transform="matrix(1,0,0,-1,-0.0001,793)"/>
<path style="fill-rule:nonzero;fill:rgb(100%,100%,100%);fill-opacity:1;stroke-width:1.5;stroke-linecap:butt;stroke-linejoin:miter;stroke:rgb(13.730068%,12.159915%,12.54902%);stroke-opacity:1;stroke-miterlimit:4;" d="M 328.5001 362.25 L 328.5001 369 L 321.7501 369 L 321.7501 362.25 L 328.5001 362.25 Z M 328.5001 362.25 " transform="matrix(1,0,0,-1,-0.0001,793)"/>
<path style="fill-rule:nonzero;fill:rgb(100%,100%,100%);fill-opacity:1;stroke-width:1.5;stroke-linecap:butt;stroke-linejoin:miter;stroke:rgb(13.730068%,12.159915%,12.54902%);stroke-opacity:1;stroke-miterlimit:4;" d="M 294.7501 355.5 L 294.7501 362.25 L 288.0001 362.25 L 288.0001 355.5 L 294.7501 355.5 Z M 294.7501 355.5 " transform="matrix(1,0,0,-1,-0.0001,793)"/>
<path style="fill-rule:nonzero;fill:rgb(100%,100%,100%);fill-opacity:1;stroke-width:1.5;stroke-linecap:butt;stroke-linejoin:miter;stroke:rgb(13.730068%,12.159915%,12.54902%);stroke-opacity:1;stroke-miterlimit:4;" d="M 301.5001 355.5 L 301.5001 362.25 L 294.7501 362.25 L 294.7501 355.5 L 301.5001 355.5 Z M 301.5001 355.5 " transform="matrix(1,0,0,-1,-0.0001,793)"/>
<path style="fill-rule:nonzero;fill:rgb(100%,100%,100%);fill-opacity:1;stroke-width:1.5;stroke-linecap:butt;stroke-linejoin:miter;stroke:rgb(13.730068%,12.159915%,12.54902%);stroke-opacity:1;stroke-miterlimit:4;" d="M 308.2501 355.5 L 308.2501 362.25 L 301.5001 362.25 L 301.5001 355.5 L 308.2501 355.5 Z M 308.2501 355.5 " transform="matrix(1,0,0,-1,-0.0001,793)"/>
<path style="fill-rule:nonzero;fill:rgb(100%,100%,100%);fill-opacity:1;stroke-width:1.5;stroke-linecap:butt;stroke-linejoin:miter;stroke:rgb(13.730068%,12.159915%,12.54902%);stroke-opacity:1;stroke-miterlimit:4;" d="M 315.0001 355.5 L 315.0001 362.25 L 308.2501 362.25 L 308.2501 355.5 L 315.0001 355.5 Z M 315.0001 355.5 " transform="matrix(1,0,0,-1,-0.0001,793)"/>
<path style="fill-rule:nonzero;fill:rgb(100%,100%,100%);fill-opacity:1;stroke-width:1.5;stroke-linecap:butt;stroke-linejoin:miter;stroke:rgb(13.730068%,12.159915%,12.54902%);stroke-opacity:1;stroke-miterlimit:4;" d="M 321.7501 355.5 L 321.7501 362.25 L 315.0001 362.25 L 315.0001 355.5 L 321.7501 355.5 Z M 321.7501 355.5 " transform="matrix(1,0,0,-1,-0.0001,793)"/>
<path style="fill-rule:nonzero;fill:rgb(100%,100%,100%);fill-opacity:1;stroke-width:1.5;stroke-linecap:butt;stroke-linejoin:miter;stroke:rgb(13.730068%,12.159915%,12.54902%);stroke-opacity:1;stroke-miterlimit:4;" d="M 328.5001 355.5 L 328.5001 362.25 L 321.7501 362.25 L 321.7501 355.5 L 328.5001 355.5 Z M 328.5001 355.5 " transform="matrix(1,0,0,-1,-0.0001,793)"/>
<path style="fill-rule:nonzero;fill:rgb(100%,100%,100%);fill-opacity:1;stroke-width:1.5;stroke-linecap:butt;stroke-linejoin:miter;stroke:rgb(13.730068%,12.159915%,12.54902%);stroke-opacity:1;stroke-miterlimit:4;" d="M 294.7501 348.75 L 294.7501 355.5 L 288.0001 355.5 L 288.0001 348.75 L 294.7501 348.75 Z M 294.7501 348.75 " transform="matrix(1,0,0,-1,-0.0001,793)"/>
<path style="fill-rule:nonzero;fill:rgb(100%,100%,100%);fill-opacity:1;stroke-width:1.5;stroke-linecap:butt;stroke-linejoin:miter;stroke:rgb(13.730068%,12.159915%,12.54902%);stroke-opacity:1;stroke-miterlimit:4;" d="M 301.5001 348.75 L 301.5001 355.5 L 294.7501 355.5 L 294.7501 348.75 L 301.5001 348.75 Z M 301.5001 348.75 " transform="matrix(1,0,0,-1,-0.0001,793)"/>
<path style="fill-rule:nonzero;fill:rgb(100%,100%,100%);fill-opacity:1;stroke-width:1.5;stroke-linecap:butt;stroke-linejoin:miter;stroke:rgb(13.730068%,12.159915%,12.54902%);stroke-opacity:1;stroke-miterlimit:4;" d="M 308.2501 348.75 L 308.2501 355.5 L 301.5001 355.5 L 301.5001 348.75 L 308.2501 348.75 Z M 308.2501 348.75 " transform="matrix(1,0,0,-1,-0.0001,793)"/>
<path style="fill-rule:nonzero;fill:rgb(100%,100%,100%);fill-opacity:1;stroke-width:1.5;stroke-linecap:butt;stroke-linejoin:miter;stroke:rgb(13.730068%,12.159915%,12.54902%);stroke-opacity:1;stroke-miterlimit:4;" d="M 315.0001 348.75 L 315.0001 355.5 L 308.2501 355.5 L 308.2501 348.75 L 315.0001 348.75 Z M 315.0001 348.75 " transform="matrix(1,0,0,-1,-0.0001,793)"/>
<path style="fill-rule:nonzero;fill:rgb(100%,100%,100%);fill-opacity:1;stroke-width:1.5;stroke-linecap:butt;stroke-linejoin:miter;stroke:rgb(13.730068%,12.159915%,12.54902%);stroke-opacity:1;stroke-miterlimit:4;" d="M 321.7501 348.75 L 321.7501 355.5 L 315.0001 355.5 L 315.0001 348.75 L 321.7501 348.75 Z M 321.7501 348.75 " transform="matrix(1,0,0,-1,-0.0001,793)"/>
<path style="fill-rule:nonzero;fill:rgb(100%,100%,100%);fill-opacity:1;stroke-width:1.5;stroke-linecap:butt;stroke-linejoin:miter;stroke:rgb(13.730068%,12.159915%,12.54902%);stroke-opacity:1;stroke-miterlimit:4;" d="M 328.5001 348.75 L 328.5001 355.5 L 321.7501 355.5 L 321.7501 348.75 L 328.5001 348.75 Z M 328.5001 348.75 " transform="matrix(1,0,0,-1,-0.0001,793)"/>
<path style="fill-rule:nonzero;fill:rgb(100%,100%,100%);fill-opacity:1;stroke-width:1.5;stroke-linecap:butt;stroke-linejoin:miter;stroke:rgb(13.730068%,12.159915%,12.54902%);stroke-opacity:1;stroke-miterlimit:4;" d="M 294.7501 342 L 294.7501 348.75 L 288.0001 348.75 L 288.0001 342 L 294.7501 342 Z M 294.7501 342 " transform="matrix(1,0,0,-1,-0.0001,793)"/>
<path style="fill-rule:nonzero;fill:rgb(100%,100%,100%);fill-opacity:1;stroke-width:1.5;stroke-linecap:butt;stroke-linejoin:miter;stroke:rgb(13.730068%,12.159915%,12.54902%);stroke-opacity:1;stroke-miterlimit:4;" d="M 301.5001 342 L 301.5001 348.75 L 294.7501 348.75 L 294.7501 342 L 301.5001 342 Z M 301.5001 342 " transform="matrix(1,0,0,-1,-0.0001,793)"/>
<path style="fill-rule:nonzero;fill:rgb(100%,100%,100%);fill-opacity:1;stroke-width:1.5;stroke-linecap:butt;stroke-linejoin:miter;stroke:rgb(13.730068%,12.159915%,12.54902%);stroke-opacity:1;stroke-miterlimit:4;" d="M 308.2501 342 L 308.2501 348.75 L 301.5001 348.75 L 301.5001 342 L 308.2501 342 Z M 308.2501 342 " transform="matrix(1,0,0,-1,-0.0001,793)"/>
<path style="fill-rule:nonzero;fill:rgb(100%,100%,100%);fill-opacity:1;stroke-width:1.5;stroke-linecap:butt;stroke-linejoin:miter;stroke:rgb(13.730068%,12.159915%,12.54902%);stroke-opacity:1;stroke-miterlimit:4;" d="M 315.0001 342 L 315.0001 348.75 L 308.2501 348.75 L 308.2501 342 L 315.0001 342 Z M 315.0001 342 " transform="matrix(1,0,0,-1,-0.0001,793)"/>
<path style="fill-rule:nonzero;fill:rgb(100%,100%,100%);fill-opacity:1;stroke-width:1.5;stroke-linecap:butt;stroke-linejoin:miter;stroke:rgb(13.730068%,12.159915%,12.54902%);stroke-opacity:1;stroke-miterlimit:4;" d="M 321.7501 342 L 321.7501 348.75 L 315.0001 348.75 L 315.0001 342 L 321.7501 342 Z M 321.7501 342 " transform="matrix(1,0,0,-1,-0.0001,793)"/>
<path style="fill-rule:nonzero;fill:rgb(100%,100%,100%);fill-opacity:1;stroke-width:1.5;stroke-linecap:butt;stroke-linejoin:miter;stroke:rgb(13.730068%,12.159915%,12.54902%);stroke-opacity:1;stroke-miterlimit:4;" d="M 328.5001 342 L 328.5001 348.75 L 321.7501 348.75 L 321.7501 342 L 328.5001 342 Z M 328.5001 342 " transform="matrix(1,0,0,-1,-0.0001,793)"/>

</svg>