<svg xmlns="http://www.w3.org/2000/svg" xmlns:xlink="http://www.w3.org/1999/xlink" width="612pt" height="792pt" viewBox="0 0 612 792" version="1.1">

<!-- Chromatic Pulse Driver -->
<path style="fill-rule:nonzero;fill:rgb(100%,100%,100%);fill-opacity:1;stroke-width:0.75;stroke-linecap:butt;stroke-linejoin:miter;stroke:rgb(13.730068%,12.159915%,12.54902%);stroke-opacity:1;stroke-miterlimit:4;" d="M 56.25 395 L 51.75 390.5 L 51.75 347.75 L 81 347.75 L 81 390.5 L 76.5 395 " transform="matrix(1,0,0,-1,0,793)"/>
<path style="fill-rule:nonzero;fill:rgb(100%,100%,100%);fill-opacity:1;stroke-width:0.75;stroke-linecap:butt;stroke-linejoin:miter;stroke:rgb(13.730068%,12.159915%,12.54902%);stroke-opacity:1;stroke-miterlimit:4;" d="M 66.394531 388.25 C 68.214844 388.25 69.691406 389.722656 69.691406 391.542969 C 69.691406 393.363281 68.214844 394.839844 66.394531 394.839844 C 64.578125 394.839844 63.101562 393.363281 63.101562 391.542969 C 63.101562 389.722656 64.578125 388.25 66.394531 388.25 Z M 66.394531 388.25 " transform="matrix(1,0,0,-1,0,793)"/>
<path style="fill-rule:nonzero;fill:rgb(37.938506%,36.807813%,37.088579%);fill-opacity:1;stroke-width:0.75;stroke-linecap:butt;stroke-linejoin:miter;stroke:rgb(13.730068%,12.159915%,12.54902%);stroke-opacity:1;stroke-miterlimit:4;" d="M 66.394531 399.5 C 67.640625 399.5 68.644531 400.507812 68.644531 401.75 C 68.644531 402.992188 67.640625 404 66.394531 404 C 65.152344 404 64.144531 402.992188 64.144531 401.75 C 64.144531 400.507812 65.152344 399.5 66.394531 399.5 Z M 66.394531 399.5 " transform="matrix(1,0,0,-1,0,793)"/>
<path style="fill-rule:nonzero;fill:rgb(88.830396%,88.625925%,88.67628%);fill-opacity:1;stroke-width:0.75;stroke-linecap:butt;stroke-linejoin:miter;stroke:rgb(13.730068%,12.159915%,12.54902%);stroke-opacity:1;stroke-miterlimit:4;" d="M 61.199219 394.304688 C 62.703125 394.304688 63.921875 395.523438 63.921875 397.027344 C 63.921875 398.53125 62.703125 399.75 61.199219 399.75 C 59.695312 399.75 58.476562 398.53125 58.476562 397.027344 C 58.476562 395.523438 59.695312 394.304688 61.199219 394.304688 Z M 61.199219 394.304688 " transform="matrix(1,0,0,-1,0,793)"/>
<path style="fill-rule:nonzero;fill:rgb(55.184253%,54.367895%,54.57084%);fill-opacity:1;stroke-width:0.75;stroke-linecap:butt;stroke-linejoin:miter;stroke:rgb(13.730068%,12.159915%,12.54902%);stroke-opacity:1;stroke-miterlimit:4;" d="M 71.527344 394.304688 C 73.03125 394.304688 74.25 395.523438 74.25 397.027344 C 74.25 398.53125 73.03125 399.75 71.527344 399.75 C 70.023438 399.75 68.804688 398.53125 68.804688 397.027344 C 68.804688 395.523438 70.023438 394.304688 71.527344 394.304688 Z M 71.527344 394.304688 " transform="matrix(1,0,0,-1,0,793)"/>

<!-- Damage Boxes -->
<path style="fill-rule:nonzero;fill:rgb(100%,100%,100%);fill-opacity:1;stroke-width:1.5;stroke-linecap:butt;stroke-linejoin:miter;stroke:rgb(13.730068%,12.159915%,12.54902%);stroke-opacity:1;stroke-miterlimit:4;" d="M 56.25 379.25 L 56.25 386 L 63 386 L 63 379.25 L 56.25 379.25 Z M 56.25 379.25 " transform="matrix(1,0,0,-1,0,793)"/>
<path style="fill-rule:nonzero;fill:rgb(100%,100%,100%);fill-opacity:1;stroke-width:1.5;stroke-linecap:butt;stroke-linejoin:miter;stroke:rgb(13.730068%,12.159915%,12.54902%);stroke-opacity:1;stroke-miterlimit:4;" d="M 63 379.25 L 63 386 L 69.75 386 L 69.75 379.25 L 63 379.25 Z M 63 379.25 " transform="matrix(1,0,0,-1,0,793)"/>
<path style="fill-rule:nonzero;fill:rgb(100%,100%,100%);fill-opacity:1;stroke-width:1.5;stroke-linecap:butt;stroke-linejoin:miter;stroke:rgb(13.730068%,12.159915%,12.54902%);stroke-opacity:1;stroke-miterlimit:4;" d="M 69.75 379.25 L 69.75 386 L 76.5 386 L 76.5 379.25 L 69.75 379.25 Z M 69.75 379.25 " transform="matrix(1,0,0,-1,0,793)"/>
<path style="fill-rule:nonzero;fill:rgb(100%,100%,100%);fill-opacity:1;stroke-width:1.5;stroke-linecap:butt;stroke-linejoin:miter;stroke:rgb(13.730068%,12.159915%,12.54902%);stroke-opacity:1;stroke-miterlimit:4;" d="M 56.25 372.5 L 56.25 379.25 L 63 379.25 L 63 372.5 L 56.25 372.5 Z M 56.25 372.5 " transform="matrix(1,0,0,-1,0,793)"/>
<path style="fill-rule:nonzero;fill:rgb(100%,100%,100%);fill-opacity:1;stroke-width:1.5;stroke-linecap:butt;stroke-linejoin:miter;stroke:rgb(13.730068%,12.159915%,12.54902%);stroke-opacity:1;stroke-miterlimit:4;" d="M 63 372.5 L 63 379.25 L 69.75 379.25 L 69.75 372.5 L 63 372.5 Z M 63 372.5 " transform="matrix(1,0,0,-1,0,793)"/>
<path style="fill-rule:nonzero;fill:rgb(100%,100%,100%);fill-opacity:1;stroke-width:1.5;stroke-linecap:butt;stroke-linejoin:miter;stroke:rgb(13.730068%,12.159915%,12.54902%);stroke-opacity:1;stroke-miterlimit:4;" d="M 69.75 372.5 L 69.75 379.25 L 76.5 379.25 L 76.5 372.5 L 69.75 372.5 Z M 69.75 372.5 " transform="matrix(1,0,0,-1,0,793)"/>
<path style="fill-rule:nonzero;fill:rgb(100%,100%,100%);fill-opacity:1;stroke-width:1.5;stroke-linecap:butt;stroke-linejoin:miter;stroke:rgb(13.730068%,12.159915%,12.54902%);stroke-opacity:1;stroke-miterlimit:4;" d="M 56.25 365.75 L 56.25 372.5 L 63 372.5 L 63 365.75 L 56.25 365.75 Z M 56.25 365.75 " transform="matrix(1,0,0,-1,0,793)"/>
<path style="fill-rule:nonzero;fill:rgb(100%,100%,100%);fill-opacity:1;stroke-width:1.5;stroke-linecap:butt;stroke-linejoin:miter;stroke:rgb(13.730068%,12.159915%,12.54902%);stroke-opacity:1;stroke-miterlimit:4;" d="M 63 365.75 L 63 372.5 L 69.75 372.5 L 69.75 365.75 L 63 365.75 Z M 63 365.75 " transform="matrix(1,0,0,-1,0,793)"/>
<path style="fill-rule:nonzero;fill:rgb(100%,100%,100%);fill-opacity:1;stroke-width:1.5;stroke-linecap:butt;stroke-linejoin:miter;stroke:rgb(13.730068%,12.159915%,12.54902%);stroke-opacity:1;stroke-miterlimit:4;" d="M 69.75 365.75 L 69.75 372.5 L 76.5 372.5 L 76.5 365.75 L 69.75 365.75 Z M 69.75 365.75 " transform="matrix(1,0,0,-1,0,793)"/>
<path style="fill-rule:nonzero;fill:rgb(100%,100%,100%);fill-opacity:1;stroke-width:1.5;stroke-linecap:butt;stroke-linejoin:miter;stroke:rgb(13.730068%,12.159915%,12.54902%);stroke-opacity:1;stroke-miterlimit:4;" d="M 56.25 359 L 56.25 365.75 L 63 365.75 L 63 359 L 56.25 359 Z M 56.25 359 " transform="matrix(1,0,0,-1,0,793)"/>
<path style="fill-rule:nonzero;fill:rgb(100%,100%,100%);fill-opacity:1;stroke-width:1.5;stroke-linecap:butt;stroke-linejoin:miter;stroke:rgb(13.730068%,12.159915%,12.54902%);stroke-opacity:1;stroke-miterlimit:4;" d="M 63 359 L 63 365.75 L 69.75 365.75 L 69.75 359 L 63 359 Z M 63 359 " transform="matrix(1,0,0,-1,0,793)"/>
<path style="fill-rule:nonzero;fill:rgb(100%,100%,100%);fill-opacity:1;stroke-width:1.5;stroke-linecap:butt;stroke-linejoin:miter;stroke:rgb(13.730068%,12.159915%,12.54902%);stroke-opacity:1;stroke-miterlimit:4;" d="M 69.75 359 L 69.75 365.75 L 76.5 365.75 L 76.5 359 L 69.75 359 Z M 69.75 359 " transform="matrix(1,0,0,-1,0,793)"/>
<path style="fill-rule:nonzero;fill:rgb(100%,100%,100%);fill-opacity:1;stroke-width:1.5;stroke-linecap:butt;stroke-linejoin:miter;stroke:rgb(13.730068%,12.159915%,12.54902%);stroke-opacity:1;stroke-miterlimit:4;" d="M 56.25 352.25 L 56.25 359 L 63 359 L 63 352.25 L 56.25 352.25 Z M 56.25 352.25 " transform="matrix(1,0,0,-1,0,793)"/>
<path style="fill-rule:nonzero;fill:rgb(100%,100%,100%);fill-opacity:1;stroke-width:1.5;stroke-linecap:butt;stroke-linejoin:miter;stroke:rgb(13.730068%,12.159915%,12.54902%);stroke-opacity:1;stroke-miterlimit:4;" d="M 63 352.25 L 63 359 L 69.75 359 L 69.75 352.25 L 63 352.25 Z M 63 352.25 " transform="matrix(1,0,0,-1,0,793)"/>
<path style="fill-rule:nonzero;fill:rgb(100%,100%,100%);fill-opacity:1;stroke-width:1.5;stroke-linecap:butt;stroke-linejoin:miter;stroke:rgb(13.730068%,12.159915%,12.54902%);stroke-opacity:1;stroke-miterlimit:4;" d="M 69.75 352.25 L 69.75 359 L 76.5 359 L 76.5 352.25 L 69.75 352.25 Z M 69.75 352.25 " transform="matrix(1,0,0,-1,0,793)"/>

</svg>