<svg xmlns="http://www.w3.org/2000/svg" xmlns:xlink="http://www.w3.org/1999/xlink" width="612pt" height="792pt" viewBox="0 0 612 792" version="1.1">

<!-- Class-SO Missile Rack -->
<path style="fill-rule:nonzero;fill:rgb(100%,100%,100%);fill-opacity:1;stroke-width:0.75;stroke-linecap:butt;stroke-linejoin:miter;stroke:rgb(13.730068%,12.159915%,12.54902%);stroke-opacity:1;stroke-miterlimit:4;" d="M 161.960938 153 L 161.960938 175.5 L 173.210938 175.5 L 173.210938 180 L 170.960938 180 L 173.210938 184.5 L 173.210938 186.75 L 170.960938 186.75 L 176.710938 195.75 L 182.210938 186.75 L 179.960938 186.75 L 179.960938 184.5 L 182.210938 180 L 179.960938 180 L 179.960938 175.5 L 191.210938 175.5 L 191.210938 153 L 161.960938 153 Z M 161.960938 153 " transform="matrix(1,0,0,-1,0,793)"/>

<!-- Damage Boxes -->
<path style="fill-rule:nonzero;fill:rgb(100%,100%,100%);fill-opacity:1;stroke-width:1.5;stroke-linecap:butt;stroke-linejoin:miter;stroke:rgb(13.730068%,12.159915%,12.54902%);stroke-opacity:1;stroke-miterlimit:4;" d="M 173.210938 171 L 173.210938 164.25 L 166.460938 164.25 L 166.460938 171 L 173.210938 171 Z M 173.210938 171 " transform="matrix(1,0,0,-1,0,793)"/>
<path style="fill-rule:nonzero;fill:rgb(100%,100%,100%);fill-opacity:1;stroke-width:1.5;stroke-linecap:butt;stroke-linejoin:miter;stroke:rgb(13.730068%,12.159915%,12.54902%);stroke-opacity:1;stroke-miterlimit:4;" d="M 179.960938 171 L 179.960938 164.25 L 173.210938 164.25 L 173.210938 171 L 179.960938 171 Z M 179.960938 171 " transform="matrix(1,0,0,-1,0,793)"/>
<path style="fill-rule:nonzero;fill:rgb(100%,100%,100%);fill-opacity:1;stroke-width:1.5;stroke-linecap:butt;stroke-linejoin:miter;stroke:rgb(13.730068%,12.159915%,12.54902%);stroke-opacity:1;stroke-miterlimit:4;" d="M 186.710938 171 L 186.710938 164.25 L 179.960938 164.25 L 179.960938 171 L 186.710938 171 Z M 186.710938 171 " transform="matrix(1,0,0,-1,0,793)"/>
<path style="fill-rule:nonzero;fill:rgb(100%,100%,100%);fill-opacity:1;stroke-width:1.5;stroke-linecap:butt;stroke-linejoin:miter;stroke:rgb(13.730068%,12.159915%,12.54902%);stroke-opacity:1;stroke-miterlimit:4;" d="M 173.210938 164.25 L 173.210938 157.5 L 166.460938 157.5 L 166.460938 164.25 L 173.210938 164.25 Z M 173.210938 164.25 " transform="matrix(1,0,0,-1,0,793)"/>
<path style="fill-rule:nonzero;fill:rgb(100%,100%,100%);fill-opacity:1;stroke-width:1.5;stroke-linecap:butt;stroke-linejoin:miter;stroke:rgb(13.730068%,12.159915%,12.54902%);stroke-opacity:1;stroke-miterlimit:4;" d="M 179.960938 164.25 L 179.960938 157.5 L 173.210938 157.5 L 173.210938 164.25 L 179.960938 164.25 Z M 179.960938 164.25 " transform="matrix(1,0,0,-1,0,793)"/>
<path style="fill-rule:nonzero;fill:rgb(100%,100%,100%);fill-opacity:1;stroke-width:1.5;stroke-linecap:butt;stroke-linejoin:miter;stroke:rgb(13.730068%,12.159915%,12.54902%);stroke-opacity:1;stroke-miterlimit:4;" d="M 186.710938 164.25 L 186.710938 157.5 L 179.960938 157.5 L 179.960938 164.25 L 186.710938 164.25 Z M 186.710938 164.25 " transform="matrix(1,0,0,-1,0,793)"/>

</svg>