<svg xmlns="http://www.w3.org/2000/svg" xmlns:xlink="http://www.w3.org/1999/xlink" width="612pt" height="792pt" viewBox="0 0 612 792" version="1.1">

<!-- Class-LH Missile Rack -->
<path style="fill-rule:nonzero;fill:rgb(100%,100%,100%);fill-opacity:1;stroke-width:0.75;stroke-linecap:butt;stroke-linejoin:miter;stroke:rgb(13.730068%,12.159915%,12.54902%);stroke-opacity:1;stroke-miterlimit:4;" d="M 222.75 207 L 222.75 229.5 L 213.75 229.5 L 213.75 236.25 L 216 236.25 L 213.75 240.75 L 213.75 245.25 L 216 245.25 L 210.25 254.25 L 204.75 245.25 L 207 245.25 L 207 240.75 L 204.75 236.25 L 207 236.25 L 207 229.5 L 200.25 229.5 L 200.25 236.25 L 202.5 236.25 L 200.25 240.75 L 200.25 245.25 L 202.5 245.25 L 196.75 254.25 L 191.25 245.25 L 193.5 245.25 L 193.5 240.75 L 191.25 236.25 L 193.5 236.25 L 193.5 229.5 L 184.5 229.5 L 184.5 207 L 222.75 207 Z M 222.75 207 " transform="matrix(1,0,0,-1,0,793)"/>

<!-- Damage Boxes -->
<path style="fill-rule:nonzero;fill:rgb(100%,100%,100%);fill-opacity:1;stroke-width:1.5;stroke-linecap:butt;stroke-linejoin:miter;stroke:rgb(13.730068%,12.159915%,12.54902%);stroke-opacity:1;stroke-miterlimit:4;" d="M 190.125 225 L 190.125 218.25 L 196.875 218.25 L 196.875 225 L 190.125 225 Z M 190.125 225 " transform="matrix(1,0,0,-1,0,793)"/>
<path style="fill-rule:nonzero;fill:rgb(100%,100%,100%);fill-opacity:1;stroke-width:1.5;stroke-linecap:butt;stroke-linejoin:miter;stroke:rgb(13.730068%,12.159915%,12.54902%);stroke-opacity:1;stroke-miterlimit:4;" d="M 196.875 225 L 196.875 218.25 L 203.625 218.25 L 203.625 225 L 196.875 225 Z M 196.875 225 " transform="matrix(1,0,0,-1,0,793)"/>
<path style="fill-rule:nonzero;fill:rgb(100%,100%,100%);fill-opacity:1;stroke-width:1.5;stroke-linecap:butt;stroke-linejoin:miter;stroke:rgb(13.730068%,12.159915%,12.54902%);stroke-opacity:1;stroke-miterlimit:4;" d="M 203.625 225 L 203.625 218.25 L 210.375 218.25 L 210.375 225 L 203.625 225 Z M 203.625 225 " transform="matrix(1,0,0,-1,0,793)"/>
<path style="fill-rule:nonzero;fill:rgb(100%,100%,100%);fill-opacity:1;stroke-width:1.5;stroke-linecap:butt;stroke-linejoin:miter;stroke:rgb(13.730068%,12.159915%,12.54902%);stroke-opacity:1;stroke-miterlimit:4;" d="M 210.375 225 L 210.375 218.25 L 217.125 218.25 L 217.125 225 L 210.375 225 Z M 210.375 225 " transform="matrix(1,0,0,-1,0,793)"/>
<path style="fill-rule:nonzero;fill:rgb(100%,100%,100%);fill-opacity:1;stroke-width:1.5;stroke-linecap:butt;stroke-linejoin:miter;stroke:rgb(13.730068%,12.159915%,12.54902%);stroke-opacity:1;stroke-miterlimit:4;" d="M 190.125 218.25 L 190.125 211.5 L 196.875 211.5 L 196.875 218.25 L 190.125 218.25 Z M 190.125 218.25 " transform="matrix(1,0,0,-1,0,793)"/>
<path style="fill-rule:nonzero;fill:rgb(100%,100%,100%);fill-opacity:1;stroke-width:1.5;stroke-linecap:butt;stroke-linejoin:miter;stroke:rgb(13.730068%,12.159915%,12.54902%);stroke-opacity:1;stroke-miterlimit:4;" d="M 196.875 218.25 L 196.875 211.5 L 203.625 211.5 L 203.625 218.25 L 196.875 218.25 Z M 196.875 218.25 " transform="matrix(1,0,0,-1,0,793)"/>
<path style="fill-rule:nonzero;fill:rgb(100%,100%,100%);fill-opacity:1;stroke-width:1.5;stroke-linecap:butt;stroke-linejoin:miter;stroke:rgb(13.730068%,12.159915%,12.54902%);stroke-opacity:1;stroke-miterlimit:4;" d="M 203.625 218.25 L 203.625 211.5 L 210.375 211.5 L 210.375 218.25 L 203.625 218.25 Z M 203.625 218.25 " transform="matrix(1,0,0,-1,0,793)"/>
<path style="fill-rule:nonzero;fill:rgb(100%,100%,100%);fill-opacity:1;stroke-width:1.5;stroke-linecap:butt;stroke-linejoin:miter;stroke:rgb(13.730068%,12.159915%,12.54902%);stroke-opacity:1;stroke-miterlimit:4;" d="M 210.375 218.25 L 210.375 211.5 L 217.125 211.5 L 217.125 218.25 L 210.375 218.25 Z M 210.375 218.25 " transform="matrix(1,0,0,-1,0,793)"/>

</svg>