<svg xmlns="http://www.w3.org/2000/svg" xmlns:xlink="http://www.w3.org/1999/xlink" width="612pt" height="792pt" viewBox="0 0 612 792" version="1.1">

<!-- Class-L Missile Rack -->
<path style="fill-rule:nonzero;fill:rgb(100%,100%,100%);fill-opacity:1;stroke-width:0.75;stroke-linecap:butt;stroke-linejoin:miter;stroke:rgb(13.730068%,12.159915%,12.54902%);stroke-opacity:1;stroke-miterlimit:4;" d="M 189 456.75 L 189 479.25 L 200.25 479.25 L 200.25 486 L 198 486 L 200.25 490.5 L 200.25 495 L 198 495 L 200.25 499.5 L 200.25 504 L 198 504 L 203.75 513 L 209.25 504 L 207 504 L 207 499.5 L 209.25 495 L 207 495 L 207 490.5 L 209.25 486 L 207 486 L 207 479.25 L 218.25 479.25 L 218.25 456.75 L 189 456.75 Z M 189 456.75 " transform="matrix(1,0,0,-1,0,793)"/>

<!-- Damage Boxes -->
<path style="fill-rule:nonzero;fill:rgb(100%,100%,100%);fill-opacity:1;stroke-width:1.5;stroke-linecap:butt;stroke-linejoin:miter;stroke:rgb(13.730068%,12.159915%,12.54902%);stroke-opacity:1;stroke-miterlimit:4;" d="M 200.25 474.75 L 200.25 468 L 193.5 468 L 193.5 474.75 L 200.25 474.75 Z M 200.25 474.75 " transform="matrix(1,0,0,-1,0,793)"/>
<path style="fill-rule:nonzero;fill:rgb(100%,100%,100%);fill-opacity:1;stroke-width:1.5;stroke-linecap:butt;stroke-linejoin:miter;stroke:rgb(13.730068%,12.159915%,12.54902%);stroke-opacity:1;stroke-miterlimit:4;" d="M 207 474.75 L 207 468 L 200.25 468 L 200.25 474.75 L 207 474.75 Z M 207 474.75 " transform="matrix(1,0,0,-1,0,793)"/>
<path style="fill-rule:nonzero;fill:rgb(100%,100%,100%);fill-opacity:1;stroke-width:1.5;stroke-linecap:butt;stroke-linejoin:miter;stroke:rgb(13.730068%,12.159915%,12.54902%);stroke-opacity:1;stroke-miterlimit:4;" d="M 213.75 474.75 L 213.75 468 L 207 468 L 207 474.75 L 213.75 474.75 Z M 213.75 474.75 " transform="matrix(1,0,0,-1,0,793)"/>
<path style="fill-rule:nonzero;fill:rgb(100%,100%,100%);fill-opacity:1;stroke-width:1.5;stroke-linecap:butt;stroke-linejoin:miter;stroke:rgb(13.730068%,12.159915%,12.54902%);stroke-opacity:1;stroke-miterlimit:4;" d="M 200.25 468 L 200.25 461.25 L 193.5 461.25 L 193.5 468 L 200.25 468 Z M 200.25 468 " transform="matrix(1,0,0,-1,0,793)"/>
<path style="fill-rule:nonzero;fill:rgb(100%,100%,100%);fill-opacity:1;stroke-width:1.5;stroke-linecap:butt;stroke-linejoin:miter;stroke:rgb(13.730068%,12.159915%,12.54902%);stroke-opacity:1;stroke-miterlimit:4;" d="M 207 468 L 207 461.25 L 200.25 461.25 L 200.25 468 L 207 468 Z M 207 468 " transform="matrix(1,0,0,-1,0,793)"/>
<path style="fill-rule:nonzero;fill:rgb(100%,100%,100%);fill-opacity:1;stroke-width:1.5;stroke-linecap:butt;stroke-linejoin:miter;stroke:rgb(13.730068%,12.159915%,12.54902%);stroke-opacity:1;stroke-miterlimit:4;" d="M 213.75 468 L 213.75 461.25 L 207 461.25 L 207 468 L 213.75 468 Z M 213.75 468 " transform="matrix(1,0,0,-1,0,793)"/>

</svg>