<svg xmlns="http://www.w3.org/2000/svg" xmlns:xlink="http://www.w3.org/1999/xlink" width="612pt" height="792pt" viewBox="0 0 612 792" version="1.1">

<!-- Class-B Missile Rack -->
<path style="fill-rule:nonzero;fill:rgb(100%,100%,100%);fill-opacity:1;stroke-width:0.75;stroke-linecap:butt;stroke-linejoin:miter;stroke:rgb(13.730068%,12.159915%,12.54902%);stroke-opacity:1;stroke-miterlimit:4;" d="M 351.001269 344.248631 L 351.001269 373.498631 L 355.501269 373.498631 L 355.501269 380.248631 L 353.251269 380.248631 L 355.501269 384.748631 L 355.501269 389.248631 L 353.251269 389.248631 L 355.501269 393.748631 L 355.501269 398.248631 L 353.251269 398.248631 L 359.001269 407.248631 L 364.501269 398.248631 L 362.251269 398.248631 L 362.251269 393.748631 L 364.501269 389.248631 L 362.251269 389.248631 L 362.251269 384.748631 L 364.501269 380.248631 L 362.251269 380.248631 L 362.251269 373.498631 L 369.001269 373.498631 L 369.001269 380.248631 L 366.751269 380.248631 L 369.001269 384.748631 L 369.001269 389.248631 L 366.751269 389.248631 L 369.001269 393.748631 L 369.001269 398.248631 L 366.751269 398.248631 L 372.501269 407.248631 L 378.001269 398.248631 L 375.751269 398.248631 L 375.751269 393.748631 L 378.001269 389.248631 L 375.751269 389.248631 L 375.751269 384.748631 L 378.001269 380.248631 L 375.751269 380.248631 L 375.751269 373.498631 L 380.251269 373.498631 L 380.251269 344.248631 L 351.001269 344.248631 Z M 351.001269 344.248631 " transform="matrix(1,0,0,-1,-11.3333,794.6666)"/>

<!-- Damage Boxes -->
<path style="fill-rule:nonzero;fill:rgb(100%,100%,100%);fill-opacity:1;stroke-width:1.5;stroke-linecap:butt;stroke-linejoin:miter;stroke:rgb(13.730068%,12.159915%,12.54902%);stroke-opacity:1;stroke-miterlimit:4;" d="M 362.251269 368.998631 L 362.251269 362.248631 L 355.501269 362.248631 L 355.501269 368.998631 L 362.251269 368.998631 Z M 362.251269 368.998631 " transform="matrix(1,0,0,-1,-11.3333,794.6666)"/>
<path style="fill-rule:nonzero;fill:rgb(100%,100%,100%);fill-opacity:1;stroke-width:1.5;stroke-linecap:butt;stroke-linejoin:miter;stroke:rgb(13.730068%,12.159915%,12.54902%);stroke-opacity:1;stroke-miterlimit:4;" d="M 369.001269 368.998631 L 369.001269 362.248631 L 362.251269 362.248631 L 362.251269 368.998631 L 369.001269 368.998631 Z M 369.001269 368.998631 " transform="matrix(1,0,0,-1,-11.3333,794.6666)"/>
<path style="fill-rule:nonzero;fill:rgb(100%,100%,100%);fill-opacity:1;stroke-width:1.5;stroke-linecap:butt;stroke-linejoin:miter;stroke:rgb(13.730068%,12.159915%,12.54902%);stroke-opacity:1;stroke-miterlimit:4;" d="M 375.751269 368.998631 L 375.751269 362.248631 L 369.001269 362.248631 L 369.001269 368.998631 L 375.751269 368.998631 Z M 375.751269 368.998631 " transform="matrix(1,0,0,-1,-11.3333,794.6666)"/>
<path style="fill-rule:nonzero;fill:rgb(100%,100%,100%);fill-opacity:1;stroke-width:1.5;stroke-linecap:butt;stroke-linejoin:miter;stroke:rgb(13.730068%,12.159915%,12.54902%);stroke-opacity:1;stroke-miterlimit:4;" d="M 362.251269 362.248631 L 362.251269 355.498631 L 355.501269 355.498631 L 355.501269 362.248631 L 362.251269 362.248631 Z M 362.251269 362.248631 " transform="matrix(1,0,0,-1,-11.3333,794.6666)"/>
<path style="fill-rule:nonzero;fill:rgb(100%,100%,100%);fill-opacity:1;stroke-width:1.5;stroke-linecap:butt;stroke-linejoin:miter;stroke:rgb(13.730068%,12.159915%,12.54902%);stroke-opacity:1;stroke-miterlimit:4;" d="M 369.001269 362.248631 L 369.001269 355.498631 L 362.251269 355.498631 L 362.251269 362.248631 L 369.001269 362.248631 Z M 369.001269 362.248631 " transform="matrix(1,0,0,-1,-11.3333,794.6666)"/>
<path style="fill-rule:nonzero;fill:rgb(100%,100%,100%);fill-opacity:1;stroke-width:1.5;stroke-linecap:butt;stroke-linejoin:miter;stroke:rgb(13.730068%,12.159915%,12.54902%);stroke-opacity:1;stroke-miterlimit:4;" d="M 375.751269 362.248631 L 375.751269 355.498631 L 369.001269 355.498631 L 369.001269 362.248631 L 375.751269 362.248631 Z M 375.751269 362.248631 " transform="matrix(1,0,0,-1,-11.3333,794.6666)"/>
<path style="fill-rule:nonzero;fill:rgb(100%,100%,100%);fill-opacity:1;stroke-width:1.5;stroke-linecap:butt;stroke-linejoin:miter;stroke:rgb(13.730068%,12.159915%,12.54902%);stroke-opacity:1;stroke-miterlimit:4;" d="M 362.251269 355.498631 L 362.251269 348.748631 L 355.501269 348.748631 L 355.501269 355.498631 L 362.251269 355.498631 Z M 362.251269 355.498631 " transform="matrix(1,0,0,-1,-11.3333,794.6666)"/>
<path style="fill-rule:nonzero;fill:rgb(100%,100%,100%);fill-opacity:1;stroke-width:1.5;stroke-linecap:butt;stroke-linejoin:miter;stroke:rgb(13.730068%,12.159915%,12.54902%);stroke-opacity:1;stroke-miterlimit:4;" d="M 369.001269 355.498631 L 369.001269 348.748631 L 362.251269 348.748631 L 362.251269 355.498631 L 369.001269 355.498631 Z M 369.001269 355.498631 " transform="matrix(1,0,0,-1,-11.3333,794.6666)"/>
<path style="fill-rule:nonzero;fill:rgb(100%,100%,100%);fill-opacity:1;stroke-width:1.5;stroke-linecap:butt;stroke-linejoin:miter;stroke:rgb(13.730068%,12.159915%,12.54902%);stroke-opacity:1;stroke-miterlimit:4;" d="M 375.751269 355.498631 L 375.751269 348.748631 L 369.001269 348.748631 L 369.001269 355.498631 L 375.751269 355.498631 Z M 375.751269 355.498631 " transform="matrix(1,0,0,-1,-11.3333,794.6666)"/>

</svg>