<svg xmlns="http://www.w3.org/2000/svg" xmlns:xlink="http://www.w3.org/1999/xlink" width="612pt" height="792pt" viewBox="0 0 612 792" version="1.1">

<!-- Class-R Missile Rack -->
<path style="fill-rule:nonzero;fill:rgb(100%,100%,100%);fill-opacity:1;stroke-width:0.75;stroke-linecap:butt;stroke-linejoin:miter;stroke:rgb(13.730068%,12.159915%,12.54902%);stroke-opacity:1;stroke-miterlimit:4;" d="M 444.417969 352.167969 L 444.417969 374.667969 L 439.417969 374.667969 L 439.417969 381.417969 L 441.667969 381.417969 L 439.417969 385.917969 L 439.417969 390.417969 L 441.667969 390.417969 L 435.917969 399.417969 L 430.417969 390.417969 L 432.667969 390.417969 L 432.667969 385.917969 L 430.417969 381.417969 L 432.667969 381.417969 L 432.667969 374.667969 L 425.917969 374.667969 L 425.917969 381.417969 L 428.167969 381.417969 L 425.917969 385.917969 L 425.917969 390.417969 L 428.167969 390.417969 L 422.417969 399.417969 L 416.917969 390.417969 L 419.164062 390.417969 L 419.167969 385.917969 L 416.917969 381.417969 L 419.167969 381.417969 L 419.167969 374.667969 L 414.167969 374.667969 L 414.167969 352.167969 L 444.417969 352.167969 Z M 444.417969 352.167969 " transform="matrix(1,0,0,-1,0,810)"/>

<!-- Damage Boxes -->
<path style="fill-rule:nonzero;fill:rgb(100%,100%,100%);fill-opacity:1;stroke-width:1.5;stroke-linecap:butt;stroke-linejoin:miter;stroke:rgb(13.730068%,12.159915%,12.54902%);stroke-opacity:1;stroke-miterlimit:4;" d="M 419.167969 370.667969 L 419.167969 363.917969 L 425.917969 363.917969 L 425.917969 370.667969 L 419.167969 370.667969 Z M 419.167969 370.667969 " transform="matrix(1,0,0,-1,0,810)"/>
<path style="fill-rule:nonzero;fill:rgb(100%,100%,100%);fill-opacity:1;stroke-width:1.5;stroke-linecap:butt;stroke-linejoin:miter;stroke:rgb(13.730068%,12.159915%,12.54902%);stroke-opacity:1;stroke-miterlimit:4;" d="M 425.917969 370.667969 L 425.917969 363.917969 L 432.667969 363.917969 L 432.667969 370.667969 L 425.917969 370.667969 Z M 425.917969 370.667969 " transform="matrix(1,0,0,-1,0,810)"/>
<path style="fill-rule:nonzero;fill:rgb(100%,100%,100%);fill-opacity:1;stroke-width:1.5;stroke-linecap:butt;stroke-linejoin:miter;stroke:rgb(13.730068%,12.159915%,12.54902%);stroke-opacity:1;stroke-miterlimit:4;" d="M 432.667969 370.667969 L 432.667969 363.917969 L 439.417969 363.917969 L 439.417969 370.667969 L 432.667969 370.667969 Z M 432.667969 370.667969 " transform="matrix(1,0,0,-1,0,810)"/>
<path style="fill-rule:nonzero;fill:rgb(100%,100%,100%);fill-opacity:1;stroke-width:1.5;stroke-linecap:butt;stroke-linejoin:miter;stroke:rgb(13.730068%,12.159915%,12.54902%);stroke-opacity:1;stroke-miterlimit:4;" d="M 419.167969 363.917969 L 419.167969 357.167969 L 425.917969 357.167969 L 425.917969 363.917969 L 419.167969 363.917969 Z M 419.167969 363.917969 " transform="matrix(1,0,0,-1,0,810)"/>
<path style="fill-rule:nonzero;fill:rgb(100%,100%,100%);fill-opacity:1;stroke-width:1.5;stroke-linecap:butt;stroke-linejoin:miter;stroke:rgb(13.730068%,12.159915%,12.54902%);stroke-opacity:1;stroke-miterlimit:4;" d="M 425.917969 363.917969 L 425.917969 357.167969 L 432.667969 357.167969 L 432.667969 363.917969 L 425.917969 363.917969 Z M 425.917969 363.917969 " transform="matrix(1,0,0,-1,0,810)"/>
<path style="fill-rule:nonzero;fill:rgb(100%,100%,100%);fill-opacity:1;stroke-width:1.5;stroke-linecap:butt;stroke-linejoin:miter;stroke:rgb(13.730068%,12.159915%,12.54902%);stroke-opacity:1;stroke-miterlimit:4;" d="M 432.667969 363.917969 L 432.667969 357.167969 L 439.417969 357.167969 L 439.417969 363.917969 L 432.667969 363.917969 Z M 432.667969 363.917969 " transform="matrix(1,0,0,-1,0,810)"/>

</svg>