<svg xmlns="http://www.w3.org/2000/svg" xmlns:xlink="http://www.w3.org/1999/xlink" width="612pt" height="792pt" viewBox="0 0 612 792" version="1.1">

<!-- Comm Disruptor -->
<path style="fill-rule:nonzero;fill:rgb(100%,100%,100%);fill-opacity:1;stroke-width:0.75;stroke-linecap:butt;stroke-linejoin:miter;stroke:rgb(13.730068%,12.159915%,12.54902%);stroke-opacity:1;stroke-miterlimit:4;" d="M 295.25 555.75 L 295.25 578.25 L 304.25 578.25 L 306.5 591.75 L 308.75 578.25 L 311 578.25 L 313.25 591.75 L 315.5 578.25 L 324.5 578.25 L 324.5 555.75 L 295.25 555.75 Z M 295.25 555.75 " transform="matrix(1,0,0,-1,0,793)"/>
<path style="fill-rule:nonzero;fill:rgb(100%,100%,100%);fill-opacity:1;stroke-width:0.75;stroke-linecap:butt;stroke-linejoin:miter;stroke:rgb(13.730068%,12.159915%,12.54902%);stroke-opacity:1;stroke-miterlimit:4;" d="M 298.167969 583.25 C 298.167969 583.25 300.917969 577.75 309.917969 577.75 C 317.917969 577.75 320.667969 583.25 320.667969 583.25 C 320.667969 583.25 316.667969 580 309.917969 580 C 303.167969 580 298.167969 583.25 298.167969 583.25 Z M 298.167969 583.25 " transform="matrix(1,0,0,-1,0,793)"/>
<path style="fill-rule:nonzero;fill:rgb(100%,100%,100%);fill-opacity:1;stroke-width:0.75;stroke-linecap:butt;stroke-linejoin:miter;stroke:rgb(13.730068%,12.159915%,12.54902%);stroke-opacity:1;stroke-miterlimit:4;" d="M 298.167969 585.582031 C 298.167969 585.582031 300.917969 580.082031 309.917969 580.082031 C 317.917969 580.082031 320.667969 585.582031 320.667969 585.582031 C 320.667969 585.582031 316.667969 582.332031 309.917969 582.332031 C 303.167969 582.332031 298.167969 585.582031 298.167969 585.582031 Z M 298.167969 585.582031 " transform="matrix(1,0,0,-1,0,793)"/>

<!-- Damage Boxes -->
<path style="fill-rule:nonzero;fill:rgb(100%,100%,100%);fill-opacity:1;stroke-width:1.5;stroke-linecap:butt;stroke-linejoin:miter;stroke:rgb(13.730068%,12.159915%,12.54902%);stroke-opacity:1;stroke-miterlimit:4;" d="M 306.5 567 L 306.5 573.75 L 299.75 573.75 L 299.75 567 L 306.5 567 Z M 306.5 567 " transform="matrix(1,0,0,-1,0,793)"/>
<path style="fill-rule:nonzero;fill:rgb(100%,100%,100%);fill-opacity:1;stroke-width:1.5;stroke-linecap:butt;stroke-linejoin:miter;stroke:rgb(13.730068%,12.159915%,12.54902%);stroke-opacity:1;stroke-miterlimit:4;" d="M 313.25 567 L 313.25 573.75 L 306.5 573.75 L 306.5 567 L 313.25 567 Z M 313.25 567 " transform="matrix(1,0,0,-1,0,793)"/>
<path style="fill-rule:nonzero;fill:rgb(100%,100%,100%);fill-opacity:1;stroke-width:1.5;stroke-linecap:butt;stroke-linejoin:miter;stroke:rgb(13.730068%,12.159915%,12.54902%);stroke-opacity:1;stroke-miterlimit:4;" d="M 320 567 L 320 573.75 L 313.25 573.75 L 313.25 567 L 320 567 Z M 320 567 " transform="matrix(1,0,0,-1,0,793)"/>
<path style="fill-rule:nonzero;fill:rgb(100%,100%,100%);fill-opacity:1;stroke-width:1.5;stroke-linecap:butt;stroke-linejoin:miter;stroke:rgb(13.730068%,12.159915%,12.54902%);stroke-opacity:1;stroke-miterlimit:4;" d="M 306.5 560.25 L 306.5 567 L 299.75 567 L 299.75 560.25 L 306.5 560.25 Z M 306.5 560.25 " transform="matrix(1,0,0,-1,0,793)"/>
<path style="fill-rule:nonzero;fill:rgb(100%,100%,100%);fill-opacity:1;stroke-width:1.5;stroke-linecap:butt;stroke-linejoin:miter;stroke:rgb(13.730068%,12.159915%,12.54902%);stroke-opacity:1;stroke-miterlimit:4;" d="M 313.25 560.25 L 313.25 567 L 306.5 567 L 306.5 560.25 L 313.25 560.25 Z M 313.25 560.25 " transform="matrix(1,0,0,-1,0,793)"/>
<path style="fill-rule:nonzero;fill:rgb(100%,100%,100%);fill-opacity:1;stroke-width:1.5;stroke-linecap:butt;stroke-linejoin:miter;stroke:rgb(13.730068%,12.159915%,12.54902%);stroke-opacity:1;stroke-miterlimit:4;" d="M 320 560.25 L 320 567 L 313.25 567 L 313.25 560.25 L 320 560.25 Z M 320 560.25 " transform="matrix(1,0,0,-1,0,793)"/>

</svg>