<svg xmlns="http://www.w3.org/2000/svg" xmlns:xlink="http://www.w3.org/1999/xlink" width="612pt" height="792pt" viewBox="0 0 612 792" version="1.1">

<!-- Computer (28) -->
<path style="fill-rule:nonzero;fill:rgb(100%,100%,100%);fill-opacity:1;stroke-width:0.75;stroke-linecap:butt;stroke-linejoin:miter;stroke:rgb(13.730068%,12.159915%,12.54902%);stroke-opacity:1;stroke-miterlimit:4;" d="M 305.0625 378.75 C 305.0625 378.75 286.3125 378.75 284.0625 378.75 C 279.480469 378.75 279.8125 416.960938 284.0625 417 C 288.3125 417.039062 334.5625 417.042969 336.8125 417 C 341.144531 416.917969 340.980469 378.75 336.8125 378.75 C 334.5625 378.75 315.8125 378.75 315.8125 378.75 L 315.8125 376.5 L 339.0625 376.5 L 339.0625 372 L 281.8125 372 L 281.8125 376.5 L 305.0625 376.5 L 305.0625 378.75 Z M 305.0625 378.75 " transform="matrix(1,0,0,-1,0,792)"/>

<!-- Annotation -->
<path style="opacity:0.5;fill:#ffffff;fill-opacity:1;fill-rule:nonzero;stroke:#ff1e1e;stroke-width:1.5;stroke-linecap:butt;stroke-linejoin:miter;stroke-miterlimit:4;stroke-opacity:1" d="m 313.79873,418.93379 0,-6.75 -6.75,0 0,6.75 6.75,0 z m 0,0"/>
     
<!-- Damage Boxes -->
<path style="fill-rule:nonzero;fill:rgb(100%,100%,100%);fill-opacity:1;stroke-width:1.5;stroke-linecap:butt;stroke-linejoin:miter;stroke:rgb(13.730068%,12.159915%,12.54902%);stroke-opacity:1;stroke-miterlimit:4;" d="M 293.3125 411.875 L 293.3125 418.625 L 286.5625 418.625 L 286.5625 411.875 L 293.3125 411.875 Z M 293.3125 411.875 " transform="matrix(1,0,0,-1,0.000000000000056843,796)"/>
<path style="fill-rule:nonzero;fill:rgb(100%,100%,100%);fill-opacity:1;stroke-width:1.5;stroke-linecap:butt;stroke-linejoin:miter;stroke:rgb(13.730068%,12.159915%,12.54902%);stroke-opacity:1;stroke-miterlimit:4;" d="M 300.3125 411.875 L 300.3125 418.625 L 293.5625 418.625 L 293.5625 411.875 L 300.3125 411.875 Z M 300.3125 411.875 " transform="matrix(1,0,0,-1,0.000000000000056843,796)"/>
<path style="fill-rule:nonzero;fill:rgb(100%,100%,100%);fill-opacity:1;stroke-width:1.5;stroke-linecap:butt;stroke-linejoin:miter;stroke:rgb(13.730068%,12.159915%,12.54902%);stroke-opacity:1;stroke-miterlimit:4;" d="M 307.0625 411.875 L 307.0625 418.625 L 300.3125 418.625 L 300.3125 411.875 L 307.0625 411.875 Z M 307.0625 411.875 " transform="matrix(1,0,0,-1,0.000000000000056843,796)"/>
<path style="fill-rule:nonzero;fill:rgb(100%,100%,100%);fill-opacity:1;stroke-width:1.5;stroke-linecap:butt;stroke-linejoin:miter;stroke:rgb(13.730068%,12.159915%,12.54902%);stroke-opacity:1;stroke-miterlimit:4;" d="M 313.8125 411.875 L 313.8125 418.625 L 307.0625 418.625 L 307.0625 411.875 L 313.8125 411.875 Z M 313.8125 411.875 " transform="matrix(1,0,0,-1,0.000000000000056843,796)"/>
<path style="fill-rule:nonzero;fill:rgb(100%,100%,100%);fill-opacity:1;stroke-width:1.5;stroke-linecap:butt;stroke-linejoin:miter;stroke:rgb(13.730068%,12.159915%,12.54902%);stroke-opacity:1;stroke-miterlimit:4;" d="M 320.5625 411.875 L 320.5625 418.625 L 313.8125 418.625 L 313.8125 411.875 L 320.5625 411.875 Z M 320.5625 411.875 " transform="matrix(1,0,0,-1,0.000000000000056843,796)"/>
<path style="fill-rule:nonzero;fill:rgb(100%,100%,100%);fill-opacity:1;stroke-width:1.5;stroke-linecap:butt;stroke-linejoin:miter;stroke:rgb(13.730068%,12.159915%,12.54902%);stroke-opacity:1;stroke-miterlimit:4;" d="M 327.3125 411.875 L 327.3125 418.625 L 320.5625 418.625 L 320.5625 411.875 L 327.3125 411.875 Z M 327.3125 411.875 " transform="matrix(1,0,0,-1,0.000000000000056843,796)"/>
<path style="fill-rule:nonzero;fill:rgb(100%,100%,100%);fill-opacity:1;stroke-width:1.5;stroke-linecap:butt;stroke-linejoin:miter;stroke:rgb(13.730068%,12.159915%,12.54902%);stroke-opacity:1;stroke-miterlimit:4;" d="M 333.8125 411.875 L 333.8125 418.625 L 327.0625 418.625 L 327.0625 411.875 L 333.8125 411.875 Z M 333.8125 411.875 " transform="matrix(1,0,0,-1,0.000000000000056843,796)"/>
<path style="fill-rule:nonzero;fill:rgb(100%,100%,100%);fill-opacity:1;stroke-width:1.5;stroke-linecap:butt;stroke-linejoin:miter;stroke:rgb(13.730068%,12.159915%,12.54902%);stroke-opacity:1;stroke-miterlimit:4;" d="M 293.3125 402.875 L 293.3125 409.625 L 286.5625 409.625 L 286.5625 402.875 L 293.3125 402.875 Z M 293.3125 402.875 " transform="matrix(1,0,0,-1,0.000000000000056843,796)"/>
<path style="fill-rule:nonzero;fill:rgb(100%,100%,100%);fill-opacity:1;stroke-width:1.5;stroke-linecap:butt;stroke-linejoin:miter;stroke:rgb(13.730068%,12.159915%,12.54902%);stroke-opacity:1;stroke-miterlimit:4;" d="M 300.3125 402.875 L 300.3125 409.625 L 293.5625 409.625 L 293.5625 402.875 L 300.3125 402.875 Z M 300.3125 402.875 " transform="matrix(1,0,0,-1,0.000000000000056843,796)"/>
<path style="fill-rule:nonzero;fill:rgb(100%,100%,100%);fill-opacity:1;stroke-width:1.5;stroke-linecap:butt;stroke-linejoin:miter;stroke:rgb(13.730068%,12.159915%,12.54902%);stroke-opacity:1;stroke-miterlimit:4;" d="M 307.0625 402.875 L 307.0625 409.625 L 300.3125 409.625 L 300.3125 402.875 L 307.0625 402.875 Z M 307.0625 402.875 " transform="matrix(1,0,0,-1,0.000000000000056843,796)"/>
<path style="fill-rule:nonzero;fill:rgb(100%,100%,100%);fill-opacity:1;stroke-width:1.5;stroke-linecap:butt;stroke-linejoin:miter;stroke:rgb(13.730068%,12.159915%,12.54902%);stroke-opacity:1;stroke-miterlimit:4;" d="M 313.8125 402.875 L 313.8125 409.625 L 307.0625 409.625 L 307.0625 402.875 L 313.8125 402.875 Z M 313.8125 402.875 " transform="matrix(1,0,0,-1,0.000000000000056843,796)"/>
<path style="fill-rule:nonzero;fill:rgb(100%,100%,100%);fill-opacity:1;stroke-width:1.5;stroke-linecap:butt;stroke-linejoin:miter;stroke:rgb(13.730068%,12.159915%,12.54902%);stroke-opacity:1;stroke-miterlimit:4;" d="M 320.5625 402.875 L 320.5625 409.625 L 313.8125 409.625 L 313.8125 402.875 L 320.5625 402.875 Z M 320.5625 402.875 " transform="matrix(1,0,0,-1,0.000000000000056843,796)"/>
<path style="fill-rule:nonzero;fill:rgb(100%,100%,100%);fill-opacity:1;stroke-width:1.5;stroke-linecap:butt;stroke-linejoin:miter;stroke:rgb(13.730068%,12.159915%,12.54902%);stroke-opacity:1;stroke-miterlimit:4;" d="M 327.3125 402.875 L 327.3125 409.625 L 320.5625 409.625 L 320.5625 402.875 L 327.3125 402.875 Z M 327.3125 402.875 " transform="matrix(1,0,0,-1,0.000000000000056843,796)"/>
<path style="fill-rule:nonzero;fill:rgb(100%,100%,100%);fill-opacity:1;stroke-width:1.5;stroke-linecap:butt;stroke-linejoin:miter;stroke:rgb(13.730068%,12.159915%,12.54902%);stroke-opacity:1;stroke-miterlimit:4;" d="M 333.8125 402.875 L 333.8125 409.625 L 327.0625 409.625 L 327.0625 402.875 L 333.8125 402.875 Z M 333.8125 402.875 " transform="matrix(1,0,0,-1,0.000000000000056843,796)"/>
<path style="fill-rule:nonzero;fill:rgb(100%,100%,100%);fill-opacity:1;stroke-width:1.5;stroke-linecap:butt;stroke-linejoin:miter;stroke:rgb(13.730068%,12.159915%,12.54902%);stroke-opacity:1;stroke-miterlimit:4;" d="M 293.3125 394 L 293.3125 400.75 L 286.5625 400.75 L 286.5625 394 L 293.3125 394 Z M 293.3125 394 " transform="matrix(1,0,0,-1,0.000000000000056843,796)"/>
<path style="fill-rule:nonzero;fill:rgb(100%,100%,100%);fill-opacity:1;stroke-width:1.5;stroke-linecap:butt;stroke-linejoin:miter;stroke:rgb(13.730068%,12.159915%,12.54902%);stroke-opacity:1;stroke-miterlimit:4;" d="M 300.3125 394 L 300.3125 400.75 L 293.5625 400.75 L 293.5625 394 L 300.3125 394 Z M 300.3125 394 " transform="matrix(1,0,0,-1,0.000000000000056843,796)"/>
<path style="fill-rule:nonzero;fill:rgb(100%,100%,100%);fill-opacity:1;stroke-width:1.5;stroke-linecap:butt;stroke-linejoin:miter;stroke:rgb(13.730068%,12.159915%,12.54902%);stroke-opacity:1;stroke-miterlimit:4;" d="M 307.0625 394 L 307.0625 400.75 L 300.3125 400.75 L 300.3125 394 L 307.0625 394 Z M 307.0625 394 " transform="matrix(1,0,0,-1,0.000000000000056843,796)"/>
<path style="fill-rule:nonzero;fill:rgb(100%,100%,100%);fill-opacity:1;stroke-width:1.5;stroke-linecap:butt;stroke-linejoin:miter;stroke:rgb(13.730068%,12.159915%,12.54902%);stroke-opacity:1;stroke-miterlimit:4;" d="M 313.8125 394 L 313.8125 400.75 L 307.0625 400.75 L 307.0625 394 L 313.8125 394 Z M 313.8125 394 " transform="matrix(1,0,0,-1,0.000000000000056843,796)"/>
<path style="fill-rule:nonzero;fill:rgb(100%,100%,100%);fill-opacity:1;stroke-width:1.5;stroke-linecap:butt;stroke-linejoin:miter;stroke:rgb(13.730068%,12.159915%,12.54902%);stroke-opacity:1;stroke-miterlimit:4;" d="M 320.5625 394 L 320.5625 400.75 L 313.8125 400.75 L 313.8125 394 L 320.5625 394 Z M 320.5625 394 " transform="matrix(1,0,0,-1,0.000000000000056843,796)"/>
<path style="fill-rule:nonzero;fill:rgb(100%,100%,100%);fill-opacity:1;stroke-width:1.5;stroke-linecap:butt;stroke-linejoin:miter;stroke:rgb(13.730068%,12.159915%,12.54902%);stroke-opacity:1;stroke-miterlimit:4;" d="M 327.3125 394 L 327.3125 400.75 L 320.5625 400.75 L 320.5625 394 L 327.3125 394 Z M 327.3125 394 " transform="matrix(1,0,0,-1,0.000000000000056843,796)"/>
<path style="fill-rule:nonzero;fill:rgb(100%,100%,100%);fill-opacity:1;stroke-width:1.5;stroke-linecap:butt;stroke-linejoin:miter;stroke:rgb(13.730068%,12.159915%,12.54902%);stroke-opacity:1;stroke-miterlimit:4;" d="M 333.8125 394 L 333.8125 400.75 L 327.0625 400.75 L 327.0625 394 L 333.8125 394 Z M 333.8125 394 " transform="matrix(1,0,0,-1,0.000000000000056843,796)"/>
<path style="fill-rule:nonzero;fill:rgb(100%,100%,100%);fill-opacity:1;stroke-width:1.5;stroke-linecap:butt;stroke-linejoin:miter;stroke:rgb(13.730068%,12.159915%,12.54902%);stroke-opacity:1;stroke-miterlimit:4;" d="M 293.3125 385.25 L 293.3125 392 L 286.5625 392 L 286.5625 385.25 L 293.3125 385.25 Z M 293.3125 385.25 " transform="matrix(1,0,0,-1,0.000000000000056843,796)"/>
<path style="fill-rule:nonzero;fill:rgb(100%,100%,100%);fill-opacity:1;stroke-width:1.5;stroke-linecap:butt;stroke-linejoin:miter;stroke:rgb(13.730068%,12.159915%,12.54902%);stroke-opacity:1;stroke-miterlimit:4;" d="M 300.3125 385.25 L 300.3125 392 L 293.5625 392 L 293.5625 385.25 L 300.3125 385.25 Z M 300.3125 385.25 " transform="matrix(1,0,0,-1,0.000000000000056843,796)"/>
<path style="fill-rule:nonzero;fill:rgb(100%,100%,100%);fill-opacity:1;stroke-width:1.5;stroke-linecap:butt;stroke-linejoin:miter;stroke:rgb(13.730068%,12.159915%,12.54902%);stroke-opacity:1;stroke-miterlimit:4;" d="M 307.0625 385.25 L 307.0625 392 L 300.3125 392 L 300.3125 385.25 L 307.0625 385.25 Z M 307.0625 385.25 " transform="matrix(1,0,0,-1,0.000000000000056843,796)"/>
<path style="fill-rule:nonzero;fill:rgb(100%,100%,100%);fill-opacity:1;stroke-width:1.5;stroke-linecap:butt;stroke-linejoin:miter;stroke:rgb(13.730068%,12.159915%,12.54902%);stroke-opacity:1;stroke-miterlimit:4;" d="M 313.8125 385.25 L 313.8125 392 L 307.0625 392 L 307.0625 385.25 L 313.8125 385.25 Z M 313.8125 385.25 " transform="matrix(1,0,0,-1,0.000000000000056843,796)"/>
<path style="fill-rule:nonzero;fill:rgb(100%,100%,100%);fill-opacity:1;stroke-width:1.5;stroke-linecap:butt;stroke-linejoin:miter;stroke:rgb(13.730068%,12.159915%,12.54902%);stroke-opacity:1;stroke-miterlimit:4;" d="M 320.5625 385.25 L 320.5625 392 L 313.8125 392 L 313.8125 385.25 L 320.5625 385.25 Z M 320.5625 385.25 " transform="matrix(1,0,0,-1,0.000000000000056843,796)"/>
<path style="fill-rule:nonzero;fill:rgb(100%,100%,100%);fill-opacity:1;stroke-width:1.5;stroke-linecap:butt;stroke-linejoin:miter;stroke:rgb(13.730068%,12.159915%,12.54902%);stroke-opacity:1;stroke-miterlimit:4;" d="M 327.3125 385.25 L 327.3125 392 L 320.5625 392 L 320.5625 385.25 L 327.3125 385.25 Z M 327.3125 385.25 " transform="matrix(1,0,0,-1,0.000000000000056843,796)"/>
<path style="fill-rule:nonzero;fill:rgb(100%,100%,100%);fill-opacity:1;stroke-width:1.5;stroke-linecap:butt;stroke-linejoin:miter;stroke:rgb(13.730068%,12.159915%,12.54902%);stroke-opacity:1;stroke-miterlimit:4;" d="M 333.8125 385.25 L 333.8125 392 L 327.0625 392 L 327.0625 385.25 L 333.8125 385.25 Z M 333.8125 385.25 " transform="matrix(1,0,0,-1,0.000000000000056843,796)"/>

</svg>