<svg xmlns="http://www.w3.org/2000/svg" xmlns:xlink="http://www.w3.org/1999/xlink" width="612pt" height="792pt" viewBox="0 0 612 792" version="1.1">

<!-- Computer (10) -->
<path style="fill-rule:nonzero;fill:rgb(100%,100%,100%);fill-opacity:1;stroke-width:0.75;stroke-linecap:butt;stroke-linejoin:miter;stroke:rgb(13.730068%,12.159915%,12.54902%);stroke-opacity:1;stroke-miterlimit:4;" d="M 376.0625 303.75 C 376.0625 303.75 361.3125 303.75 359.0625 303.75 C 354.476562 303.75 354.8125 325.960938 359.0625 326 C 363.3125 326.039062 399.5625 326.042969 401.8125 326 C 406.144531 325.917969 405.980469 303.75 401.8125 303.75 C 399.5625 303.75 384.8125 303.75 384.8125 303.75 L 384.8125 301.5 L 404.0625 301.5 L 404.0625 297 L 356.8125 297 L 356.8125 301.5 L 376.0625 301.5 L 376.0625 303.75 Z M 376.0625 303.75 " transform="matrix(1,0,0,-1,0,792)"/>

<!-- Annotation -->
<path style="opacity:0.5;fill:#ffffff;fill-opacity:1;fill-rule:nonzero;stroke:#ff1e1e;stroke-width:1.5;stroke-linecap:butt;stroke-linejoin:miter;stroke-miterlimit:4;stroke-opacity:1" d="m 383.80138,493.44598 0,-6.75 -6.75,0 0,6.75 6.75,0 z m 0,0"/>
     
<!-- Damage Boxes -->
<path style="fill-rule:nonzero;fill:rgb(100%,100%,100%);fill-opacity:1;stroke-width:1.5;stroke-linecap:butt;stroke-linejoin:miter;stroke:rgb(13.730068%,12.159915%,12.54902%);stroke-opacity:1;stroke-miterlimit:4;" d="M 370.3125 316 L 370.3125 322.75 L 363.5625 322.75 L 363.5625 316 L 370.3125 316 Z M 370.3125 316 " transform="matrix(1,0,0,-1,0,792)"/>
<path style="fill-rule:nonzero;fill:rgb(100%,100%,100%);fill-opacity:1;stroke-width:1.5;stroke-linecap:butt;stroke-linejoin:miter;stroke:rgb(13.730068%,12.159915%,12.54902%);stroke-opacity:1;stroke-miterlimit:4;" d="M 377.0625 316 L 377.0625 322.75 L 370.3125 322.75 L 370.3125 316 L 377.0625 316 Z M 377.0625 316 " transform="matrix(1,0,0,-1,0,792)"/>
<path style="fill-rule:nonzero;fill:rgb(100%,100%,100%);fill-opacity:1;stroke-width:1.5;stroke-linecap:butt;stroke-linejoin:miter;stroke:rgb(13.730068%,12.159915%,12.54902%);stroke-opacity:1;stroke-miterlimit:4;" d="M 383.8125 316 L 383.8125 322.75 L 377.0625 322.75 L 377.0625 316 L 383.8125 316 Z M 383.8125 316 " transform="matrix(1,0,0,-1,0,792)"/>
<path style="fill-rule:nonzero;fill:rgb(100%,100%,100%);fill-opacity:1;stroke-width:1.5;stroke-linecap:butt;stroke-linejoin:miter;stroke:rgb(13.730068%,12.159915%,12.54902%);stroke-opacity:1;stroke-miterlimit:4;" d="M 390.5625 316 L 390.5625 322.75 L 383.8125 322.75 L 383.8125 316 L 390.5625 316 Z M 390.5625 316 " transform="matrix(1,0,0,-1,0,792)"/>
<path style="fill-rule:nonzero;fill:rgb(100%,100%,100%);fill-opacity:1;stroke-width:1.5;stroke-linecap:butt;stroke-linejoin:miter;stroke:rgb(13.730068%,12.159915%,12.54902%);stroke-opacity:1;stroke-miterlimit:4;" d="M 397.3125 316 L 397.3125 322.75 L 390.5625 322.75 L 390.5625 316 L 397.3125 316 Z M 397.3125 316 " transform="matrix(1,0,0,-1,0,792)"/>
<path style="fill-rule:nonzero;fill:rgb(100%,100%,100%);fill-opacity:1;stroke-width:1.5;stroke-linecap:butt;stroke-linejoin:miter;stroke:rgb(13.730068%,12.159915%,12.54902%);stroke-opacity:1;stroke-miterlimit:4;" d="M 370.3125 307.25 L 370.3125 314 L 363.5625 314 L 363.5625 307.25 L 370.3125 307.25 Z M 370.3125 307.25 " transform="matrix(1,0,0,-1,0,792)"/>
<path style="fill-rule:nonzero;fill:rgb(100%,100%,100%);fill-opacity:1;stroke-width:1.5;stroke-linecap:butt;stroke-linejoin:miter;stroke:rgb(13.730068%,12.159915%,12.54902%);stroke-opacity:1;stroke-miterlimit:4;" d="M 377.0625 307.25 L 377.0625 314 L 370.3125 314 L 370.3125 307.25 L 377.0625 307.25 Z M 377.0625 307.25 " transform="matrix(1,0,0,-1,0,792)"/>
<path style="fill-rule:nonzero;fill:rgb(100%,100%,100%);fill-opacity:1;stroke-width:1.5;stroke-linecap:butt;stroke-linejoin:miter;stroke:rgb(13.730068%,12.159915%,12.54902%);stroke-opacity:1;stroke-miterlimit:4;" d="M 383.8125 307.25 L 383.8125 314 L 377.0625 314 L 377.0625 307.25 L 383.8125 307.25 Z M 383.8125 307.25 " transform="matrix(1,0,0,-1,0,792)"/>
<path style="fill-rule:nonzero;fill:rgb(100%,100%,100%);fill-opacity:1;stroke-width:1.5;stroke-linecap:butt;stroke-linejoin:miter;stroke:rgb(13.730068%,12.159915%,12.54902%);stroke-opacity:1;stroke-miterlimit:4;" d="M 390.5625 307.25 L 390.5625 314 L 383.8125 314 L 383.8125 307.25 L 390.5625 307.25 Z M 390.5625 307.25 " transform="matrix(1,0,0,-1,0,792)"/>
<path style="fill-rule:nonzero;fill:rgb(100%,100%,100%);fill-opacity:1;stroke-width:1.5;stroke-linecap:butt;stroke-linejoin:miter;stroke:rgb(13.730068%,12.159915%,12.54902%);stroke-opacity:1;stroke-miterlimit:4;" d="M 397.3125 307.25 L 397.3125 314 L 390.5625 314 L 390.5625 307.25 L 397.3125 307.25 Z M 397.3125 307.25 " transform="matrix(1,0,0,-1,0,792)"/>

</svg>