<svg xmlns="http://www.w3.org/2000/svg" xmlns:xlink="http://www.w3.org/1999/xlink" width="612pt" height="792pt" viewBox="0 0 612 792" version="1.1">

<!-- Computer (20) -->
<path style="fill-rule:nonzero;fill:rgb(100%,100%,100%);fill-opacity:1;stroke-width:0.75;stroke-linecap:butt;stroke-linejoin:miter;stroke:rgb(13.730068%,12.159915%,12.54902%);stroke-opacity:1;stroke-miterlimit:4;" d="M 306.0625 300.417969 C 306.0625 300.417969 291.3125 300.417969 289.0625 300.417969 C 284.480469 300.417969 284.8125 339.628906 289.0625 339.667969 C 293.3125 339.707031 329.5625 339.710938 331.8125 339.667969 C 336.144531 339.585938 335.980469 300.417969 331.8125 300.417969 C 329.5625 300.417969 314.8125 300.417969 314.8125 300.417969 L 314.8125 298.167969 L 334.0625 298.167969 L 334.0625 293.667969 L 286.8125 293.667969 L 286.8125 298.167969 L 306.0625 298.167969 L 306.0625 300.417969 Z M 306.0625 300.417969 " transform="matrix(1,0,0,-1,0,804)"/>

<!-- Annotation -->
<path style="opacity:0.5;fill:#ffffff;fill-opacity:1;fill-rule:nonzero;stroke:#ff1e1e;stroke-width:1.5;stroke-linecap:butt;stroke-linejoin:miter;stroke-miterlimit:4;stroke-opacity:1" d="m 313.7971,509.08814 0,-6.75 -6.75,0 0,6.75 6.75,0 z m 0,0"/>
     
<!-- Damage Boxes -->
<path style="fill-rule:nonzero;fill:rgb(100%,100%,100%);fill-opacity:1;stroke-width:1.5;stroke-linecap:butt;stroke-linejoin:miter;stroke:rgb(13.730068%,12.159915%,12.54902%);stroke-opacity:1;stroke-miterlimit:4;" d="M 300.3125 329.875 L 300.3125 336.625 L 293.5625 336.625 L 293.5625 329.875 L 300.3125 329.875 Z M 300.3125 329.875 " transform="matrix(1,0,0,-1,0,804)"/>
<path style="fill-rule:nonzero;fill:rgb(100%,100%,100%);fill-opacity:1;stroke-width:1.5;stroke-linecap:butt;stroke-linejoin:miter;stroke:rgb(13.730068%,12.159915%,12.54902%);stroke-opacity:1;stroke-miterlimit:4;" d="M 307.0625 329.875 L 307.0625 336.625 L 300.3125 336.625 L 300.3125 329.875 L 307.0625 329.875 Z M 307.0625 329.875 " transform="matrix(1,0,0,-1,0,804)"/>
<path style="fill-rule:nonzero;fill:rgb(100%,100%,100%);fill-opacity:1;stroke-width:1.5;stroke-linecap:butt;stroke-linejoin:miter;stroke:rgb(13.730068%,12.159915%,12.54902%);stroke-opacity:1;stroke-miterlimit:4;" d="M 313.8125 329.875 L 313.8125 336.625 L 307.0625 336.625 L 307.0625 329.875 L 313.8125 329.875 Z M 313.8125 329.875 " transform="matrix(1,0,0,-1,0,804)"/>
<path style="fill-rule:nonzero;fill:rgb(100%,100%,100%);fill-opacity:1;stroke-width:1.5;stroke-linecap:butt;stroke-linejoin:miter;stroke:rgb(13.730068%,12.159915%,12.54902%);stroke-opacity:1;stroke-miterlimit:4;" d="M 320.5625 329.875 L 320.5625 336.625 L 313.8125 336.625 L 313.8125 329.875 L 320.5625 329.875 Z M 320.5625 329.875 " transform="matrix(1,0,0,-1,0,804)"/>
<path style="fill-rule:nonzero;fill:rgb(100%,100%,100%);fill-opacity:1;stroke-width:1.5;stroke-linecap:butt;stroke-linejoin:miter;stroke:rgb(13.730068%,12.159915%,12.54902%);stroke-opacity:1;stroke-miterlimit:4;" d="M 327.3125 329.875 L 327.3125 336.625 L 320.5625 336.625 L 320.5625 329.875 L 327.3125 329.875 Z M 327.3125 329.875 " transform="matrix(1,0,0,-1,0,804)"/>
<path style="fill-rule:nonzero;fill:rgb(100%,100%,100%);fill-opacity:1;stroke-width:1.5;stroke-linecap:butt;stroke-linejoin:miter;stroke:rgb(13.730068%,12.159915%,12.54902%);stroke-opacity:1;stroke-miterlimit:4;" d="M 300.3125 320.875 L 300.3125 327.625 L 293.5625 327.625 L 293.5625 320.875 L 300.3125 320.875 Z M 300.3125 320.875 " transform="matrix(1,0,0,-1,0,804)"/>
<path style="fill-rule:nonzero;fill:rgb(100%,100%,100%);fill-opacity:1;stroke-width:1.5;stroke-linecap:butt;stroke-linejoin:miter;stroke:rgb(13.730068%,12.159915%,12.54902%);stroke-opacity:1;stroke-miterlimit:4;" d="M 307.0625 320.875 L 307.0625 327.625 L 300.3125 327.625 L 300.3125 320.875 L 307.0625 320.875 Z M 307.0625 320.875 " transform="matrix(1,0,0,-1,0,804)"/>
<path style="fill-rule:nonzero;fill:rgb(100%,100%,100%);fill-opacity:1;stroke-width:1.5;stroke-linecap:butt;stroke-linejoin:miter;stroke:rgb(13.730068%,12.159915%,12.54902%);stroke-opacity:1;stroke-miterlimit:4;" d="M 313.8125 320.875 L 313.8125 327.625 L 307.0625 327.625 L 307.0625 320.875 L 313.8125 320.875 Z M 313.8125 320.875 " transform="matrix(1,0,0,-1,0,804)"/>
<path style="fill-rule:nonzero;fill:rgb(100%,100%,100%);fill-opacity:1;stroke-width:1.5;stroke-linecap:butt;stroke-linejoin:miter;stroke:rgb(13.730068%,12.159915%,12.54902%);stroke-opacity:1;stroke-miterlimit:4;" d="M 320.5625 320.875 L 320.5625 327.625 L 313.8125 327.625 L 313.8125 320.875 L 320.5625 320.875 Z M 320.5625 320.875 " transform="matrix(1,0,0,-1,0,804)"/>
<path style="fill-rule:nonzero;fill:rgb(100%,100%,100%);fill-opacity:1;stroke-width:1.5;stroke-linecap:butt;stroke-linejoin:miter;stroke:rgb(13.730068%,12.159915%,12.54902%);stroke-opacity:1;stroke-miterlimit:4;" d="M 327.3125 320.875 L 327.3125 327.625 L 320.5625 327.625 L 320.5625 320.875 L 327.3125 320.875 Z M 327.3125 320.875 " transform="matrix(1,0,0,-1,0,804)"/>
<path style="fill-rule:nonzero;fill:rgb(100%,100%,100%);fill-opacity:1;stroke-width:1.5;stroke-linecap:butt;stroke-linejoin:miter;stroke:rgb(13.730068%,12.159915%,12.54902%);stroke-opacity:1;stroke-miterlimit:4;" d="M 300.3125 312 L 300.3125 318.75 L 293.5625 318.75 L 293.5625 312 L 300.3125 312 Z M 300.3125 312 " transform="matrix(1,0,0,-1,0,804)"/>
<path style="fill-rule:nonzero;fill:rgb(100%,100%,100%);fill-opacity:1;stroke-width:1.5;stroke-linecap:butt;stroke-linejoin:miter;stroke:rgb(13.730068%,12.159915%,12.54902%);stroke-opacity:1;stroke-miterlimit:4;" d="M 307.0625 312 L 307.0625 318.75 L 300.3125 318.75 L 300.3125 312 L 307.0625 312 Z M 307.0625 312 " transform="matrix(1,0,0,-1,0,804)"/>
<path style="fill-rule:nonzero;fill:rgb(100%,100%,100%);fill-opacity:1;stroke-width:1.5;stroke-linecap:butt;stroke-linejoin:miter;stroke:rgb(13.730068%,12.159915%,12.54902%);stroke-opacity:1;stroke-miterlimit:4;" d="M 313.8125 312 L 313.8125 318.75 L 307.0625 318.75 L 307.0625 312 L 313.8125 312 Z M 313.8125 312 " transform="matrix(1,0,0,-1,0,804)"/>
<path style="fill-rule:nonzero;fill:rgb(100%,100%,100%);fill-opacity:1;stroke-width:1.5;stroke-linecap:butt;stroke-linejoin:miter;stroke:rgb(13.730068%,12.159915%,12.54902%);stroke-opacity:1;stroke-miterlimit:4;" d="M 320.5625 312 L 320.5625 318.75 L 313.8125 318.75 L 313.8125 312 L 320.5625 312 Z M 320.5625 312 " transform="matrix(1,0,0,-1,0,804)"/>
<path style="fill-rule:nonzero;fill:rgb(100%,100%,100%);fill-opacity:1;stroke-width:1.5;stroke-linecap:butt;stroke-linejoin:miter;stroke:rgb(13.730068%,12.159915%,12.54902%);stroke-opacity:1;stroke-miterlimit:4;" d="M 327.3125 312 L 327.3125 318.75 L 320.5625 318.75 L 320.5625 312 L 327.3125 312 Z M 327.3125 312 " transform="matrix(1,0,0,-1,0,804)"/>
<path style="fill-rule:nonzero;fill:rgb(100%,100%,100%);fill-opacity:1;stroke-width:1.5;stroke-linecap:butt;stroke-linejoin:miter;stroke:rgb(13.730068%,12.159915%,12.54902%);stroke-opacity:1;stroke-miterlimit:4;" d="M 300.3125 303.25 L 300.3125 310 L 293.5625 310 L 293.5625 303.25 L 300.3125 303.25 Z M 300.3125 303.25 " transform="matrix(1,0,0,-1,0,804)"/>
<path style="fill-rule:nonzero;fill:rgb(100%,100%,100%);fill-opacity:1;stroke-width:1.5;stroke-linecap:butt;stroke-linejoin:miter;stroke:rgb(13.730068%,12.159915%,12.54902%);stroke-opacity:1;stroke-miterlimit:4;" d="M 307.0625 303.25 L 307.0625 310 L 300.3125 310 L 300.3125 303.25 L 307.0625 303.25 Z M 307.0625 303.25 " transform="matrix(1,0,0,-1,0,804)"/>
<path style="fill-rule:nonzero;fill:rgb(100%,100%,100%);fill-opacity:1;stroke-width:1.5;stroke-linecap:butt;stroke-linejoin:miter;stroke:rgb(13.730068%,12.159915%,12.54902%);stroke-opacity:1;stroke-miterlimit:4;" d="M 313.8125 303.25 L 313.8125 310 L 307.0625 310 L 307.0625 303.25 L 313.8125 303.25 Z M 313.8125 303.25 " transform="matrix(1,0,0,-1,0,804)"/>
<path style="fill-rule:nonzero;fill:rgb(100%,100%,100%);fill-opacity:1;stroke-width:1.5;stroke-linecap:butt;stroke-linejoin:miter;stroke:rgb(13.730068%,12.159915%,12.54902%);stroke-opacity:1;stroke-miterlimit:4;" d="M 320.5625 303.25 L 320.5625 310 L 313.8125 310 L 313.8125 303.25 L 320.5625 303.25 Z M 320.5625 303.25 " transform="matrix(1,0,0,-1,0,804)"/>
<path style="fill-rule:nonzero;fill:rgb(100%,100%,100%);fill-opacity:1;stroke-width:1.5;stroke-linecap:butt;stroke-linejoin:miter;stroke:rgb(13.730068%,12.159915%,12.54902%);stroke-opacity:1;stroke-miterlimit:4;" d="M 327.3125 303.25 L 327.3125 310 L 320.5625 310 L 320.5625 303.25 L 327.3125 303.25 Z M 327.3125 303.25 " transform="matrix(1,0,0,-1,0,804)"/>

</svg>