<svg xmlns="http://www.w3.org/2000/svg" xmlns:xlink="http://www.w3.org/1999/xlink" width="612pt" height="792pt" viewBox="0 0 612 792" version="1.1">

<!-- Computer (8) -->
<path style="fill-rule:nonzero;fill:rgb(100%,100%,100%);fill-opacity:1;stroke-width:0.75;stroke-linecap:butt;stroke-linejoin:miter;stroke:rgb(13.730068%,12.159915%,12.54902%);stroke-opacity:1;stroke-miterlimit:4;" d="M 359.0625 173.75 C 359.0625 173.75 347.3125 173.75 345.0625 173.75 C 340.480469 173.75 340.8125 195.960938 345.0625 196 C 349.3125 196.039062 381.5625 196.042969 383.8125 196 C 388.144531 195.917969 387.980469 173.75 383.8125 173.75 C 381.5625 173.75 369.8125 173.75 369.8125 173.75 L 369.8125 171.5 L 386.0625 171.5 L 386.0625 167 L 342.8125 167 L 342.8125 171.5 L 359.0625 171.5 L 359.0625 173.75 Z M 359.0625 173.75 " transform="matrix(1,0,0,-1,0,792)"/>

<!-- Annotation -->
<path style="opacity:0.5;fill:#ffffff;fill-opacity:1;fill-rule:nonzero;stroke:#ff1e1e;stroke-width:1.5;stroke-linecap:butt;stroke-linejoin:miter;stroke-miterlimit:4;stroke-opacity:1" d="m 367.80826,623.6981 0,-6.75 -6.75,0 0,6.75 6.75,0 z m 0,0"/>
     
<!-- Damage Boxes -->
<path style="fill-rule:nonzero;fill:rgb(100%,100%,100%);fill-opacity:1;stroke-width:1.5;stroke-linecap:butt;stroke-linejoin:miter;stroke:rgb(13.730068%,12.159915%,12.54902%);stroke-opacity:1;stroke-miterlimit:4;" d="M 357.6875 186.5 L 357.6875 193.25 L 350.9375 193.25 L 350.9375 186.5 L 357.6875 186.5 Z M 357.6875 186.5 " transform="matrix(1,0,0,-1,0,792)"/>
<path style="fill-rule:nonzero;fill:rgb(100%,100%,100%);fill-opacity:1;stroke-width:1.5;stroke-linecap:butt;stroke-linejoin:miter;stroke:rgb(13.730068%,12.159915%,12.54902%);stroke-opacity:1;stroke-miterlimit:4;" d="M 364.4375 186.5 L 364.4375 193.25 L 357.6875 193.25 L 357.6875 186.5 L 364.4375 186.5 Z M 364.4375 186.5 " transform="matrix(1,0,0,-1,0,792)"/>
<path style="fill-rule:nonzero;fill:rgb(100%,100%,100%);fill-opacity:1;stroke-width:1.5;stroke-linecap:butt;stroke-linejoin:miter;stroke:rgb(13.730068%,12.159915%,12.54902%);stroke-opacity:1;stroke-miterlimit:4;" d="M 371.1875 186.5 L 371.1875 193.25 L 364.4375 193.25 L 364.4375 186.5 L 371.1875 186.5 Z M 371.1875 186.5 " transform="matrix(1,0,0,-1,0,792)"/>
<path style="fill-rule:nonzero;fill:rgb(100%,100%,100%);fill-opacity:1;stroke-width:1.5;stroke-linecap:butt;stroke-linejoin:miter;stroke:rgb(13.730068%,12.159915%,12.54902%);stroke-opacity:1;stroke-miterlimit:4;" d="M 377.9375 186.5 L 377.9375 193.25 L 371.1875 193.25 L 371.1875 186.5 L 377.9375 186.5 Z M 377.9375 186.5 " transform="matrix(1,0,0,-1,0,792)"/>
<path style="fill-rule:nonzero;fill:rgb(100%,100%,100%);fill-opacity:1;stroke-width:1.5;stroke-linecap:butt;stroke-linejoin:miter;stroke:rgb(13.730068%,12.159915%,12.54902%);stroke-opacity:1;stroke-miterlimit:4;" d="M 357.6875 176.75 L 357.6875 183.5 L 350.9375 183.5 L 350.9375 176.75 L 357.6875 176.75 Z M 357.6875 176.75 " transform="matrix(1,0,0,-1,0,792)"/>
<path style="fill-rule:nonzero;fill:rgb(100%,100%,100%);fill-opacity:1;stroke-width:1.5;stroke-linecap:butt;stroke-linejoin:miter;stroke:rgb(13.730068%,12.159915%,12.54902%);stroke-opacity:1;stroke-miterlimit:4;" d="M 364.4375 176.75 L 364.4375 183.5 L 357.6875 183.5 L 357.6875 176.75 L 364.4375 176.75 Z M 364.4375 176.75 " transform="matrix(1,0,0,-1,0,792)"/>
<path style="fill-rule:nonzero;fill:rgb(100%,100%,100%);fill-opacity:1;stroke-width:1.5;stroke-linecap:butt;stroke-linejoin:miter;stroke:rgb(13.730068%,12.159915%,12.54902%);stroke-opacity:1;stroke-miterlimit:4;" d="M 371.1875 176.75 L 371.1875 183.5 L 364.4375 183.5 L 364.4375 176.75 L 371.1875 176.75 Z M 371.1875 176.75 " transform="matrix(1,0,0,-1,0,792)"/>
<path style="fill-rule:nonzero;fill:rgb(100%,100%,100%);fill-opacity:1;stroke-width:1.5;stroke-linecap:butt;stroke-linejoin:miter;stroke:rgb(13.730068%,12.159915%,12.54902%);stroke-opacity:1;stroke-miterlimit:4;" d="M 377.9375 176.75 L 377.9375 183.5 L 371.1875 183.5 L 371.1875 176.75 L 377.9375 176.75 Z M 377.9375 176.75 " transform="matrix(1,0,0,-1,0,792)"/>

</svg>