<svg xmlns="http://www.w3.org/2000/svg" xmlns:xlink="http://www.w3.org/1999/xlink" width="612pt" height="792pt" viewBox="0 0 612 792" version="1.1">

<!-- Control (10) -->
<path style="fill-rule:nonzero;fill:rgb(100%,100%,100%);fill-opacity:1;stroke-width:0.75;stroke-linecap:butt;stroke-linejoin:miter;stroke:rgb(13.730068%,12.159915%,12.54902%);stroke-opacity:1;stroke-miterlimit:4;" d="M 389.777344 294.460938 L 396.527344 294.460938 L 396.527344 246.230469 L 369.527344 246.230469 L 369.527344 294.460938 L 376.402344 294.460938 " transform="matrix(1,0,0,-1,0,793)"/>
<path style="fill-rule:nonzero;fill:rgb(100%,100%,100%);fill-opacity:1;stroke-width:0.75;stroke-linecap:butt;stroke-linejoin:miter;stroke:rgb(13.730068%,12.159915%,12.54902%);stroke-opacity:1;stroke-miterlimit:4;" d="M 376.277344 294.460938 C 369.527344 294.460938 367.183594 301.210938 367.183594 301.210938 L 376.183594 301.210938 L 383.558594 307.960938 L 389.683594 301.210938 L 398.683594 301.210938 C 398.683594 301.210938 397.058594 294.460938 390.308594 294.460938 " transform="matrix(1,0,0,-1,0,793)"/>

<!-- Annotation -->
<path style="opacity:0.5;fill:#ffffff;fill-opacity:1;fill-rule:nonzero;stroke:#ff1e1e;stroke-width:1.5;stroke-linecap:butt;stroke-linejoin:miter;stroke-miterlimit:4;stroke-opacity:1" d="m 386.4232,498.06037 0,-6.75 -6.75,0 0,6.75 6.75,0 z m 0,0"/>
     
<!-- Damage Boxes -->
<path style="fill-rule:nonzero;fill:rgb(100%,100%,100%);fill-opacity:1;stroke-width:1.5;stroke-linecap:butt;stroke-linejoin:miter;stroke:rgb(13.730068%,12.159915%,12.54902%);stroke-opacity:1;stroke-miterlimit:4;" d="M 382.90625 280.960938 L 382.90625 287.710938 L 376.15625 287.710938 L 376.15625 280.960938 L 382.90625 280.960938 Z M 382.90625 280.960938 " transform="matrix(1,0,0,-1,0,793)"/>
<path style="fill-rule:nonzero;fill:rgb(100%,100%,100%);fill-opacity:1;stroke-width:1.5;stroke-linecap:butt;stroke-linejoin:miter;stroke:rgb(13.730068%,12.159915%,12.54902%);stroke-opacity:1;stroke-miterlimit:4;" d="M 389.65625 280.960938 L 389.65625 287.710938 L 382.90625 287.710938 L 382.90625 280.960938 L 389.65625 280.960938 Z M 389.65625 280.960938 " transform="matrix(1,0,0,-1,0,793)"/>
<path style="fill-rule:nonzero;fill:rgb(100%,100%,100%);fill-opacity:1;stroke-width:1.5;stroke-linecap:butt;stroke-linejoin:miter;stroke:rgb(13.730068%,12.159915%,12.54902%);stroke-opacity:1;stroke-miterlimit:4;" d="M 382.90625 274.210938 L 382.90625 280.960938 L 376.15625 280.960938 L 376.15625 274.210938 L 382.90625 274.210938 Z M 382.90625 274.210938 " transform="matrix(1,0,0,-1,0,793)"/>
<path style="fill-rule:nonzero;fill:rgb(100%,100%,100%);fill-opacity:1;stroke-width:1.5;stroke-linecap:butt;stroke-linejoin:miter;stroke:rgb(13.730068%,12.159915%,12.54902%);stroke-opacity:1;stroke-miterlimit:4;" d="M 389.65625 274.210938 L 389.65625 280.960938 L 382.90625 280.960938 L 382.90625 274.210938 L 389.65625 274.210938 Z M 389.65625 274.210938 " transform="matrix(1,0,0,-1,0,793)"/>
<path style="fill-rule:nonzero;fill:rgb(100%,100%,100%);fill-opacity:1;stroke-width:1.5;stroke-linecap:butt;stroke-linejoin:miter;stroke:rgb(13.730068%,12.159915%,12.54902%);stroke-opacity:1;stroke-miterlimit:4;" d="M 382.90625 267.460938 L 382.90625 274.210938 L 376.15625 274.210938 L 376.15625 267.460938 L 382.90625 267.460938 Z M 382.90625 267.460938 " transform="matrix(1,0,0,-1,0,793)"/>
<path style="fill-rule:nonzero;fill:rgb(100%,100%,100%);fill-opacity:1;stroke-width:1.5;stroke-linecap:butt;stroke-linejoin:miter;stroke:rgb(13.730068%,12.159915%,12.54902%);stroke-opacity:1;stroke-miterlimit:4;" d="M 389.65625 267.460938 L 389.65625 274.210938 L 382.90625 274.210938 L 382.90625 267.460938 L 389.65625 267.460938 Z M 389.65625 267.460938 " transform="matrix(1,0,0,-1,0,793)"/>
<path style="fill-rule:nonzero;fill:rgb(100%,100%,100%);fill-opacity:1;stroke-width:1.5;stroke-linecap:butt;stroke-linejoin:miter;stroke:rgb(13.730068%,12.159915%,12.54902%);stroke-opacity:1;stroke-miterlimit:4;" d="M 382.90625 260.648438 L 382.90625 267.398438 L 376.15625 267.398438 L 376.15625 260.648438 L 382.90625 260.648438 Z M 382.90625 260.648438 " transform="matrix(1,0,0,-1,0,793)"/>
<path style="fill-rule:nonzero;fill:rgb(100%,100%,100%);fill-opacity:1;stroke-width:1.5;stroke-linecap:butt;stroke-linejoin:miter;stroke:rgb(13.730068%,12.159915%,12.54902%);stroke-opacity:1;stroke-miterlimit:4;" d="M 389.65625 260.648438 L 389.65625 267.398438 L 382.90625 267.398438 L 382.90625 260.648438 L 389.65625 260.648438 Z M 389.65625 260.648438 " transform="matrix(1,0,0,-1,0,793)"/>
<path style="fill-rule:nonzero;fill:rgb(100%,100%,100%);fill-opacity:1;stroke-width:1.5;stroke-linecap:butt;stroke-linejoin:miter;stroke:rgb(13.730068%,12.159915%,12.54902%);stroke-opacity:1;stroke-miterlimit:4;" d="M 382.90625 253.898438 L 382.90625 260.648438 L 376.15625 260.648438 L 376.15625 253.898438 L 382.90625 253.898438 Z M 382.90625 253.898438 " transform="matrix(1,0,0,-1,0,793)"/>
<path style="fill-rule:nonzero;fill:rgb(100%,100%,100%);fill-opacity:1;stroke-width:1.5;stroke-linecap:butt;stroke-linejoin:miter;stroke:rgb(13.730068%,12.159915%,12.54902%);stroke-opacity:1;stroke-miterlimit:4;" d="M 389.65625 253.898438 L 389.65625 260.648438 L 382.90625 260.648438 L 382.90625 253.898438 L 389.65625 253.898438 Z M 389.65625 253.898438 " transform="matrix(1,0,0,-1,0,793)"/>

</svg>