<svg xmlns="http://www.w3.org/2000/svg" xmlns:xlink="http://www.w3.org/1999/xlink" width="612pt" height="792pt" viewBox="0 0 612 792" version="1.1">

<!-- Control (12) -->
<path style="fill-rule:nonzero;fill:rgb(100%,100%,100%);fill-opacity:1;stroke-width:0.75;stroke-linecap:butt;stroke-linejoin:miter;stroke:rgb(13.730068%,12.159915%,12.54902%);stroke-opacity:1;stroke-miterlimit:4;" d="M 409.386719 128.019531 C 402.636719 128.019531 399.261719 134.769531 399.261719 134.769531 L 412.761719 134.769531 L 420.136719 141.519531 L 426.261719 134.769531 L 439.761719 134.769531 C 439.761719 134.769531 437.136719 128.019531 430.386719 128.019531 " transform="matrix(1,0,0,-1,0,792)"/>
<path style="fill-rule:nonzero;fill:rgb(100%,100%,100%);fill-opacity:1;stroke-width:0.75;stroke-linecap:butt;stroke-linejoin:miter;stroke:rgb(13.730068%,12.159915%,12.54902%);stroke-opacity:1;stroke-miterlimit:4;" d="M 429.636719 128.019531 L 439.761719 128.019531 L 439.761719 94.269531 L 399.261719 94.269531 L 399.261719 128.019531 L 409.386719 128.019531 " transform="matrix(1,0,0,-1,0,792)"/>

<!-- Annotation -->
<path style="opacity:0.5;fill:#ffffff;fill-opacity:1;fill-rule:nonzero;stroke:#ff1e1e;stroke-width:1.5;stroke-linecap:butt;stroke-linejoin:miter;stroke-miterlimit:4;stroke-opacity:1" d="m 423.05637,663.62465 0,-6.75 -6.75,0 0,6.75 6.75,0 z m 0,0"/>
     
<!-- Damage Boxes -->
<path style="fill-rule:nonzero;fill:rgb(100%,100%,100%);fill-opacity:1;stroke-width:1.5;stroke-linecap:butt;stroke-linejoin:miter;stroke:rgb(13.730068%,12.159915%,12.54902%);stroke-opacity:1;stroke-miterlimit:4;" d="M 412.761719 114.519531 L 412.761719 121.269531 L 406.011719 121.269531 L 406.011719 114.519531 L 412.761719 114.519531 Z M 412.761719 114.519531 " transform="matrix(1,0,0,-1,0,792)"/>
<path style="fill-rule:nonzero;fill:rgb(100%,100%,100%);fill-opacity:1;stroke-width:1.5;stroke-linecap:butt;stroke-linejoin:miter;stroke:rgb(13.730068%,12.159915%,12.54902%);stroke-opacity:1;stroke-miterlimit:4;" d="M 419.511719 114.519531 L 419.511719 121.269531 L 412.761719 121.269531 L 412.761719 114.519531 L 419.511719 114.519531 Z M 419.511719 114.519531 " transform="matrix(1,0,0,-1,0,792)"/>
<path style="fill-rule:nonzero;fill:rgb(100%,100%,100%);fill-opacity:1;stroke-width:1.5;stroke-linecap:butt;stroke-linejoin:miter;stroke:rgb(13.730068%,12.159915%,12.54902%);stroke-opacity:1;stroke-miterlimit:4;" d="M 426.261719 114.519531 L 426.261719 121.269531 L 419.511719 121.269531 L 419.511719 114.519531 L 426.261719 114.519531 Z M 426.261719 114.519531 " transform="matrix(1,0,0,-1,0,792)"/>
<path style="fill-rule:nonzero;fill:rgb(100%,100%,100%);fill-opacity:1;stroke-width:1.5;stroke-linecap:butt;stroke-linejoin:miter;stroke:rgb(13.730068%,12.159915%,12.54902%);stroke-opacity:1;stroke-miterlimit:4;" d="M 433.011719 114.519531 L 433.011719 121.269531 L 426.261719 121.269531 L 426.261719 114.519531 L 433.011719 114.519531 Z M 433.011719 114.519531 " transform="matrix(1,0,0,-1,0,792)"/>
<path style="fill-rule:nonzero;fill:rgb(100%,100%,100%);fill-opacity:1;stroke-width:1.5;stroke-linecap:butt;stroke-linejoin:miter;stroke:rgb(13.730068%,12.159915%,12.54902%);stroke-opacity:1;stroke-miterlimit:4;" d="M 412.761719 107.769531 L 412.761719 114.519531 L 406.011719 114.519531 L 406.011719 107.769531 L 412.761719 107.769531 Z M 412.761719 107.769531 " transform="matrix(1,0,0,-1,0,792)"/>
<path style="fill-rule:nonzero;fill:rgb(100%,100%,100%);fill-opacity:1;stroke-width:1.5;stroke-linecap:butt;stroke-linejoin:miter;stroke:rgb(13.730068%,12.159915%,12.54902%);stroke-opacity:1;stroke-miterlimit:4;" d="M 419.511719 107.769531 L 419.511719 114.519531 L 412.761719 114.519531 L 412.761719 107.769531 L 419.511719 107.769531 Z M 419.511719 107.769531 " transform="matrix(1,0,0,-1,0,792)"/>
<path style="fill-rule:nonzero;fill:rgb(100%,100%,100%);fill-opacity:1;stroke-width:1.5;stroke-linecap:butt;stroke-linejoin:miter;stroke:rgb(13.730068%,12.159915%,12.54902%);stroke-opacity:1;stroke-miterlimit:4;" d="M 426.261719 107.769531 L 426.261719 114.519531 L 419.511719 114.519531 L 419.511719 107.769531 L 426.261719 107.769531 Z M 426.261719 107.769531 " transform="matrix(1,0,0,-1,0,792)"/>
<path style="fill-rule:nonzero;fill:rgb(100%,100%,100%);fill-opacity:1;stroke-width:1.5;stroke-linecap:butt;stroke-linejoin:miter;stroke:rgb(13.730068%,12.159915%,12.54902%);stroke-opacity:1;stroke-miterlimit:4;" d="M 433.011719 107.769531 L 433.011719 114.519531 L 426.261719 114.519531 L 426.261719 107.769531 L 433.011719 107.769531 Z M 433.011719 107.769531 " transform="matrix(1,0,0,-1,0,792)"/>
<path style="fill-rule:nonzero;fill:rgb(100%,100%,100%);fill-opacity:1;stroke-width:1.5;stroke-linecap:butt;stroke-linejoin:miter;stroke:rgb(13.730068%,12.159915%,12.54902%);stroke-opacity:1;stroke-miterlimit:4;" d="M 412.761719 101.019531 L 412.761719 107.769531 L 406.011719 107.769531 L 406.011719 101.019531 L 412.761719 101.019531 Z M 412.761719 101.019531 " transform="matrix(1,0,0,-1,0,792)"/>
<path style="fill-rule:nonzero;fill:rgb(100%,100%,100%);fill-opacity:1;stroke-width:1.5;stroke-linecap:butt;stroke-linejoin:miter;stroke:rgb(13.730068%,12.159915%,12.54902%);stroke-opacity:1;stroke-miterlimit:4;" d="M 419.511719 101.019531 L 419.511719 107.769531 L 412.761719 107.769531 L 412.761719 101.019531 L 419.511719 101.019531 Z M 419.511719 101.019531 " transform="matrix(1,0,0,-1,0,792)"/>
<path style="fill-rule:nonzero;fill:rgb(100%,100%,100%);fill-opacity:1;stroke-width:1.5;stroke-linecap:butt;stroke-linejoin:miter;stroke:rgb(13.730068%,12.159915%,12.54902%);stroke-opacity:1;stroke-miterlimit:4;" d="M 426.261719 101.019531 L 426.261719 107.769531 L 419.511719 107.769531 L 419.511719 101.019531 L 426.261719 101.019531 Z M 426.261719 101.019531 " transform="matrix(1,0,0,-1,0,792)"/>
<path style="fill-rule:nonzero;fill:rgb(100%,100%,100%);fill-opacity:1;stroke-width:1.5;stroke-linecap:butt;stroke-linejoin:miter;stroke:rgb(13.730068%,12.159915%,12.54902%);stroke-opacity:1;stroke-miterlimit:4;" d="M 433.011719 101.019531 L 433.011719 107.769531 L 426.261719 107.769531 L 426.261719 101.019531 L 433.011719 101.019531 Z M 433.011719 101.019531 " transform="matrix(1,0,0,-1,0,792)"/>

</svg>