<svg xmlns="http://www.w3.org/2000/svg" xmlns:xlink="http://www.w3.org/1999/xlink" width="612pt" height="792pt" viewBox="0 0 612 792" version="1.1">

<!-- Destabilizer Beam -->
<path style="fill-rule:nonzero;fill:rgb(100%,100%,100%);fill-opacity:1;stroke-width:0.75;stroke-linecap:butt;stroke-linejoin:miter;stroke:rgb(13.730068%,12.159915%,12.54902%);stroke-opacity:1;stroke-miterlimit:4;" d="M 259.59375 602.078125 L 257.34375 602.078125 L 259.59375 597.578125 L 257.34375 597.578125 L 259.84375 590.328125 L 259.84375 590.328125 L 253.09375 590.328125 L 253.09375 547.578125 L 264.34375 547.578125 L 275.59375 547.578125 L 275.59375 590.328125 L 268.84375 590.328125 L 268.84375 590.328125 L 270.84375 597.578125 L 268.59375 597.578125 L 270.84375 602.078125 L 268.59375 602.078125 L 266.34375 602.078125 L 264.09375 611.078125 L 261.84375 602.078125 L 259.59375 602.078125 Z M 259.59375 602.078125 " transform="matrix(1,0,0,-1,0,792)"/>
<path style="fill-rule:nonzero;fill:rgb(100%,100%,100%);fill-opacity:1;stroke-width:0.75;stroke-linecap:butt;stroke-linejoin:miter;stroke:rgb(13.730068%,12.159915%,12.54902%);stroke-opacity:1;stroke-miterlimit:4;" d="M 266.074219 597.972656 C 266.074219 596.945312 265.242188 596.113281 264.21875 596.113281 C 263.191406 596.113281 262.363281 596.945312 262.363281 597.972656 C 262.363281 598.996094 263.191406 599.828125 264.21875 599.828125 C 265.242188 599.828125 266.074219 598.996094 266.074219 597.972656 Z M 266.074219 597.972656 " transform="matrix(1,0,0,-1,0,792)"/>
<path style="fill-rule:nonzero;fill:rgb(100%,100%,100%);fill-opacity:1;stroke-width:0.75;stroke-linecap:butt;stroke-linejoin:miter;stroke:rgb(13.730068%,12.159915%,12.54902%);stroke-opacity:1;stroke-miterlimit:4;" d="M 266.074219 594.257812 C 266.074219 593.234375 265.242188 592.402344 264.21875 592.402344 C 263.191406 592.402344 262.363281 593.234375 262.363281 594.257812 C 262.363281 595.285156 263.191406 596.113281 264.21875 596.113281 C 265.242188 596.113281 266.074219 595.285156 266.074219 594.257812 Z M 266.074219 594.257812 " transform="matrix(1,0,0,-1,0,792)"/>
<path style="fill-rule:nonzero;fill:rgb(100%,100%,100%);fill-opacity:1;stroke-width:0.75;stroke-linecap:butt;stroke-linejoin:miter;stroke:rgb(13.730068%,12.159915%,12.54902%);stroke-opacity:1;stroke-miterlimit:4;" d="M 266.074219 590.546875 C 266.074219 589.523438 265.242188 588.691406 264.21875 588.691406 C 263.191406 588.691406 262.363281 589.523438 262.363281 590.546875 C 262.363281 591.570312 263.191406 592.402344 264.21875 592.402344 C 265.242188 592.402344 266.074219 591.570312 266.074219 590.546875 Z M 266.074219 590.546875 " transform="matrix(1,0,0,-1,0,792)"/>

<!-- Damage Boxes -->
<path style="fill-rule:nonzero;fill:rgb(100%,100%,100%);fill-opacity:1;stroke-width:1.5;stroke-linecap:butt;stroke-linejoin:miter;stroke:rgb(13.730068%,12.159915%,12.54902%);stroke-opacity:1;stroke-miterlimit:4;" d="M 264.34375 579.078125 L 264.34375 585.828125 L 257.59375 585.828125 L 257.59375 579.078125 L 264.34375 579.078125 Z M 264.34375 579.078125 " transform="matrix(1,0,0,-1,0,792)"/>
<path style="fill-rule:nonzero;fill:rgb(100%,100%,100%);fill-opacity:1;stroke-width:1.5;stroke-linecap:butt;stroke-linejoin:miter;stroke:rgb(13.730068%,12.159915%,12.54902%);stroke-opacity:1;stroke-miterlimit:4;" d="M 271.09375 579.078125 L 271.09375 585.828125 L 264.34375 585.828125 L 264.34375 579.078125 L 271.09375 579.078125 Z M 271.09375 579.078125 " transform="matrix(1,0,0,-1,0,792)"/>
<path style="fill-rule:nonzero;fill:rgb(100%,100%,100%);fill-opacity:1;stroke-width:1.5;stroke-linecap:butt;stroke-linejoin:miter;stroke:rgb(13.730068%,12.159915%,12.54902%);stroke-opacity:1;stroke-miterlimit:4;" d="M 264.34375 572.328125 L 264.34375 579.078125 L 257.59375 579.078125 L 257.59375 572.328125 L 264.34375 572.328125 Z M 264.34375 572.328125 " transform="matrix(1,0,0,-1,0,792)"/>
<path style="fill-rule:nonzero;fill:rgb(100%,100%,100%);fill-opacity:1;stroke-width:1.5;stroke-linecap:butt;stroke-linejoin:miter;stroke:rgb(13.730068%,12.159915%,12.54902%);stroke-opacity:1;stroke-miterlimit:4;" d="M 271.09375 572.328125 L 271.09375 579.078125 L 264.34375 579.078125 L 264.34375 572.328125 L 271.09375 572.328125 Z M 271.09375 572.328125 " transform="matrix(1,0,0,-1,0,792)"/>
<path style="fill-rule:nonzero;fill:rgb(100%,100%,100%);fill-opacity:1;stroke-width:1.5;stroke-linecap:butt;stroke-linejoin:miter;stroke:rgb(13.730068%,12.159915%,12.54902%);stroke-opacity:1;stroke-miterlimit:4;" d="M 264.34375 565.578125 L 264.34375 572.328125 L 257.59375 572.328125 L 257.59375 565.578125 L 264.34375 565.578125 Z M 264.34375 565.578125 " transform="matrix(1,0,0,-1,0,792)"/>
<path style="fill-rule:nonzero;fill:rgb(100%,100%,100%);fill-opacity:1;stroke-width:1.5;stroke-linecap:butt;stroke-linejoin:miter;stroke:rgb(13.730068%,12.159915%,12.54902%);stroke-opacity:1;stroke-miterlimit:4;" d="M 271.09375 565.578125 L 271.09375 572.328125 L 264.34375 572.328125 L 264.34375 565.578125 L 271.09375 565.578125 Z M 271.09375 565.578125 " transform="matrix(1,0,0,-1,0,792)"/>
<path style="fill-rule:nonzero;fill:rgb(100%,100%,100%);fill-opacity:1;stroke-width:1.5;stroke-linecap:butt;stroke-linejoin:miter;stroke:rgb(13.730068%,12.159915%,12.54902%);stroke-opacity:1;stroke-miterlimit:4;" d="M 264.34375 558.828125 L 264.34375 565.578125 L 257.59375 565.578125 L 257.59375 558.828125 L 264.34375 558.828125 Z M 264.34375 558.828125 " transform="matrix(1,0,0,-1,0,792)"/>
<path style="fill-rule:nonzero;fill:rgb(100%,100%,100%);fill-opacity:1;stroke-width:1.5;stroke-linecap:butt;stroke-linejoin:miter;stroke:rgb(13.730068%,12.159915%,12.54902%);stroke-opacity:1;stroke-miterlimit:4;" d="M 271.09375 558.828125 L 271.09375 565.578125 L 264.34375 565.578125 L 264.34375 558.828125 L 271.09375 558.828125 Z M 271.09375 558.828125 " transform="matrix(1,0,0,-1,0,792)"/>
<path style="fill-rule:nonzero;fill:rgb(100%,100%,100%);fill-opacity:1;stroke-width:1.5;stroke-linecap:butt;stroke-linejoin:miter;stroke:rgb(13.730068%,12.159915%,12.54902%);stroke-opacity:1;stroke-miterlimit:4;" d="M 264.34375 552.078125 L 264.34375 558.828125 L 257.59375 558.828125 L 257.59375 552.078125 L 264.34375 552.078125 Z M 264.34375 552.078125 " transform="matrix(1,0,0,-1,0,792)"/>
<path style="fill-rule:nonzero;fill:rgb(100%,100%,100%);fill-opacity:1;stroke-width:1.5;stroke-linecap:butt;stroke-linejoin:miter;stroke:rgb(13.730068%,12.159915%,12.54902%);stroke-opacity:1;stroke-miterlimit:4;" d="M 271.09375 552.078125 L 271.09375 558.828125 L 264.34375 558.828125 L 264.34375 552.078125 L 271.09375 552.078125 Z M 271.09375 552.078125 " transform="matrix(1,0,0,-1,0,792)"/>

</svg>