<svg xmlns="http://www.w3.org/2000/svg" xmlns:xlink="http://www.w3.org/1999/xlink" width="612pt" height="792pt" viewBox="0 0 612 792" version="1.1">

<!-- Discharge Gun -->
<path style="fill-rule:nonzero;fill:rgb(100%,100%,100%);fill-opacity:1;stroke-width:0.75;stroke-linecap:butt;stroke-linejoin:miter;stroke:rgb(13.730068%,12.159915%,12.54902%);stroke-opacity:1;stroke-miterlimit:4;" d="M 292.5 415.707031 L 292.5 433.707031 L 299.25 444.957031 L 292.5 449.457031 L 303.75 444.957031 L 306 456.207031 L 308.25 444.957031 L 310.5 444.957031 L 312.75 444.957031 L 315 456.207031 L 317.25 444.957031 L 328.5 449.457031 L 321.75 444.957031 L 328.5 433.707031 L 328.5 415.707031 L 292.5 415.707031 Z M 292.5 415.707031 " transform="matrix(1,0,0,-1,0,793)"/>

<!-- Damage Boxes -->
<path style="fill-rule:nonzero;fill:rgb(100%,100%,100%);fill-opacity:1;stroke-width:1.5;stroke-linecap:butt;stroke-linejoin:miter;stroke:rgb(13.730068%,12.159915%,12.54902%);stroke-opacity:1;stroke-miterlimit:4;" d="M 310.5 433.707031 L 310.5 440.457031 L 303.75 440.457031 L 303.75 433.707031 L 310.5 433.707031 Z M 310.5 433.707031 " transform="matrix(1,0,0,-1,0,793)"/>
<path style="fill-rule:nonzero;fill:rgb(100%,100%,100%);fill-opacity:1;stroke-width:1.5;stroke-linecap:butt;stroke-linejoin:miter;stroke:rgb(13.730068%,12.159915%,12.54902%);stroke-opacity:1;stroke-miterlimit:4;" d="M 317.25 433.707031 L 317.25 440.457031 L 310.5 440.457031 L 310.5 433.707031 L 317.25 433.707031 Z M 317.25 433.707031 " transform="matrix(1,0,0,-1,0,793)"/>
<path style="fill-rule:nonzero;fill:rgb(100%,100%,100%);fill-opacity:1;stroke-width:1.5;stroke-linecap:butt;stroke-linejoin:miter;stroke:rgb(13.730068%,12.159915%,12.54902%);stroke-opacity:1;stroke-miterlimit:4;" d="M 303.75 426.957031 L 303.75 433.707031 L 297 433.707031 L 297 426.957031 L 303.75 426.957031 Z M 303.75 426.957031 " transform="matrix(1,0,0,-1,0,793)"/>
<path style="fill-rule:nonzero;fill:rgb(100%,100%,100%);fill-opacity:1;stroke-width:1.5;stroke-linecap:butt;stroke-linejoin:miter;stroke:rgb(13.730068%,12.159915%,12.54902%);stroke-opacity:1;stroke-miterlimit:4;" d="M 310.5 426.957031 L 310.5 433.707031 L 303.75 433.707031 L 303.75 426.957031 L 310.5 426.957031 Z M 310.5 426.957031 " transform="matrix(1,0,0,-1,0,793)"/>
<path style="fill-rule:nonzero;fill:rgb(100%,100%,100%);fill-opacity:1;stroke-width:1.5;stroke-linecap:butt;stroke-linejoin:miter;stroke:rgb(13.730068%,12.159915%,12.54902%);stroke-opacity:1;stroke-miterlimit:4;" d="M 317.25 426.957031 L 317.25 433.707031 L 310.5 433.707031 L 310.5 426.957031 L 317.25 426.957031 Z M 317.25 426.957031 " transform="matrix(1,0,0,-1,0,793)"/>
<path style="fill-rule:nonzero;fill:rgb(100%,100%,100%);fill-opacity:1;stroke-width:1.5;stroke-linecap:butt;stroke-linejoin:miter;stroke:rgb(13.730068%,12.159915%,12.54902%);stroke-opacity:1;stroke-miterlimit:4;" d="M 324 426.957031 L 324 433.707031 L 317.25 433.707031 L 317.25 426.957031 L 324 426.957031 Z M 324 426.957031 " transform="matrix(1,0,0,-1,0,793)"/>
<path style="fill-rule:nonzero;fill:rgb(100%,100%,100%);fill-opacity:1;stroke-width:1.5;stroke-linecap:butt;stroke-linejoin:miter;stroke:rgb(13.730068%,12.159915%,12.54902%);stroke-opacity:1;stroke-miterlimit:4;" d="M 303.75 420.207031 L 303.75 426.957031 L 297 426.957031 L 297 420.207031 L 303.75 420.207031 Z M 303.75 420.207031 " transform="matrix(1,0,0,-1,0,793)"/>
<path style="fill-rule:nonzero;fill:rgb(100%,100%,100%);fill-opacity:1;stroke-width:1.5;stroke-linecap:butt;stroke-linejoin:miter;stroke:rgb(13.730068%,12.159915%,12.54902%);stroke-opacity:1;stroke-miterlimit:4;" d="M 310.5 420.207031 L 310.5 426.957031 L 303.75 426.957031 L 303.75 420.207031 L 310.5 420.207031 Z M 310.5 420.207031 " transform="matrix(1,0,0,-1,0,793)"/>
<path style="fill-rule:nonzero;fill:rgb(100%,100%,100%);fill-opacity:1;stroke-width:1.5;stroke-linecap:butt;stroke-linejoin:miter;stroke:rgb(13.730068%,12.159915%,12.54902%);stroke-opacity:1;stroke-miterlimit:4;" d="M 317.25 420.207031 L 317.25 426.957031 L 310.5 426.957031 L 310.5 420.207031 L 317.25 420.207031 Z M 317.25 420.207031 " transform="matrix(1,0,0,-1,0,793)"/>
<path style="fill-rule:nonzero;fill:rgb(100%,100%,100%);fill-opacity:1;stroke-width:1.5;stroke-linecap:butt;stroke-linejoin:miter;stroke:rgb(13.730068%,12.159915%,12.54902%);stroke-opacity:1;stroke-miterlimit:4;" d="M 324 420.207031 L 324 426.957031 L 317.25 426.957031 L 317.25 420.207031 L 324 420.207031 Z M 324 420.207031 " transform="matrix(1,0,0,-1,0,793)"/>

</svg>