<svg xmlns="http://www.w3.org/2000/svg" xmlns:xlink="http://www.w3.org/1999/xlink" width="612pt" height="792pt" viewBox="0 0 612 792" version="1.1">

<!-- Discharge Pulsar -->
<path style="fill-rule:nonzero;fill:rgb(100%,100%,100%);fill-opacity:1;stroke-width:0.75;stroke-linecap:butt;stroke-linejoin:miter;stroke:rgb(13.730068%,12.159915%,12.54902%);stroke-opacity:1;stroke-miterlimit:4;" d="M 290.957031 410.875 L 290.957031 430.875 L 297.707031 442.125 L 290.957031 446.625 L 302.207031 442.125 L 304.457031 453.375 L 306.707031 442.125 L 314.207031 442.125 L 316.457031 453.375 L 318.707031 442.125 L 329.957031 446.625 L 323.207031 442.125 L 329.957031 430.875 L 329.957031 410.875 L 290.957031 410.875 Z M 290.957031 410.875 " transform="matrix(1,0,0,-1,0,793)"/>
<path style="fill-rule:nonzero;fill:rgb(100%,100%,100%);fill-opacity:1;stroke-width:0.75;stroke-linecap:butt;stroke-linejoin:miter;stroke:rgb(13.730068%,12.159915%,12.54902%);stroke-opacity:1;stroke-miterlimit:4;" d="M 304.625 439.195312 C 306.902344 439.195312 308.75 440.933594 308.75 443.082031 C 308.75 445.230469 306.902344 446.972656 304.625 446.972656 C 302.347656 446.972656 300.5 445.230469 300.5 443.082031 C 300.5 440.933594 302.347656 439.195312 304.625 439.195312 Z M 304.625 439.195312 " transform="matrix(1,0,0,-1,0,793)"/>
<path style="fill-rule:nonzero;fill:rgb(100%,100%,100%);fill-opacity:1;stroke-width:0.75;stroke-linecap:butt;stroke-linejoin:miter;stroke:rgb(13.730068%,12.159915%,12.54902%);stroke-opacity:1;stroke-miterlimit:4;" d="M 316.792969 439.195312 C 319.070312 439.195312 320.914062 440.933594 320.914062 443.082031 C 320.914062 445.230469 319.070312 446.972656 316.792969 446.972656 C 314.511719 446.972656 312.667969 445.230469 312.667969 443.082031 C 312.667969 440.933594 314.511719 439.195312 316.792969 439.195312 Z M 316.792969 439.195312 " transform="matrix(1,0,0,-1,0,793)"/>
<path style="fill-rule:nonzero;fill:rgb(100%,100%,100%);fill-opacity:1;stroke-width:0.75;stroke-linecap:butt;stroke-linejoin:miter;stroke:rgb(13.730068%,12.159915%,12.54902%);stroke-opacity:1;stroke-miterlimit:4;" d="M 304.625 444.445312 C 306.902344 444.445312 308.75 446.183594 308.75 448.332031 C 308.75 450.480469 306.902344 452.222656 304.625 452.222656 C 302.347656 452.222656 300.5 450.480469 300.5 448.332031 C 300.5 446.183594 302.347656 444.445312 304.625 444.445312 Z M 304.625 444.445312 " transform="matrix(1,0,0,-1,0,793)"/>
<path style="fill-rule:nonzero;fill:rgb(100%,100%,100%);fill-opacity:1;stroke-width:0.75;stroke-linecap:butt;stroke-linejoin:miter;stroke:rgb(13.730068%,12.159915%,12.54902%);stroke-opacity:1;stroke-miterlimit:4;" d="M 316.792969 444.445312 C 319.070312 444.445312 320.914062 446.183594 320.914062 448.332031 C 320.914062 450.480469 319.070312 452.222656 316.792969 452.222656 C 314.511719 452.222656 312.667969 450.480469 312.667969 448.332031 C 312.667969 446.183594 314.511719 444.445312 316.792969 444.445312 Z M 316.792969 444.445312 " transform="matrix(1,0,0,-1,0,793)"/>

<!-- Damage Boxes -->
<path style="fill-rule:nonzero;fill:rgb(100%,100%,100%);fill-opacity:1;stroke-width:1.5;stroke-linecap:butt;stroke-linejoin:miter;stroke:rgb(13.730068%,12.159915%,12.54902%);stroke-opacity:1;stroke-miterlimit:4;" d="M 303.5 429 L 303.5 435.75 L 296.75 435.75 L 296.75 429 L 303.5 429 Z M 303.5 429 " transform="matrix(1,0,0,-1,0,793)"/>
<path style="fill-rule:nonzero;fill:rgb(100%,100%,100%);fill-opacity:1;stroke-width:1.5;stroke-linecap:butt;stroke-linejoin:miter;stroke:rgb(13.730068%,12.159915%,12.54902%);stroke-opacity:1;stroke-miterlimit:4;" d="M 310.332031 429 L 310.332031 435.75 L 303.582031 435.75 L 303.582031 429 L 310.332031 429 Z M 310.332031 429 " transform="matrix(1,0,0,-1,0,793)"/>
<path style="fill-rule:nonzero;fill:rgb(100%,100%,100%);fill-opacity:1;stroke-width:1.5;stroke-linecap:butt;stroke-linejoin:miter;stroke:rgb(13.730068%,12.159915%,12.54902%);stroke-opacity:1;stroke-miterlimit:4;" d="M 317.167969 429 L 317.167969 435.75 L 310.417969 435.75 L 310.417969 429 L 317.167969 429 Z M 317.167969 429 " transform="matrix(1,0,0,-1,0,793)"/>
<path style="fill-rule:nonzero;fill:rgb(100%,100%,100%);fill-opacity:1;stroke-width:1.5;stroke-linecap:butt;stroke-linejoin:miter;stroke:rgb(13.730068%,12.159915%,12.54902%);stroke-opacity:1;stroke-miterlimit:4;" d="M 324 429 L 324 435.75 L 317.25 435.75 L 317.25 429 L 324 429 Z M 324 429 " transform="matrix(1,0,0,-1,0,793)"/>
<path style="fill-rule:nonzero;fill:rgb(100%,100%,100%);fill-opacity:1;stroke-width:1.5;stroke-linecap:butt;stroke-linejoin:miter;stroke:rgb(13.730068%,12.159915%,12.54902%);stroke-opacity:1;stroke-miterlimit:4;" d="M 303.5 422.25 L 303.5 429 L 296.75 429 L 296.75 422.25 L 303.5 422.25 Z M 303.5 422.25 " transform="matrix(1,0,0,-1,0,793)"/>
<path style="fill-rule:nonzero;fill:rgb(100%,100%,100%);fill-opacity:1;stroke-width:1.5;stroke-linecap:butt;stroke-linejoin:miter;stroke:rgb(13.730068%,12.159915%,12.54902%);stroke-opacity:1;stroke-miterlimit:4;" d="M 310.332031 422.25 L 310.332031 429 L 303.582031 429 L 303.582031 422.25 L 310.332031 422.25 Z M 310.332031 422.25 " transform="matrix(1,0,0,-1,0,793)"/>
<path style="fill-rule:nonzero;fill:rgb(100%,100%,100%);fill-opacity:1;stroke-width:1.5;stroke-linecap:butt;stroke-linejoin:miter;stroke:rgb(13.730068%,12.159915%,12.54902%);stroke-opacity:1;stroke-miterlimit:4;" d="M 317.167969 422.25 L 317.167969 429 L 310.417969 429 L 310.417969 422.25 L 317.167969 422.25 Z M 317.167969 422.25 " transform="matrix(1,0,0,-1,0,793)"/>
<path style="fill-rule:nonzero;fill:rgb(100%,100%,100%);fill-opacity:1;stroke-width:1.5;stroke-linecap:butt;stroke-linejoin:miter;stroke:rgb(13.730068%,12.159915%,12.54902%);stroke-opacity:1;stroke-miterlimit:4;" d="M 324 422.25 L 324 429 L 317.25 429 L 317.25 422.25 L 324 422.25 Z M 324 422.25 " transform="matrix(1,0,0,-1,0,793)"/>
<path style="fill-rule:nonzero;fill:rgb(100%,100%,100%);fill-opacity:1;stroke-width:1.5;stroke-linecap:butt;stroke-linejoin:miter;stroke:rgb(13.730068%,12.159915%,12.54902%);stroke-opacity:1;stroke-miterlimit:4;" d="M 303.5 415.5 L 303.5 422.25 L 296.75 422.25 L 296.75 415.5 L 303.5 415.5 Z M 303.5 415.5 " transform="matrix(1,0,0,-1,0,793)"/>
<path style="fill-rule:nonzero;fill:rgb(100%,100%,100%);fill-opacity:1;stroke-width:1.5;stroke-linecap:butt;stroke-linejoin:miter;stroke:rgb(13.730068%,12.159915%,12.54902%);stroke-opacity:1;stroke-miterlimit:4;" d="M 310.332031 415.5 L 310.332031 422.25 L 303.582031 422.25 L 303.582031 415.5 L 310.332031 415.5 Z M 310.332031 415.5 " transform="matrix(1,0,0,-1,0,793)"/>
<path style="fill-rule:nonzero;fill:rgb(100%,100%,100%);fill-opacity:1;stroke-width:1.5;stroke-linecap:butt;stroke-linejoin:miter;stroke:rgb(13.730068%,12.159915%,12.54902%);stroke-opacity:1;stroke-miterlimit:4;" d="M 317.167969 415.5 L 317.167969 422.25 L 310.417969 422.25 L 310.417969 415.5 L 317.167969 415.5 Z M 317.167969 415.5 " transform="matrix(1,0,0,-1,0,793)"/>
<path style="fill-rule:nonzero;fill:rgb(100%,100%,100%);fill-opacity:1;stroke-width:1.5;stroke-linecap:butt;stroke-linejoin:miter;stroke:rgb(13.730068%,12.159915%,12.54902%);stroke-opacity:1;stroke-miterlimit:4;" d="M 324 415.5 L 324 422.25 L 317.25 422.25 L 317.25 415.5 L 324 415.5 Z M 324 415.5 " transform="matrix(1,0,0,-1,0,793)"/>

</svg>