<svg xmlns="http://www.w3.org/2000/svg" xmlns:xlink="http://www.w3.org/1999/xlink" width="612pt" height="792pt" viewBox="0 0 612 792" version="1.1">

<!-- Discharge Cannon -->
<path style="fill-rule:nonzero;fill:rgb(100%,100%,100%);fill-opacity:1;stroke-width:0.75;stroke-linecap:butt;stroke-linejoin:miter;stroke:rgb(13.730068%,12.159915%,12.54902%);stroke-opacity:1;stroke-miterlimit:4;" d="M 288.195312 411.476562 L 288.195312 429.476562 L 294.945312 440.726562 L 288.195312 445.226562 L 299.445312 440.726562 L 301.695312 451.976562 L 303.945312 440.726562 L 308.945312 440.730469 L 311.445312 451.980469 L 313.613281 440.730469 L 319.445312 440.726562 L 321.695312 451.976562 L 323.945312 440.726562 L 335.195312 445.226562 L 328.445312 440.726562 L 335.195312 429.476562 L 335.195312 411.476562 L 288.195312 411.476562 Z M 288.195312 411.476562 " transform="matrix(1,0,0,-1,0,793)"/>

<!-- Damage Boxes -->
<path style="fill-rule:nonzero;fill:rgb(100%,100%,100%);fill-opacity:1;stroke-width:1.5;stroke-linecap:butt;stroke-linejoin:miter;stroke:rgb(13.730068%,12.159915%,12.54902%);stroke-opacity:1;stroke-miterlimit:4;" d="M 301.632812 428.25 L 301.632812 435 L 294.882812 435 L 294.882812 428.25 L 301.632812 428.25 Z M 301.632812 428.25 " transform="matrix(1,0,0,-1,0,793)"/>
<path style="fill-rule:nonzero;fill:rgb(100%,100%,100%);fill-opacity:1;stroke-width:1.5;stroke-linecap:butt;stroke-linejoin:miter;stroke:rgb(13.730068%,12.159915%,12.54902%);stroke-opacity:1;stroke-miterlimit:4;" d="M 308.257812 428.25 L 308.257812 435 L 301.507812 435 L 301.507812 428.25 L 308.257812 428.25 Z M 308.257812 428.25 " transform="matrix(1,0,0,-1,0,793)"/>
<path style="fill-rule:nonzero;fill:rgb(100%,100%,100%);fill-opacity:1;stroke-width:1.5;stroke-linecap:butt;stroke-linejoin:miter;stroke:rgb(13.730068%,12.159915%,12.54902%);stroke-opacity:1;stroke-miterlimit:4;" d="M 315.007812 428.25 L 315.007812 435 L 308.257812 435 L 308.257812 428.25 L 315.007812 428.25 Z M 315.007812 428.25 " transform="matrix(1,0,0,-1,0,793)"/>
<path style="fill-rule:nonzero;fill:rgb(100%,100%,100%);fill-opacity:1;stroke-width:1.5;stroke-linecap:butt;stroke-linejoin:miter;stroke:rgb(13.730068%,12.159915%,12.54902%);stroke-opacity:1;stroke-miterlimit:4;" d="M 321.757812 428.25 L 321.757812 435 L 315.007812 435 L 315.007812 428.25 L 321.757812 428.25 Z M 321.757812 428.25 " transform="matrix(1,0,0,-1,0,793)"/>
<path style="fill-rule:nonzero;fill:rgb(100%,100%,100%);fill-opacity:1;stroke-width:1.5;stroke-linecap:butt;stroke-linejoin:miter;stroke:rgb(13.730068%,12.159915%,12.54902%);stroke-opacity:1;stroke-miterlimit:4;" d="M 328.507812 428.25 L 328.507812 435 L 321.757812 435 L 321.757812 428.25 L 328.507812 428.25 Z M 328.507812 428.25 " transform="matrix(1,0,0,-1,0,793)"/>
<path style="fill-rule:nonzero;fill:rgb(100%,100%,100%);fill-opacity:1;stroke-width:1.5;stroke-linecap:butt;stroke-linejoin:miter;stroke:rgb(13.730068%,12.159915%,12.54902%);stroke-opacity:1;stroke-miterlimit:4;" d="M 301.632812 421.375 L 301.632812 428.125 L 294.882812 428.125 L 294.882812 421.375 L 301.632812 421.375 Z M 301.632812 421.375 " transform="matrix(1,0,0,-1,0,793)"/>
<path style="fill-rule:nonzero;fill:rgb(100%,100%,100%);fill-opacity:1;stroke-width:1.5;stroke-linecap:butt;stroke-linejoin:miter;stroke:rgb(13.730068%,12.159915%,12.54902%);stroke-opacity:1;stroke-miterlimit:4;" d="M 308.257812 421.375 L 308.257812 428.125 L 301.507812 428.125 L 301.507812 421.375 L 308.257812 421.375 Z M 308.257812 421.375 " transform="matrix(1,0,0,-1,0,793)"/>
<path style="fill-rule:nonzero;fill:rgb(100%,100%,100%);fill-opacity:1;stroke-width:1.5;stroke-linecap:butt;stroke-linejoin:miter;stroke:rgb(13.730068%,12.159915%,12.54902%);stroke-opacity:1;stroke-miterlimit:4;" d="M 315.007812 421.375 L 315.007812 428.125 L 308.257812 428.125 L 308.257812 421.375 L 315.007812 421.375 Z M 315.007812 421.375 " transform="matrix(1,0,0,-1,0,793)"/>
<path style="fill-rule:nonzero;fill:rgb(100%,100%,100%);fill-opacity:1;stroke-width:1.5;stroke-linecap:butt;stroke-linejoin:miter;stroke:rgb(13.730068%,12.159915%,12.54902%);stroke-opacity:1;stroke-miterlimit:4;" d="M 321.757812 421.375 L 321.757812 428.125 L 315.007812 428.125 L 315.007812 421.375 L 321.757812 421.375 Z M 321.757812 421.375 " transform="matrix(1,0,0,-1,0,793)"/>
<path style="fill-rule:nonzero;fill:rgb(100%,100%,100%);fill-opacity:1;stroke-width:1.5;stroke-linecap:butt;stroke-linejoin:miter;stroke:rgb(13.730068%,12.159915%,12.54902%);stroke-opacity:1;stroke-miterlimit:4;" d="M 328.507812 421.375 L 328.507812 428.125 L 321.757812 428.125 L 321.757812 421.375 L 328.507812 421.375 Z M 328.507812 421.375 " transform="matrix(1,0,0,-1,0,793)"/>
<path style="fill-rule:nonzero;fill:rgb(100%,100%,100%);fill-opacity:1;stroke-width:1.5;stroke-linecap:butt;stroke-linejoin:miter;stroke:rgb(13.730068%,12.159915%,12.54902%);stroke-opacity:1;stroke-miterlimit:4;" d="M 301.632812 414.625 L 301.632812 421.375 L 294.882812 421.375 L 294.882812 414.625 L 301.632812 414.625 Z M 301.632812 414.625 " transform="matrix(1,0,0,-1,0,793)"/>
<path style="fill-rule:nonzero;fill:rgb(100%,100%,100%);fill-opacity:1;stroke-width:1.5;stroke-linecap:butt;stroke-linejoin:miter;stroke:rgb(13.730068%,12.159915%,12.54902%);stroke-opacity:1;stroke-miterlimit:4;" d="M 308.257812 414.625 L 308.257812 421.375 L 301.507812 421.375 L 301.507812 414.625 L 308.257812 414.625 Z M 308.257812 414.625 " transform="matrix(1,0,0,-1,0,793)"/>
<path style="fill-rule:nonzero;fill:rgb(100%,100%,100%);fill-opacity:1;stroke-width:1.5;stroke-linecap:butt;stroke-linejoin:miter;stroke:rgb(13.730068%,12.159915%,12.54902%);stroke-opacity:1;stroke-miterlimit:4;" d="M 315.007812 414.625 L 315.007812 421.375 L 308.257812 421.375 L 308.257812 414.625 L 315.007812 414.625 Z M 315.007812 414.625 " transform="matrix(1,0,0,-1,0,793)"/>
<path style="fill-rule:nonzero;fill:rgb(100%,100%,100%);fill-opacity:1;stroke-width:1.5;stroke-linecap:butt;stroke-linejoin:miter;stroke:rgb(13.730068%,12.159915%,12.54902%);stroke-opacity:1;stroke-miterlimit:4;" d="M 321.757812 414.625 L 321.757812 421.375 L 315.007812 421.375 L 315.007812 414.625 L 321.757812 414.625 Z M 321.757812 414.625 " transform="matrix(1,0,0,-1,0,793)"/>
<path style="fill-rule:nonzero;fill:rgb(100%,100%,100%);fill-opacity:1;stroke-width:1.5;stroke-linecap:butt;stroke-linejoin:miter;stroke:rgb(13.730068%,12.159915%,12.54902%);stroke-opacity:1;stroke-miterlimit:4;" d="M 328.507812 414.625 L 328.507812 421.375 L 321.757812 421.375 L 321.757812 414.625 L 328.507812 414.625 Z M 328.507812 414.625 " transform="matrix(1,0,0,-1,0,793)"/>

</svg>