<svg xmlns="http://www.w3.org/2000/svg" xmlns:xlink="http://www.w3.org/1999/xlink" width="612pt" height="792pt" viewBox="0 0 612 792" version="1.1">

<!-- Drive (8) -->
<path style="fill-rule:nonzero;fill:rgb(100%,100%,100%);fill-opacity:1;stroke-width:0.75;stroke-linecap:butt;stroke-linejoin:miter;stroke:rgb(13.730068%,12.159915%,12.54902%);stroke-opacity:1;stroke-miterlimit:4;" d="M 409.742188 399.5 L 409.742188 408.5 L 405.242188 413 L 405.242188 417.5 L 409.742188 422 L 409.742188 425.375 L 416.492188 432.125 L 436.742188 432.125 L 443.492188 425.375 L 443.492188 422 L 447.992188 417.5 L 447.992188 413 L 443.492188 408.5 L 443.492188 399.5 L 438.992188 395 L 436.742188 397.25 L 434.492188 397.25 L 434.492188 395 L 418.742188 395 L 418.742188 397.25 L 416.492188 397.25 L 414.242188 395 L 409.742188 399.5 Z M 409.742188 399.5 " transform="matrix(1,0,0,-1,0,792)"/>

<!-- Annotation -->
<path style="opacity:0.5;fill:#ffffff;fill-opacity:1;fill-rule:nonzero;stroke:#ff1e1e;stroke-width:1.5;stroke-linecap:butt;stroke-linejoin:miter;stroke-miterlimit:4;stroke-opacity:1" d="m 430.03977,396.0739 0,-6.75 -6.75,0 0,6.75 6.75,0 z m 0,0"/>
     
<!-- Damage Boxes -->
<path style="fill-rule:nonzero;fill:rgb(100%,100%,100%);fill-opacity:1;stroke-width:1.5;stroke-linecap:butt;stroke-linejoin:miter;stroke:rgb(13.730068%,12.159915%,12.54902%);stroke-opacity:1;stroke-miterlimit:4;" d="M 426.617188 417.5 L 426.617188 424.25 L 419.867188 424.25 L 419.867188 417.5 L 426.617188 417.5 Z M 426.617188 417.5 " transform="matrix(1,0,0,-1,0,792)"/>
<path style="fill-rule:nonzero;fill:rgb(100%,100%,100%);fill-opacity:1;stroke-width:1.5;stroke-linecap:butt;stroke-linejoin:miter;stroke:rgb(13.730068%,12.159915%,12.54902%);stroke-opacity:1;stroke-miterlimit:4;" d="M 433.367188 417.5 L 433.367188 424.25 L 426.617188 424.25 L 426.617188 417.5 L 433.367188 417.5 Z M 433.367188 417.5 " transform="matrix(1,0,0,-1,0,792)"/>
<path style="fill-rule:nonzero;fill:rgb(100%,100%,100%);fill-opacity:1;stroke-width:1.5;stroke-linecap:butt;stroke-linejoin:miter;stroke:rgb(13.730068%,12.159915%,12.54902%);stroke-opacity:1;stroke-miterlimit:4;" d="M 423.242188 410.75 L 423.242188 417.5 L 416.492188 417.5 L 416.492188 410.75 L 423.242188 410.75 Z M 423.242188 410.75 " transform="matrix(1,0,0,-1,0,792)"/>
<path style="fill-rule:nonzero;fill:rgb(100%,100%,100%);fill-opacity:1;stroke-width:1.5;stroke-linecap:butt;stroke-linejoin:miter;stroke:rgb(13.730068%,12.159915%,12.54902%);stroke-opacity:1;stroke-miterlimit:4;" d="M 429.992188 410.75 L 429.992188 417.5 L 423.242188 417.5 L 423.242188 410.75 L 429.992188 410.75 Z M 429.992188 410.75 " transform="matrix(1,0,0,-1,0,792)"/>
<path style="fill-rule:nonzero;fill:rgb(100%,100%,100%);fill-opacity:1;stroke-width:1.5;stroke-linecap:butt;stroke-linejoin:miter;stroke:rgb(13.730068%,12.159915%,12.54902%);stroke-opacity:1;stroke-miterlimit:4;" d="M 436.742188 410.75 L 436.742188 417.5 L 429.992188 417.5 L 429.992188 410.75 L 436.742188 410.75 Z M 436.742188 410.75 " transform="matrix(1,0,0,-1,0,792)"/>
<path style="fill-rule:nonzero;fill:rgb(100%,100%,100%);fill-opacity:1;stroke-width:1.5;stroke-linecap:butt;stroke-linejoin:miter;stroke:rgb(13.730068%,12.159915%,12.54902%);stroke-opacity:1;stroke-miterlimit:4;" d="M 423.242188 404 L 423.242188 410.75 L 416.492188 410.75 L 416.492188 404 L 423.242188 404 Z M 423.242188 404 " transform="matrix(1,0,0,-1,0,792)"/>
<path style="fill-rule:nonzero;fill:rgb(100%,100%,100%);fill-opacity:1;stroke-width:1.5;stroke-linecap:butt;stroke-linejoin:miter;stroke:rgb(13.730068%,12.159915%,12.54902%);stroke-opacity:1;stroke-miterlimit:4;" d="M 429.992188 404 L 429.992188 410.75 L 423.242188 410.75 L 423.242188 404 L 429.992188 404 Z M 429.992188 404 " transform="matrix(1,0,0,-1,0,792)"/>
<path style="fill-rule:nonzero;fill:rgb(100%,100%,100%);fill-opacity:1;stroke-width:1.5;stroke-linecap:butt;stroke-linejoin:miter;stroke:rgb(13.730068%,12.159915%,12.54902%);stroke-opacity:1;stroke-miterlimit:4;" d="M 436.742188 404 L 436.742188 410.75 L 429.992188 410.75 L 429.992188 404 L 436.742188 404 Z M 436.742188 404 " transform="matrix(1,0,0,-1,0,792)"/>

</svg>