<svg xmlns="http://www.w3.org/2000/svg" xmlns:xlink="http://www.w3.org/1999/xlink" width="612pt" height="792pt" viewBox="0 0 612 792" version="1.1">

<!-- Drive (11) -->
<path style="fill-rule:nonzero;fill:rgb(100%,100%,100%);fill-opacity:1;stroke-width:0.75;stroke-linecap:butt;stroke-linejoin:miter;stroke:rgb(13.730068%,12.159915%,12.54902%);stroke-opacity:1;stroke-miterlimit:4;" d="M 443.25 112.753906 L 443.25 115.003906 L 438.75 119.503906 L 438.75 130.753906 L 443.25 135.253906 L 443.25 137.503906 L 450 142.003906 L 479.25 142.003906 L 486 137.503906 L 486 135.253906 L 490.5 130.753906 L 490.5 119.503906 L 486 115.003906 L 486 112.753906 L 481.5 108.253906 L 479.25 110.503906 L 470.25 110.503906 L 470.25 108.253906 L 459 108.253906 L 459 110.503906 L 450 110.503906 L 447.75 108.253906 L 443.25 112.753906 Z M 443.25 112.753906 " transform="matrix(1,0,0,-1,0,793)"/>

<!-- Annotation -->
<path style="opacity:0.5;fill:#ffffff;fill-opacity:1;fill-rule:nonzero;stroke:#ff1e1e;stroke-width:1.5;stroke-linecap:butt;stroke-linejoin:miter;stroke-miterlimit:4;stroke-opacity:1" d="m 467.99883,683.77873 0,-6.75 -6.75,0 0,6.75 6.75,0 z m 0,0"/>

<!-- Damage Boxes -->
<path style="fill-rule:nonzero;fill:rgb(100%,100%,100%);fill-opacity:1;stroke-width:1.5;stroke-linecap:butt;stroke-linejoin:miter;stroke:rgb(13.730068%,12.159915%,12.54902%);stroke-opacity:1;stroke-miterlimit:4;" d="M 468 130.753906 L 468 137.503906 L 461.25 137.503906 L 461.25 130.753906 L 468 130.753906 Z M 468 130.753906 " transform="matrix(1,0,0,-1,0,793)"/>
<path style="fill-rule:nonzero;fill:rgb(100%,100%,100%);fill-opacity:1;stroke-width:1.5;stroke-linecap:butt;stroke-linejoin:miter;stroke:rgb(13.730068%,12.159915%,12.54902%);stroke-opacity:1;stroke-miterlimit:4;" d="M 454.5 124.003906 L 454.5 130.753906 L 447.75 130.753906 L 447.75 124.003906 L 454.5 124.003906 Z M 454.5 124.003906 " transform="matrix(1,0,0,-1,0,793)"/>
<path style="fill-rule:nonzero;fill:rgb(100%,100%,100%);fill-opacity:1;stroke-width:1.5;stroke-linecap:butt;stroke-linejoin:miter;stroke:rgb(13.730068%,12.159915%,12.54902%);stroke-opacity:1;stroke-miterlimit:4;" d="M 461.25 124.003906 L 461.25 130.753906 L 454.5 130.753906 L 454.5 124.003906 L 461.25 124.003906 Z M 461.25 124.003906 " transform="matrix(1,0,0,-1,0,793)"/>
<path style="fill-rule:nonzero;fill:rgb(100%,100%,100%);fill-opacity:1;stroke-width:1.5;stroke-linecap:butt;stroke-linejoin:miter;stroke:rgb(13.730068%,12.159915%,12.54902%);stroke-opacity:1;stroke-miterlimit:4;" d="M 468 124.003906 L 468 130.753906 L 461.25 130.753906 L 461.25 124.003906 L 468 124.003906 Z M 468 124.003906 " transform="matrix(1,0,0,-1,0,793)"/>
<path style="fill-rule:nonzero;fill:rgb(100%,100%,100%);fill-opacity:1;stroke-width:1.5;stroke-linecap:butt;stroke-linejoin:miter;stroke:rgb(13.730068%,12.159915%,12.54902%);stroke-opacity:1;stroke-miterlimit:4;" d="M 474.75 124.003906 L 474.75 130.753906 L 468 130.753906 L 468 124.003906 L 474.75 124.003906 Z M 474.75 124.003906 " transform="matrix(1,0,0,-1,0,793)"/>
<path style="fill-rule:nonzero;fill:rgb(100%,100%,100%);fill-opacity:1;stroke-width:1.5;stroke-linecap:butt;stroke-linejoin:miter;stroke:rgb(13.730068%,12.159915%,12.54902%);stroke-opacity:1;stroke-miterlimit:4;" d="M 481.5 124.003906 L 481.5 130.753906 L 474.75 130.753906 L 474.75 124.003906 L 481.5 124.003906 Z M 481.5 124.003906 " transform="matrix(1,0,0,-1,0,793)"/>
<path style="fill-rule:nonzero;fill:rgb(100%,100%,100%);fill-opacity:1;stroke-width:1.5;stroke-linecap:butt;stroke-linejoin:miter;stroke:rgb(13.730068%,12.159915%,12.54902%);stroke-opacity:1;stroke-miterlimit:4;" d="M 454.519531 117.253906 L 454.519531 124.003906 L 447.769531 124.003906 L 447.769531 117.253906 L 454.519531 117.253906 Z M 454.519531 117.253906 " transform="matrix(1,0,0,-1,0,793)"/>
<path style="fill-rule:nonzero;fill:rgb(100%,100%,100%);fill-opacity:1;stroke-width:1.5;stroke-linecap:butt;stroke-linejoin:miter;stroke:rgb(13.730068%,12.159915%,12.54902%);stroke-opacity:1;stroke-miterlimit:4;" d="M 461.269531 117.253906 L 461.269531 124.003906 L 454.519531 124.003906 L 454.519531 117.253906 L 461.269531 117.253906 Z M 461.269531 117.253906 " transform="matrix(1,0,0,-1,0,793)"/>
<path style="fill-rule:nonzero;fill:rgb(100%,100%,100%);fill-opacity:1;stroke-width:1.5;stroke-linecap:butt;stroke-linejoin:miter;stroke:rgb(13.730068%,12.159915%,12.54902%);stroke-opacity:1;stroke-miterlimit:4;" d="M 468.019531 117.253906 L 468.019531 124.003906 L 461.269531 124.003906 L 461.269531 117.253906 L 468.019531 117.253906 Z M 468.019531 117.253906 " transform="matrix(1,0,0,-1,0,793)"/>
<path style="fill-rule:nonzero;fill:rgb(100%,100%,100%);fill-opacity:1;stroke-width:1.5;stroke-linecap:butt;stroke-linejoin:miter;stroke:rgb(13.730068%,12.159915%,12.54902%);stroke-opacity:1;stroke-miterlimit:4;" d="M 474.769531 117.253906 L 474.769531 124.003906 L 468.019531 124.003906 L 468.019531 117.253906 L 474.769531 117.253906 Z M 474.769531 117.253906 " transform="matrix(1,0,0,-1,0,793)"/>
<path style="fill-rule:nonzero;fill:rgb(100%,100%,100%);fill-opacity:1;stroke-width:1.5;stroke-linecap:butt;stroke-linejoin:miter;stroke:rgb(13.730068%,12.159915%,12.54902%);stroke-opacity:1;stroke-miterlimit:4;" d="M 481.519531 117.253906 L 481.519531 124.003906 L 474.769531 124.003906 L 474.769531 117.253906 L 481.519531 117.253906 Z M 481.519531 117.253906 " transform="matrix(1,0,0,-1,0,793)"/>

</svg>