<svg xmlns="http://www.w3.org/2000/svg" xmlns:xlink="http://www.w3.org/1999/xlink" width="612pt" height="792pt" viewBox="0 0 612 792" version="1.1">

<!-- Drive (9) -->
<path style="fill-rule:nonzero;fill:rgb(100%,100%,100%);fill-opacity:1;stroke-width:0.75;stroke-linecap:butt;stroke-linejoin:miter;stroke:rgb(13.730068%,12.159915%,12.54902%);stroke-opacity:1;stroke-miterlimit:4;" d="M 403.761719 349.476562 L 403.761719 358.476562 L 399.261719 362.976562 L 399.261719 367.476562 L 403.761719 371.976562 L 403.761719 374.226562 L 410.511719 380.976562 L 430.761719 380.976562 L 437.511719 374.226562 L 437.511719 371.976562 L 442.011719 367.476562 L 442.011719 362.976562 L 437.511719 358.476562 L 437.511719 349.476562 L 433.011719 344.976562 L 430.761719 347.226562 L 428.511719 347.226562 L 428.511719 344.976562 L 412.761719 344.976562 L 412.761719 347.226562 L 410.511719 347.226562 L 408.261719 344.976562 L 403.761719 349.476562 Z M 403.761719 349.476562 " transform="matrix(1,0,0,-1,0,792)"/>

<!-- Annotation -->
<path style="opacity:0.5;fill:#ffffff;fill-opacity:1;fill-rule:nonzero;stroke:#ff1e1e;stroke-width:1.5;stroke-linecap:butt;stroke-linejoin:miter;stroke-miterlimit:4;stroke-opacity:1" d="m 423.98068,446.06799 0,-6.75 -6.75,0 0,6.75 6.75,0 z m 0,0"/>
     
<!-- Damage Boxes -->
<path style="fill-rule:nonzero;fill:rgb(100%,100%,100%);fill-opacity:1;stroke-width:1.5;stroke-linecap:butt;stroke-linejoin:miter;stroke:rgb(13.730068%,12.159915%,12.54902%);stroke-opacity:1;stroke-miterlimit:4;" d="M 417.261719 367.476562 L 417.261719 374.226562 L 410.511719 374.226562 L 410.511719 367.476562 L 417.261719 367.476562 Z M 417.261719 367.476562 " transform="matrix(1,0,0,-1,0,792)"/>
<path style="fill-rule:nonzero;fill:rgb(100%,100%,100%);fill-opacity:1;stroke-width:1.5;stroke-linecap:butt;stroke-linejoin:miter;stroke:rgb(13.730068%,12.159915%,12.54902%);stroke-opacity:1;stroke-miterlimit:4;" d="M 424.011719 367.476562 L 424.011719 374.226562 L 417.261719 374.226562 L 417.261719 367.476562 L 424.011719 367.476562 Z M 424.011719 367.476562 " transform="matrix(1,0,0,-1,0,792)"/>
<path style="fill-rule:nonzero;fill:rgb(100%,100%,100%);fill-opacity:1;stroke-width:1.5;stroke-linecap:butt;stroke-linejoin:miter;stroke:rgb(13.730068%,12.159915%,12.54902%);stroke-opacity:1;stroke-miterlimit:4;" d="M 430.761719 367.476562 L 430.761719 374.226562 L 424.011719 374.226562 L 424.011719 367.476562 L 430.761719 367.476562 Z M 430.761719 367.476562 " transform="matrix(1,0,0,-1,0,792)"/>
<path style="fill-rule:nonzero;fill:rgb(100%,100%,100%);fill-opacity:1;stroke-width:1.5;stroke-linecap:butt;stroke-linejoin:miter;stroke:rgb(13.730068%,12.159915%,12.54902%);stroke-opacity:1;stroke-miterlimit:4;" d="M 417.261719 360.726562 L 417.261719 367.476562 L 410.511719 367.476562 L 410.511719 360.726562 L 417.261719 360.726562 Z M 417.261719 360.726562 " transform="matrix(1,0,0,-1,0,792)"/>
<path style="fill-rule:nonzero;fill:rgb(100%,100%,100%);fill-opacity:1;stroke-width:1.5;stroke-linecap:butt;stroke-linejoin:miter;stroke:rgb(13.730068%,12.159915%,12.54902%);stroke-opacity:1;stroke-miterlimit:4;" d="M 424.011719 360.726562 L 424.011719 367.476562 L 417.261719 367.476562 L 417.261719 360.726562 L 424.011719 360.726562 Z M 424.011719 360.726562 " transform="matrix(1,0,0,-1,0,792)"/>
<path style="fill-rule:nonzero;fill:rgb(100%,100%,100%);fill-opacity:1;stroke-width:1.5;stroke-linecap:butt;stroke-linejoin:miter;stroke:rgb(13.730068%,12.159915%,12.54902%);stroke-opacity:1;stroke-miterlimit:4;" d="M 430.761719 360.726562 L 430.761719 367.476562 L 424.011719 367.476562 L 424.011719 360.726562 L 430.761719 360.726562 Z M 430.761719 360.726562 " transform="matrix(1,0,0,-1,0,792)"/>
<path style="fill-rule:nonzero;fill:rgb(100%,100%,100%);fill-opacity:1;stroke-width:1.5;stroke-linecap:butt;stroke-linejoin:miter;stroke:rgb(13.730068%,12.159915%,12.54902%);stroke-opacity:1;stroke-miterlimit:4;" d="M 417.261719 353.976562 L 417.261719 360.726562 L 410.511719 360.726562 L 410.511719 353.976562 L 417.261719 353.976562 Z M 417.261719 353.976562 " transform="matrix(1,0,0,-1,0,792)"/>
<path style="fill-rule:nonzero;fill:rgb(100%,100%,100%);fill-opacity:1;stroke-width:1.5;stroke-linecap:butt;stroke-linejoin:miter;stroke:rgb(13.730068%,12.159915%,12.54902%);stroke-opacity:1;stroke-miterlimit:4;" d="M 424.011719 353.976562 L 424.011719 360.726562 L 417.261719 360.726562 L 417.261719 353.976562 L 424.011719 353.976562 Z M 424.011719 353.976562 " transform="matrix(1,0,0,-1,0,792)"/>
<path style="fill-rule:nonzero;fill:rgb(100%,100%,100%);fill-opacity:1;stroke-width:1.5;stroke-linecap:butt;stroke-linejoin:miter;stroke:rgb(13.730068%,12.159915%,12.54902%);stroke-opacity:1;stroke-miterlimit:4;" d="M 430.761719 353.976562 L 430.761719 360.726562 L 424.011719 360.726562 L 424.011719 353.976562 L 430.761719 353.976562 Z M 430.761719 353.976562 " transform="matrix(1,0,0,-1,0,792)"/>

</svg>