<svg xmlns="http://www.w3.org/2000/svg" xmlns:xlink="http://www.w3.org/1999/xlink" width="612pt" height="792pt" viewBox="0 0 612 792" version="1.1">

<!-- Dual Ion Bolter -->
<path style="fill-rule:nonzero;fill:rgb(100%,100%,100%);fill-opacity:1;stroke-width:0.75;stroke-linecap:butt;stroke-linejoin:miter;stroke:rgb(13.730068%,12.159915%,12.54902%);stroke-opacity:1;stroke-miterlimit:4;" d="M 518.832031 346.5 L 518.832031 369.25 L 521.085938 369.25 L 523.332031 378.25 L 523.332031 378.25 L 525.585938 369.25 L 535.75 369.25 L 538 378.25 L 538 378.25 L 540.25 369.25 L 542.5 369.25 L 542.5 346.5 L 518.832031 346.5 Z M 518.832031 346.5 " transform="matrix(1,0,0,-1,0,793)"/>
<path style="fill-rule:nonzero;fill:rgb(100%,100%,100%);fill-opacity:1;stroke-width:0.75;stroke-linecap:butt;stroke-linejoin:miter;stroke:rgb(13.730068%,12.159915%,12.54902%);stroke-opacity:1;stroke-miterlimit:4;" d="M 523 371.5 C 530.246094 371.5 529.75 378.25 529.75 378.25 C 529.75 378.25 529.640625 374.882812 523 375 C 516.085938 375.125 516.25 378.25 516.25 378.25 C 516.25 378.25 516.085938 371.5 523 371.5 Z M 523 371.5 " transform="matrix(1,0,0,-1,0,793)"/>
<path style="fill-rule:nonzero;fill:rgb(100%,100%,100%);fill-opacity:1;stroke-width:0.75;stroke-linecap:butt;stroke-linejoin:miter;stroke:rgb(13.730068%,12.159915%,12.54902%);stroke-opacity:1;stroke-miterlimit:4;" d="M 537.667969 371.5 C 544.914062 371.5 544.417969 378.25 544.417969 378.25 C 544.417969 378.25 544.308594 374.882812 537.667969 375 C 530.75 375.125 530.917969 378.25 530.917969 378.25 C 530.917969 378.25 530.753906 371.5 537.667969 371.5 Z M 537.667969 371.5 " transform="matrix(1,0,0,-1,0,793)"/>

<!-- Damage Boxes -->
<path style="fill-rule:nonzero;fill:rgb(100%,100%,100%);fill-opacity:1;stroke-width:1.5;stroke-linecap:butt;stroke-linejoin:miter;stroke:rgb(13.730068%,12.159915%,12.54902%);stroke-opacity:1;stroke-miterlimit:4;" d="M 531 357.75 L 531 364.5 L 524.25 364.5 L 524.25 357.75 L 531 357.75 Z M 531 357.75 " transform="matrix(1,0,0,-1,0,793)"/>
<path style="fill-rule:nonzero;fill:rgb(100%,100%,100%);fill-opacity:1;stroke-width:1.5;stroke-linecap:butt;stroke-linejoin:miter;stroke:rgb(13.730068%,12.159915%,12.54902%);stroke-opacity:1;stroke-miterlimit:4;" d="M 537.75 357.75 L 537.75 364.5 L 531 364.5 L 531 357.75 L 537.75 357.75 Z M 537.75 357.75 " transform="matrix(1,0,0,-1,0,793)"/>
<path style="fill-rule:nonzero;fill:rgb(100%,100%,100%);fill-opacity:1;stroke-width:1.5;stroke-linecap:butt;stroke-linejoin:miter;stroke:rgb(13.730068%,12.159915%,12.54902%);stroke-opacity:1;stroke-miterlimit:4;" d="M 531 351 L 531 357.75 L 524.25 357.75 L 524.25 351 L 531 351 Z M 531 351 " transform="matrix(1,0,0,-1,0,793)"/>
<path style="fill-rule:nonzero;fill:rgb(100%,100%,100%);fill-opacity:1;stroke-width:1.5;stroke-linecap:butt;stroke-linejoin:miter;stroke:rgb(13.730068%,12.159915%,12.54902%);stroke-opacity:1;stroke-miterlimit:4;" d="M 537.75 351 L 537.75 357.75 L 531 357.75 L 531 351 L 537.75 351 Z M 537.75 351 " transform="matrix(1,0,0,-1,0,793)"/>

</svg>