<svg xmlns="http://www.w3.org/2000/svg" xmlns:xlink="http://www.w3.org/1999/xlink" width="612pt" height="792pt" viewBox="0 0 612 792" version="1.1">

<!-- Plasma Stream -->
<path style="fill-rule:nonzero;fill:rgb(100%,100%,100%);fill-opacity:1;stroke-width:0.75;stroke-linecap:butt;stroke-linejoin:miter;stroke:rgb(13.730068%,12.159915%,12.54902%);stroke-opacity:1;stroke-miterlimit:4;" d="M 288 495 L 288 521.832031 L 293.125 531 L 293.125 521.832031 L 297.625 517.332031 L 302.125 542.082031 L 302.125 530.832031 L 304.375 530.832031 L 304.375 542.082031 L 308.875 517.5 L 311.125 517.5 L 315.625 542.25 L 315.625 531 L 317.875 531 L 317.875 542.25 L 322.375 517.5 L 326.875 522 L 326.875 531 L 330.75 521.832031 L 330.75 495 L 288 495 " transform="matrix(1,0,0,-1,17,773)"/>

<!-- Damage Boxes -->
<path style="fill-rule:nonzero;fill:rgb(100%,100%,100%);fill-opacity:1;stroke-width:1.5;stroke-linecap:butt;stroke-linejoin:miter;stroke:rgb(13.730068%,12.159915%,12.54902%);stroke-opacity:1;stroke-miterlimit:4;" d="M 299.25 506.25 L 299.25 513 L 292.5 513 L 292.5 506.25 L 299.25 506.25 Z M 299.25 506.25 " transform="matrix(1,0,0,-1,17,773)"/>
<path style="fill-rule:nonzero;fill:rgb(100%,100%,100%);fill-opacity:1;stroke-width:1.5;stroke-linecap:butt;stroke-linejoin:miter;stroke:rgb(13.730068%,12.159915%,12.54902%);stroke-opacity:1;stroke-miterlimit:4;" d="M 306 506.25 L 306 513 L 299.25 513 L 299.25 506.25 L 306 506.25 Z M 306 506.25 " transform="matrix(1,0,0,-1,17,773)"/>
<path style="fill-rule:nonzero;fill:rgb(100%,100%,100%);fill-opacity:1;stroke-width:1.5;stroke-linecap:butt;stroke-linejoin:miter;stroke:rgb(13.730068%,12.159915%,12.54902%);stroke-opacity:1;stroke-miterlimit:4;" d="M 312.75 506.25 L 312.75 513 L 306 513 L 306 506.25 L 312.75 506.25 Z M 312.75 506.25 " transform="matrix(1,0,0,-1,17,773)"/>
<path style="fill-rule:nonzero;fill:rgb(100%,100%,100%);fill-opacity:1;stroke-width:1.5;stroke-linecap:butt;stroke-linejoin:miter;stroke:rgb(13.730068%,12.159915%,12.54902%);stroke-opacity:1;stroke-miterlimit:4;" d="M 319.5 506.25 L 319.5 513 L 312.75 513 L 312.75 506.25 L 319.5 506.25 Z M 319.5 506.25 " transform="matrix(1,0,0,-1,17,773)"/>
<path style="fill-rule:nonzero;fill:rgb(100%,100%,100%);fill-opacity:1;stroke-width:1.5;stroke-linecap:butt;stroke-linejoin:miter;stroke:rgb(13.730068%,12.159915%,12.54902%);stroke-opacity:1;stroke-miterlimit:4;" d="M 326.25 506.25 L 326.25 513 L 319.5 513 L 319.5 506.25 L 326.25 506.25 Z M 326.25 506.25 " transform="matrix(1,0,0,-1,17,773)"/>
<path style="fill-rule:nonzero;fill:rgb(100%,100%,100%);fill-opacity:1;stroke-width:1.5;stroke-linecap:butt;stroke-linejoin:miter;stroke:rgb(13.730068%,12.159915%,12.54902%);stroke-opacity:1;stroke-miterlimit:4;" d="M 299.25 499.5 L 299.25 506.25 L 292.5 506.25 L 292.5 499.5 L 299.25 499.5 Z M 299.25 499.5 " transform="matrix(1,0,0,-1,17,773)"/>
<path style="fill-rule:nonzero;fill:rgb(100%,100%,100%);fill-opacity:1;stroke-width:1.5;stroke-linecap:butt;stroke-linejoin:miter;stroke:rgb(13.730068%,12.159915%,12.54902%);stroke-opacity:1;stroke-miterlimit:4;" d="M 306 499.5 L 306 506.25 L 299.25 506.25 L 299.25 499.5 L 306 499.5 Z M 306 499.5 " transform="matrix(1,0,0,-1,17,773)"/>
<path style="fill-rule:nonzero;fill:rgb(100%,100%,100%);fill-opacity:1;stroke-width:1.5;stroke-linecap:butt;stroke-linejoin:miter;stroke:rgb(13.730068%,12.159915%,12.54902%);stroke-opacity:1;stroke-miterlimit:4;" d="M 312.75 499.5 L 312.75 506.25 L 306 506.25 L 306 499.5 L 312.75 499.5 Z M 312.75 499.5 " transform="matrix(1,0,0,-1,17,773)"/>
<path style="fill-rule:nonzero;fill:rgb(100%,100%,100%);fill-opacity:1;stroke-width:1.5;stroke-linecap:butt;stroke-linejoin:miter;stroke:rgb(13.730068%,12.159915%,12.54902%);stroke-opacity:1;stroke-miterlimit:4;" d="M 319.5 499.5 L 319.5 506.25 L 312.75 506.25 L 312.75 499.5 L 319.5 499.5 Z M 319.5 499.5 " transform="matrix(1,0,0,-1,17,773)"/>
<path style="fill-rule:nonzero;fill:rgb(100%,100%,100%);fill-opacity:1;stroke-width:1.5;stroke-linecap:butt;stroke-linejoin:miter;stroke:rgb(13.730068%,12.159915%,12.54902%);stroke-opacity:1;stroke-miterlimit:4;" d="M 326.25 499.5 L 326.25 506.25 L 319.5 506.25 L 319.5 499.5 L 326.25 499.5 Z M 326.25 499.5 " transform="matrix(1,0,0,-1,17,773)"/>

</svg>