<svg xmlns="http://www.w3.org/2000/svg" xmlns:xlink="http://www.w3.org/1999/xlink" width="612pt" height="792pt" viewBox="0 0 612 792" version="1.1">

<!-- Dual Plasma Cannon -->
<path style="fill-rule:nonzero;fill:rgb(100%,100%,100%);fill-opacity:1;stroke-width:0.75;stroke-linecap:butt;stroke-linejoin:miter;stroke:rgb(13.730068%,12.159915%,12.54902%);stroke-opacity:1;stroke-miterlimit:4;" d="M 402.3125 262.1875 L 423.3125 262.1875 L 423.3125 286.1875 L 423.3125 292.1875 L 420.3125 286.1875 L 420.3125 295.1875 L 417.3125 286.1875 L 414.3125 301.1875 L 411.3125 286.1875 L 408.3125 295.1875 L 408.3125 286.1875 L 405.3125 292.1875 L 405.3125 286.1875 L 401.3125 307.1875 L 398.3125 286.1875 L 398.3125 292.1875 L 395.3125 286.1875 L 395.3125 295.1875 L 392.3125 286.1875 L 389.3125 301.1875 L 386.3125 286.1875 L 383.3125 295.1875 L 383.3125 286.1875 L 380.3125 292.1875 L 380.3125 286.1875 L 380.3125 262.1875 L 402.3125 262.1875 Z M 402.3125 262.1875 " transform="matrix(1,0,0,-1,0,793)"/>

<!-- Damage Boxes -->
<path style="fill-rule:nonzero;fill:rgb(100%,100%,100%);fill-opacity:1;stroke-width:1.5;stroke-linecap:butt;stroke-linejoin:miter;stroke:rgb(13.730068%,12.159915%,12.54902%);stroke-opacity:1;stroke-miterlimit:4;" d="M 391.8125 273.4375 L 391.8125 280.1875 L 385.0625 280.1875 L 385.0625 273.4375 L 391.8125 273.4375 Z M 391.8125 273.4375 " transform="matrix(1,0,0,-1,0,793)"/>
<path style="fill-rule:nonzero;fill:rgb(100%,100%,100%);fill-opacity:1;stroke-width:1.5;stroke-linecap:butt;stroke-linejoin:miter;stroke:rgb(13.730068%,12.159915%,12.54902%);stroke-opacity:1;stroke-miterlimit:4;" d="M 398.5625 273.4375 L 398.5625 280.1875 L 391.8125 280.1875 L 391.8125 273.4375 L 398.5625 273.4375 Z M 398.5625 273.4375 " transform="matrix(1,0,0,-1,0,793)"/>
<path style="fill-rule:nonzero;fill:rgb(100%,100%,100%);fill-opacity:1;stroke-width:1.5;stroke-linecap:butt;stroke-linejoin:miter;stroke:rgb(13.730068%,12.159915%,12.54902%);stroke-opacity:1;stroke-miterlimit:4;" d="M 405.3125 273.4375 L 405.3125 280.1875 L 398.5625 280.1875 L 398.5625 273.4375 L 405.3125 273.4375 Z M 405.3125 273.4375 " transform="matrix(1,0,0,-1,0,793)"/>
<path style="fill-rule:nonzero;fill:rgb(100%,100%,100%);fill-opacity:1;stroke-width:1.5;stroke-linecap:butt;stroke-linejoin:miter;stroke:rgb(13.730068%,12.159915%,12.54902%);stroke-opacity:1;stroke-miterlimit:4;" d="M 412.0625 273.4375 L 412.0625 280.1875 L 405.3125 280.1875 L 405.3125 273.4375 L 412.0625 273.4375 Z M 412.0625 273.4375 " transform="matrix(1,0,0,-1,0,793)"/>
<path style="fill-rule:nonzero;fill:rgb(100%,100%,100%);fill-opacity:1;stroke-width:1.5;stroke-linecap:butt;stroke-linejoin:miter;stroke:rgb(13.730068%,12.159915%,12.54902%);stroke-opacity:1;stroke-miterlimit:4;" d="M 418.8125 273.4375 L 418.8125 280.1875 L 412.0625 280.1875 L 412.0625 273.4375 L 418.8125 273.4375 Z M 418.8125 273.4375 " transform="matrix(1,0,0,-1,0,793)"/>
<path style="fill-rule:nonzero;fill:rgb(100%,100%,100%);fill-opacity:1;stroke-width:1.5;stroke-linecap:butt;stroke-linejoin:miter;stroke:rgb(13.730068%,12.159915%,12.54902%);stroke-opacity:1;stroke-miterlimit:4;" d="M 391.8125 266.6875 L 391.8125 273.4375 L 385.0625 273.4375 L 385.0625 266.6875 L 391.8125 266.6875 Z M 391.8125 266.6875 " transform="matrix(1,0,0,-1,0,793)"/>
<path style="fill-rule:nonzero;fill:rgb(100%,100%,100%);fill-opacity:1;stroke-width:1.5;stroke-linecap:butt;stroke-linejoin:miter;stroke:rgb(13.730068%,12.159915%,12.54902%);stroke-opacity:1;stroke-miterlimit:4;" d="M 398.5625 266.6875 L 398.5625 273.4375 L 391.8125 273.4375 L 391.8125 266.6875 L 398.5625 266.6875 Z M 398.5625 266.6875 " transform="matrix(1,0,0,-1,0,793)"/>
<path style="fill-rule:nonzero;fill:rgb(100%,100%,100%);fill-opacity:1;stroke-width:1.5;stroke-linecap:butt;stroke-linejoin:miter;stroke:rgb(13.730068%,12.159915%,12.54902%);stroke-opacity:1;stroke-miterlimit:4;" d="M 405.3125 266.6875 L 405.3125 273.4375 L 398.5625 273.4375 L 398.5625 266.6875 L 405.3125 266.6875 Z M 405.3125 266.6875 " transform="matrix(1,0,0,-1,0,793)"/>
<path style="fill-rule:nonzero;fill:rgb(100%,100%,100%);fill-opacity:1;stroke-width:1.5;stroke-linecap:butt;stroke-linejoin:miter;stroke:rgb(13.730068%,12.159915%,12.54902%);stroke-opacity:1;stroke-miterlimit:4;" d="M 412.0625 266.6875 L 412.0625 273.4375 L 405.3125 273.4375 L 405.3125 266.6875 L 412.0625 266.6875 Z M 412.0625 266.6875 " transform="matrix(1,0,0,-1,0,793)"/>
<path style="fill-rule:nonzero;fill:rgb(100%,100%,100%);fill-opacity:1;stroke-width:1.5;stroke-linecap:butt;stroke-linejoin:miter;stroke:rgb(13.730068%,12.159915%,12.54902%);stroke-opacity:1;stroke-miterlimit:4;" d="M 418.8125 266.6875 L 418.8125 273.4375 L 412.0625 273.4375 L 412.0625 266.6875 L 418.8125 266.6875 Z M 418.8125 266.6875 " transform="matrix(1,0,0,-1,0,793)"/>

</svg>