<svg xmlns="http://www.w3.org/2000/svg" xmlns:xlink="http://www.w3.org/1999/xlink" width="612pt" height="792pt" viewBox="0 0 612 792" version="1.1">

<!-- Dual Burst Beam -->
<path style="fill-rule:nonzero;fill:rgb(100%,100%,100%);fill-opacity:1;stroke-width:0.75;stroke-linecap:butt;stroke-linejoin:miter;stroke:rgb(13.730068%,12.159915%,12.54902%);stroke-opacity:1;stroke-miterlimit:4;" d="M 106.894531 287.414062 L 106.894531 309.914062 L 109.144531 309.914062 L 109.144531 321.167969 L 113.644531 316.667969 L 113.644531 314.417969 L 115.894531 314.417969 L 115.894531 312.167969 L 113.644531 312.167969 L 113.644531 309.917969 L 118.144531 309.914062 L 118.144531 321.167969 L 122.644531 316.667969 L 122.644531 314.417969 L 124.894531 314.417969 L 124.894531 312.167969 L 122.644531 312.167969 L 122.644531 309.914062 L 129.394531 309.914062 L 129.394531 312.167969 L 127.144531 312.167969 L 127.144531 314.417969 L 129.394531 314.417969 L 129.394531 316.667969 L 133.894531 321.167969 L 133.894531 309.914062 L 138.394531 309.914062 L 138.394531 312.167969 L 136.144531 312.167969 L 136.144531 314.417969 L 138.394531 314.417969 L 138.394531 316.667969 L 142.894531 321.167969 L 142.894531 309.914062 L 145.144531 309.914062 L 145.144531 287.414062 L 106.894531 287.414062 Z M 106.894531 287.414062 " transform="matrix(1,0,0,-1,0,793)"/>

<!-- Damage Boxes -->
<path style="fill-rule:nonzero;fill:rgb(100%,100%,100%);fill-opacity:1;stroke-width:1.5;stroke-linecap:butt;stroke-linejoin:miter;stroke:rgb(13.730068%,12.159915%,12.54902%);stroke-opacity:1;stroke-miterlimit:4;" d="M 119.269531 298.667969 L 119.269531 305.417969 L 112.519531 305.417969 L 112.519531 298.667969 L 119.269531 298.667969 Z M 119.269531 298.667969 " transform="matrix(1,0,0,-1,0,793)"/>
<path style="fill-rule:nonzero;fill:rgb(100%,100%,100%);fill-opacity:1;stroke-width:1.5;stroke-linecap:butt;stroke-linejoin:miter;stroke:rgb(13.730068%,12.159915%,12.54902%);stroke-opacity:1;stroke-miterlimit:4;" d="M 126.019531 298.667969 L 126.019531 305.417969 L 119.269531 305.417969 L 119.269531 298.667969 L 126.019531 298.667969 Z M 126.019531 298.667969 " transform="matrix(1,0,0,-1,0,793)"/>
<path style="fill-rule:nonzero;fill:rgb(100%,100%,100%);fill-opacity:1;stroke-width:1.5;stroke-linecap:butt;stroke-linejoin:miter;stroke:rgb(13.730068%,12.159915%,12.54902%);stroke-opacity:1;stroke-miterlimit:4;" d="M 132.769531 298.667969 L 132.769531 305.417969 L 126.019531 305.417969 L 126.019531 298.667969 L 132.769531 298.667969 Z M 132.769531 298.667969 " transform="matrix(1,0,0,-1,0,793)"/>
<path style="fill-rule:nonzero;fill:rgb(100%,100%,100%);fill-opacity:1;stroke-width:1.5;stroke-linecap:butt;stroke-linejoin:miter;stroke:rgb(13.730068%,12.159915%,12.54902%);stroke-opacity:1;stroke-miterlimit:4;" d="M 139.519531 298.667969 L 139.519531 305.417969 L 132.769531 305.417969 L 132.769531 298.667969 L 139.519531 298.667969 Z M 139.519531 298.667969 " transform="matrix(1,0,0,-1,0,793)"/>
<path style="fill-rule:nonzero;fill:rgb(100%,100%,100%);fill-opacity:1;stroke-width:1.5;stroke-linecap:butt;stroke-linejoin:miter;stroke:rgb(13.730068%,12.159915%,12.54902%);stroke-opacity:1;stroke-miterlimit:4;" d="M 119.269531 291.917969 L 119.269531 298.667969 L 112.519531 298.667969 L 112.519531 291.917969 L 119.269531 291.917969 Z M 119.269531 291.917969 " transform="matrix(1,0,0,-1,0,793)"/>
<path style="fill-rule:nonzero;fill:rgb(100%,100%,100%);fill-opacity:1;stroke-width:1.5;stroke-linecap:butt;stroke-linejoin:miter;stroke:rgb(13.730068%,12.159915%,12.54902%);stroke-opacity:1;stroke-miterlimit:4;" d="M 126.019531 291.917969 L 126.019531 298.667969 L 119.269531 298.667969 L 119.269531 291.917969 L 126.019531 291.917969 Z M 126.019531 291.917969 " transform="matrix(1,0,0,-1,0,793)"/>
<path style="fill-rule:nonzero;fill:rgb(100%,100%,100%);fill-opacity:1;stroke-width:1.5;stroke-linecap:butt;stroke-linejoin:miter;stroke:rgb(13.730068%,12.159915%,12.54902%);stroke-opacity:1;stroke-miterlimit:4;" d="M 132.769531 291.917969 L 132.769531 298.667969 L 126.019531 298.667969 L 126.019531 291.917969 L 132.769531 291.917969 Z M 132.769531 291.917969 " transform="matrix(1,0,0,-1,0,793)"/>
<path style="fill-rule:nonzero;fill:rgb(100%,100%,100%);fill-opacity:1;stroke-width:1.5;stroke-linecap:butt;stroke-linejoin:miter;stroke:rgb(13.730068%,12.159915%,12.54902%);stroke-opacity:1;stroke-miterlimit:4;" d="M 139.519531 291.917969 L 139.519531 298.667969 L 132.769531 298.667969 L 132.769531 291.917969 L 139.519531 291.917969 Z M 139.519531 291.917969 " transform="matrix(1,0,0,-1,0,793)"/>

</svg>