<svg xmlns="http://www.w3.org/2000/svg" xmlns:xlink="http://www.w3.org/1999/xlink" width="612pt" height="792pt" viewBox="0 0 612 792" version="1.1">

<!-- EM Bolter -->
<path style="fill-rule:nonzero;fill:rgb(100%,100%,100%);fill-opacity:1;stroke-width:0.75;stroke-linecap:butt;stroke-linejoin:miter;stroke:rgb(13.730068%,12.159915%,12.54902%);stroke-opacity:1;stroke-miterlimit:4;" d="M 306 582.75 L 308.25 594 L 310.5 594 L 312.75 582.75 L 306 582.75 Z M 306 582.75 " transform="matrix(1,0,0,-1,169,968)"/>
<path style="fill-rule:nonzero;fill:rgb(100%,100%,100%);fill-opacity:1;stroke-width:0.75;stroke-linecap:butt;stroke-linejoin:miter;stroke:rgb(13.730068%,12.159915%,12.54902%);stroke-opacity:1;stroke-miterlimit:4;" d="M 294.75 542.25 L 294.75 571.5 L 301.5 578.25 L 297 582.75 L 301.5 587.25 L 306 582.75 L 312.75 582.75 L 317.25 587.25 L 321.75 582.75 L 317.25 578.25 L 324 571.5 L 324 542.25 L 294.75 542.25 Z M 294.75 542.25 " transform="matrix(1,0,0,-1,169,968)"/>

<!-- Damage Boxes -->
<path style="fill-rule:nonzero;fill:rgb(100%,100%,100%);fill-opacity:1;stroke-width:1.5;stroke-linecap:butt;stroke-linejoin:miter;stroke:rgb(13.730068%,12.159915%,12.54902%);stroke-opacity:1;stroke-miterlimit:4;" d="M 312.75 567 L 312.75 573.75 L 306 573.75 L 306 567 L 312.75 567 Z M 312.75 567 " transform="matrix(1,0,0,-1,169,968)"/>
<path style="fill-rule:nonzero;fill:rgb(100%,100%,100%);fill-opacity:1;stroke-width:1.5;stroke-linecap:butt;stroke-linejoin:miter;stroke:rgb(13.730068%,12.159915%,12.54902%);stroke-opacity:1;stroke-miterlimit:4;" d="M 306 560.25 L 306 567 L 299.25 567 L 299.25 560.25 L 306 560.25 Z M 306 560.25 " transform="matrix(1,0,0,-1,169,968)"/>
<path style="fill-rule:nonzero;fill:rgb(100%,100%,100%);fill-opacity:1;stroke-width:1.5;stroke-linecap:butt;stroke-linejoin:miter;stroke:rgb(13.730068%,12.159915%,12.54902%);stroke-opacity:1;stroke-miterlimit:4;" d="M 312.75 560.25 L 312.75 567 L 306 567 L 306 560.25 L 312.75 560.25 Z M 312.75 560.25 " transform="matrix(1,0,0,-1,169,968)"/>
<path style="fill-rule:nonzero;fill:rgb(100%,100%,100%);fill-opacity:1;stroke-width:1.5;stroke-linecap:butt;stroke-linejoin:miter;stroke:rgb(13.730068%,12.159915%,12.54902%);stroke-opacity:1;stroke-miterlimit:4;" d="M 319.5 560.25 L 319.5 567 L 312.75 567 L 312.75 560.25 L 319.5 560.25 Z M 319.5 560.25 " transform="matrix(1,0,0,-1,169,968)"/>
<path style="fill-rule:nonzero;fill:rgb(100%,100%,100%);fill-opacity:1;stroke-width:1.5;stroke-linecap:butt;stroke-linejoin:miter;stroke:rgb(13.730068%,12.159915%,12.54902%);stroke-opacity:1;stroke-miterlimit:4;" d="M 306 553.5 L 306 560.25 L 299.25 560.25 L 299.25 553.5 L 306 553.5 Z M 306 553.5 " transform="matrix(1,0,0,-1,169,968)"/>
<path style="fill-rule:nonzero;fill:rgb(100%,100%,100%);fill-opacity:1;stroke-width:1.5;stroke-linecap:butt;stroke-linejoin:miter;stroke:rgb(13.730068%,12.159915%,12.54902%);stroke-opacity:1;stroke-miterlimit:4;" d="M 312.75 553.5 L 312.75 560.25 L 306 560.25 L 306 553.5 L 312.75 553.5 Z M 312.75 553.5 " transform="matrix(1,0,0,-1,169,968)"/>
<path style="fill-rule:nonzero;fill:rgb(100%,100%,100%);fill-opacity:1;stroke-width:1.5;stroke-linecap:butt;stroke-linejoin:miter;stroke:rgb(13.730068%,12.159915%,12.54902%);stroke-opacity:1;stroke-miterlimit:4;" d="M 319.5 553.5 L 319.5 560.25 L 312.75 560.25 L 312.75 553.5 L 319.5 553.5 Z M 319.5 553.5 " transform="matrix(1,0,0,-1,169,968)"/>
<path style="fill-rule:nonzero;fill:rgb(100%,100%,100%);fill-opacity:1;stroke-width:1.5;stroke-linecap:butt;stroke-linejoin:miter;stroke:rgb(13.730068%,12.159915%,12.54902%);stroke-opacity:1;stroke-miterlimit:4;" d="M 306 546.75 L 306 553.5 L 299.25 553.5 L 299.25 546.75 L 306 546.75 Z M 306 546.75 " transform="matrix(1,0,0,-1,169,968)"/>
<path style="fill-rule:nonzero;fill:rgb(100%,100%,100%);fill-opacity:1;stroke-width:1.5;stroke-linecap:butt;stroke-linejoin:miter;stroke:rgb(13.730068%,12.159915%,12.54902%);stroke-opacity:1;stroke-miterlimit:4;" d="M 312.75 546.75 L 312.75 553.5 L 306 553.5 L 306 546.75 L 312.75 546.75 Z M 312.75 546.75 " transform="matrix(1,0,0,-1,169,968)"/>
<path style="fill-rule:nonzero;fill:rgb(100%,100%,100%);fill-opacity:1;stroke-width:1.5;stroke-linecap:butt;stroke-linejoin:miter;stroke:rgb(13.730068%,12.159915%,12.54902%);stroke-opacity:1;stroke-miterlimit:4;" d="M 319.5 546.75 L 319.5 553.5 L 312.75 553.5 L 312.75 546.75 L 319.5 546.75 Z M 319.5 546.75 " transform="matrix(1,0,0,-1,169,968)"/>

</svg>