<svg xmlns="http://www.w3.org/2000/svg" xmlns:xlink="http://www.w3.org/1999/xlink" width="612pt" height="792pt" viewBox="0 0 612 792" version="1.1">

<!-- EM Pulsar -->
<path style="fill-rule:nonzero;fill:rgb(100%,100%,100%);fill-opacity:1;stroke-width:0.4066;stroke-linecap:butt;stroke-linejoin:miter;stroke:rgb(13.730068%,12.159915%,12.54902%);stroke-opacity:1;stroke-miterlimit:4;" d="M 279.75 285.675781 L 273 283.5 L 266.25 285.675781 L 273 287.855469 L 279.75 285.675781 Z M 279.75 285.675781 " transform="matrix(1,0,0,-1,-95,586)"/>
<path style="fill-rule:nonzero;fill:rgb(100%,100%,100%);fill-opacity:1;stroke-width:0.4066;stroke-linecap:butt;stroke-linejoin:miter;stroke:rgb(13.730068%,12.159915%,12.54902%);stroke-opacity:1;stroke-miterlimit:4;" d="M 279.75 290.03125 L 273 287.855469 L 266.25 290.03125 L 273 292.210937 L 279.75 290.03125 Z M 279.75 290.03125 " transform="matrix(1,0,0,-1,-95,586)"/>
<path style="fill-rule:nonzero;fill:rgb(100%,100%,100%);fill-opacity:1;stroke-width:0.4066;stroke-linecap:butt;stroke-linejoin:miter;stroke:rgb(13.730068%,12.159915%,12.54902%);stroke-opacity:1;stroke-miterlimit:4;" d="M 279.75 294.386719 L 273 292.210937 L 266.25 294.386719 L 273 296.566406 L 279.75 294.386719 Z M 279.75 294.386719 " transform="matrix(1,0,0,-1,-95,586)"/>
<path style="fill-rule:nonzero;fill:rgb(100%,100%,100%);fill-opacity:1;stroke-width:0.4066;stroke-linecap:butt;stroke-linejoin:miter;stroke:rgb(13.730068%,12.159915%,12.54902%);stroke-opacity:1;stroke-miterlimit:4;" d="M 279.75 298.742187 L 273 296.566406 L 266.25 298.742187 L 273 300.917969 L 279.75 298.742187 Z M 279.75 298.742187 " transform="matrix(1,0,0,-1,-95,586)"/>
<path style="fill-rule:nonzero;fill:rgb(100%,100%,100%);fill-opacity:1;stroke-width:0.75;stroke-linecap:butt;stroke-linejoin:miter;stroke:rgb(13.730068%,12.159915%,12.54902%);stroke-opacity:1;stroke-miterlimit:4;" d="M 279.75 283.5 L 279.75 300.921875 L 284.25 300.921875 L 284.25 255 L 261.75 255 L 261.75 300.921875 L 266.25 300.921875 L 266.25 283.5 L 279.75 283.5 Z M 279.75 283.5 " transform="matrix(1,0,0,-1,-95,586)"/>

<!-- Damage Boxes -->
<path style="fill-rule:nonzero;fill:rgb(100%,100%,100%);fill-opacity:1;stroke-width:1.5;stroke-linecap:butt;stroke-linejoin:miter;stroke:rgb(13.730068%,12.159915%,12.54902%);stroke-opacity:1;stroke-miterlimit:4;" d="M 273 272.25 L 273 279 L 266.25 279 L 266.25 272.25 L 273 272.25 Z M 273 272.25 " transform="matrix(1,0,0,-1,-95,586)"/>
<path style="fill-rule:nonzero;fill:rgb(100%,100%,100%);fill-opacity:1;stroke-width:1.5;stroke-linecap:butt;stroke-linejoin:miter;stroke:rgb(13.730068%,12.159915%,12.54902%);stroke-opacity:1;stroke-miterlimit:4;" d="M 279.75 272.25 L 279.75 279 L 273 279 L 273 272.25 L 279.75 272.25 Z M 279.75 272.25 " transform="matrix(1,0,0,-1,-95,586)"/>
<path style="fill-rule:nonzero;fill:rgb(100%,100%,100%);fill-opacity:1;stroke-width:1.5;stroke-linecap:butt;stroke-linejoin:miter;stroke:rgb(13.730068%,12.159915%,12.54902%);stroke-opacity:1;stroke-miterlimit:4;" d="M 273 265.5 L 273 272.25 L 266.25 272.25 L 266.25 265.5 L 273 265.5 Z M 273 265.5 " transform="matrix(1,0,0,-1,-95,586)"/>
<path style="fill-rule:nonzero;fill:rgb(100%,100%,100%);fill-opacity:1;stroke-width:1.5;stroke-linecap:butt;stroke-linejoin:miter;stroke:rgb(13.730068%,12.159915%,12.54902%);stroke-opacity:1;stroke-miterlimit:4;" d="M 279.75 265.5 L 279.75 272.25 L 273 272.25 L 273 265.5 L 279.75 265.5 Z M 279.75 265.5 " transform="matrix(1,0,0,-1,-95,586)"/>
<path style="fill-rule:nonzero;fill:rgb(100%,100%,100%);fill-opacity:1;stroke-width:1.5;stroke-linecap:butt;stroke-linejoin:miter;stroke:rgb(13.730068%,12.159915%,12.54902%);stroke-opacity:1;stroke-miterlimit:4;" d="M 273 258.75 L 273 265.5 L 266.25 265.5 L 266.25 258.75 L 273 258.75 Z M 273 258.75 " transform="matrix(1,0,0,-1,-95,586)"/>
<path style="fill-rule:nonzero;fill:rgb(100%,100%,100%);fill-opacity:1;stroke-width:1.5;stroke-linecap:butt;stroke-linejoin:miter;stroke:rgb(13.730068%,12.159915%,12.54902%);stroke-opacity:1;stroke-miterlimit:4;" d="M 279.75 258.75 L 279.75 265.5 L 273 265.5 L 273 258.75 L 279.75 258.75 Z M 279.75 258.75 " transform="matrix(1,0,0,-1,-95,586)"/>

</svg>