<svg xmlns="http://www.w3.org/2000/svg" xmlns:xlink="http://www.w3.org/1999/xlink" width="612pt" height="792pt" viewBox="0 0 612 792" version="1.1">

<!-- Energy Draining Field -->
<path style="fill-rule:nonzero;fill:rgb(100%,100%,100%);fill-opacity:1;stroke-width:0.75;stroke-linecap:butt;stroke-linejoin:miter;stroke:rgb(13.730068%,12.159915%,12.54902%);stroke-opacity:1;stroke-miterlimit:4;" d="M 321.570312 45.144531 L 321.570312 54.144531 L 312.570312 58.644531 L 321.570312 63.144531 L 321.570312 69.894531 L 312.570312 74.394531 L 321.570312 78.894531 L 321.570312 87.894531 L 312.570312 92.394531 L 321.570312 96.894531 L 321.570312 103.644531 L 312.570312 108.144531 L 321.570312 112.644531 L 321.570312 121.644531 L 357.570312 121.644531 L 357.570312 112.644531 L 366.570312 108.144531 L 357.570312 103.644531 L 357.570312 96.894531 L 366.570312 92.394531 L 357.570312 87.894531 L 357.570312 78.894531 L 366.570312 74.394531 L 357.570312 69.894531 L 357.570312 63.144531 L 366.570312 58.644531 L 357.570312 54.144531 L 357.570312 45.144531 L 321.570312 45.144531 Z M 321.570312 45.144531 " transform="matrix(1,0,0,-1,0,793)"/>

<!-- Damage Boxes -->
<path style="fill-rule:nonzero;fill:rgb(100%,100%,100%);fill-opacity:1;stroke-width:1.5;stroke-linecap:butt;stroke-linejoin:miter;stroke:rgb(13.730068%,12.159915%,12.54902%);stroke-opacity:1;stroke-miterlimit:4;" d="M 332.820312 110.394531 L 332.820312 117.144531 L 326.070312 117.144531 L 326.070312 110.394531 L 332.820312 110.394531 Z M 332.820312 110.394531 " transform="matrix(1,0,0,-1,0,793)"/>
<path style="fill-rule:nonzero;fill:rgb(100%,100%,100%);fill-opacity:1;stroke-width:1.5;stroke-linecap:butt;stroke-linejoin:miter;stroke:rgb(13.730068%,12.159915%,12.54902%);stroke-opacity:1;stroke-miterlimit:4;" d="M 339.570312 110.394531 L 339.570312 117.144531 L 332.820312 117.144531 L 332.820312 110.394531 L 339.570312 110.394531 Z M 339.570312 110.394531 " transform="matrix(1,0,0,-1,0,793)"/>
<path style="fill-rule:nonzero;fill:rgb(100%,100%,100%);fill-opacity:1;stroke-width:1.5;stroke-linecap:butt;stroke-linejoin:miter;stroke:rgb(13.730068%,12.159915%,12.54902%);stroke-opacity:1;stroke-miterlimit:4;" d="M 346.320312 110.394531 L 346.320312 117.144531 L 339.570312 117.144531 L 339.570312 110.394531 L 346.320312 110.394531 Z M 346.320312 110.394531 " transform="matrix(1,0,0,-1,0,793)"/>
<path style="fill-rule:nonzero;fill:rgb(100%,100%,100%);fill-opacity:1;stroke-width:1.5;stroke-linecap:butt;stroke-linejoin:miter;stroke:rgb(13.730068%,12.159915%,12.54902%);stroke-opacity:1;stroke-miterlimit:4;" d="M 353.070312 110.394531 L 353.070312 117.144531 L 346.320312 117.144531 L 346.320312 110.394531 L 353.070312 110.394531 Z M 353.070312 110.394531 " transform="matrix(1,0,0,-1,0,793)"/>
<path style="fill-rule:nonzero;fill:rgb(100%,100%,100%);fill-opacity:1;stroke-width:1.5;stroke-linecap:butt;stroke-linejoin:miter;stroke:rgb(13.730068%,12.159915%,12.54902%);stroke-opacity:1;stroke-miterlimit:4;" d="M 332.820312 103.644531 L 332.820312 110.394531 L 326.070312 110.394531 L 326.070312 103.644531 L 332.820312 103.644531 Z M 332.820312 103.644531 " transform="matrix(1,0,0,-1,0,793)"/>
<path style="fill-rule:nonzero;fill:rgb(100%,100%,100%);fill-opacity:1;stroke-width:1.5;stroke-linecap:butt;stroke-linejoin:miter;stroke:rgb(13.730068%,12.159915%,12.54902%);stroke-opacity:1;stroke-miterlimit:4;" d="M 339.570312 103.644531 L 339.570312 110.394531 L 332.820312 110.394531 L 332.820312 103.644531 L 339.570312 103.644531 Z M 339.570312 103.644531 " transform="matrix(1,0,0,-1,0,793)"/>
<path style="fill-rule:nonzero;fill:rgb(100%,100%,100%);fill-opacity:1;stroke-width:1.5;stroke-linecap:butt;stroke-linejoin:miter;stroke:rgb(13.730068%,12.159915%,12.54902%);stroke-opacity:1;stroke-miterlimit:4;" d="M 346.320312 103.644531 L 346.320312 110.394531 L 339.570312 110.394531 L 339.570312 103.644531 L 346.320312 103.644531 Z M 346.320312 103.644531 " transform="matrix(1,0,0,-1,0,793)"/>
<path style="fill-rule:nonzero;fill:rgb(100%,100%,100%);fill-opacity:1;stroke-width:1.5;stroke-linecap:butt;stroke-linejoin:miter;stroke:rgb(13.730068%,12.159915%,12.54902%);stroke-opacity:1;stroke-miterlimit:4;" d="M 353.070312 103.644531 L 353.070312 110.394531 L 346.320312 110.394531 L 346.320312 103.644531 L 353.070312 103.644531 Z M 353.070312 103.644531 " transform="matrix(1,0,0,-1,0,793)"/>
<path style="fill-rule:nonzero;fill:rgb(100%,100%,100%);fill-opacity:1;stroke-width:1.5;stroke-linecap:butt;stroke-linejoin:miter;stroke:rgb(13.730068%,12.159915%,12.54902%);stroke-opacity:1;stroke-miterlimit:4;" d="M 332.820312 96.894531 L 332.820312 103.644531 L 326.070312 103.644531 L 326.070312 96.894531 L 332.820312 96.894531 Z M 332.820312 96.894531 " transform="matrix(1,0,0,-1,0,793)"/>
<path style="fill-rule:nonzero;fill:rgb(100%,100%,100%);fill-opacity:1;stroke-width:1.5;stroke-linecap:butt;stroke-linejoin:miter;stroke:rgb(13.730068%,12.159915%,12.54902%);stroke-opacity:1;stroke-miterlimit:4;" d="M 339.570312 96.894531 L 339.570312 103.644531 L 332.820312 103.644531 L 332.820312 96.894531 L 339.570312 96.894531 Z M 339.570312 96.894531 " transform="matrix(1,0,0,-1,0,793)"/>
<path style="fill-rule:nonzero;fill:rgb(100%,100%,100%);fill-opacity:1;stroke-width:1.5;stroke-linecap:butt;stroke-linejoin:miter;stroke:rgb(13.730068%,12.159915%,12.54902%);stroke-opacity:1;stroke-miterlimit:4;" d="M 346.320312 96.894531 L 346.320312 103.644531 L 339.570312 103.644531 L 339.570312 96.894531 L 346.320312 96.894531 Z M 346.320312 96.894531 " transform="matrix(1,0,0,-1,0,793)"/>
<path style="fill-rule:nonzero;fill:rgb(100%,100%,100%);fill-opacity:1;stroke-width:1.5;stroke-linecap:butt;stroke-linejoin:miter;stroke:rgb(13.730068%,12.159915%,12.54902%);stroke-opacity:1;stroke-miterlimit:4;" d="M 353.070312 96.894531 L 353.070312 103.644531 L 346.320312 103.644531 L 346.320312 96.894531 L 353.070312 96.894531 Z M 353.070312 96.894531 " transform="matrix(1,0,0,-1,0,793)"/>
<path style="fill-rule:nonzero;fill:rgb(100%,100%,100%);fill-opacity:1;stroke-width:1.5;stroke-linecap:butt;stroke-linejoin:miter;stroke:rgb(13.730068%,12.159915%,12.54902%);stroke-opacity:1;stroke-miterlimit:4;" d="M 332.820312 90.144531 L 332.820312 96.894531 L 326.070312 96.894531 L 326.070312 90.144531 L 332.820312 90.144531 Z M 332.820312 90.144531 " transform="matrix(1,0,0,-1,0,793)"/>
<path style="fill-rule:nonzero;fill:rgb(100%,100%,100%);fill-opacity:1;stroke-width:1.5;stroke-linecap:butt;stroke-linejoin:miter;stroke:rgb(13.730068%,12.159915%,12.54902%);stroke-opacity:1;stroke-miterlimit:4;" d="M 339.570312 90.144531 L 339.570312 96.894531 L 332.820312 96.894531 L 332.820312 90.144531 L 339.570312 90.144531 Z M 339.570312 90.144531 " transform="matrix(1,0,0,-1,0,793)"/>
<path style="fill-rule:nonzero;fill:rgb(100%,100%,100%);fill-opacity:1;stroke-width:1.5;stroke-linecap:butt;stroke-linejoin:miter;stroke:rgb(13.730068%,12.159915%,12.54902%);stroke-opacity:1;stroke-miterlimit:4;" d="M 346.320312 90.144531 L 346.320312 96.894531 L 339.570312 96.894531 L 339.570312 90.144531 L 346.320312 90.144531 Z M 346.320312 90.144531 " transform="matrix(1,0,0,-1,0,793)"/>
<path style="fill-rule:nonzero;fill:rgb(100%,100%,100%);fill-opacity:1;stroke-width:1.5;stroke-linecap:butt;stroke-linejoin:miter;stroke:rgb(13.730068%,12.159915%,12.54902%);stroke-opacity:1;stroke-miterlimit:4;" d="M 353.070312 90.144531 L 353.070312 96.894531 L 346.320312 96.894531 L 346.320312 90.144531 L 353.070312 90.144531 Z M 353.070312 90.144531 " transform="matrix(1,0,0,-1,0,793)"/>
<path style="fill-rule:nonzero;fill:rgb(100%,100%,100%);fill-opacity:1;stroke-width:1.5;stroke-linecap:butt;stroke-linejoin:miter;stroke:rgb(13.730068%,12.159915%,12.54902%);stroke-opacity:1;stroke-miterlimit:4;" d="M 332.820312 83.394531 L 332.820312 90.144531 L 326.070312 90.144531 L 326.070312 83.394531 L 332.820312 83.394531 Z M 332.820312 83.394531 " transform="matrix(1,0,0,-1,0,793)"/>
<path style="fill-rule:nonzero;fill:rgb(100%,100%,100%);fill-opacity:1;stroke-width:1.5;stroke-linecap:butt;stroke-linejoin:miter;stroke:rgb(13.730068%,12.159915%,12.54902%);stroke-opacity:1;stroke-miterlimit:4;" d="M 339.570312 83.394531 L 339.570312 90.144531 L 332.820312 90.144531 L 332.820312 83.394531 L 339.570312 83.394531 Z M 339.570312 83.394531 " transform="matrix(1,0,0,-1,0,793)"/>
<path style="fill-rule:nonzero;fill:rgb(100%,100%,100%);fill-opacity:1;stroke-width:1.5;stroke-linecap:butt;stroke-linejoin:miter;stroke:rgb(13.730068%,12.159915%,12.54902%);stroke-opacity:1;stroke-miterlimit:4;" d="M 346.320312 83.394531 L 346.320312 90.144531 L 339.570312 90.144531 L 339.570312 83.394531 L 346.320312 83.394531 Z M 346.320312 83.394531 " transform="matrix(1,0,0,-1,0,793)"/>
<path style="fill-rule:nonzero;fill:rgb(100%,100%,100%);fill-opacity:1;stroke-width:1.5;stroke-linecap:butt;stroke-linejoin:miter;stroke:rgb(13.730068%,12.159915%,12.54902%);stroke-opacity:1;stroke-miterlimit:4;" d="M 353.070312 83.394531 L 353.070312 90.144531 L 346.320312 90.144531 L 346.320312 83.394531 L 353.070312 83.394531 Z M 353.070312 83.394531 " transform="matrix(1,0,0,-1,0,793)"/>
<path style="fill-rule:nonzero;fill:rgb(100%,100%,100%);fill-opacity:1;stroke-width:1.5;stroke-linecap:butt;stroke-linejoin:miter;stroke:rgb(13.730068%,12.159915%,12.54902%);stroke-opacity:1;stroke-miterlimit:4;" d="M 332.820312 76.644531 L 332.820312 83.394531 L 326.070312 83.394531 L 326.070312 76.644531 L 332.820312 76.644531 Z M 332.820312 76.644531 " transform="matrix(1,0,0,-1,0,793)"/>
<path style="fill-rule:nonzero;fill:rgb(100%,100%,100%);fill-opacity:1;stroke-width:1.5;stroke-linecap:butt;stroke-linejoin:miter;stroke:rgb(13.730068%,12.159915%,12.54902%);stroke-opacity:1;stroke-miterlimit:4;" d="M 339.570312 76.644531 L 339.570312 83.394531 L 332.820312 83.394531 L 332.820312 76.644531 L 339.570312 76.644531 Z M 339.570312 76.644531 " transform="matrix(1,0,0,-1,0,793)"/>
<path style="fill-rule:nonzero;fill:rgb(100%,100%,100%);fill-opacity:1;stroke-width:1.5;stroke-linecap:butt;stroke-linejoin:miter;stroke:rgb(13.730068%,12.159915%,12.54902%);stroke-opacity:1;stroke-miterlimit:4;" d="M 346.320312 76.644531 L 346.320312 83.394531 L 339.570312 83.394531 L 339.570312 76.644531 L 346.320312 76.644531 Z M 346.320312 76.644531 " transform="matrix(1,0,0,-1,0,793)"/>
<path style="fill-rule:nonzero;fill:rgb(100%,100%,100%);fill-opacity:1;stroke-width:1.5;stroke-linecap:butt;stroke-linejoin:miter;stroke:rgb(13.730068%,12.159915%,12.54902%);stroke-opacity:1;stroke-miterlimit:4;" d="M 353.070312 76.644531 L 353.070312 83.394531 L 346.320312 83.394531 L 346.320312 76.644531 L 353.070312 76.644531 Z M 353.070312 76.644531 " transform="matrix(1,0,0,-1,0,793)"/>
<path style="fill-rule:nonzero;fill:rgb(100%,100%,100%);fill-opacity:1;stroke-width:1.5;stroke-linecap:butt;stroke-linejoin:miter;stroke:rgb(13.730068%,12.159915%,12.54902%);stroke-opacity:1;stroke-miterlimit:4;" d="M 332.820312 69.894531 L 332.820312 76.644531 L 326.070312 76.644531 L 326.070312 69.894531 L 332.820312 69.894531 Z M 332.820312 69.894531 " transform="matrix(1,0,0,-1,0,793)"/>
<path style="fill-rule:nonzero;fill:rgb(100%,100%,100%);fill-opacity:1;stroke-width:1.5;stroke-linecap:butt;stroke-linejoin:miter;stroke:rgb(13.730068%,12.159915%,12.54902%);stroke-opacity:1;stroke-miterlimit:4;" d="M 339.570312 69.894531 L 339.570312 76.644531 L 332.820312 76.644531 L 332.820312 69.894531 L 339.570312 69.894531 Z M 339.570312 69.894531 " transform="matrix(1,0,0,-1,0,793)"/>
<path style="fill-rule:nonzero;fill:rgb(100%,100%,100%);fill-opacity:1;stroke-width:1.5;stroke-linecap:butt;stroke-linejoin:miter;stroke:rgb(13.730068%,12.159915%,12.54902%);stroke-opacity:1;stroke-miterlimit:4;" d="M 346.320312 69.894531 L 346.320312 76.644531 L 339.570312 76.644531 L 339.570312 69.894531 L 346.320312 69.894531 Z M 346.320312 69.894531 " transform="matrix(1,0,0,-1,0,793)"/>
<path style="fill-rule:nonzero;fill:rgb(100%,100%,100%);fill-opacity:1;stroke-width:1.5;stroke-linecap:butt;stroke-linejoin:miter;stroke:rgb(13.730068%,12.159915%,12.54902%);stroke-opacity:1;stroke-miterlimit:4;" d="M 353.070312 69.894531 L 353.070312 76.644531 L 346.320312 76.644531 L 346.320312 69.894531 L 353.070312 69.894531 Z M 353.070312 69.894531 " transform="matrix(1,0,0,-1,0,793)"/>
<path style="fill-rule:nonzero;fill:rgb(100%,100%,100%);fill-opacity:1;stroke-width:1.5;stroke-linecap:butt;stroke-linejoin:miter;stroke:rgb(13.730068%,12.159915%,12.54902%);stroke-opacity:1;stroke-miterlimit:4;" d="M 332.820312 63.144531 L 332.820312 69.894531 L 326.070312 69.894531 L 326.070312 63.144531 L 332.820312 63.144531 Z M 332.820312 63.144531 " transform="matrix(1,0,0,-1,0,793)"/>
<path style="fill-rule:nonzero;fill:rgb(100%,100%,100%);fill-opacity:1;stroke-width:1.5;stroke-linecap:butt;stroke-linejoin:miter;stroke:rgb(13.730068%,12.159915%,12.54902%);stroke-opacity:1;stroke-miterlimit:4;" d="M 339.570312 63.144531 L 339.570312 69.894531 L 332.820312 69.894531 L 332.820312 63.144531 L 339.570312 63.144531 Z M 339.570312 63.144531 " transform="matrix(1,0,0,-1,0,793)"/>
<path style="fill-rule:nonzero;fill:rgb(100%,100%,100%);fill-opacity:1;stroke-width:1.5;stroke-linecap:butt;stroke-linejoin:miter;stroke:rgb(13.730068%,12.159915%,12.54902%);stroke-opacity:1;stroke-miterlimit:4;" d="M 346.320312 63.144531 L 346.320312 69.894531 L 339.570312 69.894531 L 339.570312 63.144531 L 346.320312 63.144531 Z M 346.320312 63.144531 " transform="matrix(1,0,0,-1,0,793)"/>
<path style="fill-rule:nonzero;fill:rgb(100%,100%,100%);fill-opacity:1;stroke-width:1.5;stroke-linecap:butt;stroke-linejoin:miter;stroke:rgb(13.730068%,12.159915%,12.54902%);stroke-opacity:1;stroke-miterlimit:4;" d="M 353.070312 63.144531 L 353.070312 69.894531 L 346.320312 69.894531 L 346.320312 63.144531 L 353.070312 63.144531 Z M 353.070312 63.144531 " transform="matrix(1,0,0,-1,0,793)"/>
<path style="fill-rule:nonzero;fill:rgb(100%,100%,100%);fill-opacity:1;stroke-width:1.5;stroke-linecap:butt;stroke-linejoin:miter;stroke:rgb(13.730068%,12.159915%,12.54902%);stroke-opacity:1;stroke-miterlimit:4;" d="M 332.820312 56.394531 L 332.820312 63.144531 L 326.070312 63.144531 L 326.070312 56.394531 L 332.820312 56.394531 Z M 332.820312 56.394531 " transform="matrix(1,0,0,-1,0,793)"/>
<path style="fill-rule:nonzero;fill:rgb(100%,100%,100%);fill-opacity:1;stroke-width:1.5;stroke-linecap:butt;stroke-linejoin:miter;stroke:rgb(13.730068%,12.159915%,12.54902%);stroke-opacity:1;stroke-miterlimit:4;" d="M 339.570312 56.394531 L 339.570312 63.144531 L 332.820312 63.144531 L 332.820312 56.394531 L 339.570312 56.394531 Z M 339.570312 56.394531 " transform="matrix(1,0,0,-1,0,793)"/>
<path style="fill-rule:nonzero;fill:rgb(100%,100%,100%);fill-opacity:1;stroke-width:1.5;stroke-linecap:butt;stroke-linejoin:miter;stroke:rgb(13.730068%,12.159915%,12.54902%);stroke-opacity:1;stroke-miterlimit:4;" d="M 346.320312 56.394531 L 346.320312 63.144531 L 339.570312 63.144531 L 339.570312 56.394531 L 346.320312 56.394531 Z M 346.320312 56.394531 " transform="matrix(1,0,0,-1,0,793)"/>
<path style="fill-rule:nonzero;fill:rgb(100%,100%,100%);fill-opacity:1;stroke-width:1.5;stroke-linecap:butt;stroke-linejoin:miter;stroke:rgb(13.730068%,12.159915%,12.54902%);stroke-opacity:1;stroke-miterlimit:4;" d="M 353.070312 56.394531 L 353.070312 63.144531 L 346.320312 63.144531 L 346.320312 56.394531 L 353.070312 56.394531 Z M 353.070312 56.394531 " transform="matrix(1,0,0,-1,0,793)"/>
<path style="fill-rule:nonzero;fill:rgb(100%,100%,100%);fill-opacity:1;stroke-width:1.5;stroke-linecap:butt;stroke-linejoin:miter;stroke:rgb(13.730068%,12.159915%,12.54902%);stroke-opacity:1;stroke-miterlimit:4;" d="M 332.820312 49.644531 L 332.820312 56.394531 L 326.070312 56.394531 L 326.070312 49.644531 L 332.820312 49.644531 Z M 332.820312 49.644531 " transform="matrix(1,0,0,-1,0,793)"/>
<path style="fill-rule:nonzero;fill:rgb(100%,100%,100%);fill-opacity:1;stroke-width:1.5;stroke-linecap:butt;stroke-linejoin:miter;stroke:rgb(13.730068%,12.159915%,12.54902%);stroke-opacity:1;stroke-miterlimit:4;" d="M 339.570312 49.644531 L 339.570312 56.394531 L 332.820312 56.394531 L 332.820312 49.644531 L 339.570312 49.644531 Z M 339.570312 49.644531 " transform="matrix(1,0,0,-1,0,793)"/>
<path style="fill-rule:nonzero;fill:rgb(100%,100%,100%);fill-opacity:1;stroke-width:1.5;stroke-linecap:butt;stroke-linejoin:miter;stroke:rgb(13.730068%,12.159915%,12.54902%);stroke-opacity:1;stroke-miterlimit:4;" d="M 346.320312 49.644531 L 346.320312 56.394531 L 339.570312 56.394531 L 339.570312 49.644531 L 346.320312 49.644531 Z M 346.320312 49.644531 " transform="matrix(1,0,0,-1,0,793)"/>
<path style="fill-rule:nonzero;fill:rgb(100%,100%,100%);fill-opacity:1;stroke-width:1.5;stroke-linecap:butt;stroke-linejoin:miter;stroke:rgb(13.730068%,12.159915%,12.54902%);stroke-opacity:1;stroke-miterlimit:4;" d="M 353.070312 49.644531 L 353.070312 56.394531 L 346.320312 56.394531 L 346.320312 49.644531 L 353.070312 49.644531 Z M 353.070312 49.644531 " transform="matrix(1,0,0,-1,0,793)"/>

</svg>