<svg xmlns="http://www.w3.org/2000/svg" xmlns:xlink="http://www.w3.org/1999/xlink" width="612pt" height="792pt" viewBox="0 0 612 792" version="1.1">

<!-- Energy Diffuser (13) -->
<path style="fill-rule:nonzero;fill:rgb(100%,100%,100%);fill-opacity:1;stroke-width:0.6369;stroke-linecap:butt;stroke-linejoin:miter;stroke:rgb(13.730068%,12.159915%,12.54902%);stroke-opacity:1;stroke-miterlimit:4;" d="M 491.53125 99.851562 C 506.824219 99.851562 519.222656 112.25 519.222656 127.542969 C 519.222656 142.835938 506.824219 155.230469 491.53125 155.230469 C 476.238281 155.230469 463.839844 142.835938 463.839844 127.542969 C 463.839844 112.25 476.238281 99.851562 491.53125 99.851562 Z M 491.53125 99.851562 " transform="matrix(1,0,0,-1,0,793)"/>
<path style="fill-rule:nonzero;fill:rgb(100%,100%,100%);fill-opacity:1;stroke-width:0.6369;stroke-linecap:butt;stroke-linejoin:miter;stroke:rgb(13.730068%,12.159915%,12.54902%);stroke-opacity:1;stroke-miterlimit:4;" d="M 491.53125 102.367188 C 505.433594 102.367188 516.703125 113.640625 516.703125 127.542969 C 516.703125 141.445312 505.433594 152.714844 491.53125 152.714844 C 477.628906 152.714844 466.359375 141.445312 466.359375 127.542969 C 466.359375 113.640625 477.628906 102.367188 491.53125 102.367188 Z M 491.53125 102.367188 " transform="matrix(1,0,0,-1,0,793)"/>
<path style="fill-rule:nonzero;fill:rgb(100%,100%,100%);fill-opacity:1;stroke-width:0.6369;stroke-linecap:butt;stroke-linejoin:miter;stroke:rgb(13.730068%,12.159915%,12.54902%);stroke-opacity:1;stroke-miterlimit:4;" d="M 491.53125 104.65625 C 504.167969 104.65625 514.414062 114.902344 514.414062 127.542969 C 514.414062 140.179688 504.167969 150.425781 491.53125 150.425781 C 478.890625 150.425781 468.644531 140.179688 468.644531 127.542969 C 468.644531 114.902344 478.890625 104.65625 491.53125 104.65625 Z M 491.53125 104.65625 " transform="matrix(1,0,0,-1,0,793)"/>

<!-- Annotation -->
<path style="opacity:0.5;fill:#ffffff;fill-opacity:1;fill-rule:nonzero;stroke:#ff1e1e;stroke-width:1.5;stroke-linecap:butt;stroke-linejoin:miter;stroke-miterlimit:4;stroke-opacity:1" d="m 494.88313,688.58989 0,-6.75 -6.75,0 0,6.75 6.75,0 z m 0,0"/>
     
<!-- Damage Boxes -->
<path style="fill-rule:nonzero;fill:rgb(100%,100%,100%);fill-opacity:1;stroke-width:1.5;stroke-linecap:butt;stroke-linejoin:miter;stroke:rgb(13.730068%,12.159915%,12.54902%);stroke-opacity:1;stroke-miterlimit:4;" d="M 494.894531 138.378906 L 494.894531 145.128906 L 488.144531 145.128906 L 488.144531 138.378906 L 494.894531 138.378906 Z M 494.894531 138.378906 " transform="matrix(1,0,0,-1,0,793)"/>
<path style="fill-rule:nonzero;fill:rgb(100%,100%,100%);fill-opacity:1;stroke-width:1.5;stroke-linecap:butt;stroke-linejoin:miter;stroke:rgb(13.730068%,12.159915%,12.54902%);stroke-opacity:1;stroke-miterlimit:4;" d="M 488.144531 131.628906 L 488.144531 138.378906 L 481.394531 138.378906 L 481.394531 131.628906 L 488.144531 131.628906 Z M 488.144531 131.628906 " transform="matrix(1,0,0,-1,0,793)"/>
<path style="fill-rule:nonzero;fill:rgb(100%,100%,100%);fill-opacity:1;stroke-width:1.5;stroke-linecap:butt;stroke-linejoin:miter;stroke:rgb(13.730068%,12.159915%,12.54902%);stroke-opacity:1;stroke-miterlimit:4;" d="M 494.894531 131.628906 L 494.894531 138.378906 L 488.144531 138.378906 L 488.144531 131.628906 L 494.894531 131.628906 Z M 494.894531 131.628906 " transform="matrix(1,0,0,-1,0,793)"/>
<path style="fill-rule:nonzero;fill:rgb(100%,100%,100%);fill-opacity:1;stroke-width:1.5;stroke-linecap:butt;stroke-linejoin:miter;stroke:rgb(13.730068%,12.159915%,12.54902%);stroke-opacity:1;stroke-miterlimit:4;" d="M 501.644531 131.628906 L 501.644531 138.378906 L 494.894531 138.378906 L 494.894531 131.628906 L 501.644531 131.628906 Z M 501.644531 131.628906 " transform="matrix(1,0,0,-1,0,793)"/>
<path style="fill-rule:nonzero;fill:rgb(100%,100%,100%);fill-opacity:1;stroke-width:1.5;stroke-linecap:butt;stroke-linejoin:miter;stroke:rgb(13.730068%,12.159915%,12.54902%);stroke-opacity:1;stroke-miterlimit:4;" d="M 481.394531 124.878906 L 481.394531 131.628906 L 474.644531 131.628906 L 474.644531 124.878906 L 481.394531 124.878906 Z M 481.394531 124.878906 " transform="matrix(1,0,0,-1,0,793)"/>
<path style="fill-rule:nonzero;fill:rgb(100%,100%,100%);fill-opacity:1;stroke-width:1.5;stroke-linecap:butt;stroke-linejoin:miter;stroke:rgb(13.730068%,12.159915%,12.54902%);stroke-opacity:1;stroke-miterlimit:4;" d="M 488.144531 124.878906 L 488.144531 131.628906 L 481.394531 131.628906 L 481.394531 124.878906 L 488.144531 124.878906 Z M 488.144531 124.878906 " transform="matrix(1,0,0,-1,0,793)"/>
<path style="fill-rule:nonzero;fill:rgb(100%,100%,100%);fill-opacity:1;stroke-width:1.5;stroke-linecap:butt;stroke-linejoin:miter;stroke:rgb(13.730068%,12.159915%,12.54902%);stroke-opacity:1;stroke-miterlimit:4;" d="M 494.894531 124.878906 L 494.894531 131.628906 L 488.144531 131.628906 L 488.144531 124.878906 L 494.894531 124.878906 Z M 494.894531 124.878906 " transform="matrix(1,0,0,-1,0,793)"/>
<path style="fill-rule:nonzero;fill:rgb(100%,100%,100%);fill-opacity:1;stroke-width:1.5;stroke-linecap:butt;stroke-linejoin:miter;stroke:rgb(13.730068%,12.159915%,12.54902%);stroke-opacity:1;stroke-miterlimit:4;" d="M 501.644531 124.878906 L 501.644531 131.628906 L 494.894531 131.628906 L 494.894531 124.878906 L 501.644531 124.878906 Z M 501.644531 124.878906 " transform="matrix(1,0,0,-1,0,793)"/>
<path style="fill-rule:nonzero;fill:rgb(100%,100%,100%);fill-opacity:1;stroke-width:1.5;stroke-linecap:butt;stroke-linejoin:miter;stroke:rgb(13.730068%,12.159915%,12.54902%);stroke-opacity:1;stroke-miterlimit:4;" d="M 508.394531 124.878906 L 508.394531 131.628906 L 501.644531 131.628906 L 501.644531 124.878906 L 508.394531 124.878906 Z M 508.394531 124.878906 " transform="matrix(1,0,0,-1,0,793)"/>
<path style="fill-rule:nonzero;fill:rgb(100%,100%,100%);fill-opacity:1;stroke-width:1.5;stroke-linecap:butt;stroke-linejoin:miter;stroke:rgb(13.730068%,12.159915%,12.54902%);stroke-opacity:1;stroke-miterlimit:4;" d="M 488.144531 118.128906 L 488.144531 124.878906 L 481.394531 124.878906 L 481.394531 118.128906 L 488.144531 118.128906 Z M 488.144531 118.128906 " transform="matrix(1,0,0,-1,0,793)"/>
<path style="fill-rule:nonzero;fill:rgb(100%,100%,100%);fill-opacity:1;stroke-width:1.5;stroke-linecap:butt;stroke-linejoin:miter;stroke:rgb(13.730068%,12.159915%,12.54902%);stroke-opacity:1;stroke-miterlimit:4;" d="M 494.894531 118.128906 L 494.894531 124.878906 L 488.144531 124.878906 L 488.144531 118.128906 L 494.894531 118.128906 Z M 494.894531 118.128906 " transform="matrix(1,0,0,-1,0,793)"/>
<path style="fill-rule:nonzero;fill:rgb(100%,100%,100%);fill-opacity:1;stroke-width:1.5;stroke-linecap:butt;stroke-linejoin:miter;stroke:rgb(13.730068%,12.159915%,12.54902%);stroke-opacity:1;stroke-miterlimit:4;" d="M 501.644531 118.128906 L 501.644531 124.878906 L 494.894531 124.878906 L 494.894531 118.128906 L 501.644531 118.128906 Z M 501.644531 118.128906 " transform="matrix(1,0,0,-1,0,793)"/>
<path style="fill-rule:nonzero;fill:rgb(100%,100%,100%);fill-opacity:1;stroke-width:1.5;stroke-linecap:butt;stroke-linejoin:miter;stroke:rgb(13.730068%,12.159915%,12.54902%);stroke-opacity:1;stroke-miterlimit:4;" d="M 494.894531 111.378906 L 494.894531 118.128906 L 488.144531 118.128906 L 488.144531 111.378906 L 494.894531 111.378906 Z M 494.894531 111.378906 " transform="matrix(1,0,0,-1,0,793)"/>

</svg>