<svg xmlns="http://www.w3.org/2000/svg" xmlns:xlink="http://www.w3.org/1999/xlink" width="612pt" height="792pt" viewBox="0 0 612 792" version="1.1">

<!-- Energy Diffuser -->
<path style="fill-rule:nonzero;fill:rgb(100%,100%,100%);fill-opacity:1;stroke-width:0.75;stroke-linecap:butt;stroke-linejoin:miter;stroke:rgb(13.730068%,12.159915%,12.54902%);stroke-opacity:1;stroke-miterlimit:4;" d="M 450 510.386719 C 436.75 510.386719 426.011719 521.125 426.011719 534.375 C 426.011719 547.621094 436.75 558.363281 450 558.363281 C 463.246094 558.363281 473.988281 547.621094 473.988281 534.375 C 473.988281 521.125 463.246094 510.386719 450 510.386719 Z M 450 510.386719 " transform="matrix(1,0,0,-1,0,793)"/>
<path style="fill-rule:nonzero;fill:rgb(100%,100%,100%);fill-opacity:1;stroke-width:0.75;stroke-linecap:butt;stroke-linejoin:miter;stroke:rgb(13.730068%,12.159915%,12.54902%);stroke-opacity:1;stroke-miterlimit:4;" d="M 450 512.566406 C 437.957031 512.566406 428.191406 522.332031 428.191406 534.375 C 428.191406 546.417969 437.957031 556.183594 450 556.183594 C 462.042969 556.183594 471.808594 546.417969 471.808594 534.375 C 471.808594 522.332031 462.042969 512.566406 450 512.566406 Z M 450 512.566406 " transform="matrix(1,0,0,-1,0,793)"/>
<path style="fill-rule:nonzero;fill:rgb(100%,100%,100%);fill-opacity:1;stroke-width:0.75;stroke-linecap:butt;stroke-linejoin:miter;stroke:rgb(13.730068%,12.159915%,12.54902%);stroke-opacity:1;stroke-miterlimit:4;" d="M 450 514.550781 C 439.050781 514.550781 430.175781 523.425781 430.175781 534.375 C 430.175781 545.324219 439.050781 554.199219 450 554.199219 C 460.949219 554.199219 469.824219 545.324219 469.824219 534.375 C 469.824219 523.425781 460.949219 514.550781 450 514.550781 Z M 450 514.550781 " transform="matrix(1,0,0,-1,0,793)"/>

</svg>