<svg xmlns="http://www.w3.org/2000/svg" xmlns:xlink="http://www.w3.org/1999/xlink" width="612pt" height="792pt" viewBox="0 0 612 792" version="1.1">

<!-- Energy Diffuser (28) -->
<path style="fill-rule:nonzero;fill:rgb(100%,100%,100%);fill-opacity:1;stroke-width:0.75;stroke-linecap:butt;stroke-linejoin:miter;stroke:rgb(13.730068%,12.159915%,12.54902%);stroke-opacity:1;stroke-miterlimit:4;" d="M 401.578125 134.046875 C 383.585938 134.046875 369 148.632812 369 166.621094 C 369 184.613281 383.585938 199.199219 401.578125 199.199219 C 419.570312 199.199219 434.152344 184.613281 434.152344 166.621094 C 434.152344 148.632812 419.570312 134.046875 401.578125 134.046875 Z M 401.578125 134.046875 " transform="matrix(1,0,0,-1,0,793)"/>
<path style="fill-rule:nonzero;fill:rgb(100%,100%,100%);fill-opacity:1;stroke-width:0.75;stroke-linecap:butt;stroke-linejoin:miter;stroke:rgb(13.730068%,12.159915%,12.54902%);stroke-opacity:1;stroke-miterlimit:4;" d="M 401.578125 137.007812 C 385.222656 137.007812 371.960938 150.265625 371.960938 166.621094 C 371.960938 182.980469 385.222656 196.238281 401.578125 196.238281 C 417.933594 196.238281 431.191406 182.980469 431.191406 166.621094 C 431.191406 150.265625 417.933594 137.007812 401.578125 137.007812 Z M 401.578125 137.007812 " transform="matrix(1,0,0,-1,0,793)"/>
<path style="fill-rule:nonzero;fill:rgb(100%,100%,100%);fill-opacity:1;stroke-width:0.75;stroke-linecap:butt;stroke-linejoin:miter;stroke:rgb(13.730068%,12.159915%,12.54902%);stroke-opacity:1;stroke-miterlimit:4;" d="M 401.578125 139.699219 C 386.707031 139.699219 374.652344 151.753906 374.652344 166.621094 C 374.652344 181.492188 386.707031 193.546875 401.578125 193.546875 C 416.445312 193.546875 428.5 181.492188 428.5 166.621094 C 428.5 151.753906 416.445312 139.699219 401.578125 139.699219 Z M 401.578125 139.699219 " transform="matrix(1,0,0,-1,0,793)"/>

<!-- Annotation -->
<path style="opacity:0.5;fill:#ffffff;fill-opacity:1;fill-rule:nonzero;stroke:#ff1e1e;stroke-width:1.5;stroke-linecap:butt;stroke-linejoin:miter;stroke-miterlimit:4;stroke-opacity:1" d="m 398.23571,651.27966 0,-6.75 6.75,0 0,6.75 -6.75,0 z m 0,0"/>
     
<!-- Damage Boxes -->
<path style="fill-rule:nonzero;fill:rgb(100%,100%,100%);fill-opacity:1;stroke-width:1.5;stroke-linecap:butt;stroke-linejoin:miter;stroke:rgb(13.730068%,12.159915%,12.54902%);stroke-opacity:1;stroke-miterlimit:4;" d="M 398.210938 184.210938 L 398.210938 190.960938 L 404.960938 190.960938 L 404.960938 184.210938 L 398.210938 184.210938 Z M 398.210938 184.210938 " transform="matrix(1,0,0,-1,0,793)"/>
<path style="fill-rule:nonzero;fill:rgb(100%,100%,100%);fill-opacity:1;stroke-width:1.5;stroke-linecap:butt;stroke-linejoin:miter;stroke:rgb(13.730068%,12.159915%,12.54902%);stroke-opacity:1;stroke-miterlimit:4;" d="M 384.710938 177.460938 L 384.710938 184.210938 L 391.460938 184.210938 L 391.460938 177.460938 L 384.710938 177.460938 Z M 384.710938 177.460938 " transform="matrix(1,0,0,-1,0,793)"/>
<path style="fill-rule:nonzero;fill:rgb(100%,100%,100%);fill-opacity:1;stroke-width:1.5;stroke-linecap:butt;stroke-linejoin:miter;stroke:rgb(13.730068%,12.159915%,12.54902%);stroke-opacity:1;stroke-miterlimit:4;" d="M 391.460938 177.460938 L 391.460938 184.210938 L 398.210938 184.210938 L 398.210938 177.460938 L 391.460938 177.460938 Z M 391.460938 177.460938 " transform="matrix(1,0,0,-1,0,793)"/>
<path style="fill-rule:nonzero;fill:rgb(100%,100%,100%);fill-opacity:1;stroke-width:1.5;stroke-linecap:butt;stroke-linejoin:miter;stroke:rgb(13.730068%,12.159915%,12.54902%);stroke-opacity:1;stroke-miterlimit:4;" d="M 398.210938 177.460938 L 398.210938 184.210938 L 404.960938 184.210938 L 404.960938 177.460938 L 398.210938 177.460938 Z M 398.210938 177.460938 " transform="matrix(1,0,0,-1,0,793)"/>
<path style="fill-rule:nonzero;fill:rgb(100%,100%,100%);fill-opacity:1;stroke-width:1.5;stroke-linecap:butt;stroke-linejoin:miter;stroke:rgb(13.730068%,12.159915%,12.54902%);stroke-opacity:1;stroke-miterlimit:4;" d="M 404.960938 177.460938 L 404.960938 184.210938 L 411.710938 184.210938 L 411.710938 177.460938 L 404.960938 177.460938 Z M 404.960938 177.460938 " transform="matrix(1,0,0,-1,0,793)"/>
<path style="fill-rule:nonzero;fill:rgb(100%,100%,100%);fill-opacity:1;stroke-width:1.5;stroke-linecap:butt;stroke-linejoin:miter;stroke:rgb(13.730068%,12.159915%,12.54902%);stroke-opacity:1;stroke-miterlimit:4;" d="M 411.710938 177.460938 L 411.710938 184.210938 L 418.460938 184.210938 L 418.460938 177.460938 L 411.710938 177.460938 Z M 411.710938 177.460938 " transform="matrix(1,0,0,-1,0,793)"/>
<path style="fill-rule:nonzero;fill:rgb(100%,100%,100%);fill-opacity:1;stroke-width:1.5;stroke-linecap:butt;stroke-linejoin:miter;stroke:rgb(13.730068%,12.159915%,12.54902%);stroke-opacity:1;stroke-miterlimit:4;" d="M 384.710938 170.710938 L 384.710938 177.460938 L 391.460938 177.460938 L 391.460938 170.710938 L 384.710938 170.710938 Z M 384.710938 170.710938 " transform="matrix(1,0,0,-1,0,793)"/>
<path style="fill-rule:nonzero;fill:rgb(100%,100%,100%);fill-opacity:1;stroke-width:1.5;stroke-linecap:butt;stroke-linejoin:miter;stroke:rgb(13.730068%,12.159915%,12.54902%);stroke-opacity:1;stroke-miterlimit:4;" d="M 391.460938 170.710938 L 391.460938 177.460938 L 398.210938 177.460938 L 398.210938 170.710938 L 391.460938 170.710938 Z M 391.460938 170.710938 " transform="matrix(1,0,0,-1,0,793)"/>
<path style="fill-rule:nonzero;fill:rgb(100%,100%,100%);fill-opacity:1;stroke-width:1.5;stroke-linecap:butt;stroke-linejoin:miter;stroke:rgb(13.730068%,12.159915%,12.54902%);stroke-opacity:1;stroke-miterlimit:4;" d="M 398.210938 170.710938 L 398.210938 177.460938 L 404.960938 177.460938 L 404.960938 170.710938 L 398.210938 170.710938 Z M 398.210938 170.710938 " transform="matrix(1,0,0,-1,0,793)"/>
<path style="fill-rule:nonzero;fill:rgb(100%,100%,100%);fill-opacity:1;stroke-width:1.5;stroke-linecap:butt;stroke-linejoin:miter;stroke:rgb(13.730068%,12.159915%,12.54902%);stroke-opacity:1;stroke-miterlimit:4;" d="M 404.960938 170.710938 L 404.960938 177.460938 L 411.710938 177.460938 L 411.710938 170.710938 L 404.960938 170.710938 Z M 404.960938 170.710938 " transform="matrix(1,0,0,-1,0,793)"/>
<path style="fill-rule:nonzero;fill:rgb(100%,100%,100%);fill-opacity:1;stroke-width:1.5;stroke-linecap:butt;stroke-linejoin:miter;stroke:rgb(13.730068%,12.159915%,12.54902%);stroke-opacity:1;stroke-miterlimit:4;" d="M 411.710938 170.710938 L 411.710938 177.460938 L 418.460938 177.460938 L 418.460938 170.710938 L 411.710938 170.710938 Z M 411.710938 170.710938 " transform="matrix(1,0,0,-1,0,793)"/>
<path style="fill-rule:nonzero;fill:rgb(100%,100%,100%);fill-opacity:1;stroke-width:1.5;stroke-linecap:butt;stroke-linejoin:miter;stroke:rgb(13.730068%,12.159915%,12.54902%);stroke-opacity:1;stroke-miterlimit:4;" d="M 377.941406 163.960938 L 377.941406 170.710938 L 384.691406 170.710938 L 384.691406 163.960938 L 377.941406 163.960938 Z M 377.941406 163.960938 " transform="matrix(1,0,0,-1,0,793)"/>
<path style="fill-rule:nonzero;fill:rgb(100%,100%,100%);fill-opacity:1;stroke-width:1.5;stroke-linecap:butt;stroke-linejoin:miter;stroke:rgb(13.730068%,12.159915%,12.54902%);stroke-opacity:1;stroke-miterlimit:4;" d="M 384.710938 163.960938 L 384.710938 170.710938 L 391.460938 170.710938 L 391.460938 163.960938 L 384.710938 163.960938 Z M 384.710938 163.960938 " transform="matrix(1,0,0,-1,0,793)"/>
<path style="fill-rule:nonzero;fill:rgb(100%,100%,100%);fill-opacity:1;stroke-width:1.5;stroke-linecap:butt;stroke-linejoin:miter;stroke:rgb(13.730068%,12.159915%,12.54902%);stroke-opacity:1;stroke-miterlimit:4;" d="M 391.460938 163.960938 L 391.460938 170.710938 L 398.210938 170.710938 L 398.210938 163.960938 L 391.460938 163.960938 Z M 391.460938 163.960938 " transform="matrix(1,0,0,-1,0,793)"/>
<path style="fill-rule:nonzero;fill:rgb(100%,100%,100%);fill-opacity:1;stroke-width:1.5;stroke-linecap:butt;stroke-linejoin:miter;stroke:rgb(13.730068%,12.159915%,12.54902%);stroke-opacity:1;stroke-miterlimit:4;" d="M 398.210938 163.960938 L 398.210938 170.710938 L 404.960938 170.710938 L 404.960938 163.960938 L 398.210938 163.960938 Z M 398.210938 163.960938 " transform="matrix(1,0,0,-1,0,793)"/>
<path style="fill-rule:nonzero;fill:rgb(100%,100%,100%);fill-opacity:1;stroke-width:1.5;stroke-linecap:butt;stroke-linejoin:miter;stroke:rgb(13.730068%,12.159915%,12.54902%);stroke-opacity:1;stroke-miterlimit:4;" d="M 404.960938 163.960938 L 404.960938 170.710938 L 411.710938 170.710938 L 411.710938 163.960938 L 404.960938 163.960938 Z M 404.960938 163.960938 " transform="matrix(1,0,0,-1,0,793)"/>
<path style="fill-rule:nonzero;fill:rgb(100%,100%,100%);fill-opacity:1;stroke-width:1.5;stroke-linecap:butt;stroke-linejoin:miter;stroke:rgb(13.730068%,12.159915%,12.54902%);stroke-opacity:1;stroke-miterlimit:4;" d="M 411.710938 163.960938 L 411.710938 170.710938 L 418.460938 170.710938 L 418.460938 163.960938 L 411.710938 163.960938 Z M 411.710938 163.960938 " transform="matrix(1,0,0,-1,0,793)"/>
<path style="fill-rule:nonzero;fill:rgb(100%,100%,100%);fill-opacity:1;stroke-width:1.5;stroke-linecap:butt;stroke-linejoin:miter;stroke:rgb(13.730068%,12.159915%,12.54902%);stroke-opacity:1;stroke-miterlimit:4;" d="M 418.460938 163.960938 L 418.460938 170.710938 L 425.210938 170.710938 L 425.210938 163.960938 L 418.460938 163.960938 Z M 418.460938 163.960938 " transform="matrix(1,0,0,-1,0,793)"/>
<path style="fill-rule:nonzero;fill:rgb(100%,100%,100%);fill-opacity:1;stroke-width:1.5;stroke-linecap:butt;stroke-linejoin:miter;stroke:rgb(13.730068%,12.159915%,12.54902%);stroke-opacity:1;stroke-miterlimit:4;" d="M 384.710938 157.210938 L 384.710938 163.960938 L 391.460938 163.960938 L 391.460938 157.210938 L 384.710938 157.210938 Z M 384.710938 157.210938 " transform="matrix(1,0,0,-1,0,793)"/>
<path style="fill-rule:nonzero;fill:rgb(100%,100%,100%);fill-opacity:1;stroke-width:1.5;stroke-linecap:butt;stroke-linejoin:miter;stroke:rgb(13.730068%,12.159915%,12.54902%);stroke-opacity:1;stroke-miterlimit:4;" d="M 391.460938 157.210938 L 391.460938 163.960938 L 398.210938 163.960938 L 398.210938 157.210938 L 391.460938 157.210938 Z M 391.460938 157.210938 " transform="matrix(1,0,0,-1,0,793)"/>
<path style="fill-rule:nonzero;fill:rgb(100%,100%,100%);fill-opacity:1;stroke-width:1.5;stroke-linecap:butt;stroke-linejoin:miter;stroke:rgb(13.730068%,12.159915%,12.54902%);stroke-opacity:1;stroke-miterlimit:4;" d="M 398.210938 157.210938 L 398.210938 163.960938 L 404.960938 163.960938 L 404.960938 157.210938 L 398.210938 157.210938 Z M 398.210938 157.210938 " transform="matrix(1,0,0,-1,0,793)"/>
<path style="fill-rule:nonzero;fill:rgb(100%,100%,100%);fill-opacity:1;stroke-width:1.5;stroke-linecap:butt;stroke-linejoin:miter;stroke:rgb(13.730068%,12.159915%,12.54902%);stroke-opacity:1;stroke-miterlimit:4;" d="M 404.960938 157.210938 L 404.960938 163.960938 L 411.710938 163.960938 L 411.710938 157.210938 L 404.960938 157.210938 Z M 404.960938 157.210938 " transform="matrix(1,0,0,-1,0,793)"/>
<path style="fill-rule:nonzero;fill:rgb(100%,100%,100%);fill-opacity:1;stroke-width:1.5;stroke-linecap:butt;stroke-linejoin:miter;stroke:rgb(13.730068%,12.159915%,12.54902%);stroke-opacity:1;stroke-miterlimit:4;" d="M 411.710938 157.210938 L 411.710938 163.960938 L 418.460938 163.960938 L 418.460938 157.210938 L 411.710938 157.210938 Z M 411.710938 157.210938 " transform="matrix(1,0,0,-1,0,793)"/>
<path style="fill-rule:nonzero;fill:rgb(100%,100%,100%);fill-opacity:1;stroke-width:1.5;stroke-linecap:butt;stroke-linejoin:miter;stroke:rgb(13.730068%,12.159915%,12.54902%);stroke-opacity:1;stroke-miterlimit:4;" d="M 384.710938 150.460938 L 384.710938 157.210938 L 391.460938 157.210938 L 391.460938 150.460938 L 384.710938 150.460938 Z M 384.710938 150.460938 " transform="matrix(1,0,0,-1,0,793)"/>
<path style="fill-rule:nonzero;fill:rgb(100%,100%,100%);fill-opacity:1;stroke-width:1.5;stroke-linecap:butt;stroke-linejoin:miter;stroke:rgb(13.730068%,12.159915%,12.54902%);stroke-opacity:1;stroke-miterlimit:4;" d="M 391.460938 150.460938 L 391.460938 157.210938 L 398.210938 157.210938 L 398.210938 150.460938 L 391.460938 150.460938 Z M 391.460938 150.460938 " transform="matrix(1,0,0,-1,0,793)"/>
<path style="fill-rule:nonzero;fill:rgb(100%,100%,100%);fill-opacity:1;stroke-width:1.5;stroke-linecap:butt;stroke-linejoin:miter;stroke:rgb(13.730068%,12.159915%,12.54902%);stroke-opacity:1;stroke-miterlimit:4;" d="M 398.210938 150.460938 L 398.210938 157.210938 L 404.960938 157.210938 L 404.960938 150.460938 L 398.210938 150.460938 Z M 398.210938 150.460938 " transform="matrix(1,0,0,-1,0,793)"/>
<path style="fill-rule:nonzero;fill:rgb(100%,100%,100%);fill-opacity:1;stroke-width:1.5;stroke-linecap:butt;stroke-linejoin:miter;stroke:rgb(13.730068%,12.159915%,12.54902%);stroke-opacity:1;stroke-miterlimit:4;" d="M 404.960938 150.460938 L 404.960938 157.210938 L 411.710938 157.210938 L 411.710938 150.460938 L 404.960938 150.460938 Z M 404.960938 150.460938 " transform="matrix(1,0,0,-1,0,793)"/>
<path style="fill-rule:nonzero;fill:rgb(100%,100%,100%);fill-opacity:1;stroke-width:1.5;stroke-linecap:butt;stroke-linejoin:miter;stroke:rgb(13.730068%,12.159915%,12.54902%);stroke-opacity:1;stroke-miterlimit:4;" d="M 411.710938 150.460938 L 411.710938 157.210938 L 418.460938 157.210938 L 418.460938 150.460938 L 411.710938 150.460938 Z M 411.710938 150.460938 " transform="matrix(1,0,0,-1,0,793)"/>

</svg>