<svg xmlns="http://www.w3.org/2000/svg" xmlns:xlink="http://www.w3.org/1999/xlink" width="612pt" height="792pt" viewBox="0 0 612 792" version="1.1">

<!-- Energy Pulsar -->
<path style="fill-rule:nonzero;fill:rgb(100%,100%,100%);fill-opacity:1;stroke-width:0.75;stroke-linecap:butt;stroke-linejoin:miter;stroke:rgb(13.730068%,12.159915%,12.54902%);stroke-opacity:1;stroke-miterlimit:4;" d="M 256.425781 569.25 L 256.425781 598.5 L 251.925781 598.5 L 267.675781 618.75 L 283.425781 598.5 L 278.925781 598.5 L 278.925781 569.25 L 256.425781 569.25 Z M 256.425781 569.25 " transform="matrix(1,0,0,-1,0,793)"/>
<path style="fill-rule:nonzero;fill:rgb(100%,100%,100%);fill-opacity:1;stroke-width:0.75;stroke-linecap:butt;stroke-linejoin:miter;stroke:rgb(13.730068%,12.159915%,12.54902%);stroke-opacity:1;stroke-miterlimit:4;" d="M 264.300781 596.25 C 266.164062 596.25 267.675781 597.761719 267.675781 599.625 C 267.675781 601.488281 266.164062 603 264.300781 603 C 262.4375 603 260.925781 601.488281 260.925781 599.625 C 260.925781 597.761719 262.4375 596.25 264.300781 596.25 Z M 264.300781 596.25 " transform="matrix(1,0,0,-1,0,793)"/>
<path style="fill-rule:nonzero;fill:rgb(100%,100%,100%);fill-opacity:1;stroke-width:0.75;stroke-linecap:butt;stroke-linejoin:miter;stroke:rgb(13.730068%,12.159915%,12.54902%);stroke-opacity:1;stroke-miterlimit:4;" d="M 271.050781 596.25 C 272.914062 596.25 274.425781 597.761719 274.425781 599.625 C 274.425781 601.488281 272.914062 603 271.050781 603 C 269.1875 603 267.675781 601.488281 267.675781 599.625 C 267.675781 597.761719 269.1875 596.25 271.050781 596.25 Z M 271.050781 596.25 " transform="matrix(1,0,0,-1,0,793)"/>
<path style="fill-rule:nonzero;fill:rgb(100%,100%,100%);fill-opacity:1;stroke-width:0.75;stroke-linecap:butt;stroke-linejoin:miter;stroke:rgb(13.730068%,12.159915%,12.54902%);stroke-opacity:1;stroke-miterlimit:4;" d="M 267.550781 603 C 269.414062 603 270.925781 604.511719 270.925781 606.375 C 270.925781 608.238281 269.414062 609.75 267.550781 609.75 C 265.6875 609.75 264.175781 608.238281 264.175781 606.375 C 264.175781 604.511719 265.6875 603 267.550781 603 Z M 267.550781 603 " transform="matrix(1,0,0,-1,0,793)"/>

<!-- Damage Boxes -->
<path style="fill-rule:nonzero;fill:rgb(100%,100%,100%);fill-opacity:1;stroke-width:1.5;stroke-linecap:butt;stroke-linejoin:miter;stroke:rgb(13.730068%,12.159915%,12.54902%);stroke-opacity:1;stroke-miterlimit:4;" d="M 267.675781 587.25 L 267.675781 594 L 260.925781 594 L 260.925781 587.25 L 267.675781 587.25 Z M 267.675781 587.25 " transform="matrix(1,0,0,-1,0,793)"/>
<path style="fill-rule:nonzero;fill:rgb(100%,100%,100%);fill-opacity:1;stroke-width:1.5;stroke-linecap:butt;stroke-linejoin:miter;stroke:rgb(13.730068%,12.159915%,12.54902%);stroke-opacity:1;stroke-miterlimit:4;" d="M 274.425781 587.25 L 274.425781 594 L 267.675781 594 L 267.675781 587.25 L 274.425781 587.25 Z M 274.425781 587.25 " transform="matrix(1,0,0,-1,0,793)"/>
<path style="fill-rule:nonzero;fill:rgb(100%,100%,100%);fill-opacity:1;stroke-width:1.5;stroke-linecap:butt;stroke-linejoin:miter;stroke:rgb(13.730068%,12.159915%,12.54902%);stroke-opacity:1;stroke-miterlimit:4;" d="M 267.675781 580.5 L 267.675781 587.25 L 260.925781 587.25 L 260.925781 580.5 L 267.675781 580.5 Z M 267.675781 580.5 " transform="matrix(1,0,0,-1,0,793)"/>
<path style="fill-rule:nonzero;fill:rgb(100%,100%,100%);fill-opacity:1;stroke-width:1.5;stroke-linecap:butt;stroke-linejoin:miter;stroke:rgb(13.730068%,12.159915%,12.54902%);stroke-opacity:1;stroke-miterlimit:4;" d="M 274.425781 580.5 L 274.425781 587.25 L 267.675781 587.25 L 267.675781 580.5 L 274.425781 580.5 Z M 274.425781 580.5 " transform="matrix(1,0,0,-1,0,793)"/>
<path style="fill-rule:nonzero;fill:rgb(100%,100%,100%);fill-opacity:1;stroke-width:1.5;stroke-linecap:butt;stroke-linejoin:miter;stroke:rgb(13.730068%,12.159915%,12.54902%);stroke-opacity:1;stroke-miterlimit:4;" d="M 267.675781 573.75 L 267.675781 580.5 L 260.925781 580.5 L 260.925781 573.75 L 267.675781 573.75 Z M 267.675781 573.75 " transform="matrix(1,0,0,-1,0,793)"/>
<path style="fill-rule:nonzero;fill:rgb(100%,100%,100%);fill-opacity:1;stroke-width:1.5;stroke-linecap:butt;stroke-linejoin:miter;stroke:rgb(13.730068%,12.159915%,12.54902%);stroke-opacity:1;stroke-miterlimit:4;" d="M 274.425781 573.75 L 274.425781 580.5 L 267.675781 580.5 L 267.675781 573.75 L 274.425781 573.75 Z M 274.425781 573.75 " transform="matrix(1,0,0,-1,0,793)"/>

</svg>