<svg xmlns="http://www.w3.org/2000/svg" xmlns:xlink="http://www.w3.org/1999/xlink" width="612pt" height="792pt" viewBox="0 0 612 792" version="1.1">

<!-- Energy Diffuser (7) -->
<path style="fill-rule:nonzero;fill:rgb(100%,100%,100%);fill-opacity:1;stroke-width:0.5095;stroke-linecap:butt;stroke-linejoin:miter;stroke:rgb(13.730068%,12.159915%,12.54902%);stroke-opacity:1;stroke-miterlimit:4;" d="M 479.957031 323.515625 C 492.191406 323.515625 502.109375 333.433594 502.109375 345.667969 C 502.109375 357.902344 492.191406 367.820312 479.957031 367.820312 C 467.722656 367.820312 457.804688 357.902344 457.804688 345.667969 C 457.804688 333.433594 467.722656 323.515625 479.957031 323.515625 Z M 479.957031 323.515625 " transform="matrix(1,0,0,-1,0,793)"/>
<path style="fill-rule:nonzero;fill:rgb(100%,100%,100%);fill-opacity:1;stroke-width:0.5095;stroke-linecap:butt;stroke-linejoin:miter;stroke:rgb(13.730068%,12.159915%,12.54902%);stroke-opacity:1;stroke-miterlimit:4;" d="M 479.957031 325.527344 C 491.078125 325.527344 500.097656 334.542969 500.097656 345.667969 C 500.097656 356.789062 491.078125 365.804688 479.957031 365.804688 C 468.835938 365.804688 459.820312 356.789062 459.820312 345.667969 C 459.820312 334.542969 468.835938 325.527344 479.957031 325.527344 Z M 479.957031 325.527344 " transform="matrix(1,0,0,-1,0,793)"/>
<path style="fill-rule:nonzero;fill:rgb(100%,100%,100%);fill-opacity:1;stroke-width:0.5095;stroke-linecap:butt;stroke-linejoin:miter;stroke:rgb(13.730068%,12.159915%,12.54902%);stroke-opacity:1;stroke-miterlimit:4;" d="M 479.957031 327.359375 C 490.070312 327.359375 498.265625 335.554688 498.265625 345.667969 C 498.265625 355.777344 490.070312 363.972656 479.957031 363.972656 C 469.847656 363.972656 461.652344 355.777344 461.652344 345.667969 C 461.652344 335.554688 469.847656 327.359375 479.957031 327.359375 Z M 479.957031 327.359375 " transform="matrix(1,0,0,-1,0,793)"/>

<!-- Annotation -->
<path style="opacity:0.5;fill:#ffffff;fill-opacity:1;fill-rule:nonzero;stroke:#ff1e1e;stroke-width:1.5;stroke-linecap:butt;stroke-linejoin:miter;stroke-miterlimit:4;stroke-opacity:1" d="m 483.38889,463.82207 0,-6.75 -6.75,0 0,6.75 6.75,0 z m 0,0"/>
     
<!-- Damage Boxes -->
<path style="fill-rule:nonzero;fill:rgb(100%,100%,100%);fill-opacity:1;stroke-width:1.5;stroke-linecap:butt;stroke-linejoin:miter;stroke:rgb(13.730068%,12.159915%,12.54902%);stroke-opacity:1;stroke-miterlimit:4;" d="M 483.375 351.289062 L 483.375 358.039062 L 476.625 358.039062 L 476.625 351.289062 L 483.375 351.289062 Z M 483.375 351.289062 " transform="matrix(1,0,0,-1,0,793)"/>
<path style="fill-rule:nonzero;fill:rgb(100%,100%,100%);fill-opacity:1;stroke-width:1.5;stroke-linecap:butt;stroke-linejoin:miter;stroke:rgb(13.730068%,12.159915%,12.54902%);stroke-opacity:1;stroke-miterlimit:4;" d="M 476.625 344.539062 L 476.625 351.289062 L 469.875 351.289062 L 469.875 344.539062 L 476.625 344.539062 Z M 476.625 344.539062 " transform="matrix(1,0,0,-1,0,793)"/>
<path style="fill-rule:nonzero;fill:rgb(100%,100%,100%);fill-opacity:1;stroke-width:1.5;stroke-linecap:butt;stroke-linejoin:miter;stroke:rgb(13.730068%,12.159915%,12.54902%);stroke-opacity:1;stroke-miterlimit:4;" d="M 483.375 344.539062 L 483.375 351.289062 L 476.625 351.289062 L 476.625 344.539062 L 483.375 344.539062 Z M 483.375 344.539062 " transform="matrix(1,0,0,-1,0,793)"/>
<path style="fill-rule:nonzero;fill:rgb(100%,100%,100%);fill-opacity:1;stroke-width:1.5;stroke-linecap:butt;stroke-linejoin:miter;stroke:rgb(13.730068%,12.159915%,12.54902%);stroke-opacity:1;stroke-miterlimit:4;" d="M 490.125 344.539062 L 490.125 351.289062 L 483.375 351.289062 L 483.375 344.539062 L 490.125 344.539062 Z M 490.125 344.539062 " transform="matrix(1,0,0,-1,0,793)"/>
<path style="fill-rule:nonzero;fill:rgb(100%,100%,100%);fill-opacity:1;stroke-width:1.5;stroke-linecap:butt;stroke-linejoin:miter;stroke:rgb(13.730068%,12.159915%,12.54902%);stroke-opacity:1;stroke-miterlimit:4;" d="M 476.625 337.789062 L 476.625 344.539062 L 469.875 344.539062 L 469.875 337.789062 L 476.625 337.789062 Z M 476.625 337.789062 " transform="matrix(1,0,0,-1,0,793)"/>
<path style="fill-rule:nonzero;fill:rgb(100%,100%,100%);fill-opacity:1;stroke-width:1.5;stroke-linecap:butt;stroke-linejoin:miter;stroke:rgb(13.730068%,12.159915%,12.54902%);stroke-opacity:1;stroke-miterlimit:4;" d="M 483.375 337.789062 L 483.375 344.539062 L 476.625 344.539062 L 476.625 337.789062 L 483.375 337.789062 Z M 483.375 337.789062 " transform="matrix(1,0,0,-1,0,793)"/>
<path style="fill-rule:nonzero;fill:rgb(100%,100%,100%);fill-opacity:1;stroke-width:1.5;stroke-linecap:butt;stroke-linejoin:miter;stroke:rgb(13.730068%,12.159915%,12.54902%);stroke-opacity:1;stroke-miterlimit:4;" d="M 490.125 337.789062 L 490.125 344.539062 L 483.375 344.539062 L 483.375 337.789062 L 490.125 337.789062 Z M 490.125 337.789062 " transform="matrix(1,0,0,-1,0,793)"/>

</svg>