<svg xmlns="http://www.w3.org/2000/svg" xmlns:xlink="http://www.w3.org/1999/xlink" width="612pt" height="792pt" viewBox="0 0 612 792" version="1.1">

<!-- Energy Diffuser (9) -->
<path style="fill-rule:nonzero;fill:rgb(100%,100%,100%);fill-opacity:1;stroke-width:0.75;stroke-linecap:butt;stroke-linejoin:miter;stroke:rgb(13.730068%,12.159915%,12.54902%);stroke-opacity:1;stroke-miterlimit:4;" d="M 450 510.386719 C 436.75 510.386719 426.011719 521.125 426.011719 534.375 C 426.011719 547.621094 436.75 558.363281 450 558.363281 C 463.246094 558.363281 473.988281 547.621094 473.988281 534.375 C 473.988281 521.125 463.246094 510.386719 450 510.386719 Z M 450 510.386719 " transform="matrix(1,0,0,-1,0,793)"/>
<path style="fill-rule:nonzero;fill:rgb(100%,100%,100%);fill-opacity:1;stroke-width:0.75;stroke-linecap:butt;stroke-linejoin:miter;stroke:rgb(13.730068%,12.159915%,12.54902%);stroke-opacity:1;stroke-miterlimit:4;" d="M 450 512.566406 C 437.957031 512.566406 428.191406 522.332031 428.191406 534.375 C 428.191406 546.417969 437.957031 556.183594 450 556.183594 C 462.042969 556.183594 471.808594 546.417969 471.808594 534.375 C 471.808594 522.332031 462.042969 512.566406 450 512.566406 Z M 450 512.566406 " transform="matrix(1,0,0,-1,0,793)"/>
<path style="fill-rule:nonzero;fill:rgb(100%,100%,100%);fill-opacity:1;stroke-width:0.75;stroke-linecap:butt;stroke-linejoin:miter;stroke:rgb(13.730068%,12.159915%,12.54902%);stroke-opacity:1;stroke-miterlimit:4;" d="M 450 514.550781 C 439.050781 514.550781 430.175781 523.425781 430.175781 534.375 C 430.175781 545.324219 439.050781 554.199219 450 554.199219 C 460.949219 554.199219 469.824219 545.324219 469.824219 534.375 C 469.824219 523.425781 460.949219 514.550781 450 514.550781 Z M 450 514.550781 " transform="matrix(1,0,0,-1,0,793)"/>

<!-- Annotation -->
<path style="opacity:0.5;fill:#ffffff;fill-opacity:1;fill-rule:nonzero;stroke:#ff1e1e;stroke-width:1.5;stroke-linecap:butt;stroke-linejoin:miter;stroke-miterlimit:4;stroke-opacity:1" d="m 446.61459,276.97884 0,-6.75 6.75,0 0,6.75 -6.75,0 z m 0,0"/>
     
<!-- Damage Boxes -->
<path style="fill-rule:nonzero;fill:rgb(100%,100%,100%);fill-opacity:1;stroke-width:1.5;stroke-linecap:butt;stroke-linejoin:miter;stroke:rgb(13.730068%,12.159915%,12.54902%);stroke-opacity:1;stroke-miterlimit:4;" d="M 439.875 537.75 L 439.875 544.5 L 446.625 544.5 L 446.625 537.75 L 439.875 537.75 Z M 439.875 537.75 " transform="matrix(1,0,0,-1,0,793)"/>
<path style="fill-rule:nonzero;fill:rgb(100%,100%,100%);fill-opacity:1;stroke-width:1.5;stroke-linecap:butt;stroke-linejoin:miter;stroke:rgb(13.730068%,12.159915%,12.54902%);stroke-opacity:1;stroke-miterlimit:4;" d="M 446.625 537.75 L 446.625 544.5 L 453.375 544.5 L 453.375 537.75 L 446.625 537.75 Z M 446.625 537.75 " transform="matrix(1,0,0,-1,0,793)"/>
<path style="fill-rule:nonzero;fill:rgb(100%,100%,100%);fill-opacity:1;stroke-width:1.5;stroke-linecap:butt;stroke-linejoin:miter;stroke:rgb(13.730068%,12.159915%,12.54902%);stroke-opacity:1;stroke-miterlimit:4;" d="M 453.375 537.75 L 453.375 544.5 L 460.125 544.5 L 460.125 537.75 L 453.375 537.75 Z M 453.375 537.75 " transform="matrix(1,0,0,-1,0,793)"/>
<path style="fill-rule:nonzero;fill:rgb(100%,100%,100%);fill-opacity:1;stroke-width:1.5;stroke-linecap:butt;stroke-linejoin:miter;stroke:rgb(13.730068%,12.159915%,12.54902%);stroke-opacity:1;stroke-miterlimit:4;" d="M 439.875 531 L 439.875 537.75 L 446.625 537.75 L 446.625 531 L 439.875 531 Z M 439.875 531 " transform="matrix(1,0,0,-1,0,793)"/>
<path style="fill-rule:nonzero;fill:rgb(100%,100%,100%);fill-opacity:1;stroke-width:1.5;stroke-linecap:butt;stroke-linejoin:miter;stroke:rgb(13.730068%,12.159915%,12.54902%);stroke-opacity:1;stroke-miterlimit:4;" d="M 446.625 531 L 446.625 537.75 L 453.375 537.75 L 453.375 531 L 446.625 531 Z M 446.625 531 " transform="matrix(1,0,0,-1,0,793)"/>
<path style="fill-rule:nonzero;fill:rgb(100%,100%,100%);fill-opacity:1;stroke-width:1.5;stroke-linecap:butt;stroke-linejoin:miter;stroke:rgb(13.730068%,12.159915%,12.54902%);stroke-opacity:1;stroke-miterlimit:4;" d="M 453.375 531 L 453.375 537.75 L 460.125 537.75 L 460.125 531 L 453.375 531 Z M 453.375 531 " transform="matrix(1,0,0,-1,0,793)"/>
<path style="fill-rule:nonzero;fill:rgb(100%,100%,100%);fill-opacity:1;stroke-width:1.5;stroke-linecap:butt;stroke-linejoin:miter;stroke:rgb(13.730068%,12.159915%,12.54902%);stroke-opacity:1;stroke-miterlimit:4;" d="M 439.875 524.25 L 439.875 531 L 446.625 531 L 446.625 524.25 L 439.875 524.25 Z M 439.875 524.25 " transform="matrix(1,0,0,-1,0,793)"/>
<path style="fill-rule:nonzero;fill:rgb(100%,100%,100%);fill-opacity:1;stroke-width:1.5;stroke-linecap:butt;stroke-linejoin:miter;stroke:rgb(13.730068%,12.159915%,12.54902%);stroke-opacity:1;stroke-miterlimit:4;" d="M 446.625 524.25 L 446.625 531 L 453.375 531 L 453.375 524.25 L 446.625 524.25 Z M 446.625 524.25 " transform="matrix(1,0,0,-1,0,793)"/>
<path style="fill-rule:nonzero;fill:rgb(100%,100%,100%);fill-opacity:1;stroke-width:1.5;stroke-linecap:butt;stroke-linejoin:miter;stroke:rgb(13.730068%,12.159915%,12.54902%);stroke-opacity:1;stroke-miterlimit:4;" d="M 453.375 524.25 L 453.375 531 L 460.125 531 L 460.125 524.25 L 453.375 524.25 Z M 453.375 524.25 " transform="matrix(1,0,0,-1,0,793)"/>

</svg>