<svg xmlns="http://www.w3.org/2000/svg" xmlns:xlink="http://www.w3.org/1999/xlink" width="612pt" height="792pt" viewBox="0 0 612 792" version="1.1">

<!-- Energy Diffuser (21) -->
<path style="fill-rule:nonzero;fill:rgb(100%,100%,100%);fill-opacity:1;stroke-width:0.75;stroke-linecap:butt;stroke-linejoin:miter;stroke:rgb(13.730068%,12.159915%,12.54902%);stroke-opacity:1;stroke-miterlimit:4;" d="M 451.757812 201.546875 C 469.75 201.546875 484.335938 216.132812 484.335938 234.125 C 484.335938 252.117188 469.75 266.703125 451.757812 266.703125 C 433.769531 266.703125 419.183594 252.117188 419.183594 234.125 C 419.183594 216.132812 433.769531 201.546875 451.757812 201.546875 Z M 451.757812 201.546875 " transform="matrix(1,0,0,-1,0,793)"/>
<path style="fill-rule:nonzero;fill:rgb(100%,100%,100%);fill-opacity:1;stroke-width:0.75;stroke-linecap:butt;stroke-linejoin:miter;stroke:rgb(13.730068%,12.159915%,12.54902%);stroke-opacity:1;stroke-miterlimit:4;" d="M 451.757812 204.507812 C 468.117188 204.507812 481.375 217.769531 481.375 234.125 C 481.375 250.480469 468.117188 263.738281 451.757812 263.738281 C 435.402344 263.738281 422.144531 250.480469 422.144531 234.125 C 422.144531 217.769531 435.402344 204.507812 451.757812 204.507812 Z M 451.757812 204.507812 " transform="matrix(1,0,0,-1,0,793)"/>
<path style="fill-rule:nonzero;fill:rgb(100%,100%,100%);fill-opacity:1;stroke-width:0.75;stroke-linecap:butt;stroke-linejoin:miter;stroke:rgb(13.730068%,12.159915%,12.54902%);stroke-opacity:1;stroke-miterlimit:4;" d="M 451.757812 207.203125 C 466.628906 207.203125 478.683594 219.257812 478.683594 234.125 C 478.683594 248.992188 466.628906 261.046875 451.757812 261.046875 C 436.890625 261.046875 424.835938 248.992188 424.835938 234.125 C 424.835938 219.257812 436.890625 207.203125 451.757812 207.203125 Z M 451.757812 207.203125 " transform="matrix(1,0,0,-1,0,793)"/>

<!-- Annotation -->
<path style="opacity:0.5;fill:#ffffff;fill-opacity:1;fill-rule:nonzero;stroke:#ff1e1e;stroke-width:1.5;stroke-linecap:butt;stroke-linejoin:miter;stroke-miterlimit:4;stroke-opacity:1" d="m 455.13534,583.807 0,-6.75 -6.75,0 0,6.75 6.75,0 z m 0,0"/>
     
<!-- Damage Boxes -->
<path style="fill-rule:nonzero;fill:rgb(100%,100%,100%);fill-opacity:1;stroke-width:1.5;stroke-linecap:butt;stroke-linejoin:miter;stroke:rgb(13.730068%,12.159915%,12.54902%);stroke-opacity:1;stroke-miterlimit:4;" d="M 448.375 244.960938 L 448.375 251.710938 L 441.625 251.710938 L 441.625 244.960938 L 448.375 244.960938 Z M 448.375 244.960938 " transform="matrix(1,0,0,-1,0,793)"/>
<path style="fill-rule:nonzero;fill:rgb(100%,100%,100%);fill-opacity:1;stroke-width:1.5;stroke-linecap:butt;stroke-linejoin:miter;stroke:rgb(13.730068%,12.159915%,12.54902%);stroke-opacity:1;stroke-miterlimit:4;" d="M 455.125 244.960938 L 455.125 251.710938 L 448.375 251.710938 L 448.375 244.960938 L 455.125 244.960938 Z M 455.125 244.960938 " transform="matrix(1,0,0,-1,0,793)"/>
<path style="fill-rule:nonzero;fill:rgb(100%,100%,100%);fill-opacity:1;stroke-width:1.5;stroke-linecap:butt;stroke-linejoin:miter;stroke:rgb(13.730068%,12.159915%,12.54902%);stroke-opacity:1;stroke-miterlimit:4;" d="M 461.875 244.960938 L 461.875 251.710938 L 455.125 251.710938 L 455.125 244.960938 L 461.875 244.960938 Z M 461.875 244.960938 " transform="matrix(1,0,0,-1,0,793)"/>
<path style="fill-rule:nonzero;fill:rgb(100%,100%,100%);fill-opacity:1;stroke-width:1.5;stroke-linecap:butt;stroke-linejoin:miter;stroke:rgb(13.730068%,12.159915%,12.54902%);stroke-opacity:1;stroke-miterlimit:4;" d="M 441.625 238.210938 L 441.625 244.960938 L 434.875 244.960938 L 434.875 238.210938 L 441.625 238.210938 Z M 441.625 238.210938 " transform="matrix(1,0,0,-1,0,793)"/>
<path style="fill-rule:nonzero;fill:rgb(100%,100%,100%);fill-opacity:1;stroke-width:1.5;stroke-linecap:butt;stroke-linejoin:miter;stroke:rgb(13.730068%,12.159915%,12.54902%);stroke-opacity:1;stroke-miterlimit:4;" d="M 448.375 238.210938 L 448.375 244.960938 L 441.625 244.960938 L 441.625 238.210938 L 448.375 238.210938 Z M 448.375 238.210938 " transform="matrix(1,0,0,-1,0,793)"/>
<path style="fill-rule:nonzero;fill:rgb(100%,100%,100%);fill-opacity:1;stroke-width:1.5;stroke-linecap:butt;stroke-linejoin:miter;stroke:rgb(13.730068%,12.159915%,12.54902%);stroke-opacity:1;stroke-miterlimit:4;" d="M 455.125 238.210938 L 455.125 244.960938 L 448.375 244.960938 L 448.375 238.210938 L 455.125 238.210938 Z M 455.125 238.210938 " transform="matrix(1,0,0,-1,0,793)"/>
<path style="fill-rule:nonzero;fill:rgb(100%,100%,100%);fill-opacity:1;stroke-width:1.5;stroke-linecap:butt;stroke-linejoin:miter;stroke:rgb(13.730068%,12.159915%,12.54902%);stroke-opacity:1;stroke-miterlimit:4;" d="M 461.875 238.210938 L 461.875 244.960938 L 455.125 244.960938 L 455.125 238.210938 L 461.875 238.210938 Z M 461.875 238.210938 " transform="matrix(1,0,0,-1,0,793)"/>
<path style="fill-rule:nonzero;fill:rgb(100%,100%,100%);fill-opacity:1;stroke-width:1.5;stroke-linecap:butt;stroke-linejoin:miter;stroke:rgb(13.730068%,12.159915%,12.54902%);stroke-opacity:1;stroke-miterlimit:4;" d="M 468.625 238.210938 L 468.625 244.960938 L 461.875 244.960938 L 461.875 238.210938 L 468.625 238.210938 Z M 468.625 238.210938 " transform="matrix(1,0,0,-1,0,793)"/>
<path style="fill-rule:nonzero;fill:rgb(100%,100%,100%);fill-opacity:1;stroke-width:1.5;stroke-linecap:butt;stroke-linejoin:miter;stroke:rgb(13.730068%,12.159915%,12.54902%);stroke-opacity:1;stroke-miterlimit:4;" d="M 441.625 231.460938 L 441.625 238.210938 L 434.875 238.210938 L 434.875 231.460938 L 441.625 231.460938 Z M 441.625 231.460938 " transform="matrix(1,0,0,-1,0,793)"/>
<path style="fill-rule:nonzero;fill:rgb(100%,100%,100%);fill-opacity:1;stroke-width:1.5;stroke-linecap:butt;stroke-linejoin:miter;stroke:rgb(13.730068%,12.159915%,12.54902%);stroke-opacity:1;stroke-miterlimit:4;" d="M 448.375 231.460938 L 448.375 238.210938 L 441.625 238.210938 L 441.625 231.460938 L 448.375 231.460938 Z M 448.375 231.460938 " transform="matrix(1,0,0,-1,0,793)"/>
<path style="fill-rule:nonzero;fill:rgb(100%,100%,100%);fill-opacity:1;stroke-width:1.5;stroke-linecap:butt;stroke-linejoin:miter;stroke:rgb(13.730068%,12.159915%,12.54902%);stroke-opacity:1;stroke-miterlimit:4;" d="M 455.125 231.460938 L 455.125 238.210938 L 448.375 238.210938 L 448.375 231.460938 L 455.125 231.460938 Z M 455.125 231.460938 " transform="matrix(1,0,0,-1,0,793)"/>
<path style="fill-rule:nonzero;fill:rgb(100%,100%,100%);fill-opacity:1;stroke-width:1.5;stroke-linecap:butt;stroke-linejoin:miter;stroke:rgb(13.730068%,12.159915%,12.54902%);stroke-opacity:1;stroke-miterlimit:4;" d="M 461.875 231.460938 L 461.875 238.210938 L 455.125 238.210938 L 455.125 231.460938 L 461.875 231.460938 Z M 461.875 231.460938 " transform="matrix(1,0,0,-1,0,793)"/>
<path style="fill-rule:nonzero;fill:rgb(100%,100%,100%);fill-opacity:1;stroke-width:1.5;stroke-linecap:butt;stroke-linejoin:miter;stroke:rgb(13.730068%,12.159915%,12.54902%);stroke-opacity:1;stroke-miterlimit:4;" d="M 468.625 231.460938 L 468.625 238.210938 L 461.875 238.210938 L 461.875 231.460938 L 468.625 231.460938 Z M 468.625 231.460938 " transform="matrix(1,0,0,-1,0,793)"/>
<path style="fill-rule:nonzero;fill:rgb(100%,100%,100%);fill-opacity:1;stroke-width:1.5;stroke-linecap:butt;stroke-linejoin:miter;stroke:rgb(13.730068%,12.159915%,12.54902%);stroke-opacity:1;stroke-miterlimit:4;" d="M 441.625 224.710938 L 441.625 231.460938 L 434.875 231.460938 L 434.875 224.710938 L 441.625 224.710938 Z M 441.625 224.710938 " transform="matrix(1,0,0,-1,0,793)"/>
<path style="fill-rule:nonzero;fill:rgb(100%,100%,100%);fill-opacity:1;stroke-width:1.5;stroke-linecap:butt;stroke-linejoin:miter;stroke:rgb(13.730068%,12.159915%,12.54902%);stroke-opacity:1;stroke-miterlimit:4;" d="M 448.375 224.710938 L 448.375 231.460938 L 441.625 231.460938 L 441.625 224.710938 L 448.375 224.710938 Z M 448.375 224.710938 " transform="matrix(1,0,0,-1,0,793)"/>
<path style="fill-rule:nonzero;fill:rgb(100%,100%,100%);fill-opacity:1;stroke-width:1.5;stroke-linecap:butt;stroke-linejoin:miter;stroke:rgb(13.730068%,12.159915%,12.54902%);stroke-opacity:1;stroke-miterlimit:4;" d="M 455.125 224.710938 L 455.125 231.460938 L 448.375 231.460938 L 448.375 224.710938 L 455.125 224.710938 Z M 455.125 224.710938 " transform="matrix(1,0,0,-1,0,793)"/>
<path style="fill-rule:nonzero;fill:rgb(100%,100%,100%);fill-opacity:1;stroke-width:1.5;stroke-linecap:butt;stroke-linejoin:miter;stroke:rgb(13.730068%,12.159915%,12.54902%);stroke-opacity:1;stroke-miterlimit:4;" d="M 461.875 224.710938 L 461.875 231.460938 L 455.125 231.460938 L 455.125 224.710938 L 461.875 224.710938 Z M 461.875 224.710938 " transform="matrix(1,0,0,-1,0,793)"/>
<path style="fill-rule:nonzero;fill:rgb(100%,100%,100%);fill-opacity:1;stroke-width:1.5;stroke-linecap:butt;stroke-linejoin:miter;stroke:rgb(13.730068%,12.159915%,12.54902%);stroke-opacity:1;stroke-miterlimit:4;" d="M 468.625 224.710938 L 468.625 231.460938 L 461.875 231.460938 L 461.875 224.710938 L 468.625 224.710938 Z M 468.625 224.710938 " transform="matrix(1,0,0,-1,0,793)"/>
<path style="fill-rule:nonzero;fill:rgb(100%,100%,100%);fill-opacity:1;stroke-width:1.5;stroke-linecap:butt;stroke-linejoin:miter;stroke:rgb(13.730068%,12.159915%,12.54902%);stroke-opacity:1;stroke-miterlimit:4;" d="M 448.375 217.960938 L 448.375 224.710938 L 441.625 224.710938 L 441.625 217.960938 L 448.375 217.960938 Z M 448.375 217.960938 " transform="matrix(1,0,0,-1,0,793)"/>
<path style="fill-rule:nonzero;fill:rgb(100%,100%,100%);fill-opacity:1;stroke-width:1.5;stroke-linecap:butt;stroke-linejoin:miter;stroke:rgb(13.730068%,12.159915%,12.54902%);stroke-opacity:1;stroke-miterlimit:4;" d="M 455.125 217.960938 L 455.125 224.710938 L 448.375 224.710938 L 448.375 217.960938 L 455.125 217.960938 Z M 455.125 217.960938 " transform="matrix(1,0,0,-1,0,793)"/>
<path style="fill-rule:nonzero;fill:rgb(100%,100%,100%);fill-opacity:1;stroke-width:1.5;stroke-linecap:butt;stroke-linejoin:miter;stroke:rgb(13.730068%,12.159915%,12.54902%);stroke-opacity:1;stroke-miterlimit:4;" d="M 461.875 217.960938 L 461.875 224.710938 L 455.125 224.710938 L 455.125 217.960938 L 461.875 217.960938 Z M 461.875 217.960938 " transform="matrix(1,0,0,-1,0,793)"/>

</svg>