<svg xmlns="http://www.w3.org/2000/svg" xmlns:xlink="http://www.w3.org/1999/xlink" width="612pt" height="792pt" viewBox="0 0 612 792" version="1.1">

<!-- Flak Cannon -->
<path style="fill-rule:nonzero;fill:rgb(100%,100%,100%);fill-opacity:1;stroke-width:0.75;stroke-linecap:butt;stroke-linejoin:miter;stroke:rgb(0%,0%,0%);stroke-opacity:1;stroke-miterlimit:4;" d="M 153.204794 442.213988 L 153.204794 433.213988 L 157.786825 433.213988 L 157.786825 397.210081 L 142.036825 397.210081 L 142.036825 433.213988 L 146.372763 433.213988 L 146.372763 442.213988 L 153.204794 442.213988 Z M 153.204794 442.213988 " transform="matrix(1,0,0,-1,82.2288,678.7843)"/>
<path style="fill-rule:nonzero;fill:rgb(100%,100%,100%);fill-opacity:1;stroke-width:0.75;stroke-linecap:butt;stroke-linejoin:miter;stroke:rgb(0%,0%,0%);stroke-opacity:1;stroke-miterlimit:4;" d="M 156.587606 442.213988 L 156.587606 433.210081 L 154.837606 433.210081 L 154.837606 442.213988 L 156.587606 442.213988 Z M 156.587606 442.213988 " transform="matrix(1,0,0,-1,82.2288,678.7843)"/>
<path style="fill-rule:nonzero;fill:rgb(100%,100%,100%);fill-opacity:1;stroke-width:0.75;stroke-linecap:butt;stroke-linejoin:miter;stroke:rgb(0%,0%,0%);stroke-opacity:1;stroke-miterlimit:4;" d="M 144.786825 442.213988 L 144.786825 433.210081 L 143.036825 433.210081 L 143.036825 442.213988 L 144.786825 442.213988 Z M 144.786825 442.213988 " transform="matrix(1,0,0,-1,82.2288,678.7843)"/>

<!-- Damage Boxes -->
<path style="fill-rule:nonzero;fill:rgb(100%,100%,100%);fill-opacity:1;stroke-width:1.5;stroke-linecap:butt;stroke-linejoin:miter;stroke:rgb(0%,0%,0%);stroke-opacity:1;stroke-miterlimit:4;" d="M 146.536825 421.963988 L 153.286825 421.963988 L 153.286825 428.713988 L 146.536825 428.713988 L 146.536825 421.963988 Z M 146.536825 421.963988 " transform="matrix(1,0,0,-1,82.2288,678.7843)"/>
<path style="fill-rule:nonzero;fill:rgb(100%,100%,100%);fill-opacity:1;stroke-width:1.5;stroke-linecap:butt;stroke-linejoin:miter;stroke:rgb(0%,0%,0%);stroke-opacity:1;stroke-miterlimit:4;" d="M 146.536825 415.210081 L 153.286825 415.210081 L 153.286825 421.963988 L 146.536825 421.963988 L 146.536825 415.210081 Z M 146.536825 415.210081 " transform="matrix(1,0,0,-1,82.2288,678.7843)"/>
<path style="fill-rule:nonzero;fill:rgb(100%,100%,100%);fill-opacity:1;stroke-width:1.5;stroke-linecap:butt;stroke-linejoin:miter;stroke:rgb(0%,0%,0%);stroke-opacity:1;stroke-miterlimit:4;" d="M 146.536825 408.460081 L 153.286825 408.460081 L 153.286825 415.210081 L 146.536825 415.210081 L 146.536825 408.460081 Z M 146.536825 408.460081 " transform="matrix(1,0,0,-1,82.2288,678.7843)"/>
<path style="fill-rule:nonzero;fill:rgb(100%,100%,100%);fill-opacity:1;stroke-width:1.5;stroke-linecap:butt;stroke-linejoin:miter;stroke:rgb(0%,0%,0%);stroke-opacity:1;stroke-miterlimit:4;" d="M 146.536825 401.710081 L 153.286825 401.710081 L 153.286825 408.460081 L 146.536825 408.460081 L 146.536825 401.710081 Z M 146.536825 401.710081 " transform="matrix(1,0,0,-1,82.2288,678.7843)"/>

</svg>