<svg xmlns="http://www.w3.org/2000/svg" xmlns:xlink="http://www.w3.org/1999/xlink" width="612pt" height="792pt" viewBox="0 0 612 792" version="1.1">

<!-- Fuser -->
<path style="fill-rule:nonzero;fill:rgb(100%,100%,100%);fill-opacity:1;stroke-width:0.75;stroke-linecap:butt;stroke-linejoin:miter;stroke:rgb(13.730068%,12.159915%,12.54902%);stroke-opacity:1;stroke-miterlimit:4;" d="M 294.75 535.5 L 294.75 560.25 L 292.5 562.5 L 292.5 578.25 L 294.75 585 L 297 578.25 L 301.5 594 L 306 585 L 310.5 600.75 L 315 585 L 319.5 594 L 324 578.25 L 326.25 585 L 328.5 578.25 L 328.5 562.5 L 326.25 560.25 L 326.25 535.5 L 294.75 535.5 Z M 294.75 535.5 " transform="matrix(1,0,0,-1,17,773)"/>

<!-- Damage Boxes -->
<path style="fill-rule:nonzero;fill:rgb(100%,100%,100%);fill-opacity:1;stroke-width:1.5;stroke-linecap:butt;stroke-linejoin:miter;stroke:rgb(13.730068%,12.159915%,12.54902%);stroke-opacity:1;stroke-miterlimit:4;" d="M 310.5 573.75 L 310.5 580.5 L 303.75 580.5 L 303.75 573.75 L 310.5 573.75 Z M 310.5 573.75 " transform="matrix(1,0,0,-1,17,773)"/>
<path style="fill-rule:nonzero;fill:rgb(100%,100%,100%);fill-opacity:1;stroke-width:1.5;stroke-linecap:butt;stroke-linejoin:miter;stroke:rgb(13.730068%,12.159915%,12.54902%);stroke-opacity:1;stroke-miterlimit:4;" d="M 317.25 573.75 L 317.25 580.5 L 310.5 580.5 L 310.5 573.75 L 317.25 573.75 Z M 317.25 573.75 " transform="matrix(1,0,0,-1,17,773)"/>
<path style="fill-rule:nonzero;fill:rgb(100%,100%,100%);fill-opacity:1;stroke-width:1.5;stroke-linecap:butt;stroke-linejoin:miter;stroke:rgb(13.730068%,12.159915%,12.54902%);stroke-opacity:1;stroke-miterlimit:4;" d="M 303.75 567 L 303.75 573.75 L 297 573.75 L 297 567 L 303.75 567 Z M 303.75 567 " transform="matrix(1,0,0,-1,17,773)"/>
<path style="fill-rule:nonzero;fill:rgb(100%,100%,100%);fill-opacity:1;stroke-width:1.5;stroke-linecap:butt;stroke-linejoin:miter;stroke:rgb(13.730068%,12.159915%,12.54902%);stroke-opacity:1;stroke-miterlimit:4;" d="M 310.5 567 L 310.5 573.75 L 303.75 573.75 L 303.75 567 L 310.5 567 Z M 310.5 567 " transform="matrix(1,0,0,-1,17,773)"/>
<path style="fill-rule:nonzero;fill:rgb(100%,100%,100%);fill-opacity:1;stroke-width:1.5;stroke-linecap:butt;stroke-linejoin:miter;stroke:rgb(13.730068%,12.159915%,12.54902%);stroke-opacity:1;stroke-miterlimit:4;" d="M 317.25 567 L 317.25 573.75 L 310.5 573.75 L 310.5 567 L 317.25 567 Z M 317.25 567 " transform="matrix(1,0,0,-1,17,773)"/>
<path style="fill-rule:nonzero;fill:rgb(100%,100%,100%);fill-opacity:1;stroke-width:1.5;stroke-linecap:butt;stroke-linejoin:miter;stroke:rgb(13.730068%,12.159915%,12.54902%);stroke-opacity:1;stroke-miterlimit:4;" d="M 324 567 L 324 573.75 L 317.25 573.75 L 317.25 567 L 324 567 Z M 324 567 " transform="matrix(1,0,0,-1,17,773)"/>
<path style="fill-rule:nonzero;fill:rgb(100%,100%,100%);fill-opacity:1;stroke-width:1.5;stroke-linecap:butt;stroke-linejoin:miter;stroke:rgb(13.730068%,12.159915%,12.54902%);stroke-opacity:1;stroke-miterlimit:4;" d="M 307.25 560.25 L 307.25 567 L 300.5 567 L 300.5 560.25 L 307.25 560.25 Z M 307.25 560.25 " transform="matrix(1,0,0,-1,17,773)"/>
<path style="fill-rule:nonzero;fill:rgb(100%,100%,100%);fill-opacity:1;stroke-width:1.5;stroke-linecap:butt;stroke-linejoin:miter;stroke:rgb(13.730068%,12.159915%,12.54902%);stroke-opacity:1;stroke-miterlimit:4;" d="M 314 560.25 L 314 567 L 307.25 567 L 307.25 560.25 L 314 560.25 Z M 314 560.25 " transform="matrix(1,0,0,-1,17,773)"/>
<path style="fill-rule:nonzero;fill:rgb(100%,100%,100%);fill-opacity:1;stroke-width:1.5;stroke-linecap:butt;stroke-linejoin:miter;stroke:rgb(13.730068%,12.159915%,12.54902%);stroke-opacity:1;stroke-miterlimit:4;" d="M 320.75 560.25 L 320.75 567 L 314 567 L 314 560.25 L 320.75 560.25 Z M 320.75 560.25 " transform="matrix(1,0,0,-1,17,773)"/>
<path style="fill-rule:nonzero;fill:rgb(100%,100%,100%);fill-opacity:1;stroke-width:1.5;stroke-linecap:butt;stroke-linejoin:miter;stroke:rgb(13.730068%,12.159915%,12.54902%);stroke-opacity:1;stroke-miterlimit:4;" d="M 307.25 553.5 L 307.25 560.25 L 300.5 560.25 L 300.5 553.5 L 307.25 553.5 Z M 307.25 553.5 " transform="matrix(1,0,0,-1,17,773)"/>
<path style="fill-rule:nonzero;fill:rgb(100%,100%,100%);fill-opacity:1;stroke-width:1.5;stroke-linecap:butt;stroke-linejoin:miter;stroke:rgb(13.730068%,12.159915%,12.54902%);stroke-opacity:1;stroke-miterlimit:4;" d="M 314 553.5 L 314 560.25 L 307.25 560.25 L 307.25 553.5 L 314 553.5 Z M 314 553.5 " transform="matrix(1,0,0,-1,17,773)"/>
<path style="fill-rule:nonzero;fill:rgb(100%,100%,100%);fill-opacity:1;stroke-width:1.5;stroke-linecap:butt;stroke-linejoin:miter;stroke:rgb(13.730068%,12.159915%,12.54902%);stroke-opacity:1;stroke-miterlimit:4;" d="M 320.75 553.5 L 320.75 560.25 L 314 560.25 L 314 553.5 L 320.75 553.5 Z M 320.75 553.5 " transform="matrix(1,0,0,-1,17,773)"/>
<path style="fill-rule:nonzero;fill:rgb(100%,100%,100%);fill-opacity:1;stroke-width:1.5;stroke-linecap:butt;stroke-linejoin:miter;stroke:rgb(13.730068%,12.159915%,12.54902%);stroke-opacity:1;stroke-miterlimit:4;" d="M 307.25 546.75 L 307.25 553.5 L 300.5 553.5 L 300.5 546.75 L 307.25 546.75 Z M 307.25 546.75 " transform="matrix(1,0,0,-1,17,773)"/>
<path style="fill-rule:nonzero;fill:rgb(100%,100%,100%);fill-opacity:1;stroke-width:1.5;stroke-linecap:butt;stroke-linejoin:miter;stroke:rgb(13.730068%,12.159915%,12.54902%);stroke-opacity:1;stroke-miterlimit:4;" d="M 314 546.75 L 314 553.5 L 307.25 553.5 L 307.25 546.75 L 314 546.75 Z M 314 546.75 " transform="matrix(1,0,0,-1,17,773)"/>
<path style="fill-rule:nonzero;fill:rgb(100%,100%,100%);fill-opacity:1;stroke-width:1.5;stroke-linecap:butt;stroke-linejoin:miter;stroke:rgb(13.730068%,12.159915%,12.54902%);stroke-opacity:1;stroke-miterlimit:4;" d="M 320.75 546.75 L 320.75 553.5 L 314 553.5 L 314 546.75 L 320.75 546.75 Z M 320.75 546.75 " transform="matrix(1,0,0,-1,17,773)"/>
<path style="fill-rule:nonzero;fill:rgb(100%,100%,100%);fill-opacity:1;stroke-width:1.5;stroke-linecap:butt;stroke-linejoin:miter;stroke:rgb(13.730068%,12.159915%,12.54902%);stroke-opacity:1;stroke-miterlimit:4;" d="M 307.25 540 L 307.25 546.75 L 300.5 546.75 L 300.5 540 L 307.25 540 Z M 307.25 540 " transform="matrix(1,0,0,-1,17,773)"/>
<path style="fill-rule:nonzero;fill:rgb(100%,100%,100%);fill-opacity:1;stroke-width:1.5;stroke-linecap:butt;stroke-linejoin:miter;stroke:rgb(13.730068%,12.159915%,12.54902%);stroke-opacity:1;stroke-miterlimit:4;" d="M 314 540 L 314 546.75 L 307.25 546.75 L 307.25 540 L 314 540 Z M 314 540 " transform="matrix(1,0,0,-1,17,773)"/>
<path style="fill-rule:nonzero;fill:rgb(100%,100%,100%);fill-opacity:1;stroke-width:1.5;stroke-linecap:butt;stroke-linejoin:miter;stroke:rgb(13.730068%,12.159915%,12.54902%);stroke-opacity:1;stroke-miterlimit:4;" d="M 320.75 540 L 320.75 546.75 L 314 546.75 L 314 540 L 320.75 540 Z M 320.75 540 " transform="matrix(1,0,0,-1,17,773)"/>

</svg>