<svg xmlns="http://www.w3.org/2000/svg" xmlns:xlink="http://www.w3.org/1999/xlink" width="612pt" height="792pt" viewBox="0 0 612 792" version="1.1">

<!-- Fusion Agitator -->
<path style="fill-rule:nonzero;fill:rgb(100%,100%,100%);fill-opacity:1;stroke-width:0.75;stroke-linecap:butt;stroke-linejoin:miter;stroke:rgb(13.730068%,12.159915%,12.54902%);stroke-opacity:1;stroke-miterlimit:4;" d="M 232.5 525.425781 L 243.75 525.425781 L 243.75 568.175781 L 237 568.175781 L 237 572.675781 L 243.75 574.925781 L 237 577.175781 L 243.75 579.425781 L 237 581.675781 L 243.75 583.925781 L 237 586.175781 L 232.5 595.175781 L 228 586.175781 L 221.25 583.925781 L 228 581.675781 L 221.25 579.425781 L 228 577.175781 L 221.25 574.925781 L 228 572.675781 L 228 568.175781 L 221.25 568.175781 L 221.25 525.425781 L 232.5 525.425781 Z M 232.5 525.425781 " transform="matrix(1,0,0,-1,0,792)"/>

<!-- Damage Boxes -->
<path style="fill-rule:nonzero;fill:rgb(100%,100%,100%);fill-opacity:1;stroke-width:1.5;stroke-linecap:butt;stroke-linejoin:miter;stroke:rgb(13.730068%,12.159915%,12.54902%);stroke-opacity:1;stroke-miterlimit:4;" d="M 232.5 556.925781 L 232.5 563.675781 L 225.75 563.675781 L 225.75 556.925781 L 232.5 556.925781 Z M 232.5 556.925781 " transform="matrix(1,0,0,-1,0,792)"/>
<path style="fill-rule:nonzero;fill:rgb(100%,100%,100%);fill-opacity:1;stroke-width:1.5;stroke-linecap:butt;stroke-linejoin:miter;stroke:rgb(13.730068%,12.159915%,12.54902%);stroke-opacity:1;stroke-miterlimit:4;" d="M 239.25 556.925781 L 239.25 563.675781 L 232.5 563.675781 L 232.5 556.925781 L 239.25 556.925781 Z M 239.25 556.925781 " transform="matrix(1,0,0,-1,0,792)"/>
<path style="fill-rule:nonzero;fill:rgb(100%,100%,100%);fill-opacity:1;stroke-width:1.5;stroke-linecap:butt;stroke-linejoin:miter;stroke:rgb(13.730068%,12.159915%,12.54902%);stroke-opacity:1;stroke-miterlimit:4;" d="M 232.5 550.175781 L 232.5 556.925781 L 225.75 556.925781 L 225.75 550.175781 L 232.5 550.175781 Z M 232.5 550.175781 " transform="matrix(1,0,0,-1,0,792)"/>
<path style="fill-rule:nonzero;fill:rgb(100%,100%,100%);fill-opacity:1;stroke-width:1.5;stroke-linecap:butt;stroke-linejoin:miter;stroke:rgb(13.730068%,12.159915%,12.54902%);stroke-opacity:1;stroke-miterlimit:4;" d="M 239.25 550.175781 L 239.25 556.925781 L 232.5 556.925781 L 232.5 550.175781 L 239.25 550.175781 Z M 239.25 550.175781 " transform="matrix(1,0,0,-1,0,792)"/>
<path style="fill-rule:nonzero;fill:rgb(100%,100%,100%);fill-opacity:1;stroke-width:1.5;stroke-linecap:butt;stroke-linejoin:miter;stroke:rgb(13.730068%,12.159915%,12.54902%);stroke-opacity:1;stroke-miterlimit:4;" d="M 232.5 543.425781 L 232.5 550.175781 L 225.75 550.175781 L 225.75 543.425781 L 232.5 543.425781 Z M 232.5 543.425781 " transform="matrix(1,0,0,-1,0,792)"/>
<path style="fill-rule:nonzero;fill:rgb(100%,100%,100%);fill-opacity:1;stroke-width:1.5;stroke-linecap:butt;stroke-linejoin:miter;stroke:rgb(13.730068%,12.159915%,12.54902%);stroke-opacity:1;stroke-miterlimit:4;" d="M 239.25 543.425781 L 239.25 550.175781 L 232.5 550.175781 L 232.5 543.425781 L 239.25 543.425781 Z M 239.25 543.425781 " transform="matrix(1,0,0,-1,0,792)"/>
<path style="fill-rule:nonzero;fill:rgb(100%,100%,100%);fill-opacity:1;stroke-width:1.5;stroke-linecap:butt;stroke-linejoin:miter;stroke:rgb(13.730068%,12.159915%,12.54902%);stroke-opacity:1;stroke-miterlimit:4;" d="M 232.5 536.675781 L 232.5 543.425781 L 225.75 543.425781 L 225.75 536.675781 L 232.5 536.675781 Z M 232.5 536.675781 " transform="matrix(1,0,0,-1,0,792)"/>
<path style="fill-rule:nonzero;fill:rgb(100%,100%,100%);fill-opacity:1;stroke-width:1.5;stroke-linecap:butt;stroke-linejoin:miter;stroke:rgb(13.730068%,12.159915%,12.54902%);stroke-opacity:1;stroke-miterlimit:4;" d="M 239.25 536.675781 L 239.25 543.425781 L 232.5 543.425781 L 232.5 536.675781 L 239.25 536.675781 Z M 239.25 536.675781 " transform="matrix(1,0,0,-1,0,792)"/>
<path style="fill-rule:nonzero;fill:rgb(100%,100%,100%);fill-opacity:1;stroke-width:1.5;stroke-linecap:butt;stroke-linejoin:miter;stroke:rgb(13.730068%,12.159915%,12.54902%);stroke-opacity:1;stroke-miterlimit:4;" d="M 232.5 529.925781 L 232.5 536.675781 L 225.75 536.675781 L 225.75 529.925781 L 232.5 529.925781 Z M 232.5 529.925781 " transform="matrix(1,0,0,-1,0,792)"/>
<path style="fill-rule:nonzero;fill:rgb(100%,100%,100%);fill-opacity:1;stroke-width:1.5;stroke-linecap:butt;stroke-linejoin:miter;stroke:rgb(13.730068%,12.159915%,12.54902%);stroke-opacity:1;stroke-miterlimit:4;" d="M 239.25 529.925781 L 239.25 536.675781 L 232.5 536.675781 L 232.5 529.925781 L 239.25 529.925781 Z M 239.25 529.925781 " transform="matrix(1,0,0,-1,0,792)"/>

</svg>