<svg xmlns="http://www.w3.org/2000/svg" xmlns:xlink="http://www.w3.org/1999/xlink" width="612pt" height="792pt" viewBox="0 0 612 792" version="1.1">

<!-- Grappling Claw -->
<path style="fill-rule:nonzero;fill:rgb(100%,100%,100%);fill-opacity:1;stroke-width:0.75;stroke-linecap:butt;stroke-linejoin:miter;stroke:rgb(13.730068%,12.159915%,12.54902%);stroke-opacity:1;stroke-miterlimit:4;" d="M 239.414062 478.042969 L 242.914062 483.542969 L 238.414062 494.792969 L 238.414062 490.292969 L 238.414062 485.792969 L 233.914062 481.292969 L 231.664062 492.75 L 229.414062 481.292969 L 224.914062 485.792969 L 224.914062 490.292969 L 224.914062 494.792969 L 220.414062 483.542969 L 223.664062 479.042969 L 223.664062 437.542969 L 239.414062 437.542969 L 239.414062 478.042969 Z M 239.414062 478.042969 " transform="matrix(1,0,0,-1,0,793)"/>

<!-- Damage Boxes -->
<path style="fill-rule:nonzero;fill:rgb(100%,100%,100%);fill-opacity:1;stroke-width:1.5;stroke-linecap:butt;stroke-linejoin:miter;stroke:rgb(13.730068%,12.159915%,12.54902%);stroke-opacity:1;stroke-miterlimit:4;" d="M 235.039062 469.042969 L 235.039062 475.792969 L 228.289062 475.792969 L 228.289062 469.042969 L 235.039062 469.042969 Z M 235.039062 469.042969 " transform="matrix(1,0,0,-1,0,793)"/>
<path style="fill-rule:nonzero;fill:rgb(100%,100%,100%);fill-opacity:1;stroke-width:1.5;stroke-linecap:butt;stroke-linejoin:miter;stroke:rgb(13.730068%,12.159915%,12.54902%);stroke-opacity:1;stroke-miterlimit:4;" d="M 235.039062 462.292969 L 235.039062 469.042969 L 228.289062 469.042969 L 228.289062 462.292969 L 235.039062 462.292969 Z M 235.039062 462.292969 " transform="matrix(1,0,0,-1,0,793)"/>
<path style="fill-rule:nonzero;fill:rgb(100%,100%,100%);fill-opacity:1;stroke-width:1.5;stroke-linecap:butt;stroke-linejoin:miter;stroke:rgb(13.730068%,12.159915%,12.54902%);stroke-opacity:1;stroke-miterlimit:4;" d="M 235.039062 455.542969 L 235.039062 462.292969 L 228.289062 462.292969 L 228.289062 455.542969 L 235.039062 455.542969 Z M 235.039062 455.542969 " transform="matrix(1,0,0,-1,0,793)"/>
<path style="fill-rule:nonzero;fill:rgb(100%,100%,100%);fill-opacity:1;stroke-width:1.5;stroke-linecap:butt;stroke-linejoin:miter;stroke:rgb(13.730068%,12.159915%,12.54902%);stroke-opacity:1;stroke-miterlimit:4;" d="M 235.039062 448.792969 L 235.039062 455.542969 L 228.289062 455.542969 L 228.289062 448.792969 L 235.039062 448.792969 Z M 235.039062 448.792969 " transform="matrix(1,0,0,-1,0,793)"/>
<path style="fill-rule:nonzero;fill:rgb(100%,100%,100%);fill-opacity:1;stroke-width:1.5;stroke-linecap:butt;stroke-linejoin:miter;stroke:rgb(13.730068%,12.159915%,12.54902%);stroke-opacity:1;stroke-miterlimit:4;" d="M 235.039062 442 L 235.039062 448.75 L 228.289062 448.75 L 228.289062 442 L 235.039062 442 Z M 235.039062 442 " transform="matrix(1,0,0,-1,0,793)"/>

</svg>