<svg xmlns="http://www.w3.org/2000/svg" xmlns:xlink="http://www.w3.org/1999/xlink" width="612pt" height="792pt" viewBox="0 0 612 792" version="1.1">

<!-- Gravitic Lance -->
<path style="fill-rule:nonzero;fill:rgb(100%,100%,100%);fill-opacity:1;stroke-width:0.75;stroke-linecap:butt;stroke-linejoin:miter;stroke:rgb(13.730068%,12.159915%,12.54902%);stroke-opacity:1;stroke-miterlimit:4;" d="M 170.37325 317.749825 L 154.62325 317.749825 L 154.62325 346.499825 L 165.87325 362.249825 L 165.87325 366.749825 C 165.87325 366.749825 161.37325 366.749825 161.37325 368.999825 C 161.37325 371.249825 165.87325 371.249825 165.87325 371.249825 C 165.87325 371.249825 161.37325 371.249825 161.37325 373.499825 C 161.37325 375.749825 165.87325 375.749825 165.87325 375.749825 C 165.87325 375.749825 161.37325 375.749825 161.37325 377.999825 C 161.37325 380.249825 165.87325 380.249825 165.87325 380.249825 L 165.87325 387.499825 L 169.12325 391.999825 L 172.62325 387.499825 L 172.62325 380.249825 C 172.62325 380.249825 177.12325 380.249825 177.12325 377.999825 C 177.12325 375.749825 172.62325 375.749825 172.62325 375.749825 C 172.62325 375.749825 177.12325 375.749825 177.12325 373.499825 C 177.12325 371.249825 172.62325 371.249825 172.62325 371.249825 C 172.62325 371.249825 177.12325 371.249825 177.12325 368.999825 C 177.12325 366.749825 172.62325 366.749825 172.62325 366.749825 L 172.62325 362.249825 L 183.87325 346.499825 L 183.87325 317.749825 L 170.37325 317.749825 Z M 170.37325 317.749825 " transform="matrix(1,0,0,-1,5.0955,782.1717)"/>

<!-- Damage Boxes -->
<path style="fill-rule:nonzero;fill:rgb(100%,100%,100%);fill-opacity:1;stroke-width:1.5;stroke-linecap:butt;stroke-linejoin:miter;stroke:rgb(13.730068%,12.159915%,12.54902%);stroke-opacity:1;stroke-miterlimit:4;" d="M 172.62325 348.749825 L 172.62325 355.499825 L 165.87325 355.499825 L 165.87325 348.749825 L 172.62325 348.749825 Z M 172.62325 348.749825 " transform="matrix(1,0,0,-1,5.0955,782.1717)"/>
<path style="fill-rule:nonzero;fill:rgb(100%,100%,100%);fill-opacity:1;stroke-width:1.5;stroke-linecap:butt;stroke-linejoin:miter;stroke:rgb(13.730068%,12.159915%,12.54902%);stroke-opacity:1;stroke-miterlimit:4;" d="M 169.37325 341.999825 L 169.37325 348.749825 L 162.62325 348.749825 L 162.62325 341.999825 L 169.37325 341.999825 Z M 169.37325 341.999825 " transform="matrix(1,0,0,-1,5.0955,782.1717)"/>
<path style="fill-rule:nonzero;fill:rgb(100%,100%,100%);fill-opacity:1;stroke-width:1.5;stroke-linecap:butt;stroke-linejoin:miter;stroke:rgb(13.730068%,12.159915%,12.54902%);stroke-opacity:1;stroke-miterlimit:4;" d="M 176.12325 341.999825 L 176.12325 348.749825 L 169.37325 348.749825 L 169.37325 341.999825 L 176.12325 341.999825 Z M 176.12325 341.999825 " transform="matrix(1,0,0,-1,5.0955,782.1717)"/>
<path style="fill-rule:nonzero;fill:rgb(100%,100%,100%);fill-opacity:1;stroke-width:1.5;stroke-linecap:butt;stroke-linejoin:miter;stroke:rgb(13.730068%,12.159915%,12.54902%);stroke-opacity:1;stroke-miterlimit:4;" d="M 165.87325 335.249825 L 165.87325 341.999825 L 159.12325 341.999825 L 159.12325 335.249825 L 165.87325 335.249825 Z M 165.87325 335.249825 " transform="matrix(1,0,0,-1,5.0955,782.1717)"/>
<path style="fill-rule:nonzero;fill:rgb(100%,100%,100%);fill-opacity:1;stroke-width:1.5;stroke-linecap:butt;stroke-linejoin:miter;stroke:rgb(13.730068%,12.159915%,12.54902%);stroke-opacity:1;stroke-miterlimit:4;" d="M 172.62325 335.249825 L 172.62325 341.999825 L 165.87325 341.999825 L 165.87325 335.249825 L 172.62325 335.249825 Z M 172.62325 335.249825 " transform="matrix(1,0,0,-1,5.0955,782.1717)"/>
<path style="fill-rule:nonzero;fill:rgb(100%,100%,100%);fill-opacity:1;stroke-width:1.5;stroke-linecap:butt;stroke-linejoin:miter;stroke:rgb(13.730068%,12.159915%,12.54902%);stroke-opacity:1;stroke-miterlimit:4;" d="M 179.37325 335.249825 L 179.37325 341.999825 L 172.62325 341.999825 L 172.62325 335.249825 L 179.37325 335.249825 Z M 179.37325 335.249825 " transform="matrix(1,0,0,-1,5.0955,782.1717)"/>
<path style="fill-rule:nonzero;fill:rgb(100%,100%,100%);fill-opacity:1;stroke-width:1.5;stroke-linecap:butt;stroke-linejoin:miter;stroke:rgb(13.730068%,12.159915%,12.54902%);stroke-opacity:1;stroke-miterlimit:4;" d="M 165.87325 328.999825 L 165.87325 335.749825 L 159.12325 335.749825 L 159.12325 328.999825 L 165.87325 328.999825 Z M 165.87325 328.999825 " transform="matrix(1,0,0,-1,5.0955,782.1717)"/>
<path style="fill-rule:nonzero;fill:rgb(100%,100%,100%);fill-opacity:1;stroke-width:1.5;stroke-linecap:butt;stroke-linejoin:miter;stroke:rgb(13.730068%,12.159915%,12.54902%);stroke-opacity:1;stroke-miterlimit:4;" d="M 172.62325 328.999825 L 172.62325 335.749825 L 165.87325 335.749825 L 165.87325 328.999825 L 172.62325 328.999825 Z M 172.62325 328.999825 " transform="matrix(1,0,0,-1,5.0955,782.1717)"/>
<path style="fill-rule:nonzero;fill:rgb(100%,100%,100%);fill-opacity:1;stroke-width:1.5;stroke-linecap:butt;stroke-linejoin:miter;stroke:rgb(13.730068%,12.159915%,12.54902%);stroke-opacity:1;stroke-miterlimit:4;" d="M 179.37325 328.999825 L 179.37325 335.749825 L 172.62325 335.749825 L 172.62325 328.999825 L 179.37325 328.999825 Z M 179.37325 328.999825 " transform="matrix(1,0,0,-1,5.0955,782.1717)"/>
<path style="fill-rule:nonzero;fill:rgb(100%,100%,100%);fill-opacity:1;stroke-width:1.5;stroke-linecap:butt;stroke-linejoin:miter;stroke:rgb(13.730068%,12.159915%,12.54902%);stroke-opacity:1;stroke-miterlimit:4;" d="M 165.87325 322.249825 L 165.87325 328.999825 L 159.12325 328.999825 L 159.12325 322.249825 L 165.87325 322.249825 Z M 165.87325 322.249825 " transform="matrix(1,0,0,-1,5.0955,782.1717)"/>
<path style="fill-rule:nonzero;fill:rgb(100%,100%,100%);fill-opacity:1;stroke-width:1.5;stroke-linecap:butt;stroke-linejoin:miter;stroke:rgb(13.730068%,12.159915%,12.54902%);stroke-opacity:1;stroke-miterlimit:4;" d="M 172.62325 322.249825 L 172.62325 328.999825 L 165.87325 328.999825 L 165.87325 322.249825 L 172.62325 322.249825 Z M 172.62325 322.249825 " transform="matrix(1,0,0,-1,5.0955,782.1717)"/>
<path style="fill-rule:nonzero;fill:rgb(100%,100%,100%);fill-opacity:1;stroke-width:1.5;stroke-linecap:butt;stroke-linejoin:miter;stroke:rgb(13.730068%,12.159915%,12.54902%);stroke-opacity:1;stroke-miterlimit:4;" d="M 179.37325 322.249825 L 179.37325 328.999825 L 172.62325 328.999825 L 172.62325 322.249825 L 179.37325 322.249825 Z M 179.37325 322.249825 " transform="matrix(1,0,0,-1,5.0955,782.1717)"/>

</svg>