<svg xmlns="http://www.w3.org/2000/svg" xmlns:xlink="http://www.w3.org/1999/xlink" width="612pt" height="792pt" viewBox="0 0 612 792" version="1.1">

<!-- Gravitic Cutter -->
<path style="fill-rule:nonzero;fill:rgb(100%,100%,100%);fill-opacity:1;stroke-width:0.75;stroke-linecap:butt;stroke-linejoin:miter;stroke:rgb(13.730068%,12.159915%,12.54902%);stroke-opacity:1;stroke-miterlimit:4;" d="M 126.875 422.738281 L 126.875 424.738281 L 124.875 423.738281 L 124.875 425.738281 L 129.875 428.738281 L 134.875 425.738281 L 134.875 423.738281 L 132.875 424.738281 L 132.875 422.738281 L 134.875 421.738281 L 134.875 419.738281 L 132.875 420.738281 L 132.875 417.953125 L 135.214844 417.953125 C 135.214844 417.953125 139.671875 417.953125 139.671875 415.726562 C 139.671875 413.5 135.214844 413.5 135.214844 413.5 L 142.125 413.5 L 142.125 411.273438 L 144.355469 411.273438 L 144.355469 388.996094 L 115.394531 388.996094 L 115.394531 411.273438 L 117.625 411.273438 L 117.625 413.5 L 124.535156 413.5 C 124.535156 413.5 120.078125 413.5 120.078125 415.726562 C 120.078125 417.953125 124.535156 417.953125 124.535156 417.953125 L 126.875 417.953125 L 126.875 420.738281 L 124.875 419.738281 L 124.875 421.738281 L 126.875 422.738281 Z M 126.875 422.738281 " transform="matrix(1,0,0,-1,0,792)"/>

<!-- Damage Boxes -->
<path style="fill-rule:nonzero;fill:rgb(100%,100%,100%);fill-opacity:1;stroke-width:1.5;stroke-linecap:butt;stroke-linejoin:miter;stroke:rgb(13.730068%,12.159915%,12.54902%);stroke-opacity:1;stroke-miterlimit:4;" d="M 126.5 400.464844 L 126.5 407.214844 L 119.75 407.214844 L 119.75 400.464844 L 126.5 400.464844 Z M 126.5 400.464844 " transform="matrix(1,0,0,-1,0,792)"/>
<path style="fill-rule:nonzero;fill:rgb(100%,100%,100%);fill-opacity:1;stroke-width:1.5;stroke-linecap:butt;stroke-linejoin:miter;stroke:rgb(13.730068%,12.159915%,12.54902%);stroke-opacity:1;stroke-miterlimit:4;" d="M 133.25 400.464844 L 133.25 407.214844 L 126.5 407.214844 L 126.5 400.464844 L 133.25 400.464844 Z M 133.25 400.464844 " transform="matrix(1,0,0,-1,0,792)"/>
<path style="fill-rule:nonzero;fill:rgb(100%,100%,100%);fill-opacity:1;stroke-width:1.5;stroke-linecap:butt;stroke-linejoin:miter;stroke:rgb(13.730068%,12.159915%,12.54902%);stroke-opacity:1;stroke-miterlimit:4;" d="M 140 400.464844 L 140 407.214844 L 133.25 407.214844 L 133.25 400.464844 L 140 400.464844 Z M 140 400.464844 " transform="matrix(1,0,0,-1,0,792)"/>
<path style="fill-rule:nonzero;fill:rgb(100%,100%,100%);fill-opacity:1;stroke-width:1.5;stroke-linecap:butt;stroke-linejoin:miter;stroke:rgb(13.730068%,12.159915%,12.54902%);stroke-opacity:1;stroke-miterlimit:4;" d="M 126.5 393.714844 L 126.5 400.464844 L 119.75 400.464844 L 119.75 393.714844 L 126.5 393.714844 Z M 126.5 393.714844 " transform="matrix(1,0,0,-1,0,792)"/>
<path style="fill-rule:nonzero;fill:rgb(100%,100%,100%);fill-opacity:1;stroke-width:1.5;stroke-linecap:butt;stroke-linejoin:miter;stroke:rgb(13.730068%,12.159915%,12.54902%);stroke-opacity:1;stroke-miterlimit:4;" d="M 133.25 393.714844 L 133.25 400.464844 L 126.5 400.464844 L 126.5 393.714844 L 133.25 393.714844 Z M 133.25 393.714844 " transform="matrix(1,0,0,-1,0,792)"/>
<path style="fill-rule:nonzero;fill:rgb(100%,100%,100%);fill-opacity:1;stroke-width:1.5;stroke-linecap:butt;stroke-linejoin:miter;stroke:rgb(13.730068%,12.159915%,12.54902%);stroke-opacity:1;stroke-miterlimit:4;" d="M 140 393.714844 L 140 400.464844 L 133.25 400.464844 L 133.25 393.714844 L 140 393.714844 Z M 140 393.714844 " transform="matrix(1,0,0,-1,0,792)"/>

</svg>