<svg xmlns="http://www.w3.org/2000/svg" xmlns:xlink="http://www.w3.org/1999/xlink" width="612pt" height="792pt" viewBox="0 0 612 792" version="1.1">

<!-- Gravitic Mine -->
<path style="fill-rule:nonzero;fill:rgb(100%,100%,100%);fill-opacity:1;stroke-width:0.75;stroke-linecap:butt;stroke-linejoin:miter;stroke:rgb(13.730068%,12.159915%,12.54902%);stroke-opacity:1;stroke-miterlimit:4;" d="M 443.457031 357.300781 C 447.929688 357.300781 451.554688 360.925781 451.554688 365.398438 C 451.554688 369.875 447.929688 373.5 443.457031 373.5 C 438.980469 373.5 435.355469 369.875 435.355469 365.398438 C 435.355469 360.925781 438.980469 357.300781 443.457031 357.300781 Z M 443.457031 357.300781 " transform="matrix(1,0,0,-1,0,793)"/>
<path style="fill-rule:nonzero;fill:rgb(100%,100%,100%);fill-opacity:1;stroke-width:0.75;stroke-linecap:butt;stroke-linejoin:miter;stroke:rgb(13.730068%,12.159915%,12.54902%);stroke-opacity:1;stroke-miterlimit:4;" d="M 443.457031 378 L 445.707031 369 L 452.457031 373.5 L 447.957031 366.75 L 454.707031 364.5 L 447.957031 362.25 L 447.957031 355.5 L 459.207031 355.5 L 459.207031 333 L 443.457031 333 L 427.707031 333 L 427.707031 355.5 L 438.957031 355.5 L 438.957031 362.25 L 432.207031 364.5 L 438.957031 366.75 L 434.457031 373.5 L 441.207031 369 L 443.457031 378 Z M 443.457031 378 " transform="matrix(1,0,0,-1,0,793)"/>

<!-- Damage Boxes -->
<path style="fill-rule:nonzero;fill:rgb(100%,100%,100%);fill-opacity:1;stroke-width:1.5;stroke-linecap:butt;stroke-linejoin:miter;stroke:rgb(13.730068%,12.159915%,12.54902%);stroke-opacity:1;stroke-miterlimit:4;" d="M 440.082031 344.25 L 440.082031 351 L 433.332031 351 L 433.332031 344.25 L 440.082031 344.25 Z M 440.082031 344.25 " transform="matrix(1,0,0,-1,0,793)"/>
<path style="fill-rule:nonzero;fill:rgb(100%,100%,100%);fill-opacity:1;stroke-width:1.5;stroke-linecap:butt;stroke-linejoin:miter;stroke:rgb(13.730068%,12.159915%,12.54902%);stroke-opacity:1;stroke-miterlimit:4;" d="M 446.832031 344.25 L 446.832031 351 L 440.082031 351 L 440.082031 344.25 L 446.832031 344.25 Z M 446.832031 344.25 " transform="matrix(1,0,0,-1,0,793)"/>
<path style="fill-rule:nonzero;fill:rgb(100%,100%,100%);fill-opacity:1;stroke-width:1.5;stroke-linecap:butt;stroke-linejoin:miter;stroke:rgb(13.730068%,12.159915%,12.54902%);stroke-opacity:1;stroke-miterlimit:4;" d="M 453.582031 344.25 L 453.582031 351 L 446.832031 351 L 446.832031 344.25 L 453.582031 344.25 Z M 453.582031 344.25 " transform="matrix(1,0,0,-1,0,793)"/>
<path style="fill-rule:nonzero;fill:rgb(100%,100%,100%);fill-opacity:1;stroke-width:1.5;stroke-linecap:butt;stroke-linejoin:miter;stroke:rgb(13.730068%,12.159915%,12.54902%);stroke-opacity:1;stroke-miterlimit:4;" d="M 440.082031 337.5 L 440.082031 344.25 L 433.332031 344.25 L 433.332031 337.5 L 440.082031 337.5 Z M 440.082031 337.5 " transform="matrix(1,0,0,-1,0,793)"/>
<path style="fill-rule:nonzero;fill:rgb(100%,100%,100%);fill-opacity:1;stroke-width:1.5;stroke-linecap:butt;stroke-linejoin:miter;stroke:rgb(13.730068%,12.159915%,12.54902%);stroke-opacity:1;stroke-miterlimit:4;" d="M 446.832031 337.5 L 446.832031 344.25 L 440.082031 344.25 L 440.082031 337.5 L 446.832031 337.5 Z M 446.832031 337.5 " transform="matrix(1,0,0,-1,0,793)"/>
<path style="fill-rule:nonzero;fill:rgb(100%,100%,100%);fill-opacity:1;stroke-width:1.5;stroke-linecap:butt;stroke-linejoin:miter;stroke:rgb(13.730068%,12.159915%,12.54902%);stroke-opacity:1;stroke-miterlimit:4;" d="M 453.582031 337.5 L 453.582031 344.25 L 446.832031 344.25 L 446.832031 337.5 L 453.582031 337.5 Z M 453.582031 337.5 " transform="matrix(1,0,0,-1,0,793)"/>

</svg>