<svg xmlns="http://www.w3.org/2000/svg" xmlns:xlink="http://www.w3.org/1999/xlink" width="612pt" height="792pt" viewBox="0 0 612 792" version="1.1">

<!-- Graviton Pulsar -->
<path style="fill-rule:nonzero;fill:rgb(100%,100%,100%);fill-opacity:1;stroke-width:0.75;stroke-linecap:butt;stroke-linejoin:miter;stroke:rgb(13.730068%,12.159915%,12.54902%);stroke-opacity:1;stroke-miterlimit:4;" d="M 265.5 558 L 249.75 558 L 249.75 573.75 L 261 585 C 261 585 256.5 585 256.5 587.25 C 256.5 589.5 261 589.5 261 589.5 C 261 589.5 256.5 589.5 256.5 591.75 C 256.5 594 261 594 261 594 L 264.25 600.75 L 267.75 594 C 267.75 594 272.25 594 272.25 591.75 C 272.25 589.5 267.75 589.5 267.75 589.5 C 267.75 589.5 272.25 589.5 272.25 587.25 C 272.25 585 267.75 585 267.75 585 L 279 573.75 L 279 558 L 265.5 558 Z M 265.5 558 " transform="matrix(1,0,0,-1,0,793)"/>

<!-- Damage Boxes -->
<path style="fill-rule:nonzero;fill:rgb(100%,100%,100%);fill-opacity:1;stroke-width:1.5;stroke-linecap:butt;stroke-linejoin:miter;stroke:rgb(13.730068%,12.159915%,12.54902%);stroke-opacity:1;stroke-miterlimit:4;" d="M 264.25 569.25 L 264.25 576 L 257.5 576 L 257.5 569.25 L 264.25 569.25 Z M 264.25 569.25 " transform="matrix(1,0,0,-1,0,793)"/>
<path style="fill-rule:nonzero;fill:rgb(100%,100%,100%);fill-opacity:1;stroke-width:1.5;stroke-linecap:butt;stroke-linejoin:miter;stroke:rgb(13.730068%,12.159915%,12.54902%);stroke-opacity:1;stroke-miterlimit:4;" d="M 271 569.25 L 271 576 L 264.25 576 L 264.25 569.25 L 271 569.25 Z M 271 569.25 " transform="matrix(1,0,0,-1,0,793)"/>
<path style="fill-rule:nonzero;fill:rgb(100%,100%,100%);fill-opacity:1;stroke-width:1.5;stroke-linecap:butt;stroke-linejoin:miter;stroke:rgb(13.730068%,12.159915%,12.54902%);stroke-opacity:1;stroke-miterlimit:4;" d="M 261 562.5 L 261 569.25 L 254.25 569.25 L 254.25 562.5 L 261 562.5 Z M 261 562.5 " transform="matrix(1,0,0,-1,0,793)"/>
<path style="fill-rule:nonzero;fill:rgb(100%,100%,100%);fill-opacity:1;stroke-width:1.5;stroke-linecap:butt;stroke-linejoin:miter;stroke:rgb(13.730068%,12.159915%,12.54902%);stroke-opacity:1;stroke-miterlimit:4;" d="M 267.75 562.5 L 267.75 569.25 L 261 569.25 L 261 562.5 L 267.75 562.5 Z M 267.75 562.5 " transform="matrix(1,0,0,-1,0,793)"/>
<path style="fill-rule:nonzero;fill:rgb(100%,100%,100%);fill-opacity:1;stroke-width:1.5;stroke-linecap:butt;stroke-linejoin:miter;stroke:rgb(13.730068%,12.159915%,12.54902%);stroke-opacity:1;stroke-miterlimit:4;" d="M 274.5 562.5 L 274.5 569.25 L 267.75 569.25 L 267.75 562.5 L 274.5 562.5 Z M 274.5 562.5 " transform="matrix(1,0,0,-1,0,793)"/>

</svg>