<svg xmlns="http://www.w3.org/2000/svg" xmlns:xlink="http://www.w3.org/1999/xlink" width="612pt" height="792pt" viewBox="0 0 612 792" version="1.1">

<!-- Grav Cannon -->
<path style="fill-rule:nonzero;fill:rgb(100%,100%,100%);fill-opacity:1;stroke-width:0.75;stroke-linecap:butt;stroke-linejoin:miter;stroke:rgb(13.730068%,12.159915%,12.54902%);stroke-opacity:1;stroke-miterlimit:4;" d="M 249.750387 254.249738 L 234.000387 254.249738 L 234.000387 276.749738 L 236.250387 276.749738 L 236.250387 278.999738 L 245.250387 278.999738 C 245.250387 278.999738 240.750387 278.999738 240.750387 281.249738 C 240.750387 283.499738 245.250387 283.499738 245.250387 283.499738 C 245.250387 283.499738 240.750387 283.499738 240.750387 285.749738 C 240.750387 287.999738 245.250387 287.999738 245.250387 287.999738 L 245.250387 292.499738 L 245.250387 294.749738 L 248.500387 299.249738 L 252.000387 294.749738 L 252.000387 292.499738 L 252.000387 287.999738 C 252.000387 287.999738 256.500387 287.999738 256.500387 285.749738 C 256.500387 283.499738 252.000387 283.499738 252.000387 283.499738 C 252.000387 283.499738 256.500387 283.499738 256.500387 281.249738 C 256.500387 278.999738 252.000387 278.999738 252.000387 278.999738 L 261.000387 278.999738 L 261.000387 276.749738 L 263.250387 276.749738 L 263.250387 254.249738 L 249.750387 254.249738 Z M 249.750387 254.249738 " transform="matrix(1,0,0,-1,-77.0707,661.7888)"/>

<!-- Damage Boxes -->
<path style="fill-rule:nonzero;fill:rgb(100%,100%,100%);fill-opacity:1;stroke-width:1.5;stroke-linecap:butt;stroke-linejoin:miter;stroke:rgb(13.730068%,12.159915%,12.54902%);stroke-opacity:1;stroke-miterlimit:4;" d="M 245.250387 265.499738 L 245.250387 272.249738 L 238.500387 272.249738 L 238.500387 265.499738 L 245.250387 265.499738 Z M 245.250387 265.499738 " transform="matrix(1,0,0,-1,-77.0707,661.7888)"/>
<path style="fill-rule:nonzero;fill:rgb(100%,100%,100%);fill-opacity:1;stroke-width:1.5;stroke-linecap:butt;stroke-linejoin:miter;stroke:rgb(13.730068%,12.159915%,12.54902%);stroke-opacity:1;stroke-miterlimit:4;" d="M 252.000387 265.499738 L 252.000387 272.249738 L 245.250387 272.249738 L 245.250387 265.499738 L 252.000387 265.499738 Z M 252.000387 265.499738 " transform="matrix(1,0,0,-1,-77.0707,661.7888)"/>
<path style="fill-rule:nonzero;fill:rgb(100%,100%,100%);fill-opacity:1;stroke-width:1.5;stroke-linecap:butt;stroke-linejoin:miter;stroke:rgb(13.730068%,12.159915%,12.54902%);stroke-opacity:1;stroke-miterlimit:4;" d="M 258.750387 265.499738 L 258.750387 272.249738 L 252.000387 272.249738 L 252.000387 265.499738 L 258.750387 265.499738 Z M 258.750387 265.499738 " transform="matrix(1,0,0,-1,-77.0707,661.7888)"/>
<path style="fill-rule:nonzero;fill:rgb(100%,100%,100%);fill-opacity:1;stroke-width:1.5;stroke-linecap:butt;stroke-linejoin:miter;stroke:rgb(13.730068%,12.159915%,12.54902%);stroke-opacity:1;stroke-miterlimit:4;" d="M 245.250387 258.749738 L 245.250387 265.499738 L 238.500387 265.499738 L 238.500387 258.749738 L 245.250387 258.749738 Z M 245.250387 258.749738 " transform="matrix(1,0,0,-1,-77.0707,661.7888)"/>
<path style="fill-rule:nonzero;fill:rgb(100%,100%,100%);fill-opacity:1;stroke-width:1.5;stroke-linecap:butt;stroke-linejoin:miter;stroke:rgb(13.730068%,12.159915%,12.54902%);stroke-opacity:1;stroke-miterlimit:4;" d="M 252.000387 258.749738 L 252.000387 265.499738 L 245.250387 265.499738 L 245.250387 258.749738 L 252.000387 258.749738 Z M 252.000387 258.749738 " transform="matrix(1,0,0,-1,-77.0707,661.7888)"/>
<path style="fill-rule:nonzero;fill:rgb(100%,100%,100%);fill-opacity:1;stroke-width:1.5;stroke-linecap:butt;stroke-linejoin:miter;stroke:rgb(13.730068%,12.159915%,12.54902%);stroke-opacity:1;stroke-miterlimit:4;" d="M 258.750387 258.749738 L 258.750387 265.499738 L 252.000387 265.499738 L 252.000387 258.749738 L 258.750387 258.749738 Z M 258.750387 258.749738 " transform="matrix(1,0,0,-1,-77.0707,661.7888)"/>

</svg>