<svg xmlns="http://www.w3.org/2000/svg" xmlns:xlink="http://www.w3.org/1999/xlink" width="612pt" height="792pt" viewBox="0 0 612 792" version="1.1">

<!-- Graviton Beam -->
<path style="fill-rule:nonzero;fill:rgb(100%,100%,100%);fill-opacity:1;stroke-width:0.75;stroke-linecap:butt;stroke-linejoin:miter;stroke:rgb(13.730068%,12.159915%,12.54902%);stroke-opacity:1;stroke-miterlimit:4;" d="M 451.5 383 L 467.25 383 L 467.25 405.5 L 465 405.5 L 465 410 L 456 414.5 C 456 414.5 460.5 414.5 460.5 416.75 C 460.5 419 456 419 456 419 C 456 419 460.5 419 460.5 421.25 C 460.5 423.5 456 423.5 456 423.5 C 456 423.5 460.5 423.5 460.5 425.75 C 460.5 428 456 428 456 428 L 456 430.25 L 452.75 434.75 L 449.25 430.25 L 449.25 428 C 449.25 428 444.75 428 444.75 425.75 C 444.75 423.5 449.25 423.5 449.25 423.5 C 449.25 423.5 444.75 423.5 444.75 421.25 C 444.75 419 449.25 419 449.25 419 C 449.25 419 444.75 419 444.75 416.75 C 444.75 414.5 449.25 414.5 449.25 414.5 L 440.25 410 L 440.25 405.5 L 438 405.5 L 438 383 L 451.5 383 Z M 451.5 383 " transform="matrix(1,0,0,-1,0,793)"/>

<!-- Damage Boxes -->
<path style="fill-rule:nonzero;fill:rgb(100%,100%,100%);fill-opacity:1;stroke-width:1.5;stroke-linecap:butt;stroke-linejoin:miter;stroke:rgb(13.730068%,12.159915%,12.54902%);stroke-opacity:1;stroke-miterlimit:4;" d="M 446 401 L 446 407.75 L 452.75 407.75 L 452.75 401 L 446 401 Z M 446 401 " transform="matrix(1,0,0,-1,0,793)"/>
<path style="fill-rule:nonzero;fill:rgb(100%,100%,100%);fill-opacity:1;stroke-width:1.5;stroke-linecap:butt;stroke-linejoin:miter;stroke:rgb(13.730068%,12.159915%,12.54902%);stroke-opacity:1;stroke-miterlimit:4;" d="M 452.75 401 L 452.75 407.75 L 459.5 407.75 L 459.5 401 L 452.75 401 Z M 452.75 401 " transform="matrix(1,0,0,-1,0,793)"/>
<path style="fill-rule:nonzero;fill:rgb(100%,100%,100%);fill-opacity:1;stroke-width:1.5;stroke-linecap:butt;stroke-linejoin:miter;stroke:rgb(13.730068%,12.159915%,12.54902%);stroke-opacity:1;stroke-miterlimit:4;" d="M 442.5 394.25 L 442.5 401 L 449.25 401 L 449.25 394.25 L 442.5 394.25 Z M 442.5 394.25 " transform="matrix(1,0,0,-1,0,793)"/>
<path style="fill-rule:nonzero;fill:rgb(100%,100%,100%);fill-opacity:1;stroke-width:1.5;stroke-linecap:butt;stroke-linejoin:miter;stroke:rgb(13.730068%,12.159915%,12.54902%);stroke-opacity:1;stroke-miterlimit:4;" d="M 449.25 394.25 L 449.25 401 L 456 401 L 456 394.25 L 449.25 394.25 Z M 449.25 394.25 " transform="matrix(1,0,0,-1,0,793)"/>
<path style="fill-rule:nonzero;fill:rgb(100%,100%,100%);fill-opacity:1;stroke-width:1.5;stroke-linecap:butt;stroke-linejoin:miter;stroke:rgb(13.730068%,12.159915%,12.54902%);stroke-opacity:1;stroke-miterlimit:4;" d="M 456 394.25 L 456 401 L 462.75 401 L 462.75 394.25 L 456 394.25 Z M 456 394.25 " transform="matrix(1,0,0,-1,0,793)"/>
<path style="fill-rule:nonzero;fill:rgb(100%,100%,100%);fill-opacity:1;stroke-width:1.5;stroke-linecap:butt;stroke-linejoin:miter;stroke:rgb(13.730068%,12.159915%,12.54902%);stroke-opacity:1;stroke-miterlimit:4;" d="M 442.5 387.5 L 442.5 394.25 L 449.25 394.25 L 449.25 387.5 L 442.5 387.5 Z M 442.5 387.5 " transform="matrix(1,0,0,-1,0,793)"/>
<path style="fill-rule:nonzero;fill:rgb(100%,100%,100%);fill-opacity:1;stroke-width:1.5;stroke-linecap:butt;stroke-linejoin:miter;stroke:rgb(13.730068%,12.159915%,12.54902%);stroke-opacity:1;stroke-miterlimit:4;" d="M 449.25 387.5 L 449.25 394.25 L 456 394.25 L 456 387.5 L 449.25 387.5 Z M 449.25 387.5 " transform="matrix(1,0,0,-1,0,793)"/>
<path style="fill-rule:nonzero;fill:rgb(100%,100%,100%);fill-opacity:1;stroke-width:1.5;stroke-linecap:butt;stroke-linejoin:miter;stroke:rgb(13.730068%,12.159915%,12.54902%);stroke-opacity:1;stroke-miterlimit:4;" d="M 456 387.5 L 456 394.25 L 462.75 394.25 L 462.75 387.5 L 456 387.5 Z M 456 387.5 " transform="matrix(1,0,0,-1,0,793)"/>

</svg>