<svg xmlns="http://www.w3.org/2000/svg" xmlns:xlink="http://www.w3.org/1999/xlink" width="612pt" height="792pt" viewBox="0 0 612 792" version="1.1">

<!-- Gravitic Augmenter -->
<path style="fill-rule:nonzero;fill:rgb(100%,100%,100%);fill-opacity:1;stroke-width:0.75;stroke-linecap:butt;stroke-linejoin:miter;stroke:rgb(13.730068%,12.159915%,12.54902%);stroke-opacity:1;stroke-miterlimit:4;" d="M 310.855469 517.832031 L 324.855469 517.832031 L 324.855469 551.332031 L 322.105469 551.332031 C 322.105469 551.332031 324.355469 553.582031 324.355469 555.832031 C 324.355469 559.964844 322.105469 560.332031 322.105469 560.332031 L 319.855469 560.332031 C 319.855469 560.332031 322.105469 562.582031 322.105469 564.832031 C 322.105469 567.082031 319.855469 569.332031 319.855469 569.332031 L 317.605469 569.332031 C 317.605469 569.332031 319.855469 571.582031 319.855469 573.832031 C 319.855469 576.082031 317.605469 578.332031 317.605469 578.332031 L 315.355469 578.332031 L 310.957031 552.5 L 306.355469 578.332031 L 304.105469 578.332031 C 304.105469 578.332031 301.855469 576.082031 301.855469 573.832031 C 301.855469 571.582031 304.105469 569.332031 304.105469 569.332031 L 301.855469 569.332031 C 301.855469 569.332031 299.605469 567.082031 299.605469 564.832031 C 299.605469 562.582031 301.855469 560.332031 301.855469 560.332031 L 299.605469 560.332031 C 299.605469 560.332031 297.355469 558.082031 297.355469 555.832031 C 297.355469 553.582031 299.605469 551.332031 299.605469 551.332031 L 296.855469 551.332031 L 296.855469 517.832031 L 310.855469 517.832031 Z M 310.855469 517.832031 " transform="matrix(1,0,0,-1,0,792)"/>

<!-- Damage Boxes -->
<path style="fill-rule:nonzero;fill:rgb(100%,100%,100%);fill-opacity:1;stroke-width:1.5;stroke-linecap:butt;stroke-linejoin:miter;stroke:rgb(13.730068%,12.159915%,12.54902%);stroke-opacity:1;stroke-miterlimit:4;" d="M 307.75 541.25 L 307.75 548 L 301 548 L 301 541.25 L 307.75 541.25 Z M 307.75 541.25 " transform="matrix(1,0,0,-1,0,792)"/>
<path style="fill-rule:nonzero;fill:rgb(100%,100%,100%);fill-opacity:1;stroke-width:1.5;stroke-linecap:butt;stroke-linejoin:miter;stroke:rgb(13.730068%,12.159915%,12.54902%);stroke-opacity:1;stroke-miterlimit:4;" d="M 314.5 541.25 L 314.5 548 L 307.75 548 L 307.75 541.25 L 314.5 541.25 Z M 314.5 541.25 " transform="matrix(1,0,0,-1,0,792)"/>
<path style="fill-rule:nonzero;fill:rgb(100%,100%,100%);fill-opacity:1;stroke-width:1.5;stroke-linecap:butt;stroke-linejoin:miter;stroke:rgb(13.730068%,12.159915%,12.54902%);stroke-opacity:1;stroke-miterlimit:4;" d="M 321.25 541.25 L 321.25 548 L 314.5 548 L 314.5 541.25 L 321.25 541.25 Z M 321.25 541.25 " transform="matrix(1,0,0,-1,0,792)"/>
<path style="fill-rule:nonzero;fill:rgb(100%,100%,100%);fill-opacity:1;stroke-width:1.5;stroke-linecap:butt;stroke-linejoin:miter;stroke:rgb(13.730068%,12.159915%,12.54902%);stroke-opacity:1;stroke-miterlimit:4;" d="M 307.75 534.5 L 307.75 541.25 L 301 541.25 L 301 534.5 L 307.75 534.5 Z M 307.75 534.5 " transform="matrix(1,0,0,-1,0,792)"/>
<path style="fill-rule:nonzero;fill:rgb(100%,100%,100%);fill-opacity:1;stroke-width:1.5;stroke-linecap:butt;stroke-linejoin:miter;stroke:rgb(13.730068%,12.159915%,12.54902%);stroke-opacity:1;stroke-miterlimit:4;" d="M 314.5 534.5 L 314.5 541.25 L 307.75 541.25 L 307.75 534.5 L 314.5 534.5 Z M 314.5 534.5 " transform="matrix(1,0,0,-1,0,792)"/>
<path style="fill-rule:nonzero;fill:rgb(100%,100%,100%);fill-opacity:1;stroke-width:1.5;stroke-linecap:butt;stroke-linejoin:miter;stroke:rgb(13.730068%,12.159915%,12.54902%);stroke-opacity:1;stroke-miterlimit:4;" d="M 321.25 534.5 L 321.25 541.25 L 314.5 541.25 L 314.5 534.5 L 321.25 534.5 Z M 321.25 534.5 " transform="matrix(1,0,0,-1,0,792)"/>
<path style="fill-rule:nonzero;fill:rgb(100%,100%,100%);fill-opacity:1;stroke-width:1.5;stroke-linecap:butt;stroke-linejoin:miter;stroke:rgb(13.730068%,12.159915%,12.54902%);stroke-opacity:1;stroke-miterlimit:4;" d="M 307.75 527.75 L 307.75 534.5 L 301 534.5 L 301 527.75 L 307.75 527.75 Z M 307.75 527.75 " transform="matrix(1,0,0,-1,0,792)"/>
<path style="fill-rule:nonzero;fill:rgb(100%,100%,100%);fill-opacity:1;stroke-width:1.5;stroke-linecap:butt;stroke-linejoin:miter;stroke:rgb(13.730068%,12.159915%,12.54902%);stroke-opacity:1;stroke-miterlimit:4;" d="M 314.5 527.75 L 314.5 534.5 L 307.75 534.5 L 307.75 527.75 L 314.5 527.75 Z M 314.5 527.75 " transform="matrix(1,0,0,-1,0,792)"/>
<path style="fill-rule:nonzero;fill:rgb(100%,100%,100%);fill-opacity:1;stroke-width:1.5;stroke-linecap:butt;stroke-linejoin:miter;stroke:rgb(13.730068%,12.159915%,12.54902%);stroke-opacity:1;stroke-miterlimit:4;" d="M 321.25 527.75 L 321.25 534.5 L 314.5 534.5 L 314.5 527.75 L 321.25 527.75 Z M 321.25 527.75 " transform="matrix(1,0,0,-1,0,792)"/>
<path style="fill-rule:nonzero;fill:rgb(100%,100%,100%);fill-opacity:1;stroke-width:1.5;stroke-linecap:butt;stroke-linejoin:miter;stroke:rgb(13.730068%,12.159915%,12.54902%);stroke-opacity:1;stroke-miterlimit:4;" d="M 307.75 521 L 307.75 527.75 L 301 527.75 L 301 521 L 307.75 521 Z M 307.75 521 " transform="matrix(1,0,0,-1,0,792)"/>
<path style="fill-rule:nonzero;fill:rgb(100%,100%,100%);fill-opacity:1;stroke-width:1.5;stroke-linecap:butt;stroke-linejoin:miter;stroke:rgb(13.730068%,12.159915%,12.54902%);stroke-opacity:1;stroke-miterlimit:4;" d="M 314.5 521 L 314.5 527.75 L 307.75 527.75 L 307.75 521 L 314.5 521 Z M 314.5 521 " transform="matrix(1,0,0,-1,0,792)"/>
<path style="fill-rule:nonzero;fill:rgb(100%,100%,100%);fill-opacity:1;stroke-width:1.5;stroke-linecap:butt;stroke-linejoin:miter;stroke:rgb(13.730068%,12.159915%,12.54902%);stroke-opacity:1;stroke-miterlimit:4;" d="M 321.25 521 L 321.25 527.75 L 314.5 527.75 L 314.5 521 L 321.25 521 Z M 321.25 521 " transform="matrix(1,0,0,-1,0,792)"/>

</svg>