<svg xmlns="http://www.w3.org/2000/svg" xmlns:xlink="http://www.w3.org/1999/xlink" width="612pt" height="792pt" viewBox="0 0 612 792" version="1.1">

<!-- Guardian Array -->
<path style="fill-rule:nonzero;fill:rgb(100%,100%,100%);fill-opacity:1;stroke-width:0.75;stroke-linecap:butt;stroke-linejoin:miter;stroke:rgb(13.730068%,12.159915%,12.54902%);stroke-opacity:1;stroke-miterlimit:4;" d="M 124.25 267.75 L 124.25 292.5 L 128.75 292.5 L 128.75 301.5 L 133.25 301.5 L 133.25 292.5 L 137.75 292.5 L 137.75 301.5 L 142.25 301.5 L 142.25 292.5 L 146.75 292.5 L 146.75 267.75 L 124.25 267.75 Z M 124.25 267.75 " transform="matrix(1,0,0,-1,0,793)"/>

<!-- Damage Boxes -->
<path style="fill-rule:nonzero;fill:rgb(100%,100%,100%);fill-opacity:1;stroke-width:1.5;stroke-linecap:butt;stroke-linejoin:miter;stroke:rgb(13.730068%,12.159915%,12.54902%);stroke-opacity:1;stroke-miterlimit:4;" d="M 135.5 279 L 135.5 285.75 L 128.75 285.75 L 128.75 279 L 135.5 279 Z M 135.5 279 " transform="matrix(1,0,0,-1,0,793)"/>
<path style="fill-rule:nonzero;fill:rgb(100%,100%,100%);fill-opacity:1;stroke-width:1.5;stroke-linecap:butt;stroke-linejoin:miter;stroke:rgb(13.730068%,12.159915%,12.54902%);stroke-opacity:1;stroke-miterlimit:4;" d="M 142.25 279 L 142.25 285.75 L 135.5 285.75 L 135.5 279 L 142.25 279 Z M 142.25 279 " transform="matrix(1,0,0,-1,0,793)"/>
<path style="fill-rule:nonzero;fill:rgb(100%,100%,100%);fill-opacity:1;stroke-width:1.5;stroke-linecap:butt;stroke-linejoin:miter;stroke:rgb(13.730068%,12.159915%,12.54902%);stroke-opacity:1;stroke-miterlimit:4;" d="M 135.5 272.25 L 135.5 279 L 128.75 279 L 128.75 272.25 L 135.5 272.25 Z M 135.5 272.25 " transform="matrix(1,0,0,-1,0,793)"/>
<path style="fill-rule:nonzero;fill:rgb(100%,100%,100%);fill-opacity:1;stroke-width:1.5;stroke-linecap:butt;stroke-linejoin:miter;stroke:rgb(13.730068%,12.159915%,12.54902%);stroke-opacity:1;stroke-miterlimit:4;" d="M 142.25 272.25 L 142.25 279 L 135.5 279 L 135.5 272.25 L 142.25 272.25 Z M 142.25 272.25 " transform="matrix(1,0,0,-1,0,793)"/>

</svg>