<svg xmlns="http://www.w3.org/2000/svg" xmlns:xlink="http://www.w3.org/1999/xlink" width="612pt" height="792pt" viewBox="0 0 612 792" version="1.1">

<!-- Hangar (4) -->
<path style="fill-rule:nonzero;fill:rgb(100%,100%,100%);fill-opacity:1;stroke-width:0.75;stroke-linecap:butt;stroke-linejoin:miter;stroke:rgb(13.730068%,12.159915%,12.54902%);stroke-opacity:1;stroke-miterlimit:4;" d="M 348.75 301.5 L 348.75 326.25 L 389.25 326.25 L 389.25 301.5 L 379.820312 306 L 375.320312 301.5 L 361.820312 301.5 L 357.320312 306 L 348.75 301.5 Z M 348.75 301.5 " transform="matrix(1,0,0,-1,17,773)"/>

<!-- Annotation -->
<path style="opacity:0.5;fill:#ffffff;fill-opacity:1;fill-rule:nonzero;stroke:#ff1e1e;stroke-width:1.5;stroke-linecap:butt;stroke-linejoin:miter;stroke-miterlimit:4;stroke-opacity:1" d="m 389.28452,469.45796 0,-6.75 -6.75,0 0,6.75 6.75,0 z m 0,0"/>
     
<!-- Damage Boxes -->
<path style="fill-rule:nonzero;fill:rgb(100%,100%,100%);fill-opacity:1;stroke-width:1.5;stroke-linecap:butt;stroke-linejoin:miter;stroke:rgb(13.730068%,12.159915%,12.54902%);stroke-opacity:1;stroke-miterlimit:4;" d="M 362.25 312.75 L 362.25 319.5 L 355.5 319.5 L 355.5 312.75 L 362.25 312.75 Z M 362.25 312.75 " transform="matrix(1,0,0,-1,17,773)"/>
<path style="fill-rule:nonzero;fill:rgb(100%,100%,100%);fill-opacity:1;stroke-width:1.5;stroke-linecap:butt;stroke-linejoin:miter;stroke:rgb(13.730068%,12.159915%,12.54902%);stroke-opacity:1;stroke-miterlimit:4;" d="M 369 312.75 L 369 319.5 L 362.25 319.5 L 362.25 312.75 L 369 312.75 Z M 369 312.75 " transform="matrix(1,0,0,-1,17,773)"/>
<path style="fill-rule:nonzero;fill:rgb(100%,100%,100%);fill-opacity:1;stroke-width:1.5;stroke-linecap:butt;stroke-linejoin:miter;stroke:rgb(13.730068%,12.159915%,12.54902%);stroke-opacity:1;stroke-miterlimit:4;" d="M 375.75 312.75 L 375.75 319.5 L 369 319.5 L 369 312.75 L 375.75 312.75 Z M 375.75 312.75 " transform="matrix(1,0,0,-1,17,773)"/>
<path style="fill-rule:nonzero;fill:rgb(100%,100%,100%);fill-opacity:1;stroke-width:1.5;stroke-linecap:butt;stroke-linejoin:miter;stroke:rgb(13.730068%,12.159915%,12.54902%);stroke-opacity:1;stroke-miterlimit:4;" d="M 382.5 312.75 L 382.5 319.5 L 375.75 319.5 L 375.75 312.75 L 382.5 312.75 Z M 382.5 312.75 " transform="matrix(1,0,0,-1,17,773)"/>

</svg>