<svg xmlns="http://www.w3.org/2000/svg" xmlns:xlink="http://www.w3.org/1999/xlink" width="612pt" height="792pt" viewBox="0 0 612 792" version="1.1">

<!-- Hangar (12) -->
<path style="fill-rule:nonzero;fill:rgb(100%,100%,100%);fill-opacity:1;stroke-width:0.75;stroke-linecap:butt;stroke-linejoin:miter;stroke:rgb(13.730068%,12.159915%,12.54902%);stroke-opacity:1;stroke-miterlimit:4;" d="M 294.582031 566.667969 L 294.582031 625.167969 L 326.082031 625.167969 L 326.082031 566.667969 L 321.15625 571.167969 L 316.65625 566.667969 L 303.15625 566.667969 L 298.65625 571.167969 L 294.582031 566.667969 Z M 294.582031 566.667969 " transform="matrix(1,0,0,-1,0,793)"/>

<!-- Annotation -->
<path style="opacity:0.5;fill:#ffffff;fill-opacity:1;fill-rule:nonzero;stroke:#ff1e1e;stroke-width:1.5;stroke-linecap:butt;stroke-linejoin:miter;stroke-miterlimit:4;stroke-opacity:1" d="m 313.64507,224.29714 0,-6.75 -6.75,0 0,6.75 6.75,0 z m 0,0"/>
     
<!-- Damage Boxes -->
<path style="fill-rule:nonzero;fill:rgb(100%,100%,100%);fill-opacity:1;stroke-width:1.5;stroke-linecap:butt;stroke-linejoin:miter;stroke:rgb(13.730068%,12.159915%,12.54902%);stroke-opacity:1;stroke-miterlimit:4;" d="M 310.332031 611.667969 L 310.332031 618.417969 L 303.582031 618.417969 L 303.582031 611.667969 L 310.332031 611.667969 Z M 310.332031 611.667969 " transform="matrix(1,0,0,-1,0,793)"/>
<path style="fill-rule:nonzero;fill:rgb(100%,100%,100%);fill-opacity:1;stroke-width:1.5;stroke-linecap:butt;stroke-linejoin:miter;stroke:rgb(13.730068%,12.159915%,12.54902%);stroke-opacity:1;stroke-miterlimit:4;" d="M 317.082031 611.667969 L 317.082031 618.417969 L 310.332031 618.417969 L 310.332031 611.667969 L 317.082031 611.667969 Z M 317.082031 611.667969 " transform="matrix(1,0,0,-1,0,793)"/>
<path style="fill-rule:nonzero;fill:rgb(100%,100%,100%);fill-opacity:1;stroke-width:1.5;stroke-linecap:butt;stroke-linejoin:miter;stroke:rgb(13.730068%,12.159915%,12.54902%);stroke-opacity:1;stroke-miterlimit:4;" d="M 310.332031 604.917969 L 310.332031 611.667969 L 303.582031 611.667969 L 303.582031 604.917969 L 310.332031 604.917969 Z M 310.332031 604.917969 " transform="matrix(1,0,0,-1,0,793)"/>
<path style="fill-rule:nonzero;fill:rgb(100%,100%,100%);fill-opacity:1;stroke-width:1.5;stroke-linecap:butt;stroke-linejoin:miter;stroke:rgb(13.730068%,12.159915%,12.54902%);stroke-opacity:1;stroke-miterlimit:4;" d="M 317.082031 604.917969 L 317.082031 611.667969 L 310.332031 611.667969 L 310.332031 604.917969 L 317.082031 604.917969 Z M 317.082031 604.917969 " transform="matrix(1,0,0,-1,0,793)"/>
<path style="fill-rule:nonzero;fill:rgb(100%,100%,100%);fill-opacity:1;stroke-width:1.5;stroke-linecap:butt;stroke-linejoin:miter;stroke:rgb(13.730068%,12.159915%,12.54902%);stroke-opacity:1;stroke-miterlimit:4;" d="M 310.332031 598.167969 L 310.332031 604.917969 L 303.582031 604.917969 L 303.582031 598.167969 L 310.332031 598.167969 Z M 310.332031 598.167969 " transform="matrix(1,0,0,-1,0,793)"/>
<path style="fill-rule:nonzero;fill:rgb(100%,100%,100%);fill-opacity:1;stroke-width:1.5;stroke-linecap:butt;stroke-linejoin:miter;stroke:rgb(13.730068%,12.159915%,12.54902%);stroke-opacity:1;stroke-miterlimit:4;" d="M 317.082031 598.167969 L 317.082031 604.917969 L 310.332031 604.917969 L 310.332031 598.167969 L 317.082031 598.167969 Z M 317.082031 598.167969 " transform="matrix(1,0,0,-1,0,793)"/>
<path style="fill-rule:nonzero;fill:rgb(100%,100%,100%);fill-opacity:1;stroke-width:1.5;stroke-linecap:butt;stroke-linejoin:miter;stroke:rgb(13.730068%,12.159915%,12.54902%);stroke-opacity:1;stroke-miterlimit:4;" d="M 310.332031 591.417969 L 310.332031 598.167969 L 303.582031 598.167969 L 303.582031 591.417969 L 310.332031 591.417969 Z M 310.332031 591.417969 " transform="matrix(1,0,0,-1,0,793)"/>
<path style="fill-rule:nonzero;fill:rgb(100%,100%,100%);fill-opacity:1;stroke-width:1.5;stroke-linecap:butt;stroke-linejoin:miter;stroke:rgb(13.730068%,12.159915%,12.54902%);stroke-opacity:1;stroke-miterlimit:4;" d="M 317.082031 591.417969 L 317.082031 598.167969 L 310.332031 598.167969 L 310.332031 591.417969 L 317.082031 591.417969 Z M 317.082031 591.417969 " transform="matrix(1,0,0,-1,0,793)"/>
<path style="fill-rule:nonzero;fill:rgb(100%,100%,100%);fill-opacity:1;stroke-width:1.5;stroke-linecap:butt;stroke-linejoin:miter;stroke:rgb(13.730068%,12.159915%,12.54902%);stroke-opacity:1;stroke-miterlimit:4;" d="M 310.332031 584.667969 L 310.332031 591.417969 L 303.582031 591.417969 L 303.582031 584.667969 L 310.332031 584.667969 Z M 310.332031 584.667969 " transform="matrix(1,0,0,-1,0,793)"/>
<path style="fill-rule:nonzero;fill:rgb(100%,100%,100%);fill-opacity:1;stroke-width:1.5;stroke-linecap:butt;stroke-linejoin:miter;stroke:rgb(13.730068%,12.159915%,12.54902%);stroke-opacity:1;stroke-miterlimit:4;" d="M 317.082031 584.667969 L 317.082031 591.417969 L 310.332031 591.417969 L 310.332031 584.667969 L 317.082031 584.667969 Z M 317.082031 584.667969 " transform="matrix(1,0,0,-1,0,793)"/>
<path style="fill-rule:nonzero;fill:rgb(100%,100%,100%);fill-opacity:1;stroke-width:1.5;stroke-linecap:butt;stroke-linejoin:miter;stroke:rgb(13.730068%,12.159915%,12.54902%);stroke-opacity:1;stroke-miterlimit:4;" d="M 310.332031 577.917969 L 310.332031 584.667969 L 303.582031 584.667969 L 303.582031 577.917969 L 310.332031 577.917969 Z M 310.332031 577.917969 " transform="matrix(1,0,0,-1,0,793)"/>
<path style="fill-rule:nonzero;fill:rgb(100%,100%,100%);fill-opacity:1;stroke-width:1.5;stroke-linecap:butt;stroke-linejoin:miter;stroke:rgb(13.730068%,12.159915%,12.54902%);stroke-opacity:1;stroke-miterlimit:4;" d="M 317.082031 577.917969 L 317.082031 584.667969 L 310.332031 584.667969 L 310.332031 577.917969 L 317.082031 577.917969 Z M 317.082031 577.917969 " transform="matrix(1,0,0,-1,0,793)"/>

</svg>