<svg xmlns="http://www.w3.org/2000/svg" xmlns:xlink="http://www.w3.org/1999/xlink" width="612pt" height="792pt" viewBox="0 0 612 792" version="1.1">

<!-- Hangar (24) -->
<path style="fill-rule:nonzero;fill:rgb(100%,100%,100%);fill-opacity:1;stroke-width:0.75;stroke-linecap:butt;stroke-linejoin:miter;stroke:rgb(13.730068%,12.159915%,12.54902%);stroke-opacity:1;stroke-miterlimit:4;" d="M 170.292969 337.4375 L 170.292969 395.9375 L 210.792969 395.9375 L 210.792969 337.4375 L 201.363281 341.9375 L 196.863281 337.4375 L 183.363281 337.4375 L 178.863281 341.9375 L 170.292969 337.4375 Z M 170.292969 337.4375 " transform="matrix(1,0,0,-1,0,793)"/>

<!-- Annotation -->
<path style="opacity:0.5;fill:#ffffff;fill-opacity:1;fill-rule:nonzero;stroke:#ff1e1e;stroke-width:1.5;stroke-linecap:butt;stroke-linejoin:miter;stroke-miterlimit:4;stroke-opacity:1" d="m 193.73429,453.51435 0,-6.75 -6.75,0 0,6.75 6.75,0 z m 0,0"/>
     
<!-- Damage Boxes -->
<path style="fill-rule:nonzero;fill:rgb(100%,100%,100%);fill-opacity:1;stroke-width:1.5;stroke-linecap:butt;stroke-linejoin:miter;stroke:rgb(13.730068%,12.159915%,12.54902%);stroke-opacity:1;stroke-miterlimit:4;" d="M 183.792969 382.4375 L 183.792969 389.1875 L 177.042969 389.1875 L 177.042969 382.4375 L 183.792969 382.4375 Z M 183.792969 382.4375 " transform="matrix(1,0,0,-1,0,793)"/>
<path style="fill-rule:nonzero;fill:rgb(100%,100%,100%);fill-opacity:1;stroke-width:1.5;stroke-linecap:butt;stroke-linejoin:miter;stroke:rgb(13.730068%,12.159915%,12.54902%);stroke-opacity:1;stroke-miterlimit:4;" d="M 190.542969 382.4375 L 190.542969 389.1875 L 183.792969 389.1875 L 183.792969 382.4375 L 190.542969 382.4375 Z M 190.542969 382.4375 " transform="matrix(1,0,0,-1,0,793)"/>
<path style="fill-rule:nonzero;fill:rgb(100%,100%,100%);fill-opacity:1;stroke-width:1.5;stroke-linecap:butt;stroke-linejoin:miter;stroke:rgb(13.730068%,12.159915%,12.54902%);stroke-opacity:1;stroke-miterlimit:4;" d="M 197.292969 382.4375 L 197.292969 389.1875 L 190.542969 389.1875 L 190.542969 382.4375 L 197.292969 382.4375 Z M 197.292969 382.4375 " transform="matrix(1,0,0,-1,0,793)"/>
<path style="fill-rule:nonzero;fill:rgb(100%,100%,100%);fill-opacity:1;stroke-width:1.5;stroke-linecap:butt;stroke-linejoin:miter;stroke:rgb(13.730068%,12.159915%,12.54902%);stroke-opacity:1;stroke-miterlimit:4;" d="M 204.042969 382.4375 L 204.042969 389.1875 L 197.292969 389.1875 L 197.292969 382.4375 L 204.042969 382.4375 Z M 204.042969 382.4375 " transform="matrix(1,0,0,-1,0,793)"/>
<path style="fill-rule:nonzero;fill:rgb(100%,100%,100%);fill-opacity:1;stroke-width:1.5;stroke-linecap:butt;stroke-linejoin:miter;stroke:rgb(13.730068%,12.159915%,12.54902%);stroke-opacity:1;stroke-miterlimit:4;" d="M 183.792969 375.6875 L 183.792969 382.4375 L 177.042969 382.4375 L 177.042969 375.6875 L 183.792969 375.6875 Z M 183.792969 375.6875 " transform="matrix(1,0,0,-1,0,793)"/>
<path style="fill-rule:nonzero;fill:rgb(100%,100%,100%);fill-opacity:1;stroke-width:1.5;stroke-linecap:butt;stroke-linejoin:miter;stroke:rgb(13.730068%,12.159915%,12.54902%);stroke-opacity:1;stroke-miterlimit:4;" d="M 190.542969 375.6875 L 190.542969 382.4375 L 183.792969 382.4375 L 183.792969 375.6875 L 190.542969 375.6875 Z M 190.542969 375.6875 " transform="matrix(1,0,0,-1,0,793)"/>
<path style="fill-rule:nonzero;fill:rgb(100%,100%,100%);fill-opacity:1;stroke-width:1.5;stroke-linecap:butt;stroke-linejoin:miter;stroke:rgb(13.730068%,12.159915%,12.54902%);stroke-opacity:1;stroke-miterlimit:4;" d="M 197.292969 375.6875 L 197.292969 382.4375 L 190.542969 382.4375 L 190.542969 375.6875 L 197.292969 375.6875 Z M 197.292969 375.6875 " transform="matrix(1,0,0,-1,0,793)"/>
<path style="fill-rule:nonzero;fill:rgb(100%,100%,100%);fill-opacity:1;stroke-width:1.5;stroke-linecap:butt;stroke-linejoin:miter;stroke:rgb(13.730068%,12.159915%,12.54902%);stroke-opacity:1;stroke-miterlimit:4;" d="M 204.042969 375.6875 L 204.042969 382.4375 L 197.292969 382.4375 L 197.292969 375.6875 L 204.042969 375.6875 Z M 204.042969 375.6875 " transform="matrix(1,0,0,-1,0,793)"/>
<path style="fill-rule:nonzero;fill:rgb(100%,100%,100%);fill-opacity:1;stroke-width:1.5;stroke-linecap:butt;stroke-linejoin:miter;stroke:rgb(13.730068%,12.159915%,12.54902%);stroke-opacity:1;stroke-miterlimit:4;" d="M 183.792969 368.9375 L 183.792969 375.6875 L 177.042969 375.6875 L 177.042969 368.9375 L 183.792969 368.9375 Z M 183.792969 368.9375 " transform="matrix(1,0,0,-1,0,793)"/>
<path style="fill-rule:nonzero;fill:rgb(100%,100%,100%);fill-opacity:1;stroke-width:1.5;stroke-linecap:butt;stroke-linejoin:miter;stroke:rgb(13.730068%,12.159915%,12.54902%);stroke-opacity:1;stroke-miterlimit:4;" d="M 190.542969 368.9375 L 190.542969 375.6875 L 183.792969 375.6875 L 183.792969 368.9375 L 190.542969 368.9375 Z M 190.542969 368.9375 " transform="matrix(1,0,0,-1,0,793)"/>
<path style="fill-rule:nonzero;fill:rgb(100%,100%,100%);fill-opacity:1;stroke-width:1.5;stroke-linecap:butt;stroke-linejoin:miter;stroke:rgb(13.730068%,12.159915%,12.54902%);stroke-opacity:1;stroke-miterlimit:4;" d="M 197.292969 368.9375 L 197.292969 375.6875 L 190.542969 375.6875 L 190.542969 368.9375 L 197.292969 368.9375 Z M 197.292969 368.9375 " transform="matrix(1,0,0,-1,0,793)"/>
<path style="fill-rule:nonzero;fill:rgb(100%,100%,100%);fill-opacity:1;stroke-width:1.5;stroke-linecap:butt;stroke-linejoin:miter;stroke:rgb(13.730068%,12.159915%,12.54902%);stroke-opacity:1;stroke-miterlimit:4;" d="M 204.042969 368.9375 L 204.042969 375.6875 L 197.292969 375.6875 L 197.292969 368.9375 L 204.042969 368.9375 Z M 204.042969 368.9375 " transform="matrix(1,0,0,-1,0,793)"/>
<path style="fill-rule:nonzero;fill:rgb(100%,100%,100%);fill-opacity:1;stroke-width:1.5;stroke-linecap:butt;stroke-linejoin:miter;stroke:rgb(13.730068%,12.159915%,12.54902%);stroke-opacity:1;stroke-miterlimit:4;" d="M 183.792969 362.1875 L 183.792969 368.9375 L 177.042969 368.9375 L 177.042969 362.1875 L 183.792969 362.1875 Z M 183.792969 362.1875 " transform="matrix(1,0,0,-1,0,793)"/>
<path style="fill-rule:nonzero;fill:rgb(100%,100%,100%);fill-opacity:1;stroke-width:1.5;stroke-linecap:butt;stroke-linejoin:miter;stroke:rgb(13.730068%,12.159915%,12.54902%);stroke-opacity:1;stroke-miterlimit:4;" d="M 190.542969 362.1875 L 190.542969 368.9375 L 183.792969 368.9375 L 183.792969 362.1875 L 190.542969 362.1875 Z M 190.542969 362.1875 " transform="matrix(1,0,0,-1,0,793)"/>
<path style="fill-rule:nonzero;fill:rgb(100%,100%,100%);fill-opacity:1;stroke-width:1.5;stroke-linecap:butt;stroke-linejoin:miter;stroke:rgb(13.730068%,12.159915%,12.54902%);stroke-opacity:1;stroke-miterlimit:4;" d="M 197.292969 362.1875 L 197.292969 368.9375 L 190.542969 368.9375 L 190.542969 362.1875 L 197.292969 362.1875 Z M 197.292969 362.1875 " transform="matrix(1,0,0,-1,0,793)"/>
<path style="fill-rule:nonzero;fill:rgb(100%,100%,100%);fill-opacity:1;stroke-width:1.5;stroke-linecap:butt;stroke-linejoin:miter;stroke:rgb(13.730068%,12.159915%,12.54902%);stroke-opacity:1;stroke-miterlimit:4;" d="M 204.042969 362.1875 L 204.042969 368.9375 L 197.292969 368.9375 L 197.292969 362.1875 L 204.042969 362.1875 Z M 204.042969 362.1875 " transform="matrix(1,0,0,-1,0,793)"/>
<path style="fill-rule:nonzero;fill:rgb(100%,100%,100%);fill-opacity:1;stroke-width:1.5;stroke-linecap:butt;stroke-linejoin:miter;stroke:rgb(13.730068%,12.159915%,12.54902%);stroke-opacity:1;stroke-miterlimit:4;" d="M 183.792969 355.4375 L 183.792969 362.1875 L 177.042969 362.1875 L 177.042969 355.4375 L 183.792969 355.4375 Z M 183.792969 355.4375 " transform="matrix(1,0,0,-1,0,793)"/>
<path style="fill-rule:nonzero;fill:rgb(100%,100%,100%);fill-opacity:1;stroke-width:1.5;stroke-linecap:butt;stroke-linejoin:miter;stroke:rgb(13.730068%,12.159915%,12.54902%);stroke-opacity:1;stroke-miterlimit:4;" d="M 190.542969 355.4375 L 190.542969 362.1875 L 183.792969 362.1875 L 183.792969 355.4375 L 190.542969 355.4375 Z M 190.542969 355.4375 " transform="matrix(1,0,0,-1,0,793)"/>
<path style="fill-rule:nonzero;fill:rgb(100%,100%,100%);fill-opacity:1;stroke-width:1.5;stroke-linecap:butt;stroke-linejoin:miter;stroke:rgb(13.730068%,12.159915%,12.54902%);stroke-opacity:1;stroke-miterlimit:4;" d="M 197.292969 355.4375 L 197.292969 362.1875 L 190.542969 362.1875 L 190.542969 355.4375 L 197.292969 355.4375 Z M 197.292969 355.4375 " transform="matrix(1,0,0,-1,0,793)"/>
<path style="fill-rule:nonzero;fill:rgb(100%,100%,100%);fill-opacity:1;stroke-width:1.5;stroke-linecap:butt;stroke-linejoin:miter;stroke:rgb(13.730068%,12.159915%,12.54902%);stroke-opacity:1;stroke-miterlimit:4;" d="M 204.042969 355.4375 L 204.042969 362.1875 L 197.292969 362.1875 L 197.292969 355.4375 L 204.042969 355.4375 Z M 204.042969 355.4375 " transform="matrix(1,0,0,-1,0,793)"/>
<path style="fill-rule:nonzero;fill:rgb(100%,100%,100%);fill-opacity:1;stroke-width:1.5;stroke-linecap:butt;stroke-linejoin:miter;stroke:rgb(13.730068%,12.159915%,12.54902%);stroke-opacity:1;stroke-miterlimit:4;" d="M 183.792969 348.6875 L 183.792969 355.4375 L 177.042969 355.4375 L 177.042969 348.6875 L 183.792969 348.6875 Z M 183.792969 348.6875 " transform="matrix(1,0,0,-1,0,793)"/>
<path style="fill-rule:nonzero;fill:rgb(100%,100%,100%);fill-opacity:1;stroke-width:1.5;stroke-linecap:butt;stroke-linejoin:miter;stroke:rgb(13.730068%,12.159915%,12.54902%);stroke-opacity:1;stroke-miterlimit:4;" d="M 190.542969 348.6875 L 190.542969 355.4375 L 183.792969 355.4375 L 183.792969 348.6875 L 190.542969 348.6875 Z M 190.542969 348.6875 " transform="matrix(1,0,0,-1,0,793)"/>
<path style="fill-rule:nonzero;fill:rgb(100%,100%,100%);fill-opacity:1;stroke-width:1.5;stroke-linecap:butt;stroke-linejoin:miter;stroke:rgb(13.730068%,12.159915%,12.54902%);stroke-opacity:1;stroke-miterlimit:4;" d="M 197.292969 348.6875 L 197.292969 355.4375 L 190.542969 355.4375 L 190.542969 348.6875 L 197.292969 348.6875 Z M 197.292969 348.6875 " transform="matrix(1,0,0,-1,0,793)"/>
<path style="fill-rule:nonzero;fill:rgb(100%,100%,100%);fill-opacity:1;stroke-width:1.5;stroke-linecap:butt;stroke-linejoin:miter;stroke:rgb(13.730068%,12.159915%,12.54902%);stroke-opacity:1;stroke-miterlimit:4;" d="M 204.042969 348.6875 L 204.042969 355.4375 L 197.292969 355.4375 L 197.292969 348.6875 L 204.042969 348.6875 Z M 204.042969 348.6875 " transform="matrix(1,0,0,-1,0,793)"/>

</svg>