<svg xmlns="http://www.w3.org/2000/svg" xmlns:xlink="http://www.w3.org/1999/xlink" width="612pt" height="792pt" viewBox="0 0 612 792" version="1.1">

<!-- Hangar (9) -->
<path style="fill-rule:nonzero;fill:rgb(100%,100%,100%);fill-opacity:1;stroke-width:0.75;stroke-linecap:butt;stroke-linejoin:miter;stroke:rgb(13.730068%,12.159915%,12.54902%);stroke-opacity:1;stroke-miterlimit:4;" d="M 483.207031 319.5 L 483.207031 357.75 L 519.207031 357.75 L 519.207031 319.5 L 512.457031 324 L 507.957031 319.5 L 494.457031 319.5 L 489.957031 324 L 483.207031 319.5 Z M 483.207031 319.5 " transform="matrix(1,0,0,-1,0,793)"/>

<!-- Annotation -->
<path style="opacity:0.5;fill:#ffffff;fill-opacity:1;fill-rule:nonzero;stroke:#ff1e1e;stroke-width:1.5;stroke-linecap:butt;stroke-linejoin:miter;stroke-miterlimit:4;stroke-opacity:1" d="m 504.5976,471.46017 0,-6.75 -6.75,0 0,6.75 6.75,0 z m 0,0"/>
     
<!-- Damage Boxes -->
<path style="fill-rule:nonzero;fill:rgb(100%,100%,100%);fill-opacity:1;stroke-width:1.5;stroke-linecap:butt;stroke-linejoin:miter;stroke:rgb(13.730068%,12.159915%,12.54902%);stroke-opacity:1;stroke-miterlimit:4;" d="M 497.832031 344.230469 L 497.832031 350.980469 L 491.082031 350.980469 L 491.082031 344.230469 L 497.832031 344.230469 Z M 497.832031 344.230469 " transform="matrix(1,0,0,-1,0,793)"/>
<path style="fill-rule:nonzero;fill:rgb(100%,100%,100%);fill-opacity:1;stroke-width:1.5;stroke-linecap:butt;stroke-linejoin:miter;stroke:rgb(13.730068%,12.159915%,12.54902%);stroke-opacity:1;stroke-miterlimit:4;" d="M 504.582031 344.230469 L 504.582031 350.980469 L 497.832031 350.980469 L 497.832031 344.230469 L 504.582031 344.230469 Z M 504.582031 344.230469 " transform="matrix(1,0,0,-1,0,793)"/>
<path style="fill-rule:nonzero;fill:rgb(100%,100%,100%);fill-opacity:1;stroke-width:1.5;stroke-linecap:butt;stroke-linejoin:miter;stroke:rgb(13.730068%,12.159915%,12.54902%);stroke-opacity:1;stroke-miterlimit:4;" d="M 511.332031 344.230469 L 511.332031 350.980469 L 504.582031 350.980469 L 504.582031 344.230469 L 511.332031 344.230469 Z M 511.332031 344.230469 " transform="matrix(1,0,0,-1,0,793)"/>
<path style="fill-rule:nonzero;fill:rgb(100%,100%,100%);fill-opacity:1;stroke-width:1.5;stroke-linecap:butt;stroke-linejoin:miter;stroke:rgb(13.730068%,12.159915%,12.54902%);stroke-opacity:1;stroke-miterlimit:4;" d="M 497.832031 337.480469 L 497.832031 344.230469 L 491.082031 344.230469 L 491.082031 337.480469 L 497.832031 337.480469 Z M 497.832031 337.480469 " transform="matrix(1,0,0,-1,0,793)"/>
<path style="fill-rule:nonzero;fill:rgb(100%,100%,100%);fill-opacity:1;stroke-width:1.5;stroke-linecap:butt;stroke-linejoin:miter;stroke:rgb(13.730068%,12.159915%,12.54902%);stroke-opacity:1;stroke-miterlimit:4;" d="M 504.582031 337.480469 L 504.582031 344.230469 L 497.832031 344.230469 L 497.832031 337.480469 L 504.582031 337.480469 Z M 504.582031 337.480469 " transform="matrix(1,0,0,-1,0,793)"/>
<path style="fill-rule:nonzero;fill:rgb(100%,100%,100%);fill-opacity:1;stroke-width:1.5;stroke-linecap:butt;stroke-linejoin:miter;stroke:rgb(13.730068%,12.159915%,12.54902%);stroke-opacity:1;stroke-miterlimit:4;" d="M 511.332031 337.480469 L 511.332031 344.230469 L 504.582031 344.230469 L 504.582031 337.480469 L 511.332031 337.480469 Z M 511.332031 337.480469 " transform="matrix(1,0,0,-1,0,793)"/>
<path style="fill-rule:nonzero;fill:rgb(100%,100%,100%);fill-opacity:1;stroke-width:1.5;stroke-linecap:butt;stroke-linejoin:miter;stroke:rgb(13.730068%,12.159915%,12.54902%);stroke-opacity:1;stroke-miterlimit:4;" d="M 497.832031 330.730469 L 497.832031 337.480469 L 491.082031 337.480469 L 491.082031 330.730469 L 497.832031 330.730469 Z M 497.832031 330.730469 " transform="matrix(1,0,0,-1,0,793)"/>
<path style="fill-rule:nonzero;fill:rgb(100%,100%,100%);fill-opacity:1;stroke-width:1.5;stroke-linecap:butt;stroke-linejoin:miter;stroke:rgb(13.730068%,12.159915%,12.54902%);stroke-opacity:1;stroke-miterlimit:4;" d="M 504.582031 330.730469 L 504.582031 337.480469 L 497.832031 337.480469 L 497.832031 330.730469 L 504.582031 330.730469 Z M 504.582031 330.730469 " transform="matrix(1,0,0,-1,0,793)"/>
<path style="fill-rule:nonzero;fill:rgb(100%,100%,100%);fill-opacity:1;stroke-width:1.5;stroke-linecap:butt;stroke-linejoin:miter;stroke:rgb(13.730068%,12.159915%,12.54902%);stroke-opacity:1;stroke-miterlimit:4;" d="M 511.332031 330.730469 L 511.332031 337.480469 L 504.582031 337.480469 L 504.582031 330.730469 L 511.332031 330.730469 Z M 511.332031 330.730469 " transform="matrix(1,0,0,-1,0,793)"/>

</svg>