<svg xmlns="http://www.w3.org/2000/svg" xmlns:xlink="http://www.w3.org/1999/xlink" width="612pt" height="792pt" viewBox="0 0 612 792" version="1.1">

<!-- Hangar (42) -->
<path style="fill-rule:nonzero;fill:rgb(100%,100%,100%);fill-opacity:1;stroke-width:0.75;stroke-linecap:butt;stroke-linejoin:miter;stroke:rgb(13.730068%,12.159915%,12.54902%);stroke-opacity:1;stroke-miterlimit:4;" d="M 332.121094 399.25 L 332.121094 471.25 L 386.121094 471.25 L 386.121094 399.25 L 370.371094 403.75 L 365.871094 399.25 L 352.371094 399.25 L 347.871094 403.75 L 332.121094 399.25 Z M 332.121094 399.25 " transform="matrix(1,0,0,-1,16,792)"/>

<!-- Annotation -->
<path style="opacity:0.5;fill:#ffffff;fill-opacity:1;fill-rule:nonzero;stroke:#ff1e1e;stroke-width:1.5;stroke-linecap:butt;stroke-linejoin:miter;stroke-miterlimit:4;stroke-opacity:1" d="m 378.53185,390.70393 0,-6.75 -6.75,0 0,6.75 6.75,0 z m 0,0"/>
     
<!-- Damage Boxes -->
<path style="fill-rule:nonzero;fill:rgb(100%,100%,100%);fill-opacity:1;stroke-width:1.5;stroke-linecap:butt;stroke-linejoin:miter;stroke:rgb(13.730068%,12.159915%,12.54902%);stroke-opacity:1;stroke-miterlimit:4;" d="M 345.621094 457.75 L 345.621094 464.5 L 338.871094 464.5 L 338.871094 457.75 L 345.621094 457.75 Z M 345.621094 457.75 " transform="matrix(1,0,0,-1,16,792)"/>
<path style="fill-rule:nonzero;fill:rgb(100%,100%,100%);fill-opacity:1;stroke-width:1.5;stroke-linecap:butt;stroke-linejoin:miter;stroke:rgb(13.730068%,12.159915%,12.54902%);stroke-opacity:1;stroke-miterlimit:4;" d="M 352.371094 457.75 L 352.371094 464.5 L 345.621094 464.5 L 345.621094 457.75 L 352.371094 457.75 Z M 352.371094 457.75 " transform="matrix(1,0,0,-1,16,792)"/>
<path style="fill-rule:nonzero;fill:rgb(100%,100%,100%);fill-opacity:1;stroke-width:1.5;stroke-linecap:butt;stroke-linejoin:miter;stroke:rgb(13.730068%,12.159915%,12.54902%);stroke-opacity:1;stroke-miterlimit:4;" d="M 359.121094 457.75 L 359.121094 464.5 L 352.371094 464.5 L 352.371094 457.75 L 359.121094 457.75 Z M 359.121094 457.75 " transform="matrix(1,0,0,-1,16,792)"/>
<path style="fill-rule:nonzero;fill:rgb(100%,100%,100%);fill-opacity:1;stroke-width:1.5;stroke-linecap:butt;stroke-linejoin:miter;stroke:rgb(13.730068%,12.159915%,12.54902%);stroke-opacity:1;stroke-miterlimit:4;" d="M 365.871094 457.75 L 365.871094 464.5 L 359.121094 464.5 L 359.121094 457.75 L 365.871094 457.75 Z M 365.871094 457.75 " transform="matrix(1,0,0,-1,16,792)"/>
<path style="fill-rule:nonzero;fill:rgb(100%,100%,100%);fill-opacity:1;stroke-width:1.5;stroke-linecap:butt;stroke-linejoin:miter;stroke:rgb(13.730068%,12.159915%,12.54902%);stroke-opacity:1;stroke-miterlimit:4;" d="M 372.621094 457.75 L 372.621094 464.5 L 365.871094 464.5 L 365.871094 457.75 L 372.621094 457.75 Z M 372.621094 457.75 " transform="matrix(1,0,0,-1,16,792)"/>
<path style="fill-rule:nonzero;fill:rgb(100%,100%,100%);fill-opacity:1;stroke-width:1.5;stroke-linecap:butt;stroke-linejoin:miter;stroke:rgb(13.730068%,12.159915%,12.54902%);stroke-opacity:1;stroke-miterlimit:4;" d="M 379.371094 457.75 L 379.371094 464.5 L 372.621094 464.5 L 372.621094 457.75 L 379.371094 457.75 Z M 379.371094 457.75 " transform="matrix(1,0,0,-1,16,792)"/>
<path style="fill-rule:nonzero;fill:rgb(100%,100%,100%);fill-opacity:1;stroke-width:1.5;stroke-linecap:butt;stroke-linejoin:miter;stroke:rgb(13.730068%,12.159915%,12.54902%);stroke-opacity:1;stroke-miterlimit:4;" d="M 345.621094 451 L 345.621094 457.75 L 338.871094 457.75 L 338.871094 451 L 345.621094 451 Z M 345.621094 451 " transform="matrix(1,0,0,-1,16,792)"/>
<path style="fill-rule:nonzero;fill:rgb(100%,100%,100%);fill-opacity:1;stroke-width:1.5;stroke-linecap:butt;stroke-linejoin:miter;stroke:rgb(13.730068%,12.159915%,12.54902%);stroke-opacity:1;stroke-miterlimit:4;" d="M 352.371094 451 L 352.371094 457.75 L 345.621094 457.75 L 345.621094 451 L 352.371094 451 Z M 352.371094 451 " transform="matrix(1,0,0,-1,16,792)"/>
<path style="fill-rule:nonzero;fill:rgb(100%,100%,100%);fill-opacity:1;stroke-width:1.5;stroke-linecap:butt;stroke-linejoin:miter;stroke:rgb(13.730068%,12.159915%,12.54902%);stroke-opacity:1;stroke-miterlimit:4;" d="M 359.121094 451 L 359.121094 457.75 L 352.371094 457.75 L 352.371094 451 L 359.121094 451 Z M 359.121094 451 " transform="matrix(1,0,0,-1,16,792)"/>
<path style="fill-rule:nonzero;fill:rgb(100%,100%,100%);fill-opacity:1;stroke-width:1.5;stroke-linecap:butt;stroke-linejoin:miter;stroke:rgb(13.730068%,12.159915%,12.54902%);stroke-opacity:1;stroke-miterlimit:4;" d="M 365.871094 451 L 365.871094 457.75 L 359.121094 457.75 L 359.121094 451 L 365.871094 451 Z M 365.871094 451 " transform="matrix(1,0,0,-1,16,792)"/>
<path style="fill-rule:nonzero;fill:rgb(100%,100%,100%);fill-opacity:1;stroke-width:1.5;stroke-linecap:butt;stroke-linejoin:miter;stroke:rgb(13.730068%,12.159915%,12.54902%);stroke-opacity:1;stroke-miterlimit:4;" d="M 372.621094 451 L 372.621094 457.75 L 365.871094 457.75 L 365.871094 451 L 372.621094 451 Z M 372.621094 451 " transform="matrix(1,0,0,-1,16,792)"/>
<path style="fill-rule:nonzero;fill:rgb(100%,100%,100%);fill-opacity:1;stroke-width:1.5;stroke-linecap:butt;stroke-linejoin:miter;stroke:rgb(13.730068%,12.159915%,12.54902%);stroke-opacity:1;stroke-miterlimit:4;" d="M 379.371094 451 L 379.371094 457.75 L 372.621094 457.75 L 372.621094 451 L 379.371094 451 Z M 379.371094 451 " transform="matrix(1,0,0,-1,16,792)"/>
<path style="fill-rule:nonzero;fill:rgb(100%,100%,100%);fill-opacity:1;stroke-width:1.5;stroke-linecap:butt;stroke-linejoin:miter;stroke:rgb(13.730068%,12.159915%,12.54902%);stroke-opacity:1;stroke-miterlimit:4;" d="M 345.621094 444.25 L 345.621094 451 L 338.871094 451 L 338.871094 444.25 L 345.621094 444.25 Z M 345.621094 444.25 " transform="matrix(1,0,0,-1,16,792)"/>
<path style="fill-rule:nonzero;fill:rgb(100%,100%,100%);fill-opacity:1;stroke-width:1.5;stroke-linecap:butt;stroke-linejoin:miter;stroke:rgb(13.730068%,12.159915%,12.54902%);stroke-opacity:1;stroke-miterlimit:4;" d="M 352.371094 444.25 L 352.371094 451 L 345.621094 451 L 345.621094 444.25 L 352.371094 444.25 Z M 352.371094 444.25 " transform="matrix(1,0,0,-1,16,792)"/>
<path style="fill-rule:nonzero;fill:rgb(100%,100%,100%);fill-opacity:1;stroke-width:1.5;stroke-linecap:butt;stroke-linejoin:miter;stroke:rgb(13.730068%,12.159915%,12.54902%);stroke-opacity:1;stroke-miterlimit:4;" d="M 359.121094 444.25 L 359.121094 451 L 352.371094 451 L 352.371094 444.25 L 359.121094 444.25 Z M 359.121094 444.25 " transform="matrix(1,0,0,-1,16,792)"/>
<path style="fill-rule:nonzero;fill:rgb(100%,100%,100%);fill-opacity:1;stroke-width:1.5;stroke-linecap:butt;stroke-linejoin:miter;stroke:rgb(13.730068%,12.159915%,12.54902%);stroke-opacity:1;stroke-miterlimit:4;" d="M 365.871094 444.25 L 365.871094 451 L 359.121094 451 L 359.121094 444.25 L 365.871094 444.25 Z M 365.871094 444.25 " transform="matrix(1,0,0,-1,16,792)"/>
<path style="fill-rule:nonzero;fill:rgb(100%,100%,100%);fill-opacity:1;stroke-width:1.5;stroke-linecap:butt;stroke-linejoin:miter;stroke:rgb(13.730068%,12.159915%,12.54902%);stroke-opacity:1;stroke-miterlimit:4;" d="M 372.621094 444.25 L 372.621094 451 L 365.871094 451 L 365.871094 444.25 L 372.621094 444.25 Z M 372.621094 444.25 " transform="matrix(1,0,0,-1,16,792)"/>
<path style="fill-rule:nonzero;fill:rgb(100%,100%,100%);fill-opacity:1;stroke-width:1.5;stroke-linecap:butt;stroke-linejoin:miter;stroke:rgb(13.730068%,12.159915%,12.54902%);stroke-opacity:1;stroke-miterlimit:4;" d="M 379.371094 444.25 L 379.371094 451 L 372.621094 451 L 372.621094 444.25 L 379.371094 444.25 Z M 379.371094 444.25 " transform="matrix(1,0,0,-1,16,792)"/>
<path style="fill-rule:nonzero;fill:rgb(100%,100%,100%);fill-opacity:1;stroke-width:1.5;stroke-linecap:butt;stroke-linejoin:miter;stroke:rgb(13.730068%,12.159915%,12.54902%);stroke-opacity:1;stroke-miterlimit:4;" d="M 345.621094 437.5 L 345.621094 444.25 L 338.871094 444.25 L 338.871094 437.5 L 345.621094 437.5 Z M 345.621094 437.5 " transform="matrix(1,0,0,-1,16,792)"/>
<path style="fill-rule:nonzero;fill:rgb(100%,100%,100%);fill-opacity:1;stroke-width:1.5;stroke-linecap:butt;stroke-linejoin:miter;stroke:rgb(13.730068%,12.159915%,12.54902%);stroke-opacity:1;stroke-miterlimit:4;" d="M 352.371094 437.5 L 352.371094 444.25 L 345.621094 444.25 L 345.621094 437.5 L 352.371094 437.5 Z M 352.371094 437.5 " transform="matrix(1,0,0,-1,16,792)"/>
<path style="fill-rule:nonzero;fill:rgb(100%,100%,100%);fill-opacity:1;stroke-width:1.5;stroke-linecap:butt;stroke-linejoin:miter;stroke:rgb(13.730068%,12.159915%,12.54902%);stroke-opacity:1;stroke-miterlimit:4;" d="M 359.121094 437.5 L 359.121094 444.25 L 352.371094 444.25 L 352.371094 437.5 L 359.121094 437.5 Z M 359.121094 437.5 " transform="matrix(1,0,0,-1,16,792)"/>
<path style="fill-rule:nonzero;fill:rgb(100%,100%,100%);fill-opacity:1;stroke-width:1.5;stroke-linecap:butt;stroke-linejoin:miter;stroke:rgb(13.730068%,12.159915%,12.54902%);stroke-opacity:1;stroke-miterlimit:4;" d="M 365.871094 437.5 L 365.871094 444.25 L 359.121094 444.25 L 359.121094 437.5 L 365.871094 437.5 Z M 365.871094 437.5 " transform="matrix(1,0,0,-1,16,792)"/>
<path style="fill-rule:nonzero;fill:rgb(100%,100%,100%);fill-opacity:1;stroke-width:1.5;stroke-linecap:butt;stroke-linejoin:miter;stroke:rgb(13.730068%,12.159915%,12.54902%);stroke-opacity:1;stroke-miterlimit:4;" d="M 372.621094 437.5 L 372.621094 444.25 L 365.871094 444.25 L 365.871094 437.5 L 372.621094 437.5 Z M 372.621094 437.5 " transform="matrix(1,0,0,-1,16,792)"/>
<path style="fill-rule:nonzero;fill:rgb(100%,100%,100%);fill-opacity:1;stroke-width:1.5;stroke-linecap:butt;stroke-linejoin:miter;stroke:rgb(13.730068%,12.159915%,12.54902%);stroke-opacity:1;stroke-miterlimit:4;" d="M 379.371094 437.5 L 379.371094 444.25 L 372.621094 444.25 L 372.621094 437.5 L 379.371094 437.5 Z M 379.371094 437.5 " transform="matrix(1,0,0,-1,16,792)"/>
<path style="fill-rule:nonzero;fill:rgb(100%,100%,100%);fill-opacity:1;stroke-width:1.5;stroke-linecap:butt;stroke-linejoin:miter;stroke:rgb(13.730068%,12.159915%,12.54902%);stroke-opacity:1;stroke-miterlimit:4;" d="M 345.621094 430.75 L 345.621094 437.5 L 338.871094 437.5 L 338.871094 430.75 L 345.621094 430.75 Z M 345.621094 430.75 " transform="matrix(1,0,0,-1,16,792)"/>
<path style="fill-rule:nonzero;fill:rgb(100%,100%,100%);fill-opacity:1;stroke-width:1.5;stroke-linecap:butt;stroke-linejoin:miter;stroke:rgb(13.730068%,12.159915%,12.54902%);stroke-opacity:1;stroke-miterlimit:4;" d="M 352.371094 430.75 L 352.371094 437.5 L 345.621094 437.5 L 345.621094 430.75 L 352.371094 430.75 Z M 352.371094 430.75 " transform="matrix(1,0,0,-1,16,792)"/>
<path style="fill-rule:nonzero;fill:rgb(100%,100%,100%);fill-opacity:1;stroke-width:1.5;stroke-linecap:butt;stroke-linejoin:miter;stroke:rgb(13.730068%,12.159915%,12.54902%);stroke-opacity:1;stroke-miterlimit:4;" d="M 359.121094 430.75 L 359.121094 437.5 L 352.371094 437.5 L 352.371094 430.75 L 359.121094 430.75 Z M 359.121094 430.75 " transform="matrix(1,0,0,-1,16,792)"/>
<path style="fill-rule:nonzero;fill:rgb(100%,100%,100%);fill-opacity:1;stroke-width:1.5;stroke-linecap:butt;stroke-linejoin:miter;stroke:rgb(13.730068%,12.159915%,12.54902%);stroke-opacity:1;stroke-miterlimit:4;" d="M 365.871094 430.75 L 365.871094 437.5 L 359.121094 437.5 L 359.121094 430.75 L 365.871094 430.75 Z M 365.871094 430.75 " transform="matrix(1,0,0,-1,16,792)"/>
<path style="fill-rule:nonzero;fill:rgb(100%,100%,100%);fill-opacity:1;stroke-width:1.5;stroke-linecap:butt;stroke-linejoin:miter;stroke:rgb(13.730068%,12.159915%,12.54902%);stroke-opacity:1;stroke-miterlimit:4;" d="M 372.621094 430.75 L 372.621094 437.5 L 365.871094 437.5 L 365.871094 430.75 L 372.621094 430.75 Z M 372.621094 430.75 " transform="matrix(1,0,0,-1,16,792)"/>
<path style="fill-rule:nonzero;fill:rgb(100%,100%,100%);fill-opacity:1;stroke-width:1.5;stroke-linecap:butt;stroke-linejoin:miter;stroke:rgb(13.730068%,12.159915%,12.54902%);stroke-opacity:1;stroke-miterlimit:4;" d="M 379.371094 430.75 L 379.371094 437.5 L 372.621094 437.5 L 372.621094 430.75 L 379.371094 430.75 Z M 379.371094 430.75 " transform="matrix(1,0,0,-1,16,792)"/>
<path style="fill-rule:nonzero;fill:rgb(100%,100%,100%);fill-opacity:1;stroke-width:1.5;stroke-linecap:butt;stroke-linejoin:miter;stroke:rgb(13.730068%,12.159915%,12.54902%);stroke-opacity:1;stroke-miterlimit:4;" d="M 345.621094 424 L 345.621094 430.75 L 338.871094 430.75 L 338.871094 424 L 345.621094 424 Z M 345.621094 424 " transform="matrix(1,0,0,-1,16,792)"/>
<path style="fill-rule:nonzero;fill:rgb(100%,100%,100%);fill-opacity:1;stroke-width:1.5;stroke-linecap:butt;stroke-linejoin:miter;stroke:rgb(13.730068%,12.159915%,12.54902%);stroke-opacity:1;stroke-miterlimit:4;" d="M 352.371094 424 L 352.371094 430.75 L 345.621094 430.75 L 345.621094 424 L 352.371094 424 Z M 352.371094 424 " transform="matrix(1,0,0,-1,16,792)"/>
<path style="fill-rule:nonzero;fill:rgb(100%,100%,100%);fill-opacity:1;stroke-width:1.5;stroke-linecap:butt;stroke-linejoin:miter;stroke:rgb(13.730068%,12.159915%,12.54902%);stroke-opacity:1;stroke-miterlimit:4;" d="M 359.121094 424 L 359.121094 430.75 L 352.371094 430.75 L 352.371094 424 L 359.121094 424 Z M 359.121094 424 " transform="matrix(1,0,0,-1,16,792)"/>
<path style="fill-rule:nonzero;fill:rgb(100%,100%,100%);fill-opacity:1;stroke-width:1.5;stroke-linecap:butt;stroke-linejoin:miter;stroke:rgb(13.730068%,12.159915%,12.54902%);stroke-opacity:1;stroke-miterlimit:4;" d="M 365.871094 424 L 365.871094 430.75 L 359.121094 430.75 L 359.121094 424 L 365.871094 424 Z M 365.871094 424 " transform="matrix(1,0,0,-1,16,792)"/>
<path style="fill-rule:nonzero;fill:rgb(100%,100%,100%);fill-opacity:1;stroke-width:1.5;stroke-linecap:butt;stroke-linejoin:miter;stroke:rgb(13.730068%,12.159915%,12.54902%);stroke-opacity:1;stroke-miterlimit:4;" d="M 372.621094 424 L 372.621094 430.75 L 365.871094 430.75 L 365.871094 424 L 372.621094 424 Z M 372.621094 424 " transform="matrix(1,0,0,-1,16,792)"/>
<path style="fill-rule:nonzero;fill:rgb(100%,100%,100%);fill-opacity:1;stroke-width:1.5;stroke-linecap:butt;stroke-linejoin:miter;stroke:rgb(13.730068%,12.159915%,12.54902%);stroke-opacity:1;stroke-miterlimit:4;" d="M 379.371094 424 L 379.371094 430.75 L 372.621094 430.75 L 372.621094 424 L 379.371094 424 Z M 379.371094 424 " transform="matrix(1,0,0,-1,16,792)"/>
<path style="fill-rule:nonzero;fill:rgb(100%,100%,100%);fill-opacity:1;stroke-width:1.5;stroke-linecap:butt;stroke-linejoin:miter;stroke:rgb(13.730068%,12.159915%,12.54902%);stroke-opacity:1;stroke-miterlimit:4;" d="M 352.371094 417.25 L 352.371094 424 L 345.621094 424 L 345.621094 417.25 L 352.371094 417.25 Z M 352.371094 417.25 " transform="matrix(1,0,0,-1,16,792)"/>
<path style="fill-rule:nonzero;fill:rgb(100%,100%,100%);fill-opacity:1;stroke-width:1.5;stroke-linecap:butt;stroke-linejoin:miter;stroke:rgb(13.730068%,12.159915%,12.54902%);stroke-opacity:1;stroke-miterlimit:4;" d="M 359.121094 417.25 L 359.121094 424 L 352.371094 424 L 352.371094 417.25 L 359.121094 417.25 Z M 359.121094 417.25 " transform="matrix(1,0,0,-1,16,792)"/>
<path style="fill-rule:nonzero;fill:rgb(100%,100%,100%);fill-opacity:1;stroke-width:1.5;stroke-linecap:butt;stroke-linejoin:miter;stroke:rgb(13.730068%,12.159915%,12.54902%);stroke-opacity:1;stroke-miterlimit:4;" d="M 365.871094 417.25 L 365.871094 424 L 359.121094 424 L 359.121094 417.25 L 365.871094 417.25 Z M 365.871094 417.25 " transform="matrix(1,0,0,-1,16,792)"/>
<path style="fill-rule:nonzero;fill:rgb(100%,100%,100%);fill-opacity:1;stroke-width:1.5;stroke-linecap:butt;stroke-linejoin:miter;stroke:rgb(13.730068%,12.159915%,12.54902%);stroke-opacity:1;stroke-miterlimit:4;" d="M 372.621094 417.25 L 372.621094 424 L 365.871094 424 L 365.871094 417.25 L 372.621094 417.25 Z M 372.621094 417.25 " transform="matrix(1,0,0,-1,16,792)"/>
<path style="fill-rule:nonzero;fill:rgb(100%,100%,100%);fill-opacity:1;stroke-width:1.5;stroke-linecap:butt;stroke-linejoin:miter;stroke:rgb(13.730068%,12.159915%,12.54902%);stroke-opacity:1;stroke-miterlimit:4;" d="M 359.121094 410.5 L 359.121094 417.25 L 352.371094 417.25 L 352.371094 410.5 L 359.121094 410.5 Z M 359.121094 410.5 " transform="matrix(1,0,0,-1,16,792)"/>
<path style="fill-rule:nonzero;fill:rgb(100%,100%,100%);fill-opacity:1;stroke-width:1.5;stroke-linecap:butt;stroke-linejoin:miter;stroke:rgb(13.730068%,12.159915%,12.54902%);stroke-opacity:1;stroke-miterlimit:4;" d="M 365.871094 410.5 L 365.871094 417.25 L 359.121094 417.25 L 359.121094 410.5 L 365.871094 410.5 Z M 365.871094 410.5 " transform="matrix(1,0,0,-1,16,792)"/>

</svg>