<svg xmlns="http://www.w3.org/2000/svg" xmlns:xlink="http://www.w3.org/1999/xlink" width="612pt" height="792pt" viewBox="0 0 612 792" version="1.1">

<!-- Heavy Burst Beam -->
<path style="fill-rule:nonzero;fill:rgb(100%,100%,100%);fill-opacity:1;stroke-width:0.75;stroke-linecap:butt;stroke-linejoin:miter;stroke:rgb(13.730068%,12.159915%,12.54902%);stroke-opacity:1;stroke-miterlimit:4;" d="M 168.75 290.25 L 168.75 319.5 L 175.5 319.5 L 175.5 342 L 180 337.5 L 180 335.25 L 182.25 335.25 L 182.25 333 L 180 333 L 180 330.75 L 182.25 330.75 L 182.25 328.5 L 180 328.5 L 180 326.25 L 182.25 326.25 L 182.25 324 L 180 324 L 180 319.5 L 186.75 319.5 L 186.75 324 L 184.5 324 L 184.5 326.25 L 186.75 326.25 L 186.75 328.5 L 184.5 328.5 L 184.5 330.75 L 186.75 330.75 L 186.75 333 L 184.5 333 L 184.5 335.25 L 186.75 335.25 L 186.75 337.5 L 191.25 342 L 191.25 319.5 L 198 319.5 L 198 290.25 L 168.75 290.25 Z M 168.75 290.25 " transform="matrix(1,0,0,-1,0,793)"/>

<!-- Damage Boxes -->
<path style="fill-rule:nonzero;fill:rgb(100%,100%,100%);fill-opacity:1;stroke-width:1.5;stroke-linecap:butt;stroke-linejoin:miter;stroke:rgb(13.730068%,12.159915%,12.54902%);stroke-opacity:1;stroke-miterlimit:4;" d="M 180 308.25 L 180 315 L 173.25 315 L 173.25 308.25 L 180 308.25 Z M 180 308.25 " transform="matrix(1,0,0,-1,0,793)"/>
<path style="fill-rule:nonzero;fill:rgb(100%,100%,100%);fill-opacity:1;stroke-width:1.5;stroke-linecap:butt;stroke-linejoin:miter;stroke:rgb(13.730068%,12.159915%,12.54902%);stroke-opacity:1;stroke-miterlimit:4;" d="M 186.75 308.25 L 186.75 315 L 180 315 L 180 308.25 L 186.75 308.25 Z M 186.75 308.25 " transform="matrix(1,0,0,-1,0,793)"/>
<path style="fill-rule:nonzero;fill:rgb(100%,100%,100%);fill-opacity:1;stroke-width:1.5;stroke-linecap:butt;stroke-linejoin:miter;stroke:rgb(13.730068%,12.159915%,12.54902%);stroke-opacity:1;stroke-miterlimit:4;" d="M 193.5 308.25 L 193.5 315 L 186.75 315 L 186.75 308.25 L 193.5 308.25 Z M 193.5 308.25 " transform="matrix(1,0,0,-1,0,793)"/>
<path style="fill-rule:nonzero;fill:rgb(100%,100%,100%);fill-opacity:1;stroke-width:1.5;stroke-linecap:butt;stroke-linejoin:miter;stroke:rgb(13.730068%,12.159915%,12.54902%);stroke-opacity:1;stroke-miterlimit:4;" d="M 180 301.5 L 180 308.25 L 173.25 308.25 L 173.25 301.5 L 180 301.5 Z M 180 301.5 " transform="matrix(1,0,0,-1,0,793)"/>
<path style="fill-rule:nonzero;fill:rgb(100%,100%,100%);fill-opacity:1;stroke-width:1.5;stroke-linecap:butt;stroke-linejoin:miter;stroke:rgb(13.730068%,12.159915%,12.54902%);stroke-opacity:1;stroke-miterlimit:4;" d="M 186.75 301.5 L 186.75 308.25 L 180 308.25 L 180 301.5 L 186.75 301.5 Z M 186.75 301.5 " transform="matrix(1,0,0,-1,0,793)"/>
<path style="fill-rule:nonzero;fill:rgb(100%,100%,100%);fill-opacity:1;stroke-width:1.5;stroke-linecap:butt;stroke-linejoin:miter;stroke:rgb(13.730068%,12.159915%,12.54902%);stroke-opacity:1;stroke-miterlimit:4;" d="M 193.5 301.5 L 193.5 308.25 L 186.75 308.25 L 186.75 301.5 L 193.5 301.5 Z M 193.5 301.5 " transform="matrix(1,0,0,-1,0,793)"/>
<path style="fill-rule:nonzero;fill:rgb(100%,100%,100%);fill-opacity:1;stroke-width:1.5;stroke-linecap:butt;stroke-linejoin:miter;stroke:rgb(13.730068%,12.159915%,12.54902%);stroke-opacity:1;stroke-miterlimit:4;" d="M 180 294.75 L 180 301.5 L 173.25 301.5 L 173.25 294.75 L 180 294.75 Z M 180 294.75 " transform="matrix(1,0,0,-1,0,793)"/>
<path style="fill-rule:nonzero;fill:rgb(100%,100%,100%);fill-opacity:1;stroke-width:1.5;stroke-linecap:butt;stroke-linejoin:miter;stroke:rgb(13.730068%,12.159915%,12.54902%);stroke-opacity:1;stroke-miterlimit:4;" d="M 186.75 294.75 L 186.75 301.5 L 180 301.5 L 180 294.75 L 186.75 294.75 Z M 186.75 294.75 " transform="matrix(1,0,0,-1,0,793)"/>
<path style="fill-rule:nonzero;fill:rgb(100%,100%,100%);fill-opacity:1;stroke-width:1.5;stroke-linecap:butt;stroke-linejoin:miter;stroke:rgb(13.730068%,12.159915%,12.54902%);stroke-opacity:1;stroke-miterlimit:4;" d="M 193.5 294.75 L 193.5 301.5 L 186.75 301.5 L 186.75 294.75 L 193.5 294.75 Z M 193.5 294.75 " transform="matrix(1,0,0,-1,0,793)"/>

</svg>