<svg xmlns="http://www.w3.org/2000/svg" xmlns:xlink="http://www.w3.org/1999/xlink" width="612pt" height="792pt" viewBox="0 0 612 792" version="1.1">

<!-- Heavy Laser/Pulse Array -->
<path style="fill-rule:nonzero;fill:rgb(100%,100%,100%);fill-opacity:1;stroke-width:0.75;stroke-linecap:butt;stroke-linejoin:miter;stroke:rgb(13.730068%,12.159915%,12.54902%);stroke-opacity:1;stroke-miterlimit:4;" d="M 220 537 L 220 572.5 L 224.5 572.5 L 224.5 579.25 C 224.5 579.25 222.25 579.25 222.25 581.5 C 222.25 583.75 224.5 583.75 224.5 583.75 C 224.5 583.75 222.25 583.75 222.25 586 C 222.25 588.25 224.5 588.25 224.5 588.25 C 224.5 588.25 222.25 588.25 222.25 590.5 C 222.25 592.75 224.5 592.75 224.5 592.75 L 226.75 597.25 L 229 592.75 C 229 592.75 231.25 592.75 231.25 590.5 C 231.25 588.25 229 588.25 229 588.25 C 229 588.25 231.25 588.25 231.25 586 C 231.25 583.75 229 583.75 229 583.75 C 229 583.75 231.25 583.75 231.25 581.5 C 231.25 579.25 229 579.25 229 579.25 L 229 572.5 L 240.25 572.5 L 240.25 577 L 235.75 577 L 235.75 581.5 L 240.25 581.5 L 240.25 583.75 L 235.75 583.75 L 235.75 588.25 L 240.25 588.25 L 240.25 590.5 L 235.75 590.5 L 235.75 595 L 240.25 595 L 242.5 599.5 L 244.75 595 L 249.25 595 L 249.25 590.5 L 244.75 590.5 L 244.75 588.25 L 249.25 588.25 L 249.25 583.75 L 244.75 583.75 L 244.75 583.75 L 244.75 581.5 L 249.25 581.5 L 249.25 577 L 244.75 577 L 244.75 572.5 L 249.25 572.5 L 249.25 537 L 220 537 Z M 220 537 " transform="matrix(1,0,0,-1,0,793)"/>

<!-- Damage Boxes -->
<path style="fill-rule:nonzero;fill:rgb(100%,100%,100%);fill-opacity:1;stroke-width:1.5;stroke-linecap:butt;stroke-linejoin:miter;stroke:rgb(13.730068%,12.159915%,12.54902%);stroke-opacity:1;stroke-miterlimit:4;" d="M 231.25 561.25 L 231.25 568 L 238 568 L 238 561.25 L 231.25 561.25 Z M 231.25 561.25 " transform="matrix(1,0,0,-1,0,793)"/>
<path style="fill-rule:nonzero;fill:rgb(100%,100%,100%);fill-opacity:1;stroke-width:1.5;stroke-linecap:butt;stroke-linejoin:miter;stroke:rgb(13.730068%,12.159915%,12.54902%);stroke-opacity:1;stroke-miterlimit:4;" d="M 224.5 554.5 L 224.5 561.25 L 231.25 561.25 L 231.25 554.5 L 224.5 554.5 Z M 224.5 554.5 " transform="matrix(1,0,0,-1,0,793)"/>
<path style="fill-rule:nonzero;fill:rgb(100%,100%,100%);fill-opacity:1;stroke-width:1.5;stroke-linecap:butt;stroke-linejoin:miter;stroke:rgb(13.730068%,12.159915%,12.54902%);stroke-opacity:1;stroke-miterlimit:4;" d="M 231.25 554.5 L 231.25 561.25 L 238 561.25 L 238 554.5 L 231.25 554.5 Z M 231.25 554.5 " transform="matrix(1,0,0,-1,0,793)"/>
<path style="fill-rule:nonzero;fill:rgb(100%,100%,100%);fill-opacity:1;stroke-width:1.5;stroke-linecap:butt;stroke-linejoin:miter;stroke:rgb(13.730068%,12.159915%,12.54902%);stroke-opacity:1;stroke-miterlimit:4;" d="M 238 554.5 L 238 561.25 L 244.75 561.25 L 244.75 554.5 L 238 554.5 Z M 238 554.5 " transform="matrix(1,0,0,-1,0,793)"/>
<path style="fill-rule:nonzero;fill:rgb(100%,100%,100%);fill-opacity:1;stroke-width:1.5;stroke-linecap:butt;stroke-linejoin:miter;stroke:rgb(13.730068%,12.159915%,12.54902%);stroke-opacity:1;stroke-miterlimit:4;" d="M 224.5 547.75 L 224.5 554.5 L 231.25 554.5 L 231.25 547.75 L 224.5 547.75 Z M 224.5 547.75 " transform="matrix(1,0,0,-1,0,793)"/>
<path style="fill-rule:nonzero;fill:rgb(100%,100%,100%);fill-opacity:1;stroke-width:1.5;stroke-linecap:butt;stroke-linejoin:miter;stroke:rgb(13.730068%,12.159915%,12.54902%);stroke-opacity:1;stroke-miterlimit:4;" d="M 231.25 547.75 L 231.25 554.5 L 238 554.5 L 238 547.75 L 231.25 547.75 Z M 231.25 547.75 " transform="matrix(1,0,0,-1,0,793)"/>
<path style="fill-rule:nonzero;fill:rgb(100%,100%,100%);fill-opacity:1;stroke-width:1.5;stroke-linecap:butt;stroke-linejoin:miter;stroke:rgb(13.730068%,12.159915%,12.54902%);stroke-opacity:1;stroke-miterlimit:4;" d="M 238 547.75 L 238 554.5 L 244.75 554.5 L 244.75 547.75 L 238 547.75 Z M 238 547.75 " transform="matrix(1,0,0,-1,0,793)"/>
<path style="fill-rule:nonzero;fill:rgb(100%,100%,100%);fill-opacity:1;stroke-width:1.5;stroke-linecap:butt;stroke-linejoin:miter;stroke:rgb(13.730068%,12.159915%,12.54902%);stroke-opacity:1;stroke-miterlimit:4;" d="M 224.5 541 L 224.5 547.75 L 231.25 547.75 L 231.25 541 L 224.5 541 Z M 224.5 541 " transform="matrix(1,0,0,-1,0,793)"/>
<path style="fill-rule:nonzero;fill:rgb(100%,100%,100%);fill-opacity:1;stroke-width:1.5;stroke-linecap:butt;stroke-linejoin:miter;stroke:rgb(13.730068%,12.159915%,12.54902%);stroke-opacity:1;stroke-miterlimit:4;" d="M 231.25 541 L 231.25 547.75 L 238 547.75 L 238 541 L 231.25 541 Z M 231.25 541 " transform="matrix(1,0,0,-1,0,793)"/>
<path style="fill-rule:nonzero;fill:rgb(100%,100%,100%);fill-opacity:1;stroke-width:1.5;stroke-linecap:butt;stroke-linejoin:miter;stroke:rgb(13.730068%,12.159915%,12.54902%);stroke-opacity:1;stroke-miterlimit:4;" d="M 238 541 L 238 547.75 L 244.75 547.75 L 244.75 541 L 238 541 Z M 238 541 " transform="matrix(1,0,0,-1,0,793)"/>

</svg>