<svg xmlns="http://www.w3.org/2000/svg" xmlns:xlink="http://www.w3.org/1999/xlink" width="612pt" height="792pt" viewBox="0 0 612 792" version="1.1">

<!-- Heavy Particle Cannon -->
<path style="fill-rule:nonzero;fill:rgb(100%,100%,100%);fill-opacity:1;stroke-width:0.75;stroke-linecap:butt;stroke-linejoin:miter;stroke:rgb(13.730068%,12.159915%,12.54902%);stroke-opacity:1;stroke-miterlimit:4;" d="M 346.651662 497.228225 L 346.651662 546.728225 L 357.901662 546.728225 L 351.151662 546.728225 L 351.151662 555.728225 L 355.651662 555.728225 L 355.651662 566.978225 L 364.651662 566.978225 L 364.651662 555.728225 L 369.151662 555.728225 L 369.151662 546.728225 L 362.401662 546.728225 L 373.651662 546.728225 L 373.651662 497.228225 L 346.651662 497.228225 Z M 346.651662 497.228225 " transform="matrix(1,0,0,-1,11.1999,807.4001)"/>

<!-- Damage Boxes -->
<path style="fill-rule:nonzero;fill:rgb(100%,100%,100%);fill-opacity:1;stroke-width:1.5;stroke-linecap:butt;stroke-linejoin:miter;stroke:rgb(13.730068%,12.159915%,12.54902%);stroke-opacity:1;stroke-miterlimit:4;" d="M 360.151662 535.478225 L 360.151662 542.228225 L 353.401662 542.228225 L 353.401662 535.478225 L 360.151662 535.478225 Z M 360.151662 535.478225 " transform="matrix(1,0,0,-1,11.1999,807.4001)"/>
<path style="fill-rule:nonzero;fill:rgb(100%,100%,100%);fill-opacity:1;stroke-width:1.5;stroke-linecap:butt;stroke-linejoin:miter;stroke:rgb(13.730068%,12.159915%,12.54902%);stroke-opacity:1;stroke-miterlimit:4;" d="M 366.901662 535.478225 L 366.901662 542.228225 L 360.151662 542.228225 L 360.151662 535.478225 L 366.901662 535.478225 Z M 366.901662 535.478225 " transform="matrix(1,0,0,-1,11.1999,807.4001)"/>
<path style="fill-rule:nonzero;fill:rgb(100%,100%,100%);fill-opacity:1;stroke-width:1.5;stroke-linecap:butt;stroke-linejoin:miter;stroke:rgb(13.730068%,12.159915%,12.54902%);stroke-opacity:1;stroke-miterlimit:4;" d="M 360.151662 528.728225 L 360.151662 535.478225 L 353.401662 535.478225 L 353.401662 528.728225 L 360.151662 528.728225 Z M 360.151662 528.728225 " transform="matrix(1,0,0,-1,11.1999,807.4001)"/>
<path style="fill-rule:nonzero;fill:rgb(100%,100%,100%);fill-opacity:1;stroke-width:1.5;stroke-linecap:butt;stroke-linejoin:miter;stroke:rgb(13.730068%,12.159915%,12.54902%);stroke-opacity:1;stroke-miterlimit:4;" d="M 366.901662 528.728225 L 366.901662 535.478225 L 360.151662 535.478225 L 360.151662 528.728225 L 366.901662 528.728225 Z M 366.901662 528.728225 " transform="matrix(1,0,0,-1,11.1999,807.4001)"/>
<path style="fill-rule:nonzero;fill:rgb(100%,100%,100%);fill-opacity:1;stroke-width:1.5;stroke-linecap:butt;stroke-linejoin:miter;stroke:rgb(13.730068%,12.159915%,12.54902%);stroke-opacity:1;stroke-miterlimit:4;" d="M 360.151662 521.978225 L 360.151662 528.728225 L 353.401662 528.728225 L 353.401662 521.978225 L 360.151662 521.978225 Z M 360.151662 521.978225 " transform="matrix(1,0,0,-1,11.1999,807.4001)"/>
<path style="fill-rule:nonzero;fill:rgb(100%,100%,100%);fill-opacity:1;stroke-width:1.5;stroke-linecap:butt;stroke-linejoin:miter;stroke:rgb(13.730068%,12.159915%,12.54902%);stroke-opacity:1;stroke-miterlimit:4;" d="M 366.901662 521.978225 L 366.901662 528.728225 L 360.151662 528.728225 L 360.151662 521.978225 L 366.901662 521.978225 Z M 366.901662 521.978225 " transform="matrix(1,0,0,-1,11.1999,807.4001)"/>
<path style="fill-rule:nonzero;fill:rgb(100%,100%,100%);fill-opacity:1;stroke-width:1.5;stroke-linecap:butt;stroke-linejoin:miter;stroke:rgb(13.730068%,12.159915%,12.54902%);stroke-opacity:1;stroke-miterlimit:4;" d="M 360.151662 515.228225 L 360.151662 521.978225 L 353.401662 521.978225 L 353.401662 515.228225 L 360.151662 515.228225 Z M 360.151662 515.228225 " transform="matrix(1,0,0,-1,11.1999,807.4001)"/>
<path style="fill-rule:nonzero;fill:rgb(100%,100%,100%);fill-opacity:1;stroke-width:1.5;stroke-linecap:butt;stroke-linejoin:miter;stroke:rgb(13.730068%,12.159915%,12.54902%);stroke-opacity:1;stroke-miterlimit:4;" d="M 366.901662 515.228225 L 366.901662 521.978225 L 360.151662 521.978225 L 360.151662 515.228225 L 366.901662 515.228225 Z M 366.901662 515.228225 " transform="matrix(1,0,0,-1,11.1999,807.4001)"/>
<path style="fill-rule:nonzero;fill:rgb(100%,100%,100%);fill-opacity:1;stroke-width:1.5;stroke-linecap:butt;stroke-linejoin:miter;stroke:rgb(13.730068%,12.159915%,12.54902%);stroke-opacity:1;stroke-miterlimit:4;" d="M 360.151662 508.478225 L 360.151662 515.228225 L 353.401662 515.228225 L 353.401662 508.478225 L 360.151662 508.478225 Z M 360.151662 508.478225 " transform="matrix(1,0,0,-1,11.1999,807.4001)"/>
<path style="fill-rule:nonzero;fill:rgb(100%,100%,100%);fill-opacity:1;stroke-width:1.5;stroke-linecap:butt;stroke-linejoin:miter;stroke:rgb(13.730068%,12.159915%,12.54902%);stroke-opacity:1;stroke-miterlimit:4;" d="M 366.901662 508.478225 L 366.901662 515.228225 L 360.151662 515.228225 L 360.151662 508.478225 L 366.901662 508.478225 Z M 366.901662 508.478225 " transform="matrix(1,0,0,-1,11.1999,807.4001)"/>
<path style="fill-rule:nonzero;fill:rgb(100%,100%,100%);fill-opacity:1;stroke-width:1.5;stroke-linecap:butt;stroke-linejoin:miter;stroke:rgb(13.730068%,12.159915%,12.54902%);stroke-opacity:1;stroke-miterlimit:4;" d="M 360.151662 501.728225 L 360.151662 508.478225 L 353.401662 508.478225 L 353.401662 501.728225 L 360.151662 501.728225 Z M 360.151662 501.728225 " transform="matrix(1,0,0,-1,11.1999,807.4001)"/>
<path style="fill-rule:nonzero;fill:rgb(100%,100%,100%);fill-opacity:1;stroke-width:1.5;stroke-linecap:butt;stroke-linejoin:miter;stroke:rgb(13.730068%,12.159915%,12.54902%);stroke-opacity:1;stroke-miterlimit:4;" d="M 366.901662 501.728225 L 366.901662 508.478225 L 360.151662 508.478225 L 360.151662 501.728225 L 366.901662 501.728225 Z M 366.901662 501.728225 " transform="matrix(1,0,0,-1,11.1999,807.4001)"/>

</svg>