<svg xmlns="http://www.w3.org/2000/svg" xmlns:xlink="http://www.w3.org/1999/xlink" width="612pt" height="792pt" viewBox="0 0 612 792" version="1.1">

<!-- Heavy Particle Beam -->
<path style="fill-rule:nonzero;fill:rgb(100%,100%,100%);fill-opacity:1;stroke-width:0.75;stroke-linecap:butt;stroke-linejoin:miter;stroke:rgb(13.730068%,12.159915%,12.54902%);stroke-opacity:1;stroke-miterlimit:4;" d="M 417.683594 556.390625 L 423.753906 556.390625 L 419.980469 556.390625 L 419.980469 561.046875 L 422.230469 561.046875 L 422.230469 566.96875 L 433.230469 566.96875 L 433.230469 561.046875 L 435.480469 561.046875 L 435.480469 556.390625 L 432.503906 556.390625 L 437.480469 556.390625 L 437.480469 529.714844 L 417.683594 529.714844 L 417.683594 556.390625 Z M 417.683594 556.390625 " transform="matrix(1,0,0,-1,0,792)"/>

<!-- Damage Boxes -->
<path style="fill-rule:nonzero;fill:rgb(100%,100%,100%);fill-opacity:1;stroke-width:1.5;stroke-linecap:butt;stroke-linejoin:miter;stroke:rgb(13.730068%,12.159915%,12.54902%);stroke-opacity:1;stroke-miterlimit:4;" d="M 427.730469 552.996094 L 420.980469 552.996094 L 420.980469 546.246094 L 427.730469 546.246094 L 427.730469 552.996094 Z M 427.730469 552.996094 " transform="matrix(1,0,0,-1,0,792)"/>
<path style="fill-rule:nonzero;fill:rgb(100%,100%,100%);fill-opacity:1;stroke-width:1.5;stroke-linecap:butt;stroke-linejoin:miter;stroke:rgb(13.730068%,12.159915%,12.54902%);stroke-opacity:1;stroke-miterlimit:4;" d="M 434.480469 552.996094 L 427.730469 552.996094 L 427.730469 546.246094 L 434.480469 546.246094 L 434.480469 552.996094 Z M 434.480469 552.996094 " transform="matrix(1,0,0,-1,0,792)"/>
<path style="fill-rule:nonzero;fill:rgb(100%,100%,100%);fill-opacity:1;stroke-width:1.5;stroke-linecap:butt;stroke-linejoin:miter;stroke:rgb(13.730068%,12.159915%,12.54902%);stroke-opacity:1;stroke-miterlimit:4;" d="M 427.730469 546.246094 L 420.980469 546.246094 L 420.980469 539.496094 L 427.730469 539.496094 L 427.730469 546.246094 Z M 427.730469 546.246094 " transform="matrix(1,0,0,-1,0,792)"/>
<path style="fill-rule:nonzero;fill:rgb(100%,100%,100%);fill-opacity:1;stroke-width:1.5;stroke-linecap:butt;stroke-linejoin:miter;stroke:rgb(13.730068%,12.159915%,12.54902%);stroke-opacity:1;stroke-miterlimit:4;" d="M 434.480469 546.246094 L 427.730469 546.246094 L 427.730469 539.496094 L 434.480469 539.496094 L 434.480469 546.246094 Z M 434.480469 546.246094 " transform="matrix(1,0,0,-1,0,792)"/>
<path style="fill-rule:nonzero;fill:rgb(100%,100%,100%);fill-opacity:1;stroke-width:1.5;stroke-linecap:butt;stroke-linejoin:miter;stroke:rgb(13.730068%,12.159915%,12.54902%);stroke-opacity:1;stroke-miterlimit:4;" d="M 427.730469 539.496094 L 420.980469 539.496094 L 420.980469 532.746094 L 427.730469 532.746094 L 427.730469 539.496094 Z M 427.730469 539.496094 " transform="matrix(1,0,0,-1,0,792)"/>
<path style="fill-rule:nonzero;fill:rgb(100%,100%,100%);fill-opacity:1;stroke-width:1.5;stroke-linecap:butt;stroke-linejoin:miter;stroke:rgb(13.730068%,12.159915%,12.54902%);stroke-opacity:1;stroke-miterlimit:4;" d="M 434.480469 539.496094 L 427.730469 539.496094 L 427.730469 532.746094 L 434.480469 532.746094 L 434.480469 539.496094 Z M 434.480469 539.496094 " transform="matrix(1,0,0,-1,0,792)"/>

</svg>