<svg xmlns="http://www.w3.org/2000/svg" xmlns:xlink="http://www.w3.org/1999/xlink" width="612pt" height="792pt" viewBox="0 0 612 792" version="1.1">

<!-- Heavy Array -->
<path style="fill-rule:nonzero;fill:rgb(100%,100%,100%);fill-opacity:1;stroke-width:0.75;stroke-linecap:butt;stroke-linejoin:miter;stroke:rgb(13.730068%,12.159915%,12.54902%);stroke-opacity:1;stroke-miterlimit:4;" d="M 265.5 483.75 L 265.5 506.25 L 269.5 506.25 L 267.25 506.25 L 267.25 510.75 L 269.5 510.75 L 269.5 517.5 L 281.25 517.5 L 281.25 510.75 L 283.5 510.75 L 283.5 506.25 L 281.25 506.25 L 285.75 506.25 L 283.5 506.25 L 283.5 510.75 L 285.75 510.75 L 285.75 517.5 L 296.5 517.5 L 296.5 510.75 L 298.75 510.75 L 298.75 506.25 L 296.5 506.25 L 301.5 506.25 L 301.5 483.75 L 265.5 483.75 Z M 265.5 483.75 " transform="matrix(1,0,0,-1,0,793)"/>

<!-- Damage Boxes -->
<path style="fill-rule:nonzero;fill:rgb(100%,100%,100%);fill-opacity:1;stroke-width:1.5;stroke-linecap:butt;stroke-linejoin:miter;stroke:rgb(13.730068%,12.159915%,12.54902%);stroke-opacity:1;stroke-miterlimit:4;" d="M 276.75 494.5 L 276.75 501.25 L 270 501.25 L 270 494.5 L 276.75 494.5 Z M 276.75 494.5 " transform="matrix(1,0,0,-1,0,793)"/>
<path style="fill-rule:nonzero;fill:rgb(100%,100%,100%);fill-opacity:1;stroke-width:1.5;stroke-linecap:butt;stroke-linejoin:miter;stroke:rgb(13.730068%,12.159915%,12.54902%);stroke-opacity:1;stroke-miterlimit:4;" d="M 283.5 494.5 L 283.5 501.25 L 276.75 501.25 L 276.75 494.5 L 283.5 494.5 Z M 283.5 494.5 " transform="matrix(1,0,0,-1,0,793)"/>
<path style="fill-rule:nonzero;fill:rgb(100%,100%,100%);fill-opacity:1;stroke-width:1.5;stroke-linecap:butt;stroke-linejoin:miter;stroke:rgb(13.730068%,12.159915%,12.54902%);stroke-opacity:1;stroke-miterlimit:4;" d="M 290.25 494.5 L 290.25 501.25 L 283.5 501.25 L 283.5 494.5 L 290.25 494.5 Z M 290.25 494.5 " transform="matrix(1,0,0,-1,0,793)"/>
<path style="fill-rule:nonzero;fill:rgb(100%,100%,100%);fill-opacity:1;stroke-width:1.5;stroke-linecap:butt;stroke-linejoin:miter;stroke:rgb(13.730068%,12.159915%,12.54902%);stroke-opacity:1;stroke-miterlimit:4;" d="M 297 494.5 L 297 501.25 L 290.25 501.25 L 290.25 494.5 L 297 494.5 Z M 297 494.5 " transform="matrix(1,0,0,-1,0,793)"/>
<path style="fill-rule:nonzero;fill:rgb(100%,100%,100%);fill-opacity:1;stroke-width:1.5;stroke-linecap:butt;stroke-linejoin:miter;stroke:rgb(13.730068%,12.159915%,12.54902%);stroke-opacity:1;stroke-miterlimit:4;" d="M 276.75 487.75 L 276.75 494.5 L 270 494.5 L 270 487.75 L 276.75 487.75 Z M 276.75 487.75 " transform="matrix(1,0,0,-1,0,793)"/>
<path style="fill-rule:nonzero;fill:rgb(100%,100%,100%);fill-opacity:1;stroke-width:1.5;stroke-linecap:butt;stroke-linejoin:miter;stroke:rgb(13.730068%,12.159915%,12.54902%);stroke-opacity:1;stroke-miterlimit:4;" d="M 283.5 487.75 L 283.5 494.5 L 276.75 494.5 L 276.75 487.75 L 283.5 487.75 Z M 283.5 487.75 " transform="matrix(1,0,0,-1,0,793)"/>
<path style="fill-rule:nonzero;fill:rgb(100%,100%,100%);fill-opacity:1;stroke-width:1.5;stroke-linecap:butt;stroke-linejoin:miter;stroke:rgb(13.730068%,12.159915%,12.54902%);stroke-opacity:1;stroke-miterlimit:4;" d="M 290.25 487.75 L 290.25 494.5 L 283.5 494.5 L 283.5 487.75 L 290.25 487.75 Z M 290.25 487.75 " transform="matrix(1,0,0,-1,0,793)"/>
<path style="fill-rule:nonzero;fill:rgb(100%,100%,100%);fill-opacity:1;stroke-width:1.5;stroke-linecap:butt;stroke-linejoin:miter;stroke:rgb(13.730068%,12.159915%,12.54902%);stroke-opacity:1;stroke-miterlimit:4;" d="M 297 487.75 L 297 494.5 L 290.25 494.5 L 290.25 487.75 L 297 487.75 Z M 297 487.75 " transform="matrix(1,0,0,-1,0,793)"/>

</svg>