<svg xmlns="http://www.w3.org/2000/svg" xmlns:xlink="http://www.w3.org/1999/xlink" width="612pt" height="792pt" viewBox="0 0 612 792" version="1.1">

<!-- Heavy Plasma Bolter -->
<path style="fill-rule:nonzero;fill:rgb(100%,100%,100%);fill-opacity:1;stroke-width:0.75;stroke-linecap:butt;stroke-linejoin:miter;stroke:rgb(13.730068%,12.159915%,12.54902%);stroke-opacity:1;stroke-miterlimit:4;" d="M 147.875 427.949219 C 151.042969 427.949219 153.613281 425.378906 153.613281 422.207031 C 153.613281 419.035156 151.042969 416.464844 147.875 416.464844 C 144.703125 416.464844 142.132812 419.035156 142.132812 422.207031 C 142.132812 425.378906 144.703125 427.949219 147.875 427.949219 Z M 147.875 427.949219 " transform="matrix(1,0,0,-1,0,791)"/>
<path style="fill-rule:nonzero;fill:rgb(100%,100%,100%);fill-opacity:1;stroke-width:0.75;stroke-linecap:butt;stroke-linejoin:miter;stroke:rgb(13.730068%,12.159915%,12.54902%);stroke-opacity:1;stroke-miterlimit:4;" d="M 129.875 381.761719 L 129.875 412.199219 L 134.375 407.699219 L 136.625 416.699219 L 138.875 407.699219 L 141.457031 418.949219 L 143.375 412.199219 L 147.875 427.949219 L 152.375 412.199219 L 154.625 418.949219 L 156.875 407.699219 L 159.125 416.699219 L 161.375 407.699219 L 165.875 412.199219 L 165.875 381.761719 L 129.875 381.761719 Z M 129.875 381.761719 " transform="matrix(1,0,0,-1,0,791)"/>

<!-- Damage Boxes -->
<path style="fill-rule:nonzero;fill:rgb(100%,100%,100%);fill-opacity:1;stroke-width:1.5;stroke-linecap:butt;stroke-linejoin:miter;stroke:rgb(13.730068%,12.159915%,12.54902%);stroke-opacity:1;stroke-miterlimit:4;" d="M 141.25 401.257812 L 141.25 408.007812 L 148 408.007812 L 148 401.257812 L 141.25 401.257812 Z M 141.25 401.257812 " transform="matrix(1,0,0,-1,0,791)"/>
<path style="fill-rule:nonzero;fill:rgb(100%,100%,100%);fill-opacity:1;stroke-width:1.5;stroke-linecap:butt;stroke-linejoin:miter;stroke:rgb(13.730068%,12.159915%,12.54902%);stroke-opacity:1;stroke-miterlimit:4;" d="M 148 401.257812 L 148 408.007812 L 154.75 408.007812 L 154.75 401.257812 L 148 401.257812 Z M 148 401.257812 " transform="matrix(1,0,0,-1,0,791)"/>
<path style="fill-rule:nonzero;fill:rgb(100%,100%,100%);fill-opacity:1;stroke-width:1.5;stroke-linecap:butt;stroke-linejoin:miter;stroke:rgb(13.730068%,12.159915%,12.54902%);stroke-opacity:1;stroke-miterlimit:4;" d="M 134.5 394.507812 L 134.5 401.257812 L 141.25 401.257812 L 141.25 394.507812 L 134.5 394.507812 Z M 134.5 394.507812 " transform="matrix(1,0,0,-1,0,791)"/>
<path style="fill-rule:nonzero;fill:rgb(100%,100%,100%);fill-opacity:1;stroke-width:1.5;stroke-linecap:butt;stroke-linejoin:miter;stroke:rgb(13.730068%,12.159915%,12.54902%);stroke-opacity:1;stroke-miterlimit:4;" d="M 141.25 394.507812 L 141.25 401.257812 L 148 401.257812 L 148 394.507812 L 141.25 394.507812 Z M 141.25 394.507812 " transform="matrix(1,0,0,-1,0,791)"/>
<path style="fill-rule:nonzero;fill:rgb(100%,100%,100%);fill-opacity:1;stroke-width:1.5;stroke-linecap:butt;stroke-linejoin:miter;stroke:rgb(13.730068%,12.159915%,12.54902%);stroke-opacity:1;stroke-miterlimit:4;" d="M 148 394.507812 L 148 401.257812 L 154.75 401.257812 L 154.75 394.507812 L 148 394.507812 Z M 148 394.507812 " transform="matrix(1,0,0,-1,0,791)"/>
<path style="fill-rule:nonzero;fill:rgb(100%,100%,100%);fill-opacity:1;stroke-width:1.5;stroke-linecap:butt;stroke-linejoin:miter;stroke:rgb(13.730068%,12.159915%,12.54902%);stroke-opacity:1;stroke-miterlimit:4;" d="M 154.75 394.507812 L 154.75 401.257812 L 161.5 401.257812 L 161.5 394.507812 L 154.75 394.507812 Z M 154.75 394.507812 " transform="matrix(1,0,0,-1,0,791)"/>
<path style="fill-rule:nonzero;fill:rgb(100%,100%,100%);fill-opacity:1;stroke-width:1.5;stroke-linecap:butt;stroke-linejoin:miter;stroke:rgb(13.730068%,12.159915%,12.54902%);stroke-opacity:1;stroke-miterlimit:4;" d="M 134.5 387.757812 L 134.5 394.507812 L 141.25 394.507812 L 141.25 387.757812 L 134.5 387.757812 Z M 134.5 387.757812 " transform="matrix(1,0,0,-1,0,791)"/>
<path style="fill-rule:nonzero;fill:rgb(100%,100%,100%);fill-opacity:1;stroke-width:1.5;stroke-linecap:butt;stroke-linejoin:miter;stroke:rgb(13.730068%,12.159915%,12.54902%);stroke-opacity:1;stroke-miterlimit:4;" d="M 141.25 387.757812 L 141.25 394.507812 L 148 394.507812 L 148 387.757812 L 141.25 387.757812 Z M 141.25 387.757812 " transform="matrix(1,0,0,-1,0,791)"/>
<path style="fill-rule:nonzero;fill:rgb(100%,100%,100%);fill-opacity:1;stroke-width:1.5;stroke-linecap:butt;stroke-linejoin:miter;stroke:rgb(13.730068%,12.159915%,12.54902%);stroke-opacity:1;stroke-miterlimit:4;" d="M 148 387.757812 L 148 394.507812 L 154.75 394.507812 L 154.75 387.757812 L 148 387.757812 Z M 148 387.757812 " transform="matrix(1,0,0,-1,0,791)"/>
<path style="fill-rule:nonzero;fill:rgb(100%,100%,100%);fill-opacity:1;stroke-width:1.5;stroke-linecap:butt;stroke-linejoin:miter;stroke:rgb(13.730068%,12.159915%,12.54902%);stroke-opacity:1;stroke-miterlimit:4;" d="M 154.75 387.757812 L 154.75 394.507812 L 161.5 394.507812 L 161.5 387.757812 L 154.75 387.757812 Z M 154.75 387.757812 " transform="matrix(1,0,0,-1,0,791)"/>

</svg>