<svg xmlns="http://www.w3.org/2000/svg" xmlns:xlink="http://www.w3.org/1999/xlink" width="612pt" height="792pt" viewBox="0 0 612 792" version="1.1">

<!-- Heavy Phasing Pulse Cannon -->
<path style="fill-rule:nonzero;fill:rgb(100%,100%,100%);fill-opacity:1;stroke-width:0.75;stroke-linecap:butt;stroke-linejoin:miter;stroke:rgb(13.730068%,12.159915%,12.54902%);stroke-opacity:1;stroke-miterlimit:4;" d="M 261 477 L 276.75 477 L 276.75 506.25 L 267.75 506.25 L 263.25 513 L 267.75 510.75 L 263.25 519.75 L 267.75 517.5 L 263.25 526.5 L 267.75 524.25 L 261 537.75 L 254.25 524.25 L 258.75 526.5 L 254.25 517.5 L 258.75 519.75 L 254.25 510.75 L 258.75 513 L 254.25 506.25 L 245.25 506.25 L 245.25 477 L 261 477 Z M 261 477 " transform="matrix(1,0,0,-1,0,793)"/>

<!-- Damage Boxes -->
<path style="fill-rule:nonzero;fill:rgb(100%,100%,100%);fill-opacity:1;stroke-width:1.5;stroke-linecap:butt;stroke-linejoin:miter;stroke:rgb(13.730068%,12.159915%,12.54902%);stroke-opacity:1;stroke-miterlimit:4;" d="M 257.625 495 L 257.625 501.75 L 250.875 501.75 L 250.875 495 L 257.625 495 Z M 257.625 495 " transform="matrix(1,0,0,-1,0,793)"/>
<path style="fill-rule:nonzero;fill:rgb(100%,100%,100%);fill-opacity:1;stroke-width:1.5;stroke-linecap:butt;stroke-linejoin:miter;stroke:rgb(13.730068%,12.159915%,12.54902%);stroke-opacity:1;stroke-miterlimit:4;" d="M 264.375 495 L 264.375 501.75 L 257.625 501.75 L 257.625 495 L 264.375 495 Z M 264.375 495 " transform="matrix(1,0,0,-1,0,793)"/>
<path style="fill-rule:nonzero;fill:rgb(100%,100%,100%);fill-opacity:1;stroke-width:1.5;stroke-linecap:butt;stroke-linejoin:miter;stroke:rgb(13.730068%,12.159915%,12.54902%);stroke-opacity:1;stroke-miterlimit:4;" d="M 271.125 495 L 271.125 501.75 L 264.375 501.75 L 264.375 495 L 271.125 495 Z M 271.125 495 " transform="matrix(1,0,0,-1,0,793)"/>
<path style="fill-rule:nonzero;fill:rgb(100%,100%,100%);fill-opacity:1;stroke-width:1.5;stroke-linecap:butt;stroke-linejoin:miter;stroke:rgb(13.730068%,12.159915%,12.54902%);stroke-opacity:1;stroke-miterlimit:4;" d="M 257.625 488.25 L 257.625 495 L 250.875 495 L 250.875 488.25 L 257.625 488.25 Z M 257.625 488.25 " transform="matrix(1,0,0,-1,0,793)"/>
<path style="fill-rule:nonzero;fill:rgb(100%,100%,100%);fill-opacity:1;stroke-width:1.5;stroke-linecap:butt;stroke-linejoin:miter;stroke:rgb(13.730068%,12.159915%,12.54902%);stroke-opacity:1;stroke-miterlimit:4;" d="M 264.375 488.25 L 264.375 495 L 257.625 495 L 257.625 488.25 L 264.375 488.25 Z M 264.375 488.25 " transform="matrix(1,0,0,-1,0,793)"/>
<path style="fill-rule:nonzero;fill:rgb(100%,100%,100%);fill-opacity:1;stroke-width:1.5;stroke-linecap:butt;stroke-linejoin:miter;stroke:rgb(13.730068%,12.159915%,12.54902%);stroke-opacity:1;stroke-miterlimit:4;" d="M 271.125 488.25 L 271.125 495 L 264.375 495 L 264.375 488.25 L 271.125 488.25 Z M 271.125 488.25 " transform="matrix(1,0,0,-1,0,793)"/>
<path style="fill-rule:nonzero;fill:rgb(100%,100%,100%);fill-opacity:1;stroke-width:1.5;stroke-linecap:butt;stroke-linejoin:miter;stroke:rgb(13.730068%,12.159915%,12.54902%);stroke-opacity:1;stroke-miterlimit:4;" d="M 257.625 481.5 L 257.625 488.25 L 250.875 488.25 L 250.875 481.5 L 257.625 481.5 Z M 257.625 481.5 " transform="matrix(1,0,0,-1,0,793)"/>
<path style="fill-rule:nonzero;fill:rgb(100%,100%,100%);fill-opacity:1;stroke-width:1.5;stroke-linecap:butt;stroke-linejoin:miter;stroke:rgb(13.730068%,12.159915%,12.54902%);stroke-opacity:1;stroke-miterlimit:4;" d="M 264.375 481.5 L 264.375 488.25 L 257.625 488.25 L 257.625 481.5 L 264.375 481.5 Z M 264.375 481.5 " transform="matrix(1,0,0,-1,0,793)"/>
<path style="fill-rule:nonzero;fill:rgb(100%,100%,100%);fill-opacity:1;stroke-width:1.5;stroke-linecap:butt;stroke-linejoin:miter;stroke:rgb(13.730068%,12.159915%,12.54902%);stroke-opacity:1;stroke-miterlimit:4;" d="M 271.125 481.5 L 271.125 488.25 L 264.375 488.25 L 264.375 481.5 L 271.125 481.5 Z M 271.125 481.5 " transform="matrix(1,0,0,-1,0,793)"/>

</svg>