<svg xmlns="http://www.w3.org/2000/svg" xmlns:xlink="http://www.w3.org/1999/xlink" width="612pt" height="792pt" viewBox="0 0 612 792" version="1.1">

<!-- Heavy Laser Cannon -->
<path style="fill-rule:nonzero;fill:rgb(100%,100%,100%);fill-opacity:1;stroke-width:0.75;stroke-linecap:butt;stroke-linejoin:miter;stroke:rgb(13.730068%,12.159915%,12.54902%);stroke-opacity:1;stroke-miterlimit:4;" d="M 194.613281 373.5 L 194.613281 409.5 L 187.863281 409.5 L 187.863281 414 L 192.363281 414 L 192.363281 416.25 L 187.863281 416.25 L 187.863281 418.5 L 192.363281 418.5 L 192.363281 420.75 L 187.863281 420.75 L 187.863281 423 L 192.363281 423 L 192.363281 425.25 L 187.863281 425.25 L 183.363281 429.75 L 178.863281 425.25 L 174.363281 425.25 L 174.363281 423 L 178.863281 423 L 178.863281 420.75 L 174.363281 420.75 L 174.363281 418.5 L 178.863281 418.5 L 178.863281 416.25 L 174.363281 416.25 L 174.363281 414 L 178.863281 414 L 178.863281 409.5 L 172.113281 409.5 L 172.113281 373.5 L 194.613281 373.5 Z M 194.613281 373.5 " transform="matrix(1,0,0,-1,0,793)"/>

<!-- Damage Boxes -->
<path style="fill-rule:nonzero;fill:rgb(100%,100%,100%);fill-opacity:1;stroke-width:1.5;stroke-linecap:butt;stroke-linejoin:miter;stroke:rgb(13.730068%,12.159915%,12.54902%);stroke-opacity:1;stroke-miterlimit:4;" d="M 183.363281 398.25 L 183.363281 405 L 176.613281 405 L 176.613281 398.25 L 183.363281 398.25 Z M 183.363281 398.25 " transform="matrix(1,0,0,-1,0,793)"/>
<path style="fill-rule:nonzero;fill:rgb(100%,100%,100%);fill-opacity:1;stroke-width:1.5;stroke-linecap:butt;stroke-linejoin:miter;stroke:rgb(13.730068%,12.159915%,12.54902%);stroke-opacity:1;stroke-miterlimit:4;" d="M 190.113281 398.25 L 190.113281 405 L 183.363281 405 L 183.363281 398.25 L 190.113281 398.25 Z M 190.113281 398.25 " transform="matrix(1,0,0,-1,0,793)"/>
<path style="fill-rule:nonzero;fill:rgb(100%,100%,100%);fill-opacity:1;stroke-width:1.5;stroke-linecap:butt;stroke-linejoin:miter;stroke:rgb(13.730068%,12.159915%,12.54902%);stroke-opacity:1;stroke-miterlimit:4;" d="M 183.363281 391.5 L 183.363281 398.25 L 176.613281 398.25 L 176.613281 391.5 L 183.363281 391.5 Z M 183.363281 391.5 " transform="matrix(1,0,0,-1,0,793)"/>
<path style="fill-rule:nonzero;fill:rgb(100%,100%,100%);fill-opacity:1;stroke-width:1.5;stroke-linecap:butt;stroke-linejoin:miter;stroke:rgb(13.730068%,12.159915%,12.54902%);stroke-opacity:1;stroke-miterlimit:4;" d="M 190.113281 391.5 L 190.113281 398.25 L 183.363281 398.25 L 183.363281 391.5 L 190.113281 391.5 Z M 190.113281 391.5 " transform="matrix(1,0,0,-1,0,793)"/>
<path style="fill-rule:nonzero;fill:rgb(100%,100%,100%);fill-opacity:1;stroke-width:1.5;stroke-linecap:butt;stroke-linejoin:miter;stroke:rgb(13.730068%,12.159915%,12.54902%);stroke-opacity:1;stroke-miterlimit:4;" d="M 183.363281 384.75 L 183.363281 391.5 L 176.613281 391.5 L 176.613281 384.75 L 183.363281 384.75 Z M 183.363281 384.75 " transform="matrix(1,0,0,-1,0,793)"/>
<path style="fill-rule:nonzero;fill:rgb(100%,100%,100%);fill-opacity:1;stroke-width:1.5;stroke-linecap:butt;stroke-linejoin:miter;stroke:rgb(13.730068%,12.159915%,12.54902%);stroke-opacity:1;stroke-miterlimit:4;" d="M 190.113281 384.75 L 190.113281 391.5 L 183.363281 391.5 L 183.363281 384.75 L 190.113281 384.75 Z M 190.113281 384.75 " transform="matrix(1,0,0,-1,0,793)"/>
<path style="fill-rule:nonzero;fill:rgb(100%,100%,100%);fill-opacity:1;stroke-width:1.5;stroke-linecap:butt;stroke-linejoin:miter;stroke:rgb(13.730068%,12.159915%,12.54902%);stroke-opacity:1;stroke-miterlimit:4;" d="M 183.363281 378 L 183.363281 384.75 L 176.613281 384.75 L 176.613281 378 L 183.363281 378 Z M 183.363281 378 " transform="matrix(1,0,0,-1,0,793)"/>
<path style="fill-rule:nonzero;fill:rgb(100%,100%,100%);fill-opacity:1;stroke-width:1.5;stroke-linecap:butt;stroke-linejoin:miter;stroke:rgb(13.730068%,12.159915%,12.54902%);stroke-opacity:1;stroke-miterlimit:4;" d="M 190.113281 378 L 190.113281 384.75 L 183.363281 384.75 L 183.363281 378 L 190.113281 378 Z M 190.113281 378 " transform="matrix(1,0,0,-1,0,793)"/>

</svg>