<svg xmlns="http://www.w3.org/2000/svg" xmlns:xlink="http://www.w3.org/1999/xlink" width="612pt" height="792pt" viewBox="0 0 612 792" version="1.1">

<!-- Heavy Blast Cannon -->
<path style="fill-rule:nonzero;fill:rgb(100%,100%,100%);fill-opacity:1;stroke-width:0.75;stroke-linecap:butt;stroke-linejoin:miter;stroke:rgb(13.730068%,12.159915%,12.54902%);stroke-opacity:1;stroke-miterlimit:4;" d="M 294.75 550.332031 L 294.75 566.082031 L 301.5 566.082031 L 301.5 586.332031 L 303.75 586.332031 L 303.75 593.082031 L 308.25 597.582031 L 308.25 586.332031 L 310.5 586.332031 L 310.5 597.582031 L 315 593.082031 L 315 586.332031 L 317.25 586.332031 L 317.25 566.082031 L 324 566.082031 L 324 550.332031 L 294.75 550.332031 Z M 294.75 550.332031 " transform="matrix(1,0,0,-1,0,793)"/>

<!-- Damage Boxes -->
<path style="fill-rule:nonzero;fill:rgb(100%,100%,100%);fill-opacity:1;stroke-width:1.5;stroke-linecap:butt;stroke-linejoin:miter;stroke:rgb(13.730068%,12.159915%,12.54902%);stroke-opacity:1;stroke-miterlimit:4;" d="M 312.75 581.832031 L 312.75 575.082031 L 306 575.082031 L 306 581.832031 L 312.75 581.832031 Z M 312.75 581.832031 " transform="matrix(1,0,0,-1,0,793)"/>
<path style="fill-rule:nonzero;fill:rgb(100%,100%,100%);fill-opacity:1;stroke-width:1.5;stroke-linecap:butt;stroke-linejoin:miter;stroke:rgb(13.730068%,12.159915%,12.54902%);stroke-opacity:1;stroke-miterlimit:4;" d="M 312.75 575.082031 L 312.75 568.332031 L 306 568.332031 L 306 575.082031 L 312.75 575.082031 Z M 312.75 575.082031 " transform="matrix(1,0,0,-1,0,793)"/>
<path style="fill-rule:nonzero;fill:rgb(100%,100%,100%);fill-opacity:1;stroke-width:1.5;stroke-linecap:butt;stroke-linejoin:miter;stroke:rgb(13.730068%,12.159915%,12.54902%);stroke-opacity:1;stroke-miterlimit:4;" d="M 312.75 568.332031 L 312.75 561.582031 L 306 561.582031 L 306 568.332031 L 312.75 568.332031 Z M 312.75 568.332031 " transform="matrix(1,0,0,-1,0,793)"/>
<path style="fill-rule:nonzero;fill:rgb(100%,100%,100%);fill-opacity:1;stroke-width:1.5;stroke-linecap:butt;stroke-linejoin:miter;stroke:rgb(13.730068%,12.159915%,12.54902%);stroke-opacity:1;stroke-miterlimit:4;" d="M 306 561.582031 L 306 554.832031 L 299.25 554.832031 L 299.25 561.582031 L 306 561.582031 Z M 306 561.582031 " transform="matrix(1,0,0,-1,0,793)"/>
<path style="fill-rule:nonzero;fill:rgb(100%,100%,100%);fill-opacity:1;stroke-width:1.5;stroke-linecap:butt;stroke-linejoin:miter;stroke:rgb(13.730068%,12.159915%,12.54902%);stroke-opacity:1;stroke-miterlimit:4;" d="M 312.75 561.582031 L 312.75 554.832031 L 306 554.832031 L 306 561.582031 L 312.75 561.582031 Z M 312.75 561.582031 " transform="matrix(1,0,0,-1,0,793)"/>
<path style="fill-rule:nonzero;fill:rgb(100%,100%,100%);fill-opacity:1;stroke-width:1.5;stroke-linecap:butt;stroke-linejoin:miter;stroke:rgb(13.730068%,12.159915%,12.54902%);stroke-opacity:1;stroke-miterlimit:4;" d="M 319.5 561.582031 L 319.5 554.832031 L 312.75 554.832031 L 312.75 561.582031 L 319.5 561.582031 Z M 319.5 561.582031 " transform="matrix(1,0,0,-1,0,793)"/>

</svg>