<svg xmlns="http://www.w3.org/2000/svg" xmlns:xlink="http://www.w3.org/1999/xlink" width="612pt" height="792pt" viewBox="0 0 612 792" version="1.1">

<!-- Heavy Molecular Slicer Beam -->
<path style="fill-rule:nonzero;fill:rgb(100%,100%,100%);fill-opacity:1;stroke-width:0.75;stroke-linecap:butt;stroke-linejoin:miter;stroke:rgb(13.730068%,12.159915%,12.54902%);stroke-opacity:1;stroke-miterlimit:4;" d="M 304.894531 518.15625 L 299.496094 523.558594 L 304.894531 528.957031 L 299.496094 534.355469 L 304.894531 539.757812 L 299.496094 545.15625 L 304.894531 555.957031 L 310.296875 545.15625 L 304.894531 539.757812 L 310.296875 534.355469 L 304.894531 528.957031 L 310.296875 523.558594 L 304.894531 518.15625 Z M 304.894531 518.15625 " transform="matrix(1,0,0,-1,0,793)"/>
<path style="fill-rule:nonzero;fill:rgb(100%,100%,100%);fill-opacity:1;stroke-width:0.75;stroke-linecap:butt;stroke-linejoin:miter;stroke:rgb(13.730068%,12.159915%,12.54902%);stroke-opacity:1;stroke-miterlimit:4;" d="M 288.695312 458.707031 L 288.695312 504.855469 L 294.09375 556.054688 L 294.09375 545.253906 L 304.894531 539.855469 L 294.09375 534.453125 L 304.894531 529.054688 L 294.09375 523.652344 L 304.894531 518.253906 L 315.695312 523.652344 L 304.894531 529.054688 L 315.695312 534.453125 L 304.894531 539.855469 L 315.695312 545.253906 L 315.695312 556.054688 L 321.09375 504.855469 L 321.09375 458.707031 L 288.695312 458.707031 Z M 288.695312 458.707031 " transform="matrix(1,0,0,-1,0,793)"/>
<path style="fill-rule:nonzero;fill:rgb(100%,100%,100%);fill-opacity:1;stroke-width:0.75;stroke-linecap:butt;stroke-linejoin:miter;stroke:rgb(13.730068%,12.159915%,12.54902%);stroke-opacity:1;stroke-miterlimit:4;" d="M 304.894531 507.148438 L 299.496094 512.546875 L 304.894531 517.949219 L 304.894531 517.949219 L 310.292969 512.546875 L 304.894531 507.148438 Z M 304.894531 507.148438 " transform="matrix(1,0,0,-1,0,793)"/>
<path style="fill-rule:nonzero;fill:rgb(100%,100%,100%);fill-opacity:1;stroke-width:0.75;stroke-linecap:butt;stroke-linejoin:miter;stroke:rgb(13.730068%,12.159915%,12.54902%);stroke-opacity:1;stroke-miterlimit:4;" d="M 304.894531 509.839844 L 302.195312 512.539062 L 304.894531 515.242188 L 304.894531 515.242188 L 307.59375 512.539062 L 304.894531 509.839844 Z M 304.894531 509.839844 " transform="matrix(1,0,0,-1,0,793)"/>
<path style="fill-rule:nonzero;fill:rgb(100%,100%,100%);fill-opacity:1;stroke-width:0.75;stroke-linecap:butt;stroke-linejoin:miter;stroke:rgb(13.730068%,12.159915%,12.54902%);stroke-opacity:1;stroke-miterlimit:4;" d="M 304.894531 531.679688 L 302.195312 534.382812 L 304.894531 537.082031 L 304.894531 537.082031 L 307.59375 534.382812 L 304.894531 531.679688 Z M 304.894531 531.679688 " transform="matrix(1,0,0,-1,0,793)"/>
<path style="fill-rule:nonzero;fill:rgb(100%,100%,100%);fill-opacity:1;stroke-width:0.75;stroke-linecap:butt;stroke-linejoin:miter;stroke:rgb(13.730068%,12.159915%,12.54902%);stroke-opacity:1;stroke-miterlimit:4;" d="M 304.894531 542.679688 L 302.195312 545.382812 L 304.894531 548.082031 L 304.894531 548.082031 L 307.59375 545.382812 L 304.894531 542.679688 Z M 304.894531 542.679688 " transform="matrix(1,0,0,-1,0,793)"/>
<path style="fill-rule:nonzero;fill:rgb(100%,100%,100%);fill-opacity:1;stroke-width:0.75;stroke-linecap:butt;stroke-linejoin:miter;stroke:rgb(13.730068%,12.159915%,12.54902%);stroke-opacity:1;stroke-miterlimit:4;" d="M 304.894531 520.679688 L 302.195312 523.382812 L 304.894531 526.082031 L 304.894531 526.082031 L 307.59375 523.382812 L 304.894531 520.679688 Z M 304.894531 520.679688 " transform="matrix(1,0,0,-1,0,793)"/>

<!-- Damage Boxes -->
<path style="fill-rule:nonzero;fill:rgb(100%,100%,100%);fill-opacity:1;stroke-width:1.5;stroke-linecap:butt;stroke-linejoin:miter;stroke:rgb(13.730068%,12.159915%,12.54902%);stroke-opacity:1;stroke-miterlimit:4;" d="M 301.5 496.75 L 301.5 503.5 L 294.75 503.5 L 294.75 496.75 L 301.5 496.75 Z M 301.5 496.75 " transform="matrix(1,0,0,-1,0,793)"/>
<path style="fill-rule:nonzero;fill:rgb(100%,100%,100%);fill-opacity:1;stroke-width:1.5;stroke-linecap:butt;stroke-linejoin:miter;stroke:rgb(13.730068%,12.159915%,12.54902%);stroke-opacity:1;stroke-miterlimit:4;" d="M 308.25 496.75 L 308.25 503.5 L 301.5 503.5 L 301.5 496.75 L 308.25 496.75 Z M 308.25 496.75 " transform="matrix(1,0,0,-1,0,793)"/>
<path style="fill-rule:nonzero;fill:rgb(100%,100%,100%);fill-opacity:1;stroke-width:1.5;stroke-linecap:butt;stroke-linejoin:miter;stroke:rgb(13.730068%,12.159915%,12.54902%);stroke-opacity:1;stroke-miterlimit:4;" d="M 315 496.75 L 315 503.5 L 308.25 503.5 L 308.25 496.75 L 315 496.75 Z M 315 496.75 " transform="matrix(1,0,0,-1,0,793)"/>
<path style="fill-rule:nonzero;fill:rgb(100%,100%,100%);fill-opacity:1;stroke-width:1.5;stroke-linecap:butt;stroke-linejoin:miter;stroke:rgb(13.730068%,12.159915%,12.54902%);stroke-opacity:1;stroke-miterlimit:4;" d="M 301.5 490 L 301.5 496.75 L 294.75 496.75 L 294.75 490 L 301.5 490 Z M 301.5 490 " transform="matrix(1,0,0,-1,0,793)"/>
<path style="fill-rule:nonzero;fill:rgb(100%,100%,100%);fill-opacity:1;stroke-width:1.5;stroke-linecap:butt;stroke-linejoin:miter;stroke:rgb(13.730068%,12.159915%,12.54902%);stroke-opacity:1;stroke-miterlimit:4;" d="M 308.25 490 L 308.25 496.75 L 301.5 496.75 L 301.5 490 L 308.25 490 Z M 308.25 490 " transform="matrix(1,0,0,-1,0,793)"/>
<path style="fill-rule:nonzero;fill:rgb(100%,100%,100%);fill-opacity:1;stroke-width:1.5;stroke-linecap:butt;stroke-linejoin:miter;stroke:rgb(13.730068%,12.159915%,12.54902%);stroke-opacity:1;stroke-miterlimit:4;" d="M 315 490 L 315 496.75 L 308.25 496.75 L 308.25 490 L 315 490 Z M 315 490 " transform="matrix(1,0,0,-1,0,793)"/>
<path style="fill-rule:nonzero;fill:rgb(100%,100%,100%);fill-opacity:1;stroke-width:1.5;stroke-linecap:butt;stroke-linejoin:miter;stroke:rgb(13.730068%,12.159915%,12.54902%);stroke-opacity:1;stroke-miterlimit:4;" d="M 301.5 483.25 L 301.5 490 L 294.75 490 L 294.75 483.25 L 301.5 483.25 Z M 301.5 483.25 " transform="matrix(1,0,0,-1,0,793)"/>
<path style="fill-rule:nonzero;fill:rgb(100%,100%,100%);fill-opacity:1;stroke-width:1.5;stroke-linecap:butt;stroke-linejoin:miter;stroke:rgb(13.730068%,12.159915%,12.54902%);stroke-opacity:1;stroke-miterlimit:4;" d="M 308.25 483.25 L 308.25 490 L 301.5 490 L 301.5 483.25 L 308.25 483.25 Z M 308.25 483.25 " transform="matrix(1,0,0,-1,0,793)"/>
<path style="fill-rule:nonzero;fill:rgb(100%,100%,100%);fill-opacity:1;stroke-width:1.5;stroke-linecap:butt;stroke-linejoin:miter;stroke:rgb(13.730068%,12.159915%,12.54902%);stroke-opacity:1;stroke-miterlimit:4;" d="M 315 483.25 L 315 490 L 308.25 490 L 308.25 483.25 L 315 483.25 Z M 315 483.25 " transform="matrix(1,0,0,-1,0,793)"/>
<path style="fill-rule:nonzero;fill:rgb(100%,100%,100%);fill-opacity:1;stroke-width:1.5;stroke-linecap:butt;stroke-linejoin:miter;stroke:rgb(13.730068%,12.159915%,12.54902%);stroke-opacity:1;stroke-miterlimit:4;" d="M 301.5 476.5 L 301.5 483.25 L 294.75 483.25 L 294.75 476.5 L 301.5 476.5 Z M 301.5 476.5 " transform="matrix(1,0,0,-1,0,793)"/>
<path style="fill-rule:nonzero;fill:rgb(100%,100%,100%);fill-opacity:1;stroke-width:1.5;stroke-linecap:butt;stroke-linejoin:miter;stroke:rgb(13.730068%,12.159915%,12.54902%);stroke-opacity:1;stroke-miterlimit:4;" d="M 308.25 476.5 L 308.25 483.25 L 301.5 483.25 L 301.5 476.5 L 308.25 476.5 Z M 308.25 476.5 " transform="matrix(1,0,0,-1,0,793)"/>
<path style="fill-rule:nonzero;fill:rgb(100%,100%,100%);fill-opacity:1;stroke-width:1.5;stroke-linecap:butt;stroke-linejoin:miter;stroke:rgb(13.730068%,12.159915%,12.54902%);stroke-opacity:1;stroke-miterlimit:4;" d="M 315 476.5 L 315 483.25 L 308.25 483.25 L 308.25 476.5 L 315 476.5 Z M 315 476.5 " transform="matrix(1,0,0,-1,0,793)"/>
<path style="fill-rule:nonzero;fill:rgb(100%,100%,100%);fill-opacity:1;stroke-width:1.5;stroke-linecap:butt;stroke-linejoin:miter;stroke:rgb(13.730068%,12.159915%,12.54902%);stroke-opacity:1;stroke-miterlimit:4;" d="M 301.5 469.75 L 301.5 476.5 L 294.75 476.5 L 294.75 469.75 L 301.5 469.75 Z M 301.5 469.75 " transform="matrix(1,0,0,-1,0,793)"/>
<path style="fill-rule:nonzero;fill:rgb(100%,100%,100%);fill-opacity:1;stroke-width:1.5;stroke-linecap:butt;stroke-linejoin:miter;stroke:rgb(13.730068%,12.159915%,12.54902%);stroke-opacity:1;stroke-miterlimit:4;" d="M 308.25 469.75 L 308.25 476.5 L 301.5 476.5 L 301.5 469.75 L 308.25 469.75 Z M 308.25 469.75 " transform="matrix(1,0,0,-1,0,793)"/>
<path style="fill-rule:nonzero;fill:rgb(100%,100%,100%);fill-opacity:1;stroke-width:1.5;stroke-linecap:butt;stroke-linejoin:miter;stroke:rgb(13.730068%,12.159915%,12.54902%);stroke-opacity:1;stroke-miterlimit:4;" d="M 315 469.75 L 315 476.5 L 308.25 476.5 L 308.25 469.75 L 315 469.75 Z M 315 469.75 " transform="matrix(1,0,0,-1,0,793)"/>
<path style="fill-rule:nonzero;fill:rgb(100%,100%,100%);fill-opacity:1;stroke-width:1.5;stroke-linecap:butt;stroke-linejoin:miter;stroke:rgb(13.730068%,12.159915%,12.54902%);stroke-opacity:1;stroke-miterlimit:4;" d="M 301.5 462.796875 L 301.5 469.546875 L 294.75 469.546875 L 294.75 462.796875 L 301.5 462.796875 Z M 301.5 462.796875 " transform="matrix(1,0,0,-1,0,793)"/>
<path style="fill-rule:nonzero;fill:rgb(100%,100%,100%);fill-opacity:1;stroke-width:1.5;stroke-linecap:butt;stroke-linejoin:miter;stroke:rgb(13.730068%,12.159915%,12.54902%);stroke-opacity:1;stroke-miterlimit:4;" d="M 308.25 462.796875 L 308.25 469.546875 L 301.5 469.546875 L 301.5 462.796875 L 308.25 462.796875 Z M 308.25 462.796875 " transform="matrix(1,0,0,-1,0,793)"/>
<path style="fill-rule:nonzero;fill:rgb(100%,100%,100%);fill-opacity:1;stroke-width:1.5;stroke-linecap:butt;stroke-linejoin:miter;stroke:rgb(13.730068%,12.159915%,12.54902%);stroke-opacity:1;stroke-miterlimit:4;" d="M 315 462.796875 L 315 469.546875 L 308.25 469.546875 L 308.25 462.796875 L 315 462.796875 Z M 315 462.796875 " transform="matrix(1,0,0,-1,0,793)"/>

</svg>