<svg xmlns="http://www.w3.org/2000/svg" xmlns:xlink="http://www.w3.org/1999/xlink" width="612pt" height="792pt" viewBox="0 0 612 792" version="1.1">

<!-- Heavy Railgun -->
<path style="fill-rule:nonzero;fill:rgb(100%,100%,100%);fill-opacity:1;stroke-width:0.75;stroke-linecap:butt;stroke-linejoin:miter;stroke:rgb(0%,0%,0%);stroke-opacity:1;stroke-miterlimit:4;" d="M 81.840013 426.325656 L 81.840013 424.075656 L 81.840013 445.075656 L 81.840013 445.075656 L 81.840013 447.325656 L 76.340013 452.825656 L 76.340013 445.075656 L 71.090013 445.075656 L 71.090013 426.575656 L 71.090013 428.825656 L 66.140794 424.075656 L 66.140794 397.075656 L 101.73845 397.075656 L 101.73845 424.075656 L 96.789231 428.825656 L 96.789231 426.575656 L 96.789231 445.075656 L 91.539231 445.075656 L 91.539231 452.825656 L 86.039231 447.325656 L 86.039231 445.075656 L 86.039231 445.075656 L 86.039231 424.075656 L 86.039231 426.325656 L 81.840013 426.325656 Z M 81.840013 426.325656 " transform="matrix(1,0,0,-1,226.6678,622.6655)"/>

<!-- Damage Boxes -->
<path style="fill-rule:nonzero;fill:rgb(100%,100%,100%);fill-opacity:1;stroke-width:1.5;stroke-linecap:butt;stroke-linejoin:miter;stroke:rgb(0%,0%,0%);stroke-opacity:1;stroke-miterlimit:4;" d="M 77.390794 421.825656 L 77.390794 415.075656 L 70.640794 415.075656 L 70.640794 421.825656 L 77.390794 421.825656 Z M 77.390794 421.825656 " transform="matrix(1,0,0,-1,226.6678,622.6655)"/>
<path style="fill-rule:nonzero;fill:rgb(100%,100%,100%);fill-opacity:1;stroke-width:1.5;stroke-linecap:butt;stroke-linejoin:miter;stroke:rgb(0%,0%,0%);stroke-opacity:1;stroke-miterlimit:4;" d="M 84.140794 421.825656 L 84.140794 415.075656 L 77.390794 415.075656 L 77.390794 421.825656 L 84.140794 421.825656 Z M 84.140794 421.825656 " transform="matrix(1,0,0,-1,226.6678,622.6655)"/>
<path style="fill-rule:nonzero;fill:rgb(100%,100%,100%);fill-opacity:1;stroke-width:1.5;stroke-linecap:butt;stroke-linejoin:miter;stroke:rgb(0%,0%,0%);stroke-opacity:1;stroke-miterlimit:4;" d="M 90.890794 421.825656 L 90.890794 415.075656 L 84.140794 415.075656 L 84.140794 421.825656 L 90.890794 421.825656 Z M 90.890794 421.825656 " transform="matrix(1,0,0,-1,226.6678,622.6655)"/>
<path style="fill-rule:nonzero;fill:rgb(100%,100%,100%);fill-opacity:1;stroke-width:1.5;stroke-linecap:butt;stroke-linejoin:miter;stroke:rgb(0%,0%,0%);stroke-opacity:1;stroke-miterlimit:4;" d="M 97.390794 421.825656 L 97.390794 415.075656 L 90.640794 415.075656 L 90.640794 421.825656 L 97.390794 421.825656 Z M 97.390794 421.825656 " transform="matrix(1,0,0,-1,226.6678,622.6655)"/>
<path style="fill-rule:nonzero;fill:rgb(100%,100%,100%);fill-opacity:1;stroke-width:1.5;stroke-linecap:butt;stroke-linejoin:miter;stroke:rgb(0%,0%,0%);stroke-opacity:1;stroke-miterlimit:4;" d="M 77.390794 415.075656 L 77.390794 408.325656 L 70.640794 408.325656 L 70.640794 415.075656 L 77.390794 415.075656 Z M 77.390794 415.075656 " transform="matrix(1,0,0,-1,226.6678,622.6655)"/>
<path style="fill-rule:nonzero;fill:rgb(100%,100%,100%);fill-opacity:1;stroke-width:1.5;stroke-linecap:butt;stroke-linejoin:miter;stroke:rgb(0%,0%,0%);stroke-opacity:1;stroke-miterlimit:4;" d="M 84.140794 415.075656 L 84.140794 408.325656 L 77.390794 408.325656 L 77.390794 415.075656 L 84.140794 415.075656 Z M 84.140794 415.075656 " transform="matrix(1,0,0,-1,226.6678,622.6655)"/>
<path style="fill-rule:nonzero;fill:rgb(100%,100%,100%);fill-opacity:1;stroke-width:1.5;stroke-linecap:butt;stroke-linejoin:miter;stroke:rgb(0%,0%,0%);stroke-opacity:1;stroke-miterlimit:4;" d="M 90.890794 415.075656 L 90.890794 408.325656 L 84.140794 408.325656 L 84.140794 415.075656 L 90.890794 415.075656 Z M 90.890794 415.075656 " transform="matrix(1,0,0,-1,226.6678,622.6655)"/>
<path style="fill-rule:nonzero;fill:rgb(100%,100%,100%);fill-opacity:1;stroke-width:1.5;stroke-linecap:butt;stroke-linejoin:miter;stroke:rgb(0%,0%,0%);stroke-opacity:1;stroke-miterlimit:4;" d="M 97.390794 415.075656 L 97.390794 408.325656 L 90.640794 408.325656 L 90.640794 415.075656 L 97.390794 415.075656 Z M 97.390794 415.075656 " transform="matrix(1,0,0,-1,226.6678,622.6655)"/>
<path style="fill-rule:nonzero;fill:rgb(100%,100%,100%);fill-opacity:1;stroke-width:1.5;stroke-linecap:butt;stroke-linejoin:miter;stroke:rgb(0%,0%,0%);stroke-opacity:1;stroke-miterlimit:4;" d="M 77.390794 408.325656 L 77.390794 401.575656 L 70.640794 401.575656 L 70.640794 408.325656 L 77.390794 408.325656 Z M 77.390794 408.325656 " transform="matrix(1,0,0,-1,226.6678,622.6655)"/>
<path style="fill-rule:nonzero;fill:rgb(100%,100%,100%);fill-opacity:1;stroke-width:1.5;stroke-linecap:butt;stroke-linejoin:miter;stroke:rgb(0%,0%,0%);stroke-opacity:1;stroke-miterlimit:4;" d="M 84.140794 408.325656 L 84.140794 401.575656 L 77.390794 401.575656 L 77.390794 408.325656 L 84.140794 408.325656 Z M 84.140794 408.325656 " transform="matrix(1,0,0,-1,226.6678,622.6655)"/>
<path style="fill-rule:nonzero;fill:rgb(100%,100%,100%);fill-opacity:1;stroke-width:1.5;stroke-linecap:butt;stroke-linejoin:miter;stroke:rgb(0%,0%,0%);stroke-opacity:1;stroke-miterlimit:4;" d="M 90.890794 408.325656 L 90.890794 401.575656 L 84.140794 401.575656 L 84.140794 408.325656 L 90.890794 408.325656 Z M 90.890794 408.325656 " transform="matrix(1,0,0,-1,226.6678,622.6655)"/>
<path style="fill-rule:nonzero;fill:rgb(100%,100%,100%);fill-opacity:1;stroke-width:1.5;stroke-linecap:butt;stroke-linejoin:miter;stroke:rgb(0%,0%,0%);stroke-opacity:1;stroke-miterlimit:4;" d="M 97.390794 408.325656 L 97.390794 401.575656 L 90.640794 401.575656 L 90.640794 408.325656 L 97.390794 408.325656 Z M 97.390794 408.325656 " transform="matrix(1,0,0,-1,226.6678,622.6655)"/>

</svg>