<svg xmlns="http://www.w3.org/2000/svg" xmlns:xlink="http://www.w3.org/1999/xlink" width="612pt" height="792pt" viewBox="0 0 612 792" version="1.1">

<!-- HK Control System (12) -->
<path style="fill-rule:evenodd;fill:rgb(100%,100%,100%);fill-opacity:1;stroke-width:0.72;stroke-linecap:butt;stroke-linejoin:miter;stroke:rgb(13.69955%,12.199588%,12.500191%);stroke-opacity:1;stroke-miterlimit:2.613;" d="M 289.425781 396.3125 L 294.382812 396.3125 L 289.425781 400.953125 L 294.382812 400.953125 L 289.425781 405.476562 L 301.277344 405.476562 L 304.375 408.828125 L 304.375 405.476562 L 307.625 405.476562 L 307.625 408.828125 L 310.722656 405.476562 L 322.574219 405.476562 L 317.617188 400.953125 L 322.574219 400.953125 L 317.617188 396.3125 L 322.570312 396.3125 L 322.570312 369.269531 L 289.425781 369.269531 L 289.425781 396.3125 Z M 289.425781 396.3125 " transform="matrix(1,0,0,-1,0,792)"/>

<!-- Annotation -->
<path style="opacity:0.5;fill:#ffffff;fill-opacity:1;fill-rule:evenodd;stroke:#ff1e1e;stroke-width:1.44000006;stroke-linecap:butt;stroke-linejoin:miter;stroke-miterlimit:2.61299992;stroke-opacity:1" d="m 302.74244,394.7102 6.45313,0 0,-6.45703 -6.45313,0 0,6.45703 z m 0,0"/>
     
<!-- Damage Boxes -->
<path style="fill-rule:evenodd;fill:rgb(100%,100%,100%);fill-opacity:1;stroke-width:1.44;stroke-linecap:butt;stroke-linejoin:miter;stroke:rgb(13.69955%,12.199588%,12.500191%);stroke-opacity:1;stroke-miterlimit:2.613;" d="M 293.089844 386.390625 L 299.546875 386.390625 L 299.546875 392.84375 L 293.089844 392.84375 L 293.089844 386.390625 Z M 293.089844 386.390625 " transform="matrix(1,0,0,-1,0,792)"/>
<path style="fill-rule:evenodd;fill:rgb(100%,100%,100%);fill-opacity:1;stroke-width:1.44;stroke-linecap:butt;stroke-linejoin:miter;stroke:rgb(13.69955%,12.199588%,12.500191%);stroke-opacity:1;stroke-miterlimit:2.613;" d="M 299.546875 392.84375 L 306 392.84375 L 306 386.390625 L 299.546875 386.390625 L 299.546875 392.84375 Z M 299.546875 392.84375 " transform="matrix(1,0,0,-1,0,792)"/>
<path style="fill-rule:evenodd;fill:rgb(100%,100%,100%);fill-opacity:1;stroke-width:1.44;stroke-linecap:butt;stroke-linejoin:miter;stroke:rgb(13.69955%,12.199588%,12.500191%);stroke-opacity:1;stroke-miterlimit:2.613;" d="M 306 386.390625 L 312.453125 386.390625 L 312.453125 392.84375 L 306 392.84375 L 306 386.390625 Z M 306 386.390625 " transform="matrix(1,0,0,-1,0,792)"/>
<path style="fill-rule:evenodd;fill:rgb(100%,100%,100%);fill-opacity:1;stroke-width:1.44;stroke-linecap:butt;stroke-linejoin:miter;stroke:rgb(13.69955%,12.199588%,12.500191%);stroke-opacity:1;stroke-miterlimit:2.613;" d="M 312.453125 392.84375 L 318.90625 392.84375 L 318.90625 386.390625 L 312.453125 386.390625 L 312.453125 392.84375 Z M 312.453125 392.84375 " transform="matrix(1,0,0,-1,0,792)"/>
<path style="fill-rule:evenodd;fill:rgb(100%,100%,100%);fill-opacity:1;stroke-width:1.44;stroke-linecap:butt;stroke-linejoin:miter;stroke:rgb(13.69955%,12.199588%,12.500191%);stroke-opacity:1;stroke-miterlimit:2.613;" d="M 293.089844 386.390625 L 299.546875 386.390625 L 299.546875 379.933594 L 293.089844 379.933594 L 293.089844 386.390625 Z M 293.089844 386.390625 " transform="matrix(1,0,0,-1,0,792)"/>
<path style="fill-rule:evenodd;fill:rgb(100%,100%,100%);fill-opacity:1;stroke-width:1.44;stroke-linecap:butt;stroke-linejoin:miter;stroke:rgb(13.69955%,12.199588%,12.500191%);stroke-opacity:1;stroke-miterlimit:2.613;" d="M 299.546875 379.933594 L 306 379.933594 L 306 386.390625 L 299.546875 386.390625 L 299.546875 379.933594 Z M 299.546875 379.933594 " transform="matrix(1,0,0,-1,0,792)"/>
<path style="fill-rule:evenodd;fill:rgb(100%,100%,100%);fill-opacity:1;stroke-width:1.44;stroke-linecap:butt;stroke-linejoin:miter;stroke:rgb(13.69955%,12.199588%,12.500191%);stroke-opacity:1;stroke-miterlimit:2.613;" d="M 306 386.390625 L 312.453125 386.390625 L 312.453125 379.933594 L 306 379.933594 L 306 386.390625 Z M 306 386.390625 " transform="matrix(1,0,0,-1,0,792)"/>
<path style="fill-rule:evenodd;fill:rgb(100%,100%,100%);fill-opacity:1;stroke-width:1.44;stroke-linecap:butt;stroke-linejoin:miter;stroke:rgb(13.69955%,12.199588%,12.500191%);stroke-opacity:1;stroke-miterlimit:2.613;" d="M 312.453125 379.933594 L 318.90625 379.933594 L 318.90625 386.390625 L 312.453125 386.390625 L 312.453125 379.933594 Z M 312.453125 379.933594 " transform="matrix(1,0,0,-1,0,792)"/>
<path style="fill-rule:evenodd;fill:rgb(100%,100%,100%);fill-opacity:1;stroke-width:1.44;stroke-linecap:butt;stroke-linejoin:miter;stroke:rgb(13.69955%,12.199588%,12.500191%);stroke-opacity:1;stroke-miterlimit:2.613;" d="M 293.089844 373.480469 L 299.546875 373.480469 L 299.546875 379.933594 L 293.089844 379.933594 L 293.089844 373.480469 Z M 293.089844 373.480469 " transform="matrix(1,0,0,-1,0,792)"/>
<path style="fill-rule:evenodd;fill:rgb(100%,100%,100%);fill-opacity:1;stroke-width:1.44;stroke-linecap:butt;stroke-linejoin:miter;stroke:rgb(13.69955%,12.199588%,12.500191%);stroke-opacity:1;stroke-miterlimit:2.613;" d="M 299.546875 379.933594 L 306 379.933594 L 306 373.480469 L 299.546875 373.480469 L 299.546875 379.933594 Z M 299.546875 379.933594 " transform="matrix(1,0,0,-1,0,792)"/>
<path style="fill-rule:evenodd;fill:rgb(100%,100%,100%);fill-opacity:1;stroke-width:1.44;stroke-linecap:butt;stroke-linejoin:miter;stroke:rgb(13.69955%,12.199588%,12.500191%);stroke-opacity:1;stroke-miterlimit:2.613;" d="M 306 373.480469 L 312.453125 373.480469 L 312.453125 379.933594 L 306 379.933594 L 306 373.480469 Z M 306 373.480469 " transform="matrix(1,0,0,-1,0,792)"/>
<path style="fill-rule:evenodd;fill:rgb(100%,100%,100%);fill-opacity:1;stroke-width:1.44;stroke-linecap:butt;stroke-linejoin:miter;stroke:rgb(13.69955%,12.199588%,12.500191%);stroke-opacity:1;stroke-miterlimit:2.613;" d="M 312.453125 379.933594 L 318.90625 379.933594 L 318.90625 373.480469 L 312.453125 373.480469 L 312.453125 379.933594 Z M 312.453125 379.933594 " transform="matrix(1,0,0,-1,0,792)"/>

</svg>