<svg xmlns="http://www.w3.org/2000/svg" xmlns:xlink="http://www.w3.org/1999/xlink" width="612pt" height="792pt" viewBox="0 0 612 792" version="1.1">

<!-- HK Control System (30) -->
<path style="fill-rule:evenodd;fill:rgb(100%,100%,100%);fill-opacity:1;stroke-width:0.72;stroke-linecap:butt;stroke-linejoin:miter;stroke:rgb(13.69955%,12.199588%,12.500191%);stroke-opacity:1;stroke-miterlimit:2.613;" d="M 319.257812 318.847656 L 325.222656 318.847656 L 319.257812 323.488281 L 325.222656 323.488281 L 319.257812 328.011719 L 333.519531 328.011719 L 337.246094 331.363281 L 337.246094 328.011719 L 341.160156 328.011719 L 341.160156 331.363281 L 344.886719 328.011719 L 359.148438 328.011719 L 353.183594 323.488281 L 359.148438 323.488281 L 353.183594 318.847656 L 359.140625 318.847656 L 359.140625 273.78125 L 319.257812 273.78125 L 319.257812 318.847656 Z M 319.257812 318.847656 " transform="matrix(1,0,0,-1,0,792)"/>

<!-- Annotation -->
<path style="opacity:0.5;fill:#ffffff;fill-opacity:1;fill-rule:evenodd;stroke:#ff1e1e;stroke-width:1.44000006;stroke-linecap:butt;stroke-linejoin:miter;stroke-miterlimit:2.61299992;stroke-opacity:1" d="m 335.96447,472.20161 6.45313,0 0,-6.45313 -6.45313,0 0,6.45313 z m 0,0"/>
     
<!-- Damage Boxes -->
<path style="fill-rule:evenodd;fill:rgb(100%,100%,100%);fill-opacity:1;stroke-width:1.44;stroke-linecap:butt;stroke-linejoin:miter;stroke:rgb(13.69955%,12.199588%,12.500191%);stroke-opacity:1;stroke-miterlimit:2.613;" d="M 323.066406 308.925781 L 329.519531 308.925781 L 329.519531 315.378906 L 323.066406 315.378906 L 323.066406 308.925781 Z M 323.066406 308.925781 " transform="matrix(1,0,0,-1,0,792)"/>
<path style="fill-rule:evenodd;fill:rgb(100%,100%,100%);fill-opacity:1;stroke-width:1.44;stroke-linecap:butt;stroke-linejoin:miter;stroke:rgb(13.69955%,12.199588%,12.500191%);stroke-opacity:1;stroke-miterlimit:2.613;" d="M 329.519531 315.378906 L 335.972656 315.378906 L 335.972656 308.921875 L 329.519531 308.921875 L 329.519531 315.378906 Z M 329.519531 315.378906 " transform="matrix(1,0,0,-1,0,792)"/>
<path style="fill-rule:evenodd;fill:rgb(100%,100%,100%);fill-opacity:1;stroke-width:1.44;stroke-linecap:butt;stroke-linejoin:miter;stroke:rgb(13.69955%,12.199588%,12.500191%);stroke-opacity:1;stroke-miterlimit:2.613;" d="M 335.976562 308.925781 L 342.429688 308.925781 L 342.429688 315.378906 L 335.976562 315.378906 L 335.976562 308.925781 Z M 335.976562 308.925781 " transform="matrix(1,0,0,-1,0,792)"/>
<path style="fill-rule:evenodd;fill:rgb(100%,100%,100%);fill-opacity:1;stroke-width:1.44;stroke-linecap:butt;stroke-linejoin:miter;stroke:rgb(13.69955%,12.199588%,12.500191%);stroke-opacity:1;stroke-miterlimit:2.613;" d="M 342.429688 315.378906 L 348.882812 315.378906 L 348.882812 308.921875 L 342.429688 308.921875 L 342.429688 315.378906 Z M 342.429688 315.378906 " transform="matrix(1,0,0,-1,0,792)"/>
<path style="fill-rule:evenodd;fill:rgb(100%,100%,100%);fill-opacity:1;stroke-width:1.44;stroke-linecap:butt;stroke-linejoin:miter;stroke:rgb(13.69955%,12.199588%,12.500191%);stroke-opacity:1;stroke-miterlimit:2.613;" d="M 348.882812 308.925781 L 355.339844 308.925781 L 355.339844 315.378906 L 348.882812 315.378906 L 348.882812 308.925781 Z M 348.882812 308.925781 " transform="matrix(1,0,0,-1,0,792)"/>
<path style="fill-rule:evenodd;fill:rgb(100%,100%,100%);fill-opacity:1;stroke-width:1.44;stroke-linecap:butt;stroke-linejoin:miter;stroke:rgb(13.69955%,12.199588%,12.500191%);stroke-opacity:1;stroke-miterlimit:2.613;" d="M 323.066406 308.925781 L 329.519531 308.925781 L 329.519531 302.46875 L 323.066406 302.46875 L 323.066406 308.925781 Z M 323.066406 308.925781 " transform="matrix(1,0,0,-1,0,792)"/>
<path style="fill-rule:evenodd;fill:rgb(100%,100%,100%);fill-opacity:1;stroke-width:1.44;stroke-linecap:butt;stroke-linejoin:miter;stroke:rgb(13.69955%,12.199588%,12.500191%);stroke-opacity:1;stroke-miterlimit:2.613;" d="M 329.519531 302.46875 L 335.972656 302.46875 L 335.972656 308.921875 L 329.519531 308.921875 L 329.519531 302.46875 Z M 329.519531 302.46875 " transform="matrix(1,0,0,-1,0,792)"/>
<path style="fill-rule:nonzero;fill:rgb(100%,100%,100%);fill-opacity:1;stroke-width:1.44;stroke-linecap:butt;stroke-linejoin:miter;stroke:rgb(13.69955%,12.199588%,12.500191%);stroke-opacity:1;stroke-miterlimit:2.613;" d="M 335.976562 308.925781 L 342.429688 308.925781 L 342.429688 302.46875 L 335.976562 302.46875 L 335.976562 308.925781 Z M 335.976562 308.925781 " transform="matrix(1,0,0,-1,0,792)"/>
<path style="fill-rule:evenodd;fill:rgb(100%,100%,100%);fill-opacity:1;stroke-width:1.44;stroke-linecap:butt;stroke-linejoin:miter;stroke:rgb(13.69955%,12.199588%,12.500191%);stroke-opacity:1;stroke-miterlimit:2.613;" d="M 342.429688 302.46875 L 348.882812 302.46875 L 348.882812 308.921875 L 342.429688 308.921875 L 342.429688 302.46875 Z M 342.429688 302.46875 " transform="matrix(1,0,0,-1,0,792)"/>
<path style="fill-rule:evenodd;fill:rgb(100%,100%,100%);fill-opacity:1;stroke-width:1.44;stroke-linecap:butt;stroke-linejoin:miter;stroke:rgb(13.69955%,12.199588%,12.500191%);stroke-opacity:1;stroke-miterlimit:2.613;" d="M 348.882812 308.925781 L 355.339844 308.925781 L 355.339844 302.46875 L 348.882812 302.46875 L 348.882812 308.925781 Z M 348.882812 308.925781 " transform="matrix(1,0,0,-1,0,792)"/>
<path style="fill-rule:evenodd;fill:rgb(100%,100%,100%);fill-opacity:1;stroke-width:1.44;stroke-linecap:butt;stroke-linejoin:miter;stroke:rgb(13.69955%,12.199588%,12.500191%);stroke-opacity:1;stroke-miterlimit:2.613;" d="M 323.066406 296.015625 L 329.519531 296.015625 L 329.519531 302.46875 L 323.066406 302.46875 L 323.066406 296.015625 Z M 323.066406 296.015625 " transform="matrix(1,0,0,-1,0,792)"/>
<path style="fill-rule:evenodd;fill:rgb(100%,100%,100%);fill-opacity:1;stroke-width:1.44;stroke-linecap:butt;stroke-linejoin:miter;stroke:rgb(13.69955%,12.199588%,12.500191%);stroke-opacity:1;stroke-miterlimit:2.613;" d="M 329.519531 302.46875 L 335.972656 302.46875 L 335.972656 296.015625 L 329.519531 296.015625 L 329.519531 302.46875 Z M 329.519531 302.46875 " transform="matrix(1,0,0,-1,0,792)"/>
<path style="fill-rule:evenodd;fill:rgb(100%,100%,100%);fill-opacity:1;stroke-width:1.44;stroke-linecap:butt;stroke-linejoin:miter;stroke:rgb(13.69955%,12.199588%,12.500191%);stroke-opacity:1;stroke-miterlimit:2.613;" d="M 335.976562 296.015625 L 342.429688 296.015625 L 342.429688 302.46875 L 335.976562 302.46875 L 335.976562 296.015625 Z M 335.976562 296.015625 " transform="matrix(1,0,0,-1,0,792)"/>
<path style="fill-rule:evenodd;fill:rgb(100%,100%,100%);fill-opacity:1;stroke-width:1.44;stroke-linecap:butt;stroke-linejoin:miter;stroke:rgb(13.69955%,12.199588%,12.500191%);stroke-opacity:1;stroke-miterlimit:2.613;" d="M 342.429688 302.46875 L 348.882812 302.46875 L 348.882812 296.015625 L 342.429688 296.015625 L 342.429688 302.46875 Z M 342.429688 302.46875 " transform="matrix(1,0,0,-1,0,792)"/>
<path style="fill-rule:evenodd;fill:rgb(100%,100%,100%);fill-opacity:1;stroke-width:1.44;stroke-linecap:butt;stroke-linejoin:miter;stroke:rgb(13.69955%,12.199588%,12.500191%);stroke-opacity:1;stroke-miterlimit:2.613;" d="M 348.882812 296.015625 L 355.339844 296.015625 L 355.339844 302.46875 L 348.882812 302.46875 L 348.882812 296.015625 Z M 348.882812 296.015625 " transform="matrix(1,0,0,-1,0,792)"/>
<path style="fill-rule:evenodd;fill:rgb(100%,100%,100%);fill-opacity:1;stroke-width:1.44;stroke-linecap:butt;stroke-linejoin:miter;stroke:rgb(13.69955%,12.199588%,12.500191%);stroke-opacity:1;stroke-miterlimit:2.613;" d="M 323.066406 296.015625 L 329.519531 296.015625 L 329.519531 289.5625 L 323.066406 289.5625 L 323.066406 296.015625 Z M 323.066406 296.015625 " transform="matrix(1,0,0,-1,0,792)"/>
<path style="fill-rule:evenodd;fill:rgb(100%,100%,100%);fill-opacity:1;stroke-width:1.44;stroke-linecap:butt;stroke-linejoin:miter;stroke:rgb(13.69955%,12.199588%,12.500191%);stroke-opacity:1;stroke-miterlimit:2.613;" d="M 329.519531 289.558594 L 335.972656 289.558594 L 335.972656 296.015625 L 329.519531 296.015625 L 329.519531 289.558594 Z M 329.519531 289.558594 " transform="matrix(1,0,0,-1,0,792)"/>
<path style="fill-rule:evenodd;fill:rgb(100%,100%,100%);fill-opacity:1;stroke-width:1.44;stroke-linecap:butt;stroke-linejoin:miter;stroke:rgb(13.69955%,12.199588%,12.500191%);stroke-opacity:1;stroke-miterlimit:2.613;" d="M 335.976562 296.015625 L 342.429688 296.015625 L 342.429688 289.5625 L 335.976562 289.5625 L 335.976562 296.015625 Z M 335.976562 296.015625 " transform="matrix(1,0,0,-1,0,792)"/>
<path style="fill-rule:evenodd;fill:rgb(100%,100%,100%);fill-opacity:1;stroke-width:1.44;stroke-linecap:butt;stroke-linejoin:miter;stroke:rgb(13.69955%,12.199588%,12.500191%);stroke-opacity:1;stroke-miterlimit:2.613;" d="M 342.429688 289.558594 L 348.882812 289.558594 L 348.882812 296.015625 L 342.429688 296.015625 L 342.429688 289.558594 Z M 342.429688 289.558594 " transform="matrix(1,0,0,-1,0,792)"/>
<path style="fill-rule:evenodd;fill:rgb(100%,100%,100%);fill-opacity:1;stroke-width:1.44;stroke-linecap:butt;stroke-linejoin:miter;stroke:rgb(13.69955%,12.199588%,12.500191%);stroke-opacity:1;stroke-miterlimit:2.613;" d="M 348.882812 296.015625 L 355.339844 296.015625 L 355.339844 289.5625 L 348.882812 289.5625 L 348.882812 296.015625 Z M 348.882812 296.015625 " transform="matrix(1,0,0,-1,0,792)"/>
<path style="fill-rule:evenodd;fill:rgb(100%,100%,100%);fill-opacity:1;stroke-width:1.44;stroke-linecap:butt;stroke-linejoin:miter;stroke:rgb(13.69955%,12.199588%,12.500191%);stroke-opacity:1;stroke-miterlimit:2.613;" d="M 323.066406 283.105469 L 329.519531 283.105469 L 329.519531 289.558594 L 323.066406 289.558594 L 323.066406 283.105469 Z M 323.066406 283.105469 " transform="matrix(1,0,0,-1,0,792)"/>
<path style="fill-rule:evenodd;fill:rgb(100%,100%,100%);fill-opacity:1;stroke-width:1.44;stroke-linecap:butt;stroke-linejoin:miter;stroke:rgb(13.69955%,12.199588%,12.500191%);stroke-opacity:1;stroke-miterlimit:2.613;" d="M 329.519531 289.558594 L 335.972656 289.558594 L 335.972656 283.105469 L 329.519531 283.105469 L 329.519531 289.558594 Z M 329.519531 289.558594 " transform="matrix(1,0,0,-1,0,792)"/>
<path style="fill-rule:evenodd;fill:rgb(100%,100%,100%);fill-opacity:1;stroke-width:1.44;stroke-linecap:butt;stroke-linejoin:miter;stroke:rgb(13.69955%,12.199588%,12.500191%);stroke-opacity:1;stroke-miterlimit:2.613;" d="M 335.976562 283.105469 L 342.429688 283.105469 L 342.429688 289.558594 L 335.976562 289.558594 L 335.976562 283.105469 Z M 335.976562 283.105469 " transform="matrix(1,0,0,-1,0,792)"/>
<path style="fill-rule:evenodd;fill:rgb(100%,100%,100%);fill-opacity:1;stroke-width:1.44;stroke-linecap:butt;stroke-linejoin:miter;stroke:rgb(13.69955%,12.199588%,12.500191%);stroke-opacity:1;stroke-miterlimit:2.613;" d="M 342.429688 289.558594 L 348.882812 289.558594 L 348.882812 283.105469 L 342.429688 283.105469 L 342.429688 289.558594 Z M 342.429688 289.558594 " transform="matrix(1,0,0,-1,0,792)"/>
<path style="fill-rule:evenodd;fill:rgb(100%,100%,100%);fill-opacity:1;stroke-width:1.44;stroke-linecap:butt;stroke-linejoin:miter;stroke:rgb(13.69955%,12.199588%,12.500191%);stroke-opacity:1;stroke-miterlimit:2.613;" d="M 348.882812 283.105469 L 355.339844 283.105469 L 355.339844 289.558594 L 348.882812 289.558594 L 348.882812 283.105469 Z M 348.882812 283.105469 " transform="matrix(1,0,0,-1,0,792)"/>
<path style="fill-rule:evenodd;fill:rgb(100%,100%,100%);fill-opacity:1;stroke-width:1.44;stroke-linecap:butt;stroke-linejoin:miter;stroke:rgb(13.69955%,12.199588%,12.500191%);stroke-opacity:1;stroke-miterlimit:2.613;" d="M 323.066406 283.105469 L 329.519531 283.105469 L 329.519531 276.652344 L 323.066406 276.652344 L 323.066406 283.105469 Z M 323.066406 283.105469 " transform="matrix(1,0,0,-1,0,792)"/>
<path style="fill-rule:evenodd;fill:rgb(100%,100%,100%);fill-opacity:1;stroke-width:1.44;stroke-linecap:butt;stroke-linejoin:miter;stroke:rgb(13.69955%,12.199588%,12.500191%);stroke-opacity:1;stroke-miterlimit:2.613;" d="M 329.519531 276.652344 L 335.972656 276.652344 L 335.972656 283.105469 L 329.519531 283.105469 L 329.519531 276.652344 Z M 329.519531 276.652344 " transform="matrix(1,0,0,-1,0,792)"/>
<path style="fill-rule:evenodd;fill:rgb(100%,100%,100%);fill-opacity:1;stroke-width:1.44;stroke-linecap:butt;stroke-linejoin:miter;stroke:rgb(13.69955%,12.199588%,12.500191%);stroke-opacity:1;stroke-miterlimit:2.613;" d="M 335.976562 283.105469 L 342.429688 283.105469 L 342.429688 276.652344 L 335.976562 276.652344 L 335.976562 283.105469 Z M 335.976562 283.105469 " transform="matrix(1,0,0,-1,0,792)"/>
<path style="fill-rule:evenodd;fill:rgb(100%,100%,100%);fill-opacity:1;stroke-width:1.44;stroke-linecap:butt;stroke-linejoin:miter;stroke:rgb(13.69955%,12.199588%,12.500191%);stroke-opacity:1;stroke-miterlimit:2.613;" d="M 342.429688 276.652344 L 348.882812 276.652344 L 348.882812 283.105469 L 342.429688 283.105469 L 342.429688 276.652344 Z M 342.429688 276.652344 " transform="matrix(1,0,0,-1,0,792)"/>
<path style="fill-rule:evenodd;fill:rgb(100%,100%,100%);fill-opacity:1;stroke-width:1.44;stroke-linecap:butt;stroke-linejoin:miter;stroke:rgb(13.69955%,12.199588%,12.500191%);stroke-opacity:1;stroke-miterlimit:2.613;" d="M 348.882812 283.105469 L 355.339844 283.105469 L 355.339844 276.652344 L 348.882812 276.652344 L 348.882812 283.105469 Z M 348.882812 283.105469 " transform="matrix(1,0,0,-1,0,792)"/>

</svg>