<svg xmlns="http://www.w3.org/2000/svg" xmlns:xlink="http://www.w3.org/1999/xlink" width="612pt" height="792pt" viewBox="0 0 612 792" version="1.1">

<!-- HK Control System (24) -->
<path style="fill-rule:evenodd;fill:rgb(100%,100%,100%);fill-opacity:1;stroke-width:0.72;stroke-linecap:butt;stroke-linejoin:miter;stroke:rgb(13.69955%,12.199588%,12.500191%);stroke-opacity:1;stroke-miterlimit:2.613;" d="M 278.867188 230.863281 L 285.609375 230.863281 L 278.867188 235.507812 L 285.609375 235.507812 L 278.867188 240.03125 L 294.984375 240.03125 L 299.195312 243.382812 L 299.195312 240.03125 L 303.617188 240.03125 L 303.617188 243.382812 L 307.832031 240.03125 L 323.949219 240.03125 L 317.207031 235.507812 L 323.949219 235.507812 L 317.207031 230.863281 L 323.941406 230.863281 L 323.941406 198.816406 L 278.867188 198.816406 L 278.867188 230.863281 Z M 278.867188 230.863281 " transform="matrix(1,0,0,-1,0,792)"/>

<!-- Annotation -->
<path style="opacity:0.5;fill:#ffffff;fill-opacity:1;fill-rule:evenodd;stroke:#ff1e1e;stroke-width:1.44000006;stroke-linecap:butt;stroke-linejoin:miter;stroke-miterlimit:2.61299992;stroke-opacity:1" d="m 298.14474,560.15102 6.45313,0 0,-6.45312 -6.45313,0 0,6.45312 z m 0,0"/>
     
<!-- Damage Boxes -->
<path style="fill-rule:evenodd;fill:rgb(100%,100%,100%);fill-opacity:1;stroke-width:1.44;stroke-linecap:butt;stroke-linejoin:miter;stroke:rgb(13.69955%,12.199588%,12.500191%);stroke-opacity:1;stroke-miterlimit:2.613;" d="M 282.042969 227.503906 L 288.5 227.503906 L 288.5 221.050781 L 282.042969 221.050781 L 282.042969 227.503906 Z M 282.042969 227.503906 " transform="matrix(1,0,0,-1,0,792)"/>
<path style="fill-rule:evenodd;fill:rgb(100%,100%,100%);fill-opacity:1;stroke-width:1.44;stroke-linecap:butt;stroke-linejoin:miter;stroke:rgb(13.69955%,12.199588%,12.500191%);stroke-opacity:1;stroke-miterlimit:2.613;" d="M 288.5 221.050781 L 294.953125 221.050781 L 294.953125 227.503906 L 288.5 227.503906 L 288.5 221.050781 Z M 288.5 221.050781 " transform="matrix(1,0,0,-1,0,792)"/>
<path style="fill-rule:evenodd;fill:rgb(100%,100%,100%);fill-opacity:1;stroke-width:1.44;stroke-linecap:butt;stroke-linejoin:miter;stroke:rgb(13.69955%,12.199588%,12.500191%);stroke-opacity:1;stroke-miterlimit:2.613;" d="M 294.953125 227.503906 L 301.40625 227.503906 L 301.40625 221.050781 L 294.953125 221.050781 L 294.953125 227.503906 Z M 294.953125 227.503906 " transform="matrix(1,0,0,-1,0,792)"/>
<path style="fill-rule:evenodd;fill:rgb(100%,100%,100%);fill-opacity:1;stroke-width:1.44;stroke-linecap:butt;stroke-linejoin:miter;stroke:rgb(13.69955%,12.199588%,12.500191%);stroke-opacity:1;stroke-miterlimit:2.613;" d="M 301.40625 221.050781 L 307.863281 221.050781 L 307.863281 227.503906 L 301.40625 227.503906 L 301.40625 221.050781 Z M 301.40625 221.050781 " transform="matrix(1,0,0,-1,0,792)"/>
<path style="fill-rule:evenodd;fill:rgb(100%,100%,100%);fill-opacity:1;stroke-width:1.44;stroke-linecap:butt;stroke-linejoin:miter;stroke:rgb(13.69955%,12.199588%,12.500191%);stroke-opacity:1;stroke-miterlimit:2.613;" d="M 307.863281 227.503906 L 314.316406 227.503906 L 314.316406 221.050781 L 307.863281 221.050781 L 307.863281 227.503906 Z M 307.863281 227.503906 " transform="matrix(1,0,0,-1,0,792)"/>
<path style="fill-rule:evenodd;fill:rgb(100%,100%,100%);fill-opacity:1;stroke-width:1.44;stroke-linecap:butt;stroke-linejoin:miter;stroke:rgb(13.69955%,12.199588%,12.500191%);stroke-opacity:1;stroke-miterlimit:2.613;" d="M 314.316406 221.050781 L 320.769531 221.050781 L 320.769531 227.503906 L 314.316406 227.503906 L 314.316406 221.050781 Z M 314.316406 221.050781 " transform="matrix(1,0,0,-1,0,792)"/>
<path style="fill-rule:evenodd;fill:rgb(100%,100%,100%);fill-opacity:1;stroke-width:1.44;stroke-linecap:butt;stroke-linejoin:miter;stroke:rgb(13.69955%,12.199588%,12.500191%);stroke-opacity:1;stroke-miterlimit:2.613;" d="M 282.042969 214.597656 L 288.5 214.597656 L 288.5 221.050781 L 282.042969 221.050781 L 282.042969 214.597656 Z M 282.042969 214.597656 " transform="matrix(1,0,0,-1,0,792)"/>
<path style="fill-rule:evenodd;fill:rgb(100%,100%,100%);fill-opacity:1;stroke-width:1.44;stroke-linecap:butt;stroke-linejoin:miter;stroke:rgb(13.69955%,12.199588%,12.500191%);stroke-opacity:1;stroke-miterlimit:2.613;" d="M 288.5 221.050781 L 294.953125 221.050781 L 294.953125 214.597656 L 288.5 214.597656 L 288.5 221.050781 Z M 288.5 221.050781 " transform="matrix(1,0,0,-1,0,792)"/>
<path style="fill-rule:evenodd;fill:rgb(100%,100%,100%);fill-opacity:1;stroke-width:1.44;stroke-linecap:butt;stroke-linejoin:miter;stroke:rgb(13.69955%,12.199588%,12.500191%);stroke-opacity:1;stroke-miterlimit:2.613;" d="M 294.953125 214.597656 L 301.40625 214.597656 L 301.40625 221.050781 L 294.953125 221.050781 L 294.953125 214.597656 Z M 294.953125 214.597656 " transform="matrix(1,0,0,-1,0,792)"/>
<path style="fill-rule:evenodd;fill:rgb(100%,100%,100%);fill-opacity:1;stroke-width:1.44;stroke-linecap:butt;stroke-linejoin:miter;stroke:rgb(13.69955%,12.199588%,12.500191%);stroke-opacity:1;stroke-miterlimit:2.613;" d="M 301.40625 221.050781 L 307.863281 221.050781 L 307.863281 214.597656 L 301.40625 214.597656 L 301.40625 221.050781 Z M 301.40625 221.050781 " transform="matrix(1,0,0,-1,0,792)"/>
<path style="fill-rule:evenodd;fill:rgb(100%,100%,100%);fill-opacity:1;stroke-width:1.44;stroke-linecap:butt;stroke-linejoin:miter;stroke:rgb(13.69955%,12.199588%,12.500191%);stroke-opacity:1;stroke-miterlimit:2.613;" d="M 307.863281 214.597656 L 314.316406 214.597656 L 314.316406 221.050781 L 307.863281 221.050781 L 307.863281 214.597656 Z M 307.863281 214.597656 " transform="matrix(1,0,0,-1,0,792)"/>
<path style="fill-rule:evenodd;fill:rgb(100%,100%,100%);fill-opacity:1;stroke-width:1.44;stroke-linecap:butt;stroke-linejoin:miter;stroke:rgb(13.69955%,12.199588%,12.500191%);stroke-opacity:1;stroke-miterlimit:2.613;" d="M 314.316406 221.050781 L 320.769531 221.050781 L 320.769531 214.597656 L 314.316406 214.597656 L 314.316406 221.050781 Z M 314.316406 221.050781 " transform="matrix(1,0,0,-1,0,792)"/>
<path style="fill-rule:evenodd;fill:rgb(100%,100%,100%);fill-opacity:1;stroke-width:1.44;stroke-linecap:butt;stroke-linejoin:miter;stroke:rgb(13.69955%,12.199588%,12.500191%);stroke-opacity:1;stroke-miterlimit:2.613;" d="M 282.042969 214.597656 L 288.5 214.597656 L 288.5 208.140625 L 282.042969 208.140625 L 282.042969 214.597656 Z M 282.042969 214.597656 " transform="matrix(1,0,0,-1,0,792)"/>
<path style="fill-rule:evenodd;fill:rgb(100%,100%,100%);fill-opacity:1;stroke-width:1.44;stroke-linecap:butt;stroke-linejoin:miter;stroke:rgb(13.69955%,12.199588%,12.500191%);stroke-opacity:1;stroke-miterlimit:2.613;" d="M 288.5 208.140625 L 294.953125 208.140625 L 294.953125 214.597656 L 288.5 214.597656 L 288.5 208.140625 Z M 288.5 208.140625 " transform="matrix(1,0,0,-1,0,792)"/>
<path style="fill-rule:evenodd;fill:rgb(100%,100%,100%);fill-opacity:1;stroke-width:1.44;stroke-linecap:butt;stroke-linejoin:miter;stroke:rgb(13.69955%,12.199588%,12.500191%);stroke-opacity:1;stroke-miterlimit:2.613;" d="M 294.953125 214.597656 L 301.40625 214.597656 L 301.40625 208.140625 L 294.953125 208.140625 L 294.953125 214.597656 Z M 294.953125 214.597656 " transform="matrix(1,0,0,-1,0,792)"/>
<path style="fill-rule:evenodd;fill:rgb(100%,100%,100%);fill-opacity:1;stroke-width:1.44;stroke-linecap:butt;stroke-linejoin:miter;stroke:rgb(13.69955%,12.199588%,12.500191%);stroke-opacity:1;stroke-miterlimit:2.613;" d="M 301.40625 208.140625 L 307.863281 208.140625 L 307.863281 214.597656 L 301.40625 214.597656 L 301.40625 208.140625 Z M 301.40625 208.140625 " transform="matrix(1,0,0,-1,0,792)"/>
<path style="fill-rule:evenodd;fill:rgb(100%,100%,100%);fill-opacity:1;stroke-width:1.44;stroke-linecap:butt;stroke-linejoin:miter;stroke:rgb(13.69955%,12.199588%,12.500191%);stroke-opacity:1;stroke-miterlimit:2.613;" d="M 307.863281 214.597656 L 314.316406 214.597656 L 314.316406 208.140625 L 307.863281 208.140625 L 307.863281 214.597656 Z M 307.863281 214.597656 " transform="matrix(1,0,0,-1,0,792)"/>
<path style="fill-rule:evenodd;fill:rgb(100%,100%,100%);fill-opacity:1;stroke-width:1.44;stroke-linecap:butt;stroke-linejoin:miter;stroke:rgb(13.69955%,12.199588%,12.500191%);stroke-opacity:1;stroke-miterlimit:2.613;" d="M 314.316406 208.140625 L 320.769531 208.140625 L 320.769531 214.597656 L 314.316406 214.597656 L 314.316406 208.140625 Z M 314.316406 208.140625 " transform="matrix(1,0,0,-1,0,792)"/>
<path style="fill-rule:evenodd;fill:rgb(100%,100%,100%);fill-opacity:1;stroke-width:1.44;stroke-linecap:butt;stroke-linejoin:miter;stroke:rgb(13.69955%,12.199588%,12.500191%);stroke-opacity:1;stroke-miterlimit:2.613;" d="M 282.042969 201.6875 L 288.5 201.6875 L 288.5 208.140625 L 282.042969 208.140625 L 282.042969 201.6875 Z M 282.042969 201.6875 " transform="matrix(1,0,0,-1,0,792)"/>
<path style="fill-rule:evenodd;fill:rgb(100%,100%,100%);fill-opacity:1;stroke-width:1.44;stroke-linecap:butt;stroke-linejoin:miter;stroke:rgb(13.69955%,12.199588%,12.500191%);stroke-opacity:1;stroke-miterlimit:2.613;" d="M 288.5 208.140625 L 294.953125 208.140625 L 294.953125 201.6875 L 288.5 201.6875 L 288.5 208.140625 Z M 288.5 208.140625 " transform="matrix(1,0,0,-1,0,792)"/>
<path style="fill-rule:evenodd;fill:rgb(100%,100%,100%);fill-opacity:1;stroke-width:1.44;stroke-linecap:butt;stroke-linejoin:miter;stroke:rgb(13.69955%,12.199588%,12.500191%);stroke-opacity:1;stroke-miterlimit:2.613;" d="M 294.953125 201.6875 L 301.40625 201.6875 L 301.40625 208.140625 L 294.953125 208.140625 L 294.953125 201.6875 Z M 294.953125 201.6875 " transform="matrix(1,0,0,-1,0,792)"/>
<path style="fill-rule:evenodd;fill:rgb(100%,100%,100%);fill-opacity:1;stroke-width:1.44;stroke-linecap:butt;stroke-linejoin:miter;stroke:rgb(13.69955%,12.199588%,12.500191%);stroke-opacity:1;stroke-miterlimit:2.613;" d="M 301.40625 208.140625 L 307.863281 208.140625 L 307.863281 201.6875 L 301.40625 201.6875 L 301.40625 208.140625 Z M 301.40625 208.140625 " transform="matrix(1,0,0,-1,0,792)"/>
<path style="fill-rule:evenodd;fill:rgb(100%,100%,100%);fill-opacity:1;stroke-width:1.44;stroke-linecap:butt;stroke-linejoin:miter;stroke:rgb(13.69955%,12.199588%,12.500191%);stroke-opacity:1;stroke-miterlimit:2.613;" d="M 307.863281 201.6875 L 314.316406 201.6875 L 314.316406 208.140625 L 307.863281 208.140625 L 307.863281 201.6875 Z M 307.863281 201.6875 " transform="matrix(1,0,0,-1,0,792)"/>
<path style="fill-rule:evenodd;fill:rgb(100%,100%,100%);fill-opacity:1;stroke-width:1.44;stroke-linecap:butt;stroke-linejoin:miter;stroke:rgb(13.69955%,12.199588%,12.500191%);stroke-opacity:1;stroke-miterlimit:2.613;" d="M 314.316406 208.140625 L 320.769531 208.140625 L 320.769531 201.6875 L 314.316406 201.6875 L 314.316406 208.140625 Z M 314.316406 208.140625 " transform="matrix(1,0,0,-1,0,792)"/>

</svg>