<svg xmlns="http://www.w3.org/2000/svg" xmlns:xlink="http://www.w3.org/1999/xlink" width="612pt" height="792pt" viewBox="0 0 612 792" version="1.1">

<!-- Hypergraviton Blaster -->
<path style="fill-rule:nonzero;fill:rgb(100%,100%,100%);fill-opacity:1;stroke-width:0.75;stroke-linecap:butt;stroke-linejoin:miter;stroke:rgb(13.730068%,12.159915%,12.54902%);stroke-opacity:1;stroke-miterlimit:4;" d="M 310.5625 477 L 328.5625 477 L 328.5625 526.5 L 321.8125 526.5 C 321.8125 526.5 324.0625 528.75 324.0625 531 C 324.0625 533.25 321.8125 535.5 321.8125 535.5 L 319.5625 535.5 C 319.5625 535.5 321.8125 537.75 321.8125 540 C 321.8125 542.25 319.5625 544.5 319.5625 544.5 L 317.3125 544.5 C 317.3125 544.5 319.5625 546.75 319.5625 549 C 319.5625 551.25 317.3125 553.5 317.3125 553.5 L 315.0625 553.5 L 310.5625 567 L 306.0625 553.5 L 303.8125 553.5 C 303.8125 553.5 301.5625 551.25 301.5625 549 C 301.5625 546.75 303.8125 544.5 303.8125 544.5 L 301.5625 544.5 C 301.5625 544.5 299.3125 542.25 299.3125 540 C 299.3125 537.75 301.5625 535.5 301.5625 535.5 L 299.3125 535.5 C 299.3125 535.5 297.0625 533.25 297.0625 531 C 297.0625 528.75 299.3125 526.5 299.3125 526.5 L 292.5625 526.5 L 292.5625 477 L 310.5625 477 Z M 310.5625 477 " transform="matrix(1,0,0,-1,0,793)"/>

<!-- Damage Boxes -->
<path style="fill-rule:nonzero;fill:rgb(100%,100%,100%);fill-opacity:1;stroke-width:1.5;stroke-linecap:butt;stroke-linejoin:miter;stroke:rgb(13.730068%,12.159915%,12.54902%);stroke-opacity:1;stroke-miterlimit:4;" d="M 313.9375 542.25 L 313.9375 549 L 307.1875 549 L 307.1875 542.25 L 313.9375 542.25 Z M 313.9375 542.25 " transform="matrix(1,0,0,-1,0,793)"/>
<path style="fill-rule:nonzero;fill:rgb(100%,100%,100%);fill-opacity:1;stroke-width:1.5;stroke-linecap:butt;stroke-linejoin:miter;stroke:rgb(13.730068%,12.159915%,12.54902%);stroke-opacity:1;stroke-miterlimit:4;" d="M 313.9375 535.5 L 313.9375 542.25 L 307.1875 542.25 L 307.1875 535.5 L 313.9375 535.5 Z M 313.9375 535.5 " transform="matrix(1,0,0,-1,0,793)"/>
<path style="fill-rule:nonzero;fill:rgb(100%,100%,100%);fill-opacity:1;stroke-width:1.5;stroke-linecap:butt;stroke-linejoin:miter;stroke:rgb(13.730068%,12.159915%,12.54902%);stroke-opacity:1;stroke-miterlimit:4;" d="M 310.5625 528.75 L 310.5625 535.5 L 303.8125 535.5 L 303.8125 528.75 L 310.5625 528.75 Z M 310.5625 528.75 " transform="matrix(1,0,0,-1,0,793)"/>
<path style="fill-rule:nonzero;fill:rgb(100%,100%,100%);fill-opacity:1;stroke-width:1.5;stroke-linecap:butt;stroke-linejoin:miter;stroke:rgb(13.730068%,12.159915%,12.54902%);stroke-opacity:1;stroke-miterlimit:4;" d="M 317.3125 528.75 L 317.3125 535.5 L 310.5625 535.5 L 310.5625 528.75 L 317.3125 528.75 Z M 317.3125 528.75 " transform="matrix(1,0,0,-1,0,793)"/>
<path style="fill-rule:nonzero;fill:rgb(100%,100%,100%);fill-opacity:1;stroke-width:1.5;stroke-linecap:butt;stroke-linejoin:miter;stroke:rgb(13.730068%,12.159915%,12.54902%);stroke-opacity:1;stroke-miterlimit:4;" d="M 310.5625 522 L 310.5625 528.75 L 303.8125 528.75 L 303.8125 522 L 310.5625 522 Z M 310.5625 522 " transform="matrix(1,0,0,-1,0,793)"/>
<path style="fill-rule:nonzero;fill:rgb(100%,100%,100%);fill-opacity:1;stroke-width:1.5;stroke-linecap:butt;stroke-linejoin:miter;stroke:rgb(13.730068%,12.159915%,12.54902%);stroke-opacity:1;stroke-miterlimit:4;" d="M 317.3125 522 L 317.3125 528.75 L 310.5625 528.75 L 310.5625 522 L 317.3125 522 Z M 317.3125 522 " transform="matrix(1,0,0,-1,0,793)"/>
<path style="fill-rule:nonzero;fill:rgb(100%,100%,100%);fill-opacity:1;stroke-width:1.5;stroke-linecap:butt;stroke-linejoin:miter;stroke:rgb(13.730068%,12.159915%,12.54902%);stroke-opacity:1;stroke-miterlimit:4;" d="M 303.8125 515.25 L 303.8125 522 L 297.0625 522 L 297.0625 515.25 L 303.8125 515.25 Z M 303.8125 515.25 " transform="matrix(1,0,0,-1,0,793)"/>
<path style="fill-rule:nonzero;fill:rgb(100%,100%,100%);fill-opacity:1;stroke-width:1.5;stroke-linecap:butt;stroke-linejoin:miter;stroke:rgb(13.730068%,12.159915%,12.54902%);stroke-opacity:1;stroke-miterlimit:4;" d="M 310.5625 515.25 L 310.5625 522 L 303.8125 522 L 303.8125 515.25 L 310.5625 515.25 Z M 310.5625 515.25 " transform="matrix(1,0,0,-1,0,793)"/>
<path style="fill-rule:nonzero;fill:rgb(100%,100%,100%);fill-opacity:1;stroke-width:1.5;stroke-linecap:butt;stroke-linejoin:miter;stroke:rgb(13.730068%,12.159915%,12.54902%);stroke-opacity:1;stroke-miterlimit:4;" d="M 317.3125 515.25 L 317.3125 522 L 310.5625 522 L 310.5625 515.25 L 317.3125 515.25 Z M 317.3125 515.25 " transform="matrix(1,0,0,-1,0,793)"/>
<path style="fill-rule:nonzero;fill:rgb(100%,100%,100%);fill-opacity:1;stroke-width:1.5;stroke-linecap:butt;stroke-linejoin:miter;stroke:rgb(13.730068%,12.159915%,12.54902%);stroke-opacity:1;stroke-miterlimit:4;" d="M 324.0625 515.25 L 324.0625 522 L 317.3125 522 L 317.3125 515.25 L 324.0625 515.25 Z M 324.0625 515.25 " transform="matrix(1,0,0,-1,0,793)"/>
<path style="fill-rule:nonzero;fill:rgb(100%,100%,100%);fill-opacity:1;stroke-width:1.5;stroke-linecap:butt;stroke-linejoin:miter;stroke:rgb(13.730068%,12.159915%,12.54902%);stroke-opacity:1;stroke-miterlimit:4;" d="M 303.8125 508.5 L 303.8125 515.25 L 297.0625 515.25 L 297.0625 508.5 L 303.8125 508.5 Z M 303.8125 508.5 " transform="matrix(1,0,0,-1,0,793)"/>
<path style="fill-rule:nonzero;fill:rgb(100%,100%,100%);fill-opacity:1;stroke-width:1.5;stroke-linecap:butt;stroke-linejoin:miter;stroke:rgb(13.730068%,12.159915%,12.54902%);stroke-opacity:1;stroke-miterlimit:4;" d="M 310.5625 508.5 L 310.5625 515.25 L 303.8125 515.25 L 303.8125 508.5 L 310.5625 508.5 Z M 310.5625 508.5 " transform="matrix(1,0,0,-1,0,793)"/>
<path style="fill-rule:nonzero;fill:rgb(100%,100%,100%);fill-opacity:1;stroke-width:1.5;stroke-linecap:butt;stroke-linejoin:miter;stroke:rgb(13.730068%,12.159915%,12.54902%);stroke-opacity:1;stroke-miterlimit:4;" d="M 317.3125 508.5 L 317.3125 515.25 L 310.5625 515.25 L 310.5625 508.5 L 317.3125 508.5 Z M 317.3125 508.5 " transform="matrix(1,0,0,-1,0,793)"/>
<path style="fill-rule:nonzero;fill:rgb(100%,100%,100%);fill-opacity:1;stroke-width:1.5;stroke-linecap:butt;stroke-linejoin:miter;stroke:rgb(13.730068%,12.159915%,12.54902%);stroke-opacity:1;stroke-miterlimit:4;" d="M 324.0625 508.5 L 324.0625 515.25 L 317.3125 515.25 L 317.3125 508.5 L 324.0625 508.5 Z M 324.0625 508.5 " transform="matrix(1,0,0,-1,0,793)"/>
<path style="fill-rule:nonzero;fill:rgb(100%,100%,100%);fill-opacity:1;stroke-width:1.5;stroke-linecap:butt;stroke-linejoin:miter;stroke:rgb(13.730068%,12.159915%,12.54902%);stroke-opacity:1;stroke-miterlimit:4;" d="M 303.8125 501.75 L 303.8125 508.5 L 297.0625 508.5 L 297.0625 501.75 L 303.8125 501.75 Z M 303.8125 501.75 " transform="matrix(1,0,0,-1,0,793)"/>
<path style="fill-rule:nonzero;fill:rgb(100%,100%,100%);fill-opacity:1;stroke-width:1.5;stroke-linecap:butt;stroke-linejoin:miter;stroke:rgb(13.730068%,12.159915%,12.54902%);stroke-opacity:1;stroke-miterlimit:4;" d="M 310.5625 501.75 L 310.5625 508.5 L 303.8125 508.5 L 303.8125 501.75 L 310.5625 501.75 Z M 310.5625 501.75 " transform="matrix(1,0,0,-1,0,793)"/>
<path style="fill-rule:nonzero;fill:rgb(100%,100%,100%);fill-opacity:1;stroke-width:1.5;stroke-linecap:butt;stroke-linejoin:miter;stroke:rgb(13.730068%,12.159915%,12.54902%);stroke-opacity:1;stroke-miterlimit:4;" d="M 317.3125 501.75 L 317.3125 508.5 L 310.5625 508.5 L 310.5625 501.75 L 317.3125 501.75 Z M 317.3125 501.75 " transform="matrix(1,0,0,-1,0,793)"/>
<path style="fill-rule:nonzero;fill:rgb(100%,100%,100%);fill-opacity:1;stroke-width:1.5;stroke-linecap:butt;stroke-linejoin:miter;stroke:rgb(13.730068%,12.159915%,12.54902%);stroke-opacity:1;stroke-miterlimit:4;" d="M 324.0625 501.75 L 324.0625 508.5 L 317.3125 508.5 L 317.3125 501.75 L 324.0625 501.75 Z M 324.0625 501.75 " transform="matrix(1,0,0,-1,0,793)"/>
<path style="fill-rule:nonzero;fill:rgb(100%,100%,100%);fill-opacity:1;stroke-width:1.5;stroke-linecap:butt;stroke-linejoin:miter;stroke:rgb(13.730068%,12.159915%,12.54902%);stroke-opacity:1;stroke-miterlimit:4;" d="M 303.8125 495 L 303.8125 501.75 L 297.0625 501.75 L 297.0625 495 L 303.8125 495 Z M 303.8125 495 " transform="matrix(1,0,0,-1,0,793)"/>
<path style="fill-rule:nonzero;fill:rgb(100%,100%,100%);fill-opacity:1;stroke-width:1.5;stroke-linecap:butt;stroke-linejoin:miter;stroke:rgb(13.730068%,12.159915%,12.54902%);stroke-opacity:1;stroke-miterlimit:4;" d="M 310.5625 495 L 310.5625 501.75 L 303.8125 501.75 L 303.8125 495 L 310.5625 495 Z M 310.5625 495 " transform="matrix(1,0,0,-1,0,793)"/>
<path style="fill-rule:nonzero;fill:rgb(100%,100%,100%);fill-opacity:1;stroke-width:1.5;stroke-linecap:butt;stroke-linejoin:miter;stroke:rgb(13.730068%,12.159915%,12.54902%);stroke-opacity:1;stroke-miterlimit:4;" d="M 317.3125 495 L 317.3125 501.75 L 310.5625 501.75 L 310.5625 495 L 317.3125 495 Z M 317.3125 495 " transform="matrix(1,0,0,-1,0,793)"/>
<path style="fill-rule:nonzero;fill:rgb(100%,100%,100%);fill-opacity:1;stroke-width:1.5;stroke-linecap:butt;stroke-linejoin:miter;stroke:rgb(13.730068%,12.159915%,12.54902%);stroke-opacity:1;stroke-miterlimit:4;" d="M 324.0625 495 L 324.0625 501.75 L 317.3125 501.75 L 317.3125 495 L 324.0625 495 Z M 324.0625 495 " transform="matrix(1,0,0,-1,0,793)"/>
<path style="fill-rule:nonzero;fill:rgb(100%,100%,100%);fill-opacity:1;stroke-width:1.5;stroke-linecap:butt;stroke-linejoin:miter;stroke:rgb(13.730068%,12.159915%,12.54902%);stroke-opacity:1;stroke-miterlimit:4;" d="M 303.8125 488.25 L 303.8125 495 L 297.0625 495 L 297.0625 488.25 L 303.8125 488.25 Z M 303.8125 488.25 " transform="matrix(1,0,0,-1,0,793)"/>
<path style="fill-rule:nonzero;fill:rgb(100%,100%,100%);fill-opacity:1;stroke-width:1.5;stroke-linecap:butt;stroke-linejoin:miter;stroke:rgb(13.730068%,12.159915%,12.54902%);stroke-opacity:1;stroke-miterlimit:4;" d="M 310.5625 488.25 L 310.5625 495 L 303.8125 495 L 303.8125 488.25 L 310.5625 488.25 Z M 310.5625 488.25 " transform="matrix(1,0,0,-1,0,793)"/>
<path style="fill-rule:nonzero;fill:rgb(100%,100%,100%);fill-opacity:1;stroke-width:1.5;stroke-linecap:butt;stroke-linejoin:miter;stroke:rgb(13.730068%,12.159915%,12.54902%);stroke-opacity:1;stroke-miterlimit:4;" d="M 317.3125 488.25 L 317.3125 495 L 310.5625 495 L 310.5625 488.25 L 317.3125 488.25 Z M 317.3125 488.25 " transform="matrix(1,0,0,-1,0,793)"/>
<path style="fill-rule:nonzero;fill:rgb(100%,100%,100%);fill-opacity:1;stroke-width:1.5;stroke-linecap:butt;stroke-linejoin:miter;stroke:rgb(13.730068%,12.159915%,12.54902%);stroke-opacity:1;stroke-miterlimit:4;" d="M 324.0625 488.25 L 324.0625 495 L 317.3125 495 L 317.3125 488.25 L 324.0625 488.25 Z M 324.0625 488.25 " transform="matrix(1,0,0,-1,0,793)"/>
<path style="fill-rule:nonzero;fill:rgb(100%,100%,100%);fill-opacity:1;stroke-width:1.5;stroke-linecap:butt;stroke-linejoin:miter;stroke:rgb(13.730068%,12.159915%,12.54902%);stroke-opacity:1;stroke-miterlimit:4;" d="M 303.8125 481.5 L 303.8125 488.25 L 297.0625 488.25 L 297.0625 481.5 L 303.8125 481.5 Z M 303.8125 481.5 " transform="matrix(1,0,0,-1,0,793)"/>
<path style="fill-rule:nonzero;fill:rgb(100%,100%,100%);fill-opacity:1;stroke-width:1.5;stroke-linecap:butt;stroke-linejoin:miter;stroke:rgb(13.730068%,12.159915%,12.54902%);stroke-opacity:1;stroke-miterlimit:4;" d="M 310.5625 481.5 L 310.5625 488.25 L 303.8125 488.25 L 303.8125 481.5 L 310.5625 481.5 Z M 310.5625 481.5 " transform="matrix(1,0,0,-1,0,793)"/>
<path style="fill-rule:nonzero;fill:rgb(100%,100%,100%);fill-opacity:1;stroke-width:1.5;stroke-linecap:butt;stroke-linejoin:miter;stroke:rgb(13.730068%,12.159915%,12.54902%);stroke-opacity:1;stroke-miterlimit:4;" d="M 317.3125 481.5 L 317.3125 488.25 L 310.5625 488.25 L 310.5625 481.5 L 317.3125 481.5 Z M 317.3125 481.5 " transform="matrix(1,0,0,-1,0,793)"/>
<path style="fill-rule:nonzero;fill:rgb(100%,100%,100%);fill-opacity:1;stroke-width:1.5;stroke-linecap:butt;stroke-linejoin:miter;stroke:rgb(13.730068%,12.159915%,12.54902%);stroke-opacity:1;stroke-miterlimit:4;" d="M 324.0625 481.5 L 324.0625 488.25 L 317.3125 488.25 L 317.3125 481.5 L 324.0625 481.5 Z M 324.0625 481.5 " transform="matrix(1,0,0,-1,0,793)"/>

</svg>