<svg xmlns="http://www.w3.org/2000/svg" xmlns:xlink="http://www.w3.org/1999/xlink" width="612pt" height="792pt" viewBox="0 0 612 792" version="1.1">

<!-- Hypergraviton Beam -->
<path style="fill-rule:nonzero;fill:rgb(100%,100%,100%);fill-opacity:1;stroke-width:0.75;stroke-linecap:butt;stroke-linejoin:miter;stroke:rgb(13.730068%,12.159915%,12.54902%);stroke-opacity:1;stroke-miterlimit:4;" d="M 283.125 475.3125 L 283.125 523.8125 L 277.125 523.8125 C 277.125 523.8125 279.375 526.0625 279.375 528.3125 C 279.375 530.5625 277.125 532.8125 277.125 532.8125 L 274.875 532.8125 C 274.875 532.8125 277.125 535.0625 277.125 537.3125 C 277.125 539.5625 274.875 541.8125 274.875 541.8125 L 272.625 541.8125 L 268.125 555.3125 L 263.625 541.8125 L 261.375 541.8125 C 261.375 541.8125 259.125 539.5625 259.125 537.3125 C 259.125 535.0625 261.375 532.8125 261.375 532.8125 L 259.125 532.8125 C 259.125 532.8125 256.875 530.5625 256.875 528.3125 C 256.875 526.0625 259.125 523.8125 259.125 523.8125 L 253.125 523.8125 L 253.125 475.3125 L 283.125 475.3125 Z M 283.125 475.3125 " transform="matrix(1,0,0,-1,0,792)"/>

<!-- Damage Boxes -->
<path style="fill-rule:nonzero;fill:rgb(100%,100%,100%);fill-opacity:1;stroke-width:1.5;stroke-linecap:butt;stroke-linejoin:miter;stroke:rgb(13.730068%,12.159915%,12.54902%);stroke-opacity:1;stroke-miterlimit:4;" d="M 271.5 527 L 271.5 533.75 L 264.75 533.75 L 264.75 527 L 271.5 527 Z M 271.5 527 " transform="matrix(1,0,0,-1,0,792)"/>
<path style="fill-rule:nonzero;fill:rgb(100%,100%,100%);fill-opacity:1;stroke-width:1.5;stroke-linecap:butt;stroke-linejoin:miter;stroke:rgb(13.730068%,12.159915%,12.54902%);stroke-opacity:1;stroke-miterlimit:4;" d="M 271.5 520.25 L 271.5 527 L 264.75 527 L 264.75 520.25 L 271.5 520.25 Z M 271.5 520.25 " transform="matrix(1,0,0,-1,0,792)"/>
<path style="fill-rule:nonzero;fill:rgb(100%,100%,100%);fill-opacity:1;stroke-width:1.5;stroke-linecap:butt;stroke-linejoin:miter;stroke:rgb(13.730068%,12.159915%,12.54902%);stroke-opacity:1;stroke-miterlimit:4;" d="M 264.75 513.5 L 264.75 520.25 L 258 520.25 L 258 513.5 L 264.75 513.5 Z M 264.75 513.5 " transform="matrix(1,0,0,-1,0,792)"/>
<path style="fill-rule:nonzero;fill:rgb(100%,100%,100%);fill-opacity:1;stroke-width:1.5;stroke-linecap:butt;stroke-linejoin:miter;stroke:rgb(13.730068%,12.159915%,12.54902%);stroke-opacity:1;stroke-miterlimit:4;" d="M 271.5 513.5 L 271.5 520.25 L 264.75 520.25 L 264.75 513.5 L 271.5 513.5 Z M 271.5 513.5 " transform="matrix(1,0,0,-1,0,792)"/>
<path style="fill-rule:nonzero;fill:rgb(100%,100%,100%);fill-opacity:1;stroke-width:1.5;stroke-linecap:butt;stroke-linejoin:miter;stroke:rgb(13.730068%,12.159915%,12.54902%);stroke-opacity:1;stroke-miterlimit:4;" d="M 278.25 513.5 L 278.25 520.25 L 271.5 520.25 L 271.5 513.5 L 278.25 513.5 Z M 278.25 513.5 " transform="matrix(1,0,0,-1,0,792)"/>
<path style="fill-rule:nonzero;fill:rgb(100%,100%,100%);fill-opacity:1;stroke-width:1.5;stroke-linecap:butt;stroke-linejoin:miter;stroke:rgb(13.730068%,12.159915%,12.54902%);stroke-opacity:1;stroke-miterlimit:4;" d="M 264.75 506.75 L 264.75 513.5 L 258 513.5 L 258 506.75 L 264.75 506.75 Z M 264.75 506.75 " transform="matrix(1,0,0,-1,0,792)"/>
<path style="fill-rule:nonzero;fill:rgb(100%,100%,100%);fill-opacity:1;stroke-width:1.5;stroke-linecap:butt;stroke-linejoin:miter;stroke:rgb(13.730068%,12.159915%,12.54902%);stroke-opacity:1;stroke-miterlimit:4;" d="M 271.5 506.75 L 271.5 513.5 L 264.75 513.5 L 264.75 506.75 L 271.5 506.75 Z M 271.5 506.75 " transform="matrix(1,0,0,-1,0,792)"/>
<path style="fill-rule:nonzero;fill:rgb(100%,100%,100%);fill-opacity:1;stroke-width:1.5;stroke-linecap:butt;stroke-linejoin:miter;stroke:rgb(13.730068%,12.159915%,12.54902%);stroke-opacity:1;stroke-miterlimit:4;" d="M 278.25 506.75 L 278.25 513.5 L 271.5 513.5 L 271.5 506.75 L 278.25 506.75 Z M 278.25 506.75 " transform="matrix(1,0,0,-1,0,792)"/>
<path style="fill-rule:nonzero;fill:rgb(100%,100%,100%);fill-opacity:1;stroke-width:1.5;stroke-linecap:butt;stroke-linejoin:miter;stroke:rgb(13.730068%,12.159915%,12.54902%);stroke-opacity:1;stroke-miterlimit:4;" d="M 264.75 500 L 264.75 506.75 L 258 506.75 L 258 500 L 264.75 500 Z M 264.75 500 " transform="matrix(1,0,0,-1,0,792)"/>
<path style="fill-rule:nonzero;fill:rgb(100%,100%,100%);fill-opacity:1;stroke-width:1.5;stroke-linecap:butt;stroke-linejoin:miter;stroke:rgb(13.730068%,12.159915%,12.54902%);stroke-opacity:1;stroke-miterlimit:4;" d="M 271.5 500 L 271.5 506.75 L 264.75 506.75 L 264.75 500 L 271.5 500 Z M 271.5 500 " transform="matrix(1,0,0,-1,0,792)"/>
<path style="fill-rule:nonzero;fill:rgb(100%,100%,100%);fill-opacity:1;stroke-width:1.5;stroke-linecap:butt;stroke-linejoin:miter;stroke:rgb(13.730068%,12.159915%,12.54902%);stroke-opacity:1;stroke-miterlimit:4;" d="M 278.25 500 L 278.25 506.75 L 271.5 506.75 L 271.5 500 L 278.25 500 Z M 278.25 500 " transform="matrix(1,0,0,-1,0,792)"/>
<path style="fill-rule:nonzero;fill:rgb(100%,100%,100%);fill-opacity:1;stroke-width:1.5;stroke-linecap:butt;stroke-linejoin:miter;stroke:rgb(13.730068%,12.159915%,12.54902%);stroke-opacity:1;stroke-miterlimit:4;" d="M 264.75 493.25 L 264.75 500 L 258 500 L 258 493.25 L 264.75 493.25 Z M 264.75 493.25 " transform="matrix(1,0,0,-1,0,792)"/>
<path style="fill-rule:nonzero;fill:rgb(100%,100%,100%);fill-opacity:1;stroke-width:1.5;stroke-linecap:butt;stroke-linejoin:miter;stroke:rgb(13.730068%,12.159915%,12.54902%);stroke-opacity:1;stroke-miterlimit:4;" d="M 271.5 493.25 L 271.5 500 L 264.75 500 L 264.75 493.25 L 271.5 493.25 Z M 271.5 493.25 " transform="matrix(1,0,0,-1,0,792)"/>
<path style="fill-rule:nonzero;fill:rgb(100%,100%,100%);fill-opacity:1;stroke-width:1.5;stroke-linecap:butt;stroke-linejoin:miter;stroke:rgb(13.730068%,12.159915%,12.54902%);stroke-opacity:1;stroke-miterlimit:4;" d="M 278.25 493.25 L 278.25 500 L 271.5 500 L 271.5 493.25 L 278.25 493.25 Z M 278.25 493.25 " transform="matrix(1,0,0,-1,0,792)"/>
<path style="fill-rule:nonzero;fill:rgb(100%,100%,100%);fill-opacity:1;stroke-width:1.5;stroke-linecap:butt;stroke-linejoin:miter;stroke:rgb(13.730068%,12.159915%,12.54902%);stroke-opacity:1;stroke-miterlimit:4;" d="M 264.75 486.5 L 264.75 493.25 L 258 493.25 L 258 486.5 L 264.75 486.5 Z M 264.75 486.5 " transform="matrix(1,0,0,-1,0,792)"/>
<path style="fill-rule:nonzero;fill:rgb(100%,100%,100%);fill-opacity:1;stroke-width:1.5;stroke-linecap:butt;stroke-linejoin:miter;stroke:rgb(13.730068%,12.159915%,12.54902%);stroke-opacity:1;stroke-miterlimit:4;" d="M 271.5 486.5 L 271.5 493.25 L 264.75 493.25 L 264.75 486.5 L 271.5 486.5 Z M 271.5 486.5 " transform="matrix(1,0,0,-1,0,792)"/>
<path style="fill-rule:nonzero;fill:rgb(100%,100%,100%);fill-opacity:1;stroke-width:1.5;stroke-linecap:butt;stroke-linejoin:miter;stroke:rgb(13.730068%,12.159915%,12.54902%);stroke-opacity:1;stroke-miterlimit:4;" d="M 278.25 486.5 L 278.25 493.25 L 271.5 493.25 L 271.5 486.5 L 278.25 486.5 Z M 278.25 486.5 " transform="matrix(1,0,0,-1,0,792)"/>
<path style="fill-rule:nonzero;fill:rgb(100%,100%,100%);fill-opacity:1;stroke-width:1.5;stroke-linecap:butt;stroke-linejoin:miter;stroke:rgb(13.730068%,12.159915%,12.54902%);stroke-opacity:1;stroke-miterlimit:4;" d="M 264.75 479.75 L 264.75 486.5 L 258 486.5 L 258 479.75 L 264.75 479.75 Z M 264.75 479.75 " transform="matrix(1,0,0,-1,0,792)"/>
<path style="fill-rule:nonzero;fill:rgb(100%,100%,100%);fill-opacity:1;stroke-width:1.5;stroke-linecap:butt;stroke-linejoin:miter;stroke:rgb(13.730068%,12.159915%,12.54902%);stroke-opacity:1;stroke-miterlimit:4;" d="M 271.5 479.75 L 271.5 486.5 L 264.75 486.5 L 264.75 479.75 L 271.5 479.75 Z M 271.5 479.75 " transform="matrix(1,0,0,-1,0,792)"/>
<path style="fill-rule:nonzero;fill:rgb(100%,100%,100%);fill-opacity:1;stroke-width:1.5;stroke-linecap:butt;stroke-linejoin:miter;stroke:rgb(13.730068%,12.159915%,12.54902%);stroke-opacity:1;stroke-miterlimit:4;" d="M 278.25 479.75 L 278.25 486.5 L 271.5 486.5 L 271.5 479.75 L 278.25 479.75 Z M 278.25 479.75 " transform="matrix(1,0,0,-1,0,792)"/>

</svg>