<svg xmlns="http://www.w3.org/2000/svg" xmlns:xlink="http://www.w3.org/1999/xlink" width="612pt" height="792pt" viewBox="0 0 612 792" version="1.1">

<!-- Improved Blast Laser -->
<path style="fill-rule:nonzero;fill:rgb(100%,100%,100%);fill-opacity:1;stroke-width:0.75;stroke-linecap:butt;stroke-linejoin:miter;stroke:rgb(13.730068%,12.159915%,12.54902%);stroke-opacity:1;stroke-miterlimit:4;" d="M 182.25 366.75 L 182.25 409.5 L 189 409.5 L 189 412.875 L 184.5 417.375 L 189 417.375 L 189 419.625 L 184.5 424.125 L 189 424.125 L 189 426.375 L 184.5 430.875 L 189 430.875 L 193.5 442.125 L 198 430.875 L 202.5 430.875 L 198 426.375 L 198 424.125 L 202.5 424.125 L 198 419.625 L 198 417.375 L 202.5 417.375 L 198 412.875 L 198 409.5 L 204.75 409.5 L 204.75 366.75 L 182.25 366.75 Z M 182.25 366.75 " transform="matrix(1,0,0,-1,0,793)"/>

<!-- Damage Boxes -->
<path style="fill-rule:nonzero;fill:rgb(100%,100%,100%);fill-opacity:1;stroke-width:1.5;stroke-linecap:butt;stroke-linejoin:miter;stroke:rgb(13.730068%,12.159915%,12.54902%);stroke-opacity:1;stroke-miterlimit:4;" d="M 193.5 398.25 L 193.5 405 L 186.75 405 L 186.75 398.25 L 193.5 398.25 Z M 193.5 398.25 " transform="matrix(1,0,0,-1,0,793)"/>
<path style="fill-rule:nonzero;fill:rgb(100%,100%,100%);fill-opacity:1;stroke-width:1.5;stroke-linecap:butt;stroke-linejoin:miter;stroke:rgb(13.730068%,12.159915%,12.54902%);stroke-opacity:1;stroke-miterlimit:4;" d="M 200.25 398.25 L 200.25 405 L 193.5 405 L 193.5 398.25 L 200.25 398.25 Z M 200.25 398.25 " transform="matrix(1,0,0,-1,0,793)"/>
<path style="fill-rule:nonzero;fill:rgb(100%,100%,100%);fill-opacity:1;stroke-width:1.5;stroke-linecap:butt;stroke-linejoin:miter;stroke:rgb(13.730068%,12.159915%,12.54902%);stroke-opacity:1;stroke-miterlimit:4;" d="M 193.5 391.5 L 193.5 398.25 L 186.75 398.25 L 186.75 391.5 L 193.5 391.5 Z M 193.5 391.5 " transform="matrix(1,0,0,-1,0,793)"/>
<path style="fill-rule:nonzero;fill:rgb(100%,100%,100%);fill-opacity:1;stroke-width:1.5;stroke-linecap:butt;stroke-linejoin:miter;stroke:rgb(13.730068%,12.159915%,12.54902%);stroke-opacity:1;stroke-miterlimit:4;" d="M 200.25 391.5 L 200.25 398.25 L 193.5 398.25 L 193.5 391.5 L 200.25 391.5 Z M 200.25 391.5 " transform="matrix(1,0,0,-1,0,793)"/>
<path style="fill-rule:nonzero;fill:rgb(100%,100%,100%);fill-opacity:1;stroke-width:1.5;stroke-linecap:butt;stroke-linejoin:miter;stroke:rgb(13.730068%,12.159915%,12.54902%);stroke-opacity:1;stroke-miterlimit:4;" d="M 193.5 384.75 L 193.5 391.5 L 186.75 391.5 L 186.75 384.75 L 193.5 384.75 Z M 193.5 384.75 " transform="matrix(1,0,0,-1,0,793)"/>
<path style="fill-rule:nonzero;fill:rgb(100%,100%,100%);fill-opacity:1;stroke-width:1.5;stroke-linecap:butt;stroke-linejoin:miter;stroke:rgb(13.730068%,12.159915%,12.54902%);stroke-opacity:1;stroke-miterlimit:4;" d="M 200.25 384.75 L 200.25 391.5 L 193.5 391.5 L 193.5 384.75 L 200.25 384.75 Z M 200.25 384.75 " transform="matrix(1,0,0,-1,0,793)"/>
<path style="fill-rule:nonzero;fill:rgb(100%,100%,100%);fill-opacity:1;stroke-width:1.5;stroke-linecap:butt;stroke-linejoin:miter;stroke:rgb(13.730068%,12.159915%,12.54902%);stroke-opacity:1;stroke-miterlimit:4;" d="M 193.5 378 L 193.5 384.75 L 186.75 384.75 L 186.75 378 L 193.5 378 Z M 193.5 378 " transform="matrix(1,0,0,-1,0,793)"/>
<path style="fill-rule:nonzero;fill:rgb(100%,100%,100%);fill-opacity:1;stroke-width:1.5;stroke-linecap:butt;stroke-linejoin:miter;stroke:rgb(13.730068%,12.159915%,12.54902%);stroke-opacity:1;stroke-miterlimit:4;" d="M 200.25 378 L 200.25 384.75 L 193.5 384.75 L 193.5 378 L 200.25 378 Z M 200.25 378 " transform="matrix(1,0,0,-1,0,793)"/>
<path style="fill-rule:nonzero;fill:rgb(100%,100%,100%);fill-opacity:1;stroke-width:1.5;stroke-linecap:butt;stroke-linejoin:miter;stroke:rgb(13.730068%,12.159915%,12.54902%);stroke-opacity:1;stroke-miterlimit:4;" d="M 193.5 371.25 L 193.5 378 L 186.75 378 L 186.75 371.25 L 193.5 371.25 Z M 193.5 371.25 " transform="matrix(1,0,0,-1,0,793)"/>
<path style="fill-rule:nonzero;fill:rgb(100%,100%,100%);fill-opacity:1;stroke-width:1.5;stroke-linecap:butt;stroke-linejoin:miter;stroke:rgb(13.730068%,12.159915%,12.54902%);stroke-opacity:1;stroke-miterlimit:4;" d="M 200.25 371.25 L 200.25 378 L 193.5 378 L 193.5 371.25 L 200.25 371.25 Z M 200.25 371.25 " transform="matrix(1,0,0,-1,0,793)"/>

</svg>