<svg xmlns="http://www.w3.org/2000/svg" xmlns:xlink="http://www.w3.org/1999/xlink" width="612pt" height="792pt" viewBox="0 0 612 792" version="1.1">

<!-- Interceptor Mk-I -->
<path style="fill-rule:nonzero;fill:rgb(100%,100%,100%);fill-opacity:1;stroke-width:0.75;stroke-linecap:butt;stroke-linejoin:miter;stroke:rgb(13.730068%,12.159915%,12.54902%);stroke-opacity:1;stroke-miterlimit:4;" d="M 362.25 519.75 L 362.25 544.5 L 366.75 544.5 L 366.75 553.5 L 371.25 553.5 L 371.25 544.5 L 375.75 544.5 L 375.75 553.5 L 380.25 553.5 L 380.25 544.5 L 384.75 544.5 L 384.75 519.75 L 362.25 519.75 Z M 362.25 519.75 " transform="matrix(1,0,0,-1,0,793)"/>

<!-- Damage Boxes -->
<path style="fill-rule:nonzero;fill:rgb(100%,100%,100%);fill-opacity:1;stroke-width:1.5;stroke-linecap:butt;stroke-linejoin:miter;stroke:rgb(13.730068%,12.159915%,12.54902%);stroke-opacity:1;stroke-miterlimit:4;" d="M 373.5 531 L 373.5 537.75 L 366.75 537.75 L 366.75 531 L 373.5 531 Z M 373.5 531 " transform="matrix(1,0,0,-1,0,793)"/>
<path style="fill-rule:nonzero;fill:rgb(100%,100%,100%);fill-opacity:1;stroke-width:1.5;stroke-linecap:butt;stroke-linejoin:miter;stroke:rgb(13.730068%,12.159915%,12.54902%);stroke-opacity:1;stroke-miterlimit:4;" d="M 380.25 531 L 380.25 537.75 L 373.5 537.75 L 373.5 531 L 380.25 531 Z M 380.25 531 " transform="matrix(1,0,0,-1,0,793)"/>
<path style="fill-rule:nonzero;fill:rgb(100%,100%,100%);fill-opacity:1;stroke-width:1.5;stroke-linecap:butt;stroke-linejoin:miter;stroke:rgb(13.730068%,12.159915%,12.54902%);stroke-opacity:1;stroke-miterlimit:4;" d="M 373.5 524.25 L 373.5 531 L 366.75 531 L 366.75 524.25 L 373.5 524.25 Z M 373.5 524.25 " transform="matrix(1,0,0,-1,0,793)"/>
<path style="fill-rule:nonzero;fill:rgb(100%,100%,100%);fill-opacity:1;stroke-width:1.5;stroke-linecap:butt;stroke-linejoin:miter;stroke:rgb(13.730068%,12.159915%,12.54902%);stroke-opacity:1;stroke-miterlimit:4;" d="M 380.25 524.25 L 380.25 531 L 373.5 531 L 373.5 524.25 L 380.25 524.25 Z M 380.25 524.25 " transform="matrix(1,0,0,-1,0,793)"/>

</svg>