<svg xmlns="http://www.w3.org/2000/svg" xmlns:xlink="http://www.w3.org/1999/xlink" width="612pt" height="792pt" viewBox="0 0 612 792" version="1.1">

<!-- Interdictor -->
<path style="fill-rule:nonzero;fill:rgb(100%,100%,100%);fill-opacity:1;stroke-width:0.75;stroke-linecap:butt;stroke-linejoin:miter;stroke:rgb(13.730068%,12.159915%,12.54902%);stroke-opacity:1;stroke-miterlimit:4;" d="M 251.527344 567.980469 L 251.527344 590.480469 L 258.277344 590.480469 L 253.777344 594.980469 L 253.777344 603.980469 L 262.777344 594.980469 L 271.777344 603.980469 L 271.777344 594.980469 L 267.277344 590.480469 L 274.027344 590.480469 L 274.027344 567.980469 L 251.527344 567.980469 Z M 251.527344 567.980469 " transform="matrix(1,0,0,-1,0,792)"/>

<!-- Damage Boxes -->
<path style="fill-rule:nonzero;fill:rgb(100%,100%,100%);fill-opacity:1;stroke-width:1.5;stroke-linecap:butt;stroke-linejoin:miter;stroke:rgb(13.730068%,12.159915%,12.54902%);stroke-opacity:1;stroke-miterlimit:4;" d="M 256.027344 579.230469 L 256.027344 585.980469 L 262.777344 585.980469 L 262.777344 579.230469 L 256.027344 579.230469 Z M 256.027344 579.230469 " transform="matrix(1,0,0,-1,0,792)"/>
<path style="fill-rule:nonzero;fill:rgb(100%,100%,100%);fill-opacity:1;stroke-width:1.5;stroke-linecap:butt;stroke-linejoin:miter;stroke:rgb(13.730068%,12.159915%,12.54902%);stroke-opacity:1;stroke-miterlimit:4;" d="M 262.777344 579.230469 L 262.777344 585.980469 L 269.527344 585.980469 L 269.527344 579.230469 L 262.777344 579.230469 Z M 262.777344 579.230469 " transform="matrix(1,0,0,-1,0,792)"/>
<path style="fill-rule:nonzero;fill:rgb(100%,100%,100%);fill-opacity:1;stroke-width:1.5;stroke-linecap:butt;stroke-linejoin:miter;stroke:rgb(13.730068%,12.159915%,12.54902%);stroke-opacity:1;stroke-miterlimit:4;" d="M 256.027344 572.480469 L 256.027344 579.230469 L 262.777344 579.230469 L 262.777344 572.480469 L 256.027344 572.480469 Z M 256.027344 572.480469 " transform="matrix(1,0,0,-1,0,792)"/>
<path style="fill-rule:nonzero;fill:rgb(100%,100%,100%);fill-opacity:1;stroke-width:1.5;stroke-linecap:butt;stroke-linejoin:miter;stroke:rgb(13.730068%,12.159915%,12.54902%);stroke-opacity:1;stroke-miterlimit:4;" d="M 262.777344 572.480469 L 262.777344 579.230469 L 269.527344 579.230469 L 269.527344 572.480469 L 262.777344 572.480469 Z M 262.777344 572.480469 " transform="matrix(1,0,0,-1,0,792)"/>

</svg>