<svg xmlns="http://www.w3.org/2000/svg" xmlns:xlink="http://www.w3.org/1999/xlink" width="612pt" height="792pt" viewBox="0 0 612 792" version="1.1">

<!-- Interceptor Mk-II -->
<path style="fill-rule:nonzero;fill:rgb(100%,100%,100%);fill-opacity:1;stroke-width:0.75;stroke-linecap:butt;stroke-linejoin:miter;stroke:rgb(13.730068%,12.159915%,12.54902%);stroke-opacity:1;stroke-miterlimit:4;" d="M 225.140625 533.25 L 225.140625 558 L 229.640625 558 L 229.640625 567 L 234.140625 567 L 234.140625 558 L 238.640625 558 L 238.640625 567 L 243.140625 567 L 243.140625 558 L 247.640625 558 L 247.640625 533.25 L 225.140625 533.25 Z M 225.140625 533.25 " transform="matrix(1,0,0,-1,0,793)"/>

<!-- Damage Boxes -->
<path style="fill-rule:nonzero;fill:rgb(100%,100%,100%);fill-opacity:1;stroke-width:1.5;stroke-linecap:butt;stroke-linejoin:miter;stroke:rgb(13.730068%,12.159915%,12.54902%);stroke-opacity:1;stroke-miterlimit:4;" d="M 236.390625 544.5 L 236.390625 551.25 L 229.640625 551.25 L 229.640625 544.5 L 236.390625 544.5 Z M 236.390625 544.5 " transform="matrix(1,0,0,-1,0,793)"/>
<path style="fill-rule:nonzero;fill:rgb(100%,100%,100%);fill-opacity:1;stroke-width:1.5;stroke-linecap:butt;stroke-linejoin:miter;stroke:rgb(13.730068%,12.159915%,12.54902%);stroke-opacity:1;stroke-miterlimit:4;" d="M 243.140625 544.5 L 243.140625 551.25 L 236.390625 551.25 L 236.390625 544.5 L 243.140625 544.5 Z M 243.140625 544.5 " transform="matrix(1,0,0,-1,0,793)"/>
<path style="fill-rule:nonzero;fill:rgb(100%,100%,100%);fill-opacity:1;stroke-width:1.5;stroke-linecap:butt;stroke-linejoin:miter;stroke:rgb(13.730068%,12.159915%,12.54902%);stroke-opacity:1;stroke-miterlimit:4;" d="M 236.390625 537.75 L 236.390625 544.5 L 229.640625 544.5 L 229.640625 537.75 L 236.390625 537.75 Z M 236.390625 537.75 " transform="matrix(1,0,0,-1,0,793)"/>
<path style="fill-rule:nonzero;fill:rgb(100%,100%,100%);fill-opacity:1;stroke-width:1.5;stroke-linecap:butt;stroke-linejoin:miter;stroke:rgb(13.730068%,12.159915%,12.54902%);stroke-opacity:1;stroke-miterlimit:4;" d="M 243.140625 537.75 L 243.140625 544.5 L 236.390625 544.5 L 236.390625 537.75 L 243.140625 537.75 Z M 243.140625 537.75 " transform="matrix(1,0,0,-1,0,793)"/>

</svg>