<svg xmlns="http://www.w3.org/2000/svg" xmlns:xlink="http://www.w3.org/1999/xlink" width="612pt" height="792pt" viewBox="0 0 612 792" version="1.1">

<!-- Ion Field Generator -->
<path style="fill-rule:nonzero;fill:rgb(100%,100%,100%);fill-opacity:1;stroke-width:0.75;stroke-linecap:butt;stroke-linejoin:miter;stroke:rgb(13.730068%,12.159915%,12.54902%);stroke-opacity:1;stroke-miterlimit:4;" d="M 165.945312 270.257812 L 170.546875 270.257812 L 170.546875 267.257812 L 174.9375 267.257812 L 174.9375 270.257812 L 177.171875 270.257812 L 177.171875 277.257812 L 181.816406 277.257812 L 181.816406 270.257812 L 184.050781 270.257812 L 184.050781 267.257812 L 188.34375 267.257812 L 188.34375 270.257812 L 192.855469 270.257812 L 192.855469 267.257812 L 197.171875 267.257812 L 197.171875 244.757812 L 161.421875 244.757812 L 161.421875 267.257812 L 165.945312 267.257812 L 165.945312 270.257812 Z M 165.945312 270.257812 " transform="matrix(1,0,0,-1,190,482)"/>
<path style="fill-rule:nonzero;fill:rgb(100%,100%,100%);fill-opacity:1;stroke-width:0.75;stroke-linecap:butt;stroke-linejoin:miter;stroke:rgb(13.730068%,12.159915%,12.54902%);stroke-opacity:1;stroke-miterlimit:4;" d="M 168.242188 269.074219 C 175.488281 269.074219 174.992188 275.824219 174.992188 275.824219 C 174.992188 275.824219 174.882812 272.453125 168.242188 272.574219 C 161.324219 272.695312 161.492188 275.824219 161.492188 275.824219 C 161.492188 275.824219 161.328125 269.074219 168.242188 269.074219 Z M 168.242188 269.074219 " transform="matrix(1,0,0,-1,190,482)"/>
<path style="fill-rule:nonzero;fill:rgb(100%,100%,100%);fill-opacity:1;stroke-width:0.75;stroke-linecap:butt;stroke-linejoin:miter;stroke:rgb(13.730068%,12.159915%,12.54902%);stroke-opacity:1;stroke-miterlimit:4;" d="M 190.539062 269.074219 C 197.789062 269.074219 197.289062 275.824219 197.289062 275.824219 C 197.289062 275.824219 197.179688 272.453125 190.539062 272.574219 C 183.625 272.695312 183.789062 275.824219 183.789062 275.824219 C 183.789062 275.824219 183.625 269.074219 190.539062 269.074219 Z M 190.539062 269.074219 " transform="matrix(1,0,0,-1,190,482)"/>
<path style="fill-rule:nonzero;fill:rgb(100%,100%,100%);fill-opacity:1;stroke-width:0.75;stroke-linecap:butt;stroke-linejoin:miter;stroke:rgb(13.730068%,12.159915%,12.54902%);stroke-opacity:1;stroke-miterlimit:4;" d="M 179.441406 275.574219 C 186.6875 275.574219 186.191406 282.324219 186.191406 282.324219 C 186.191406 282.324219 186.082031 278.953125 179.441406 279.074219 C 172.523438 279.195312 172.691406 282.324219 172.691406 282.324219 C 172.691406 282.324219 172.527344 275.574219 179.441406 275.574219 Z M 179.441406 275.574219 " transform="matrix(1,0,0,-1,190,482)"/>

<!-- Damage Boxes -->
<path style="fill-rule:nonzero;fill:rgb(100%,100%,100%);fill-opacity:1;stroke-width:1.5;stroke-linecap:butt;stroke-linejoin:miter;stroke:rgb(13.730068%,12.159915%,12.54902%);stroke-opacity:1;stroke-miterlimit:4;" d="M 172.671875 256.007812 L 172.671875 262.757812 L 165.921875 262.757812 L 165.921875 256.007812 L 172.671875 256.007812 Z M 172.671875 256.007812 " transform="matrix(1,0,0,-1,190,482)"/>
<path style="fill-rule:nonzero;fill:rgb(100%,100%,100%);fill-opacity:1;stroke-width:1.5;stroke-linecap:butt;stroke-linejoin:miter;stroke:rgb(13.730068%,12.159915%,12.54902%);stroke-opacity:1;stroke-miterlimit:4;" d="M 179.421875 256.007812 L 179.421875 262.757812 L 172.671875 262.757812 L 172.671875 256.007812 L 179.421875 256.007812 Z M 179.421875 256.007812 " transform="matrix(1,0,0,-1,190,482)"/>
<path style="fill-rule:nonzero;fill:rgb(100%,100%,100%);fill-opacity:1;stroke-width:1.5;stroke-linecap:butt;stroke-linejoin:miter;stroke:rgb(13.730068%,12.159915%,12.54902%);stroke-opacity:1;stroke-miterlimit:4;" d="M 186.171875 256.007812 L 186.171875 262.757812 L 179.421875 262.757812 L 179.421875 256.007812 L 186.171875 256.007812 Z M 186.171875 256.007812 " transform="matrix(1,0,0,-1,190,482)"/>
<path style="fill-rule:nonzero;fill:rgb(100%,100%,100%);fill-opacity:1;stroke-width:1.5;stroke-linecap:butt;stroke-linejoin:miter;stroke:rgb(13.730068%,12.159915%,12.54902%);stroke-opacity:1;stroke-miterlimit:4;" d="M 192.671875 256.007812 L 192.671875 262.757812 L 185.921875 262.757812 L 185.921875 256.007812 L 192.671875 256.007812 Z M 192.671875 256.007812 " transform="matrix(1,0,0,-1,190,482)"/>
<path style="fill-rule:nonzero;fill:rgb(100%,100%,100%);fill-opacity:1;stroke-width:1.5;stroke-linecap:butt;stroke-linejoin:miter;stroke:rgb(13.730068%,12.159915%,12.54902%);stroke-opacity:1;stroke-miterlimit:4;" d="M 172.671875 249.257812 L 172.671875 256.007812 L 165.921875 256.007812 L 165.921875 249.257812 L 172.671875 249.257812 Z M 172.671875 249.257812 " transform="matrix(1,0,0,-1,190,482)"/>
<path style="fill-rule:nonzero;fill:rgb(100%,100%,100%);fill-opacity:1;stroke-width:1.5;stroke-linecap:butt;stroke-linejoin:miter;stroke:rgb(13.730068%,12.159915%,12.54902%);stroke-opacity:1;stroke-miterlimit:4;" d="M 179.421875 249.257812 L 179.421875 256.007812 L 172.671875 256.007812 L 172.671875 249.257812 L 179.421875 249.257812 Z M 179.421875 249.257812 " transform="matrix(1,0,0,-1,190,482)"/>
<path style="fill-rule:nonzero;fill:rgb(100%,100%,100%);fill-opacity:1;stroke-width:1.5;stroke-linecap:butt;stroke-linejoin:miter;stroke:rgb(13.730068%,12.159915%,12.54902%);stroke-opacity:1;stroke-miterlimit:4;" d="M 186.171875 249.257812 L 186.171875 256.007812 L 179.421875 256.007812 L 179.421875 249.257812 L 186.171875 249.257812 Z M 186.171875 249.257812 " transform="matrix(1,0,0,-1,190,482)"/>
<path style="fill-rule:nonzero;fill:rgb(100%,100%,100%);fill-opacity:1;stroke-width:1.5;stroke-linecap:butt;stroke-linejoin:miter;stroke:rgb(13.730068%,12.159915%,12.54902%);stroke-opacity:1;stroke-miterlimit:4;" d="M 192.671875 249.257812 L 192.671875 256.007812 L 185.921875 256.007812 L 185.921875 249.257812 L 192.671875 249.257812 Z M 192.671875 249.257812 " transform="matrix(1,0,0,-1,190,482)"/>

</svg>