<svg xmlns="http://www.w3.org/2000/svg" xmlns:xlink="http://www.w3.org/1999/xlink" width="612pt" height="792pt" viewBox="0 0 612 792" version="1.1">

<!-- Ion Torpedo -->
<path style="fill-rule:nonzero;fill:rgb(100%,100%,100%);fill-opacity:1;stroke-width:0.75;stroke-linecap:butt;stroke-linejoin:miter;stroke:rgb(13.730068%,12.159915%,12.54902%);stroke-opacity:1;stroke-miterlimit:4;" d="M 461.03125 225.835938 L 449.78125 237.085938 L 449.78125 243.835938 L 461.03125 255.085938 L 464.28125 255.085938 L 464.28125 261.835938 L 461.03125 261.835938 L 464.28125 273.085938 L 467.78125 261.835938 L 464.28125 261.835938 L 464.28125 255.085938 L 467.78125 255.085938 L 479.03125 243.835938 L 479.03125 237.085938 L 467.78125 225.835938 L 461.03125 225.835938 Z M 461.03125 225.835938 " transform="matrix(1,0,0,-1,0,793)"/>
<path style="fill-rule:nonzero;fill:rgb(100%,100%,100%);fill-opacity:1;stroke-width:0.75;stroke-linecap:butt;stroke-linejoin:miter;stroke:rgb(13.730068%,12.159915%,12.54902%);stroke-opacity:1;stroke-miterlimit:4;" d="M 464.28125 259.585938 C 471.527344 259.585938 471.03125 266.335938 471.03125 266.335938 C 471.03125 266.335938 470.921875 262.964844 464.28125 263.085938 C 457.363281 263.207031 457.53125 266.335938 457.53125 266.335938 C 457.53125 266.335938 457.367188 259.585938 464.28125 259.585938 Z M 464.28125 259.585938 " transform="matrix(1,0,0,-1,0,793)"/>

<!-- Damage Boxes -->
<path style="fill-rule:nonzero;fill:rgb(100%,100%,100%);fill-opacity:1;stroke-width:1.5;stroke-linecap:butt;stroke-linejoin:miter;stroke:rgb(13.730068%,12.159915%,12.54902%);stroke-opacity:1;stroke-miterlimit:4;" d="M 467.78125 243.835938 L 467.78125 250.585938 L 461.03125 250.585938 L 461.03125 243.835938 L 467.78125 243.835938 Z M 467.78125 243.835938 " transform="matrix(1,0,0,-1,0,793)"/>
<path style="fill-rule:nonzero;fill:rgb(100%,100%,100%);fill-opacity:1;stroke-width:1.5;stroke-linecap:butt;stroke-linejoin:miter;stroke:rgb(13.730068%,12.159915%,12.54902%);stroke-opacity:1;stroke-miterlimit:4;" d="M 461.03125 237.085938 L 461.03125 243.835938 L 454.28125 243.835938 L 454.28125 237.085938 L 461.03125 237.085938 Z M 461.03125 237.085938 " transform="matrix(1,0,0,-1,0,793)"/>
<path style="fill-rule:nonzero;fill:rgb(100%,100%,100%);fill-opacity:1;stroke-width:1.5;stroke-linecap:butt;stroke-linejoin:miter;stroke:rgb(13.730068%,12.159915%,12.54902%);stroke-opacity:1;stroke-miterlimit:4;" d="M 467.78125 237.085938 L 467.78125 243.835938 L 461.03125 243.835938 L 461.03125 237.085938 L 467.78125 237.085938 Z M 467.78125 237.085938 " transform="matrix(1,0,0,-1,0,793)"/>
<path style="fill-rule:nonzero;fill:rgb(100%,100%,100%);fill-opacity:1;stroke-width:1.5;stroke-linecap:butt;stroke-linejoin:miter;stroke:rgb(13.730068%,12.159915%,12.54902%);stroke-opacity:1;stroke-miterlimit:4;" d="M 474.53125 237.085938 L 474.53125 243.835938 L 467.78125 243.835938 L 467.78125 237.085938 L 474.53125 237.085938 Z M 474.53125 237.085938 " transform="matrix(1,0,0,-1,0,793)"/>
<path style="fill-rule:nonzero;fill:rgb(100%,100%,100%);fill-opacity:1;stroke-width:1.5;stroke-linecap:butt;stroke-linejoin:miter;stroke:rgb(13.730068%,12.159915%,12.54902%);stroke-opacity:1;stroke-miterlimit:4;" d="M 467.78125 230.335938 L 467.78125 237.085938 L 461.03125 237.085938 L 461.03125 230.335938 L 467.78125 230.335938 Z M 467.78125 230.335938 " transform="matrix(1,0,0,-1,0,793)"/>

</svg>