<svg xmlns="http://www.w3.org/2000/svg" xmlns:xlink="http://www.w3.org/1999/xlink" width="612pt" height="792pt" viewBox="0 0 612 792" version="1.1">

<!-- Ion Cannon -->
<path style="fill-rule:nonzero;fill:rgb(100%,100%,100%);fill-opacity:1;stroke-width:0.75;stroke-linecap:butt;stroke-linejoin:miter;stroke:rgb(13.730068%,12.159915%,12.54902%);stroke-opacity:1;stroke-miterlimit:4;" d="M 141.75 387 L 141.75 409.5 L 153 409.5 L 153 416.25 L 156.25 416.25 L 153 416.25 L 156.25 427.5 L 159.75 416.25 L 156.25 416.25 L 159.75 416.25 L 159.75 409.5 L 171 409.5 L 171 387 L 141.75 387 Z M 141.75 387 " transform="matrix(1,0,0,-1,0,793)"/>
<path style="fill-rule:nonzero;fill:rgb(100%,100%,100%);fill-opacity:1;stroke-width:0.75;stroke-linecap:butt;stroke-linejoin:miter;stroke:rgb(13.730068%,12.159915%,12.54902%);stroke-opacity:1;stroke-miterlimit:4;" d="M 156.25 414 C 163.496094 414 163 420.75 163 420.75 C 163 420.75 162.890625 417.378906 156.25 417.5 C 149.332031 417.625 149.5 420.75 149.5 420.75 C 149.5 420.75 149.335938 414 156.25 414 Z M 156.25 414 " transform="matrix(1,0,0,-1,0,793)"/>

<!-- Damage Boxes -->
<path style="fill-rule:nonzero;fill:rgb(100%,100%,100%);fill-opacity:1;stroke-width:1.5;stroke-linecap:butt;stroke-linejoin:miter;stroke:rgb(13.730068%,12.159915%,12.54902%);stroke-opacity:1;stroke-miterlimit:4;" d="M 153 398.25 L 153 405 L 146.25 405 L 146.25 398.25 L 153 398.25 Z M 153 398.25 " transform="matrix(1,0,0,-1,0,793)"/>
<path style="fill-rule:nonzero;fill:rgb(100%,100%,100%);fill-opacity:1;stroke-width:1.5;stroke-linecap:butt;stroke-linejoin:miter;stroke:rgb(13.730068%,12.159915%,12.54902%);stroke-opacity:1;stroke-miterlimit:4;" d="M 159.75 398.25 L 159.75 405 L 153 405 L 153 398.25 L 159.75 398.25 Z M 159.75 398.25 " transform="matrix(1,0,0,-1,0,793)"/>
<path style="fill-rule:nonzero;fill:rgb(100%,100%,100%);fill-opacity:1;stroke-width:1.5;stroke-linecap:butt;stroke-linejoin:miter;stroke:rgb(13.730068%,12.159915%,12.54902%);stroke-opacity:1;stroke-miterlimit:4;" d="M 166.5 398.25 L 166.5 405 L 159.75 405 L 159.75 398.25 L 166.5 398.25 Z M 166.5 398.25 " transform="matrix(1,0,0,-1,0,793)"/>
<path style="fill-rule:nonzero;fill:rgb(100%,100%,100%);fill-opacity:1;stroke-width:1.5;stroke-linecap:butt;stroke-linejoin:miter;stroke:rgb(13.730068%,12.159915%,12.54902%);stroke-opacity:1;stroke-miterlimit:4;" d="M 153 391.5 L 153 398.25 L 146.25 398.25 L 146.25 391.5 L 153 391.5 Z M 153 391.5 " transform="matrix(1,0,0,-1,0,793)"/>
<path style="fill-rule:nonzero;fill:rgb(100%,100%,100%);fill-opacity:1;stroke-width:1.5;stroke-linecap:butt;stroke-linejoin:miter;stroke:rgb(13.730068%,12.159915%,12.54902%);stroke-opacity:1;stroke-miterlimit:4;" d="M 159.75 391.5 L 159.75 398.25 L 153 398.25 L 153 391.5 L 159.75 391.5 Z M 159.75 391.5 " transform="matrix(1,0,0,-1,0,793)"/>
<path style="fill-rule:nonzero;fill:rgb(100%,100%,100%);fill-opacity:1;stroke-width:1.5;stroke-linecap:butt;stroke-linejoin:miter;stroke:rgb(13.730068%,12.159915%,12.54902%);stroke-opacity:1;stroke-miterlimit:4;" d="M 166.5 391.5 L 166.5 398.25 L 159.75 398.25 L 159.75 391.5 L 166.5 391.5 Z M 166.5 391.5 " transform="matrix(1,0,0,-1,0,793)"/>

</svg>