<svg xmlns="http://www.w3.org/2000/svg" xmlns:xlink="http://www.w3.org/1999/xlink" width="612pt" height="792pt" viewBox="0 0 612 792" version="1.1">

<!-- Ionic Laser -->
<path style="fill-rule:nonzero;fill:rgb(100%,100%,100%);fill-opacity:1;stroke-width:0.75;stroke-linecap:butt;stroke-linejoin:miter;stroke:rgb(13.730068%,12.159915%,12.54902%);stroke-opacity:1;stroke-miterlimit:4;" d="M 81 270 L 81 299.25 L 74.25 299.25 L 74.25 303.75 L 78.75 303.75 L 78.75 306 L 74.25 306 L 74.25 308.25 L 72 308.25 L 69.75 317.25 L 67.5 308.25 L 65.25 308.25 L 65.25 306 L 60.75 306 L 60.75 303.75 L 65.25 303.75 L 65.25 299.25 L 58.5 299.25 L 58.5 270 L 81 270 Z M 81 270 " transform="matrix(1,0,0,-1,0,793)"/>
<path style="fill-rule:nonzero;fill:rgb(100%,100%,100%);fill-opacity:1;stroke-width:0.75;stroke-linecap:butt;stroke-linejoin:miter;stroke:rgb(13.730068%,12.159915%,12.54902%);stroke-opacity:1;stroke-miterlimit:4;" d="M 69.75 306 C 76.996094 306 76.5 312.75 76.5 312.75 C 76.5 312.75 76.390625 309.378906 69.75 309.5 C 62.832031 309.621094 63 312.75 63 312.75 C 63 312.75 62.835938 306 69.75 306 Z M 69.75 306 " transform="matrix(1,0,0,-1,0,793)"/>

<!-- Damage Boxes -->
<path style="fill-rule:nonzero;fill:rgb(100%,100%,100%);fill-opacity:1;stroke-width:1.5;stroke-linecap:butt;stroke-linejoin:miter;stroke:rgb(13.730068%,12.159915%,12.54902%);stroke-opacity:1;stroke-miterlimit:4;" d="M 69.75 288 L 69.75 294.75 L 63 294.75 L 63 288 L 69.75 288 Z M 69.75 288 " transform="matrix(1,0,0,-1,0,793)"/>
<path style="fill-rule:nonzero;fill:rgb(100%,100%,100%);fill-opacity:1;stroke-width:1.5;stroke-linecap:butt;stroke-linejoin:miter;stroke:rgb(13.730068%,12.159915%,12.54902%);stroke-opacity:1;stroke-miterlimit:4;" d="M 76.5 288 L 76.5 294.75 L 69.75 294.75 L 69.75 288 L 76.5 288 Z M 76.5 288 " transform="matrix(1,0,0,-1,0,793)"/>
<path style="fill-rule:nonzero;fill:rgb(100%,100%,100%);fill-opacity:1;stroke-width:1.5;stroke-linecap:butt;stroke-linejoin:miter;stroke:rgb(13.730068%,12.159915%,12.54902%);stroke-opacity:1;stroke-miterlimit:4;" d="M 69.75 281.25 L 69.75 288 L 63 288 L 63 281.25 L 69.75 281.25 Z M 69.75 281.25 " transform="matrix(1,0,0,-1,0,793)"/>
<path style="fill-rule:nonzero;fill:rgb(100%,100%,100%);fill-opacity:1;stroke-width:1.5;stroke-linecap:butt;stroke-linejoin:miter;stroke:rgb(13.730068%,12.159915%,12.54902%);stroke-opacity:1;stroke-miterlimit:4;" d="M 76.5 281.25 L 76.5 288 L 69.75 288 L 69.75 281.25 L 76.5 281.25 Z M 76.5 281.25 " transform="matrix(1,0,0,-1,0,793)"/>
<path style="fill-rule:nonzero;fill:rgb(100%,100%,100%);fill-opacity:1;stroke-width:1.5;stroke-linecap:butt;stroke-linejoin:miter;stroke:rgb(13.730068%,12.159915%,12.54902%);stroke-opacity:1;stroke-miterlimit:4;" d="M 69.75 274.5 L 69.75 281.25 L 63 281.25 L 63 274.5 L 69.75 274.5 Z M 69.75 274.5 " transform="matrix(1,0,0,-1,0,793)"/>
<path style="fill-rule:nonzero;fill:rgb(100%,100%,100%);fill-opacity:1;stroke-width:1.5;stroke-linecap:butt;stroke-linejoin:miter;stroke:rgb(13.730068%,12.159915%,12.54902%);stroke-opacity:1;stroke-miterlimit:4;" d="M 76.5 274.5 L 76.5 281.25 L 69.75 281.25 L 69.75 274.5 L 76.5 274.5 Z M 76.5 274.5 " transform="matrix(1,0,0,-1,0,793)"/>

</svg>