<svg xmlns="http://www.w3.org/2000/svg" xmlns:xlink="http://www.w3.org/1999/xlink" width="612pt" height="792pt" viewBox="0 0 612 792" version="1.1">

<!-- Laser Accelerator -->
<path style="fill-rule:nonzero;fill:rgb(100%,100%,100%);fill-opacity:1;stroke-width:0.75;stroke-linecap:butt;stroke-linejoin:miter;stroke:rgb(13.730068%,12.159915%,12.54902%);stroke-opacity:1;stroke-miterlimit:4;" d="M 518.519531 398.789062 L 527.519531 398.789062 " transform="matrix(1,0,0,-1,0,793)"/>
<path style="fill-rule:nonzero;fill:rgb(100%,100%,100%);fill-opacity:1;stroke-width:0.75;stroke-linecap:butt;stroke-linejoin:miter;stroke:rgb(13.730068%,12.159915%,12.54902%);stroke-opacity:1;stroke-miterlimit:4;" d="M 507.269531 358.289062 L 507.269531 378.539062 L 514.019531 385.289062 L 514.019531 387.539062 L 511.769531 387.539062 L 511.769531 389.789062 L 514.019531 389.789062 L 514.019531 392.039062 L 511.769531 392.039062 L 511.769531 394.289062 L 514.019531 394.289062 L 514.019531 396.539062 L 511.769531 396.539062 L 511.769531 398.789062 L 514.019531 398.789062 L 518.519531 403.289062 L 518.519531 387.539062 L 527.519531 387.539062 L 527.519531 403.289062 L 532.019531 398.789062 L 534.269531 398.789062 L 534.269531 396.539062 L 532.019531 396.539062 L 532.019531 394.289062 L 534.269531 394.289062 L 534.269531 392.039062 L 532.019531 392.039062 L 532.019531 389.789062 L 534.269531 389.789062 L 534.269531 387.539062 L 532.019531 387.539062 L 532.019531 385.289062 L 538.769531 378.539062 L 538.769531 358.289062 L 507.269531 358.289062 " transform="matrix(1,0,0,-1,0,793)"/>
<path style="fill-rule:nonzero;fill:rgb(100%,100%,100%);fill-opacity:1;stroke-width:0.75;stroke-linecap:butt;stroke-linejoin:miter;stroke:rgb(13.730068%,12.159915%,12.54902%);stroke-opacity:1;stroke-miterlimit:4;" d="M 518.519531 396.539062 L 527.519531 396.539062 " transform="matrix(1,0,0,-1,0,793)"/>
<path style="fill-rule:nonzero;fill:rgb(100%,100%,100%);fill-opacity:1;stroke-width:0.75;stroke-linecap:butt;stroke-linejoin:miter;stroke:rgb(13.730068%,12.159915%,12.54902%);stroke-opacity:1;stroke-miterlimit:4;" d="M 518.519531 394.289062 L 527.519531 394.289062 " transform="matrix(1,0,0,-1,0,793)"/>
<path style="fill-rule:nonzero;fill:rgb(100%,100%,100%);fill-opacity:1;stroke-width:0.75;stroke-linecap:butt;stroke-linejoin:miter;stroke:rgb(13.730068%,12.159915%,12.54902%);stroke-opacity:1;stroke-miterlimit:4;" d="M 518.519531 392.039062 L 527.519531 392.039062 " transform="matrix(1,0,0,-1,0,793)"/>
<path style="fill-rule:nonzero;fill:rgb(100%,100%,100%);fill-opacity:1;stroke-width:0.75;stroke-linecap:butt;stroke-linejoin:miter;stroke:rgb(13.730068%,12.159915%,12.54902%);stroke-opacity:1;stroke-miterlimit:4;" d="M 518.519531 389.789062 L 527.519531 389.789062 " transform="matrix(1,0,0,-1,0,793)"/>

<!-- Damage Boxes -->
<path style="fill-rule:nonzero;fill:rgb(100%,100%,100%);fill-opacity:1;stroke-width:1.5;stroke-linecap:butt;stroke-linejoin:miter;stroke:rgb(13.730068%,12.159915%,12.54902%);stroke-opacity:1;stroke-miterlimit:4;" d="M 526.519531 376.292969 L 526.519531 383.042969 L 519.769531 383.042969 L 519.769531 376.292969 L 526.519531 376.292969 Z M 526.519531 376.292969 " transform="matrix(1,0,0,-1,0,793)"/>
<path style="fill-rule:nonzero;fill:rgb(100%,100%,100%);fill-opacity:1;stroke-width:1.5;stroke-linecap:butt;stroke-linejoin:miter;stroke:rgb(13.730068%,12.159915%,12.54902%);stroke-opacity:1;stroke-miterlimit:4;" d="M 519.769531 369.542969 L 519.769531 376.292969 L 513.019531 376.292969 L 513.019531 369.542969 L 519.769531 369.542969 Z M 519.769531 369.542969 " transform="matrix(1,0,0,-1,0,793)"/>
<path style="fill-rule:nonzero;fill:rgb(100%,100%,100%);fill-opacity:1;stroke-width:1.5;stroke-linecap:butt;stroke-linejoin:miter;stroke:rgb(13.730068%,12.159915%,12.54902%);stroke-opacity:1;stroke-miterlimit:4;" d="M 526.519531 369.542969 L 526.519531 376.292969 L 519.769531 376.292969 L 519.769531 369.542969 L 526.519531 369.542969 Z M 526.519531 369.542969 " transform="matrix(1,0,0,-1,0,793)"/>
<path style="fill-rule:nonzero;fill:rgb(100%,100%,100%);fill-opacity:1;stroke-width:1.5;stroke-linecap:butt;stroke-linejoin:miter;stroke:rgb(13.730068%,12.159915%,12.54902%);stroke-opacity:1;stroke-miterlimit:4;" d="M 533.269531 369.542969 L 533.269531 376.292969 L 526.519531 376.292969 L 526.519531 369.542969 L 533.269531 369.542969 Z M 533.269531 369.542969 " transform="matrix(1,0,0,-1,0,793)"/>
<path style="fill-rule:nonzero;fill:rgb(100%,100%,100%);fill-opacity:1;stroke-width:1.5;stroke-linecap:butt;stroke-linejoin:miter;stroke:rgb(13.730068%,12.159915%,12.54902%);stroke-opacity:1;stroke-miterlimit:4;" d="M 519.769531 362.792969 L 519.769531 369.542969 L 513.019531 369.542969 L 513.019531 362.792969 L 519.769531 362.792969 Z M 519.769531 362.792969 " transform="matrix(1,0,0,-1,0,793)"/>
<path style="fill-rule:nonzero;fill:rgb(100%,100%,100%);fill-opacity:1;stroke-width:1.5;stroke-linecap:butt;stroke-linejoin:miter;stroke:rgb(13.730068%,12.159915%,12.54902%);stroke-opacity:1;stroke-miterlimit:4;" d="M 526.519531 362.792969 L 526.519531 369.542969 L 519.769531 369.542969 L 519.769531 362.792969 L 526.519531 362.792969 Z M 526.519531 362.792969 " transform="matrix(1,0,0,-1,0,793)"/>
<path style="fill-rule:nonzero;fill:rgb(100%,100%,100%);fill-opacity:1;stroke-width:1.5;stroke-linecap:butt;stroke-linejoin:miter;stroke:rgb(13.730068%,12.159915%,12.54902%);stroke-opacity:1;stroke-miterlimit:4;" d="M 533.269531 362.792969 L 533.269531 369.542969 L 526.519531 369.542969 L 526.519531 362.792969 L 533.269531 362.792969 Z M 533.269531 362.792969 " transform="matrix(1,0,0,-1,0,793)"/>

</svg>