<svg xmlns="http://www.w3.org/2000/svg" xmlns:xlink="http://www.w3.org/1999/xlink" width="612pt" height="792pt" viewBox="0 0 612 792" version="1.1">

<!-- Light Multiphased Cutter -->
<path style="fill:#ffffff;fill-opacity:1;fill-rule:nonzero;stroke:#211e1e;stroke-width:0.75;stroke-linecap:butt;stroke-linejoin:miter;stroke-miterlimit:4;stroke-opacity:1" d="m 420.875,435.5 0,-36 2.25,-14 0,14 0,-0.5 2.25,-9 0,9.5 2.25,0 0,-11.75 1.25,-4.5 1.25,4.5 0,11.75 2.25,0 0,-9.5 2.25,9 0,0.5 0,-14 2.25,14 0,36 -16,0 z m 0,0"/>

<!-- Damage Boxes -->
<path style="fill:#ffffff;fill-opacity:1;fill-rule:nonzero;stroke:#211e1e;stroke-width:1.5;stroke-linecap:butt;stroke-linejoin:miter;stroke-miterlimit:4;stroke-opacity:1" d="m 425.5,410.95703 6.75,0 0,-6.75 -6.75,0 0,6.75 z m 0,0"/>
<path style="fill:#ffffff;fill-opacity:1;fill-rule:nonzero;stroke:#211e1e;stroke-width:1.5;stroke-linecap:butt;stroke-linejoin:miter;stroke-miterlimit:4;stroke-opacity:1" d="m 425.5,417.70703 6.75,0 0,-6.75 -6.75,0 0,6.75 z m 0,0"/>
<path style="fill:#ffffff;fill-opacity:1;fill-rule:nonzero;stroke:#211e1e;stroke-width:1.5;stroke-linecap:butt;stroke-linejoin:miter;stroke-miterlimit:4;stroke-opacity:1" d="m 425.5,424.45703 6.75,0 0,-6.75 -6.75,0 0,6.75 z m 0,0"/>
<path style="fill:#ffffff;fill-opacity:1;fill-rule:nonzero;stroke:#211e1e;stroke-width:1.5;stroke-linecap:butt;stroke-linejoin:miter;stroke-miterlimit:4;stroke-opacity:1" d="m 425.5,431.20703 6.75,0 0,-6.75 -6.75,0 0,6.75 z m 0,0"/>

</svg>