<svg xmlns="http://www.w3.org/2000/svg" xmlns:xlink="http://www.w3.org/1999/xlink" width="612pt" height="792pt" viewBox="0 0 612 792" version="1.1">

<!-- Light Plasma Cannon -->
<path style="fill-rule:nonzero;fill:rgb(100%,100%,100%);fill-opacity:1;stroke-width:0.75;stroke-linecap:butt;stroke-linejoin:miter;stroke:rgb(13.730068%,12.159915%,12.54902%);stroke-opacity:1;stroke-miterlimit:4;" d="M 198.273438 531 L 198.273438 558 L 202.773438 553.5 L 209.523438 564.75 L 216.273438 553.5 L 220.773438 558 L 220.773438 531 L 198.273438 531 Z M 198.273438 531 " transform="matrix(1,0,0,-1,0,793)"/>

<!-- Damage Boxes -->
<path style="fill-rule:nonzero;fill:rgb(100%,100%,100%);fill-opacity:1;stroke-width:1.5;stroke-linecap:butt;stroke-linejoin:miter;stroke:rgb(13.730068%,12.159915%,12.54902%);stroke-opacity:1;stroke-miterlimit:4;" d="M 209.523438 542.25 L 209.523438 549 L 202.773438 549 L 202.773438 542.25 L 209.523438 542.25 Z M 209.523438 542.25 " transform="matrix(1,0,0,-1,0,793)"/>
<path style="fill-rule:nonzero;fill:rgb(100%,100%,100%);fill-opacity:1;stroke-width:1.5;stroke-linecap:butt;stroke-linejoin:miter;stroke:rgb(13.730068%,12.159915%,12.54902%);stroke-opacity:1;stroke-miterlimit:4;" d="M 216.273438 542.25 L 216.273438 549 L 209.523438 549 L 209.523438 542.25 L 216.273438 542.25 Z M 216.273438 542.25 " transform="matrix(1,0,0,-1,0,793)"/>
<path style="fill-rule:nonzero;fill:rgb(100%,100%,100%);fill-opacity:1;stroke-width:1.5;stroke-linecap:butt;stroke-linejoin:miter;stroke:rgb(13.730068%,12.159915%,12.54902%);stroke-opacity:1;stroke-miterlimit:4;" d="M 209.523438 535.5 L 209.523438 542.25 L 202.773438 542.25 L 202.773438 535.5 L 209.523438 535.5 Z M 209.523438 535.5 " transform="matrix(1,0,0,-1,0,793)"/>
<path style="fill-rule:nonzero;fill:rgb(100%,100%,100%);fill-opacity:1;stroke-width:1.5;stroke-linecap:butt;stroke-linejoin:miter;stroke:rgb(13.730068%,12.159915%,12.54902%);stroke-opacity:1;stroke-miterlimit:4;" d="M 216.273438 535.5 L 216.273438 542.25 L 209.523438 542.25 L 209.523438 535.5 L 216.273438 535.5 Z M 216.273438 535.5 " transform="matrix(1,0,0,-1,0,793)"/>

</svg>