<svg xmlns="http://www.w3.org/2000/svg" xmlns:xlink="http://www.w3.org/1999/xlink" width="612pt" height="792pt" viewBox="0 0 612 792" version="1.1">

<!-- Light Railgun -->
<path style="fill-rule:nonzero;fill:rgb(100%,100%,100%);fill-opacity:1;stroke-width:0.75;stroke-linecap:butt;stroke-linejoin:miter;stroke:rgb(0%,0%,0%);stroke-opacity:1;stroke-miterlimit:4;" d="M 109.640625 397.078125 L 109.640625 424.078125 L 115.140625 429.617188 L 115.140625 426.578125 L 115.140625 434.078125 L 117.390625 434.078125 L 117.390625 440.328125 L 119.890625 436.828125 L 119.890625 434.078125 L 119.890625 434.078125 L 119.890625 424.078125 L 119.890625 426.328125 L 122.140625 426.328125 L 122.140625 424.078125 L 122.140625 434.078125 L 122.140625 434.078125 L 122.140625 436.828125 L 124.640625 440.328125 L 124.640625 434.078125 L 126.890625 434.078125 L 126.890625 426.578125 L 126.890625 429.558594 L 132.390625 424.078125 L 132.390625 397.078125 L 109.640625 397.078125 Z M 109.640625 397.078125 " transform="matrix(1,0,0,-1,145,679)"/>

<!-- Damage Boxes -->
<path style="fill-rule:nonzero;fill:rgb(100%,100%,100%);fill-opacity:1;stroke-width:1.5;stroke-linecap:butt;stroke-linejoin:miter;stroke:rgb(0%,0%,0%);stroke-opacity:1;stroke-miterlimit:4;" d="M 121.140625 421.828125 L 121.140625 415.078125 L 114.390625 415.078125 L 114.390625 421.828125 L 121.140625 421.828125 Z M 121.140625 421.828125 " transform="matrix(1,0,0,-1,145,679)"/>
<path style="fill-rule:nonzero;fill:rgb(100%,100%,100%);fill-opacity:1;stroke-width:1.5;stroke-linecap:butt;stroke-linejoin:miter;stroke:rgb(0%,0%,0%);stroke-opacity:1;stroke-miterlimit:4;" d="M 127.890625 421.828125 L 127.890625 415.078125 L 121.140625 415.078125 L 121.140625 421.828125 L 127.890625 421.828125 Z M 127.890625 421.828125 " transform="matrix(1,0,0,-1,145,679)"/>
<path style="fill-rule:nonzero;fill:rgb(100%,100%,100%);fill-opacity:1;stroke-width:1.5;stroke-linecap:butt;stroke-linejoin:miter;stroke:rgb(0%,0%,0%);stroke-opacity:1;stroke-miterlimit:4;" d="M 121.140625 415.078125 L 121.140625 408.328125 L 114.390625 408.328125 L 114.390625 415.078125 L 121.140625 415.078125 Z M 121.140625 415.078125 " transform="matrix(1,0,0,-1,145,679)"/>
<path style="fill-rule:nonzero;fill:rgb(100%,100%,100%);fill-opacity:1;stroke-width:1.5;stroke-linecap:butt;stroke-linejoin:miter;stroke:rgb(0%,0%,0%);stroke-opacity:1;stroke-miterlimit:4;" d="M 127.890625 415.078125 L 127.890625 408.328125 L 121.140625 408.328125 L 121.140625 415.078125 L 127.890625 415.078125 Z M 127.890625 415.078125 " transform="matrix(1,0,0,-1,145,679)"/>
<path style="fill-rule:nonzero;fill:rgb(100%,100%,100%);fill-opacity:1;stroke-width:1.5;stroke-linecap:butt;stroke-linejoin:miter;stroke:rgb(0%,0%,0%);stroke-opacity:1;stroke-miterlimit:4;" d="M 121.140625 408.328125 L 121.140625 401.578125 L 114.390625 401.578125 L 114.390625 408.328125 L 121.140625 408.328125 Z M 121.140625 408.328125 " transform="matrix(1,0,0,-1,145,679)"/>
<path style="fill-rule:nonzero;fill:rgb(100%,100%,100%);fill-opacity:1;stroke-width:1.5;stroke-linecap:butt;stroke-linejoin:miter;stroke:rgb(0%,0%,0%);stroke-opacity:1;stroke-miterlimit:4;" d="M 127.890625 408.328125 L 127.890625 401.578125 L 121.140625 401.578125 L 121.140625 408.328125 L 127.890625 408.328125 Z M 127.890625 408.328125 " transform="matrix(1,0,0,-1,145,679)"/>

</svg>