<svg xmlns="http://www.w3.org/2000/svg" xmlns:xlink="http://www.w3.org/1999/xlink" width="612pt" height="792pt" viewBox="0 0 612 792" version="1.1">

<!-- Light Particle Beam -->
<path style="fill-rule:nonzero;fill:rgb(100%,100%,100%);fill-opacity:1;stroke-width:0.75;stroke-linecap:butt;stroke-linejoin:miter;stroke:rgb(13.730068%,12.159915%,12.54902%);stroke-opacity:1;stroke-miterlimit:4;" d="M 207 439.5 L 207 461.25 L 201.5 461.25 L 203.75 461.25 L 203.75 465.75 L 201.5 465.75 L 201.5 472.5 L 197 472.5 L 197 465.75 L 194.75 465.75 L 194.75 461.25 L 197 461.25 L 191.25 461.25 L 191.25 439.5 L 207 439.5 Z M 207 439.5 " transform="matrix(1,0,0,-1,0,793)"/>

<!-- Damage Boxes -->
<path style="fill-rule:nonzero;fill:rgb(100%,100%,100%);fill-opacity:1;stroke-width:1.5;stroke-linecap:butt;stroke-linejoin:miter;stroke:rgb(13.730068%,12.159915%,12.54902%);stroke-opacity:1;stroke-miterlimit:4;" d="M 202.5 450 L 195.75 450 L 195.75 456.75 L 202.5 456.75 L 202.5 450 Z M 202.5 450 " transform="matrix(1,0,0,-1,0,793)"/>
<path style="fill-rule:nonzero;fill:rgb(100%,100%,100%);fill-opacity:1;stroke-width:1.5;stroke-linecap:butt;stroke-linejoin:miter;stroke:rgb(13.730068%,12.159915%,12.54902%);stroke-opacity:1;stroke-miterlimit:4;" d="M 202.5 443.25 L 195.75 443.25 L 195.75 450 L 202.5 450 L 202.5 443.25 Z M 202.5 443.25 " transform="matrix(1,0,0,-1,0,793)"/>

</svg>