<svg xmlns="http://www.w3.org/2000/svg" xmlns:xlink="http://www.w3.org/1999/xlink" width="612pt" height="792pt" viewBox="0 0 612 792" version="1.1">

<!-- Light Plasma Bolter -->
<path style="fill-rule:nonzero;fill:rgb(100%,100%,100%);fill-opacity:1;stroke-width:0.75;stroke-linecap:butt;stroke-linejoin:miter;stroke:rgb(13.730068%,12.159915%,12.54902%);stroke-opacity:1;stroke-miterlimit:4;" d="M 243 534.269531 C 246.171875 534.269531 248.738281 536.839844 248.738281 540.007812 C 248.738281 543.179688 246.171875 545.75 243 545.75 C 239.828125 545.75 237.257812 543.179688 237.257812 540.007812 C 237.257812 536.839844 239.828125 534.269531 243 534.269531 Z M 243 534.269531 " transform="matrix(1,0,0,-1,0,792)"/>
<path style="fill-rule:nonzero;fill:rgb(100%,100%,100%);fill-opacity:1;stroke-width:0.75;stroke-linecap:butt;stroke-linejoin:miter;stroke:rgb(13.730068%,12.159915%,12.54902%);stroke-opacity:1;stroke-miterlimit:4;" d="M 231.75 500.75 L 231.75 534.5 L 236.25 530 L 243 541.25 L 249.75 530 L 254.25 534.5 L 254.25 500.75 L 231.75 500.75 Z M 231.75 500.75 " transform="matrix(1,0,0,-1,0,792)"/>

<!-- Damage Boxes -->
<path style="fill-rule:nonzero;fill:rgb(100%,100%,100%);fill-opacity:1;stroke-width:1.5;stroke-linecap:butt;stroke-linejoin:miter;stroke:rgb(13.730068%,12.159915%,12.54902%);stroke-opacity:1;stroke-miterlimit:4;" d="M 243 518.75 L 243 525.5 L 236.25 525.5 L 236.25 518.75 L 243 518.75 Z M 243 518.75 " transform="matrix(1,0,0,-1,0,792)"/>
<path style="fill-rule:nonzero;fill:rgb(100%,100%,100%);fill-opacity:1;stroke-width:1.5;stroke-linecap:butt;stroke-linejoin:miter;stroke:rgb(13.730068%,12.159915%,12.54902%);stroke-opacity:1;stroke-miterlimit:4;" d="M 249.75 518.75 L 249.75 525.5 L 243 525.5 L 243 518.75 L 249.75 518.75 Z M 249.75 518.75 " transform="matrix(1,0,0,-1,0,792)"/>
<path style="fill-rule:nonzero;fill:rgb(100%,100%,100%);fill-opacity:1;stroke-width:1.5;stroke-linecap:butt;stroke-linejoin:miter;stroke:rgb(13.730068%,12.159915%,12.54902%);stroke-opacity:1;stroke-miterlimit:4;" d="M 243 512 L 243 518.75 L 236.25 518.75 L 236.25 512 L 243 512 Z M 243 512 " transform="matrix(1,0,0,-1,0,792)"/>
<path style="fill-rule:nonzero;fill:rgb(100%,100%,100%);fill-opacity:1;stroke-width:1.5;stroke-linecap:butt;stroke-linejoin:miter;stroke:rgb(13.730068%,12.159915%,12.54902%);stroke-opacity:1;stroke-miterlimit:4;" d="M 249.75 512 L 249.75 518.75 L 243 518.75 L 243 512 L 249.75 512 Z M 249.75 512 " transform="matrix(1,0,0,-1,0,792)"/>
<path style="fill-rule:nonzero;fill:rgb(100%,100%,100%);fill-opacity:1;stroke-width:1.5;stroke-linecap:butt;stroke-linejoin:miter;stroke:rgb(13.730068%,12.159915%,12.54902%);stroke-opacity:1;stroke-miterlimit:4;" d="M 243 505.25 L 243 512 L 236.25 512 L 236.25 505.25 L 243 505.25 Z M 243 505.25 " transform="matrix(1,0,0,-1,0,792)"/>
<path style="fill-rule:nonzero;fill:rgb(100%,100%,100%);fill-opacity:1;stroke-width:1.5;stroke-linecap:butt;stroke-linejoin:miter;stroke:rgb(13.730068%,12.159915%,12.54902%);stroke-opacity:1;stroke-miterlimit:4;" d="M 249.75 505.25 L 249.75 512 L 243 512 L 243 505.25 L 249.75 505.25 Z M 249.75 505.25 " transform="matrix(1,0,0,-1,0,792)"/>

</svg>