<svg xmlns="http://www.w3.org/2000/svg" xmlns:xlink="http://www.w3.org/1999/xlink" width="612pt" height="792pt" viewBox="0 0 612 792" version="1.1">

<!-- Lightning Array -->
<path style="fill-rule:nonzero;fill:rgb(100%,100%,100%);fill-opacity:1;stroke-width:0.75;stroke-linecap:butt;stroke-linejoin:miter;stroke:rgb(13.730068%,12.159915%,12.54902%);stroke-opacity:1;stroke-miterlimit:4;" d="M 318.480469 465.9375 L 313.980469 474.9375 L 318.480469 474.9375 L 313.980469 481.6875 L 318.480469 481.6875 L 316.230469 488.4375 L 325.230469 479.4375 L 320.730469 479.4375 L 325.230469 472.6875 L 320.730469 472.6875 L 325.230469 465.9375 L 336.480469 465.9375 L 331.980469 474.9375 L 336.480469 474.9375 L 331.980469 481.6875 L 336.480469 481.6875 L 334.230469 488.4375 L 343.230469 479.4375 L 338.730469 479.4375 L 343.230469 472.6875 L 338.730469 472.6875 L 343.230469 465.9375 L 349.980469 465.9375 L 349.980469 425.457031 L 268.980469 425.457031 L 268.980469 465.9375 L 275.730469 465.9375 L 280.230469 472.6875 L 275.730469 472.6875 L 280.230469 479.4375 L 275.730469 479.4375 L 284.730469 488.4375 L 282.480469 481.6875 L 286.980469 481.6875 L 282.480469 474.9375 L 286.980469 474.9375 L 282.480469 465.9375 L 293.730469 465.9375 L 298.230469 472.6875 L 293.730469 472.6875 L 298.230469 479.4375 L 293.730469 479.4375 L 302.730469 488.4375 L 300.480469 481.6875 L 304.980469 481.6875 L 300.480469 474.9375 L 304.980469 474.9375 L 300.480469 465.9375 L 318.480469 465.9375 Z M 318.480469 465.9375 " transform="matrix(1,0,0,-1,0,793)"/>

<!-- Damage Boxes -->
<path style="fill-rule:nonzero;fill:rgb(100%,100%,100%);fill-opacity:1;stroke-width:1.5;stroke-linecap:butt;stroke-linejoin:miter;stroke:rgb(13.730068%,12.159915%,12.54902%);stroke-opacity:1;stroke-miterlimit:4;" d="M 282.480469 452.4375 L 282.480469 459.1875 L 275.730469 459.1875 L 275.730469 452.4375 L 282.480469 452.4375 Z M 282.480469 452.4375 " transform="matrix(1,0,0,-1,0,793)"/>
<path style="fill-rule:nonzero;fill:rgb(100%,100%,100%);fill-opacity:1;stroke-width:1.5;stroke-linecap:butt;stroke-linejoin:miter;stroke:rgb(13.730068%,12.159915%,12.54902%);stroke-opacity:1;stroke-miterlimit:4;" d="M 289.230469 452.4375 L 289.230469 459.1875 L 282.480469 459.1875 L 282.480469 452.4375 L 289.230469 452.4375 Z M 289.230469 452.4375 " transform="matrix(1,0,0,-1,0,793)"/>
<path style="fill-rule:nonzero;fill:rgb(100%,100%,100%);fill-opacity:1;stroke-width:1.5;stroke-linecap:butt;stroke-linejoin:miter;stroke:rgb(13.730068%,12.159915%,12.54902%);stroke-opacity:1;stroke-miterlimit:4;" d="M 295.980469 452.4375 L 295.980469 459.1875 L 289.230469 459.1875 L 289.230469 452.4375 L 295.980469 452.4375 Z M 295.980469 452.4375 " transform="matrix(1,0,0,-1,0,793)"/>
<path style="fill-rule:nonzero;fill:rgb(100%,100%,100%);fill-opacity:1;stroke-width:1.5;stroke-linecap:butt;stroke-linejoin:miter;stroke:rgb(13.730068%,12.159915%,12.54902%);stroke-opacity:1;stroke-miterlimit:4;" d="M 302.730469 452.4375 L 302.730469 459.1875 L 295.980469 459.1875 L 295.980469 452.4375 L 302.730469 452.4375 Z M 302.730469 452.4375 " transform="matrix(1,0,0,-1,0,793)"/>
<path style="fill-rule:nonzero;fill:rgb(100%,100%,100%);fill-opacity:1;stroke-width:1.5;stroke-linecap:butt;stroke-linejoin:miter;stroke:rgb(13.730068%,12.159915%,12.54902%);stroke-opacity:1;stroke-miterlimit:4;" d="M 309.480469 452.4375 L 309.480469 459.1875 L 302.730469 459.1875 L 302.730469 452.4375 L 309.480469 452.4375 Z M 309.480469 452.4375 " transform="matrix(1,0,0,-1,0,793)"/>
<path style="fill-rule:nonzero;fill:rgb(100%,100%,100%);fill-opacity:1;stroke-width:1.5;stroke-linecap:butt;stroke-linejoin:miter;stroke:rgb(13.730068%,12.159915%,12.54902%);stroke-opacity:1;stroke-miterlimit:4;" d="M 316.230469 452.4375 L 316.230469 459.1875 L 309.480469 459.1875 L 309.480469 452.4375 L 316.230469 452.4375 Z M 316.230469 452.4375 " transform="matrix(1,0,0,-1,0,793)"/>
<path style="fill-rule:nonzero;fill:rgb(100%,100%,100%);fill-opacity:1;stroke-width:1.5;stroke-linecap:butt;stroke-linejoin:miter;stroke:rgb(13.730068%,12.159915%,12.54902%);stroke-opacity:1;stroke-miterlimit:4;" d="M 322.980469 452.4375 L 322.980469 459.1875 L 316.230469 459.1875 L 316.230469 452.4375 L 322.980469 452.4375 Z M 322.980469 452.4375 " transform="matrix(1,0,0,-1,0,793)"/>
<path style="fill-rule:nonzero;fill:rgb(100%,100%,100%);fill-opacity:1;stroke-width:1.5;stroke-linecap:butt;stroke-linejoin:miter;stroke:rgb(13.730068%,12.159915%,12.54902%);stroke-opacity:1;stroke-miterlimit:4;" d="M 329.730469 452.4375 L 329.730469 459.1875 L 322.980469 459.1875 L 322.980469 452.4375 L 329.730469 452.4375 Z M 329.730469 452.4375 " transform="matrix(1,0,0,-1,0,793)"/>
<path style="fill-rule:nonzero;fill:rgb(100%,100%,100%);fill-opacity:1;stroke-width:1.5;stroke-linecap:butt;stroke-linejoin:miter;stroke:rgb(13.730068%,12.159915%,12.54902%);stroke-opacity:1;stroke-miterlimit:4;" d="M 336.480469 452.4375 L 336.480469 459.1875 L 329.730469 459.1875 L 329.730469 452.4375 L 336.480469 452.4375 Z M 336.480469 452.4375 " transform="matrix(1,0,0,-1,0,793)"/>
<path style="fill-rule:nonzero;fill:rgb(100%,100%,100%);fill-opacity:1;stroke-width:1.5;stroke-linecap:butt;stroke-linejoin:miter;stroke:rgb(13.730068%,12.159915%,12.54902%);stroke-opacity:1;stroke-miterlimit:4;" d="M 343.230469 452.4375 L 343.230469 459.1875 L 336.480469 459.1875 L 336.480469 452.4375 L 343.230469 452.4375 Z M 343.230469 452.4375 " transform="matrix(1,0,0,-1,0,793)"/>
<path style="fill-rule:nonzero;fill:rgb(100%,100%,100%);fill-opacity:1;stroke-width:1.5;stroke-linecap:butt;stroke-linejoin:miter;stroke:rgb(13.730068%,12.159915%,12.54902%);stroke-opacity:1;stroke-miterlimit:4;" d="M 282.480469 445.6875 L 282.480469 452.4375 L 275.730469 452.4375 L 275.730469 445.6875 L 282.480469 445.6875 Z M 282.480469 445.6875 " transform="matrix(1,0,0,-1,0,793)"/>
<path style="fill-rule:nonzero;fill:rgb(100%,100%,100%);fill-opacity:1;stroke-width:1.5;stroke-linecap:butt;stroke-linejoin:miter;stroke:rgb(13.730068%,12.159915%,12.54902%);stroke-opacity:1;stroke-miterlimit:4;" d="M 289.230469 445.6875 L 289.230469 452.4375 L 282.480469 452.4375 L 282.480469 445.6875 L 289.230469 445.6875 Z M 289.230469 445.6875 " transform="matrix(1,0,0,-1,0,793)"/>
<path style="fill-rule:nonzero;fill:rgb(100%,100%,100%);fill-opacity:1;stroke-width:1.5;stroke-linecap:butt;stroke-linejoin:miter;stroke:rgb(13.730068%,12.159915%,12.54902%);stroke-opacity:1;stroke-miterlimit:4;" d="M 295.980469 445.6875 L 295.980469 452.4375 L 289.230469 452.4375 L 289.230469 445.6875 L 295.980469 445.6875 Z M 295.980469 445.6875 " transform="matrix(1,0,0,-1,0,793)"/>
<path style="fill-rule:nonzero;fill:rgb(100%,100%,100%);fill-opacity:1;stroke-width:1.5;stroke-linecap:butt;stroke-linejoin:miter;stroke:rgb(13.730068%,12.159915%,12.54902%);stroke-opacity:1;stroke-miterlimit:4;" d="M 302.730469 445.6875 L 302.730469 452.4375 L 295.980469 452.4375 L 295.980469 445.6875 L 302.730469 445.6875 Z M 302.730469 445.6875 " transform="matrix(1,0,0,-1,0,793)"/>
<path style="fill-rule:nonzero;fill:rgb(100%,100%,100%);fill-opacity:1;stroke-width:1.5;stroke-linecap:butt;stroke-linejoin:miter;stroke:rgb(13.730068%,12.159915%,12.54902%);stroke-opacity:1;stroke-miterlimit:4;" d="M 309.480469 445.6875 L 309.480469 452.4375 L 302.730469 452.4375 L 302.730469 445.6875 L 309.480469 445.6875 Z M 309.480469 445.6875 " transform="matrix(1,0,0,-1,0,793)"/>
<path style="fill-rule:nonzero;fill:rgb(100%,100%,100%);fill-opacity:1;stroke-width:1.5;stroke-linecap:butt;stroke-linejoin:miter;stroke:rgb(13.730068%,12.159915%,12.54902%);stroke-opacity:1;stroke-miterlimit:4;" d="M 316.230469 445.6875 L 316.230469 452.4375 L 309.480469 452.4375 L 309.480469 445.6875 L 316.230469 445.6875 Z M 316.230469 445.6875 " transform="matrix(1,0,0,-1,0,793)"/>
<path style="fill-rule:nonzero;fill:rgb(100%,100%,100%);fill-opacity:1;stroke-width:1.5;stroke-linecap:butt;stroke-linejoin:miter;stroke:rgb(13.730068%,12.159915%,12.54902%);stroke-opacity:1;stroke-miterlimit:4;" d="M 322.980469 445.6875 L 322.980469 452.4375 L 316.230469 452.4375 L 316.230469 445.6875 L 322.980469 445.6875 Z M 322.980469 445.6875 " transform="matrix(1,0,0,-1,0,793)"/>
<path style="fill-rule:nonzero;fill:rgb(100%,100%,100%);fill-opacity:1;stroke-width:1.5;stroke-linecap:butt;stroke-linejoin:miter;stroke:rgb(13.730068%,12.159915%,12.54902%);stroke-opacity:1;stroke-miterlimit:4;" d="M 329.730469 445.6875 L 329.730469 452.4375 L 322.980469 452.4375 L 322.980469 445.6875 L 329.730469 445.6875 Z M 329.730469 445.6875 " transform="matrix(1,0,0,-1,0,793)"/>
<path style="fill-rule:nonzero;fill:rgb(100%,100%,100%);fill-opacity:1;stroke-width:1.5;stroke-linecap:butt;stroke-linejoin:miter;stroke:rgb(13.730068%,12.159915%,12.54902%);stroke-opacity:1;stroke-miterlimit:4;" d="M 336.480469 445.6875 L 336.480469 452.4375 L 329.730469 452.4375 L 329.730469 445.6875 L 336.480469 445.6875 Z M 336.480469 445.6875 " transform="matrix(1,0,0,-1,0,793)"/>
<path style="fill-rule:nonzero;fill:rgb(100%,100%,100%);fill-opacity:1;stroke-width:1.5;stroke-linecap:butt;stroke-linejoin:miter;stroke:rgb(13.730068%,12.159915%,12.54902%);stroke-opacity:1;stroke-miterlimit:4;" d="M 343.230469 445.6875 L 343.230469 452.4375 L 336.480469 452.4375 L 336.480469 445.6875 L 343.230469 445.6875 Z M 343.230469 445.6875 " transform="matrix(1,0,0,-1,0,793)"/>
<path style="fill-rule:nonzero;fill:rgb(100%,100%,100%);fill-opacity:1;stroke-width:1.5;stroke-linecap:butt;stroke-linejoin:miter;stroke:rgb(13.730068%,12.159915%,12.54902%);stroke-opacity:1;stroke-miterlimit:4;" d="M 282.480469 438.9375 L 282.480469 445.6875 L 275.730469 445.6875 L 275.730469 438.9375 L 282.480469 438.9375 Z M 282.480469 438.9375 " transform="matrix(1,0,0,-1,0,793)"/>
<path style="fill-rule:nonzero;fill:rgb(100%,100%,100%);fill-opacity:1;stroke-width:1.5;stroke-linecap:butt;stroke-linejoin:miter;stroke:rgb(13.730068%,12.159915%,12.54902%);stroke-opacity:1;stroke-miterlimit:4;" d="M 289.230469 438.9375 L 289.230469 445.6875 L 282.480469 445.6875 L 282.480469 438.9375 L 289.230469 438.9375 Z M 289.230469 438.9375 " transform="matrix(1,0,0,-1,0,793)"/>
<path style="fill-rule:nonzero;fill:rgb(100%,100%,100%);fill-opacity:1;stroke-width:1.5;stroke-linecap:butt;stroke-linejoin:miter;stroke:rgb(13.730068%,12.159915%,12.54902%);stroke-opacity:1;stroke-miterlimit:4;" d="M 295.980469 438.9375 L 295.980469 445.6875 L 289.230469 445.6875 L 289.230469 438.9375 L 295.980469 438.9375 Z M 295.980469 438.9375 " transform="matrix(1,0,0,-1,0,793)"/>
<path style="fill-rule:nonzero;fill:rgb(100%,100%,100%);fill-opacity:1;stroke-width:1.5;stroke-linecap:butt;stroke-linejoin:miter;stroke:rgb(13.730068%,12.159915%,12.54902%);stroke-opacity:1;stroke-miterlimit:4;" d="M 302.730469 438.9375 L 302.730469 445.6875 L 295.980469 445.6875 L 295.980469 438.9375 L 302.730469 438.9375 Z M 302.730469 438.9375 " transform="matrix(1,0,0,-1,0,793)"/>
<path style="fill-rule:nonzero;fill:rgb(100%,100%,100%);fill-opacity:1;stroke-width:1.5;stroke-linecap:butt;stroke-linejoin:miter;stroke:rgb(13.730068%,12.159915%,12.54902%);stroke-opacity:1;stroke-miterlimit:4;" d="M 309.480469 438.9375 L 309.480469 445.6875 L 302.730469 445.6875 L 302.730469 438.9375 L 309.480469 438.9375 Z M 309.480469 438.9375 " transform="matrix(1,0,0,-1,0,793)"/>
<path style="fill-rule:nonzero;fill:rgb(100%,100%,100%);fill-opacity:1;stroke-width:1.5;stroke-linecap:butt;stroke-linejoin:miter;stroke:rgb(13.730068%,12.159915%,12.54902%);stroke-opacity:1;stroke-miterlimit:4;" d="M 316.230469 438.9375 L 316.230469 445.6875 L 309.480469 445.6875 L 309.480469 438.9375 L 316.230469 438.9375 Z M 316.230469 438.9375 " transform="matrix(1,0,0,-1,0,793)"/>
<path style="fill-rule:nonzero;fill:rgb(100%,100%,100%);fill-opacity:1;stroke-width:1.5;stroke-linecap:butt;stroke-linejoin:miter;stroke:rgb(13.730068%,12.159915%,12.54902%);stroke-opacity:1;stroke-miterlimit:4;" d="M 322.980469 438.9375 L 322.980469 445.6875 L 316.230469 445.6875 L 316.230469 438.9375 L 322.980469 438.9375 Z M 322.980469 438.9375 " transform="matrix(1,0,0,-1,0,793)"/>
<path style="fill-rule:nonzero;fill:rgb(100%,100%,100%);fill-opacity:1;stroke-width:1.5;stroke-linecap:butt;stroke-linejoin:miter;stroke:rgb(13.730068%,12.159915%,12.54902%);stroke-opacity:1;stroke-miterlimit:4;" d="M 329.730469 438.9375 L 329.730469 445.6875 L 322.980469 445.6875 L 322.980469 438.9375 L 329.730469 438.9375 Z M 329.730469 438.9375 " transform="matrix(1,0,0,-1,0,793)"/>
<path style="fill-rule:nonzero;fill:rgb(100%,100%,100%);fill-opacity:1;stroke-width:1.5;stroke-linecap:butt;stroke-linejoin:miter;stroke:rgb(13.730068%,12.159915%,12.54902%);stroke-opacity:1;stroke-miterlimit:4;" d="M 336.480469 438.9375 L 336.480469 445.6875 L 329.730469 445.6875 L 329.730469 438.9375 L 336.480469 438.9375 Z M 336.480469 438.9375 " transform="matrix(1,0,0,-1,0,793)"/>
<path style="fill-rule:nonzero;fill:rgb(100%,100%,100%);fill-opacity:1;stroke-width:1.5;stroke-linecap:butt;stroke-linejoin:miter;stroke:rgb(13.730068%,12.159915%,12.54902%);stroke-opacity:1;stroke-miterlimit:4;" d="M 343.230469 438.9375 L 343.230469 445.6875 L 336.480469 445.6875 L 336.480469 438.9375 L 343.230469 438.9375 Z M 343.230469 438.9375 " transform="matrix(1,0,0,-1,0,793)"/>
<path style="fill-rule:nonzero;fill:rgb(100%,100%,100%);fill-opacity:1;stroke-width:1.5;stroke-linecap:butt;stroke-linejoin:miter;stroke:rgb(13.730068%,12.159915%,12.54902%);stroke-opacity:1;stroke-miterlimit:4;" d="M 282.480469 432.1875 L 282.480469 438.9375 L 275.730469 438.9375 L 275.730469 432.1875 L 282.480469 432.1875 Z M 282.480469 432.1875 " transform="matrix(1,0,0,-1,0,793)"/>
<path style="fill-rule:nonzero;fill:rgb(100%,100%,100%);fill-opacity:1;stroke-width:1.5;stroke-linecap:butt;stroke-linejoin:miter;stroke:rgb(13.730068%,12.159915%,12.54902%);stroke-opacity:1;stroke-miterlimit:4;" d="M 289.230469 432.1875 L 289.230469 438.9375 L 282.480469 438.9375 L 282.480469 432.1875 L 289.230469 432.1875 Z M 289.230469 432.1875 " transform="matrix(1,0,0,-1,0,793)"/>
<path style="fill-rule:nonzero;fill:rgb(100%,100%,100%);fill-opacity:1;stroke-width:1.5;stroke-linecap:butt;stroke-linejoin:miter;stroke:rgb(13.730068%,12.159915%,12.54902%);stroke-opacity:1;stroke-miterlimit:4;" d="M 295.980469 432.1875 L 295.980469 438.9375 L 289.230469 438.9375 L 289.230469 432.1875 L 295.980469 432.1875 Z M 295.980469 432.1875 " transform="matrix(1,0,0,-1,0,793)"/>
<path style="fill-rule:nonzero;fill:rgb(100%,100%,100%);fill-opacity:1;stroke-width:1.5;stroke-linecap:butt;stroke-linejoin:miter;stroke:rgb(13.730068%,12.159915%,12.54902%);stroke-opacity:1;stroke-miterlimit:4;" d="M 302.730469 432.1875 L 302.730469 438.9375 L 295.980469 438.9375 L 295.980469 432.1875 L 302.730469 432.1875 Z M 302.730469 432.1875 " transform="matrix(1,0,0,-1,0,793)"/>
<path style="fill-rule:nonzero;fill:rgb(100%,100%,100%);fill-opacity:1;stroke-width:1.5;stroke-linecap:butt;stroke-linejoin:miter;stroke:rgb(13.730068%,12.159915%,12.54902%);stroke-opacity:1;stroke-miterlimit:4;" d="M 309.480469 432.1875 L 309.480469 438.9375 L 302.730469 438.9375 L 302.730469 432.1875 L 309.480469 432.1875 Z M 309.480469 432.1875 " transform="matrix(1,0,0,-1,0,793)"/>
<path style="fill-rule:nonzero;fill:rgb(100%,100%,100%);fill-opacity:1;stroke-width:1.5;stroke-linecap:butt;stroke-linejoin:miter;stroke:rgb(13.730068%,12.159915%,12.54902%);stroke-opacity:1;stroke-miterlimit:4;" d="M 316.230469 432.1875 L 316.230469 438.9375 L 309.480469 438.9375 L 309.480469 432.1875 L 316.230469 432.1875 Z M 316.230469 432.1875 " transform="matrix(1,0,0,-1,0,793)"/>
<path style="fill-rule:nonzero;fill:rgb(100%,100%,100%);fill-opacity:1;stroke-width:1.5;stroke-linecap:butt;stroke-linejoin:miter;stroke:rgb(13.730068%,12.159915%,12.54902%);stroke-opacity:1;stroke-miterlimit:4;" d="M 322.980469 432.1875 L 322.980469 438.9375 L 316.230469 438.9375 L 316.230469 432.1875 L 322.980469 432.1875 Z M 322.980469 432.1875 " transform="matrix(1,0,0,-1,0,793)"/>
<path style="fill-rule:nonzero;fill:rgb(100%,100%,100%);fill-opacity:1;stroke-width:1.5;stroke-linecap:butt;stroke-linejoin:miter;stroke:rgb(13.730068%,12.159915%,12.54902%);stroke-opacity:1;stroke-miterlimit:4;" d="M 329.730469 432.1875 L 329.730469 438.9375 L 322.980469 438.9375 L 322.980469 432.1875 L 329.730469 432.1875 Z M 329.730469 432.1875 " transform="matrix(1,0,0,-1,0,793)"/>
<path style="fill-rule:nonzero;fill:rgb(100%,100%,100%);fill-opacity:1;stroke-width:1.5;stroke-linecap:butt;stroke-linejoin:miter;stroke:rgb(13.730068%,12.159915%,12.54902%);stroke-opacity:1;stroke-miterlimit:4;" d="M 336.480469 432.1875 L 336.480469 438.9375 L 329.730469 438.9375 L 329.730469 432.1875 L 336.480469 432.1875 Z M 336.480469 432.1875 " transform="matrix(1,0,0,-1,0,793)"/>
<path style="fill-rule:nonzero;fill:rgb(100%,100%,100%);fill-opacity:1;stroke-width:1.5;stroke-linecap:butt;stroke-linejoin:miter;stroke:rgb(13.730068%,12.159915%,12.54902%);stroke-opacity:1;stroke-miterlimit:4;" d="M 343.230469 432.1875 L 343.230469 438.9375 L 336.480469 438.9375 L 336.480469 432.1875 L 343.230469 432.1875 Z M 343.230469 432.1875 " transform="matrix(1,0,0,-1,0,793)"/>

</svg>