<svg xmlns="http://www.w3.org/2000/svg" xmlns:xlink="http://www.w3.org/1999/xlink" width="612pt" height="792pt" viewBox="0 0 612 792" version="1.1">

<!-- Light Laser Cannon -->
<path style="fill-rule:nonzero;fill:rgb(100%,100%,100%);fill-opacity:1;stroke-width:0.75;stroke-linecap:butt;stroke-linejoin:miter;stroke:rgb(13.730068%,12.159915%,12.54902%);stroke-opacity:1;stroke-miterlimit:4;" d="M 168.75 324 L 168.75 346.5 L 162 346.5 L 162 351 L 166.5 351 L 166.5 353.25 L 162 353.25 L 157.5 357.75 L 153 353.25 L 148.5 353.25 L 148.5 351 L 153 351 L 153 346.5 L 146.25 346.5 L 146.25 324 L 168.75 324 Z M 168.75 324 " transform="matrix(1,0,0,-1,0,793)"/>

<!-- Damage Boxes -->
<path style="fill-rule:nonzero;fill:rgb(100%,100%,100%);fill-opacity:1;stroke-width:1.5;stroke-linecap:butt;stroke-linejoin:miter;stroke:rgb(13.730068%,12.159915%,12.54902%);stroke-opacity:1;stroke-miterlimit:4;" d="M 157.5 335.25 L 157.5 342 L 150.75 342 L 150.75 335.25 L 157.5 335.25 Z M 157.5 335.25 " transform="matrix(1,0,0,-1,0,793)"/>
<path style="fill-rule:nonzero;fill:rgb(100%,100%,100%);fill-opacity:1;stroke-width:1.5;stroke-linecap:butt;stroke-linejoin:miter;stroke:rgb(13.730068%,12.159915%,12.54902%);stroke-opacity:1;stroke-miterlimit:4;" d="M 164.25 335.25 L 164.25 342 L 157.5 342 L 157.5 335.25 L 164.25 335.25 Z M 164.25 335.25 " transform="matrix(1,0,0,-1,0,793)"/>
<path style="fill-rule:nonzero;fill:rgb(100%,100%,100%);fill-opacity:1;stroke-width:1.5;stroke-linecap:butt;stroke-linejoin:miter;stroke:rgb(13.730068%,12.159915%,12.54902%);stroke-opacity:1;stroke-miterlimit:4;" d="M 157.5 328.5 L 157.5 335.25 L 150.75 335.25 L 150.75 328.5 L 157.5 328.5 Z M 157.5 328.5 " transform="matrix(1,0,0,-1,0,793)"/>
<path style="fill-rule:nonzero;fill:rgb(100%,100%,100%);fill-opacity:1;stroke-width:1.5;stroke-linecap:butt;stroke-linejoin:miter;stroke:rgb(13.730068%,12.159915%,12.54902%);stroke-opacity:1;stroke-miterlimit:4;" d="M 164.25 328.5 L 164.25 335.25 L 157.5 335.25 L 157.5 328.5 L 164.25 328.5 Z M 164.25 328.5 " transform="matrix(1,0,0,-1,0,793)"/>

</svg>