<svg xmlns="http://www.w3.org/2000/svg" xmlns:xlink="http://www.w3.org/1999/xlink" width="612pt" height="792pt" viewBox="0 0 612 792" version="1.1">

<!-- Light Molecular Slicer Beam -->
<path style="fill-rule:nonzero;fill:rgb(100%,100%,100%);fill-opacity:1;stroke-width:0.75;stroke-linecap:butt;stroke-linejoin:miter;stroke:rgb(13.730068%,12.159915%,12.54902%);stroke-opacity:1;stroke-miterlimit:4;" d="M 220.201787 533.250413 L 220.201787 573.394944 L 224.186162 603.449631 L 224.186162 594.89885 L 234.986944 589.500413 L 234.986944 589.598069 L 225.600225 584.195725 L 234.986944 578.797288 L 243.600225 584.195725 L 234.986944 589.598069 L 234.986944 589.500413 L 245.787725 594.89885 L 245.787725 603.449631 L 248.998662 573.394944 L 248.998662 533.250413 L 220.201787 533.250413 Z M 220.201787 533.250413 " transform="matrix(1,0,0,-1,25.4779,859.2426)"/>
<path style="fill-rule:nonzero;fill:rgb(100%,100%,100%);fill-opacity:1;stroke-width:0.75;stroke-linecap:butt;stroke-linejoin:miter;stroke:rgb(13.730068%,12.159915%,12.54902%);stroke-opacity:1;stroke-miterlimit:4;" d="M 234.986944 578.699631 L 229.588506 584.098069 L 234.986944 589.500413 L 229.588506 596.250413 L 234.986944 603.351975 L 240.389287 596.250413 L 234.986944 589.500413 L 240.389287 584.098069 L 234.986944 578.699631 Z M 234.986944 578.699631 " transform="matrix(1,0,0,-1,25.4779,859.2426)"/>

<!-- Damage Boxes -->
<path style="fill-rule:nonzero;fill:rgb(100%,100%,100%);fill-opacity:1;stroke-width:1.5;stroke-linecap:butt;stroke-linejoin:miter;stroke:rgb(13.730068%,12.159915%,12.54902%);stroke-opacity:1;stroke-miterlimit:4;" d="M 234.986944 567.000413 L 234.986944 573.750413 L 228.236944 573.750413 L 228.236944 567.000413 L 234.986944 567.000413 Z M 234.986944 567.000413 " transform="matrix(1,0,0,-1,25.4779,859.2426)"/>
<path style="fill-rule:nonzero;fill:rgb(100%,100%,100%);fill-opacity:1;stroke-width:1.5;stroke-linecap:butt;stroke-linejoin:miter;stroke:rgb(13.730068%,12.159915%,12.54902%);stroke-opacity:1;stroke-miterlimit:4;" d="M 241.736944 567.000413 L 241.736944 573.750413 L 234.986944 573.750413 L 234.986944 567.000413 L 241.736944 567.000413 Z M 241.736944 567.000413 " transform="matrix(1,0,0,-1,25.4779,859.2426)"/>
<path style="fill-rule:nonzero;fill:rgb(100%,100%,100%);fill-opacity:1;stroke-width:1.5;stroke-linecap:butt;stroke-linejoin:miter;stroke:rgb(13.730068%,12.159915%,12.54902%);stroke-opacity:1;stroke-miterlimit:4;" d="M 234.986944 560.250413 L 234.986944 567.000413 L 228.236944 567.000413 L 228.236944 560.250413 L 234.986944 560.250413 Z M 234.986944 560.250413 " transform="matrix(1,0,0,-1,25.4779,859.2426)"/>
<path style="fill-rule:nonzero;fill:rgb(100%,100%,100%);fill-opacity:1;stroke-width:1.5;stroke-linecap:butt;stroke-linejoin:miter;stroke:rgb(13.730068%,12.159915%,12.54902%);stroke-opacity:1;stroke-miterlimit:4;" d="M 241.736944 560.250413 L 241.736944 567.000413 L 234.986944 567.000413 L 234.986944 560.250413 L 241.736944 560.250413 Z M 241.736944 560.250413 " transform="matrix(1,0,0,-1,25.4779,859.2426)"/>
<path style="fill-rule:nonzero;fill:rgb(100%,100%,100%);fill-opacity:1;stroke-width:1.5;stroke-linecap:butt;stroke-linejoin:miter;stroke:rgb(13.730068%,12.159915%,12.54902%);stroke-opacity:1;stroke-miterlimit:4;" d="M 234.986944 553.500413 L 234.986944 560.250413 L 228.236944 560.250413 L 228.236944 553.500413 L 234.986944 553.500413 Z M 234.986944 553.500413 " transform="matrix(1,0,0,-1,25.4779,859.2426)"/>
<path style="fill-rule:nonzero;fill:rgb(100%,100%,100%);fill-opacity:1;stroke-width:1.5;stroke-linecap:butt;stroke-linejoin:miter;stroke:rgb(13.730068%,12.159915%,12.54902%);stroke-opacity:1;stroke-miterlimit:4;" d="M 241.736944 553.500413 L 241.736944 560.250413 L 234.986944 560.250413 L 234.986944 553.500413 L 241.736944 553.500413 Z M 241.736944 553.500413 " transform="matrix(1,0,0,-1,25.4779,859.2426)"/>
<path style="fill-rule:nonzero;fill:rgb(100%,100%,100%);fill-opacity:1;stroke-width:1.5;stroke-linecap:butt;stroke-linejoin:miter;stroke:rgb(13.730068%,12.159915%,12.54902%);stroke-opacity:1;stroke-miterlimit:4;" d="M 234.986944 546.750413 L 234.986944 553.500413 L 228.236944 553.500413 L 228.236944 546.750413 L 234.986944 546.750413 Z M 234.986944 546.750413 " transform="matrix(1,0,0,-1,25.4779,859.2426)"/>
<path style="fill-rule:nonzero;fill:rgb(100%,100%,100%);fill-opacity:1;stroke-width:1.5;stroke-linecap:butt;stroke-linejoin:miter;stroke:rgb(13.730068%,12.159915%,12.54902%);stroke-opacity:1;stroke-miterlimit:4;" d="M 241.736944 546.750413 L 241.736944 553.500413 L 234.986944 553.500413 L 234.986944 546.750413 L 241.736944 546.750413 Z M 241.736944 546.750413 " transform="matrix(1,0,0,-1,25.4779,859.2426)"/>
<path style="fill-rule:nonzero;fill:rgb(100%,100%,100%);fill-opacity:1;stroke-width:1.5;stroke-linecap:butt;stroke-linejoin:miter;stroke:rgb(13.730068%,12.159915%,12.54902%);stroke-opacity:1;stroke-miterlimit:4;" d="M 234.986944 540.000413 L 234.986944 546.750413 L 228.236944 546.750413 L 228.236944 540.000413 L 234.986944 540.000413 Z M 234.986944 540.000413 " transform="matrix(1,0,0,-1,25.4779,859.2426)"/>
<path style="fill-rule:nonzero;fill:rgb(100%,100%,100%);fill-opacity:1;stroke-width:1.5;stroke-linecap:butt;stroke-linejoin:miter;stroke:rgb(13.730068%,12.159915%,12.54902%);stroke-opacity:1;stroke-miterlimit:4;" d="M 241.736944 540.000413 L 241.736944 546.750413 L 234.986944 546.750413 L 234.986944 540.000413 L 241.736944 540.000413 Z M 241.736944 540.000413 " transform="matrix(1,0,0,-1,25.4779,859.2426)"/>

</svg>