<svg xmlns="http://www.w3.org/2000/svg" xmlns:xlink="http://www.w3.org/1999/xlink" width="612pt" height="792pt" viewBox="0 0 612 792" version="1.1">

<!-- Limited Self-Repair (3) -->
<path style="fill-rule:nonzero;fill:rgb(100%,100%,100%);fill-opacity:1;stroke-width:0.75;stroke-linecap:butt;stroke-linejoin:miter;stroke:rgb(13.730068%,12.159915%,12.54902%);stroke-opacity:1;stroke-miterlimit:4;" d="M 213.433594 164.964844 L 206.683594 171.714844 L 206.683594 173.964844 L 213.433594 180.714844 L 240.433594 180.714844 L 247.183594 173.964844 L 247.183594 171.714844 L 240.433594 164.964844 L 213.433594 164.964844 Z M 213.433594 164.964844 " transform="matrix(1,0,0,-1,0,793)"/>

<!-- Annotation -->
<path style="opacity:0.5;fill:#ffffff;fill-opacity:1;fill-rule:nonzero;stroke:#ff1e1e;stroke-width:1.5;stroke-linecap:butt;stroke-linejoin:miter;stroke-miterlimit:4;stroke-opacity:1" d="m 243.86396,623.5548 0,-6.75 -6.75,0 0,6.75 6.75,0 z m 0,0"/>
     
<!-- Damage Boxes -->
<path style="fill-rule:nonzero;fill:rgb(100%,100%,100%);fill-opacity:1;stroke-width:1.5;stroke-linecap:butt;stroke-linejoin:miter;stroke:rgb(13.730068%,12.159915%,12.54902%);stroke-opacity:1;stroke-miterlimit:4;" d="M 222.433594 169.464844 L 222.433594 176.214844 L 215.683594 176.214844 L 215.683594 169.464844 L 222.433594 169.464844 Z M 222.433594 169.464844 " transform="matrix(1,0,0,-1,0,793)"/>
<path style="fill-rule:nonzero;fill:rgb(100%,100%,100%);fill-opacity:1;stroke-width:1.5;stroke-linecap:butt;stroke-linejoin:miter;stroke:rgb(13.730068%,12.159915%,12.54902%);stroke-opacity:1;stroke-miterlimit:4;" d="M 229.183594 169.464844 L 229.183594 176.214844 L 222.433594 176.214844 L 222.433594 169.464844 L 229.183594 169.464844 Z M 229.183594 169.464844 " transform="matrix(1,0,0,-1,0,793)"/>
<path style="fill-rule:nonzero;fill:rgb(100%,100%,100%);fill-opacity:1;stroke-width:1.5;stroke-linecap:butt;stroke-linejoin:miter;stroke:rgb(13.730068%,12.159915%,12.54902%);stroke-opacity:1;stroke-miterlimit:4;" d="M 235.933594 169.464844 L 235.933594 176.214844 L 229.183594 176.214844 L 229.183594 169.464844 L 235.933594 169.464844 Z M 235.933594 169.464844 " transform="matrix(1,0,0,-1,0,793)"/>

</svg>