<svg xmlns="http://www.w3.org/2000/svg" xmlns:xlink="http://www.w3.org/1999/xlink" width="612pt" height="792pt" viewBox="0 0 612 792" version="1.1">

<!-- Limpet-Bore Torpedo -->
<path style="fill-rule:nonzero;fill:rgb(100%,100%,100%);fill-opacity:1;stroke-width:0.75;stroke-linecap:butt;stroke-linejoin:miter;stroke:rgb(13.730068%,12.159915%,12.54902%);stroke-opacity:1;stroke-miterlimit:4;" d="M 313.582031 579.832031 L 306.417969 579.832031 L 295.332031 591.417969 L 295.332031 598.417969 L 306.582031 609.332031 L 299.582031 609.25 L 309.75 618.75 L 311.082031 618.75 L 320.25 609.417969 L 313.332031 609.332031 L 324.582031 598.417969 L 324.582031 591.082031 L 313.582031 579.832031 Z M 313.582031 579.832031 " transform="matrix(1,0,0,-1,0,810)"/>

<!-- Damage Boxes -->
<path style="fill-rule:nonzero;fill:rgb(100%,100%,100%);fill-opacity:1;stroke-width:1.5;stroke-linecap:butt;stroke-linejoin:miter;stroke:rgb(13.730068%,12.159915%,12.54902%);stroke-opacity:1;stroke-miterlimit:4;" d="M 313.332031 604.832031 L 313.332031 598.082031 L 306.582031 598.082031 L 306.582031 604.832031 L 313.332031 604.832031 Z M 313.332031 604.832031 " transform="matrix(1,0,0,-1,0,810)"/>
<path style="fill-rule:nonzero;fill:rgb(100%,100%,100%);fill-opacity:1;stroke-width:1.5;stroke-linecap:butt;stroke-linejoin:miter;stroke:rgb(13.730068%,12.159915%,12.54902%);stroke-opacity:1;stroke-miterlimit:4;" d="M 306.582031 598.082031 L 306.582031 591.332031 L 299.832031 591.332031 L 299.832031 598.082031 L 306.582031 598.082031 Z M 306.582031 598.082031 " transform="matrix(1,0,0,-1,0,810)"/>
<path style="fill-rule:nonzero;fill:rgb(100%,100%,100%);fill-opacity:1;stroke-width:1.5;stroke-linecap:butt;stroke-linejoin:miter;stroke:rgb(13.730068%,12.159915%,12.54902%);stroke-opacity:1;stroke-miterlimit:4;" d="M 313.332031 598.082031 L 313.332031 591.332031 L 306.582031 591.332031 L 306.582031 598.082031 L 313.332031 598.082031 Z M 313.332031 598.082031 " transform="matrix(1,0,0,-1,0,810)"/>
<path style="fill-rule:nonzero;fill:rgb(100%,100%,100%);fill-opacity:1;stroke-width:1.5;stroke-linecap:butt;stroke-linejoin:miter;stroke:rgb(13.730068%,12.159915%,12.54902%);stroke-opacity:1;stroke-miterlimit:4;" d="M 320.082031 598.082031 L 320.082031 591.332031 L 313.332031 591.332031 L 313.332031 598.082031 L 320.082031 598.082031 Z M 320.082031 598.082031 " transform="matrix(1,0,0,-1,0,810)"/>
<path style="fill-rule:nonzero;fill:rgb(100%,100%,100%);fill-opacity:1;stroke-width:1.5;stroke-linecap:butt;stroke-linejoin:miter;stroke:rgb(13.730068%,12.159915%,12.54902%);stroke-opacity:1;stroke-miterlimit:4;" d="M 313.332031 591.332031 L 313.332031 584.582031 L 306.582031 584.582031 L 306.582031 591.332031 L 313.332031 591.332031 Z M 313.332031 591.332031 " transform="matrix(1,0,0,-1,0,810)"/>

</svg>