<svg xmlns="http://www.w3.org/2000/svg" xmlns:xlink="http://www.w3.org/1999/xlink" width="612pt" height="792pt" viewBox="0 0 612 792" version="1.1">

<!-- M-G Reactor (16) -->
<path style="fill-rule:nonzero;fill:rgb(100%,100%,100%);fill-opacity:1;stroke-width:0.75;stroke-linecap:butt;stroke-linejoin:miter;stroke:rgb(13.730068%,12.159915%,12.54902%);stroke-opacity:1;stroke-miterlimit:4;" d="M 319.5 219.5 L 319.5 258.375 L 324.25 258.375 L 324.25 267.75 L 327.75 267.75 L 327.75 258.375 L 353.5 258.375 L 353.5 267.75 L 357 267.75 L 357 258.375 L 362.75 258.375 L 362.75 219.5 L 319.5 219.5 Z M 319.5 219.5 " transform="matrix(1,0,0,-1,30,736)"/>
<path style="fill:none;stroke-width:0.75;stroke-linecap:butt;stroke-linejoin:miter;stroke:rgb(13.730068%,12.159915%,12.54902%);stroke-opacity:1;stroke-miterlimit:4;" d="M 353.375 265.914062 L 351.464844 265.914062 L 349.785156 260.710938 L 347.382812 268.710938 L 344.753906 260.710938 L 342.210938 268.710938 L 339.707031 260.710938 L 336.929688 268.710938 L 334.441406 260.710938 L 331.667969 268.710938 L 329.789062 263.363281 L 327.871094 263.363281 " transform="matrix(1,0,0,-1,30,736)"/>

<!-- Damage Boxes -->
<path style="fill-rule:nonzero;fill:rgb(100%,100%,100%);fill-opacity:1;stroke-width:1.5;stroke-linecap:butt;stroke-linejoin:miter;stroke:rgb(13.730068%,12.159915%,12.54902%);stroke-opacity:1;stroke-miterlimit:4;" d="M 344.5 246 L 344.5 252.75 L 337.75 252.75 L 337.75 246 L 344.5 246 Z M 344.5 246 " transform="matrix(1,0,0,-1,30,736)"/>
<path style="fill-rule:nonzero;fill:rgb(100%,100%,100%);fill-opacity:1;stroke-width:1.5;stroke-linecap:butt;stroke-linejoin:miter;stroke:rgb(13.730068%,12.159915%,12.54902%);stroke-opacity:1;stroke-miterlimit:4;" d="M 331 239.25 L 331 246 L 324.25 246 L 324.25 239.25 L 331 239.25 Z M 331 239.25 " transform="matrix(1,0,0,-1,30,736)"/>
<path style="fill-rule:nonzero;fill:rgb(100%,100%,100%);fill-opacity:1;stroke-width:1.5;stroke-linecap:butt;stroke-linejoin:miter;stroke:rgb(13.730068%,12.159915%,12.54902%);stroke-opacity:1;stroke-miterlimit:4;" d="M 337.75 239.25 L 337.75 246 L 331 246 L 331 239.25 L 337.75 239.25 Z M 337.75 239.25 " transform="matrix(1,0,0,-1,30,736)"/>
<path style="fill-rule:nonzero;fill:rgb(100%,100%,100%);fill-opacity:1;stroke-width:1.5;stroke-linecap:butt;stroke-linejoin:miter;stroke:rgb(13.730068%,12.159915%,12.54902%);stroke-opacity:1;stroke-miterlimit:4;" d="M 344.5 239.25 L 344.5 246 L 337.75 246 L 337.75 239.25 L 344.5 239.25 Z M 344.5 239.25 " transform="matrix(1,0,0,-1,30,736)"/>
<path style="fill-rule:nonzero;fill:rgb(100%,100%,100%);fill-opacity:1;stroke-width:1.5;stroke-linecap:butt;stroke-linejoin:miter;stroke:rgb(13.730068%,12.159915%,12.54902%);stroke-opacity:1;stroke-miterlimit:4;" d="M 351.25 239.25 L 351.25 246 L 344.5 246 L 344.5 239.25 L 351.25 239.25 Z M 351.25 239.25 " transform="matrix(1,0,0,-1,30,736)"/>
<path style="fill-rule:nonzero;fill:rgb(100%,100%,100%);fill-opacity:1;stroke-width:1.5;stroke-linecap:butt;stroke-linejoin:miter;stroke:rgb(13.730068%,12.159915%,12.54902%);stroke-opacity:1;stroke-miterlimit:4;" d="M 358 239.25 L 358 246 L 351.25 246 L 351.25 239.25 L 358 239.25 Z M 358 239.25 " transform="matrix(1,0,0,-1,30,736)"/>
<path style="fill-rule:nonzero;fill:rgb(100%,100%,100%);fill-opacity:1;stroke-width:1.5;stroke-linecap:butt;stroke-linejoin:miter;stroke:rgb(13.730068%,12.159915%,12.54902%);stroke-opacity:1;stroke-miterlimit:4;" d="M 331 232.5 L 331 239.25 L 324.25 239.25 L 324.25 232.5 L 331 232.5 Z M 331 232.5 " transform="matrix(1,0,0,-1,30,736)"/>
<path style="fill-rule:nonzero;fill:rgb(100%,100%,100%);fill-opacity:1;stroke-width:1.5;stroke-linecap:butt;stroke-linejoin:miter;stroke:rgb(13.730068%,12.159915%,12.54902%);stroke-opacity:1;stroke-miterlimit:4;" d="M 337.75 232.5 L 337.75 239.25 L 331 239.25 L 331 232.5 L 337.75 232.5 Z M 337.75 232.5 " transform="matrix(1,0,0,-1,30,736)"/>
<path style="fill-rule:nonzero;fill:rgb(100%,100%,100%);fill-opacity:1;stroke-width:1.5;stroke-linecap:butt;stroke-linejoin:miter;stroke:rgb(13.730068%,12.159915%,12.54902%);stroke-opacity:1;stroke-miterlimit:4;" d="M 344.5 232.5 L 344.5 239.25 L 337.75 239.25 L 337.75 232.5 L 344.5 232.5 Z M 344.5 232.5 " transform="matrix(1,0,0,-1,30,736)"/>
<path style="fill-rule:nonzero;fill:rgb(100%,100%,100%);fill-opacity:1;stroke-width:1.5;stroke-linecap:butt;stroke-linejoin:miter;stroke:rgb(13.730068%,12.159915%,12.54902%);stroke-opacity:1;stroke-miterlimit:4;" d="M 351.25 232.5 L 351.25 239.25 L 344.5 239.25 L 344.5 232.5 L 351.25 232.5 Z M 351.25 232.5 " transform="matrix(1,0,0,-1,30,736)"/>
<path style="fill-rule:nonzero;fill:rgb(100%,100%,100%);fill-opacity:1;stroke-width:1.5;stroke-linecap:butt;stroke-linejoin:miter;stroke:rgb(13.730068%,12.159915%,12.54902%);stroke-opacity:1;stroke-miterlimit:4;" d="M 358 232.5 L 358 239.25 L 351.25 239.25 L 351.25 232.5 L 358 232.5 Z M 358 232.5 " transform="matrix(1,0,0,-1,30,736)"/>
<path style="fill-rule:nonzero;fill:rgb(100%,100%,100%);fill-opacity:1;stroke-width:1.5;stroke-linecap:butt;stroke-linejoin:miter;stroke:rgb(13.730068%,12.159915%,12.54902%);stroke-opacity:1;stroke-miterlimit:4;" d="M 331 225.75 L 331 232.5 L 324.25 232.5 L 324.25 225.75 L 331 225.75 Z M 331 225.75 " transform="matrix(1,0,0,-1,30,736)"/>
<path style="fill-rule:nonzero;fill:rgb(100%,100%,100%);fill-opacity:1;stroke-width:1.5;stroke-linecap:butt;stroke-linejoin:miter;stroke:rgb(13.730068%,12.159915%,12.54902%);stroke-opacity:1;stroke-miterlimit:4;" d="M 337.75 225.75 L 337.75 232.5 L 331 232.5 L 331 225.75 L 337.75 225.75 Z M 337.75 225.75 " transform="matrix(1,0,0,-1,30,736)"/>
<path style="fill-rule:nonzero;fill:rgb(100%,100%,100%);fill-opacity:1;stroke-width:1.5;stroke-linecap:butt;stroke-linejoin:miter;stroke:rgb(13.730068%,12.159915%,12.54902%);stroke-opacity:1;stroke-miterlimit:4;" d="M 344.5 225.75 L 344.5 232.5 L 337.75 232.5 L 337.75 225.75 L 344.5 225.75 Z M 344.5 225.75 " transform="matrix(1,0,0,-1,30,736)"/>
<path style="fill-rule:nonzero;fill:rgb(100%,100%,100%);fill-opacity:1;stroke-width:1.5;stroke-linecap:butt;stroke-linejoin:miter;stroke:rgb(13.730068%,12.159915%,12.54902%);stroke-opacity:1;stroke-miterlimit:4;" d="M 351.25 225.75 L 351.25 232.5 L 344.5 232.5 L 344.5 225.75 L 351.25 225.75 Z M 351.25 225.75 " transform="matrix(1,0,0,-1,30,736)"/>
<path style="fill-rule:nonzero;fill:rgb(100%,100%,100%);fill-opacity:1;stroke-width:1.5;stroke-linecap:butt;stroke-linejoin:miter;stroke:rgb(13.730068%,12.159915%,12.54902%);stroke-opacity:1;stroke-miterlimit:4;" d="M 358 225.75 L 358 232.5 L 351.25 232.5 L 351.25 225.75 L 358 225.75 Z M 358 225.75 " transform="matrix(1,0,0,-1,30,736)"/>

</svg>