<svg xmlns="http://www.w3.org/2000/svg" xmlns:xlink="http://www.w3.org/1999/xlink" width="612pt" height="792pt" viewBox="0 0 612 792" version="1.1">

<!-- M-G Reactor (25) -->
<path style="fill-rule:nonzero;fill:rgb(100%,100%,100%);fill-opacity:1;stroke-width:0.75;stroke-linecap:butt;stroke-linejoin:miter;stroke:rgb(13.730068%,12.159915%,12.54902%);stroke-opacity:1;stroke-miterlimit:4;" d="M 318.5 211.5 L 318.5 257.125 L 323.25 257.125 L 323.25 266.5 L 326.75 266.5 L 326.75 257.125 L 352.5 257.125 L 352.5 266.5 L 356 266.5 L 356 257.125 L 361.75 257.125 L 361.75 211.5 L 318.5 211.5 Z M 318.5 211.5 " transform="matrix(1,0,0,-1,1,784)"/>
<path style="fill:none;stroke-width:0.75;stroke-linecap:butt;stroke-linejoin:miter;stroke:rgb(13.730068%,12.159915%,12.54902%);stroke-opacity:1;stroke-miterlimit:4;" d="M 352.375 264.664062 L 350.464844 264.664062 L 348.785156 259.460938 L 346.382812 267.460938 L 343.753906 259.460938 L 341.210938 267.460938 L 338.707031 259.460938 L 335.929688 267.460938 L 333.441406 259.460938 L 330.667969 267.460938 L 328.789062 262.113281 L 326.871094 262.113281 " transform="matrix(1,0,0,-1,1,784)"/>

<!-- Damage Boxes -->
<path style="fill-rule:nonzero;fill:rgb(100%,100%,100%);fill-opacity:1;stroke-width:1.5;stroke-linecap:butt;stroke-linejoin:miter;stroke:rgb(13.730068%,12.159915%,12.54902%);stroke-opacity:1;stroke-miterlimit:4;" d="M 330 244.75 L 330 251.5 L 323.25 251.5 L 323.25 244.75 L 330 244.75 Z M 330 244.75 " transform="matrix(1,0,0,-1,1,784)"/>
<path style="fill-rule:nonzero;fill:rgb(100%,100%,100%);fill-opacity:1;stroke-width:1.5;stroke-linecap:butt;stroke-linejoin:miter;stroke:rgb(13.730068%,12.159915%,12.54902%);stroke-opacity:1;stroke-miterlimit:4;" d="M 336.75 244.75 L 336.75 251.5 L 330 251.5 L 330 244.75 L 336.75 244.75 Z M 336.75 244.75 " transform="matrix(1,0,0,-1,1,784)"/>
<path style="fill-rule:nonzero;fill:rgb(100%,100%,100%);fill-opacity:1;stroke-width:1.5;stroke-linecap:butt;stroke-linejoin:miter;stroke:rgb(13.730068%,12.159915%,12.54902%);stroke-opacity:1;stroke-miterlimit:4;" d="M 343.5 244.75 L 343.5 251.5 L 336.75 251.5 L 336.75 244.75 L 343.5 244.75 Z M 343.5 244.75 " transform="matrix(1,0,0,-1,1,784)"/>
<path style="fill-rule:nonzero;fill:rgb(100%,100%,100%);fill-opacity:1;stroke-width:1.5;stroke-linecap:butt;stroke-linejoin:miter;stroke:rgb(13.730068%,12.159915%,12.54902%);stroke-opacity:1;stroke-miterlimit:4;" d="M 350.25 244.75 L 350.25 251.5 L 343.5 251.5 L 343.5 244.75 L 350.25 244.75 Z M 350.25 244.75 " transform="matrix(1,0,0,-1,1,784)"/>
<path style="fill-rule:nonzero;fill:rgb(100%,100%,100%);fill-opacity:1;stroke-width:1.5;stroke-linecap:butt;stroke-linejoin:miter;stroke:rgb(13.730068%,12.159915%,12.54902%);stroke-opacity:1;stroke-miterlimit:4;" d="M 357 244.75 L 357 251.5 L 350.25 251.5 L 350.25 244.75 L 357 244.75 Z M 357 244.75 " transform="matrix(1,0,0,-1,1,784)"/>
<path style="fill-rule:nonzero;fill:rgb(100%,100%,100%);fill-opacity:1;stroke-width:1.5;stroke-linecap:butt;stroke-linejoin:miter;stroke:rgb(13.730068%,12.159915%,12.54902%);stroke-opacity:1;stroke-miterlimit:4;" d="M 330 238 L 330 244.75 L 323.25 244.75 L 323.25 238 L 330 238 Z M 330 238 " transform="matrix(1,0,0,-1,1,784)"/>
<path style="fill-rule:nonzero;fill:rgb(100%,100%,100%);fill-opacity:1;stroke-width:1.5;stroke-linecap:butt;stroke-linejoin:miter;stroke:rgb(13.730068%,12.159915%,12.54902%);stroke-opacity:1;stroke-miterlimit:4;" d="M 336.75 238 L 336.75 244.75 L 330 244.75 L 330 238 L 336.75 238 Z M 336.75 238 " transform="matrix(1,0,0,-1,1,784)"/>
<path style="fill-rule:nonzero;fill:rgb(100%,100%,100%);fill-opacity:1;stroke-width:1.5;stroke-linecap:butt;stroke-linejoin:miter;stroke:rgb(13.730068%,12.159915%,12.54902%);stroke-opacity:1;stroke-miterlimit:4;" d="M 343.5 238 L 343.5 244.75 L 336.75 244.75 L 336.75 238 L 343.5 238 Z M 343.5 238 " transform="matrix(1,0,0,-1,1,784)"/>
<path style="fill-rule:nonzero;fill:rgb(100%,100%,100%);fill-opacity:1;stroke-width:1.5;stroke-linecap:butt;stroke-linejoin:miter;stroke:rgb(13.730068%,12.159915%,12.54902%);stroke-opacity:1;stroke-miterlimit:4;" d="M 350.25 238 L 350.25 244.75 L 343.5 244.75 L 343.5 238 L 350.25 238 Z M 350.25 238 " transform="matrix(1,0,0,-1,1,784)"/>
<path style="fill-rule:nonzero;fill:rgb(100%,100%,100%);fill-opacity:1;stroke-width:1.5;stroke-linecap:butt;stroke-linejoin:miter;stroke:rgb(13.730068%,12.159915%,12.54902%);stroke-opacity:1;stroke-miterlimit:4;" d="M 357 238 L 357 244.75 L 350.25 244.75 L 350.25 238 L 357 238 Z M 357 238 " transform="matrix(1,0,0,-1,1,784)"/>
<path style="fill-rule:nonzero;fill:rgb(100%,100%,100%);fill-opacity:1;stroke-width:1.5;stroke-linecap:butt;stroke-linejoin:miter;stroke:rgb(13.730068%,12.159915%,12.54902%);stroke-opacity:1;stroke-miterlimit:4;" d="M 330 231.25 L 330 238 L 323.25 238 L 323.25 231.25 L 330 231.25 Z M 330 231.25 " transform="matrix(1,0,0,-1,1,784)"/>
<path style="fill-rule:nonzero;fill:rgb(100%,100%,100%);fill-opacity:1;stroke-width:1.5;stroke-linecap:butt;stroke-linejoin:miter;stroke:rgb(13.730068%,12.159915%,12.54902%);stroke-opacity:1;stroke-miterlimit:4;" d="M 336.75 231.25 L 336.75 238 L 330 238 L 330 231.25 L 336.75 231.25 Z M 336.75 231.25 " transform="matrix(1,0,0,-1,1,784)"/>
<path style="fill-rule:nonzero;fill:rgb(100%,100%,100%);fill-opacity:1;stroke-width:1.5;stroke-linecap:butt;stroke-linejoin:miter;stroke:rgb(13.730068%,12.159915%,12.54902%);stroke-opacity:1;stroke-miterlimit:4;" d="M 343.5 231.25 L 343.5 238 L 336.75 238 L 336.75 231.25 L 343.5 231.25 Z M 343.5 231.25 " transform="matrix(1,0,0,-1,1,784)"/>
<path style="fill-rule:nonzero;fill:rgb(100%,100%,100%);fill-opacity:1;stroke-width:1.5;stroke-linecap:butt;stroke-linejoin:miter;stroke:rgb(13.730068%,12.159915%,12.54902%);stroke-opacity:1;stroke-miterlimit:4;" d="M 350.25 231.25 L 350.25 238 L 343.5 238 L 343.5 231.25 L 350.25 231.25 Z M 350.25 231.25 " transform="matrix(1,0,0,-1,1,784)"/>
<path style="fill-rule:nonzero;fill:rgb(100%,100%,100%);fill-opacity:1;stroke-width:1.5;stroke-linecap:butt;stroke-linejoin:miter;stroke:rgb(13.730068%,12.159915%,12.54902%);stroke-opacity:1;stroke-miterlimit:4;" d="M 357 231.25 L 357 238 L 350.25 238 L 350.25 231.25 L 357 231.25 Z M 357 231.25 " transform="matrix(1,0,0,-1,1,784)"/>
<path style="fill-rule:nonzero;fill:rgb(100%,100%,100%);fill-opacity:1;stroke-width:1.5;stroke-linecap:butt;stroke-linejoin:miter;stroke:rgb(13.730068%,12.159915%,12.54902%);stroke-opacity:1;stroke-miterlimit:4;" d="M 330 224.5 L 330 231.25 L 323.25 231.25 L 323.25 224.5 L 330 224.5 Z M 330 224.5 " transform="matrix(1,0,0,-1,1,784)"/>
<path style="fill-rule:nonzero;fill:rgb(100%,100%,100%);fill-opacity:1;stroke-width:1.5;stroke-linecap:butt;stroke-linejoin:miter;stroke:rgb(13.730068%,12.159915%,12.54902%);stroke-opacity:1;stroke-miterlimit:4;" d="M 336.75 224.5 L 336.75 231.25 L 330 231.25 L 330 224.5 L 336.75 224.5 Z M 336.75 224.5 " transform="matrix(1,0,0,-1,1,784)"/>
<path style="fill-rule:nonzero;fill:rgb(100%,100%,100%);fill-opacity:1;stroke-width:1.5;stroke-linecap:butt;stroke-linejoin:miter;stroke:rgb(13.730068%,12.159915%,12.54902%);stroke-opacity:1;stroke-miterlimit:4;" d="M 343.5 224.5 L 343.5 231.25 L 336.75 231.25 L 336.75 224.5 L 343.5 224.5 Z M 343.5 224.5 " transform="matrix(1,0,0,-1,1,784)"/>
<path style="fill-rule:nonzero;fill:rgb(100%,100%,100%);fill-opacity:1;stroke-width:1.5;stroke-linecap:butt;stroke-linejoin:miter;stroke:rgb(13.730068%,12.159915%,12.54902%);stroke-opacity:1;stroke-miterlimit:4;" d="M 350.25 224.5 L 350.25 231.25 L 343.5 231.25 L 343.5 224.5 L 350.25 224.5 Z M 350.25 224.5 " transform="matrix(1,0,0,-1,1,784)"/>
<path style="fill-rule:nonzero;fill:rgb(100%,100%,100%);fill-opacity:1;stroke-width:1.5;stroke-linecap:butt;stroke-linejoin:miter;stroke:rgb(13.730068%,12.159915%,12.54902%);stroke-opacity:1;stroke-miterlimit:4;" d="M 357 224.5 L 357 231.25 L 350.25 231.25 L 350.25 224.5 L 357 224.5 Z M 357 224.5 " transform="matrix(1,0,0,-1,1,784)"/>
<path style="fill-rule:nonzero;fill:rgb(100%,100%,100%);fill-opacity:1;stroke-width:1.5;stroke-linecap:butt;stroke-linejoin:miter;stroke:rgb(13.730068%,12.159915%,12.54902%);stroke-opacity:1;stroke-miterlimit:4;" d="M 330 217.75 L 330 224.5 L 323.25 224.5 L 323.25 217.75 L 330 217.75 Z M 330 217.75 " transform="matrix(1,0,0,-1,1,784)"/>
<path style="fill-rule:nonzero;fill:rgb(100%,100%,100%);fill-opacity:1;stroke-width:1.5;stroke-linecap:butt;stroke-linejoin:miter;stroke:rgb(13.730068%,12.159915%,12.54902%);stroke-opacity:1;stroke-miterlimit:4;" d="M 336.75 217.75 L 336.75 224.5 L 330 224.5 L 330 217.75 L 336.75 217.75 Z M 336.75 217.75 " transform="matrix(1,0,0,-1,1,784)"/>
<path style="fill-rule:nonzero;fill:rgb(100%,100%,100%);fill-opacity:1;stroke-width:1.5;stroke-linecap:butt;stroke-linejoin:miter;stroke:rgb(13.730068%,12.159915%,12.54902%);stroke-opacity:1;stroke-miterlimit:4;" d="M 343.5 217.75 L 343.5 224.5 L 336.75 224.5 L 336.75 217.75 L 343.5 217.75 Z M 343.5 217.75 " transform="matrix(1,0,0,-1,1,784)"/>
<path style="fill-rule:nonzero;fill:rgb(100%,100%,100%);fill-opacity:1;stroke-width:1.5;stroke-linecap:butt;stroke-linejoin:miter;stroke:rgb(13.730068%,12.159915%,12.54902%);stroke-opacity:1;stroke-miterlimit:4;" d="M 350.25 217.75 L 350.25 224.5 L 343.5 224.5 L 343.5 217.75 L 350.25 217.75 Z M 350.25 217.75 " transform="matrix(1,0,0,-1,1,784)"/>
<path style="fill-rule:nonzero;fill:rgb(100%,100%,100%);fill-opacity:1;stroke-width:1.5;stroke-linecap:butt;stroke-linejoin:miter;stroke:rgb(13.730068%,12.159915%,12.54902%);stroke-opacity:1;stroke-miterlimit:4;" d="M 357 217.75 L 357 224.5 L 350.25 224.5 L 350.25 217.75 L 357 217.75 Z M 357 217.75 " transform="matrix(1,0,0,-1,1,784)"/>

</svg>