<svg xmlns="http://www.w3.org/2000/svg" xmlns:xlink="http://www.w3.org/1999/xlink" width="612pt" height="792pt" viewBox="0 0 612 792" version="1.1">

<!-- M-G Reactor (49) -->
<path style="fill-rule:nonzero;fill:rgb(100%,100%,100%);fill-opacity:1;stroke-width:0.75;stroke-linecap:butt;stroke-linejoin:miter;stroke:rgb(13.730068%,12.159915%,12.54902%);stroke-opacity:1;stroke-miterlimit:4;" d="M 280.5 352.5 L 280.5 408.375 L 291.25 408.375 L 291.25 417.75 L 294.75 417.75 L 294.75 408.375 L 320.5 408.375 L 320.5 417.75 L 324 417.75 L 324 408.375 L 335.75 408.375 L 335.75 352.5 L 280.5 352.5 Z M 280.5 352.5 " transform="matrix(1,0,0,-1,0,797)"/>
<path style="fill:none;stroke-width:0.75;stroke-linecap:butt;stroke-linejoin:miter;stroke:rgb(13.730068%,12.159915%,12.54902%);stroke-opacity:1;stroke-miterlimit:4;" d="M 320.375 415.914062 L 318.464844 415.914062 L 316.785156 410.710938 L 314.382812 418.710938 L 311.753906 410.710938 L 309.210938 418.710938 L 306.707031 410.710938 L 303.929688 418.710938 L 301.441406 410.710938 L 298.667969 418.710938 L 296.789062 413.363281 L 294.871094 413.363281 " transform="matrix(1,0,0,-1,0,797)"/>

<!-- Damage Boxes -->
<path style="fill-rule:nonzero;fill:rgb(100%,100%,100%);fill-opacity:1;stroke-width:1.5;stroke-linecap:butt;stroke-linejoin:miter;stroke:rgb(13.730068%,12.159915%,12.54902%);stroke-opacity:1;stroke-miterlimit:4;" d="M 291.25 397.25 L 291.25 404 L 284.5 404 L 284.5 397.25 L 291.25 397.25 Z M 291.25 397.25 " transform="matrix(1,0,0,-1,0,797)"/>
<path style="fill-rule:nonzero;fill:rgb(100%,100%,100%);fill-opacity:1;stroke-width:1.5;stroke-linecap:butt;stroke-linejoin:miter;stroke:rgb(13.730068%,12.159915%,12.54902%);stroke-opacity:1;stroke-miterlimit:4;" d="M 298 397.25 L 298 404 L 291.25 404 L 291.25 397.25 L 298 397.25 Z M 298 397.25 " transform="matrix(1,0,0,-1,0,797)"/>
<path style="fill-rule:nonzero;fill:rgb(100%,100%,100%);fill-opacity:1;stroke-width:1.5;stroke-linecap:butt;stroke-linejoin:miter;stroke:rgb(13.730068%,12.159915%,12.54902%);stroke-opacity:1;stroke-miterlimit:4;" d="M 304.75 397.25 L 304.75 404 L 298 404 L 298 397.25 L 304.75 397.25 Z M 304.75 397.25 " transform="matrix(1,0,0,-1,0,797)"/>
<path style="fill-rule:nonzero;fill:rgb(100%,100%,100%);fill-opacity:1;stroke-width:1.5;stroke-linecap:butt;stroke-linejoin:miter;stroke:rgb(13.730068%,12.159915%,12.54902%);stroke-opacity:1;stroke-miterlimit:4;" d="M 311.5 397.25 L 311.5 404 L 304.75 404 L 304.75 397.25 L 311.5 397.25 Z M 311.5 397.25 " transform="matrix(1,0,0,-1,0,797)"/>
<path style="fill-rule:nonzero;fill:rgb(100%,100%,100%);fill-opacity:1;stroke-width:1.5;stroke-linecap:butt;stroke-linejoin:miter;stroke:rgb(13.730068%,12.159915%,12.54902%);stroke-opacity:1;stroke-miterlimit:4;" d="M 318.25 397.25 L 318.25 404 L 311.5 404 L 311.5 397.25 L 318.25 397.25 Z M 318.25 397.25 " transform="matrix(1,0,0,-1,0,797)"/>
<path style="fill-rule:nonzero;fill:rgb(100%,100%,100%);fill-opacity:1;stroke-width:1.5;stroke-linecap:butt;stroke-linejoin:miter;stroke:rgb(13.730068%,12.159915%,12.54902%);stroke-opacity:1;stroke-miterlimit:4;" d="M 325 397.25 L 325 404 L 318.25 404 L 318.25 397.25 L 325 397.25 Z M 325 397.25 " transform="matrix(1,0,0,-1,0,797)"/>
<path style="fill-rule:nonzero;fill:rgb(100%,100%,100%);fill-opacity:1;stroke-width:1.5;stroke-linecap:butt;stroke-linejoin:miter;stroke:rgb(13.730068%,12.159915%,12.54902%);stroke-opacity:1;stroke-miterlimit:4;" d="M 331.75 397.25 L 331.75 404 L 325 404 L 325 397.25 L 331.75 397.25 Z M 331.75 397.25 " transform="matrix(1,0,0,-1,0,797)"/>
<path style="fill-rule:nonzero;fill:rgb(100%,100%,100%);fill-opacity:1;stroke-width:1.5;stroke-linecap:butt;stroke-linejoin:miter;stroke:rgb(13.730068%,12.159915%,12.54902%);stroke-opacity:1;stroke-miterlimit:4;" d="M 291.25 390.5 L 291.25 397.25 L 284.5 397.25 L 284.5 390.5 L 291.25 390.5 Z M 291.25 390.5 " transform="matrix(1,0,0,-1,0,797)"/>
<path style="fill-rule:nonzero;fill:rgb(100%,100%,100%);fill-opacity:1;stroke-width:1.5;stroke-linecap:butt;stroke-linejoin:miter;stroke:rgb(13.730068%,12.159915%,12.54902%);stroke-opacity:1;stroke-miterlimit:4;" d="M 298 390.5 L 298 397.25 L 291.25 397.25 L 291.25 390.5 L 298 390.5 Z M 298 390.5 " transform="matrix(1,0,0,-1,0,797)"/>
<path style="fill-rule:nonzero;fill:rgb(100%,100%,100%);fill-opacity:1;stroke-width:1.5;stroke-linecap:butt;stroke-linejoin:miter;stroke:rgb(13.730068%,12.159915%,12.54902%);stroke-opacity:1;stroke-miterlimit:4;" d="M 304.75 390.5 L 304.75 397.25 L 298 397.25 L 298 390.5 L 304.75 390.5 Z M 304.75 390.5 " transform="matrix(1,0,0,-1,0,797)"/>
<path style="fill-rule:nonzero;fill:rgb(100%,100%,100%);fill-opacity:1;stroke-width:1.5;stroke-linecap:butt;stroke-linejoin:miter;stroke:rgb(13.730068%,12.159915%,12.54902%);stroke-opacity:1;stroke-miterlimit:4;" d="M 311.5 390.5 L 311.5 397.25 L 304.75 397.25 L 304.75 390.5 L 311.5 390.5 Z M 311.5 390.5 " transform="matrix(1,0,0,-1,0,797)"/>
<path style="fill-rule:nonzero;fill:rgb(100%,100%,100%);fill-opacity:1;stroke-width:1.5;stroke-linecap:butt;stroke-linejoin:miter;stroke:rgb(13.730068%,12.159915%,12.54902%);stroke-opacity:1;stroke-miterlimit:4;" d="M 318.25 390.5 L 318.25 397.25 L 311.5 397.25 L 311.5 390.5 L 318.25 390.5 Z M 318.25 390.5 " transform="matrix(1,0,0,-1,0,797)"/>
<path style="fill-rule:nonzero;fill:rgb(100%,100%,100%);fill-opacity:1;stroke-width:1.5;stroke-linecap:butt;stroke-linejoin:miter;stroke:rgb(13.730068%,12.159915%,12.54902%);stroke-opacity:1;stroke-miterlimit:4;" d="M 325 390.5 L 325 397.25 L 318.25 397.25 L 318.25 390.5 L 325 390.5 Z M 325 390.5 " transform="matrix(1,0,0,-1,0,797)"/>
<path style="fill-rule:nonzero;fill:rgb(100%,100%,100%);fill-opacity:1;stroke-width:1.5;stroke-linecap:butt;stroke-linejoin:miter;stroke:rgb(13.730068%,12.159915%,12.54902%);stroke-opacity:1;stroke-miterlimit:4;" d="M 331.75 390.5 L 331.75 397.25 L 325 397.25 L 325 390.5 L 331.75 390.5 Z M 331.75 390.5 " transform="matrix(1,0,0,-1,0,797)"/>
<path style="fill-rule:nonzero;fill:rgb(100%,100%,100%);fill-opacity:1;stroke-width:1.5;stroke-linecap:butt;stroke-linejoin:miter;stroke:rgb(13.730068%,12.159915%,12.54902%);stroke-opacity:1;stroke-miterlimit:4;" d="M 291.25 383.75 L 291.25 390.5 L 284.5 390.5 L 284.5 383.75 L 291.25 383.75 Z M 291.25 383.75 " transform="matrix(1,0,0,-1,0,797)"/>
<path style="fill-rule:nonzero;fill:rgb(100%,100%,100%);fill-opacity:1;stroke-width:1.5;stroke-linecap:butt;stroke-linejoin:miter;stroke:rgb(13.730068%,12.159915%,12.54902%);stroke-opacity:1;stroke-miterlimit:4;" d="M 298 383.75 L 298 390.5 L 291.25 390.5 L 291.25 383.75 L 298 383.75 Z M 298 383.75 " transform="matrix(1,0,0,-1,0,797)"/>
<path style="fill-rule:nonzero;fill:rgb(100%,100%,100%);fill-opacity:1;stroke-width:1.5;stroke-linecap:butt;stroke-linejoin:miter;stroke:rgb(13.730068%,12.159915%,12.54902%);stroke-opacity:1;stroke-miterlimit:4;" d="M 304.75 383.75 L 304.75 390.5 L 298 390.5 L 298 383.75 L 304.75 383.75 Z M 304.75 383.75 " transform="matrix(1,0,0,-1,0,797)"/>
<path style="fill-rule:nonzero;fill:rgb(100%,100%,100%);fill-opacity:1;stroke-width:1.5;stroke-linecap:butt;stroke-linejoin:miter;stroke:rgb(13.730068%,12.159915%,12.54902%);stroke-opacity:1;stroke-miterlimit:4;" d="M 311.5 383.75 L 311.5 390.5 L 304.75 390.5 L 304.75 383.75 L 311.5 383.75 Z M 311.5 383.75 " transform="matrix(1,0,0,-1,0,797)"/>
<path style="fill-rule:nonzero;fill:rgb(100%,100%,100%);fill-opacity:1;stroke-width:1.5;stroke-linecap:butt;stroke-linejoin:miter;stroke:rgb(13.730068%,12.159915%,12.54902%);stroke-opacity:1;stroke-miterlimit:4;" d="M 318.25 383.75 L 318.25 390.5 L 311.5 390.5 L 311.5 383.75 L 318.25 383.75 Z M 318.25 383.75 " transform="matrix(1,0,0,-1,0,797)"/>
<path style="fill-rule:nonzero;fill:rgb(100%,100%,100%);fill-opacity:1;stroke-width:1.5;stroke-linecap:butt;stroke-linejoin:miter;stroke:rgb(13.730068%,12.159915%,12.54902%);stroke-opacity:1;stroke-miterlimit:4;" d="M 325 383.75 L 325 390.5 L 318.25 390.5 L 318.25 383.75 L 325 383.75 Z M 325 383.75 " transform="matrix(1,0,0,-1,0,797)"/>
<path style="fill-rule:nonzero;fill:rgb(100%,100%,100%);fill-opacity:1;stroke-width:1.5;stroke-linecap:butt;stroke-linejoin:miter;stroke:rgb(13.730068%,12.159915%,12.54902%);stroke-opacity:1;stroke-miterlimit:4;" d="M 331.75 383.75 L 331.75 390.5 L 325 390.5 L 325 383.75 L 331.75 383.75 Z M 331.75 383.75 " transform="matrix(1,0,0,-1,0,797)"/>
<path style="fill-rule:nonzero;fill:rgb(100%,100%,100%);fill-opacity:1;stroke-width:1.5;stroke-linecap:butt;stroke-linejoin:miter;stroke:rgb(13.730068%,12.159915%,12.54902%);stroke-opacity:1;stroke-miterlimit:4;" d="M 291.25 377 L 291.25 383.75 L 284.5 383.75 L 284.5 377 L 291.25 377 Z M 291.25 377 " transform="matrix(1,0,0,-1,0,797)"/>
<path style="fill-rule:nonzero;fill:rgb(100%,100%,100%);fill-opacity:1;stroke-width:1.5;stroke-linecap:butt;stroke-linejoin:miter;stroke:rgb(13.730068%,12.159915%,12.54902%);stroke-opacity:1;stroke-miterlimit:4;" d="M 298 377 L 298 383.75 L 291.25 383.75 L 291.25 377 L 298 377 Z M 298 377 " transform="matrix(1,0,0,-1,0,797)"/>
<path style="fill-rule:nonzero;fill:rgb(100%,100%,100%);fill-opacity:1;stroke-width:1.5;stroke-linecap:butt;stroke-linejoin:miter;stroke:rgb(13.730068%,12.159915%,12.54902%);stroke-opacity:1;stroke-miterlimit:4;" d="M 304.75 377 L 304.75 383.75 L 298 383.75 L 298 377 L 304.75 377 Z M 304.75 377 " transform="matrix(1,0,0,-1,0,797)"/>
<path style="fill-rule:nonzero;fill:rgb(100%,100%,100%);fill-opacity:1;stroke-width:1.5;stroke-linecap:butt;stroke-linejoin:miter;stroke:rgb(13.730068%,12.159915%,12.54902%);stroke-opacity:1;stroke-miterlimit:4;" d="M 311.5 377 L 311.5 383.75 L 304.75 383.75 L 304.75 377 L 311.5 377 Z M 311.5 377 " transform="matrix(1,0,0,-1,0,797)"/>
<path style="fill-rule:nonzero;fill:rgb(100%,100%,100%);fill-opacity:1;stroke-width:1.5;stroke-linecap:butt;stroke-linejoin:miter;stroke:rgb(13.730068%,12.159915%,12.54902%);stroke-opacity:1;stroke-miterlimit:4;" d="M 318.25 377 L 318.25 383.75 L 311.5 383.75 L 311.5 377 L 318.25 377 Z M 318.25 377 " transform="matrix(1,0,0,-1,0,797)"/>
<path style="fill-rule:nonzero;fill:rgb(100%,100%,100%);fill-opacity:1;stroke-width:1.5;stroke-linecap:butt;stroke-linejoin:miter;stroke:rgb(13.730068%,12.159915%,12.54902%);stroke-opacity:1;stroke-miterlimit:4;" d="M 325 377 L 325 383.75 L 318.25 383.75 L 318.25 377 L 325 377 Z M 325 377 " transform="matrix(1,0,0,-1,0,797)"/>
<path style="fill-rule:nonzero;fill:rgb(100%,100%,100%);fill-opacity:1;stroke-width:1.5;stroke-linecap:butt;stroke-linejoin:miter;stroke:rgb(13.730068%,12.159915%,12.54902%);stroke-opacity:1;stroke-miterlimit:4;" d="M 331.75 377 L 331.75 383.75 L 325 383.75 L 325 377 L 331.75 377 Z M 331.75 377 " transform="matrix(1,0,0,-1,0,797)"/>
<path style="fill-rule:nonzero;fill:rgb(100%,100%,100%);fill-opacity:1;stroke-width:1.5;stroke-linecap:butt;stroke-linejoin:miter;stroke:rgb(13.730068%,12.159915%,12.54902%);stroke-opacity:1;stroke-miterlimit:4;" d="M 291.25 370.25 L 291.25 377 L 284.5 377 L 284.5 370.25 L 291.25 370.25 Z M 291.25 370.25 " transform="matrix(1,0,0,-1,0,797)"/>
<path style="fill-rule:nonzero;fill:rgb(100%,100%,100%);fill-opacity:1;stroke-width:1.5;stroke-linecap:butt;stroke-linejoin:miter;stroke:rgb(13.730068%,12.159915%,12.54902%);stroke-opacity:1;stroke-miterlimit:4;" d="M 298 370.25 L 298 377 L 291.25 377 L 291.25 370.25 L 298 370.25 Z M 298 370.25 " transform="matrix(1,0,0,-1,0,797)"/>
<path style="fill-rule:nonzero;fill:rgb(100%,100%,100%);fill-opacity:1;stroke-width:1.5;stroke-linecap:butt;stroke-linejoin:miter;stroke:rgb(13.730068%,12.159915%,12.54902%);stroke-opacity:1;stroke-miterlimit:4;" d="M 304.75 370.25 L 304.75 377 L 298 377 L 298 370.25 L 304.75 370.25 Z M 304.75 370.25 " transform="matrix(1,0,0,-1,0,797)"/>
<path style="fill-rule:nonzero;fill:rgb(100%,100%,100%);fill-opacity:1;stroke-width:1.5;stroke-linecap:butt;stroke-linejoin:miter;stroke:rgb(13.730068%,12.159915%,12.54902%);stroke-opacity:1;stroke-miterlimit:4;" d="M 311.5 370.25 L 311.5 377 L 304.75 377 L 304.75 370.25 L 311.5 370.25 Z M 311.5 370.25 " transform="matrix(1,0,0,-1,0,797)"/>
<path style="fill-rule:nonzero;fill:rgb(100%,100%,100%);fill-opacity:1;stroke-width:1.5;stroke-linecap:butt;stroke-linejoin:miter;stroke:rgb(13.730068%,12.159915%,12.54902%);stroke-opacity:1;stroke-miterlimit:4;" d="M 318.25 370.25 L 318.25 377 L 311.5 377 L 311.5 370.25 L 318.25 370.25 Z M 318.25 370.25 " transform="matrix(1,0,0,-1,0,797)"/>
<path style="fill-rule:nonzero;fill:rgb(100%,100%,100%);fill-opacity:1;stroke-width:1.5;stroke-linecap:butt;stroke-linejoin:miter;stroke:rgb(13.730068%,12.159915%,12.54902%);stroke-opacity:1;stroke-miterlimit:4;" d="M 325 370.25 L 325 377 L 318.25 377 L 318.25 370.25 L 325 370.25 Z M 325 370.25 " transform="matrix(1,0,0,-1,0,797)"/>
<path style="fill-rule:nonzero;fill:rgb(100%,100%,100%);fill-opacity:1;stroke-width:1.5;stroke-linecap:butt;stroke-linejoin:miter;stroke:rgb(13.730068%,12.159915%,12.54902%);stroke-opacity:1;stroke-miterlimit:4;" d="M 331.75 370.25 L 331.75 377 L 325 377 L 325 370.25 L 331.75 370.25 Z M 331.75 370.25 " transform="matrix(1,0,0,-1,0,797)"/>
<path style="fill-rule:nonzero;fill:rgb(100%,100%,100%);fill-opacity:1;stroke-width:1.5;stroke-linecap:butt;stroke-linejoin:miter;stroke:rgb(13.730068%,12.159915%,12.54902%);stroke-opacity:1;stroke-miterlimit:4;" d="M 291.25 363.5 L 291.25 370.25 L 284.5 370.25 L 284.5 363.5 L 291.25 363.5 Z M 291.25 363.5 " transform="matrix(1,0,0,-1,0,797)"/>
<path style="fill-rule:nonzero;fill:rgb(100%,100%,100%);fill-opacity:1;stroke-width:1.5;stroke-linecap:butt;stroke-linejoin:miter;stroke:rgb(13.730068%,12.159915%,12.54902%);stroke-opacity:1;stroke-miterlimit:4;" d="M 298 363.5 L 298 370.25 L 291.25 370.25 L 291.25 363.5 L 298 363.5 Z M 298 363.5 " transform="matrix(1,0,0,-1,0,797)"/>
<path style="fill-rule:nonzero;fill:rgb(100%,100%,100%);fill-opacity:1;stroke-width:1.5;stroke-linecap:butt;stroke-linejoin:miter;stroke:rgb(13.730068%,12.159915%,12.54902%);stroke-opacity:1;stroke-miterlimit:4;" d="M 304.75 363.5 L 304.75 370.25 L 298 370.25 L 298 363.5 L 304.75 363.5 Z M 304.75 363.5 " transform="matrix(1,0,0,-1,0,797)"/>
<path style="fill-rule:nonzero;fill:rgb(100%,100%,100%);fill-opacity:1;stroke-width:1.5;stroke-linecap:butt;stroke-linejoin:miter;stroke:rgb(13.730068%,12.159915%,12.54902%);stroke-opacity:1;stroke-miterlimit:4;" d="M 311.5 363.5 L 311.5 370.25 L 304.75 370.25 L 304.75 363.5 L 311.5 363.5 Z M 311.5 363.5 " transform="matrix(1,0,0,-1,0,797)"/>
<path style="fill-rule:nonzero;fill:rgb(100%,100%,100%);fill-opacity:1;stroke-width:1.5;stroke-linecap:butt;stroke-linejoin:miter;stroke:rgb(13.730068%,12.159915%,12.54902%);stroke-opacity:1;stroke-miterlimit:4;" d="M 318.25 363.5 L 318.25 370.25 L 311.5 370.25 L 311.5 363.5 L 318.25 363.5 Z M 318.25 363.5 " transform="matrix(1,0,0,-1,0,797)"/>
<path style="fill-rule:nonzero;fill:rgb(100%,100%,100%);fill-opacity:1;stroke-width:1.5;stroke-linecap:butt;stroke-linejoin:miter;stroke:rgb(13.730068%,12.159915%,12.54902%);stroke-opacity:1;stroke-miterlimit:4;" d="M 325 363.5 L 325 370.25 L 318.25 370.25 L 318.25 363.5 L 325 363.5 Z M 325 363.5 " transform="matrix(1,0,0,-1,0,797)"/>
<path style="fill-rule:nonzero;fill:rgb(100%,100%,100%);fill-opacity:1;stroke-width:1.5;stroke-linecap:butt;stroke-linejoin:miter;stroke:rgb(13.730068%,12.159915%,12.54902%);stroke-opacity:1;stroke-miterlimit:4;" d="M 331.75 363.5 L 331.75 370.25 L 325 370.25 L 325 363.5 L 331.75 363.5 Z M 331.75 363.5 " transform="matrix(1,0,0,-1,0,797)"/>
<path style="fill-rule:nonzero;fill:rgb(100%,100%,100%);fill-opacity:1;stroke-width:1.5;stroke-linecap:butt;stroke-linejoin:miter;stroke:rgb(13.730068%,12.159915%,12.54902%);stroke-opacity:1;stroke-miterlimit:4;" d="M 291.25 356.75 L 291.25 363.5 L 284.5 363.5 L 284.5 356.75 L 291.25 356.75 Z M 291.25 356.75 " transform="matrix(1,0,0,-1,0,797)"/>
<path style="fill-rule:nonzero;fill:rgb(100%,100%,100%);fill-opacity:1;stroke-width:1.5;stroke-linecap:butt;stroke-linejoin:miter;stroke:rgb(13.730068%,12.159915%,12.54902%);stroke-opacity:1;stroke-miterlimit:4;" d="M 298 356.75 L 298 363.5 L 291.25 363.5 L 291.25 356.75 L 298 356.75 Z M 298 356.75 " transform="matrix(1,0,0,-1,0,797)"/>
<path style="fill-rule:nonzero;fill:rgb(100%,100%,100%);fill-opacity:1;stroke-width:1.5;stroke-linecap:butt;stroke-linejoin:miter;stroke:rgb(13.730068%,12.159915%,12.54902%);stroke-opacity:1;stroke-miterlimit:4;" d="M 304.75 356.75 L 304.75 363.5 L 298 363.5 L 298 356.75 L 304.75 356.75 Z M 304.75 356.75 " transform="matrix(1,0,0,-1,0,797)"/>
<path style="fill-rule:nonzero;fill:rgb(100%,100%,100%);fill-opacity:1;stroke-width:1.5;stroke-linecap:butt;stroke-linejoin:miter;stroke:rgb(13.730068%,12.159915%,12.54902%);stroke-opacity:1;stroke-miterlimit:4;" d="M 311.5 356.75 L 311.5 363.5 L 304.75 363.5 L 304.75 356.75 L 311.5 356.75 Z M 311.5 356.75 " transform="matrix(1,0,0,-1,0,797)"/>
<path style="fill-rule:nonzero;fill:rgb(100%,100%,100%);fill-opacity:1;stroke-width:1.5;stroke-linecap:butt;stroke-linejoin:miter;stroke:rgb(13.730068%,12.159915%,12.54902%);stroke-opacity:1;stroke-miterlimit:4;" d="M 318.25 356.75 L 318.25 363.5 L 311.5 363.5 L 311.5 356.75 L 318.25 356.75 Z M 318.25 356.75 " transform="matrix(1,0,0,-1,0,797)"/>
<path style="fill-rule:nonzero;fill:rgb(100%,100%,100%);fill-opacity:1;stroke-width:1.5;stroke-linecap:butt;stroke-linejoin:miter;stroke:rgb(13.730068%,12.159915%,12.54902%);stroke-opacity:1;stroke-miterlimit:4;" d="M 325 356.75 L 325 363.5 L 318.25 363.5 L 318.25 356.75 L 325 356.75 Z M 325 356.75 " transform="matrix(1,0,0,-1,0,797)"/>
<path style="fill-rule:nonzero;fill:rgb(100%,100%,100%);fill-opacity:1;stroke-width:1.5;stroke-linecap:butt;stroke-linejoin:miter;stroke:rgb(13.730068%,12.159915%,12.54902%);stroke-opacity:1;stroke-miterlimit:4;" d="M 331.75 356.75 L 331.75 363.5 L 325 363.5 L 325 356.75 L 331.75 356.75 Z M 331.75 356.75 " transform="matrix(1,0,0,-1,0,797)"/>

</svg>