<svg xmlns="http://www.w3.org/2000/svg" xmlns:xlink="http://www.w3.org/1999/xlink" width="612pt" height="792pt" viewBox="0 0 612 792" version="1.1">

<!-- M-G Reactor (15) -->
<path style="fill-rule:nonzero;fill:rgb(100%,100%,100%);fill-opacity:1;stroke-width:0.75;stroke-linecap:butt;stroke-linejoin:miter;stroke:rgb(13.730068%,12.159915%,12.54902%);stroke-opacity:1;stroke-miterlimit:4;" d="M 349.5 275.5 L 349.5 307.625 L 354.25 307.625 L 354.25 317 L 357.75 317 L 357.75 307.625 L 383.5 307.625 L 383.5 317 L 387 317 L 387 307.625 L 392.75 307.625 L 392.75 275.5 L 349.5 275.5 Z M 349.5 275.5 " transform="matrix(1,0,0,-1,0,792)"/>
<path style="fill:none;stroke-width:0.75;stroke-linecap:butt;stroke-linejoin:miter;stroke:rgb(13.730068%,12.159915%,12.54902%);stroke-opacity:1;stroke-miterlimit:4;" d="M 383.375 315.164062 L 381.464844 315.164062 L 379.785156 309.960938 L 377.382812 317.960938 L 374.753906 309.960938 L 372.210938 317.960938 L 369.707031 309.960938 L 366.929688 317.960938 L 364.441406 309.960938 L 361.667969 317.960938 L 359.789062 312.613281 L 357.871094 312.613281 " transform="matrix(1,0,0,-1,0,792)"/>

<!-- Damage Boxes -->
<path style="fill-rule:nonzero;fill:rgb(100%,100%,100%);fill-opacity:1;stroke-width:1.5;stroke-linecap:butt;stroke-linejoin:miter;stroke:rgb(13.730068%,12.159915%,12.54902%);stroke-opacity:1;stroke-miterlimit:4;" d="M 361 295.25 L 361 302 L 354.25 302 L 354.25 295.25 L 361 295.25 Z M 361 295.25 " transform="matrix(1,0,0,-1,0,792)"/>
<path style="fill-rule:nonzero;fill:rgb(100%,100%,100%);fill-opacity:1;stroke-width:1.5;stroke-linecap:butt;stroke-linejoin:miter;stroke:rgb(13.730068%,12.159915%,12.54902%);stroke-opacity:1;stroke-miterlimit:4;" d="M 367.75 295.25 L 367.75 302 L 361 302 L 361 295.25 L 367.75 295.25 Z M 367.75 295.25 " transform="matrix(1,0,0,-1,0,792)"/>
<path style="fill-rule:nonzero;fill:rgb(100%,100%,100%);fill-opacity:1;stroke-width:1.5;stroke-linecap:butt;stroke-linejoin:miter;stroke:rgb(13.730068%,12.159915%,12.54902%);stroke-opacity:1;stroke-miterlimit:4;" d="M 374.5 295.25 L 374.5 302 L 367.75 302 L 367.75 295.25 L 374.5 295.25 Z M 374.5 295.25 " transform="matrix(1,0,0,-1,0,792)"/>
<path style="fill-rule:nonzero;fill:rgb(100%,100%,100%);fill-opacity:1;stroke-width:1.5;stroke-linecap:butt;stroke-linejoin:miter;stroke:rgb(13.730068%,12.159915%,12.54902%);stroke-opacity:1;stroke-miterlimit:4;" d="M 381.25 295.25 L 381.25 302 L 374.5 302 L 374.5 295.25 L 381.25 295.25 Z M 381.25 295.25 " transform="matrix(1,0,0,-1,0,792)"/>
<path style="fill-rule:nonzero;fill:rgb(100%,100%,100%);fill-opacity:1;stroke-width:1.5;stroke-linecap:butt;stroke-linejoin:miter;stroke:rgb(13.730068%,12.159915%,12.54902%);stroke-opacity:1;stroke-miterlimit:4;" d="M 388 295.25 L 388 302 L 381.25 302 L 381.25 295.25 L 388 295.25 Z M 388 295.25 " transform="matrix(1,0,0,-1,0,792)"/>
<path style="fill-rule:nonzero;fill:rgb(100%,100%,100%);fill-opacity:1;stroke-width:1.5;stroke-linecap:butt;stroke-linejoin:miter;stroke:rgb(13.730068%,12.159915%,12.54902%);stroke-opacity:1;stroke-miterlimit:4;" d="M 361 288.5 L 361 295.25 L 354.25 295.25 L 354.25 288.5 L 361 288.5 Z M 361 288.5 " transform="matrix(1,0,0,-1,0,792)"/>
<path style="fill-rule:nonzero;fill:rgb(100%,100%,100%);fill-opacity:1;stroke-width:1.5;stroke-linecap:butt;stroke-linejoin:miter;stroke:rgb(13.730068%,12.159915%,12.54902%);stroke-opacity:1;stroke-miterlimit:4;" d="M 367.75 288.5 L 367.75 295.25 L 361 295.25 L 361 288.5 L 367.75 288.5 Z M 367.75 288.5 " transform="matrix(1,0,0,-1,0,792)"/>
<path style="fill-rule:nonzero;fill:rgb(100%,100%,100%);fill-opacity:1;stroke-width:1.5;stroke-linecap:butt;stroke-linejoin:miter;stroke:rgb(13.730068%,12.159915%,12.54902%);stroke-opacity:1;stroke-miterlimit:4;" d="M 374.5 288.5 L 374.5 295.25 L 367.75 295.25 L 367.75 288.5 L 374.5 288.5 Z M 374.5 288.5 " transform="matrix(1,0,0,-1,0,792)"/>
<path style="fill-rule:nonzero;fill:rgb(100%,100%,100%);fill-opacity:1;stroke-width:1.5;stroke-linecap:butt;stroke-linejoin:miter;stroke:rgb(13.730068%,12.159915%,12.54902%);stroke-opacity:1;stroke-miterlimit:4;" d="M 381.25 288.5 L 381.25 295.25 L 374.5 295.25 L 374.5 288.5 L 381.25 288.5 Z M 381.25 288.5 " transform="matrix(1,0,0,-1,0,792)"/>
<path style="fill-rule:nonzero;fill:rgb(100%,100%,100%);fill-opacity:1;stroke-width:1.5;stroke-linecap:butt;stroke-linejoin:miter;stroke:rgb(13.730068%,12.159915%,12.54902%);stroke-opacity:1;stroke-miterlimit:4;" d="M 388 288.5 L 388 295.25 L 381.25 295.25 L 381.25 288.5 L 388 288.5 Z M 388 288.5 " transform="matrix(1,0,0,-1,0,792)"/>
<path style="fill-rule:nonzero;fill:rgb(100%,100%,100%);fill-opacity:1;stroke-width:1.5;stroke-linecap:butt;stroke-linejoin:miter;stroke:rgb(13.730068%,12.159915%,12.54902%);stroke-opacity:1;stroke-miterlimit:4;" d="M 361 281.75 L 361 288.5 L 354.25 288.5 L 354.25 281.75 L 361 281.75 Z M 361 281.75 " transform="matrix(1,0,0,-1,0,792)"/>
<path style="fill-rule:nonzero;fill:rgb(100%,100%,100%);fill-opacity:1;stroke-width:1.5;stroke-linecap:butt;stroke-linejoin:miter;stroke:rgb(13.730068%,12.159915%,12.54902%);stroke-opacity:1;stroke-miterlimit:4;" d="M 367.75 281.75 L 367.75 288.5 L 361 288.5 L 361 281.75 L 367.75 281.75 Z M 367.75 281.75 " transform="matrix(1,0,0,-1,0,792)"/>
<path style="fill-rule:nonzero;fill:rgb(100%,100%,100%);fill-opacity:1;stroke-width:1.5;stroke-linecap:butt;stroke-linejoin:miter;stroke:rgb(13.730068%,12.159915%,12.54902%);stroke-opacity:1;stroke-miterlimit:4;" d="M 374.5 281.75 L 374.5 288.5 L 367.75 288.5 L 367.75 281.75 L 374.5 281.75 Z M 374.5 281.75 " transform="matrix(1,0,0,-1,0,792)"/>
<path style="fill-rule:nonzero;fill:rgb(100%,100%,100%);fill-opacity:1;stroke-width:1.5;stroke-linecap:butt;stroke-linejoin:miter;stroke:rgb(13.730068%,12.159915%,12.54902%);stroke-opacity:1;stroke-miterlimit:4;" d="M 381.25 281.75 L 381.25 288.5 L 374.5 288.5 L 374.5 281.75 L 381.25 281.75 Z M 381.25 281.75 " transform="matrix(1,0,0,-1,0,792)"/>
<path style="fill-rule:nonzero;fill:rgb(100%,100%,100%);fill-opacity:1;stroke-width:1.5;stroke-linecap:butt;stroke-linejoin:miter;stroke:rgb(13.730068%,12.159915%,12.54902%);stroke-opacity:1;stroke-miterlimit:4;" d="M 388 281.75 L 388 288.5 L 381.25 288.5 L 381.25 281.75 L 388 281.75 Z M 388 281.75 " transform="matrix(1,0,0,-1,0,792)"/>

</svg>