<svg xmlns="http://www.w3.org/2000/svg" xmlns:xlink="http://www.w3.org/1999/xlink" width="612pt" height="792pt" viewBox="0 0 612 792" version="1.1">

<!-- M-G Reactor (10) -->
<path style="fill-rule:nonzero;fill:rgb(100%,100%,100%);fill-opacity:1;stroke-width:0.75;stroke-linecap:butt;stroke-linejoin:miter;stroke:rgb(13.730068%,12.159915%,12.54902%);stroke-opacity:1;stroke-miterlimit:4;" d="M 341.75 386 L 341.75 411.375 L 348.5 411.375 L 348.5 418.769531 L 354.164062 418.730469 L 354.1875 411.460938 L 376.125 411.398438 L 376.125 418.773438 L 382.335938 418.769531 L 382.25 411.375 L 389 411.375 L 389 386 L 341.75 386 Z M 341.75 386 " transform="matrix(1,0,0,-1,0,792)"/>
<path style="fill-rule:nonzero;fill:rgb(78.432898%,78.040742%,78.138399%);fill-opacity:1;stroke-width:0.75;stroke-linecap:butt;stroke-linejoin:miter;stroke:rgb(13.730068%,12.159915%,12.54902%);stroke-opacity:1;stroke-miterlimit:4;" d="M 354.1875 415.710938 L 356.25 415.710938 L 357.5625 418.460938 L 359.25 413.210938 L 361.164062 418.398438 L 363.0625 413.148438 L 365.0625 418.460938 L 366.75 413.273438 L 368.375 418.335938 L 370.0625 413.335938 L 371.875 418.585938 L 373.164062 415.730469 L 376.1875 415.773438 " transform="matrix(1,0,0,-1,0,792)"/>

<!-- Damage Boxes -->
<path style="fill-rule:nonzero;fill:rgb(100%,100%,100%);fill-opacity:1;stroke-width:1.5;stroke-linecap:butt;stroke-linejoin:miter;stroke:rgb(13.730068%,12.159915%,12.54902%);stroke-opacity:1;stroke-miterlimit:4;" d="M 355.25 397.75 L 355.25 404.5 L 348.5 404.5 L 348.5 397.75 L 355.25 397.75 Z M 355.25 397.75 " transform="matrix(1,0,0,-1,0,792)"/>
<path style="fill-rule:nonzero;fill:rgb(100%,100%,100%);fill-opacity:1;stroke-width:1.5;stroke-linecap:butt;stroke-linejoin:miter;stroke:rgb(13.730068%,12.159915%,12.54902%);stroke-opacity:1;stroke-miterlimit:4;" d="M 362 397.75 L 362 404.5 L 355.25 404.5 L 355.25 397.75 L 362 397.75 Z M 362 397.75 " transform="matrix(1,0,0,-1,0,792)"/>
<path style="fill-rule:nonzero;fill:rgb(100%,100%,100%);fill-opacity:1;stroke-width:1.5;stroke-linecap:butt;stroke-linejoin:miter;stroke:rgb(13.730068%,12.159915%,12.54902%);stroke-opacity:1;stroke-miterlimit:4;" d="M 368.75 397.75 L 368.75 404.5 L 362 404.5 L 362 397.75 L 368.75 397.75 Z M 368.75 397.75 " transform="matrix(1,0,0,-1,0,792)"/>
<path style="fill-rule:nonzero;fill:rgb(100%,100%,100%);fill-opacity:1;stroke-width:1.5;stroke-linecap:butt;stroke-linejoin:miter;stroke:rgb(13.730068%,12.159915%,12.54902%);stroke-opacity:1;stroke-miterlimit:4;" d="M 375.5 397.75 L 375.5 404.5 L 368.75 404.5 L 368.75 397.75 L 375.5 397.75 Z M 375.5 397.75 " transform="matrix(1,0,0,-1,0,792)"/>
<path style="fill-rule:nonzero;fill:rgb(100%,100%,100%);fill-opacity:1;stroke-width:1.5;stroke-linecap:butt;stroke-linejoin:miter;stroke:rgb(13.730068%,12.159915%,12.54902%);stroke-opacity:1;stroke-miterlimit:4;" d="M 382.25 397.75 L 382.25 404.5 L 375.5 404.5 L 375.5 397.75 L 382.25 397.75 Z M 382.25 397.75 " transform="matrix(1,0,0,-1,0,792)"/>
<path style="fill-rule:nonzero;fill:rgb(100%,100%,100%);fill-opacity:1;stroke-width:1.5;stroke-linecap:butt;stroke-linejoin:miter;stroke:rgb(13.730068%,12.159915%,12.54902%);stroke-opacity:1;stroke-miterlimit:4;" d="M 355.25 391 L 355.25 397.75 L 348.5 397.75 L 348.5 391 L 355.25 391 Z M 355.25 391 " transform="matrix(1,0,0,-1,0,792)"/>
<path style="fill-rule:nonzero;fill:rgb(100%,100%,100%);fill-opacity:1;stroke-width:1.5;stroke-linecap:butt;stroke-linejoin:miter;stroke:rgb(13.730068%,12.159915%,12.54902%);stroke-opacity:1;stroke-miterlimit:4;" d="M 362 391 L 362 397.75 L 355.25 397.75 L 355.25 391 L 362 391 Z M 362 391 " transform="matrix(1,0,0,-1,0,792)"/>
<path style="fill-rule:nonzero;fill:rgb(100%,100%,100%);fill-opacity:1;stroke-width:1.5;stroke-linecap:butt;stroke-linejoin:miter;stroke:rgb(13.730068%,12.159915%,12.54902%);stroke-opacity:1;stroke-miterlimit:4;" d="M 368.75 391 L 368.75 397.75 L 362 397.75 L 362 391 L 368.75 391 Z M 368.75 391 " transform="matrix(1,0,0,-1,0,792)"/>
<path style="fill-rule:nonzero;fill:rgb(100%,100%,100%);fill-opacity:1;stroke-width:1.5;stroke-linecap:butt;stroke-linejoin:miter;stroke:rgb(13.730068%,12.159915%,12.54902%);stroke-opacity:1;stroke-miterlimit:4;" d="M 375.5 391 L 375.5 397.75 L 368.75 397.75 L 368.75 391 L 375.5 391 Z M 375.5 391 " transform="matrix(1,0,0,-1,0,792)"/>
<path style="fill-rule:nonzero;fill:rgb(100%,100%,100%);fill-opacity:1;stroke-width:1.5;stroke-linecap:butt;stroke-linejoin:miter;stroke:rgb(13.730068%,12.159915%,12.54902%);stroke-opacity:1;stroke-miterlimit:4;" d="M 382.25 391 L 382.25 397.75 L 375.5 397.75 L 375.5 391 L 382.25 391 Z M 382.25 391 " transform="matrix(1,0,0,-1,0,792)"/>

</svg>