<svg xmlns="http://www.w3.org/2000/svg" xmlns:xlink="http://www.w3.org/1999/xlink" width="612pt" height="792pt" viewBox="0 0 612 792" version="1.1">

<!-- M-G Reactor -->
<path style="fill-rule:nonzero;fill:rgb(100%,100%,100%);fill-opacity:1;stroke-width:0.75;stroke-linecap:butt;stroke-linejoin:miter;stroke:rgb(13.730068%,12.159915%,12.54902%);stroke-opacity:1;stroke-miterlimit:4;" d="M 318.5 211.5 L 318.5 257.125 L 323.25 257.125 L 323.25 266.5 L 326.75 266.5 L 326.75 257.125 L 352.5 257.125 L 352.5 266.5 L 356 266.5 L 356 257.125 L 361.75 257.125 L 361.75 211.5 L 318.5 211.5 Z M 318.5 211.5 " transform="matrix(1,0,0,-1,1,784)"/>
<path style="fill:none;stroke-width:0.75;stroke-linecap:butt;stroke-linejoin:miter;stroke:rgb(13.730068%,12.159915%,12.54902%);stroke-opacity:1;stroke-miterlimit:4;" d="M 352.375 264.664062 L 350.464844 264.664062 L 348.785156 259.460938 L 346.382812 267.460938 L 343.753906 259.460938 L 341.210938 267.460938 L 338.707031 259.460938 L 335.929688 267.460938 L 333.441406 259.460938 L 330.667969 267.460938 L 328.789062 262.113281 L 326.871094 262.113281 " transform="matrix(1,0,0,-1,1,784)"/>

</svg>