<svg xmlns="http://www.w3.org/2000/svg" xmlns:xlink="http://www.w3.org/1999/xlink" width="612pt" height="792pt" viewBox="0 0 612 792" version="1.1">

<!-- M-G Reactor (12) -->
<path style="fill-rule:nonzero;fill:rgb(100%,100%,100%);fill-opacity:1;stroke-width:0.75;stroke-linecap:butt;stroke-linejoin:miter;stroke:rgb(13.730068%,12.159915%,12.54902%);stroke-opacity:1;stroke-miterlimit:4;" d="M 198.875 390.394531 L 198.875 427.269531 L 202.625 427.269531 L 202.625 436.644531 L 205.125 436.644531 L 205.125 427.269531 L 228.875 427.269531 L 228.875 436.644531 L 231.375 436.644531 L 231.375 427.269531 L 235.125 427.269531 L 235.125 390.394531 L 198.875 390.394531 Z M 198.875 390.394531 " transform="matrix(1,0,0,-1,282,1027)"/>
<path style="fill:none;stroke-width:0.75;stroke-linecap:butt;stroke-linejoin:miter;stroke:rgb(13.730068%,12.159915%,12.54902%);stroke-opacity:1;stroke-miterlimit:4;" d="M 351.75 470.8125 L 350.839844 470.8125 L 349.160156 466.605469 L 346.757812 472.605469 L 344.128906 466.605469 L 341.585938 472.605469 L 339.082031 466.605469 L 336.304688 472.605469 L 333.816406 466.605469 L 331.042969 472.605469 L 329.164062 468.257812 L 328.246094 468.257812 " transform="matrix(1,0,0,-1,159,1064)"/>

<!-- Damage Boxes -->
<path style="fill-rule:nonzero;fill:rgb(100%,100%,100%);fill-opacity:1;stroke-width:1.5;stroke-linecap:butt;stroke-linejoin:miter;stroke:rgb(13.730068%,12.159915%,12.54902%);stroke-opacity:1;stroke-miterlimit:4;" d="M 336.828125 451.894531 L 336.828125 458.644531 L 330.078125 458.644531 L 330.078125 451.894531 L 336.828125 451.894531 Z M 336.828125 451.894531 " transform="matrix(1,0,0,-1,159,1064)"/>
<path style="fill-rule:nonzero;fill:rgb(100%,100%,100%);fill-opacity:1;stroke-width:1.5;stroke-linecap:butt;stroke-linejoin:miter;stroke:rgb(13.730068%,12.159915%,12.54902%);stroke-opacity:1;stroke-miterlimit:4;" d="M 343.578125 451.894531 L 343.578125 458.644531 L 336.828125 458.644531 L 336.828125 451.894531 L 343.578125 451.894531 Z M 343.578125 451.894531 " transform="matrix(1,0,0,-1,159,1064)"/>
<path style="fill-rule:nonzero;fill:rgb(100%,100%,100%);fill-opacity:1;stroke-width:1.5;stroke-linecap:butt;stroke-linejoin:miter;stroke:rgb(13.730068%,12.159915%,12.54902%);stroke-opacity:1;stroke-miterlimit:4;" d="M 350.328125 451.894531 L 350.328125 458.644531 L 343.578125 458.644531 L 343.578125 451.894531 L 350.328125 451.894531 Z M 350.328125 451.894531 " transform="matrix(1,0,0,-1,159,1064)"/>
<path style="fill-rule:nonzero;fill:rgb(100%,100%,100%);fill-opacity:1;stroke-width:1.5;stroke-linecap:butt;stroke-linejoin:miter;stroke:rgb(13.730068%,12.159915%,12.54902%);stroke-opacity:1;stroke-miterlimit:4;" d="M 336.828125 445.144531 L 336.828125 451.894531 L 330.078125 451.894531 L 330.078125 445.144531 L 336.828125 445.144531 Z M 336.828125 445.144531 " transform="matrix(1,0,0,-1,159,1064)"/>
<path style="fill-rule:nonzero;fill:rgb(100%,100%,100%);fill-opacity:1;stroke-width:1.5;stroke-linecap:butt;stroke-linejoin:miter;stroke:rgb(13.730068%,12.159915%,12.54902%);stroke-opacity:1;stroke-miterlimit:4;" d="M 343.578125 445.144531 L 343.578125 451.894531 L 336.828125 451.894531 L 336.828125 445.144531 L 343.578125 445.144531 Z M 343.578125 445.144531 " transform="matrix(1,0,0,-1,159,1064)"/>
<path style="fill-rule:nonzero;fill:rgb(100%,100%,100%);fill-opacity:1;stroke-width:1.5;stroke-linecap:butt;stroke-linejoin:miter;stroke:rgb(13.730068%,12.159915%,12.54902%);stroke-opacity:1;stroke-miterlimit:4;" d="M 350.328125 445.144531 L 350.328125 451.894531 L 343.578125 451.894531 L 343.578125 445.144531 L 350.328125 445.144531 Z M 350.328125 445.144531 " transform="matrix(1,0,0,-1,159,1064)"/>
<path style="fill-rule:nonzero;fill:rgb(100%,100%,100%);fill-opacity:1;stroke-width:1.5;stroke-linecap:butt;stroke-linejoin:miter;stroke:rgb(13.730068%,12.159915%,12.54902%);stroke-opacity:1;stroke-miterlimit:4;" d="M 336.828125 438.394531 L 336.828125 445.144531 L 330.078125 445.144531 L 330.078125 438.394531 L 336.828125 438.394531 Z M 336.828125 438.394531 " transform="matrix(1,0,0,-1,159,1064)"/>
<path style="fill-rule:nonzero;fill:rgb(100%,100%,100%);fill-opacity:1;stroke-width:1.5;stroke-linecap:butt;stroke-linejoin:miter;stroke:rgb(13.730068%,12.159915%,12.54902%);stroke-opacity:1;stroke-miterlimit:4;" d="M 343.578125 438.394531 L 343.578125 445.144531 L 336.828125 445.144531 L 336.828125 438.394531 L 343.578125 438.394531 Z M 343.578125 438.394531 " transform="matrix(1,0,0,-1,159,1064)"/>
<path style="fill-rule:nonzero;fill:rgb(100%,100%,100%);fill-opacity:1;stroke-width:1.5;stroke-linecap:butt;stroke-linejoin:miter;stroke:rgb(13.730068%,12.159915%,12.54902%);stroke-opacity:1;stroke-miterlimit:4;" d="M 350.328125 438.394531 L 350.328125 445.144531 L 343.578125 445.144531 L 343.578125 438.394531 L 350.328125 438.394531 Z M 350.328125 438.394531 " transform="matrix(1,0,0,-1,159,1064)"/>
<path style="fill-rule:nonzero;fill:rgb(100%,100%,100%);fill-opacity:1;stroke-width:1.5;stroke-linecap:butt;stroke-linejoin:miter;stroke:rgb(13.730068%,12.159915%,12.54902%);stroke-opacity:1;stroke-miterlimit:4;" d="M 336.828125 431.644531 L 336.828125 438.394531 L 330.078125 438.394531 L 330.078125 431.644531 L 336.828125 431.644531 Z M 336.828125 431.644531 " transform="matrix(1,0,0,-1,159,1064)"/>
<path style="fill-rule:nonzero;fill:rgb(100%,100%,100%);fill-opacity:1;stroke-width:1.5;stroke-linecap:butt;stroke-linejoin:miter;stroke:rgb(13.730068%,12.159915%,12.54902%);stroke-opacity:1;stroke-miterlimit:4;" d="M 343.578125 431.644531 L 343.578125 438.394531 L 336.828125 438.394531 L 336.828125 431.644531 L 343.578125 431.644531 Z M 343.578125 431.644531 " transform="matrix(1,0,0,-1,159,1064)"/>
<path style="fill-rule:nonzero;fill:rgb(100%,100%,100%);fill-opacity:1;stroke-width:1.5;stroke-linecap:butt;stroke-linejoin:miter;stroke:rgb(13.730068%,12.159915%,12.54902%);stroke-opacity:1;stroke-miterlimit:4;" d="M 350.328125 431.644531 L 350.328125 438.394531 L 343.578125 438.394531 L 343.578125 431.644531 L 350.328125 431.644531 Z M 350.328125 431.644531 " transform="matrix(1,0,0,-1,159,1064)"/>

</svg>