<svg xmlns="http://www.w3.org/2000/svg" xmlns:xlink="http://www.w3.org/1999/xlink" width="612pt" height="792pt" viewBox="0 0 612 792" version="1.1">

<!-- Mag Gun -->
<path style="fill-rule:nonzero;fill:rgb(100%,100%,100%);fill-opacity:1;stroke-width:0.75;stroke-linecap:butt;stroke-linejoin:miter;stroke:rgb(13.730068%,12.159915%,12.54902%);stroke-opacity:1;stroke-miterlimit:4;" d="M 286.25 468.75 L 286.25 482.25 L 304.25 500.25 L 304.25 502.5 L 299.75 498 L 304.25 504.75 L 304.25 507 L 299.75 502.5 L 304.25 509.25 L 304.25 511.5 L 299.75 507 L 307.75 519.25 L 315.5 507 L 311 511.5 L 311 509.25 L 315.5 502.5 L 311 507 L 311 504.75 L 315.5 498 L 311 502.5 L 311 500.25 L 329 482.25 L 329 468.75 L 286.25 468.75 Z M 286.25 468.75 " transform="matrix(1,0,0,-1,0,793)"/>

<!-- Damage Boxes -->
<path style="fill-rule:nonzero;fill:rgb(100%,100%,100%);fill-opacity:1;stroke-width:1.5;stroke-linecap:butt;stroke-linejoin:miter;stroke:rgb(13.730068%,12.159915%,12.54902%);stroke-opacity:1;stroke-miterlimit:4;" d="M 311 486.75 L 311 493.5 L 304.25 493.5 L 304.25 486.75 L 311 486.75 Z M 311 486.75 " transform="matrix(1,0,0,-1,0,793)"/>
<path style="fill-rule:nonzero;fill:rgb(100%,100%,100%);fill-opacity:1;stroke-width:1.5;stroke-linecap:butt;stroke-linejoin:miter;stroke:rgb(13.730068%,12.159915%,12.54902%);stroke-opacity:1;stroke-miterlimit:4;" d="M 304.25 480 L 304.25 486.75 L 297.5 486.75 L 297.5 480 L 304.25 480 Z M 304.25 480 " transform="matrix(1,0,0,-1,0,793)"/>
<path style="fill-rule:nonzero;fill:rgb(100%,100%,100%);fill-opacity:1;stroke-width:1.5;stroke-linecap:butt;stroke-linejoin:miter;stroke:rgb(13.730068%,12.159915%,12.54902%);stroke-opacity:1;stroke-miterlimit:4;" d="M 311 480 L 311 486.75 L 304.25 486.75 L 304.25 480 L 311 480 Z M 311 480 " transform="matrix(1,0,0,-1,0,793)"/>
<path style="fill-rule:nonzero;fill:rgb(100%,100%,100%);fill-opacity:1;stroke-width:1.5;stroke-linecap:butt;stroke-linejoin:miter;stroke:rgb(13.730068%,12.159915%,12.54902%);stroke-opacity:1;stroke-miterlimit:4;" d="M 317.75 480 L 317.75 486.75 L 311 486.75 L 311 480 L 317.75 480 Z M 317.75 480 " transform="matrix(1,0,0,-1,0,793)"/>
<path style="fill-rule:nonzero;fill:rgb(100%,100%,100%);fill-opacity:1;stroke-width:1.5;stroke-linecap:butt;stroke-linejoin:miter;stroke:rgb(13.730068%,12.159915%,12.54902%);stroke-opacity:1;stroke-miterlimit:4;" d="M 297.5 473.25 L 297.5 480 L 290.75 480 L 290.75 473.25 L 297.5 473.25 Z M 297.5 473.25 " transform="matrix(1,0,0,-1,0,793)"/>
<path style="fill-rule:nonzero;fill:rgb(100%,100%,100%);fill-opacity:1;stroke-width:1.5;stroke-linecap:butt;stroke-linejoin:miter;stroke:rgb(13.730068%,12.159915%,12.54902%);stroke-opacity:1;stroke-miterlimit:4;" d="M 304.25 473.25 L 304.25 480 L 297.5 480 L 297.5 473.25 L 304.25 473.25 Z M 304.25 473.25 " transform="matrix(1,0,0,-1,0,793)"/>
<path style="fill-rule:nonzero;fill:rgb(100%,100%,100%);fill-opacity:1;stroke-width:1.5;stroke-linecap:butt;stroke-linejoin:miter;stroke:rgb(13.730068%,12.159915%,12.54902%);stroke-opacity:1;stroke-miterlimit:4;" d="M 311 473.25 L 311 480 L 304.25 480 L 304.25 473.25 L 311 473.25 Z M 311 473.25 " transform="matrix(1,0,0,-1,0,793)"/>
<path style="fill-rule:nonzero;fill:rgb(100%,100%,100%);fill-opacity:1;stroke-width:1.5;stroke-linecap:butt;stroke-linejoin:miter;stroke:rgb(13.730068%,12.159915%,12.54902%);stroke-opacity:1;stroke-miterlimit:4;" d="M 317.75 473.25 L 317.75 480 L 311 480 L 311 473.25 L 317.75 473.25 Z M 317.75 473.25 " transform="matrix(1,0,0,-1,0,793)"/>
<path style="fill-rule:nonzero;fill:rgb(100%,100%,100%);fill-opacity:1;stroke-width:1.5;stroke-linecap:butt;stroke-linejoin:miter;stroke:rgb(13.730068%,12.159915%,12.54902%);stroke-opacity:1;stroke-miterlimit:4;" d="M 324.5 473.25 L 324.5 480 L 317.75 480 L 317.75 473.25 L 324.5 473.25 Z M 324.5 473.25 " transform="matrix(1,0,0,-1,0,793)"/>

</svg>