<svg xmlns="http://www.w3.org/2000/svg" xmlns:xlink="http://www.w3.org/1999/xlink" width="612pt" height="792pt" viewBox="0 0 612 792" version="1.1">

<!-- Main Thruster (30) -->
<path style="fill-rule:nonzero;fill:rgb(100%,100%,100%);fill-opacity:1;stroke-width:0.75;stroke-linecap:butt;stroke-linejoin:miter;stroke:rgb(13.730068%,12.159915%,12.54902%);stroke-opacity:1;stroke-miterlimit:4;" d="M 283.5 83.25 L 283.5 31.5 L 288 36 L 333 36 L 337.5 31.5 L 337.5 83.25 L 328.5 92.25 L 292.5 92.25 L 283.5 83.25 Z M 283.5 83.25 " transform="matrix(1,0,0,-1,0,794)"/>
<path style="fill-rule:nonzero;fill:rgb(100%,100%,100%);fill-opacity:1;stroke-width:0.75;stroke-linecap:butt;stroke-linejoin:miter;stroke:rgb(13.730068%,12.159915%,12.54902%);stroke-opacity:1;stroke-miterlimit:4;" d="M 337.5 83.25 L 283.5 83.25 " transform="matrix(1,0,0,-1,0,794)"/>
<path style="fill-rule:nonzero;fill:rgb(100%,100%,100%);fill-opacity:1;stroke-width:0.75;stroke-linecap:butt;stroke-linejoin:miter;stroke:rgb(13.730068%,12.159915%,12.54902%);stroke-opacity:1;stroke-miterlimit:4;" d="M 285.75 85.5 L 335.25 85.5 " transform="matrix(1,0,0,-1,0,794)"/>
<path style="fill-rule:nonzero;fill:rgb(100%,100%,100%);fill-opacity:1;stroke-width:0.75;stroke-linecap:butt;stroke-linejoin:miter;stroke:rgb(13.730068%,12.159915%,12.54902%);stroke-opacity:1;stroke-miterlimit:4;" d="M 288 87.75 L 333 87.75 " transform="matrix(1,0,0,-1,0,794)"/>
<path style="fill-rule:nonzero;fill:rgb(100%,100%,100%);fill-opacity:1;stroke-width:0.75;stroke-linecap:butt;stroke-linejoin:miter;stroke:rgb(13.730068%,12.159915%,12.54902%);stroke-opacity:1;stroke-miterlimit:4;" d="M 290.25 90 L 330.75 90 " transform="matrix(1,0,0,-1,0,794)"/>
<path style="fill-rule:nonzero;fill:rgb(100%,100%,100%);fill-opacity:1;stroke-width:0.75;stroke-linecap:butt;stroke-linejoin:miter;stroke:rgb(13.730068%,12.159915%,12.54902%);stroke-opacity:1;stroke-miterlimit:4;" d="M 301 83.25 L 305.5 90 L 314.5 90 L 319 83.25 L 301 83.25 Z M 301 83.25 " transform="matrix(1,0,0,-1,0,794)"/>

<!-- Annotation -->
<path style="opacity:0.5;fill:#ffffff;fill-opacity:1;fill-rule:nonzero;stroke:#ff1e1e;stroke-width:1.5;stroke-linecap:butt;stroke-linejoin:miter;stroke-miterlimit:4;stroke-opacity:1" d="m 313.34844,704.01263 0,6.75 -6.75,0 0,-6.75 6.75,0 z m 0,0"/>
     
<!-- Damage Boxes -->
<path style="fill-rule:nonzero;fill:rgb(100%,100%,100%);fill-opacity:1;stroke-width:1.5;stroke-linecap:butt;stroke-linejoin:miter;stroke:rgb(13.730068%,12.159915%,12.54902%);stroke-opacity:1;stroke-miterlimit:4;" d="M 297 76.5 L 297 69.75 L 290.25 69.75 L 290.25 76.5 L 297 76.5 Z M 297 76.5 " transform="matrix(1,0,0,-1,0,794)"/>
<path style="fill-rule:nonzero;fill:rgb(100%,100%,100%);fill-opacity:1;stroke-width:1.5;stroke-linecap:butt;stroke-linejoin:miter;stroke:rgb(13.730068%,12.159915%,12.54902%);stroke-opacity:1;stroke-miterlimit:4;" d="M 303.75 76.5 L 303.75 69.75 L 297 69.75 L 297 76.5 L 303.75 76.5 Z M 303.75 76.5 " transform="matrix(1,0,0,-1,0,794)"/>
<path style="fill-rule:nonzero;fill:rgb(100%,100%,100%);fill-opacity:1;stroke-width:1.5;stroke-linecap:butt;stroke-linejoin:miter;stroke:rgb(13.730068%,12.159915%,12.54902%);stroke-opacity:1;stroke-miterlimit:4;" d="M 310.5 76.5 L 310.5 69.75 L 303.75 69.75 L 303.75 76.5 L 310.5 76.5 Z M 310.5 76.5 " transform="matrix(1,0,0,-1,0,794)"/>
<path style="fill-rule:nonzero;fill:rgb(100%,100%,100%);fill-opacity:1;stroke-width:1.5;stroke-linecap:butt;stroke-linejoin:miter;stroke:rgb(13.730068%,12.159915%,12.54902%);stroke-opacity:1;stroke-miterlimit:4;" d="M 317.25 76.5 L 317.25 69.75 L 310.5 69.75 L 310.5 76.5 L 317.25 76.5 Z M 317.25 76.5 " transform="matrix(1,0,0,-1,0,794)"/>
<path style="fill-rule:nonzero;fill:rgb(100%,100%,100%);fill-opacity:1;stroke-width:1.5;stroke-linecap:butt;stroke-linejoin:miter;stroke:rgb(13.730068%,12.159915%,12.54902%);stroke-opacity:1;stroke-miterlimit:4;" d="M 324 76.5 L 324 69.75 L 317.25 69.75 L 317.25 76.5 L 324 76.5 Z M 324 76.5 " transform="matrix(1,0,0,-1,0,794)"/>
<path style="fill-rule:nonzero;fill:rgb(100%,100%,100%);fill-opacity:1;stroke-width:1.5;stroke-linecap:butt;stroke-linejoin:miter;stroke:rgb(13.730068%,12.159915%,12.54902%);stroke-opacity:1;stroke-miterlimit:4;" d="M 330.75 76.5 L 330.75 69.75 L 324 69.75 L 324 76.5 L 330.75 76.5 Z M 330.75 76.5 " transform="matrix(1,0,0,-1,0,794)"/>
<path style="fill-rule:nonzero;fill:rgb(100%,100%,100%);fill-opacity:1;stroke-width:1.5;stroke-linecap:butt;stroke-linejoin:miter;stroke:rgb(13.730068%,12.159915%,12.54902%);stroke-opacity:1;stroke-miterlimit:4;" d="M 297 69.75 L 297 63 L 290.25 63 L 290.25 69.75 L 297 69.75 Z M 297 69.75 " transform="matrix(1,0,0,-1,0,794)"/>
<path style="fill-rule:nonzero;fill:rgb(100%,100%,100%);fill-opacity:1;stroke-width:1.5;stroke-linecap:butt;stroke-linejoin:miter;stroke:rgb(13.730068%,12.159915%,12.54902%);stroke-opacity:1;stroke-miterlimit:4;" d="M 303.75 69.75 L 303.75 63 L 297 63 L 297 69.75 L 303.75 69.75 Z M 303.75 69.75 " transform="matrix(1,0,0,-1,0,794)"/>
<path style="fill-rule:nonzero;fill:rgb(100%,100%,100%);fill-opacity:1;stroke-width:1.5;stroke-linecap:butt;stroke-linejoin:miter;stroke:rgb(13.730068%,12.159915%,12.54902%);stroke-opacity:1;stroke-miterlimit:4;" d="M 310.5 69.75 L 310.5 63 L 303.75 63 L 303.75 69.75 L 310.5 69.75 Z M 310.5 69.75 " transform="matrix(1,0,0,-1,0,794)"/>
<path style="fill-rule:nonzero;fill:rgb(100%,100%,100%);fill-opacity:1;stroke-width:1.5;stroke-linecap:butt;stroke-linejoin:miter;stroke:rgb(13.730068%,12.159915%,12.54902%);stroke-opacity:1;stroke-miterlimit:4;" d="M 317.25 69.75 L 317.25 63 L 310.5 63 L 310.5 69.75 L 317.25 69.75 Z M 317.25 69.75 " transform="matrix(1,0,0,-1,0,794)"/>
<path style="fill-rule:nonzero;fill:rgb(100%,100%,100%);fill-opacity:1;stroke-width:1.5;stroke-linecap:butt;stroke-linejoin:miter;stroke:rgb(13.730068%,12.159915%,12.54902%);stroke-opacity:1;stroke-miterlimit:4;" d="M 324 69.75 L 324 63 L 317.25 63 L 317.25 69.75 L 324 69.75 Z M 324 69.75 " transform="matrix(1,0,0,-1,0,794)"/>
<path style="fill-rule:nonzero;fill:rgb(100%,100%,100%);fill-opacity:1;stroke-width:1.5;stroke-linecap:butt;stroke-linejoin:miter;stroke:rgb(13.730068%,12.159915%,12.54902%);stroke-opacity:1;stroke-miterlimit:4;" d="M 330.75 69.75 L 330.75 63 L 324 63 L 324 69.75 L 330.75 69.75 Z M 330.75 69.75 " transform="matrix(1,0,0,-1,0,794)"/>
<path style="fill-rule:nonzero;fill:rgb(100%,100%,100%);fill-opacity:1;stroke-width:1.5;stroke-linecap:butt;stroke-linejoin:miter;stroke:rgb(13.730068%,12.159915%,12.54902%);stroke-opacity:1;stroke-miterlimit:4;" d="M 297 63 L 297 56.25 L 290.25 56.25 L 290.25 63 L 297 63 Z M 297 63 " transform="matrix(1,0,0,-1,0,794)"/>
<path style="fill-rule:nonzero;fill:rgb(100%,100%,100%);fill-opacity:1;stroke-width:1.5;stroke-linecap:butt;stroke-linejoin:miter;stroke:rgb(13.730068%,12.159915%,12.54902%);stroke-opacity:1;stroke-miterlimit:4;" d="M 303.75 63 L 303.75 56.25 L 297 56.25 L 297 63 L 303.75 63 Z M 303.75 63 " transform="matrix(1,0,0,-1,0,794)"/>
<path style="fill-rule:nonzero;fill:rgb(100%,100%,100%);fill-opacity:1;stroke-width:1.5;stroke-linecap:butt;stroke-linejoin:miter;stroke:rgb(13.730068%,12.159915%,12.54902%);stroke-opacity:1;stroke-miterlimit:4;" d="M 310.5 63 L 310.5 56.25 L 303.75 56.25 L 303.75 63 L 310.5 63 Z M 310.5 63 " transform="matrix(1,0,0,-1,0,794)"/>
<path style="fill-rule:nonzero;fill:rgb(100%,100%,100%);fill-opacity:1;stroke-width:1.5;stroke-linecap:butt;stroke-linejoin:miter;stroke:rgb(13.730068%,12.159915%,12.54902%);stroke-opacity:1;stroke-miterlimit:4;" d="M 317.25 63 L 317.25 56.25 L 310.5 56.25 L 310.5 63 L 317.25 63 Z M 317.25 63 " transform="matrix(1,0,0,-1,0,794)"/>
<path style="fill-rule:nonzero;fill:rgb(100%,100%,100%);fill-opacity:1;stroke-width:1.5;stroke-linecap:butt;stroke-linejoin:miter;stroke:rgb(13.730068%,12.159915%,12.54902%);stroke-opacity:1;stroke-miterlimit:4;" d="M 324 63 L 324 56.25 L 317.25 56.25 L 317.25 63 L 324 63 Z M 324 63 " transform="matrix(1,0,0,-1,0,794)"/>
<path style="fill-rule:nonzero;fill:rgb(100%,100%,100%);fill-opacity:1;stroke-width:1.5;stroke-linecap:butt;stroke-linejoin:miter;stroke:rgb(13.730068%,12.159915%,12.54902%);stroke-opacity:1;stroke-miterlimit:4;" d="M 330.75 63 L 330.75 56.25 L 324 56.25 L 324 63 L 330.75 63 Z M 330.75 63 " transform="matrix(1,0,0,-1,0,794)"/>
<path style="fill-rule:nonzero;fill:rgb(100%,100%,100%);fill-opacity:1;stroke-width:1.5;stroke-linecap:butt;stroke-linejoin:miter;stroke:rgb(13.730068%,12.159915%,12.54902%);stroke-opacity:1;stroke-miterlimit:4;" d="M 297 56.25 L 297 49.5 L 290.25 49.5 L 290.25 56.25 L 297 56.25 Z M 297 56.25 " transform="matrix(1,0,0,-1,0,794)"/>
<path style="fill-rule:nonzero;fill:rgb(100%,100%,100%);fill-opacity:1;stroke-width:1.5;stroke-linecap:butt;stroke-linejoin:miter;stroke:rgb(13.730068%,12.159915%,12.54902%);stroke-opacity:1;stroke-miterlimit:4;" d="M 303.75 56.25 L 303.75 49.5 L 297 49.5 L 297 56.25 L 303.75 56.25 Z M 303.75 56.25 " transform="matrix(1,0,0,-1,0,794)"/>
<path style="fill-rule:nonzero;fill:rgb(100%,100%,100%);fill-opacity:1;stroke-width:1.5;stroke-linecap:butt;stroke-linejoin:miter;stroke:rgb(13.730068%,12.159915%,12.54902%);stroke-opacity:1;stroke-miterlimit:4;" d="M 310.5 56.25 L 310.5 49.5 L 303.75 49.5 L 303.75 56.25 L 310.5 56.25 Z M 310.5 56.25 " transform="matrix(1,0,0,-1,0,794)"/>
<path style="fill-rule:nonzero;fill:rgb(100%,100%,100%);fill-opacity:1;stroke-width:1.5;stroke-linecap:butt;stroke-linejoin:miter;stroke:rgb(13.730068%,12.159915%,12.54902%);stroke-opacity:1;stroke-miterlimit:4;" d="M 317.25 56.25 L 317.25 49.5 L 310.5 49.5 L 310.5 56.25 L 317.25 56.25 Z M 317.25 56.25 " transform="matrix(1,0,0,-1,0,794)"/>
<path style="fill-rule:nonzero;fill:rgb(100%,100%,100%);fill-opacity:1;stroke-width:1.5;stroke-linecap:butt;stroke-linejoin:miter;stroke:rgb(13.730068%,12.159915%,12.54902%);stroke-opacity:1;stroke-miterlimit:4;" d="M 324 56.25 L 324 49.5 L 317.25 49.5 L 317.25 56.25 L 324 56.25 Z M 324 56.25 " transform="matrix(1,0,0,-1,0,794)"/>
<path style="fill-rule:nonzero;fill:rgb(100%,100%,100%);fill-opacity:1;stroke-width:1.5;stroke-linecap:butt;stroke-linejoin:miter;stroke:rgb(13.730068%,12.159915%,12.54902%);stroke-opacity:1;stroke-miterlimit:4;" d="M 330.75 56.25 L 330.75 49.5 L 324 49.5 L 324 56.25 L 330.75 56.25 Z M 330.75 56.25 " transform="matrix(1,0,0,-1,0,794)"/>
<path style="fill-rule:nonzero;fill:rgb(100%,100%,100%);fill-opacity:1;stroke-width:1.5;stroke-linecap:butt;stroke-linejoin:miter;stroke:rgb(13.730068%,12.159915%,12.54902%);stroke-opacity:1;stroke-miterlimit:4;" d="M 297 49.5 L 297 42.75 L 290.25 42.75 L 290.25 49.5 L 297 49.5 Z M 297 49.5 " transform="matrix(1,0,0,-1,0,794)"/>
<path style="fill-rule:nonzero;fill:rgb(100%,100%,100%);fill-opacity:1;stroke-width:1.5;stroke-linecap:butt;stroke-linejoin:miter;stroke:rgb(13.730068%,12.159915%,12.54902%);stroke-opacity:1;stroke-miterlimit:4;" d="M 303.75 49.5 L 303.75 42.75 L 297 42.75 L 297 49.5 L 303.75 49.5 Z M 303.75 49.5 " transform="matrix(1,0,0,-1,0,794)"/>
<path style="fill-rule:nonzero;fill:rgb(100%,100%,100%);fill-opacity:1;stroke-width:1.5;stroke-linecap:butt;stroke-linejoin:miter;stroke:rgb(13.730068%,12.159915%,12.54902%);stroke-opacity:1;stroke-miterlimit:4;" d="M 310.5 49.5 L 310.5 42.75 L 303.75 42.75 L 303.75 49.5 L 310.5 49.5 Z M 310.5 49.5 " transform="matrix(1,0,0,-1,0,794)"/>
<path style="fill-rule:nonzero;fill:rgb(100%,100%,100%);fill-opacity:1;stroke-width:1.5;stroke-linecap:butt;stroke-linejoin:miter;stroke:rgb(13.730068%,12.159915%,12.54902%);stroke-opacity:1;stroke-miterlimit:4;" d="M 317.25 49.5 L 317.25 42.75 L 310.5 42.75 L 310.5 49.5 L 317.25 49.5 Z M 317.25 49.5 " transform="matrix(1,0,0,-1,0,794)"/>
<path style="fill-rule:nonzero;fill:rgb(100%,100%,100%);fill-opacity:1;stroke-width:1.5;stroke-linecap:butt;stroke-linejoin:miter;stroke:rgb(13.730068%,12.159915%,12.54902%);stroke-opacity:1;stroke-miterlimit:4;" d="M 324 49.5 L 324 42.75 L 317.25 42.75 L 317.25 49.5 L 324 49.5 Z M 324 49.5 " transform="matrix(1,0,0,-1,0,794)"/>
<path style="fill-rule:nonzero;fill:rgb(100%,100%,100%);fill-opacity:1;stroke-width:1.5;stroke-linecap:butt;stroke-linejoin:miter;stroke:rgb(13.730068%,12.159915%,12.54902%);stroke-opacity:1;stroke-miterlimit:4;" d="M 330.75 49.5 L 330.75 42.75 L 324 42.75 L 324 49.5 L 330.75 49.5 Z M 330.75 49.5 " transform="matrix(1,0,0,-1,0,794)"/>

</svg>