<svg xmlns="http://www.w3.org/2000/svg" xmlns:xlink="http://www.w3.org/1999/xlink" width="612pt" height="792pt" viewBox="0 0 612 792" version="1.1">

<!-- Marine Barracks (12) -->
<path style="fill-rule:nonzero;fill:rgb(100%,100%,100%);fill-opacity:1;stroke-width:0.75;stroke-linecap:butt;stroke-linejoin:miter;stroke:rgb(13.730068%,12.159915%,12.54902%);stroke-opacity:1;stroke-miterlimit:4;" d="M 292.605469 441 L 292.605469 482.207031 L 301.605469 482.207031 L 301.605469 484.457031 L 303.855469 484.457031 L 303.855469 482.207031 L 306.105469 482.207031 L 306.105469 484.457031 L 308.355469 484.457031 L 308.355469 482.207031 L 310.605469 482.207031 L 310.605469 484.457031 L 312.855469 484.457031 L 312.855469 482.207031 L 315.105469 482.207031 L 315.105469 484.457031 L 317.355469 484.457031 L 317.355469 482.207031 L 326.355469 482.207031 L 326.355469 441 L 317.355469 441 L 317.355469 438.75 L 315.105469 438.75 L 315.105469 441 L 312.855469 441 L 312.855469 438.75 L 310.605469 438.75 L 310.605469 441 L 308.355469 441 L 308.355469 438.75 L 306.105469 438.75 L 306.105469 441 L 303.855469 441 L 303.855469 438.75 L 301.605469 438.75 L 301.605469 441 L 292.605469 441 Z M 292.605469 441 " transform="matrix(1,0,0,-1,0,793)"/>

<!-- Damage Boxes -->
<path style="fill-rule:nonzero;fill:rgb(100%,100%,100%);fill-opacity:1;stroke-width:1.5;stroke-linecap:butt;stroke-linejoin:miter;stroke:rgb(13.730068%,12.159915%,12.54902%);stroke-opacity:1;stroke-miterlimit:4;" d="M 306.105469 468 L 306.105469 474.75 L 299.355469 474.75 L 299.355469 468 L 306.105469 468 Z M 306.105469 468 " transform="matrix(1,0,0,-1,0,793)"/>
<path style="fill-rule:nonzero;fill:rgb(100%,100%,100%);fill-opacity:1;stroke-width:1.5;stroke-linecap:butt;stroke-linejoin:miter;stroke:rgb(13.730068%,12.159915%,12.54902%);stroke-opacity:1;stroke-miterlimit:4;" d="M 312.855469 468 L 312.855469 474.75 L 306.105469 474.75 L 306.105469 468 L 312.855469 468 Z M 312.855469 468 " transform="matrix(1,0,0,-1,0,793)"/>
<path style="fill-rule:nonzero;fill:rgb(100%,100%,100%);fill-opacity:1;stroke-width:1.5;stroke-linecap:butt;stroke-linejoin:miter;stroke:rgb(13.730068%,12.159915%,12.54902%);stroke-opacity:1;stroke-miterlimit:4;" d="M 319.605469 468 L 319.605469 474.75 L 312.855469 474.75 L 312.855469 468 L 319.605469 468 Z M 319.605469 468 " transform="matrix(1,0,0,-1,0,793)"/>
<path style="fill-rule:nonzero;fill:rgb(100%,100%,100%);fill-opacity:1;stroke-width:1.5;stroke-linecap:butt;stroke-linejoin:miter;stroke:rgb(13.730068%,12.159915%,12.54902%);stroke-opacity:1;stroke-miterlimit:4;" d="M 306.105469 461.25 L 306.105469 468 L 299.355469 468 L 299.355469 461.25 L 306.105469 461.25 Z M 306.105469 461.25 " transform="matrix(1,0,0,-1,0,793)"/>
<path style="fill-rule:nonzero;fill:rgb(100%,100%,100%);fill-opacity:1;stroke-width:1.5;stroke-linecap:butt;stroke-linejoin:miter;stroke:rgb(13.730068%,12.159915%,12.54902%);stroke-opacity:1;stroke-miterlimit:4;" d="M 312.855469 461.25 L 312.855469 468 L 306.105469 468 L 306.105469 461.25 L 312.855469 461.25 Z M 312.855469 461.25 " transform="matrix(1,0,0,-1,0,793)"/>
<path style="fill-rule:nonzero;fill:rgb(100%,100%,100%);fill-opacity:1;stroke-width:1.5;stroke-linecap:butt;stroke-linejoin:miter;stroke:rgb(13.730068%,12.159915%,12.54902%);stroke-opacity:1;stroke-miterlimit:4;" d="M 319.605469 461.25 L 319.605469 468 L 312.855469 468 L 312.855469 461.25 L 319.605469 461.25 Z M 319.605469 461.25 " transform="matrix(1,0,0,-1,0,793)"/>
<path style="fill-rule:nonzero;fill:rgb(100%,100%,100%);fill-opacity:1;stroke-width:1.5;stroke-linecap:butt;stroke-linejoin:miter;stroke:rgb(13.730068%,12.159915%,12.54902%);stroke-opacity:1;stroke-miterlimit:4;" d="M 306.105469 454.5 L 306.105469 461.25 L 299.355469 461.25 L 299.355469 454.5 L 306.105469 454.5 Z M 306.105469 454.5 " transform="matrix(1,0,0,-1,0,793)"/>
<path style="fill-rule:nonzero;fill:rgb(100%,100%,100%);fill-opacity:1;stroke-width:1.5;stroke-linecap:butt;stroke-linejoin:miter;stroke:rgb(13.730068%,12.159915%,12.54902%);stroke-opacity:1;stroke-miterlimit:4;" d="M 312.855469 454.5 L 312.855469 461.25 L 306.105469 461.25 L 306.105469 454.5 L 312.855469 454.5 Z M 312.855469 454.5 " transform="matrix(1,0,0,-1,0,793)"/>
<path style="fill-rule:nonzero;fill:rgb(100%,100%,100%);fill-opacity:1;stroke-width:1.5;stroke-linecap:butt;stroke-linejoin:miter;stroke:rgb(13.730068%,12.159915%,12.54902%);stroke-opacity:1;stroke-miterlimit:4;" d="M 319.605469 454.5 L 319.605469 461.25 L 312.855469 461.25 L 312.855469 454.5 L 319.605469 454.5 Z M 319.605469 454.5 " transform="matrix(1,0,0,-1,0,793)"/>
<path style="fill-rule:nonzero;fill:rgb(100%,100%,100%);fill-opacity:1;stroke-width:1.5;stroke-linecap:butt;stroke-linejoin:miter;stroke:rgb(13.730068%,12.159915%,12.54902%);stroke-opacity:1;stroke-miterlimit:4;" d="M 306.105469 447.75 L 306.105469 454.5 L 299.355469 454.5 L 299.355469 447.75 L 306.105469 447.75 Z M 306.105469 447.75 " transform="matrix(1,0,0,-1,0,793)"/>
<path style="fill-rule:nonzero;fill:rgb(100%,100%,100%);fill-opacity:1;stroke-width:1.5;stroke-linecap:butt;stroke-linejoin:miter;stroke:rgb(13.730068%,12.159915%,12.54902%);stroke-opacity:1;stroke-miterlimit:4;" d="M 312.855469 447.75 L 312.855469 454.5 L 306.105469 454.5 L 306.105469 447.75 L 312.855469 447.75 Z M 312.855469 447.75 " transform="matrix(1,0,0,-1,0,793)"/>
<path style="fill-rule:nonzero;fill:rgb(100%,100%,100%);fill-opacity:1;stroke-width:1.5;stroke-linecap:butt;stroke-linejoin:miter;stroke:rgb(13.730068%,12.159915%,12.54902%);stroke-opacity:1;stroke-miterlimit:4;" d="M 319.605469 447.75 L 319.605469 454.5 L 312.855469 454.5 L 312.855469 447.75 L 319.605469 447.75 Z M 319.605469 447.75 " transform="matrix(1,0,0,-1,0,793)"/>

</svg>