<svg xmlns="http://www.w3.org/2000/svg" xmlns:xlink="http://www.w3.org/1999/xlink" width="612pt" height="792pt" viewBox="0 0 612 792" version="1.1">

<!-- Mass Driver -->
<path style="fill-rule:nonzero;fill:rgb(100%,100%,100%);fill-opacity:1;stroke-width:0.75;stroke-linecap:butt;stroke-linejoin:miter;stroke:rgb(13.730068%,12.159915%,12.54902%);stroke-opacity:1;stroke-miterlimit:4;" d="M 250.957031 470.207031 L 250.957031 503.957031 L 255.457031 503.957031 L 255.457031 544.457031 L 257.707031 544.457031 C 257.707031 544.457031 259.957031 535.457031 268.957031 535.457031 C 277.957031 535.457031 280.207031 544.457031 280.207031 544.457031 L 282.457031 544.457031 L 282.457031 503.957031 L 286.957031 503.957031 L 286.957031 470.207031 L 250.957031 470.207031 Z M 250.957031 470.207031 " transform="matrix(1,0,0,-1,0,793)"/>
<path style="fill:none;stroke-width:0.75;stroke-linecap:butt;stroke-linejoin:miter;stroke:rgb(13.730068%,12.159915%,12.54902%);stroke-opacity:1;stroke-miterlimit:4;" d="M 280.207031 544.457031 C 280.207031 544.457031 280.207031 530.957031 268.957031 530.957031 C 257.707031 530.957031 257.707031 544.457031 257.707031 544.457031 C 257.707031 544.457031 257.707031 526.457031 268.957031 526.457031 C 280.207031 526.457031 280.207031 544.457031 280.207031 544.457031 Z M 280.207031 544.457031 " transform="matrix(1,0,0,-1,0,793)"/>
<path style="fill:none;stroke-width:0.75;stroke-linecap:butt;stroke-linejoin:miter;stroke:rgb(13.730068%,12.159915%,12.54902%);stroke-opacity:1;stroke-miterlimit:4;" d="M 257.707031 544.457031 C 257.707031 544.457031 257.707031 521.957031 268.957031 521.957031 C 280.207031 521.957031 280.207031 544.457031 280.207031 544.457031 " transform="matrix(1,0,0,-1,0,793)"/>

<!-- Damage Boxes -->
<path style="fill-rule:nonzero;fill:rgb(100%,100%,100%);fill-opacity:1;stroke-width:1.5;stroke-linecap:butt;stroke-linejoin:miter;stroke:rgb(13.730068%,12.159915%,12.54902%);stroke-opacity:1;stroke-miterlimit:4;" d="M 268.957031 508.457031 L 268.957031 515.207031 L 262.207031 515.207031 L 262.207031 508.457031 L 268.957031 508.457031 Z M 268.957031 508.457031 " transform="matrix(1,0,0,-1,0,793)"/>
<path style="fill-rule:nonzero;fill:rgb(100%,100%,100%);fill-opacity:1;stroke-width:1.5;stroke-linecap:butt;stroke-linejoin:miter;stroke:rgb(13.730068%,12.159915%,12.54902%);stroke-opacity:1;stroke-miterlimit:4;" d="M 275.707031 508.457031 L 275.707031 515.207031 L 268.957031 515.207031 L 268.957031 508.457031 L 275.707031 508.457031 Z M 275.707031 508.457031 " transform="matrix(1,0,0,-1,0,793)"/>
<path style="fill-rule:nonzero;fill:rgb(100%,100%,100%);fill-opacity:1;stroke-width:1.5;stroke-linecap:butt;stroke-linejoin:miter;stroke:rgb(13.730068%,12.159915%,12.54902%);stroke-opacity:1;stroke-miterlimit:4;" d="M 268.957031 501.707031 L 268.957031 508.457031 L 262.207031 508.457031 L 262.207031 501.707031 L 268.957031 501.707031 Z M 268.957031 501.707031 " transform="matrix(1,0,0,-1,0,793)"/>
<path style="fill-rule:nonzero;fill:rgb(100%,100%,100%);fill-opacity:1;stroke-width:1.5;stroke-linecap:butt;stroke-linejoin:miter;stroke:rgb(13.730068%,12.159915%,12.54902%);stroke-opacity:1;stroke-miterlimit:4;" d="M 275.707031 501.707031 L 275.707031 508.457031 L 268.957031 508.457031 L 268.957031 501.707031 L 275.707031 501.707031 Z M 275.707031 501.707031 " transform="matrix(1,0,0,-1,0,793)"/>
<path style="fill-rule:nonzero;fill:rgb(100%,100%,100%);fill-opacity:1;stroke-width:1.5;stroke-linecap:butt;stroke-linejoin:miter;stroke:rgb(13.730068%,12.159915%,12.54902%);stroke-opacity:1;stroke-miterlimit:4;" d="M 268.957031 494.957031 L 268.957031 501.707031 L 262.207031 501.707031 L 262.207031 494.957031 L 268.957031 494.957031 Z M 268.957031 494.957031 " transform="matrix(1,0,0,-1,0,793)"/>
<path style="fill-rule:nonzero;fill:rgb(100%,100%,100%);fill-opacity:1;stroke-width:1.5;stroke-linecap:butt;stroke-linejoin:miter;stroke:rgb(13.730068%,12.159915%,12.54902%);stroke-opacity:1;stroke-miterlimit:4;" d="M 275.707031 494.957031 L 275.707031 501.707031 L 268.957031 501.707031 L 268.957031 494.957031 L 275.707031 494.957031 Z M 275.707031 494.957031 " transform="matrix(1,0,0,-1,0,793)"/>
<path style="fill-rule:nonzero;fill:rgb(100%,100%,100%);fill-opacity:1;stroke-width:1.5;stroke-linecap:butt;stroke-linejoin:miter;stroke:rgb(13.730068%,12.159915%,12.54902%);stroke-opacity:1;stroke-miterlimit:4;" d="M 262.207031 488.207031 L 262.207031 494.957031 L 255.457031 494.957031 L 255.457031 488.207031 L 262.207031 488.207031 Z M 262.207031 488.207031 " transform="matrix(1,0,0,-1,0,793)"/>
<path style="fill-rule:nonzero;fill:rgb(100%,100%,100%);fill-opacity:1;stroke-width:1.5;stroke-linecap:butt;stroke-linejoin:miter;stroke:rgb(13.730068%,12.159915%,12.54902%);stroke-opacity:1;stroke-miterlimit:4;" d="M 268.957031 488.207031 L 268.957031 494.957031 L 262.207031 494.957031 L 262.207031 488.207031 L 268.957031 488.207031 Z M 268.957031 488.207031 " transform="matrix(1,0,0,-1,0,793)"/>
<path style="fill-rule:nonzero;fill:rgb(100%,100%,100%);fill-opacity:1;stroke-width:1.5;stroke-linecap:butt;stroke-linejoin:miter;stroke:rgb(13.730068%,12.159915%,12.54902%);stroke-opacity:1;stroke-miterlimit:4;" d="M 275.707031 488.207031 L 275.707031 494.957031 L 268.957031 494.957031 L 268.957031 488.207031 L 275.707031 488.207031 Z M 275.707031 488.207031 " transform="matrix(1,0,0,-1,0,793)"/>
<path style="fill-rule:nonzero;fill:rgb(100%,100%,100%);fill-opacity:1;stroke-width:1.5;stroke-linecap:butt;stroke-linejoin:miter;stroke:rgb(13.730068%,12.159915%,12.54902%);stroke-opacity:1;stroke-miterlimit:4;" d="M 282.457031 488.207031 L 282.457031 494.957031 L 275.707031 494.957031 L 275.707031 488.207031 L 282.457031 488.207031 Z M 282.457031 488.207031 " transform="matrix(1,0,0,-1,0,793)"/>
<path style="fill-rule:nonzero;fill:rgb(100%,100%,100%);fill-opacity:1;stroke-width:1.5;stroke-linecap:butt;stroke-linejoin:miter;stroke:rgb(13.730068%,12.159915%,12.54902%);stroke-opacity:1;stroke-miterlimit:4;" d="M 262.207031 481.457031 L 262.207031 488.207031 L 255.457031 488.207031 L 255.457031 481.457031 L 262.207031 481.457031 Z M 262.207031 481.457031 " transform="matrix(1,0,0,-1,0,793)"/>
<path style="fill-rule:nonzero;fill:rgb(100%,100%,100%);fill-opacity:1;stroke-width:1.5;stroke-linecap:butt;stroke-linejoin:miter;stroke:rgb(13.730068%,12.159915%,12.54902%);stroke-opacity:1;stroke-miterlimit:4;" d="M 268.957031 481.457031 L 268.957031 488.207031 L 262.207031 488.207031 L 262.207031 481.457031 L 268.957031 481.457031 Z M 268.957031 481.457031 " transform="matrix(1,0,0,-1,0,793)"/>
<path style="fill-rule:nonzero;fill:rgb(100%,100%,100%);fill-opacity:1;stroke-width:1.5;stroke-linecap:butt;stroke-linejoin:miter;stroke:rgb(13.730068%,12.159915%,12.54902%);stroke-opacity:1;stroke-miterlimit:4;" d="M 275.707031 481.457031 L 275.707031 488.207031 L 268.957031 488.207031 L 268.957031 481.457031 L 275.707031 481.457031 Z M 275.707031 481.457031 " transform="matrix(1,0,0,-1,0,793)"/>
<path style="fill-rule:nonzero;fill:rgb(100%,100%,100%);fill-opacity:1;stroke-width:1.5;stroke-linecap:butt;stroke-linejoin:miter;stroke:rgb(13.730068%,12.159915%,12.54902%);stroke-opacity:1;stroke-miterlimit:4;" d="M 282.457031 481.457031 L 282.457031 488.207031 L 275.707031 488.207031 L 275.707031 481.457031 L 282.457031 481.457031 Z M 282.457031 481.457031 " transform="matrix(1,0,0,-1,0,793)"/>
<path style="fill-rule:nonzero;fill:rgb(100%,100%,100%);fill-opacity:1;stroke-width:1.5;stroke-linecap:butt;stroke-linejoin:miter;stroke:rgb(13.730068%,12.159915%,12.54902%);stroke-opacity:1;stroke-miterlimit:4;" d="M 262.207031 474.707031 L 262.207031 481.457031 L 255.457031 481.457031 L 255.457031 474.707031 L 262.207031 474.707031 Z M 262.207031 474.707031 " transform="matrix(1,0,0,-1,0,793)"/>
<path style="fill-rule:nonzero;fill:rgb(100%,100%,100%);fill-opacity:1;stroke-width:1.5;stroke-linecap:butt;stroke-linejoin:miter;stroke:rgb(13.730068%,12.159915%,12.54902%);stroke-opacity:1;stroke-miterlimit:4;" d="M 268.957031 474.707031 L 268.957031 481.457031 L 262.207031 481.457031 L 262.207031 474.707031 L 268.957031 474.707031 Z M 268.957031 474.707031 " transform="matrix(1,0,0,-1,0,793)"/>
<path style="fill-rule:nonzero;fill:rgb(100%,100%,100%);fill-opacity:1;stroke-width:1.5;stroke-linecap:butt;stroke-linejoin:miter;stroke:rgb(13.730068%,12.159915%,12.54902%);stroke-opacity:1;stroke-miterlimit:4;" d="M 275.707031 474.707031 L 275.707031 481.457031 L 268.957031 481.457031 L 268.957031 474.707031 L 275.707031 474.707031 Z M 275.707031 474.707031 " transform="matrix(1,0,0,-1,0,793)"/>
<path style="fill-rule:nonzero;fill:rgb(100%,100%,100%);fill-opacity:1;stroke-width:1.5;stroke-linecap:butt;stroke-linejoin:miter;stroke:rgb(13.730068%,12.159915%,12.54902%);stroke-opacity:1;stroke-miterlimit:4;" d="M 282.457031 474.707031 L 282.457031 481.457031 L 275.707031 481.457031 L 275.707031 474.707031 L 282.457031 474.707031 Z M 282.457031 474.707031 " transform="matrix(1,0,0,-1,0,793)"/>

</svg>