<svg xmlns="http://www.w3.org/2000/svg" xmlns:xlink="http://www.w3.org/1999/xlink" width="612pt" height="792pt" viewBox="0 0 612 792" version="1.1">

<!-- Matter Accelerator -->
<path style="fill-rule:nonzero;fill:rgb(100%,100%,100%);fill-opacity:1;stroke-width:0.75;stroke-linecap:butt;stroke-linejoin:miter;stroke:rgb(13.730068%,12.159915%,12.54902%);stroke-opacity:1;stroke-miterlimit:4;" d="M 338.894531 476.351562 L 338.894531 504.226562 L 344.644531 514.226562 L 344.644531 525.601562 L 346.539062 520.789062 L 346.539062 514.144531 L 347.976562 514.144531 L 347.976562 531.601562 L 350.144531 536.601562 L 350.144531 514.226562 L 354.894531 514.226562 L 354.894531 536.601562 L 357.289062 531.644531 L 357.289062 514.144531 L 358.789062 514.164062 L 358.789062 520.601562 L 360.832031 525.726562 L 360.832031 514.351562 L 366.582031 504.351562 L 366.582031 476.476562 L 338.894531 476.351562 Z M 338.894531 476.351562 " transform="matrix(1,0,0,-1,0,792)"/>

<!-- Damage Boxes -->
<path style="fill-rule:nonzero;fill:rgb(100%,100%,100%);fill-opacity:1;stroke-width:1.5;stroke-linecap:butt;stroke-linejoin:miter;stroke:rgb(13.730068%,12.159915%,12.54902%);stroke-opacity:1;stroke-miterlimit:4;" d="M 356.25 505.25 L 356.25 512 L 349.5 512 L 349.5 505.25 L 356.25 505.25 Z M 356.25 505.25 " transform="matrix(1,0,0,-1,0,792)"/>
<path style="fill-rule:nonzero;fill:rgb(100%,100%,100%);fill-opacity:1;stroke-width:1.5;stroke-linecap:butt;stroke-linejoin:miter;stroke:rgb(13.730068%,12.159915%,12.54902%);stroke-opacity:1;stroke-miterlimit:4;" d="M 349.5 498.5 L 349.5 505.25 L 342.75 505.25 L 342.75 498.5 L 349.5 498.5 Z M 349.5 498.5 " transform="matrix(1,0,0,-1,0,792)"/>
<path style="fill-rule:nonzero;fill:rgb(100%,100%,100%);fill-opacity:1;stroke-width:1.5;stroke-linecap:butt;stroke-linejoin:miter;stroke:rgb(13.730068%,12.159915%,12.54902%);stroke-opacity:1;stroke-miterlimit:4;" d="M 356.25 498.5 L 356.25 505.25 L 349.5 505.25 L 349.5 498.5 L 356.25 498.5 Z M 356.25 498.5 " transform="matrix(1,0,0,-1,0,792)"/>
<path style="fill-rule:nonzero;fill:rgb(100%,100%,100%);fill-opacity:1;stroke-width:1.5;stroke-linecap:butt;stroke-linejoin:miter;stroke:rgb(13.730068%,12.159915%,12.54902%);stroke-opacity:1;stroke-miterlimit:4;" d="M 363 498.5 L 363 505.25 L 356.25 505.25 L 356.25 498.5 L 363 498.5 Z M 363 498.5 " transform="matrix(1,0,0,-1,0,792)"/>
<path style="fill-rule:nonzero;fill:rgb(100%,100%,100%);fill-opacity:1;stroke-width:1.5;stroke-linecap:butt;stroke-linejoin:miter;stroke:rgb(13.730068%,12.159915%,12.54902%);stroke-opacity:1;stroke-miterlimit:4;" d="M 349.5 491.75 L 349.5 498.5 L 342.75 498.5 L 342.75 491.75 L 349.5 491.75 Z M 349.5 491.75 " transform="matrix(1,0,0,-1,0,792)"/>
<path style="fill-rule:nonzero;fill:rgb(100%,100%,100%);fill-opacity:1;stroke-width:1.5;stroke-linecap:butt;stroke-linejoin:miter;stroke:rgb(13.730068%,12.159915%,12.54902%);stroke-opacity:1;stroke-miterlimit:4;" d="M 356.25 491.75 L 356.25 498.5 L 349.5 498.5 L 349.5 491.75 L 356.25 491.75 Z M 356.25 491.75 " transform="matrix(1,0,0,-1,0,792)"/>
<path style="fill-rule:nonzero;fill:rgb(100%,100%,100%);fill-opacity:1;stroke-width:1.5;stroke-linecap:butt;stroke-linejoin:miter;stroke:rgb(13.730068%,12.159915%,12.54902%);stroke-opacity:1;stroke-miterlimit:4;" d="M 363 491.75 L 363 498.5 L 356.25 498.5 L 356.25 491.75 L 363 491.75 Z M 363 491.75 " transform="matrix(1,0,0,-1,0,792)"/>
<path style="fill-rule:nonzero;fill:rgb(100%,100%,100%);fill-opacity:1;stroke-width:1.5;stroke-linecap:butt;stroke-linejoin:miter;stroke:rgb(13.730068%,12.159915%,12.54902%);stroke-opacity:1;stroke-miterlimit:4;" d="M 349.5 485 L 349.5 491.75 L 342.75 491.75 L 342.75 485 L 349.5 485 Z M 349.5 485 " transform="matrix(1,0,0,-1,0,792)"/>
<path style="fill-rule:nonzero;fill:rgb(100%,100%,100%);fill-opacity:1;stroke-width:1.5;stroke-linecap:butt;stroke-linejoin:miter;stroke:rgb(13.730068%,12.159915%,12.54902%);stroke-opacity:1;stroke-miterlimit:4;" d="M 356.25 485 L 356.25 491.75 L 349.5 491.75 L 349.5 485 L 356.25 485 Z M 356.25 485 " transform="matrix(1,0,0,-1,0,792)"/>
<path style="fill-rule:nonzero;fill:rgb(100%,100%,100%);fill-opacity:1;stroke-width:1.5;stroke-linecap:butt;stroke-linejoin:miter;stroke:rgb(13.730068%,12.159915%,12.54902%);stroke-opacity:1;stroke-miterlimit:4;" d="M 363 485 L 363 491.75 L 356.25 491.75 L 356.25 485 L 363 485 Z M 363 485 " transform="matrix(1,0,0,-1,0,792)"/>
<path style="fill-rule:nonzero;fill:rgb(100%,100%,100%);fill-opacity:1;stroke-width:1.5;stroke-linecap:butt;stroke-linejoin:miter;stroke:rgb(13.730068%,12.159915%,12.54902%);stroke-opacity:1;stroke-miterlimit:4;" d="M 349.5 478.25 L 349.5 485 L 342.75 485 L 342.75 478.25 L 349.5 478.25 Z M 349.5 478.25 " transform="matrix(1,0,0,-1,0,792)"/>
<path style="fill-rule:nonzero;fill:rgb(100%,100%,100%);fill-opacity:1;stroke-width:1.5;stroke-linecap:butt;stroke-linejoin:miter;stroke:rgb(13.730068%,12.159915%,12.54902%);stroke-opacity:1;stroke-miterlimit:4;" d="M 356.25 478.25 L 356.25 485 L 349.5 485 L 349.5 478.25 L 356.25 478.25 Z M 356.25 478.25 " transform="matrix(1,0,0,-1,0,792)"/>
<path style="fill-rule:nonzero;fill:rgb(100%,100%,100%);fill-opacity:1;stroke-width:1.5;stroke-linecap:butt;stroke-linejoin:miter;stroke:rgb(13.730068%,12.159915%,12.54902%);stroke-opacity:1;stroke-miterlimit:4;" d="M 363 478.25 L 363 485 L 356.25 485 L 356.25 478.25 L 363 478.25 Z M 363 478.25 " transform="matrix(1,0,0,-1,0,792)"/>

</svg>