<svg xmlns="http://www.w3.org/2000/svg" xmlns:xlink="http://www.w3.org/1999/xlink" width="612pt" height="792pt" viewBox="0 0 612 792" version="1.1">

<!-- Medium Phasing Pulse Cannon -->
<path style="fill-rule:nonzero;fill:rgb(100%,100%,100%);fill-opacity:1;stroke-width:0.75;stroke-linecap:butt;stroke-linejoin:miter;stroke:rgb(13.730068%,12.159915%,12.54902%);stroke-opacity:1;stroke-miterlimit:4;" d="M 353.25 471.792969 L 369 471.792969 L 369 501.042969 L 360 501.042969 L 355.5 508.5 L 360 506.25 L 355.5 515.25 L 360 513 L 353.25 526.5 L 346.5 513 L 351 515.25 L 346.5 506.25 L 351 508.5 L 346.5 501.042969 L 337.5 501.042969 L 337.5 471.792969 L 353.25 471.792969 Z M 353.25 471.792969 " transform="matrix(1,0,0,-1,0,793)"/>

<!-- Damage Boxes -->
<path style="fill-rule:nonzero;fill:rgb(100%,100%,100%);fill-opacity:1;stroke-width:1.5;stroke-linecap:butt;stroke-linejoin:miter;stroke:rgb(13.730068%,12.159915%,12.54902%);stroke-opacity:1;stroke-miterlimit:4;" d="M 356.625 489.792969 L 356.625 496.542969 L 349.875 496.542969 L 349.875 489.792969 L 356.625 489.792969 Z M 356.625 489.792969 " transform="matrix(1,0,0,-1,0,793)"/>
<path style="fill-rule:nonzero;fill:rgb(100%,100%,100%);fill-opacity:1;stroke-width:1.5;stroke-linecap:butt;stroke-linejoin:miter;stroke:rgb(13.730068%,12.159915%,12.54902%);stroke-opacity:1;stroke-miterlimit:4;" d="M 349.875 483.042969 L 349.875 489.792969 L 343.125 489.792969 L 343.125 483.042969 L 349.875 483.042969 Z M 349.875 483.042969 " transform="matrix(1,0,0,-1,0,793)"/>
<path style="fill-rule:nonzero;fill:rgb(100%,100%,100%);fill-opacity:1;stroke-width:1.5;stroke-linecap:butt;stroke-linejoin:miter;stroke:rgb(13.730068%,12.159915%,12.54902%);stroke-opacity:1;stroke-miterlimit:4;" d="M 356.625 483.042969 L 356.625 489.792969 L 349.875 489.792969 L 349.875 483.042969 L 356.625 483.042969 Z M 356.625 483.042969 " transform="matrix(1,0,0,-1,0,793)"/>
<path style="fill-rule:nonzero;fill:rgb(100%,100%,100%);fill-opacity:1;stroke-width:1.5;stroke-linecap:butt;stroke-linejoin:miter;stroke:rgb(13.730068%,12.159915%,12.54902%);stroke-opacity:1;stroke-miterlimit:4;" d="M 363.375 483.042969 L 363.375 489.792969 L 356.625 489.792969 L 356.625 483.042969 L 363.375 483.042969 Z M 363.375 483.042969 " transform="matrix(1,0,0,-1,0,793)"/>
<path style="fill-rule:nonzero;fill:rgb(100%,100%,100%);fill-opacity:1;stroke-width:1.5;stroke-linecap:butt;stroke-linejoin:miter;stroke:rgb(13.730068%,12.159915%,12.54902%);stroke-opacity:1;stroke-miterlimit:4;" d="M 349.875 476.292969 L 349.875 483.042969 L 343.125 483.042969 L 343.125 476.292969 L 349.875 476.292969 Z M 349.875 476.292969 " transform="matrix(1,0,0,-1,0,793)"/>
<path style="fill-rule:nonzero;fill:rgb(100%,100%,100%);fill-opacity:1;stroke-width:1.5;stroke-linecap:butt;stroke-linejoin:miter;stroke:rgb(13.730068%,12.159915%,12.54902%);stroke-opacity:1;stroke-miterlimit:4;" d="M 356.625 476.292969 L 356.625 483.042969 L 349.875 483.042969 L 349.875 476.292969 L 356.625 476.292969 Z M 356.625 476.292969 " transform="matrix(1,0,0,-1,0,793)"/>
<path style="fill-rule:nonzero;fill:rgb(100%,100%,100%);fill-opacity:1;stroke-width:1.5;stroke-linecap:butt;stroke-linejoin:miter;stroke:rgb(13.730068%,12.159915%,12.54902%);stroke-opacity:1;stroke-miterlimit:4;" d="M 363.375 476.292969 L 363.375 483.042969 L 356.625 483.042969 L 356.625 476.292969 L 363.375 476.292969 Z M 363.375 476.292969 " transform="matrix(1,0,0,-1,0,793)"/>

</svg>