<svg xmlns="http://www.w3.org/2000/svg" xmlns:xlink="http://www.w3.org/1999/xlink" width="612pt" height="792pt" viewBox="0 0 612 792" version="1.1">

<!-- Medium Power Laser -->
<path style="fill-rule:nonzero;fill:rgb(100%,100%,100%);fill-opacity:1;stroke-width:0.75;stroke-linecap:butt;stroke-linejoin:miter;stroke:rgb(13.730068%,12.159915%,12.54902%);stroke-opacity:1;stroke-miterlimit:4;" d="M 300.695312 537.960938 L 300.695312 535.710938 L 305.195312 535.710938 L 305.195312 533.460938 L 300.695312 533.460938 L 300.695312 531.210938 L 305.195312 531.210938 L 305.195312 528.960938 L 298.445312 528.960938 L 298.425781 500.523438 L 327.675781 500.523438 L 327.695312 528.960938 L 320.945312 528.960938 L 320.945312 531.210938 L 325.445312 531.210938 L 325.445312 533.460938 L 320.945312 533.460938 L 320.945312 535.710938 L 325.445312 535.710938 L 325.445312 537.960938 L 317.695312 537.960938 L 317.695312 528.960938 L 315.195312 528.960938 L 315.195312 539.085938 L 312.945312 545.398438 L 310.695312 539.023438 L 310.695312 528.960938 L 308.445312 528.960938 L 308.445312 537.960938 L 300.695312 537.960938 Z M 300.695312 537.960938 " transform="matrix(1,0,0,-1,0,793)"/>

<!-- Damage Boxes -->
<path style="fill-rule:nonzero;fill:rgb(100%,100%,100%);fill-opacity:1;stroke-width:1.5;stroke-linecap:butt;stroke-linejoin:miter;stroke:rgb(13.730068%,12.159915%,12.54902%);stroke-opacity:1;stroke-miterlimit:4;" d="M 309.84375 517.648438 L 309.84375 524.398438 L 303.09375 524.398438 L 303.09375 517.648438 L 309.84375 517.648438 Z M 309.84375 517.648438 " transform="matrix(1,0,0,-1,0,793)"/>
<path style="fill-rule:nonzero;fill:rgb(100%,100%,100%);fill-opacity:1;stroke-width:1.5;stroke-linecap:butt;stroke-linejoin:miter;stroke:rgb(13.730068%,12.159915%,12.54902%);stroke-opacity:1;stroke-miterlimit:4;" d="M 316.59375 517.648438 L 316.59375 524.398438 L 309.84375 524.398438 L 309.84375 517.648438 L 316.59375 517.648438 Z M 316.59375 517.648438 " transform="matrix(1,0,0,-1,0,793)"/>
<path style="fill-rule:nonzero;fill:rgb(100%,100%,100%);fill-opacity:1;stroke-width:1.5;stroke-linecap:butt;stroke-linejoin:miter;stroke:rgb(13.730068%,12.159915%,12.54902%);stroke-opacity:1;stroke-miterlimit:4;" d="M 323.34375 517.648438 L 323.34375 524.398438 L 316.59375 524.398438 L 316.59375 517.648438 L 323.34375 517.648438 Z M 323.34375 517.648438 " transform="matrix(1,0,0,-1,0,793)"/>
<path style="fill-rule:nonzero;fill:rgb(100%,100%,100%);fill-opacity:1;stroke-width:1.5;stroke-linecap:butt;stroke-linejoin:miter;stroke:rgb(13.730068%,12.159915%,12.54902%);stroke-opacity:1;stroke-miterlimit:4;" d="M 303.09375 517.648438 L 303.09375 510.898438 " transform="matrix(1,0,0,-1,0,793)"/>
<path style="fill-rule:nonzero;fill:rgb(100%,100%,100%);fill-opacity:1;stroke-width:1.5;stroke-linecap:butt;stroke-linejoin:miter;stroke:rgb(13.730068%,12.159915%,12.54902%);stroke-opacity:1;stroke-miterlimit:4;" d="M 316.59375 510.898438 L 316.59375 517.648438 L 309.84375 517.648438 L 309.84375 510.898438 L 316.59375 510.898438 Z M 316.59375 510.898438 " transform="matrix(1,0,0,-1,0,793)"/>
<path style="fill-rule:nonzero;fill:rgb(100%,100%,100%);fill-opacity:1;stroke-width:1.5;stroke-linecap:butt;stroke-linejoin:miter;stroke:rgb(13.730068%,12.159915%,12.54902%);stroke-opacity:1;stroke-miterlimit:4;" d="M 323.34375 510.898438 L 323.34375 517.648438 L 316.59375 517.648438 L 316.59375 510.898438 L 323.34375 510.898438 Z M 323.34375 510.898438 " transform="matrix(1,0,0,-1,0,793)"/>
<path style="fill-rule:nonzero;fill:rgb(100%,100%,100%);fill-opacity:1;stroke-width:1.5;stroke-linecap:butt;stroke-linejoin:miter;stroke:rgb(13.730068%,12.159915%,12.54902%);stroke-opacity:1;stroke-miterlimit:4;" d="M 309.84375 504.148438 L 309.84375 510.898438 L 303.09375 510.898438 L 303.09375 504.148438 L 309.84375 504.148438 Z M 309.84375 504.148438 " transform="matrix(1,0,0,-1,0,793)"/>
<path style="fill-rule:nonzero;fill:rgb(100%,100%,100%);fill-opacity:1;stroke-width:1.5;stroke-linecap:butt;stroke-linejoin:miter;stroke:rgb(13.730068%,12.159915%,12.54902%);stroke-opacity:1;stroke-miterlimit:4;" d="M 316.59375 504.148438 L 316.59375 510.898438 L 309.84375 510.898438 L 309.84375 504.148438 L 316.59375 504.148438 Z M 316.59375 504.148438 " transform="matrix(1,0,0,-1,0,793)"/>
<path style="fill-rule:nonzero;fill:rgb(100%,100%,100%);fill-opacity:1;stroke-width:1.5;stroke-linecap:butt;stroke-linejoin:miter;stroke:rgb(13.730068%,12.159915%,12.54902%);stroke-opacity:1;stroke-miterlimit:4;" d="M 323.363281 504.148438 L 323.363281 510.898438 L 316.613281 510.898438 L 316.613281 504.148438 L 323.363281 504.148438 Z M 323.363281 504.148438 " transform="matrix(1,0,0,-1,0,793)"/>

</svg>