<svg xmlns="http://www.w3.org/2000/svg" xmlns:xlink="http://www.w3.org/1999/xlink" width="612pt" height="792pt" viewBox="0 0 612 792" version="1.1">

<!-- Medium Burst Beam -->
<path style="fill-rule:nonzero;fill:rgb(100%,100%,100%);fill-opacity:1;stroke-width:0.75;stroke-linecap:butt;stroke-linejoin:miter;stroke:rgb(13.730068%,12.159915%,12.54902%);stroke-opacity:1;stroke-miterlimit:4;" d="M 249.75 549 L 249.75 571.5 L 256.5 578.25 L 256.5 598.5 L 261 594 L 261 591.75 L 263.25 591.75 L 263.25 589.5 L 261 589.5 L 261 587.25 L 263.25 587.25 L 263.25 585 L 261 585 L 261 578.25 L 267.75 578.25 L 267.75 585 L 265.5 585 L 265.5 587.25 L 267.75 587.25 L 267.75 589.5 L 265.5 589.5 L 265.5 591.75 L 267.75 591.75 L 267.75 594 L 272.25 598.5 L 272.25 578.25 L 279 571.5 L 279 549 L 249.75 549 Z M 249.75 549 " transform="matrix(1,0,0,-1,0,793)"/>

<!-- Damage Boxes -->
<path style="fill-rule:nonzero;fill:rgb(100%,100%,100%);fill-opacity:1;stroke-width:1.5;stroke-linecap:butt;stroke-linejoin:miter;stroke:rgb(13.730068%,12.159915%,12.54902%);stroke-opacity:1;stroke-miterlimit:4;" d="M 267.75 567 L 267.75 573.75 L 261 573.75 L 261 567 L 267.75 567 Z M 267.75 567 " transform="matrix(1,0,0,-1,0,793)"/>
<path style="fill-rule:nonzero;fill:rgb(100%,100%,100%);fill-opacity:1;stroke-width:1.5;stroke-linecap:butt;stroke-linejoin:miter;stroke:rgb(13.730068%,12.159915%,12.54902%);stroke-opacity:1;stroke-miterlimit:4;" d="M 261 560.25 L 261 567 L 254.25 567 L 254.25 560.25 L 261 560.25 Z M 261 560.25 " transform="matrix(1,0,0,-1,0,793)"/>
<path style="fill-rule:nonzero;fill:rgb(100%,100%,100%);fill-opacity:1;stroke-width:1.5;stroke-linecap:butt;stroke-linejoin:miter;stroke:rgb(13.730068%,12.159915%,12.54902%);stroke-opacity:1;stroke-miterlimit:4;" d="M 267.75 560.25 L 267.75 567 L 261 567 L 261 560.25 L 267.75 560.25 Z M 267.75 560.25 " transform="matrix(1,0,0,-1,0,793)"/>
<path style="fill-rule:nonzero;fill:rgb(100%,100%,100%);fill-opacity:1;stroke-width:1.5;stroke-linecap:butt;stroke-linejoin:miter;stroke:rgb(13.730068%,12.159915%,12.54902%);stroke-opacity:1;stroke-miterlimit:4;" d="M 274.5 560.25 L 274.5 567 L 267.75 567 L 267.75 560.25 L 274.5 560.25 Z M 274.5 560.25 " transform="matrix(1,0,0,-1,0,793)"/>
<path style="fill-rule:nonzero;fill:rgb(100%,100%,100%);fill-opacity:1;stroke-width:1.5;stroke-linecap:butt;stroke-linejoin:miter;stroke:rgb(13.730068%,12.159915%,12.54902%);stroke-opacity:1;stroke-miterlimit:4;" d="M 261 553.5 L 261 560.25 L 254.25 560.25 L 254.25 553.5 L 261 553.5 Z M 261 553.5 " transform="matrix(1,0,0,-1,0,793)"/>
<path style="fill-rule:nonzero;fill:rgb(100%,100%,100%);fill-opacity:1;stroke-width:1.5;stroke-linecap:butt;stroke-linejoin:miter;stroke:rgb(13.730068%,12.159915%,12.54902%);stroke-opacity:1;stroke-miterlimit:4;" d="M 267.75 553.5 L 267.75 560.25 L 261 560.25 L 261 553.5 L 267.75 553.5 Z M 267.75 553.5 " transform="matrix(1,0,0,-1,0,793)"/>
<path style="fill-rule:nonzero;fill:rgb(100%,100%,100%);fill-opacity:1;stroke-width:1.5;stroke-linecap:butt;stroke-linejoin:miter;stroke:rgb(13.730068%,12.159915%,12.54902%);stroke-opacity:1;stroke-miterlimit:4;" d="M 274.5 553.5 L 274.5 560.25 L 267.75 560.25 L 267.75 553.5 L 274.5 553.5 Z M 274.5 553.5 " transform="matrix(1,0,0,-1,0,793)"/>

</svg>