<svg xmlns="http://www.w3.org/2000/svg" xmlns:xlink="http://www.w3.org/1999/xlink" width="612pt" height="792pt" viewBox="0 0 612 792" version="1.1">

<!-- Medium Laser Cannon -->
<path style="fill-rule:nonzero;fill:rgb(100%,100%,100%);fill-opacity:1;stroke-width:0.75;stroke-linecap:butt;stroke-linejoin:miter;stroke:rgb(13.730068%,12.159915%,12.54902%);stroke-opacity:1;stroke-miterlimit:4;" d="M 279 571.5 L 279 600.75 L 272.25 600.75 L 272.25 605.25 L 276.75 605.25 L 276.75 607.5 L 272.25 607.5 L 272.25 609.75 L 276.75 609.75 L 276.75 612 L 272.25 612 L 267.75 616.5 L 263.25 612 L 258.75 612 L 258.75 609.75 L 263.25 609.75 L 263.25 607.5 L 258.75 607.5 L 258.75 605.25 L 263.25 605.25 L 263.25 600.75 L 256.5 600.75 L 256.5 571.5 L 279 571.5 Z M 279 571.5 " transform="matrix(1,0,0,-1,0,793)"/>

<!-- Damage Boxes -->
<path style="fill-rule:nonzero;fill:rgb(100%,100%,100%);fill-opacity:1;stroke-width:1.5;stroke-linecap:butt;stroke-linejoin:miter;stroke:rgb(13.730068%,12.159915%,12.54902%);stroke-opacity:1;stroke-miterlimit:4;" d="M 267.75 589.5 L 267.75 596.25 L 261 596.25 L 261 589.5 L 267.75 589.5 Z M 267.75 589.5 " transform="matrix(1,0,0,-1,0,793)"/>
<path style="fill-rule:nonzero;fill:rgb(100%,100%,100%);fill-opacity:1;stroke-width:1.5;stroke-linecap:butt;stroke-linejoin:miter;stroke:rgb(13.730068%,12.159915%,12.54902%);stroke-opacity:1;stroke-miterlimit:4;" d="M 274.5 589.5 L 274.5 596.25 L 267.75 596.25 L 267.75 589.5 L 274.5 589.5 Z M 274.5 589.5 " transform="matrix(1,0,0,-1,0,793)"/>
<path style="fill-rule:nonzero;fill:rgb(100%,100%,100%);fill-opacity:1;stroke-width:1.5;stroke-linecap:butt;stroke-linejoin:miter;stroke:rgb(13.730068%,12.159915%,12.54902%);stroke-opacity:1;stroke-miterlimit:4;" d="M 267.75 582.75 L 267.75 589.5 L 261 589.5 L 261 582.75 L 267.75 582.75 Z M 267.75 582.75 " transform="matrix(1,0,0,-1,0,793)"/>
<path style="fill-rule:nonzero;fill:rgb(100%,100%,100%);fill-opacity:1;stroke-width:1.5;stroke-linecap:butt;stroke-linejoin:miter;stroke:rgb(13.730068%,12.159915%,12.54902%);stroke-opacity:1;stroke-miterlimit:4;" d="M 274.5 582.75 L 274.5 589.5 L 267.75 589.5 L 267.75 582.75 L 274.5 582.75 Z M 274.5 582.75 " transform="matrix(1,0,0,-1,0,793)"/>
<path style="fill-rule:nonzero;fill:rgb(100%,100%,100%);fill-opacity:1;stroke-width:1.5;stroke-linecap:butt;stroke-linejoin:miter;stroke:rgb(13.730068%,12.159915%,12.54902%);stroke-opacity:1;stroke-miterlimit:4;" d="M 267.75 576 L 267.75 582.75 L 261 582.75 L 261 576 L 267.75 576 Z M 267.75 576 " transform="matrix(1,0,0,-1,0,793)"/>
<path style="fill-rule:nonzero;fill:rgb(100%,100%,100%);fill-opacity:1;stroke-width:1.5;stroke-linecap:butt;stroke-linejoin:miter;stroke:rgb(13.730068%,12.159915%,12.54902%);stroke-opacity:1;stroke-miterlimit:4;" d="M 274.5 576 L 274.5 582.75 L 267.75 582.75 L 267.75 576 L 274.5 576 Z M 274.5 576 " transform="matrix(1,0,0,-1,0,793)"/>

</svg>