<svg xmlns="http://www.w3.org/2000/svg" xmlns:xlink="http://www.w3.org/1999/xlink" width="612pt" height="792pt" viewBox="0 0 612 792" version="1.1">

<!-- Medium Antigravity Beam -->
<path style="fill-rule:nonzero;fill:rgb(100%,100%,100%);fill-opacity:1;stroke-width:0.75;stroke-linecap:butt;stroke-linejoin:miter;stroke:rgb(13.730068%,12.159915%,12.54902%);stroke-opacity:1;stroke-miterlimit:4;" d="M 440.042969 479.0625 L 440.042969 511.394531 L 417.542969 511.394531 L 417.542969 479.0625 L 440.042969 479.0625 Z M 440.042969 479.0625 " transform="matrix(1,0,0,-1,0,792)"/>
<path style="fill-rule:nonzero;fill:rgb(100%,100%,100%);fill-opacity:1;stroke-width:0.75;stroke-linecap:butt;stroke-linejoin:miter;stroke:rgb(13.730068%,12.159915%,12.54902%);stroke-opacity:1;stroke-miterlimit:4;" d="M 426.539062 512.3125 L 428.789062 525.8125 L 431.039062 512.3125 " transform="matrix(1,0,0,-1,0,792)"/>
<path style="fill-rule:nonzero;fill:rgb(100%,100%,100%);fill-opacity:1;stroke-width:0.75;stroke-linecap:butt;stroke-linejoin:miter;stroke:rgb(13.730068%,12.159915%,12.54902%);stroke-opacity:1;stroke-miterlimit:4;" d="M 424.289062 507.8125 L 424.289062 516.8125 C 424.289062 516.8125 424.289062 514.5625 428.789062 514.5625 C 433.289062 514.5625 433.289062 516.8125 433.289062 516.8125 L 433.289062 507.8125 " transform="matrix(1,0,0,-1,0,792)"/>

<!-- Damage Boxes -->
<path style="fill-rule:nonzero;fill:rgb(100%,100%,100%);fill-opacity:1;stroke-width:1.5;stroke-linecap:butt;stroke-linejoin:miter;stroke:rgb(13.730068%,12.159915%,12.54902%);stroke-opacity:1;stroke-miterlimit:4;" d="M 428.8125 498.1875 L 428.8125 504.9375 L 422.0625 504.9375 L 422.0625 498.1875 L 428.8125 498.1875 Z M 428.8125 498.1875 " transform="matrix(1,0,0,-1,0,792)"/>
<path style="fill-rule:nonzero;fill:rgb(100%,100%,100%);fill-opacity:1;stroke-width:1.5;stroke-linecap:butt;stroke-linejoin:miter;stroke:rgb(13.730068%,12.159915%,12.54902%);stroke-opacity:1;stroke-miterlimit:4;" d="M 435.5625 498.1875 L 435.5625 504.9375 L 428.8125 504.9375 L 428.8125 498.1875 L 435.5625 498.1875 Z M 435.5625 498.1875 " transform="matrix(1,0,0,-1,0,792)"/>
<path style="fill-rule:nonzero;fill:rgb(100%,100%,100%);fill-opacity:1;stroke-width:1.5;stroke-linecap:butt;stroke-linejoin:miter;stroke:rgb(13.730068%,12.159915%,12.54902%);stroke-opacity:1;stroke-miterlimit:4;" d="M 428.8125 491.4375 L 428.8125 498.1875 L 422.0625 498.1875 L 422.0625 491.4375 L 428.8125 491.4375 Z M 428.8125 491.4375 " transform="matrix(1,0,0,-1,0,792)"/>
<path style="fill-rule:nonzero;fill:rgb(100%,100%,100%);fill-opacity:1;stroke-width:1.5;stroke-linecap:butt;stroke-linejoin:miter;stroke:rgb(13.730068%,12.159915%,12.54902%);stroke-opacity:1;stroke-miterlimit:4;" d="M 435.5625 491.4375 L 435.5625 498.1875 L 428.8125 498.1875 L 428.8125 491.4375 L 435.5625 491.4375 Z M 435.5625 491.4375 " transform="matrix(1,0,0,-1,0,792)"/>
<path style="fill-rule:nonzero;fill:rgb(100%,100%,100%);fill-opacity:1;stroke-width:1.5;stroke-linecap:butt;stroke-linejoin:miter;stroke:rgb(13.730068%,12.159915%,12.54902%);stroke-opacity:1;stroke-miterlimit:4;" d="M 428.8125 484.6875 L 428.8125 491.4375 L 422.0625 491.4375 L 422.0625 484.6875 L 428.8125 484.6875 Z M 428.8125 484.6875 " transform="matrix(1,0,0,-1,0,792)"/>
<path style="fill-rule:nonzero;fill:rgb(100%,100%,100%);fill-opacity:1;stroke-width:1.5;stroke-linecap:butt;stroke-linejoin:miter;stroke:rgb(13.730068%,12.159915%,12.54902%);stroke-opacity:1;stroke-miterlimit:4;" d="M 435.5625 484.6875 L 435.5625 491.4375 L 428.8125 491.4375 L 428.8125 484.6875 L 435.5625 484.6875 Z M 435.5625 484.6875 " transform="matrix(1,0,0,-1,0,792)"/>

</svg>