<svg xmlns="http://www.w3.org/2000/svg" xmlns:xlink="http://www.w3.org/1999/xlink" width="612pt" height="792pt" viewBox="0 0 612 792" version="1.1">

<!-- Medium Plasma Cannon -->
<path style="fill-rule:nonzero;fill:rgb(100%,100%,100%);fill-opacity:1;stroke-width:0.75;stroke-linecap:butt;stroke-linejoin:miter;stroke:rgb(13.730068%,12.159915%,12.54902%);stroke-opacity:1;stroke-miterlimit:4;" d="M 249.75 533.25 L 249.75 560.25 L 254.25 555.75 L 257.75 564.75 L 261 555.75 L 264.25 576 L 267.75 555.75 L 271 564.75 L 274.5 555.75 L 279 560.25 L 279 533.25 L 249.75 533.25 Z M 249.75 533.25 " transform="matrix(1,0,0,-1,0,793)"/>

<!-- Damage Boxes -->
<path style="fill-rule:nonzero;fill:rgb(100%,100%,100%);fill-opacity:1;stroke-width:1.5;stroke-linecap:butt;stroke-linejoin:miter;stroke:rgb(13.730068%,12.159915%,12.54902%);stroke-opacity:1;stroke-miterlimit:4;" d="M 264.5 544.5 L 264.5 551.25 L 257.75 551.25 L 257.75 544.5 L 264.5 544.5 Z M 264.5 544.5 " transform="matrix(1,0,0,-1,0,793)"/>
<path style="fill-rule:nonzero;fill:rgb(100%,100%,100%);fill-opacity:1;stroke-width:1.5;stroke-linecap:butt;stroke-linejoin:miter;stroke:rgb(13.730068%,12.159915%,12.54902%);stroke-opacity:1;stroke-miterlimit:4;" d="M 271.25 544.5 L 271.25 551.25 L 264.5 551.25 L 264.5 544.5 L 271.25 544.5 Z M 271.25 544.5 " transform="matrix(1,0,0,-1,0,793)"/>
<path style="fill-rule:nonzero;fill:rgb(100%,100%,100%);fill-opacity:1;stroke-width:1.5;stroke-linecap:butt;stroke-linejoin:miter;stroke:rgb(13.730068%,12.159915%,12.54902%);stroke-opacity:1;stroke-miterlimit:4;" d="M 261 537.75 L 261 544.5 L 254.25 544.5 L 254.25 537.75 L 261 537.75 Z M 261 537.75 " transform="matrix(1,0,0,-1,0,793)"/>
<path style="fill-rule:nonzero;fill:rgb(100%,100%,100%);fill-opacity:1;stroke-width:1.5;stroke-linecap:butt;stroke-linejoin:miter;stroke:rgb(13.730068%,12.159915%,12.54902%);stroke-opacity:1;stroke-miterlimit:4;" d="M 267.75 537.75 L 267.75 544.5 L 261 544.5 L 261 537.75 L 267.75 537.75 Z M 267.75 537.75 " transform="matrix(1,0,0,-1,0,793)"/>
<path style="fill-rule:nonzero;fill:rgb(100%,100%,100%);fill-opacity:1;stroke-width:1.5;stroke-linecap:butt;stroke-linejoin:miter;stroke:rgb(13.730068%,12.159915%,12.54902%);stroke-opacity:1;stroke-miterlimit:4;" d="M 274.5 537.75 L 274.5 544.5 L 267.75 544.5 L 267.75 537.75 L 274.5 537.75 Z M 274.5 537.75 " transform="matrix(1,0,0,-1,0,793)"/>

</svg>