<svg xmlns="http://www.w3.org/2000/svg" xmlns:xlink="http://www.w3.org/1999/xlink" width="612pt" height="792pt" viewBox="0 0 612 792" version="1.1">

<!-- Medium Plasma Bolter -->
<path style="fill-rule:nonzero;fill:rgb(100%,100%,100%);fill-opacity:1;stroke-width:0.75;stroke-linecap:butt;stroke-linejoin:miter;stroke:rgb(13.730068%,12.159915%,12.54902%);stroke-opacity:1;stroke-miterlimit:4;" d="M 157.460938 507.207031 C 160.632812 507.207031 163.203125 509.777344 163.203125 512.945312 C 163.203125 516.117188 160.632812 518.6875 157.460938 518.6875 C 154.289062 518.6875 151.71875 516.117188 151.71875 512.945312 C 151.71875 509.777344 154.289062 507.207031 157.460938 507.207031 Z M 157.460938 507.207031 " transform="matrix(1,0,0,-1,0,792)"/>
<path style="fill-rule:nonzero;fill:rgb(100%,100%,100%);fill-opacity:1;stroke-width:0.75;stroke-linecap:butt;stroke-linejoin:miter;stroke:rgb(13.730068%,12.159915%,12.54902%);stroke-opacity:1;stroke-miterlimit:4;" d="M 142.835938 466.9375 L 142.835938 500.6875 L 147.335938 496.1875 L 150.835938 505.1875 L 154.085938 496.1875 L 157.335938 516.4375 L 160.835938 496.1875 L 164.085938 505.1875 L 167.585938 496.1875 L 172.085938 500.6875 L 172.085938 466.9375 L 142.835938 466.9375 Z M 142.835938 466.9375 " transform="matrix(1,0,0,-1,0,792)"/>

<!-- Damage Boxes -->
<path style="fill-rule:nonzero;fill:rgb(100%,100%,100%);fill-opacity:1;stroke-width:1.5;stroke-linecap:butt;stroke-linejoin:miter;stroke:rgb(13.730068%,12.159915%,12.54902%);stroke-opacity:1;stroke-miterlimit:4;" d="M 157.585938 484.9375 L 157.585938 491.6875 L 150.835938 491.6875 L 150.835938 484.9375 L 157.585938 484.9375 Z M 157.585938 484.9375 " transform="matrix(1,0,0,-1,0,792)"/>
<path style="fill-rule:nonzero;fill:rgb(100%,100%,100%);fill-opacity:1;stroke-width:1.5;stroke-linecap:butt;stroke-linejoin:miter;stroke:rgb(13.730068%,12.159915%,12.54902%);stroke-opacity:1;stroke-miterlimit:4;" d="M 164.335938 484.9375 L 164.335938 491.6875 L 157.585938 491.6875 L 157.585938 484.9375 L 164.335938 484.9375 Z M 164.335938 484.9375 " transform="matrix(1,0,0,-1,0,792)"/>
<path style="fill-rule:nonzero;fill:rgb(100%,100%,100%);fill-opacity:1;stroke-width:1.5;stroke-linecap:butt;stroke-linejoin:miter;stroke:rgb(13.730068%,12.159915%,12.54902%);stroke-opacity:1;stroke-miterlimit:4;" d="M 154.085938 478.1875 L 154.085938 484.9375 L 147.335938 484.9375 L 147.335938 478.1875 L 154.085938 478.1875 Z M 154.085938 478.1875 " transform="matrix(1,0,0,-1,0,792)"/>
<path style="fill-rule:nonzero;fill:rgb(100%,100%,100%);fill-opacity:1;stroke-width:1.5;stroke-linecap:butt;stroke-linejoin:miter;stroke:rgb(13.730068%,12.159915%,12.54902%);stroke-opacity:1;stroke-miterlimit:4;" d="M 160.835938 478.1875 L 160.835938 484.9375 L 154.085938 484.9375 L 154.085938 478.1875 L 160.835938 478.1875 Z M 160.835938 478.1875 " transform="matrix(1,0,0,-1,0,792)"/>
<path style="fill-rule:nonzero;fill:rgb(100%,100%,100%);fill-opacity:1;stroke-width:1.5;stroke-linecap:butt;stroke-linejoin:miter;stroke:rgb(13.730068%,12.159915%,12.54902%);stroke-opacity:1;stroke-miterlimit:4;" d="M 167.585938 478.1875 L 167.585938 484.9375 L 160.835938 484.9375 L 160.835938 478.1875 L 167.585938 478.1875 Z M 167.585938 478.1875 " transform="matrix(1,0,0,-1,0,792)"/>
<path style="fill-rule:nonzero;fill:rgb(100%,100%,100%);fill-opacity:1;stroke-width:1.5;stroke-linecap:butt;stroke-linejoin:miter;stroke:rgb(13.730068%,12.159915%,12.54902%);stroke-opacity:1;stroke-miterlimit:4;" d="M 154.085938 471.4375 L 154.085938 478.1875 L 147.335938 478.1875 L 147.335938 471.4375 L 154.085938 471.4375 Z M 154.085938 471.4375 " transform="matrix(1,0,0,-1,0,792)"/>
<path style="fill-rule:nonzero;fill:rgb(100%,100%,100%);fill-opacity:1;stroke-width:1.5;stroke-linecap:butt;stroke-linejoin:miter;stroke:rgb(13.730068%,12.159915%,12.54902%);stroke-opacity:1;stroke-miterlimit:4;" d="M 160.835938 471.4375 L 160.835938 478.1875 L 154.085938 478.1875 L 154.085938 471.4375 L 160.835938 471.4375 Z M 160.835938 471.4375 " transform="matrix(1,0,0,-1,0,792)"/>
<path style="fill-rule:nonzero;fill:rgb(100%,100%,100%);fill-opacity:1;stroke-width:1.5;stroke-linecap:butt;stroke-linejoin:miter;stroke:rgb(13.730068%,12.159915%,12.54902%);stroke-opacity:1;stroke-miterlimit:4;" d="M 167.585938 471.4375 L 167.585938 478.1875 L 160.835938 478.1875 L 160.835938 471.4375 L 167.585938 471.4375 Z M 167.585938 471.4375 " transform="matrix(1,0,0,-1,0,792)"/>

</svg>