<svg xmlns="http://www.w3.org/2000/svg" xmlns:xlink="http://www.w3.org/1999/xlink" width="612pt" height="792pt" viewBox="0 0 612 792" version="1.1">

<!-- Mega Plasma Cannon -->
<path style="fill-rule:nonzero;fill:rgb(100%,100%,100%);fill-opacity:1;stroke-width:0.75;stroke-linecap:butt;stroke-linejoin:miter;stroke:rgb(13.730068%,12.159915%,12.54902%);stroke-opacity:1;stroke-miterlimit:4;" d="M 123.25 339.25 L 123.25 366.25 L 127.75 361.75 L 128.917969 370.75 L 131.167969 361.75 L 133.417969 377.5 L 135.667969 368.5 L 136.75 382 L 139.496094 368.5 L 141.25 386.5 L 143.71875 368.5 L 145.75 382 L 146.917969 368.5 L 149.167969 377.5 L 151.417969 361.75 L 153.667969 370.75 L 155.917969 361.75 L 159.25 366.25 L 159.25 339.25 L 123.25 339.25 Z M 123.25 339.25 " transform="matrix(1,0,0,-1,17,773)"/>

<!-- Damage Boxes -->
<path style="fill-rule:nonzero;fill:rgb(100%,100%,100%);fill-opacity:1;stroke-width:1.5;stroke-linecap:butt;stroke-linejoin:miter;stroke:rgb(13.730068%,12.159915%,12.54902%);stroke-opacity:1;stroke-miterlimit:4;" d="M 141.25 357.25 L 141.25 364 L 134.5 364 L 134.5 357.25 L 141.25 357.25 Z M 141.25 357.25 " transform="matrix(1,0,0,-1,17,773)"/>
<path style="fill-rule:nonzero;fill:rgb(100%,100%,100%);fill-opacity:1;stroke-width:1.5;stroke-linecap:butt;stroke-linejoin:miter;stroke:rgb(13.730068%,12.159915%,12.54902%);stroke-opacity:1;stroke-miterlimit:4;" d="M 148 357.25 L 148 364 L 141.25 364 L 141.25 357.25 L 148 357.25 Z M 148 357.25 " transform="matrix(1,0,0,-1,17,773)"/>
<path style="fill-rule:nonzero;fill:rgb(100%,100%,100%);fill-opacity:1;stroke-width:1.5;stroke-linecap:butt;stroke-linejoin:miter;stroke:rgb(13.730068%,12.159915%,12.54902%);stroke-opacity:1;stroke-miterlimit:4;" d="M 134.5 350.5 L 134.5 357.25 L 127.75 357.25 L 127.75 350.5 L 134.5 350.5 Z M 134.5 350.5 " transform="matrix(1,0,0,-1,17,773)"/>
<path style="fill-rule:nonzero;fill:rgb(100%,100%,100%);fill-opacity:1;stroke-width:1.5;stroke-linecap:butt;stroke-linejoin:miter;stroke:rgb(13.730068%,12.159915%,12.54902%);stroke-opacity:1;stroke-miterlimit:4;" d="M 141.25 350.5 L 141.25 357.25 L 134.5 357.25 L 134.5 350.5 L 141.25 350.5 Z M 141.25 350.5 " transform="matrix(1,0,0,-1,17,773)"/>
<path style="fill-rule:nonzero;fill:rgb(100%,100%,100%);fill-opacity:1;stroke-width:1.5;stroke-linecap:butt;stroke-linejoin:miter;stroke:rgb(13.730068%,12.159915%,12.54902%);stroke-opacity:1;stroke-miterlimit:4;" d="M 148 350.5 L 148 357.25 L 141.25 357.25 L 141.25 350.5 L 148 350.5 Z M 148 350.5 " transform="matrix(1,0,0,-1,17,773)"/>
<path style="fill-rule:nonzero;fill:rgb(100%,100%,100%);fill-opacity:1;stroke-width:1.5;stroke-linecap:butt;stroke-linejoin:miter;stroke:rgb(13.730068%,12.159915%,12.54902%);stroke-opacity:1;stroke-miterlimit:4;" d="M 154.75 350.5 L 154.75 357.25 L 148 357.25 L 148 350.5 L 154.75 350.5 Z M 154.75 350.5 " transform="matrix(1,0,0,-1,17,773)"/>
<path style="fill-rule:nonzero;fill:rgb(100%,100%,100%);fill-opacity:1;stroke-width:1.5;stroke-linecap:butt;stroke-linejoin:miter;stroke:rgb(13.730068%,12.159915%,12.54902%);stroke-opacity:1;stroke-miterlimit:4;" d="M 134.5 343.75 L 134.5 350.5 L 127.75 350.5 L 127.75 343.75 L 134.5 343.75 Z M 134.5 343.75 " transform="matrix(1,0,0,-1,17,773)"/>
<path style="fill-rule:nonzero;fill:rgb(100%,100%,100%);fill-opacity:1;stroke-width:1.5;stroke-linecap:butt;stroke-linejoin:miter;stroke:rgb(13.730068%,12.159915%,12.54902%);stroke-opacity:1;stroke-miterlimit:4;" d="M 141.25 343.75 L 141.25 350.5 L 134.5 350.5 L 134.5 343.75 L 141.25 343.75 Z M 141.25 343.75 " transform="matrix(1,0,0,-1,17,773)"/>
<path style="fill-rule:nonzero;fill:rgb(100%,100%,100%);fill-opacity:1;stroke-width:1.5;stroke-linecap:butt;stroke-linejoin:miter;stroke:rgb(13.730068%,12.159915%,12.54902%);stroke-opacity:1;stroke-miterlimit:4;" d="M 148 343.75 L 148 350.5 L 141.25 350.5 L 141.25 343.75 L 148 343.75 Z M 148 343.75 " transform="matrix(1,0,0,-1,17,773)"/>
<path style="fill-rule:nonzero;fill:rgb(100%,100%,100%);fill-opacity:1;stroke-width:1.5;stroke-linecap:butt;stroke-linejoin:miter;stroke:rgb(13.730068%,12.159915%,12.54902%);stroke-opacity:1;stroke-miterlimit:4;" d="M 154.75 343.75 L 154.75 350.5 L 148 350.5 L 148 343.75 L 154.75 343.75 Z M 154.75 343.75 " transform="matrix(1,0,0,-1,17,773)"/>

</svg>