<svg xmlns="http://www.w3.org/2000/svg" xmlns:xlink="http://www.w3.org/1999/xlink" width="612pt" height="792pt" viewBox="0 0 612 792" version="1.1">

<!-- Molecular Disruptor -->
<path style="fill-rule:nonzero;fill:rgb(100%,100%,100%);fill-opacity:1;stroke-width:0.75;stroke-linecap:butt;stroke-linejoin:miter;stroke:rgb(13.730068%,12.159915%,12.54902%);stroke-opacity:1;stroke-miterlimit:4;" d="M 249.25 487.585938 L 249.25 521.335938 L 256 528.085938 L 253.75 532.585938 L 256 537.085938 L 253.75 541.585938 L 258.25 546.085938 L 260.5 555.085938 L 262.75 546.085938 L 267.25 541.585938 L 265 537.085938 L 267.25 532.585938 L 265 528.085938 L 271.75 521.335938 L 271.75 487.585938 L 249.25 487.585938 Z M 249.25 487.585938 " transform="matrix(1,0,0,-1,0,793)"/>

<!-- Damage Boxes -->
<path style="fill-rule:nonzero;fill:rgb(100%,100%,100%);fill-opacity:1;stroke-width:1.5;stroke-linecap:butt;stroke-linejoin:miter;stroke:rgb(13.730068%,12.159915%,12.54902%);stroke-opacity:1;stroke-miterlimit:4;" d="M 260.5 512.335938 L 260.5 519.085938 L 253.75 519.085938 L 253.75 512.335938 L 260.5 512.335938 Z M 260.5 512.335938 " transform="matrix(1,0,0,-1,0,793)"/>
<path style="fill-rule:nonzero;fill:rgb(100%,100%,100%);fill-opacity:1;stroke-width:1.5;stroke-linecap:butt;stroke-linejoin:miter;stroke:rgb(13.730068%,12.159915%,12.54902%);stroke-opacity:1;stroke-miterlimit:4;" d="M 267.25 512.335938 L 267.25 519.085938 L 260.5 519.085938 L 260.5 512.335938 L 267.25 512.335938 Z M 267.25 512.335938 " transform="matrix(1,0,0,-1,0,793)"/>
<path style="fill-rule:nonzero;fill:rgb(100%,100%,100%);fill-opacity:1;stroke-width:1.5;stroke-linecap:butt;stroke-linejoin:miter;stroke:rgb(13.730068%,12.159915%,12.54902%);stroke-opacity:1;stroke-miterlimit:4;" d="M 260.5 505.585938 L 260.5 512.335938 L 253.75 512.335938 L 253.75 505.585938 L 260.5 505.585938 Z M 260.5 505.585938 " transform="matrix(1,0,0,-1,0,793)"/>
<path style="fill-rule:nonzero;fill:rgb(100%,100%,100%);fill-opacity:1;stroke-width:1.5;stroke-linecap:butt;stroke-linejoin:miter;stroke:rgb(13.730068%,12.159915%,12.54902%);stroke-opacity:1;stroke-miterlimit:4;" d="M 267.25 505.585938 L 267.25 512.335938 L 260.5 512.335938 L 260.5 505.585938 L 267.25 505.585938 Z M 267.25 505.585938 " transform="matrix(1,0,0,-1,0,793)"/>
<path style="fill-rule:nonzero;fill:rgb(100%,100%,100%);fill-opacity:1;stroke-width:1.5;stroke-linecap:butt;stroke-linejoin:miter;stroke:rgb(13.730068%,12.159915%,12.54902%);stroke-opacity:1;stroke-miterlimit:4;" d="M 260.5 498.835938 L 260.5 505.585938 L 253.75 505.585938 L 253.75 498.835938 L 260.5 498.835938 Z M 260.5 498.835938 " transform="matrix(1,0,0,-1,0,793)"/>
<path style="fill-rule:nonzero;fill:rgb(100%,100%,100%);fill-opacity:1;stroke-width:1.5;stroke-linecap:butt;stroke-linejoin:miter;stroke:rgb(13.730068%,12.159915%,12.54902%);stroke-opacity:1;stroke-miterlimit:4;" d="M 267.25 498.835938 L 267.25 505.585938 L 260.5 505.585938 L 260.5 498.835938 L 267.25 498.835938 Z M 267.25 498.835938 " transform="matrix(1,0,0,-1,0,793)"/>
<path style="fill-rule:nonzero;fill:rgb(100%,100%,100%);fill-opacity:1;stroke-width:1.5;stroke-linecap:butt;stroke-linejoin:miter;stroke:rgb(13.730068%,12.159915%,12.54902%);stroke-opacity:1;stroke-miterlimit:4;" d="M 260.5 492.085938 L 260.5 498.835938 L 253.75 498.835938 L 253.75 492.085938 L 260.5 492.085938 Z M 260.5 492.085938 " transform="matrix(1,0,0,-1,0,793)"/>
<path style="fill-rule:nonzero;fill:rgb(100%,100%,100%);fill-opacity:1;stroke-width:1.5;stroke-linecap:butt;stroke-linejoin:miter;stroke:rgb(13.730068%,12.159915%,12.54902%);stroke-opacity:1;stroke-miterlimit:4;" d="M 267.25 492.085938 L 267.25 498.835938 L 260.5 498.835938 L 260.5 492.085938 L 267.25 492.085938 Z M 267.25 492.085938 " transform="matrix(1,0,0,-1,0,793)"/>

</svg>