<svg xmlns="http://www.w3.org/2000/svg" xmlns:xlink="http://www.w3.org/1999/xlink" width="612pt" height="792pt" viewBox="0 0 612 792" version="1.1">

<!-- Molecular Pulsar -->
<path style="fill-rule:nonzero;fill:rgb(100%,100%,100%);fill-opacity:1;stroke-width:0.75;stroke-linecap:butt;stroke-linejoin:miter;stroke:rgb(13.730068%,12.159915%,12.54902%);stroke-opacity:1;stroke-miterlimit:4;" d="M 249.75 533.25 L 249.75 555.75 L 263.25 560.25 L 258.75 564.75 L 258.75 569.25 L 263.25 573.75 L 258.75 578.25 L 258.75 582.75 L 263.25 587.25 L 267.75 598.5 L 272.25 587.25 L 276.75 582.75 L 276.75 578.25 L 272.25 573.75 L 276.75 569.25 L 276.75 564.75 L 272.25 560.25 L 285.75 555.75 L 285.75 533.25 L 249.75 533.25 Z M 249.75 533.25 " transform="matrix(1,0,0,-1,0,793)"/>

<!-- Damage Boxes -->
<path style="fill-rule:nonzero;fill:rgb(100%,100%,100%);fill-opacity:1;stroke-width:1.5;stroke-linecap:butt;stroke-linejoin:miter;stroke:rgb(13.730068%,12.159915%,12.54902%);stroke-opacity:1;stroke-miterlimit:4;" d="M 261 544.5 L 261 551.25 L 254.25 551.25 L 254.25 544.5 L 261 544.5 Z M 261 544.5 " transform="matrix(1,0,0,-1,0,793)"/>
<path style="fill-rule:nonzero;fill:rgb(100%,100%,100%);fill-opacity:1;stroke-width:1.5;stroke-linecap:butt;stroke-linejoin:miter;stroke:rgb(13.730068%,12.159915%,12.54902%);stroke-opacity:1;stroke-miterlimit:4;" d="M 267.75 544.5 L 267.75 551.25 L 261 551.25 L 261 544.5 L 267.75 544.5 Z M 267.75 544.5 " transform="matrix(1,0,0,-1,0,793)"/>
<path style="fill-rule:nonzero;fill:rgb(100%,100%,100%);fill-opacity:1;stroke-width:1.5;stroke-linecap:butt;stroke-linejoin:miter;stroke:rgb(13.730068%,12.159915%,12.54902%);stroke-opacity:1;stroke-miterlimit:4;" d="M 274.5 544.5 L 274.5 551.25 L 267.75 551.25 L 267.75 544.5 L 274.5 544.5 Z M 274.5 544.5 " transform="matrix(1,0,0,-1,0,793)"/>
<path style="fill-rule:nonzero;fill:rgb(100%,100%,100%);fill-opacity:1;stroke-width:1.5;stroke-linecap:butt;stroke-linejoin:miter;stroke:rgb(13.730068%,12.159915%,12.54902%);stroke-opacity:1;stroke-miterlimit:4;" d="M 281.25 544.5 L 281.25 551.25 L 274.5 551.25 L 274.5 544.5 L 281.25 544.5 Z M 281.25 544.5 " transform="matrix(1,0,0,-1,0,793)"/>
<path style="fill-rule:nonzero;fill:rgb(100%,100%,100%);fill-opacity:1;stroke-width:1.5;stroke-linecap:butt;stroke-linejoin:miter;stroke:rgb(13.730068%,12.159915%,12.54902%);stroke-opacity:1;stroke-miterlimit:4;" d="M 261 537.75 L 261 544.5 L 254.25 544.5 L 254.25 537.75 L 261 537.75 Z M 261 537.75 " transform="matrix(1,0,0,-1,0,793)"/>
<path style="fill-rule:nonzero;fill:rgb(100%,100%,100%);fill-opacity:1;stroke-width:1.5;stroke-linecap:butt;stroke-linejoin:miter;stroke:rgb(13.730068%,12.159915%,12.54902%);stroke-opacity:1;stroke-miterlimit:4;" d="M 267.75 537.75 L 267.75 544.5 L 261 544.5 L 261 537.75 L 267.75 537.75 Z M 267.75 537.75 " transform="matrix(1,0,0,-1,0,793)"/>
<path style="fill-rule:nonzero;fill:rgb(100%,100%,100%);fill-opacity:1;stroke-width:1.5;stroke-linecap:butt;stroke-linejoin:miter;stroke:rgb(13.730068%,12.159915%,12.54902%);stroke-opacity:1;stroke-miterlimit:4;" d="M 274.5 537.75 L 274.5 544.5 L 267.75 544.5 L 267.75 537.75 L 274.5 537.75 Z M 274.5 537.75 " transform="matrix(1,0,0,-1,0,793)"/>
<path style="fill-rule:nonzero;fill:rgb(100%,100%,100%);fill-opacity:1;stroke-width:1.5;stroke-linecap:butt;stroke-linejoin:miter;stroke:rgb(13.730068%,12.159915%,12.54902%);stroke-opacity:1;stroke-miterlimit:4;" d="M 281.25 537.75 L 281.25 544.5 L 274.5 544.5 L 274.5 537.75 L 281.25 537.75 Z M 281.25 537.75 " transform="matrix(1,0,0,-1,0,793)"/>

</svg>