<svg xmlns="http://www.w3.org/2000/svg" xmlns:xlink="http://www.w3.org/1999/xlink" width="612pt" height="792pt" viewBox="0 0 612 792" version="1.1">

<!-- Molecular Flayer -->
<path style="fill-rule:nonzero;fill:rgb(100%,100%,100%);fill-opacity:1;stroke-width:0.75;stroke-linecap:butt;stroke-linejoin:miter;stroke:rgb(13.730068%,12.159915%,12.54902%);stroke-opacity:1;stroke-miterlimit:4;" d="M 198.277344 453.265625 L 216.277344 453.265625 L 216.277344 475.765625 L 214.027344 475.765625 L 214.027344 484.765625 L 207.277344 484.765625 L 209.527344 480.265625 L 207.277344 475.765625 L 202.777344 475.765625 L 200.527344 480.265625 L 202.777344 484.765625 L 198.277344 489.265625 L 193.777344 484.765625 L 196.027344 480.265625 L 193.777344 475.765625 L 189.277344 475.765625 L 187.027344 480.265625 L 189.277344 484.765625 L 182.527344 484.765625 L 182.527344 475.765625 L 180.277344 475.765625 L 180.277344 453.265625 L 198.277344 453.265625 Z M 198.277344 453.265625 " transform="matrix(1,0,0,-1,0,792)"/>

<!-- Damage Boxes -->
<path style="fill-rule:nonzero;fill:rgb(100%,100%,100%);fill-opacity:1;stroke-width:1.5;stroke-linecap:butt;stroke-linejoin:miter;stroke:rgb(13.730068%,12.159915%,12.54902%);stroke-opacity:1;stroke-miterlimit:4;" d="M 191.527344 464.515625 L 191.527344 471.265625 L 184.777344 471.265625 L 184.777344 464.515625 L 191.527344 464.515625 Z M 191.527344 464.515625 " transform="matrix(1,0,0,-1,0,792)"/>
<path style="fill-rule:nonzero;fill:rgb(100%,100%,100%);fill-opacity:1;stroke-width:1.5;stroke-linecap:butt;stroke-linejoin:miter;stroke:rgb(13.730068%,12.159915%,12.54902%);stroke-opacity:1;stroke-miterlimit:4;" d="M 198.277344 464.515625 L 198.277344 471.265625 L 191.527344 471.265625 L 191.527344 464.515625 L 198.277344 464.515625 Z M 198.277344 464.515625 " transform="matrix(1,0,0,-1,0,792)"/>
<path style="fill-rule:nonzero;fill:rgb(100%,100%,100%);fill-opacity:1;stroke-width:1.5;stroke-linecap:butt;stroke-linejoin:miter;stroke:rgb(13.730068%,12.159915%,12.54902%);stroke-opacity:1;stroke-miterlimit:4;" d="M 205.027344 464.515625 L 205.027344 471.265625 L 198.277344 471.265625 L 198.277344 464.515625 L 205.027344 464.515625 Z M 205.027344 464.515625 " transform="matrix(1,0,0,-1,0,792)"/>
<path style="fill-rule:nonzero;fill:rgb(100%,100%,100%);fill-opacity:1;stroke-width:1.5;stroke-linecap:butt;stroke-linejoin:miter;stroke:rgb(13.730068%,12.159915%,12.54902%);stroke-opacity:1;stroke-miterlimit:4;" d="M 211.777344 464.515625 L 211.777344 471.265625 L 205.027344 471.265625 L 205.027344 464.515625 L 211.777344 464.515625 Z M 211.777344 464.515625 " transform="matrix(1,0,0,-1,0,792)"/>
<path style="fill-rule:nonzero;fill:rgb(100%,100%,100%);fill-opacity:1;stroke-width:1.5;stroke-linecap:butt;stroke-linejoin:miter;stroke:rgb(13.730068%,12.159915%,12.54902%);stroke-opacity:1;stroke-miterlimit:4;" d="M 191.527344 457.765625 L 191.527344 464.515625 L 184.777344 464.515625 L 184.777344 457.765625 L 191.527344 457.765625 Z M 191.527344 457.765625 " transform="matrix(1,0,0,-1,0,792)"/>
<path style="fill-rule:nonzero;fill:rgb(100%,100%,100%);fill-opacity:1;stroke-width:1.5;stroke-linecap:butt;stroke-linejoin:miter;stroke:rgb(13.730068%,12.159915%,12.54902%);stroke-opacity:1;stroke-miterlimit:4;" d="M 198.277344 457.765625 L 198.277344 464.515625 L 191.527344 464.515625 L 191.527344 457.765625 L 198.277344 457.765625 Z M 198.277344 457.765625 " transform="matrix(1,0,0,-1,0,792)"/>
<path style="fill-rule:nonzero;fill:rgb(100%,100%,100%);fill-opacity:1;stroke-width:1.5;stroke-linecap:butt;stroke-linejoin:miter;stroke:rgb(13.730068%,12.159915%,12.54902%);stroke-opacity:1;stroke-miterlimit:4;" d="M 205.027344 457.765625 L 205.027344 464.515625 L 198.277344 464.515625 L 198.277344 457.765625 L 205.027344 457.765625 Z M 205.027344 457.765625 " transform="matrix(1,0,0,-1,0,792)"/>
<path style="fill-rule:nonzero;fill:rgb(100%,100%,100%);fill-opacity:1;stroke-width:1.5;stroke-linecap:butt;stroke-linejoin:miter;stroke:rgb(13.730068%,12.159915%,12.54902%);stroke-opacity:1;stroke-miterlimit:4;" d="M 211.777344 457.765625 L 211.777344 464.515625 L 205.027344 464.515625 L 205.027344 457.765625 L 211.777344 457.765625 Z M 211.777344 457.765625 " transform="matrix(1,0,0,-1,0,792)"/>

</svg>