<svg xmlns="http://www.w3.org/2000/svg" xmlns:xlink="http://www.w3.org/1999/xlink" width="612pt" height="792pt" viewBox="0 0 612 792" version="1.1">

<!-- Molecular Slicer Beam -->
<path style="fill-rule:nonzero;fill:rgb(100%,100%,100%);fill-opacity:1;stroke-width:0.75;stroke-linecap:butt;stroke-linejoin:miter;stroke:rgb(13.730068%,12.159915%,12.54902%);stroke-opacity:1;stroke-miterlimit:4;" d="M 279.332031 479.972656 L 273.933594 485.371094 L 279.332031 490.773438 L 273.933594 496.171875 L 279.332031 501.570312 L 273.933594 506.972656 L 279.332031 517.773438 L 284.734375 506.972656 L 279.332031 501.570312 L 284.734375 496.171875 L 279.332031 490.773438 L 284.734375 485.371094 L 279.332031 479.972656 Z M 279.332031 479.972656 " transform="matrix(1,0,0,-1,0,793)"/>
<path style="fill-rule:nonzero;fill:rgb(100%,100%,100%);fill-opacity:1;stroke-width:0.75;stroke-linecap:butt;stroke-linejoin:miter;stroke:rgb(13.730068%,12.159915%,12.54902%);stroke-opacity:1;stroke-miterlimit:4;" d="M 263.132812 434.523438 L 263.132812 474.667969 L 268.535156 517.867188 L 268.535156 507.070312 L 279.332031 501.667969 L 268.535156 496.269531 L 279.332031 490.867188 L 268.535156 485.46875 L 279.332031 480.070312 L 290.132812 485.46875 L 279.332031 490.867188 L 290.132812 496.269531 L 279.332031 501.667969 L 290.132812 507.070312 L 290.132812 517.867188 L 295.535156 474.667969 L 295.535156 434.523438 L 263.132812 434.523438 Z M 263.132812 434.523438 " transform="matrix(1,0,0,-1,0,793)"/>

<!-- Damage Boxes -->
<path style="fill-rule:nonzero;fill:rgb(100%,100%,100%);fill-opacity:1;stroke-width:1.5;stroke-linecap:butt;stroke-linejoin:miter;stroke:rgb(13.730068%,12.159915%,12.54902%);stroke-opacity:1;stroke-miterlimit:4;" d="M 275.957031 468.273438 L 275.957031 475.023438 L 269.207031 475.023438 L 269.207031 468.273438 L 275.957031 468.273438 Z M 275.957031 468.273438 " transform="matrix(1,0,0,-1,0,793)"/>
<path style="fill-rule:nonzero;fill:rgb(100%,100%,100%);fill-opacity:1;stroke-width:1.5;stroke-linecap:butt;stroke-linejoin:miter;stroke:rgb(13.730068%,12.159915%,12.54902%);stroke-opacity:1;stroke-miterlimit:4;" d="M 282.707031 468.273438 L 282.707031 475.023438 L 275.957031 475.023438 L 275.957031 468.273438 L 282.707031 468.273438 Z M 282.707031 468.273438 " transform="matrix(1,0,0,-1,0,793)"/>
<path style="fill-rule:nonzero;fill:rgb(100%,100%,100%);fill-opacity:1;stroke-width:1.5;stroke-linecap:butt;stroke-linejoin:miter;stroke:rgb(13.730068%,12.159915%,12.54902%);stroke-opacity:1;stroke-miterlimit:4;" d="M 289.457031 468.273438 L 289.457031 475.023438 L 282.707031 475.023438 L 282.707031 468.273438 L 289.457031 468.273438 Z M 289.457031 468.273438 " transform="matrix(1,0,0,-1,0,793)"/>
<path style="fill-rule:nonzero;fill:rgb(100%,100%,100%);fill-opacity:1;stroke-width:1.5;stroke-linecap:butt;stroke-linejoin:miter;stroke:rgb(13.730068%,12.159915%,12.54902%);stroke-opacity:1;stroke-miterlimit:4;" d="M 275.957031 461.523438 L 275.957031 468.273438 L 269.207031 468.273438 L 269.207031 461.523438 L 275.957031 461.523438 Z M 275.957031 461.523438 " transform="matrix(1,0,0,-1,0,793)"/>
<path style="fill-rule:nonzero;fill:rgb(100%,100%,100%);fill-opacity:1;stroke-width:1.5;stroke-linecap:butt;stroke-linejoin:miter;stroke:rgb(13.730068%,12.159915%,12.54902%);stroke-opacity:1;stroke-miterlimit:4;" d="M 282.707031 461.523438 L 282.707031 468.273438 L 275.957031 468.273438 L 275.957031 461.523438 L 282.707031 461.523438 Z M 282.707031 461.523438 " transform="matrix(1,0,0,-1,0,793)"/>
<path style="fill-rule:nonzero;fill:rgb(100%,100%,100%);fill-opacity:1;stroke-width:1.5;stroke-linecap:butt;stroke-linejoin:miter;stroke:rgb(13.730068%,12.159915%,12.54902%);stroke-opacity:1;stroke-miterlimit:4;" d="M 289.457031 461.523438 L 289.457031 468.273438 L 282.707031 468.273438 L 282.707031 461.523438 L 289.457031 461.523438 Z M 289.457031 461.523438 " transform="matrix(1,0,0,-1,0,793)"/>
<path style="fill-rule:nonzero;fill:rgb(100%,100%,100%);fill-opacity:1;stroke-width:1.5;stroke-linecap:butt;stroke-linejoin:miter;stroke:rgb(13.730068%,12.159915%,12.54902%);stroke-opacity:1;stroke-miterlimit:4;" d="M 275.957031 454.773438 L 275.957031 461.523438 L 269.207031 461.523438 L 269.207031 454.773438 L 275.957031 454.773438 Z M 275.957031 454.773438 " transform="matrix(1,0,0,-1,0,793)"/>
<path style="fill-rule:nonzero;fill:rgb(100%,100%,100%);fill-opacity:1;stroke-width:1.5;stroke-linecap:butt;stroke-linejoin:miter;stroke:rgb(13.730068%,12.159915%,12.54902%);stroke-opacity:1;stroke-miterlimit:4;" d="M 282.707031 454.773438 L 282.707031 461.523438 L 275.957031 461.523438 L 275.957031 454.773438 L 282.707031 454.773438 Z M 282.707031 454.773438 " transform="matrix(1,0,0,-1,0,793)"/>
<path style="fill-rule:nonzero;fill:rgb(100%,100%,100%);fill-opacity:1;stroke-width:1.5;stroke-linecap:butt;stroke-linejoin:miter;stroke:rgb(13.730068%,12.159915%,12.54902%);stroke-opacity:1;stroke-miterlimit:4;" d="M 289.457031 454.773438 L 289.457031 461.523438 L 282.707031 461.523438 L 282.707031 454.773438 L 289.457031 454.773438 Z M 289.457031 454.773438 " transform="matrix(1,0,0,-1,0,793)"/>
<path style="fill-rule:nonzero;fill:rgb(100%,100%,100%);fill-opacity:1;stroke-width:1.5;stroke-linecap:butt;stroke-linejoin:miter;stroke:rgb(13.730068%,12.159915%,12.54902%);stroke-opacity:1;stroke-miterlimit:4;" d="M 275.957031 448.023438 L 275.957031 454.773438 L 269.207031 454.773438 L 269.207031 448.023438 L 275.957031 448.023438 Z M 275.957031 448.023438 " transform="matrix(1,0,0,-1,0,793)"/>
<path style="fill-rule:nonzero;fill:rgb(100%,100%,100%);fill-opacity:1;stroke-width:1.5;stroke-linecap:butt;stroke-linejoin:miter;stroke:rgb(13.730068%,12.159915%,12.54902%);stroke-opacity:1;stroke-miterlimit:4;" d="M 282.707031 448.023438 L 282.707031 454.773438 L 275.957031 454.773438 L 275.957031 448.023438 L 282.707031 448.023438 Z M 282.707031 448.023438 " transform="matrix(1,0,0,-1,0,793)"/>
<path style="fill-rule:nonzero;fill:rgb(100%,100%,100%);fill-opacity:1;stroke-width:1.5;stroke-linecap:butt;stroke-linejoin:miter;stroke:rgb(13.730068%,12.159915%,12.54902%);stroke-opacity:1;stroke-miterlimit:4;" d="M 289.457031 448.023438 L 289.457031 454.773438 L 282.707031 454.773438 L 282.707031 448.023438 L 289.457031 448.023438 Z M 289.457031 448.023438 " transform="matrix(1,0,0,-1,0,793)"/>
<path style="fill-rule:nonzero;fill:rgb(100%,100%,100%);fill-opacity:1;stroke-width:1.5;stroke-linecap:butt;stroke-linejoin:miter;stroke:rgb(13.730068%,12.159915%,12.54902%);stroke-opacity:1;stroke-miterlimit:4;" d="M 275.957031 441.273438 L 275.957031 448.023438 L 269.207031 448.023438 L 269.207031 441.273438 L 275.957031 441.273438 Z M 275.957031 441.273438 " transform="matrix(1,0,0,-1,0,793)"/>
<path style="fill-rule:nonzero;fill:rgb(100%,100%,100%);fill-opacity:1;stroke-width:1.5;stroke-linecap:butt;stroke-linejoin:miter;stroke:rgb(13.730068%,12.159915%,12.54902%);stroke-opacity:1;stroke-miterlimit:4;" d="M 282.707031 441.273438 L 282.707031 448.023438 L 275.957031 448.023438 L 275.957031 441.273438 L 282.707031 441.273438 Z M 282.707031 441.273438 " transform="matrix(1,0,0,-1,0,793)"/>
<path style="fill-rule:nonzero;fill:rgb(100%,100%,100%);fill-opacity:1;stroke-width:1.5;stroke-linecap:butt;stroke-linejoin:miter;stroke:rgb(13.730068%,12.159915%,12.54902%);stroke-opacity:1;stroke-miterlimit:4;" d="M 289.457031 441.273438 L 289.457031 448.023438 L 282.707031 448.023438 L 282.707031 441.273438 L 289.457031 441.273438 Z M 289.457031 441.273438 " transform="matrix(1,0,0,-1,0,793)"/>

</svg>