<svg xmlns="http://www.w3.org/2000/svg" xmlns:xlink="http://www.w3.org/1999/xlink" width="612pt" height="792pt" viewBox="0 0 612 792" version="1.1">

<!-- Neutron Laser -->
<path style="fill-rule:nonzero;fill:rgb(100%,100%,100%);fill-opacity:1;stroke-width:0.75;stroke-linecap:butt;stroke-linejoin:miter;stroke:rgb(13.730068%,12.159915%,12.54902%);stroke-opacity:1;stroke-miterlimit:4;" d="M 283.5 486 L 283.5 528.75 L 290.25 535.5 L 292.5 542.25 L 288 546.75 L 288 551.25 L 292.5 555.75 L 294.75 564.75 L 297 555.75 L 301.5 551.25 L 301.5 546.75 L 297 542.25 L 299.25 535.5 L 306 528.75 L 306 486 L 283.5 486 Z M 283.5 486 " transform="matrix(1,0,0,-1,0,793)"/>

<!-- Damage Boxes -->
<path style="fill-rule:nonzero;fill:rgb(100%,100%,100%);fill-opacity:1;stroke-width:1.5;stroke-linecap:butt;stroke-linejoin:miter;stroke:rgb(13.730068%,12.159915%,12.54902%);stroke-opacity:1;stroke-miterlimit:4;" d="M 294.75 517.5 L 294.75 524.25 L 288 524.25 L 288 517.5 L 294.75 517.5 Z M 294.75 517.5 " transform="matrix(1,0,0,-1,0,793)"/>
<path style="fill-rule:nonzero;fill:rgb(100%,100%,100%);fill-opacity:1;stroke-width:1.5;stroke-linecap:butt;stroke-linejoin:miter;stroke:rgb(13.730068%,12.159915%,12.54902%);stroke-opacity:1;stroke-miterlimit:4;" d="M 301.5 517.5 L 301.5 524.25 L 294.75 524.25 L 294.75 517.5 L 301.5 517.5 Z M 301.5 517.5 " transform="matrix(1,0,0,-1,0,793)"/>
<path style="fill-rule:nonzero;fill:rgb(100%,100%,100%);fill-opacity:1;stroke-width:1.5;stroke-linecap:butt;stroke-linejoin:miter;stroke:rgb(13.730068%,12.159915%,12.54902%);stroke-opacity:1;stroke-miterlimit:4;" d="M 294.75 510.75 L 294.75 517.5 L 288 517.5 L 288 510.75 L 294.75 510.75 Z M 294.75 510.75 " transform="matrix(1,0,0,-1,0,793)"/>
<path style="fill-rule:nonzero;fill:rgb(100%,100%,100%);fill-opacity:1;stroke-width:1.5;stroke-linecap:butt;stroke-linejoin:miter;stroke:rgb(13.730068%,12.159915%,12.54902%);stroke-opacity:1;stroke-miterlimit:4;" d="M 301.5 510.75 L 301.5 517.5 L 294.75 517.5 L 294.75 510.75 L 301.5 510.75 Z M 301.5 510.75 " transform="matrix(1,0,0,-1,0,793)"/>
<path style="fill-rule:nonzero;fill:rgb(100%,100%,100%);fill-opacity:1;stroke-width:1.5;stroke-linecap:butt;stroke-linejoin:miter;stroke:rgb(13.730068%,12.159915%,12.54902%);stroke-opacity:1;stroke-miterlimit:4;" d="M 294.75 504 L 294.75 510.75 L 288 510.75 L 288 504 L 294.75 504 Z M 294.75 504 " transform="matrix(1,0,0,-1,0,793)"/>
<path style="fill-rule:nonzero;fill:rgb(100%,100%,100%);fill-opacity:1;stroke-width:1.5;stroke-linecap:butt;stroke-linejoin:miter;stroke:rgb(13.730068%,12.159915%,12.54902%);stroke-opacity:1;stroke-miterlimit:4;" d="M 301.5 504 L 301.5 510.75 L 294.75 510.75 L 294.75 504 L 301.5 504 Z M 301.5 504 " transform="matrix(1,0,0,-1,0,793)"/>
<path style="fill-rule:nonzero;fill:rgb(100%,100%,100%);fill-opacity:1;stroke-width:1.5;stroke-linecap:butt;stroke-linejoin:miter;stroke:rgb(13.730068%,12.159915%,12.54902%);stroke-opacity:1;stroke-miterlimit:4;" d="M 294.75 497.25 L 294.75 504 L 288 504 L 288 497.25 L 294.75 497.25 Z M 294.75 497.25 " transform="matrix(1,0,0,-1,0,793)"/>
<path style="fill-rule:nonzero;fill:rgb(100%,100%,100%);fill-opacity:1;stroke-width:1.5;stroke-linecap:butt;stroke-linejoin:miter;stroke:rgb(13.730068%,12.159915%,12.54902%);stroke-opacity:1;stroke-miterlimit:4;" d="M 301.5 497.25 L 301.5 504 L 294.75 504 L 294.75 497.25 L 301.5 497.25 Z M 301.5 497.25 " transform="matrix(1,0,0,-1,0,793)"/>
<path style="fill-rule:nonzero;fill:rgb(100%,100%,100%);fill-opacity:1;stroke-width:1.5;stroke-linecap:butt;stroke-linejoin:miter;stroke:rgb(13.730068%,12.159915%,12.54902%);stroke-opacity:1;stroke-miterlimit:4;" d="M 294.75 490.5 L 294.75 497.25 L 288 497.25 L 288 490.5 L 294.75 490.5 Z M 294.75 490.5 " transform="matrix(1,0,0,-1,0,793)"/>
<path style="fill-rule:nonzero;fill:rgb(100%,100%,100%);fill-opacity:1;stroke-width:1.5;stroke-linecap:butt;stroke-linejoin:miter;stroke:rgb(13.730068%,12.159915%,12.54902%);stroke-opacity:1;stroke-miterlimit:4;" d="M 301.5 490.5 L 301.5 497.25 L 294.75 497.25 L 294.75 490.5 L 301.5 490.5 Z M 301.5 490.5 " transform="matrix(1,0,0,-1,0,793)"/>

</svg>