<svg xmlns="http://www.w3.org/2000/svg" xmlns:xlink="http://www.w3.org/1999/xlink" width="612pt" height="792pt" viewBox="0 0 612 792" version="1.1">

<!-- Particle Accelerator -->
<path style="fill-rule:nonzero;fill:rgb(100%,100%,100%);fill-opacity:1;stroke-width:0.75;stroke-linecap:butt;stroke-linejoin:miter;stroke:rgb(13.730068%,12.159915%,12.54902%);stroke-opacity:1;stroke-miterlimit:4;" d="M 319.660156 719.75 L 328.683594 719.75 " transform="matrix(1,0,0,-1,51,1054)"/>
<path style="fill-rule:nonzero;fill:rgb(100%,100%,100%);fill-opacity:1;stroke-width:0.75;stroke-linecap:butt;stroke-linejoin:miter;stroke:rgb(13.730068%,12.159915%,12.54902%);stroke-opacity:1;stroke-miterlimit:4;" d="M 319.613281 717.917969 L 328.632812 717.917969 " transform="matrix(1,0,0,-1,51,1054)"/>
<path style="fill-rule:nonzero;fill:rgb(100%,100%,100%);fill-opacity:1;stroke-width:0.75;stroke-linecap:butt;stroke-linejoin:miter;stroke:rgb(13.730068%,12.159915%,12.54902%);stroke-opacity:1;stroke-miterlimit:4;" d="M 319.613281 715.667969 L 328.632812 715.667969 " transform="matrix(1,0,0,-1,51,1054)"/>
<path style="fill-rule:nonzero;fill:rgb(100%,100%,100%);fill-opacity:1;stroke-width:0.75;stroke-linecap:butt;stroke-linejoin:miter;stroke:rgb(13.730068%,12.159915%,12.54902%);stroke-opacity:1;stroke-miterlimit:4;" d="M 319.855469 713.417969 L 328.878906 713.417969 " transform="matrix(1,0,0,-1,51,1054)"/>
<path style="fill-rule:nonzero;fill:rgb(100%,100%,100%);fill-opacity:1;stroke-width:0.75;stroke-linecap:butt;stroke-linejoin:miter;stroke:rgb(13.730068%,12.159915%,12.54902%);stroke-opacity:1;stroke-miterlimit:4;" d="M 319.589844 710.957031 L 328.609375 710.957031 " transform="matrix(1,0,0,-1,51,1054)"/>
<path style="fill-rule:nonzero;fill:rgb(100%,100%,100%);fill-opacity:1;stroke-width:0.75;stroke-linecap:butt;stroke-linejoin:miter;stroke:rgb(13.730068%,12.159915%,12.54902%);stroke-opacity:1;stroke-miterlimit:4;" d="M 313.046875 668.582031 L 313.046875 704.582031 L 322.046875 704.582031 L 315.296875 704.582031 L 315.296875 709.082031 L 319.046875 709.082031 L 319.046875 723.082031 L 324.378906 705.832031 L 329.546875 723.082031 L 329.546875 709.082031 L 333.296875 709.082031 L 333.296875 704.582031 L 326.546875 704.582031 L 335.546875 704.582031 L 335.546875 668.582031 L 313.046875 668.582031 Z M 313.046875 668.582031 " transform="matrix(1,0,0,-1,51,1054)"/>

<!-- Damage Boxes -->
<path style="fill-rule:nonzero;fill:rgb(100%,100%,100%);fill-opacity:1;stroke-width:1.5;stroke-linecap:butt;stroke-linejoin:miter;stroke:rgb(13.730068%,12.159915%,12.54902%);stroke-opacity:1;stroke-miterlimit:4;" d="M 324.296875 693.332031 L 324.296875 700.082031 L 317.546875 700.082031 L 317.546875 693.332031 L 324.296875 693.332031 Z M 324.296875 693.332031 " transform="matrix(1,0,0,-1,51,1054)"/>
<path style="fill-rule:nonzero;fill:rgb(100%,100%,100%);fill-opacity:1;stroke-width:1.5;stroke-linecap:butt;stroke-linejoin:miter;stroke:rgb(13.730068%,12.159915%,12.54902%);stroke-opacity:1;stroke-miterlimit:4;" d="M 331.046875 693.332031 L 331.046875 700.082031 L 324.296875 700.082031 L 324.296875 693.332031 L 331.046875 693.332031 Z M 331.046875 693.332031 " transform="matrix(1,0,0,-1,51,1054)"/>
<path style="fill-rule:nonzero;fill:rgb(100%,100%,100%);fill-opacity:1;stroke-width:1.5;stroke-linecap:butt;stroke-linejoin:miter;stroke:rgb(13.730068%,12.159915%,12.54902%);stroke-opacity:1;stroke-miterlimit:4;" d="M 324.296875 686.582031 L 324.296875 693.332031 L 317.546875 693.332031 L 317.546875 686.582031 L 324.296875 686.582031 Z M 324.296875 686.582031 " transform="matrix(1,0,0,-1,51,1054)"/>
<path style="fill-rule:nonzero;fill:rgb(100%,100%,100%);fill-opacity:1;stroke-width:1.5;stroke-linecap:butt;stroke-linejoin:miter;stroke:rgb(13.730068%,12.159915%,12.54902%);stroke-opacity:1;stroke-miterlimit:4;" d="M 331.046875 686.582031 L 331.046875 693.332031 L 324.296875 693.332031 L 324.296875 686.582031 L 331.046875 686.582031 Z M 331.046875 686.582031 " transform="matrix(1,0,0,-1,51,1054)"/>
<path style="fill-rule:nonzero;fill:rgb(100%,100%,100%);fill-opacity:1;stroke-width:1.5;stroke-linecap:butt;stroke-linejoin:miter;stroke:rgb(13.730068%,12.159915%,12.54902%);stroke-opacity:1;stroke-miterlimit:4;" d="M 324.296875 679.832031 L 324.296875 686.582031 L 317.546875 686.582031 L 317.546875 679.832031 L 324.296875 679.832031 Z M 324.296875 679.832031 " transform="matrix(1,0,0,-1,51,1054)"/>
<path style="fill-rule:nonzero;fill:rgb(100%,100%,100%);fill-opacity:1;stroke-width:1.5;stroke-linecap:butt;stroke-linejoin:miter;stroke:rgb(13.730068%,12.159915%,12.54902%);stroke-opacity:1;stroke-miterlimit:4;" d="M 331.046875 679.832031 L 331.046875 686.582031 L 324.296875 686.582031 L 324.296875 679.832031 L 331.046875 679.832031 Z M 331.046875 679.832031 " transform="matrix(1,0,0,-1,51,1054)"/>
<path style="fill-rule:nonzero;fill:rgb(100%,100%,100%);fill-opacity:1;stroke-width:1.5;stroke-linecap:butt;stroke-linejoin:miter;stroke:rgb(13.730068%,12.159915%,12.54902%);stroke-opacity:1;stroke-miterlimit:4;" d="M 324.296875 673.082031 L 324.296875 679.832031 L 317.546875 679.832031 L 317.546875 673.082031 L 324.296875 673.082031 Z M 324.296875 673.082031 " transform="matrix(1,0,0,-1,51,1054)"/>
<path style="fill-rule:nonzero;fill:rgb(100%,100%,100%);fill-opacity:1;stroke-width:1.5;stroke-linecap:butt;stroke-linejoin:miter;stroke:rgb(13.730068%,12.159915%,12.54902%);stroke-opacity:1;stroke-miterlimit:4;" d="M 331.046875 673.082031 L 331.046875 679.832031 L 324.296875 679.832031 L 324.296875 673.082031 L 331.046875 673.082031 Z M 331.046875 673.082031 " transform="matrix(1,0,0,-1,51,1054)"/>

</svg>