<svg xmlns="http://www.w3.org/2000/svg" xmlns:xlink="http://www.w3.org/1999/xlink" width="612pt" height="792pt" viewBox="0 0 612 792" version="1.1">

<!-- Particle Blaster -->
<path style="fill-rule:nonzero;fill:rgb(100%,100%,100%);fill-opacity:1;stroke-width:0.75;stroke-linecap:butt;stroke-linejoin:miter;stroke:rgb(13.730068%,12.159915%,12.54902%);stroke-opacity:1;stroke-miterlimit:4;" d="M 60.75 362.582031 L 60.75 398.582031 L 69.75 398.582031 L 63 398.582031 L 60.75 403.082031 L 67.5 403.082031 L 69.75 409.832031 L 74.25 409.832031 L 76.5 403.082031 L 83.25 403.082031 L 81 398.582031 L 74.25 398.582031 L 83.25 398.582031 L 83.25 362.582031 L 60.75 362.582031 Z M 60.75 362.582031 " transform="matrix(1,0,0,-1,0,793)"/>

<!-- Damage Boxes -->
<path style="fill-rule:nonzero;fill:rgb(100%,100%,100%);fill-opacity:1;stroke-width:1.5;stroke-linecap:butt;stroke-linejoin:miter;stroke:rgb(13.730068%,12.159915%,12.54902%);stroke-opacity:1;stroke-miterlimit:4;" d="M 72 387.332031 L 72 394.082031 L 65.25 394.082031 L 65.25 387.332031 L 72 387.332031 Z M 72 387.332031 " transform="matrix(1,0,0,-1,0,793)"/>
<path style="fill-rule:nonzero;fill:rgb(100%,100%,100%);fill-opacity:1;stroke-width:1.5;stroke-linecap:butt;stroke-linejoin:miter;stroke:rgb(13.730068%,12.159915%,12.54902%);stroke-opacity:1;stroke-miterlimit:4;" d="M 78.75 387.332031 L 78.75 394.082031 L 72 394.082031 L 72 387.332031 L 78.75 387.332031 Z M 78.75 387.332031 " transform="matrix(1,0,0,-1,0,793)"/>
<path style="fill-rule:nonzero;fill:rgb(100%,100%,100%);fill-opacity:1;stroke-width:1.5;stroke-linecap:butt;stroke-linejoin:miter;stroke:rgb(13.730068%,12.159915%,12.54902%);stroke-opacity:1;stroke-miterlimit:4;" d="M 72 380.582031 L 72 387.332031 L 65.25 387.332031 L 65.25 380.582031 L 72 380.582031 Z M 72 380.582031 " transform="matrix(1,0,0,-1,0,793)"/>
<path style="fill-rule:nonzero;fill:rgb(100%,100%,100%);fill-opacity:1;stroke-width:1.5;stroke-linecap:butt;stroke-linejoin:miter;stroke:rgb(13.730068%,12.159915%,12.54902%);stroke-opacity:1;stroke-miterlimit:4;" d="M 78.75 380.582031 L 78.75 387.332031 L 72 387.332031 L 72 380.582031 L 78.75 380.582031 Z M 78.75 380.582031 " transform="matrix(1,0,0,-1,0,793)"/>
<path style="fill-rule:nonzero;fill:rgb(100%,100%,100%);fill-opacity:1;stroke-width:1.5;stroke-linecap:butt;stroke-linejoin:miter;stroke:rgb(13.730068%,12.159915%,12.54902%);stroke-opacity:1;stroke-miterlimit:4;" d="M 72 373.832031 L 72 380.582031 L 65.25 380.582031 L 65.25 373.832031 L 72 373.832031 Z M 72 373.832031 " transform="matrix(1,0,0,-1,0,793)"/>
<path style="fill-rule:nonzero;fill:rgb(100%,100%,100%);fill-opacity:1;stroke-width:1.5;stroke-linecap:butt;stroke-linejoin:miter;stroke:rgb(13.730068%,12.159915%,12.54902%);stroke-opacity:1;stroke-miterlimit:4;" d="M 78.75 373.832031 L 78.75 380.582031 L 72 380.582031 L 72 373.832031 L 78.75 373.832031 Z M 78.75 373.832031 " transform="matrix(1,0,0,-1,0,793)"/>
<path style="fill-rule:nonzero;fill:rgb(100%,100%,100%);fill-opacity:1;stroke-width:1.5;stroke-linecap:butt;stroke-linejoin:miter;stroke:rgb(13.730068%,12.159915%,12.54902%);stroke-opacity:1;stroke-miterlimit:4;" d="M 72 367.082031 L 72 373.832031 L 65.25 373.832031 L 65.25 367.082031 L 72 367.082031 Z M 72 367.082031 " transform="matrix(1,0,0,-1,0,793)"/>
<path style="fill-rule:nonzero;fill:rgb(100%,100%,100%);fill-opacity:1;stroke-width:1.5;stroke-linecap:butt;stroke-linejoin:miter;stroke:rgb(13.730068%,12.159915%,12.54902%);stroke-opacity:1;stroke-miterlimit:4;" d="M 78.75 367.082031 L 78.75 373.832031 L 72 373.832031 L 72 367.082031 L 78.75 367.082031 Z M 78.75 367.082031 " transform="matrix(1,0,0,-1,0,793)"/>

</svg>