<svg xmlns="http://www.w3.org/2000/svg" xmlns:xlink="http://www.w3.org/1999/xlink" width="612pt" height="792pt" viewBox="0 0 612 792" version="1.1">

<!-- Pentagon Array -->
<path style="fill-rule:nonzero;fill:rgb(100%,100%,100%);fill-opacity:1;stroke-width:0.75;stroke-linecap:butt;stroke-linejoin:miter;stroke:rgb(13.730068%,12.159915%,12.54902%);stroke-opacity:1;stroke-miterlimit:4;" d="M 157.613281 363.375 L 146.363281 363.375 L 137.363281 379.125 L 147.363281 392.625 L 147.363281 397.125 L 149.613281 397.125 L 149.613281 394.875 L 151.863281 394.875 L 151.863281 399.375 L 154.113281 399.375 L 154.113281 397.125 L 156.363281 397.125 L 156.363281 401.625 L 158.613281 401.625 L 158.613281 397.125 L 160.863281 397.125 L 160.863281 399.375 L 163.113281 399.375 L 163.113281 394.875 L 165.363281 394.875 L 165.363281 397.125 L 167.613281 397.125 L 167.613281 392.625 L 177.863281 379.125 L 168.863281 363.375 L 157.613281 363.375 Z M 157.613281 363.375 " transform="matrix(1,0,0,-1,0,793)"/>

<!-- Damage Boxes -->
<path style="fill-rule:nonzero;fill:rgb(100%,100%,100%);fill-opacity:1;stroke-width:1.5;stroke-linecap:butt;stroke-linejoin:miter;stroke:rgb(13.730068%,12.159915%,12.54902%);stroke-opacity:1;stroke-miterlimit:4;" d="M 157.613281 381.375 L 157.613281 388.125 L 150.863281 388.125 L 150.863281 381.375 L 157.613281 381.375 Z M 157.613281 381.375 " transform="matrix(1,0,0,-1,0,793)"/>
<path style="fill-rule:nonzero;fill:rgb(100%,100%,100%);fill-opacity:1;stroke-width:1.5;stroke-linecap:butt;stroke-linejoin:miter;stroke:rgb(13.730068%,12.159915%,12.54902%);stroke-opacity:1;stroke-miterlimit:4;" d="M 164.363281 381.375 L 164.363281 388.125 L 157.613281 388.125 L 157.613281 381.375 L 164.363281 381.375 Z M 164.363281 381.375 " transform="matrix(1,0,0,-1,0,793)"/>
<path style="fill-rule:nonzero;fill:rgb(100%,100%,100%);fill-opacity:1;stroke-width:1.5;stroke-linecap:butt;stroke-linejoin:miter;stroke:rgb(13.730068%,12.159915%,12.54902%);stroke-opacity:1;stroke-miterlimit:4;" d="M 150.863281 374.625 L 150.863281 381.375 L 144.113281 381.375 L 144.113281 374.625 L 150.863281 374.625 Z M 150.863281 374.625 " transform="matrix(1,0,0,-1,0,793)"/>
<path style="fill-rule:nonzero;fill:rgb(100%,100%,100%);fill-opacity:1;stroke-width:1.5;stroke-linecap:butt;stroke-linejoin:miter;stroke:rgb(13.730068%,12.159915%,12.54902%);stroke-opacity:1;stroke-miterlimit:4;" d="M 157.613281 374.625 L 157.613281 381.375 L 150.863281 381.375 L 150.863281 374.625 L 157.613281 374.625 Z M 157.613281 374.625 " transform="matrix(1,0,0,-1,0,793)"/>
<path style="fill-rule:nonzero;fill:rgb(100%,100%,100%);fill-opacity:1;stroke-width:1.5;stroke-linecap:butt;stroke-linejoin:miter;stroke:rgb(13.730068%,12.159915%,12.54902%);stroke-opacity:1;stroke-miterlimit:4;" d="M 164.363281 374.625 L 164.363281 381.375 L 157.613281 381.375 L 157.613281 374.625 L 164.363281 374.625 Z M 164.363281 374.625 " transform="matrix(1,0,0,-1,0,793)"/>
<path style="fill-rule:nonzero;fill:rgb(100%,100%,100%);fill-opacity:1;stroke-width:1.5;stroke-linecap:butt;stroke-linejoin:miter;stroke:rgb(13.730068%,12.159915%,12.54902%);stroke-opacity:1;stroke-miterlimit:4;" d="M 171.113281 374.625 L 171.113281 381.375 L 164.363281 381.375 L 164.363281 374.625 L 171.113281 374.625 Z M 171.113281 374.625 " transform="matrix(1,0,0,-1,0,793)"/>
<path style="fill-rule:nonzero;fill:rgb(100%,100%,100%);fill-opacity:1;stroke-width:1.5;stroke-linecap:butt;stroke-linejoin:miter;stroke:rgb(13.730068%,12.159915%,12.54902%);stroke-opacity:1;stroke-miterlimit:4;" d="M 157.613281 367.875 L 157.613281 374.625 L 150.863281 374.625 L 150.863281 367.875 L 157.613281 367.875 Z M 157.613281 367.875 " transform="matrix(1,0,0,-1,0,793)"/>
<path style="fill-rule:nonzero;fill:rgb(100%,100%,100%);fill-opacity:1;stroke-width:1.5;stroke-linecap:butt;stroke-linejoin:miter;stroke:rgb(13.730068%,12.159915%,12.54902%);stroke-opacity:1;stroke-miterlimit:4;" d="M 164.363281 367.875 L 164.363281 374.625 L 157.613281 374.625 L 157.613281 367.875 L 164.363281 367.875 Z M 164.363281 367.875 " transform="matrix(1,0,0,-1,0,793)"/>

</svg>