<svg xmlns="http://www.w3.org/2000/svg" xmlns:xlink="http://www.w3.org/1999/xlink" width="612pt" height="792pt" viewBox="0 0 612 792" version="1.1">

<!-- Phased Gravitic Torpedo -->
<path style="fill-rule:nonzero;fill:rgb(100%,100%,100%);fill-opacity:1;stroke-width:0.75;stroke-linecap:butt;stroke-linejoin:miter;stroke:rgb(13.730068%,12.159915%,12.54902%);stroke-opacity:1;stroke-miterlimit:4;" d="M 67.628906 242.953125 L 86.003906 242.953125 L 95.9375 252.183594 L 95.9375 269.808594 L 86.003906 279.453125 C 86.003906 279.453125 88.070312 281.703125 88.070312 283.953125 C 88.070312 286.203125 85.820312 288.453125 85.820312 288.453125 L 83.570312 288.453125 L 76.820312 310.953125 L 70.070312 288.453125 L 67.820312 288.453125 C 67.820312 288.453125 65.570312 286.203125 65.570312 283.953125 C 65.570312 281.703125 67.628906 279.453125 67.628906 279.453125 L 57.6875 269.808594 L 57.6875 252.183594 L 67.628906 242.953125 Z M 67.628906 242.953125 " transform="matrix(1,0,0,-1,0,793)"/>
<path style="fill-rule:nonzero;fill:rgb(100%,100%,100%);fill-opacity:1;stroke-width:0.75;stroke-linecap:butt;stroke-linejoin:miter;stroke:rgb(13.730068%,12.159915%,12.54902%);stroke-opacity:1;stroke-miterlimit:4;" d="M 71.6875 285.421875 C 73.835938 285.421875 75.574219 287.320312 75.574219 289.664062 C 75.574219 292.007812 73.835938 293.90625 71.6875 293.90625 C 69.539062 293.90625 67.796875 292.007812 67.796875 289.664062 C 67.796875 287.320312 69.539062 285.421875 71.6875 285.421875 Z M 71.6875 285.421875 " transform="matrix(1,0,0,-1,0,793)"/>
<path style="fill-rule:nonzero;fill:rgb(100%,100%,100%);fill-opacity:1;stroke-width:0.75;stroke-linecap:butt;stroke-linejoin:miter;stroke:rgb(13.730068%,12.159915%,12.54902%);stroke-opacity:1;stroke-miterlimit:4;" d="M 81.9375 285.421875 C 84.085938 285.421875 85.824219 287.320312 85.824219 289.664062 C 85.824219 292.007812 84.085938 293.90625 81.9375 293.90625 C 79.789062 293.90625 78.046875 292.007812 78.046875 289.664062 C 78.046875 287.320312 79.789062 285.421875 81.9375 285.421875 Z M 81.9375 285.421875 " transform="matrix(1,0,0,-1,0,793)"/>
<path style="fill-rule:nonzero;fill:rgb(100%,100%,100%);fill-opacity:1;stroke-width:0.75;stroke-linecap:butt;stroke-linejoin:miter;stroke:rgb(13.730068%,12.159915%,12.54902%);stroke-opacity:1;stroke-miterlimit:4;" d="M 76.8125 285.421875 C 78.960938 285.421875 80.699219 287.320312 80.699219 289.664062 C 80.699219 292.007812 78.960938 293.90625 76.8125 293.90625 C 74.664062 293.90625 72.921875 292.007812 72.921875 289.664062 C 72.921875 287.320312 74.664062 285.421875 76.8125 285.421875 Z M 76.8125 285.421875 " transform="matrix(1,0,0,-1,0,793)"/>
<path style="fill-rule:nonzero;fill:rgb(100%,100%,100%);fill-opacity:1;stroke-width:0.75;stroke-linecap:butt;stroke-linejoin:miter;stroke:rgb(13.730068%,12.159915%,12.54902%);stroke-opacity:1;stroke-miterlimit:4;" d="M 71.6875 275.921875 C 73.835938 275.921875 75.574219 277.820312 75.574219 280.164062 C 75.574219 282.507812 73.835938 284.40625 71.6875 284.40625 C 69.539062 284.40625 67.796875 282.507812 67.796875 280.164062 C 67.796875 277.820312 69.539062 275.921875 71.6875 275.921875 Z M 71.6875 275.921875 " transform="matrix(1,0,0,-1,0,793)"/>
<path style="fill-rule:nonzero;fill:rgb(100%,100%,100%);fill-opacity:1;stroke-width:0.75;stroke-linecap:butt;stroke-linejoin:miter;stroke:rgb(13.730068%,12.159915%,12.54902%);stroke-opacity:1;stroke-miterlimit:4;" d="M 81.9375 275.921875 C 84.085938 275.921875 85.824219 277.820312 85.824219 280.164062 C 85.824219 282.507812 84.085938 284.40625 81.9375 284.40625 C 79.789062 284.40625 78.046875 282.507812 78.046875 280.164062 C 78.046875 277.820312 79.789062 275.921875 81.9375 275.921875 Z M 81.9375 275.921875 " transform="matrix(1,0,0,-1,0,793)"/>
<path style="fill-rule:nonzero;fill:rgb(100%,100%,100%);fill-opacity:1;stroke-width:0.75;stroke-linecap:butt;stroke-linejoin:miter;stroke:rgb(13.730068%,12.159915%,12.54902%);stroke-opacity:1;stroke-miterlimit:4;" d="M 76.8125 275.921875 C 78.960938 275.921875 80.699219 277.820312 80.699219 280.164062 C 80.699219 282.507812 78.960938 284.40625 76.8125 284.40625 C 74.664062 284.40625 72.921875 282.507812 72.921875 280.164062 C 72.921875 277.820312 74.664062 275.921875 76.8125 275.921875 Z M 76.8125 275.921875 " transform="matrix(1,0,0,-1,0,793)"/>
<path style="fill-rule:nonzero;fill:rgb(100%,100%,100%);fill-opacity:1;stroke-width:0.75;stroke-linecap:butt;stroke-linejoin:miter;stroke:rgb(13.730068%,12.159915%,12.54902%);stroke-opacity:1;stroke-miterlimit:4;" d="M 71.6875 280.671875 C 73.835938 280.671875 75.574219 282.570312 75.574219 284.914062 C 75.574219 287.257812 73.835938 289.15625 71.6875 289.15625 C 69.539062 289.15625 67.796875 287.257812 67.796875 284.914062 C 67.796875 282.570312 69.539062 280.671875 71.6875 280.671875 Z M 71.6875 280.671875 " transform="matrix(1,0,0,-1,0,793)"/>
<path style="fill-rule:nonzero;fill:rgb(100%,100%,100%);fill-opacity:1;stroke-width:0.75;stroke-linecap:butt;stroke-linejoin:miter;stroke:rgb(13.730068%,12.159915%,12.54902%);stroke-opacity:1;stroke-miterlimit:4;" d="M 81.9375 280.671875 C 84.085938 280.671875 85.824219 282.570312 85.824219 284.914062 C 85.824219 287.257812 84.085938 289.15625 81.9375 289.15625 C 79.789062 289.15625 78.046875 287.257812 78.046875 284.914062 C 78.046875 282.570312 79.789062 280.671875 81.9375 280.671875 Z M 81.9375 280.671875 " transform="matrix(1,0,0,-1,0,793)"/>
<path style="fill-rule:nonzero;fill:rgb(100%,100%,100%);fill-opacity:1;stroke-width:0.75;stroke-linecap:butt;stroke-linejoin:miter;stroke:rgb(13.730068%,12.159915%,12.54902%);stroke-opacity:1;stroke-miterlimit:4;" d="M 76.8125 280.671875 C 78.960938 280.671875 80.699219 282.570312 80.699219 284.914062 C 80.699219 287.257812 78.960938 289.15625 76.8125 289.15625 C 74.664062 289.15625 72.921875 287.257812 72.921875 284.914062 C 72.921875 282.570312 74.664062 280.671875 76.8125 280.671875 Z M 76.8125 280.671875 " transform="matrix(1,0,0,-1,0,793)"/>

<!-- Damage Boxes -->
<path style="fill-rule:nonzero;fill:rgb(100%,100%,100%);fill-opacity:1;stroke-width:1.5;stroke-linecap:butt;stroke-linejoin:miter;stroke:rgb(13.730068%,12.159915%,12.54902%);stroke-opacity:1;stroke-miterlimit:4;" d="M 73.4375 267.558594 L 73.4375 274.308594 L 66.6875 274.308594 L 66.6875 267.558594 L 73.4375 267.558594 Z M 73.4375 267.558594 " transform="matrix(1,0,0,-1,0,793)"/>
<path style="fill-rule:nonzero;fill:rgb(100%,100%,100%);fill-opacity:1;stroke-width:1.5;stroke-linecap:butt;stroke-linejoin:miter;stroke:rgb(13.730068%,12.159915%,12.54902%);stroke-opacity:1;stroke-miterlimit:4;" d="M 80.1875 267.558594 L 80.1875 274.308594 L 73.4375 274.308594 L 73.4375 267.558594 L 80.1875 267.558594 Z M 80.1875 267.558594 " transform="matrix(1,0,0,-1,0,793)"/>
<path style="fill-rule:nonzero;fill:rgb(100%,100%,100%);fill-opacity:1;stroke-width:1.5;stroke-linecap:butt;stroke-linejoin:miter;stroke:rgb(13.730068%,12.159915%,12.54902%);stroke-opacity:1;stroke-miterlimit:4;" d="M 86.9375 267.558594 L 86.9375 274.308594 L 80.1875 274.308594 L 80.1875 267.558594 L 86.9375 267.558594 Z M 86.9375 267.558594 " transform="matrix(1,0,0,-1,0,793)"/>
<path style="fill-rule:nonzero;fill:rgb(100%,100%,100%);fill-opacity:1;stroke-width:1.5;stroke-linecap:butt;stroke-linejoin:miter;stroke:rgb(13.730068%,12.159915%,12.54902%);stroke-opacity:1;stroke-miterlimit:4;" d="M 66.6875 260.808594 L 66.6875 267.558594 L 59.9375 267.558594 L 59.9375 260.808594 L 66.6875 260.808594 Z M 66.6875 260.808594 " transform="matrix(1,0,0,-1,0,793)"/>
<path style="fill-rule:nonzero;fill:rgb(100%,100%,100%);fill-opacity:1;stroke-width:1.5;stroke-linecap:butt;stroke-linejoin:miter;stroke:rgb(13.730068%,12.159915%,12.54902%);stroke-opacity:1;stroke-miterlimit:4;" d="M 73.4375 260.808594 L 73.4375 267.558594 L 66.6875 267.558594 L 66.6875 260.808594 L 73.4375 260.808594 Z M 73.4375 260.808594 " transform="matrix(1,0,0,-1,0,793)"/>
<path style="fill-rule:nonzero;fill:rgb(100%,100%,100%);fill-opacity:1;stroke-width:1.5;stroke-linecap:butt;stroke-linejoin:miter;stroke:rgb(13.730068%,12.159915%,12.54902%);stroke-opacity:1;stroke-miterlimit:4;" d="M 80.1875 260.808594 L 80.1875 267.558594 L 73.4375 267.558594 L 73.4375 260.808594 L 80.1875 260.808594 Z M 80.1875 260.808594 " transform="matrix(1,0,0,-1,0,793)"/>
<path style="fill-rule:nonzero;fill:rgb(100%,100%,100%);fill-opacity:1;stroke-width:1.5;stroke-linecap:butt;stroke-linejoin:miter;stroke:rgb(13.730068%,12.159915%,12.54902%);stroke-opacity:1;stroke-miterlimit:4;" d="M 86.9375 260.808594 L 86.9375 267.558594 L 80.1875 267.558594 L 80.1875 260.808594 L 86.9375 260.808594 Z M 86.9375 260.808594 " transform="matrix(1,0,0,-1,0,793)"/>
<path style="fill-rule:nonzero;fill:rgb(100%,100%,100%);fill-opacity:1;stroke-width:1.5;stroke-linecap:butt;stroke-linejoin:miter;stroke:rgb(13.730068%,12.159915%,12.54902%);stroke-opacity:1;stroke-miterlimit:4;" d="M 93.6875 260.808594 L 93.6875 267.558594 L 86.9375 267.558594 L 86.9375 260.808594 L 93.6875 260.808594 Z M 93.6875 260.808594 " transform="matrix(1,0,0,-1,0,793)"/>
<path style="fill-rule:nonzero;fill:rgb(100%,100%,100%);fill-opacity:1;stroke-width:1.5;stroke-linecap:butt;stroke-linejoin:miter;stroke:rgb(13.730068%,12.159915%,12.54902%);stroke-opacity:1;stroke-miterlimit:4;" d="M 66.6875 254.058594 L 66.6875 260.808594 L 59.9375 260.808594 L 59.9375 254.058594 L 66.6875 254.058594 Z M 66.6875 254.058594 " transform="matrix(1,0,0,-1,0,793)"/>
<path style="fill-rule:nonzero;fill:rgb(100%,100%,100%);fill-opacity:1;stroke-width:1.5;stroke-linecap:butt;stroke-linejoin:miter;stroke:rgb(13.730068%,12.159915%,12.54902%);stroke-opacity:1;stroke-miterlimit:4;" d="M 73.4375 254.058594 L 73.4375 260.808594 L 66.6875 260.808594 L 66.6875 254.058594 L 73.4375 254.058594 Z M 73.4375 254.058594 " transform="matrix(1,0,0,-1,0,793)"/>
<path style="fill-rule:nonzero;fill:rgb(100%,100%,100%);fill-opacity:1;stroke-width:1.5;stroke-linecap:butt;stroke-linejoin:miter;stroke:rgb(13.730068%,12.159915%,12.54902%);stroke-opacity:1;stroke-miterlimit:4;" d="M 80.1875 254.058594 L 80.1875 260.808594 L 73.4375 260.808594 L 73.4375 254.058594 L 80.1875 254.058594 Z M 80.1875 254.058594 " transform="matrix(1,0,0,-1,0,793)"/>
<path style="fill-rule:nonzero;fill:rgb(100%,100%,100%);fill-opacity:1;stroke-width:1.5;stroke-linecap:butt;stroke-linejoin:miter;stroke:rgb(13.730068%,12.159915%,12.54902%);stroke-opacity:1;stroke-miterlimit:4;" d="M 86.9375 254.058594 L 86.9375 260.808594 L 80.1875 260.808594 L 80.1875 254.058594 L 86.9375 254.058594 Z M 86.9375 254.058594 " transform="matrix(1,0,0,-1,0,793)"/>
<path style="fill-rule:nonzero;fill:rgb(100%,100%,100%);fill-opacity:1;stroke-width:1.5;stroke-linecap:butt;stroke-linejoin:miter;stroke:rgb(13.730068%,12.159915%,12.54902%);stroke-opacity:1;stroke-miterlimit:4;" d="M 93.6875 254.058594 L 93.6875 260.808594 L 86.9375 260.808594 L 86.9375 254.058594 L 93.6875 254.058594 Z M 93.6875 254.058594 " transform="matrix(1,0,0,-1,0,793)"/>
<path style="fill-rule:nonzero;fill:rgb(100%,100%,100%);fill-opacity:1;stroke-width:1.5;stroke-linecap:butt;stroke-linejoin:miter;stroke:rgb(13.730068%,12.159915%,12.54902%);stroke-opacity:1;stroke-miterlimit:4;" d="M 73.4375 247.476562 L 73.4375 254.226562 L 66.6875 254.226562 L 66.6875 247.476562 L 73.4375 247.476562 Z M 73.4375 247.476562 " transform="matrix(1,0,0,-1,0,793)"/>
<path style="fill-rule:nonzero;fill:rgb(100%,100%,100%);fill-opacity:1;stroke-width:1.5;stroke-linecap:butt;stroke-linejoin:miter;stroke:rgb(13.730068%,12.159915%,12.54902%);stroke-opacity:1;stroke-miterlimit:4;" d="M 80.1875 247.476562 L 80.1875 254.226562 L 73.4375 254.226562 L 73.4375 247.476562 L 80.1875 247.476562 Z M 80.1875 247.476562 " transform="matrix(1,0,0,-1,0,793)"/>
<path style="fill-rule:nonzero;fill:rgb(100%,100%,100%);fill-opacity:1;stroke-width:1.5;stroke-linecap:butt;stroke-linejoin:miter;stroke:rgb(13.730068%,12.159915%,12.54902%);stroke-opacity:1;stroke-miterlimit:4;" d="M 86.9375 247.476562 L 86.9375 254.226562 L 80.1875 254.226562 L 80.1875 247.476562 L 86.9375 247.476562 Z M 86.9375 247.476562 " transform="matrix(1,0,0,-1,0,793)"/>

</svg>