<svg xmlns="http://www.w3.org/2000/svg" xmlns:xlink="http://www.w3.org/1999/xlink" width="612pt" height="792pt" viewBox="0 0 612 792" version="1.1">

<!-- Pilot (20) -->
<path style="fill-rule:nonzero;fill:rgb(56.865797%,56.079957%,56.275273%);fill-opacity:1;stroke-width:0.75;stroke-linecap:butt;stroke-linejoin:miter;stroke:rgb(13.730068%,12.159915%,12.54902%);stroke-opacity:1;stroke-miterlimit:4;" d="M 272.339844 220.917969 C 277.3125 220.917969 281.339844 224.945312 281.339844 229.917969 L 281.339844 263.667969 C 281.339844 268.636719 277.3125 272.667969 272.339844 272.667969 L 249.839844 272.667969 C 244.871094 272.667969 240.839844 268.636719 240.839844 263.667969 L 240.839844 229.917969 C 240.839844 224.945312 244.871094 220.917969 249.839844 220.917969 L 272.339844 220.917969 Z M 272.339844 220.917969 " transform="matrix(1,0,0,-1,0,793)"/>

<!-- Damage Boxes -->
<path style="fill-rule:nonzero;fill:rgb(100%,100%,100%);fill-opacity:1;stroke-width:1.5;stroke-linecap:butt;stroke-linejoin:miter;stroke:rgb(13.730068%,12.159915%,12.54902%);stroke-opacity:1;stroke-miterlimit:4;" d="M 261.089844 260.25 L 261.089844 267 L 254.339844 267 L 254.339844 260.25 L 261.089844 260.25 Z M 261.089844 260.25 " transform="matrix(1,0,0,-1,0,793)"/>
<path style="fill-rule:nonzero;fill:rgb(100%,100%,100%);fill-opacity:1;stroke-width:1.5;stroke-linecap:butt;stroke-linejoin:miter;stroke:rgb(13.730068%,12.159915%,12.54902%);stroke-opacity:1;stroke-miterlimit:4;" d="M 267.839844 260.25 L 267.839844 267 L 261.089844 267 L 261.089844 260.25 L 267.839844 260.25 Z M 267.839844 260.25 " transform="matrix(1,0,0,-1,0,793)"/>
<path style="fill-rule:nonzero;fill:rgb(100%,100%,100%);fill-opacity:1;stroke-width:1.5;stroke-linecap:butt;stroke-linejoin:miter;stroke:rgb(13.730068%,12.159915%,12.54902%);stroke-opacity:1;stroke-miterlimit:4;" d="M 254.339844 253.550781 L 254.339844 260.300781 L 247.589844 260.300781 L 247.589844 253.550781 L 254.339844 253.550781 Z M 254.339844 253.550781 " transform="matrix(1,0,0,-1,0,793)"/>
<path style="fill-rule:nonzero;fill:rgb(100%,100%,100%);fill-opacity:1;stroke-width:1.5;stroke-linecap:butt;stroke-linejoin:miter;stroke:rgb(13.730068%,12.159915%,12.54902%);stroke-opacity:1;stroke-miterlimit:4;" d="M 261.050781 253.550781 L 261.050781 260.300781 L 254.300781 260.300781 L 254.300781 253.550781 L 261.050781 253.550781 Z M 261.050781 253.550781 " transform="matrix(1,0,0,-1,0,793)"/>
<path style="fill-rule:nonzero;fill:rgb(100%,100%,100%);fill-opacity:1;stroke-width:1.5;stroke-linecap:butt;stroke-linejoin:miter;stroke:rgb(13.730068%,12.159915%,12.54902%);stroke-opacity:1;stroke-miterlimit:4;" d="M 267.800781 253.550781 L 267.800781 260.300781 L 261.050781 260.300781 L 261.050781 253.550781 L 267.800781 253.550781 Z M 267.800781 253.550781 " transform="matrix(1,0,0,-1,0,793)"/>
<path style="fill-rule:nonzero;fill:rgb(100%,100%,100%);fill-opacity:1;stroke-width:1.5;stroke-linecap:butt;stroke-linejoin:miter;stroke:rgb(13.730068%,12.159915%,12.54902%);stroke-opacity:1;stroke-miterlimit:4;" d="M 274.589844 253.550781 L 274.589844 260.300781 L 267.839844 260.300781 L 267.839844 253.550781 L 274.589844 253.550781 Z M 274.589844 253.550781 " transform="matrix(1,0,0,-1,0,793)"/>
<path style="fill-rule:nonzero;fill:rgb(100%,100%,100%);fill-opacity:1;stroke-width:1.5;stroke-linecap:butt;stroke-linejoin:miter;stroke:rgb(13.730068%,12.159915%,12.54902%);stroke-opacity:1;stroke-miterlimit:4;" d="M 254.339844 246.847656 L 254.339844 253.597656 L 247.589844 253.597656 L 247.589844 246.847656 L 254.339844 246.847656 Z M 254.339844 246.847656 " transform="matrix(1,0,0,-1,0,793)"/>
<path style="fill-rule:nonzero;fill:rgb(100%,100%,100%);fill-opacity:1;stroke-width:1.5;stroke-linecap:butt;stroke-linejoin:miter;stroke:rgb(13.730068%,12.159915%,12.54902%);stroke-opacity:1;stroke-miterlimit:4;" d="M 261.089844 246.847656 L 261.089844 253.597656 L 254.339844 253.597656 L 254.339844 246.847656 L 261.089844 246.847656 Z M 261.089844 246.847656 " transform="matrix(1,0,0,-1,0,793)"/>
<path style="fill-rule:nonzero;fill:rgb(100%,100%,100%);fill-opacity:1;stroke-width:1.5;stroke-linecap:butt;stroke-linejoin:miter;stroke:rgb(13.730068%,12.159915%,12.54902%);stroke-opacity:1;stroke-miterlimit:4;" d="M 267.839844 246.847656 L 267.839844 253.597656 L 261.089844 253.597656 L 261.089844 246.847656 L 267.839844 246.847656 Z M 267.839844 246.847656 " transform="matrix(1,0,0,-1,0,793)"/>
<path style="fill-rule:nonzero;fill:rgb(100%,100%,100%);fill-opacity:1;stroke-width:1.5;stroke-linecap:butt;stroke-linejoin:miter;stroke:rgb(13.730068%,12.159915%,12.54902%);stroke-opacity:1;stroke-miterlimit:4;" d="M 274.589844 246.847656 L 274.589844 253.597656 L 267.839844 253.597656 L 267.839844 246.847656 L 274.589844 246.847656 Z M 274.589844 246.847656 " transform="matrix(1,0,0,-1,0,793)"/>
<path style="fill-rule:nonzero;fill:rgb(100%,100%,100%);fill-opacity:1;stroke-width:1.5;stroke-linecap:butt;stroke-linejoin:miter;stroke:rgb(13.730068%,12.159915%,12.54902%);stroke-opacity:1;stroke-miterlimit:4;" d="M 254.339844 240.148438 L 254.339844 246.898438 L 247.589844 246.898438 L 247.589844 240.148438 L 254.339844 240.148438 Z M 254.339844 240.148438 " transform="matrix(1,0,0,-1,0,793)"/>
<path style="fill-rule:nonzero;fill:rgb(100%,100%,100%);fill-opacity:1;stroke-width:1.5;stroke-linecap:butt;stroke-linejoin:miter;stroke:rgb(13.730068%,12.159915%,12.54902%);stroke-opacity:1;stroke-miterlimit:4;" d="M 261.089844 240.148438 L 261.089844 246.898438 L 254.339844 246.898438 L 254.339844 240.148438 L 261.089844 240.148438 Z M 261.089844 240.148438 " transform="matrix(1,0,0,-1,0,793)"/>
<path style="fill-rule:nonzero;fill:rgb(100%,100%,100%);fill-opacity:1;stroke-width:1.5;stroke-linecap:butt;stroke-linejoin:miter;stroke:rgb(13.730068%,12.159915%,12.54902%);stroke-opacity:1;stroke-miterlimit:4;" d="M 267.839844 240.148438 L 267.839844 246.898438 L 261.089844 246.898438 L 261.089844 240.148438 L 267.839844 240.148438 Z M 267.839844 240.148438 " transform="matrix(1,0,0,-1,0,793)"/>
<path style="fill-rule:nonzero;fill:rgb(100%,100%,100%);fill-opacity:1;stroke-width:1.5;stroke-linecap:butt;stroke-linejoin:miter;stroke:rgb(13.730068%,12.159915%,12.54902%);stroke-opacity:1;stroke-miterlimit:4;" d="M 274.589844 240.148438 L 274.589844 246.898438 L 267.839844 246.898438 L 267.839844 240.148438 L 274.589844 240.148438 Z M 274.589844 240.148438 " transform="matrix(1,0,0,-1,0,793)"/>
<path style="fill-rule:nonzero;fill:rgb(100%,100%,100%);fill-opacity:1;stroke-width:1.5;stroke-linecap:butt;stroke-linejoin:miter;stroke:rgb(13.730068%,12.159915%,12.54902%);stroke-opacity:1;stroke-miterlimit:4;" d="M 254.339844 233.449219 L 254.339844 240.199219 L 247.589844 240.199219 L 247.589844 233.449219 L 254.339844 233.449219 Z M 254.339844 233.449219 " transform="matrix(1,0,0,-1,0,793)"/>
<path style="fill-rule:nonzero;fill:rgb(100%,100%,100%);fill-opacity:1;stroke-width:1.5;stroke-linecap:butt;stroke-linejoin:miter;stroke:rgb(13.730068%,12.159915%,12.54902%);stroke-opacity:1;stroke-miterlimit:4;" d="M 261.089844 233.449219 L 261.089844 240.199219 L 254.339844 240.199219 L 254.339844 233.449219 L 261.089844 233.449219 Z M 261.089844 233.449219 " transform="matrix(1,0,0,-1,0,793)"/>
<path style="fill-rule:nonzero;fill:rgb(100%,100%,100%);fill-opacity:1;stroke-width:1.5;stroke-linecap:butt;stroke-linejoin:miter;stroke:rgb(13.730068%,12.159915%,12.54902%);stroke-opacity:1;stroke-miterlimit:4;" d="M 267.839844 233.449219 L 267.839844 240.199219 L 261.089844 240.199219 L 261.089844 233.449219 L 267.839844 233.449219 Z M 267.839844 233.449219 " transform="matrix(1,0,0,-1,0,793)"/>
<path style="fill-rule:nonzero;fill:rgb(100%,100%,100%);fill-opacity:1;stroke-width:1.5;stroke-linecap:butt;stroke-linejoin:miter;stroke:rgb(13.730068%,12.159915%,12.54902%);stroke-opacity:1;stroke-miterlimit:4;" d="M 274.589844 233.449219 L 274.589844 240.199219 L 267.839844 240.199219 L 267.839844 233.449219 L 274.589844 233.449219 Z M 274.589844 233.449219 " transform="matrix(1,0,0,-1,0,793)"/>
<path style="fill-rule:nonzero;fill:rgb(100%,100%,100%);fill-opacity:1;stroke-width:1.5;stroke-linecap:butt;stroke-linejoin:miter;stroke:rgb(13.730068%,12.159915%,12.54902%);stroke-opacity:1;stroke-miterlimit:4;" d="M 261.089844 226.75 L 261.089844 233.5 L 254.339844 233.5 L 254.339844 226.75 L 261.089844 226.75 Z M 261.089844 226.75 " transform="matrix(1,0,0,-1,0,793)"/>
<path style="fill-rule:nonzero;fill:rgb(100%,100%,100%);fill-opacity:1;stroke-width:1.5;stroke-linecap:butt;stroke-linejoin:miter;stroke:rgb(13.730068%,12.159915%,12.54902%);stroke-opacity:1;stroke-miterlimit:4;" d="M 267.839844 226.75 L 267.839844 233.5 L 261.089844 233.5 L 261.089844 226.75 L 267.839844 226.75 Z M 267.839844 226.75 " transform="matrix(1,0,0,-1,0,793)"/>

</svg>