<svg xmlns="http://www.w3.org/2000/svg" xmlns:xlink="http://www.w3.org/1999/xlink" width="612pt" height="792pt" viewBox="0 0 612 792" version="1.1">

<!-- Pilot (8) -->
<path style="fill-rule:nonzero;fill:rgb(56.865797%,56.079957%,56.275273%);fill-opacity:1;stroke-width:0.75;stroke-linecap:butt;stroke-linejoin:miter;stroke:rgb(13.730068%,12.159915%,12.54902%);stroke-opacity:1;stroke-miterlimit:4;" d="M 290.25 303 C 295.21875 303 299.25 307.027344 299.25 312 L 299.25 318.75 C 299.25 323.71875 295.21875 327.75 290.25 327.75 L 267.75 327.75 C 262.78125 327.75 258.75 323.71875 258.75 318.75 L 258.75 312 C 258.75 307.027344 262.78125 303 267.75 303 L 290.25 303 Z M 290.25 303 " transform="matrix(1,0,0,-1,0,793)"/>

<!-- Damage Boxes -->
<path style="fill-rule:nonzero;fill:rgb(100%,100%,100%);fill-opacity:1;stroke-width:1.5;stroke-linecap:butt;stroke-linejoin:miter;stroke:rgb(13.730068%,12.159915%,12.54902%);stroke-opacity:1;stroke-miterlimit:4;" d="M 272.25 315 L 272.25 321.75 L 265.5 321.75 L 265.5 315 L 272.25 315 Z M 272.25 315 " transform="matrix(1,0,0,-1,0,793)"/>
<path style="fill-rule:nonzero;fill:rgb(100%,100%,100%);fill-opacity:1;stroke-width:1.5;stroke-linecap:butt;stroke-linejoin:miter;stroke:rgb(13.730068%,12.159915%,12.54902%);stroke-opacity:1;stroke-miterlimit:4;" d="M 279 315 L 279 321.75 L 272.25 321.75 L 272.25 315 L 279 315 Z M 279 315 " transform="matrix(1,0,0,-1,0,793)"/>
<path style="fill-rule:nonzero;fill:rgb(100%,100%,100%);fill-opacity:1;stroke-width:1.5;stroke-linecap:butt;stroke-linejoin:miter;stroke:rgb(13.730068%,12.159915%,12.54902%);stroke-opacity:1;stroke-miterlimit:4;" d="M 285.75 315 L 285.75 321.75 L 279 321.75 L 279 315 L 285.75 315 Z M 285.75 315 " transform="matrix(1,0,0,-1,0,793)"/>
<path style="fill-rule:nonzero;fill:rgb(100%,100%,100%);fill-opacity:1;stroke-width:1.5;stroke-linecap:butt;stroke-linejoin:miter;stroke:rgb(13.730068%,12.159915%,12.54902%);stroke-opacity:1;stroke-miterlimit:4;" d="M 292.5 315 L 292.5 321.75 L 285.75 321.75 L 285.75 315 L 292.5 315 Z M 292.5 315 " transform="matrix(1,0,0,-1,0,793)"/>
<path style="fill-rule:nonzero;fill:rgb(100%,100%,100%);fill-opacity:1;stroke-width:1.5;stroke-linecap:butt;stroke-linejoin:miter;stroke:rgb(13.730068%,12.159915%,12.54902%);stroke-opacity:1;stroke-miterlimit:4;" d="M 272.25 308.25 L 272.25 315 L 265.5 315 L 265.5 308.25 L 272.25 308.25 Z M 272.25 308.25 " transform="matrix(1,0,0,-1,0,793)"/>
<path style="fill-rule:nonzero;fill:rgb(100%,100%,100%);fill-opacity:1;stroke-width:1.5;stroke-linecap:butt;stroke-linejoin:miter;stroke:rgb(13.730068%,12.159915%,12.54902%);stroke-opacity:1;stroke-miterlimit:4;" d="M 279 308.25 L 279 315 L 272.25 315 L 272.25 308.25 L 279 308.25 Z M 279 308.25 " transform="matrix(1,0,0,-1,0,793)"/>
<path style="fill-rule:nonzero;fill:rgb(100%,100%,100%);fill-opacity:1;stroke-width:1.5;stroke-linecap:butt;stroke-linejoin:miter;stroke:rgb(13.730068%,12.159915%,12.54902%);stroke-opacity:1;stroke-miterlimit:4;" d="M 285.75 308.25 L 285.75 315 L 279 315 L 279 308.25 L 285.75 308.25 Z M 285.75 308.25 " transform="matrix(1,0,0,-1,0,793)"/>
<path style="fill-rule:nonzero;fill:rgb(100%,100%,100%);fill-opacity:1;stroke-width:1.5;stroke-linecap:butt;stroke-linejoin:miter;stroke:rgb(13.730068%,12.159915%,12.54902%);stroke-opacity:1;stroke-miterlimit:4;" d="M 292.5 308.25 L 292.5 315 L 285.75 315 L 285.75 308.25 L 292.5 308.25 Z M 292.5 308.25 " transform="matrix(1,0,0,-1,0,793)"/>

</svg>