<svg xmlns="http://www.w3.org/2000/svg" xmlns:xlink="http://www.w3.org/1999/xlink" width="612pt" height="792pt" viewBox="0 0 612 792" version="1.1">

<!-- Plasma Projector -->
<path style="fill-rule:nonzero;fill:rgb(100%,100%,100%);fill-opacity:1;stroke-width:0.75;stroke-linecap:butt;stroke-linejoin:miter;stroke:rgb(13.730068%,12.159915%,12.54902%);stroke-opacity:1;stroke-miterlimit:4;" d="M 218.25 528.75 L 220.5 519.75 L 225 526.5 L 222.75 517.5 L 229.5 519.75 L 225 513 L 222.75 513 L 222.75 510.75 L 229.5 510.75 L 229.5 474.75 L 218.25 474.75 L 207 474.75 L 207 510.75 L 213.75 510.75 L 213.75 513 L 211.5 513 L 207 519.75 L 213.75 517.5 L 211.5 526.5 L 216 519.75 L 218.25 528.75 Z M 218.25 528.75 " transform="matrix(1,0,0,-1,0,793)"/>

<!-- Damage Boxes -->
<path style="fill-rule:nonzero;fill:rgb(100%,100%,100%);fill-opacity:1;stroke-width:1.5;stroke-linecap:butt;stroke-linejoin:miter;stroke:rgb(13.730068%,12.159915%,12.54902%);stroke-opacity:1;stroke-miterlimit:4;" d="M 218.25 499.5 L 218.25 506.25 L 211.5 506.25 L 211.5 499.5 L 218.25 499.5 Z M 218.25 499.5 " transform="matrix(1,0,0,-1,0,793)"/>
<path style="fill-rule:nonzero;fill:rgb(100%,100%,100%);fill-opacity:1;stroke-width:1.5;stroke-linecap:butt;stroke-linejoin:miter;stroke:rgb(13.730068%,12.159915%,12.54902%);stroke-opacity:1;stroke-miterlimit:4;" d="M 225 499.5 L 225 506.25 L 218.25 506.25 L 218.25 499.5 L 225 499.5 Z M 225 499.5 " transform="matrix(1,0,0,-1,0,793)"/>
<path style="fill-rule:nonzero;fill:rgb(100%,100%,100%);fill-opacity:1;stroke-width:1.5;stroke-linecap:butt;stroke-linejoin:miter;stroke:rgb(13.730068%,12.159915%,12.54902%);stroke-opacity:1;stroke-miterlimit:4;" d="M 218.25 492.75 L 218.25 499.5 L 211.5 499.5 L 211.5 492.75 L 218.25 492.75 Z M 218.25 492.75 " transform="matrix(1,0,0,-1,0,793)"/>
<path style="fill-rule:nonzero;fill:rgb(100%,100%,100%);fill-opacity:1;stroke-width:1.5;stroke-linecap:butt;stroke-linejoin:miter;stroke:rgb(13.730068%,12.159915%,12.54902%);stroke-opacity:1;stroke-miterlimit:4;" d="M 225 492.75 L 225 499.5 L 218.25 499.5 L 218.25 492.75 L 225 492.75 Z M 225 492.75 " transform="matrix(1,0,0,-1,0,793)"/>
<path style="fill-rule:nonzero;fill:rgb(100%,100%,100%);fill-opacity:1;stroke-width:1.5;stroke-linecap:butt;stroke-linejoin:miter;stroke:rgb(13.730068%,12.159915%,12.54902%);stroke-opacity:1;stroke-miterlimit:4;" d="M 218.25 486 L 218.25 492.75 L 211.5 492.75 L 211.5 486 L 218.25 486 Z M 218.25 486 " transform="matrix(1,0,0,-1,0,793)"/>
<path style="fill-rule:nonzero;fill:rgb(100%,100%,100%);fill-opacity:1;stroke-width:1.5;stroke-linecap:butt;stroke-linejoin:miter;stroke:rgb(13.730068%,12.159915%,12.54902%);stroke-opacity:1;stroke-miterlimit:4;" d="M 225 486 L 225 492.75 L 218.25 492.75 L 218.25 486 L 225 486 Z M 225 486 " transform="matrix(1,0,0,-1,0,793)"/>
<path style="fill-rule:nonzero;fill:rgb(100%,100%,100%);fill-opacity:1;stroke-width:1.5;stroke-linecap:butt;stroke-linejoin:miter;stroke:rgb(13.730068%,12.159915%,12.54902%);stroke-opacity:1;stroke-miterlimit:4;" d="M 218.25 479.25 L 218.25 486 L 211.5 486 L 211.5 479.25 L 218.25 479.25 Z M 218.25 479.25 " transform="matrix(1,0,0,-1,0,793)"/>
<path style="fill-rule:nonzero;fill:rgb(100%,100%,100%);fill-opacity:1;stroke-width:1.5;stroke-linecap:butt;stroke-linejoin:miter;stroke:rgb(13.730068%,12.159915%,12.54902%);stroke-opacity:1;stroke-miterlimit:4;" d="M 225 479.25 L 225 486 L 218.25 486 L 218.25 479.25 L 225 479.25 Z M 225 479.25 " transform="matrix(1,0,0,-1,0,793)"/>

</svg>