<svg xmlns="http://www.w3.org/2000/svg" xmlns:xlink="http://www.w3.org/1999/xlink" width="612pt" height="792pt" viewBox="0 0 612 792" version="1.1">

<!-- Plasma Web -->
<path style="fill-rule:nonzero;fill:rgb(100%,100%,100%);fill-opacity:1;stroke-width:0.75;stroke-linecap:butt;stroke-linejoin:miter;stroke:rgb(13.730068%,12.159915%,12.54902%);stroke-opacity:1;stroke-miterlimit:4;" d="M 148.5 484.449219 L 141.75 491.199219 L 141.75 513.699219 L 146.25 509.199219 L 150.75 513.699219 L 155.25 509.199219 L 159.75 513.699219 L 164.25 509.199219 L 168.75 513.699219 L 168.75 491.199219 L 162 484.449219 L 148.5 484.449219 " transform="matrix(1,0,0,-1,17,773)"/>

<!-- Damage Boxes -->
<path style="fill-rule:nonzero;fill:rgb(100%,100%,100%);fill-opacity:1;stroke-width:1.5;stroke-linecap:butt;stroke-linejoin:miter;stroke:rgb(13.730068%,12.159915%,12.54902%);stroke-opacity:1;stroke-miterlimit:4;" d="M 155.25 497.949219 L 155.25 504.699219 L 148.5 504.699219 L 148.5 497.949219 L 155.25 497.949219 Z M 155.25 497.949219 " transform="matrix(1,0,0,-1,17,773)"/>
<path style="fill-rule:nonzero;fill:rgb(100%,100%,100%);fill-opacity:1;stroke-width:1.5;stroke-linecap:butt;stroke-linejoin:miter;stroke:rgb(13.730068%,12.159915%,12.54902%);stroke-opacity:1;stroke-miterlimit:4;" d="M 162 497.949219 L 162 504.699219 L 155.25 504.699219 L 155.25 497.949219 L 162 497.949219 Z M 162 497.949219 " transform="matrix(1,0,0,-1,17,773)"/>
<path style="fill-rule:nonzero;fill:rgb(100%,100%,100%);fill-opacity:1;stroke-width:1.5;stroke-linecap:butt;stroke-linejoin:miter;stroke:rgb(13.730068%,12.159915%,12.54902%);stroke-opacity:1;stroke-miterlimit:4;" d="M 155.25 491.199219 L 155.25 497.949219 L 148.5 497.949219 L 148.5 491.199219 L 155.25 491.199219 Z M 155.25 491.199219 " transform="matrix(1,0,0,-1,17,773)"/>
<path style="fill-rule:nonzero;fill:rgb(100%,100%,100%);fill-opacity:1;stroke-width:1.5;stroke-linecap:butt;stroke-linejoin:miter;stroke:rgb(13.730068%,12.159915%,12.54902%);stroke-opacity:1;stroke-miterlimit:4;" d="M 162 491.199219 L 162 497.949219 L 155.25 497.949219 L 155.25 491.199219 L 162 491.199219 Z M 162 491.199219 " transform="matrix(1,0,0,-1,17,773)"/>

</svg>