<svg xmlns="http://www.w3.org/2000/svg" xmlns:xlink="http://www.w3.org/1999/xlink" width="612pt" height="792pt" viewBox="0 0 612 792" version="1.1">

<!-- Plasma Battery (6) -->
<path style="fill-rule:nonzero;fill:rgb(100%,100%,100%);fill-opacity:1;stroke-width:0.75;stroke-linecap:butt;stroke-linejoin:miter;stroke:rgb(13.730068%,12.159915%,12.54902%);stroke-opacity:1;stroke-miterlimit:4;" d="M 243 465.75 L 243 495 L 249.75 495 L 249.75 499.5 C 252.222656 501.394531 256.824219 501.238281 258.75 499.5 L 258.75 495 L 265.5 495 L 265.5 465.75 L 243 465.75 Z M 243 465.75 " transform="matrix(1,0,0,-1,17,773)"/>

<!-- Damage Boxes -->
<path style="fill-rule:nonzero;fill:rgb(100%,100%,100%);fill-opacity:1;stroke-width:1.5;stroke-linecap:butt;stroke-linejoin:miter;stroke:rgb(13.730068%,12.159915%,12.54902%);stroke-opacity:1;stroke-miterlimit:4;" d="M 254.25 483.75 L 254.25 490.5 L 247.5 490.5 L 247.5 483.75 L 254.25 483.75 Z M 254.25 483.75 " transform="matrix(1,0,0,-1,17,773)"/>
<path style="fill-rule:nonzero;fill:rgb(100%,100%,100%);fill-opacity:1;stroke-width:1.5;stroke-linecap:butt;stroke-linejoin:miter;stroke:rgb(13.730068%,12.159915%,12.54902%);stroke-opacity:1;stroke-miterlimit:4;" d="M 261 483.75 L 261 490.5 L 254.25 490.5 L 254.25 483.75 L 261 483.75 Z M 261 483.75 " transform="matrix(1,0,0,-1,17,773)"/>
<path style="fill-rule:nonzero;fill:rgb(100%,100%,100%);fill-opacity:1;stroke-width:1.5;stroke-linecap:butt;stroke-linejoin:miter;stroke:rgb(13.730068%,12.159915%,12.54902%);stroke-opacity:1;stroke-miterlimit:4;" d="M 254.25 477 L 254.25 483.75 L 247.5 483.75 L 247.5 477 L 254.25 477 Z M 254.25 477 " transform="matrix(1,0,0,-1,17,773)"/>
<path style="fill-rule:nonzero;fill:rgb(100%,100%,100%);fill-opacity:1;stroke-width:1.5;stroke-linecap:butt;stroke-linejoin:miter;stroke:rgb(13.730068%,12.159915%,12.54902%);stroke-opacity:1;stroke-miterlimit:4;" d="M 261 477 L 261 483.75 L 254.25 483.75 L 254.25 477 L 261 477 Z M 261 477 " transform="matrix(1,0,0,-1,17,773)"/>
<path style="fill-rule:nonzero;fill:rgb(100%,100%,100%);fill-opacity:1;stroke-width:1.5;stroke-linecap:butt;stroke-linejoin:miter;stroke:rgb(13.730068%,12.159915%,12.54902%);stroke-opacity:1;stroke-miterlimit:4;" d="M 254.25 470.25 L 254.25 477 L 247.5 477 L 247.5 470.25 L 254.25 470.25 Z M 254.25 470.25 " transform="matrix(1,0,0,-1,17,773)"/>
<path style="fill-rule:nonzero;fill:rgb(100%,100%,100%);fill-opacity:1;stroke-width:1.5;stroke-linecap:butt;stroke-linejoin:miter;stroke:rgb(13.730068%,12.159915%,12.54902%);stroke-opacity:1;stroke-miterlimit:4;" d="M 261 470.25 L 261 477 L 254.25 477 L 254.25 470.25 L 261 470.25 Z M 261 470.25 " transform="matrix(1,0,0,-1,17,773)"/>

</svg>