<svg xmlns="http://www.w3.org/2000/svg" xmlns:xlink="http://www.w3.org/1999/xlink" width="612pt" height="792pt" viewBox="0 0 612 792" version="1.1">

<!-- Plasma Wave -->
<path style="fill-rule:nonzero;fill:rgb(100%,100%,100%);fill-opacity:1;stroke-width:0.75;stroke-linecap:butt;stroke-linejoin:miter;stroke:rgb(13.730068%,12.159915%,12.54902%);stroke-opacity:1;stroke-miterlimit:4;" d="M 295.96875 540 L 295.96875 560.25 L 304.96875 569.25 C 304.96875 569.25 295.96875 571.179688 295.96875 576 C 295.96875 580.511719 300.46875 576 300.46875 576 L 302.71875 582.75 L 304.96875 576 L 310.46875 587.25 L 310.46875 587.25 L 316.21875 576 L 318.46875 582.75 L 320.71875 576 C 320.71875 576 325.21875 580.5 325.21875 576 C 325.21875 571.5 316.21875 569.25 316.21875 569.25 L 325.21875 560.25 L 325.21875 540 L 295.96875 540 Z M 295.96875 540 " transform="matrix(1,0,0,-1,0,793)"/>

<!-- Damage Boxes -->
<path style="fill-rule:nonzero;fill:rgb(100%,100%,100%);fill-opacity:1;stroke-width:1.5;stroke-linecap:butt;stroke-linejoin:miter;stroke:rgb(13.730068%,12.159915%,12.54902%);stroke-opacity:1;stroke-miterlimit:4;" d="M 313.96875 558 L 313.96875 564.75 L 307.21875 564.75 L 307.21875 558 L 313.96875 558 Z M 313.96875 558 " transform="matrix(1,0,0,-1,0,793)"/>
<path style="fill-rule:nonzero;fill:rgb(100%,100%,100%);fill-opacity:1;stroke-width:1.5;stroke-linecap:butt;stroke-linejoin:miter;stroke:rgb(13.730068%,12.159915%,12.54902%);stroke-opacity:1;stroke-miterlimit:4;" d="M 307.21875 551.25 L 307.21875 558 L 300.46875 558 L 300.46875 551.25 L 307.21875 551.25 Z M 307.21875 551.25 " transform="matrix(1,0,0,-1,0,793)"/>
<path style="fill-rule:nonzero;fill:rgb(100%,100%,100%);fill-opacity:1;stroke-width:1.5;stroke-linecap:butt;stroke-linejoin:miter;stroke:rgb(13.730068%,12.159915%,12.54902%);stroke-opacity:1;stroke-miterlimit:4;" d="M 313.96875 551.25 L 313.96875 558 L 307.21875 558 L 307.21875 551.25 L 313.96875 551.25 Z M 313.96875 551.25 " transform="matrix(1,0,0,-1,0,793)"/>
<path style="fill-rule:nonzero;fill:rgb(100%,100%,100%);fill-opacity:1;stroke-width:1.5;stroke-linecap:butt;stroke-linejoin:miter;stroke:rgb(13.730068%,12.159915%,12.54902%);stroke-opacity:1;stroke-miterlimit:4;" d="M 320.71875 551.25 L 320.71875 558 L 313.96875 558 L 313.96875 551.25 L 320.71875 551.25 Z M 320.71875 551.25 " transform="matrix(1,0,0,-1,0,793)"/>
<path style="fill-rule:nonzero;fill:rgb(100%,100%,100%);fill-opacity:1;stroke-width:1.5;stroke-linecap:butt;stroke-linejoin:miter;stroke:rgb(13.730068%,12.159915%,12.54902%);stroke-opacity:1;stroke-miterlimit:4;" d="M 307.21875 544.5 L 307.21875 551.25 L 300.46875 551.25 L 300.46875 544.5 L 307.21875 544.5 Z M 307.21875 544.5 " transform="matrix(1,0,0,-1,0,793)"/>
<path style="fill-rule:nonzero;fill:rgb(100%,100%,100%);fill-opacity:1;stroke-width:1.5;stroke-linecap:butt;stroke-linejoin:miter;stroke:rgb(13.730068%,12.159915%,12.54902%);stroke-opacity:1;stroke-miterlimit:4;" d="M 313.96875 544.5 L 313.96875 551.25 L 307.21875 551.25 L 307.21875 544.5 L 313.96875 544.5 Z M 313.96875 544.5 " transform="matrix(1,0,0,-1,0,793)"/>
<path style="fill-rule:nonzero;fill:rgb(100%,100%,100%);fill-opacity:1;stroke-width:1.5;stroke-linecap:butt;stroke-linejoin:miter;stroke:rgb(13.730068%,12.159915%,12.54902%);stroke-opacity:1;stroke-miterlimit:4;" d="M 320.71875 544.5 L 320.71875 551.25 L 313.96875 551.25 L 313.96875 544.5 L 320.71875 544.5 Z M 320.71875 544.5 " transform="matrix(1,0,0,-1,0,793)"/>

</svg>