<svg xmlns="http://www.w3.org/2000/svg" xmlns:xlink="http://www.w3.org/1999/xlink" width="612pt" height="792pt" viewBox="0 0 612 792" version="1.1">

<!-- Point Pulsar -->
<path style="fill-rule:nonzero;fill:rgb(100%,100%,100%);fill-opacity:1;stroke-width:0.75;stroke-linecap:butt;stroke-linejoin:miter;stroke:rgb(13.730068%,12.159915%,12.54902%);stroke-opacity:1;stroke-miterlimit:4;" d="M 139.5 438.75 L 139.5 468 L 141.75 468 L 150.75 506.25 L 159.75 468 L 162 468 L 162 438.75 L 139.5 438.75 Z M 139.5 438.75 " transform="matrix(1,0,0,-1,0,793)"/>
<path style="fill-rule:nonzero;fill:rgb(100%,100%,100%);fill-opacity:1;stroke-width:0.75;stroke-linecap:butt;stroke-linejoin:miter;stroke:rgb(13.730068%,12.159915%,12.54902%);stroke-opacity:1;stroke-miterlimit:4;" d="M 150.625 482 C 152.488281 482 154 483.511719 154 485.375 C 154 487.238281 152.488281 488.75 150.625 488.75 C 148.757812 488.75 147.25 487.238281 147.25 485.375 C 147.25 483.511719 148.757812 482 150.625 482 Z M 150.625 482 " transform="matrix(1,0,0,-1,0,793)"/>
<path style="fill-rule:nonzero;fill:rgb(100%,100%,100%);fill-opacity:1;stroke-width:0.75;stroke-linecap:butt;stroke-linejoin:miter;stroke:rgb(13.730068%,12.159915%,12.54902%);stroke-opacity:1;stroke-miterlimit:4;" d="M 150.625 475.25 C 152.488281 475.25 154 476.761719 154 478.625 C 154 480.488281 152.488281 482 150.625 482 C 148.757812 482 147.25 480.488281 147.25 478.625 C 147.25 476.761719 148.757812 475.25 150.625 475.25 Z M 150.625 475.25 " transform="matrix(1,0,0,-1,0,793)"/>
<path style="fill-rule:nonzero;fill:rgb(100%,100%,100%);fill-opacity:1;stroke-width:0.75;stroke-linecap:butt;stroke-linejoin:miter;stroke:rgb(13.730068%,12.159915%,12.54902%);stroke-opacity:1;stroke-miterlimit:4;" d="M 150.625 468 C 152.488281 468 154 469.511719 154 471.375 C 154 473.238281 152.488281 474.75 150.625 474.75 C 148.761719 474.75 147.25 473.238281 147.25 471.375 C 147.25 469.511719 148.761719 468 150.625 468 Z M 150.625 468 " transform="matrix(1,0,0,-1,0,793)"/>

<!-- Damage Boxes -->
<path style="fill-rule:nonzero;fill:rgb(100%,100%,100%);fill-opacity:1;stroke-width:1.5;stroke-linecap:butt;stroke-linejoin:miter;stroke:rgb(13.730068%,12.159915%,12.54902%);stroke-opacity:1;stroke-miterlimit:4;" d="M 150.75 456.75 L 150.75 463.5 L 144 463.5 L 144 456.75 L 150.75 456.75 Z M 150.75 456.75 " transform="matrix(1,0,0,-1,0,793)"/>
<path style="fill-rule:nonzero;fill:rgb(100%,100%,100%);fill-opacity:1;stroke-width:1.5;stroke-linecap:butt;stroke-linejoin:miter;stroke:rgb(13.730068%,12.159915%,12.54902%);stroke-opacity:1;stroke-miterlimit:4;" d="M 157.5 456.75 L 157.5 463.5 L 150.75 463.5 L 150.75 456.75 L 157.5 456.75 Z M 157.5 456.75 " transform="matrix(1,0,0,-1,0,793)"/>
<path style="fill-rule:nonzero;fill:rgb(100%,100%,100%);fill-opacity:1;stroke-width:1.5;stroke-linecap:butt;stroke-linejoin:miter;stroke:rgb(13.730068%,12.159915%,12.54902%);stroke-opacity:1;stroke-miterlimit:4;" d="M 150.75 450 L 150.75 456.75 L 144 456.75 L 144 450 L 150.75 450 Z M 150.75 450 " transform="matrix(1,0,0,-1,0,793)"/>
<path style="fill-rule:nonzero;fill:rgb(100%,100%,100%);fill-opacity:1;stroke-width:1.5;stroke-linecap:butt;stroke-linejoin:miter;stroke:rgb(13.730068%,12.159915%,12.54902%);stroke-opacity:1;stroke-miterlimit:4;" d="M 157.5 450 L 157.5 456.75 L 150.75 456.75 L 150.75 450 L 157.5 450 Z M 157.5 450 " transform="matrix(1,0,0,-1,0,793)"/>
<path style="fill-rule:nonzero;fill:rgb(100%,100%,100%);fill-opacity:1;stroke-width:1.5;stroke-linecap:butt;stroke-linejoin:miter;stroke:rgb(13.730068%,12.159915%,12.54902%);stroke-opacity:1;stroke-miterlimit:4;" d="M 150.75 443.25 L 150.75 450 L 144 450 L 144 443.25 L 150.75 443.25 Z M 150.75 443.25 " transform="matrix(1,0,0,-1,0,793)"/>
<path style="fill-rule:nonzero;fill:rgb(100%,100%,100%);fill-opacity:1;stroke-width:1.5;stroke-linecap:butt;stroke-linejoin:miter;stroke:rgb(13.730068%,12.159915%,12.54902%);stroke-opacity:1;stroke-miterlimit:4;" d="M 157.5 443.25 L 157.5 450 L 150.75 450 L 150.75 443.25 L 157.5 443.25 Z M 157.5 443.25 " transform="matrix(1,0,0,-1,0,793)"/>

</svg>