<svg xmlns="http://www.w3.org/2000/svg" xmlns:xlink="http://www.w3.org/1999/xlink" width="612pt" height="792pt" viewBox="0 0 612 792" version="1.1">

<!-- Power Capacitor -->
<path style="fill-rule:nonzero;fill:rgb(100%,100%,100%);fill-opacity:1;stroke-width:0.75;stroke-linecap:butt;stroke-linejoin:miter;stroke:rgb(13.730068%,12.159915%,12.54902%);stroke-opacity:1;stroke-miterlimit:4;" d="m 236.25,202.4208 0,23.9542 6.75,0 0,3.375 13.5,0 0,-3.375 6.75,0 0,3.375 13.5,0 0,-3.375 6.75,0 0,-23.9542 -47.25,0 z" transform="matrix(1,0,0,-1,0,793)"/>
<path style="fill:none;stroke-width:0.75;stroke-linecap:butt;stroke-linejoin:miter;stroke:rgb(13.730068%,12.159915%,12.54902%);stroke-opacity:1;stroke-miterlimit:4;" d="M 246.601562 229.75 C 246.601562 229.75 248.851562 240.75 253.351562 240.75 C 257.851562 240.75 257.851562 231.75 253.351562 231.75 C 248.851562 231.75 255.601562 240.75 260.101562 240.75 C 264.601562 240.75 264.601562 231.75 260.101562 231.75 C 255.601562 231.75 262.351562 240.75 266.851562 240.75 C 271.351562 240.75 271.351562 231.75 266.851562 231.75 C 262.351562 231.75 269.101562 240.75 273.601562 240.75 C 278.101562 240.75 273.601562 229.75 273.601562 229.75 " transform="matrix(1,0,0,-1,0,793)"/>

</svg>
