<svg xmlns="http://www.w3.org/2000/svg" xmlns:xlink="http://www.w3.org/1999/xlink" width="612pt" height="792pt" viewBox="0 0 612 792" version="1.1">

<!-- Power Laser -->
<path style="fill-rule:nonzero;fill:rgb(100%,100%,100%);fill-opacity:1;stroke-width:0.75;stroke-linecap:butt;stroke-linejoin:miter;stroke:rgb(13.730068%,12.159915%,12.54902%);stroke-opacity:1;stroke-miterlimit:4;" d="M 490.5 323 L 508.5 323 L 508.5 365.75 L 501.75 365.75 L 501.75 368 L 506.25 368 L 506.25 370.25 L 501.75 370.25 L 501.75 372.5 L 506.25 372.5 L 506.25 374.75 L 501.75 374.75 L 501.75 377 L 506.25 377 L 506.25 379.25 L 501.75 379.25 L 501.75 381.5 L 506.25 381.5 L 506.25 383.75 L 498.5 383.75 L 498.5 365.75 L 496 365.75 L 496 384.5 L 493.75 392.75 L 491.5 384.5 L 491.5 365.75 L 489.25 365.75 L 489.25 383.75 L 481.5 383.75 L 481.5 381.5 L 486 381.5 L 486 379.25 L 481.5 379.25 L 481.5 377 L 486 377 L 486 374.75 L 481.5 374.75 L 481.5 372.5 L 486 372.5 L 486 370.25 L 481.5 370.25 L 481.5 368 L 486 368 L 486 365.75 L 479.25 365.75 L 479.25 323 L 495 323 L 490.5 323 Z M 490.5 323 " transform="matrix(1,0,0,-1,0,793)"/>

<!-- Damage Boxes -->
<path style="fill-rule:nonzero;fill:rgb(100%,100%,100%);fill-opacity:1;stroke-width:1.5;stroke-linecap:butt;stroke-linejoin:miter;stroke:rgb(13.730068%,12.159915%,12.54902%);stroke-opacity:1;stroke-miterlimit:4;" d="M 490.5 354.5 L 490.5 361.25 L 483.75 361.25 L 483.75 354.5 L 490.5 354.5 Z M 490.5 354.5 " transform="matrix(1,0,0,-1,0,793)"/>
<path style="fill-rule:nonzero;fill:rgb(100%,100%,100%);fill-opacity:1;stroke-width:1.5;stroke-linecap:butt;stroke-linejoin:miter;stroke:rgb(13.730068%,12.159915%,12.54902%);stroke-opacity:1;stroke-miterlimit:4;" d="M 497.25 354.5 L 497.25 361.25 L 490.5 361.25 L 490.5 354.5 L 497.25 354.5 Z M 497.25 354.5 " transform="matrix(1,0,0,-1,0,793)"/>
<path style="fill-rule:nonzero;fill:rgb(100%,100%,100%);fill-opacity:1;stroke-width:1.5;stroke-linecap:butt;stroke-linejoin:miter;stroke:rgb(13.730068%,12.159915%,12.54902%);stroke-opacity:1;stroke-miterlimit:4;" d="M 504 354.5 L 504 361.25 L 497.25 361.25 L 497.25 354.5 L 504 354.5 Z M 504 354.5 " transform="matrix(1,0,0,-1,0,793)"/>
<path style="fill-rule:nonzero;fill:rgb(100%,100%,100%);fill-opacity:1;stroke-width:1.5;stroke-linecap:butt;stroke-linejoin:miter;stroke:rgb(13.730068%,12.159915%,12.54902%);stroke-opacity:1;stroke-miterlimit:4;" d="M 490.5 347.75 L 490.5 354.5 L 483.75 354.5 L 483.75 347.75 L 490.5 347.75 Z M 490.5 347.75 " transform="matrix(1,0,0,-1,0,793)"/>
<path style="fill-rule:nonzero;fill:rgb(100%,100%,100%);fill-opacity:1;stroke-width:1.5;stroke-linecap:butt;stroke-linejoin:miter;stroke:rgb(13.730068%,12.159915%,12.54902%);stroke-opacity:1;stroke-miterlimit:4;" d="M 497.25 347.75 L 497.25 354.5 L 490.5 354.5 L 490.5 347.75 L 497.25 347.75 Z M 497.25 347.75 " transform="matrix(1,0,0,-1,0,793)"/>
<path style="fill-rule:nonzero;fill:rgb(100%,100%,100%);fill-opacity:1;stroke-width:1.5;stroke-linecap:butt;stroke-linejoin:miter;stroke:rgb(13.730068%,12.159915%,12.54902%);stroke-opacity:1;stroke-miterlimit:4;" d="M 504 347.75 L 504 354.5 L 497.25 354.5 L 497.25 347.75 L 504 347.75 Z M 504 347.75 " transform="matrix(1,0,0,-1,0,793)"/>
<path style="fill-rule:nonzero;fill:rgb(100%,100%,100%);fill-opacity:1;stroke-width:1.5;stroke-linecap:butt;stroke-linejoin:miter;stroke:rgb(13.730068%,12.159915%,12.54902%);stroke-opacity:1;stroke-miterlimit:4;" d="M 490.5 341 L 490.5 347.75 L 483.75 347.75 L 483.75 341 L 490.5 341 Z M 490.5 341 " transform="matrix(1,0,0,-1,0,793)"/>
<path style="fill-rule:nonzero;fill:rgb(100%,100%,100%);fill-opacity:1;stroke-width:1.5;stroke-linecap:butt;stroke-linejoin:miter;stroke:rgb(13.730068%,12.159915%,12.54902%);stroke-opacity:1;stroke-miterlimit:4;" d="M 497.25 341 L 497.25 347.75 L 490.5 347.75 L 490.5 341 L 497.25 341 Z M 497.25 341 " transform="matrix(1,0,0,-1,0,793)"/>
<path style="fill-rule:nonzero;fill:rgb(100%,100%,100%);fill-opacity:1;stroke-width:1.5;stroke-linecap:butt;stroke-linejoin:miter;stroke:rgb(13.730068%,12.159915%,12.54902%);stroke-opacity:1;stroke-miterlimit:4;" d="M 504 341 L 504 347.75 L 497.25 347.75 L 497.25 341 L 504 341 Z M 504 341 " transform="matrix(1,0,0,-1,0,793)"/>
<path style="fill-rule:nonzero;fill:rgb(100%,100%,100%);fill-opacity:1;stroke-width:1.5;stroke-linecap:butt;stroke-linejoin:miter;stroke:rgb(13.730068%,12.159915%,12.54902%);stroke-opacity:1;stroke-miterlimit:4;" d="M 490.5 334.25 L 490.5 341 L 483.75 341 L 483.75 334.25 L 490.5 334.25 Z M 490.5 334.25 " transform="matrix(1,0,0,-1,0,793)"/>
<path style="fill-rule:nonzero;fill:rgb(100%,100%,100%);fill-opacity:1;stroke-width:1.5;stroke-linecap:butt;stroke-linejoin:miter;stroke:rgb(13.730068%,12.159915%,12.54902%);stroke-opacity:1;stroke-miterlimit:4;" d="M 497.25 334.25 L 497.25 341 L 490.5 341 L 490.5 334.25 L 497.25 334.25 Z M 497.25 334.25 " transform="matrix(1,0,0,-1,0,793)"/>
<path style="fill-rule:nonzero;fill:rgb(100%,100%,100%);fill-opacity:1;stroke-width:1.5;stroke-linecap:butt;stroke-linejoin:miter;stroke:rgb(13.730068%,12.159915%,12.54902%);stroke-opacity:1;stroke-miterlimit:4;" d="M 504 334.25 L 504 341 L 497.25 341 L 497.25 334.25 L 504 334.25 Z M 504 334.25 " transform="matrix(1,0,0,-1,0,793)"/>
<path style="fill-rule:nonzero;fill:rgb(100%,100%,100%);fill-opacity:1;stroke-width:1.5;stroke-linecap:butt;stroke-linejoin:miter;stroke:rgb(13.730068%,12.159915%,12.54902%);stroke-opacity:1;stroke-miterlimit:4;" d="M 490.5 327.5 L 490.5 334.25 L 483.75 334.25 L 483.75 327.5 L 490.5 327.5 Z M 490.5 327.5 " transform="matrix(1,0,0,-1,0,793)"/>
<path style="fill-rule:nonzero;fill:rgb(100%,100%,100%);fill-opacity:1;stroke-width:1.5;stroke-linecap:butt;stroke-linejoin:miter;stroke:rgb(13.730068%,12.159915%,12.54902%);stroke-opacity:1;stroke-miterlimit:4;" d="M 497.25 327.5 L 497.25 334.25 L 490.5 334.25 L 490.5 327.5 L 497.25 327.5 Z M 497.25 327.5 " transform="matrix(1,0,0,-1,0,793)"/>
<path style="fill-rule:nonzero;fill:rgb(100%,100%,100%);fill-opacity:1;stroke-width:1.5;stroke-linecap:butt;stroke-linejoin:miter;stroke:rgb(13.730068%,12.159915%,12.54902%);stroke-opacity:1;stroke-miterlimit:4;" d="M 504 327.5 L 504 334.25 L 497.25 334.25 L 497.25 327.5 L 504 327.5 Z M 504 327.5 " transform="matrix(1,0,0,-1,0,793)"/>

</svg>