<svg xmlns="http://www.w3.org/2000/svg" xmlns:xlink="http://www.w3.org/1999/xlink" width="612pt" height="792pt" viewBox="0 0 612 792" version="1.1">

<!-- Power Capacitor (40) -->
<path style="fill-rule:nonzero;fill:rgb(100%,100%,100%);fill-opacity:1;stroke-width:0.75;stroke-linecap:butt;stroke-linejoin:miter;stroke:rgb(13.730068%,12.159915%,12.54902%);stroke-opacity:1;stroke-miterlimit:4;" d="M 230.019531 125.375 L 230.019531 199.25 L 236.769531 199.25 L 236.769531 202.625 L 250.269531 202.625 L 250.269531 199.25 L 257.019531 199.25 L 257.019531 202.625 L 270.519531 202.625 L 270.519531 199.25 L 277.269531 199.25 L 277.269531 125.375 L 230.019531 125.375 Z M 230.019531 125.375 " transform="matrix(1,0,0,-1,0,793)"/>
<path style="fill:none;stroke-width:0.75;stroke-linecap:butt;stroke-linejoin:miter;stroke:rgb(13.730068%,12.159915%,12.54902%);stroke-opacity:1;stroke-miterlimit:4;" d="M 240.371094 202.625 C 240.371094 202.625 242.621094 213.625 247.121094 213.625 C 251.621094 213.625 251.621094 204.625 247.121094 204.625 C 242.621094 204.625 249.371094 213.625 253.871094 213.625 C 258.371094 213.625 258.371094 204.625 253.871094 204.625 C 249.371094 204.625 256.121094 213.625 260.621094 213.625 C 265.121094 213.625 265.121094 204.625 260.621094 204.625 C 256.121094 204.625 262.871094 213.625 267.371094 213.625 C 271.871094 213.625 267.371094 202.625 267.371094 202.625 " transform="matrix(1,0,0,-1,0,793)"/>

<!-- Annotation -->
<path style="opacity:0.5;fill:#ffffff;fill-opacity:1;fill-rule:nonzero;stroke:#ff1e1e;stroke-width:1.5;stroke-linecap:butt;stroke-linejoin:miter;stroke-miterlimit:4;stroke-opacity:1" d="m 256.98834,601.66206 0,-6.75 -6.75,0 0,6.75 6.75,0 z m 0,0"/>
     
<!-- Damage Boxes -->
<path style="fill-rule:nonzero;fill:rgb(100%,100%,100%);fill-opacity:1;stroke-width:1.5;stroke-linecap:butt;stroke-linejoin:miter;stroke:rgb(13.730068%,12.159915%,12.54902%);stroke-opacity:1;stroke-miterlimit:4;" d="M 243.519531 179.875 L 243.519531 186.625 L 236.769531 186.625 L 236.769531 179.875 L 243.519531 179.875 Z M 243.519531 179.875 " transform="matrix(1,0,0,-1,0,793)"/>
<path style="fill-rule:nonzero;fill:rgb(100%,100%,100%);fill-opacity:1;stroke-width:1.5;stroke-linecap:butt;stroke-linejoin:miter;stroke:rgb(13.730068%,12.159915%,12.54902%);stroke-opacity:1;stroke-miterlimit:4;" d="M 250.269531 179.875 L 250.269531 186.625 L 243.519531 186.625 L 243.519531 179.875 L 250.269531 179.875 Z M 250.269531 179.875 " transform="matrix(1,0,0,-1,0,793)"/>
<path style="fill-rule:nonzero;fill:rgb(100%,100%,100%);fill-opacity:1;stroke-width:1.5;stroke-linecap:butt;stroke-linejoin:miter;stroke:rgb(13.730068%,12.159915%,12.54902%);stroke-opacity:1;stroke-miterlimit:4;" d="M 257.019531 179.875 L 257.019531 186.625 L 250.269531 186.625 L 250.269531 179.875 L 257.019531 179.875 Z M 257.019531 179.875 " transform="matrix(1,0,0,-1,0,793)"/>
<path style="fill-rule:nonzero;fill:rgb(100%,100%,100%);fill-opacity:1;stroke-width:1.5;stroke-linecap:butt;stroke-linejoin:miter;stroke:rgb(13.730068%,12.159915%,12.54902%);stroke-opacity:1;stroke-miterlimit:4;" d="M 263.769531 179.875 L 263.769531 186.625 L 257.019531 186.625 L 257.019531 179.875 L 263.769531 179.875 Z M 263.769531 179.875 " transform="matrix(1,0,0,-1,0,793)"/>
<path style="fill-rule:nonzero;fill:rgb(100%,100%,100%);fill-opacity:1;stroke-width:1.5;stroke-linecap:butt;stroke-linejoin:miter;stroke:rgb(13.730068%,12.159915%,12.54902%);stroke-opacity:1;stroke-miterlimit:4;" d="M 270.519531 179.875 L 270.519531 186.625 L 263.769531 186.625 L 263.769531 179.875 L 270.519531 179.875 Z M 270.519531 179.875 " transform="matrix(1,0,0,-1,0,793)"/>
<path style="fill-rule:nonzero;fill:rgb(100%,100%,100%);fill-opacity:1;stroke-width:1.5;stroke-linecap:butt;stroke-linejoin:miter;stroke:rgb(13.730068%,12.159915%,12.54902%);stroke-opacity:1;stroke-miterlimit:4;" d="M 243.519531 173.277344 L 243.519531 180.027344 L 236.769531 180.027344 L 236.769531 173.277344 L 243.519531 173.277344 Z M 243.519531 173.277344 " transform="matrix(1,0,0,-1,0,793)"/>
<path style="fill-rule:nonzero;fill:rgb(100%,100%,100%);fill-opacity:1;stroke-width:1.5;stroke-linecap:butt;stroke-linejoin:miter;stroke:rgb(13.730068%,12.159915%,12.54902%);stroke-opacity:1;stroke-miterlimit:4;" d="M 250.269531 173.277344 L 250.269531 180.027344 L 243.519531 180.027344 L 243.519531 173.277344 L 250.269531 173.277344 Z M 250.269531 173.277344 " transform="matrix(1,0,0,-1,0,793)"/>
<path style="fill-rule:nonzero;fill:rgb(100%,100%,100%);fill-opacity:1;stroke-width:1.5;stroke-linecap:butt;stroke-linejoin:miter;stroke:rgb(13.730068%,12.159915%,12.54902%);stroke-opacity:1;stroke-miterlimit:4;" d="M 257.019531 173.277344 L 257.019531 180.027344 L 250.269531 180.027344 L 250.269531 173.277344 L 257.019531 173.277344 Z M 257.019531 173.277344 " transform="matrix(1,0,0,-1,0,793)"/>
<path style="fill-rule:nonzero;fill:rgb(100%,100%,100%);fill-opacity:1;stroke-width:1.5;stroke-linecap:butt;stroke-linejoin:miter;stroke:rgb(13.730068%,12.159915%,12.54902%);stroke-opacity:1;stroke-miterlimit:4;" d="M 263.769531 173.277344 L 263.769531 180.027344 L 257.019531 180.027344 L 257.019531 173.277344 L 263.769531 173.277344 Z M 263.769531 173.277344 " transform="matrix(1,0,0,-1,0,793)"/>
<path style="fill-rule:nonzero;fill:rgb(100%,100%,100%);fill-opacity:1;stroke-width:1.5;stroke-linecap:butt;stroke-linejoin:miter;stroke:rgb(13.730068%,12.159915%,12.54902%);stroke-opacity:1;stroke-miterlimit:4;" d="M 270.519531 173.277344 L 270.519531 180.027344 L 263.769531 180.027344 L 263.769531 173.277344 L 270.519531 173.277344 Z M 270.519531 173.277344 " transform="matrix(1,0,0,-1,0,793)"/>
<path style="fill-rule:nonzero;fill:rgb(100%,100%,100%);fill-opacity:1;stroke-width:1.5;stroke-linecap:butt;stroke-linejoin:miter;stroke:rgb(13.730068%,12.159915%,12.54902%);stroke-opacity:1;stroke-miterlimit:4;" d="M 243.519531 166.679688 L 243.519531 173.429688 L 236.769531 173.429688 L 236.769531 166.679688 L 243.519531 166.679688 Z M 243.519531 166.679688 " transform="matrix(1,0,0,-1,0,793)"/>
<path style="fill-rule:nonzero;fill:rgb(100%,100%,100%);fill-opacity:1;stroke-width:1.5;stroke-linecap:butt;stroke-linejoin:miter;stroke:rgb(13.730068%,12.159915%,12.54902%);stroke-opacity:1;stroke-miterlimit:4;" d="M 250.269531 166.679688 L 250.269531 173.429688 L 243.519531 173.429688 L 243.519531 166.679688 L 250.269531 166.679688 Z M 250.269531 166.679688 " transform="matrix(1,0,0,-1,0,793)"/>
<path style="fill-rule:nonzero;fill:rgb(100%,100%,100%);fill-opacity:1;stroke-width:1.5;stroke-linecap:butt;stroke-linejoin:miter;stroke:rgb(13.730068%,12.159915%,12.54902%);stroke-opacity:1;stroke-miterlimit:4;" d="M 257.019531 166.679688 L 257.019531 173.429688 L 250.269531 173.429688 L 250.269531 166.679688 L 257.019531 166.679688 Z M 257.019531 166.679688 " transform="matrix(1,0,0,-1,0,793)"/>
<path style="fill-rule:nonzero;fill:rgb(100%,100%,100%);fill-opacity:1;stroke-width:1.5;stroke-linecap:butt;stroke-linejoin:miter;stroke:rgb(13.730068%,12.159915%,12.54902%);stroke-opacity:1;stroke-miterlimit:4;" d="M 263.769531 166.679688 L 263.769531 173.429688 L 257.019531 173.429688 L 257.019531 166.679688 L 263.769531 166.679688 Z M 263.769531 166.679688 " transform="matrix(1,0,0,-1,0,793)"/>
<path style="fill-rule:nonzero;fill:rgb(100%,100%,100%);fill-opacity:1;stroke-width:1.5;stroke-linecap:butt;stroke-linejoin:miter;stroke:rgb(13.730068%,12.159915%,12.54902%);stroke-opacity:1;stroke-miterlimit:4;" d="M 270.519531 166.679688 L 270.519531 173.429688 L 263.769531 173.429688 L 263.769531 166.679688 L 270.519531 166.679688 Z M 270.519531 166.679688 " transform="matrix(1,0,0,-1,0,793)"/>
<path style="fill-rule:nonzero;fill:rgb(100%,100%,100%);fill-opacity:1;stroke-width:1.5;stroke-linecap:butt;stroke-linejoin:miter;stroke:rgb(13.730068%,12.159915%,12.54902%);stroke-opacity:1;stroke-miterlimit:4;" d="M 243.519531 160.078125 L 243.519531 166.828125 L 236.769531 166.828125 L 236.769531 160.078125 L 243.519531 160.078125 Z M 243.519531 160.078125 " transform="matrix(1,0,0,-1,0,793)"/>
<path style="fill-rule:nonzero;fill:rgb(100%,100%,100%);fill-opacity:1;stroke-width:1.5;stroke-linecap:butt;stroke-linejoin:miter;stroke:rgb(13.730068%,12.159915%,12.54902%);stroke-opacity:1;stroke-miterlimit:4;" d="M 250.269531 160.078125 L 250.269531 166.828125 L 243.519531 166.828125 L 243.519531 160.078125 L 250.269531 160.078125 Z M 250.269531 160.078125 " transform="matrix(1,0,0,-1,0,793)"/>
<path style="fill-rule:nonzero;fill:rgb(100%,100%,100%);fill-opacity:1;stroke-width:1.5;stroke-linecap:butt;stroke-linejoin:miter;stroke:rgb(13.730068%,12.159915%,12.54902%);stroke-opacity:1;stroke-miterlimit:4;" d="M 257.019531 160.078125 L 257.019531 166.828125 L 250.269531 166.828125 L 250.269531 160.078125 L 257.019531 160.078125 Z M 257.019531 160.078125 " transform="matrix(1,0,0,-1,0,793)"/>
<path style="fill-rule:nonzero;fill:rgb(100%,100%,100%);fill-opacity:1;stroke-width:1.5;stroke-linecap:butt;stroke-linejoin:miter;stroke:rgb(13.730068%,12.159915%,12.54902%);stroke-opacity:1;stroke-miterlimit:4;" d="M 263.769531 160.078125 L 263.769531 166.828125 L 257.019531 166.828125 L 257.019531 160.078125 L 263.769531 160.078125 Z M 263.769531 160.078125 " transform="matrix(1,0,0,-1,0,793)"/>
<path style="fill-rule:nonzero;fill:rgb(100%,100%,100%);fill-opacity:1;stroke-width:1.5;stroke-linecap:butt;stroke-linejoin:miter;stroke:rgb(13.730068%,12.159915%,12.54902%);stroke-opacity:1;stroke-miterlimit:4;" d="M 270.519531 160.078125 L 270.519531 166.828125 L 263.769531 166.828125 L 263.769531 160.078125 L 270.519531 160.078125 Z M 270.519531 160.078125 " transform="matrix(1,0,0,-1,0,793)"/>
<path style="fill-rule:nonzero;fill:rgb(100%,100%,100%);fill-opacity:1;stroke-width:1.5;stroke-linecap:butt;stroke-linejoin:miter;stroke:rgb(13.730068%,12.159915%,12.54902%);stroke-opacity:1;stroke-miterlimit:4;" d="M 243.519531 153.480469 L 243.519531 160.230469 L 236.769531 160.230469 L 236.769531 153.480469 L 243.519531 153.480469 Z M 243.519531 153.480469 " transform="matrix(1,0,0,-1,0,793)"/>
<path style="fill-rule:nonzero;fill:rgb(100%,100%,100%);fill-opacity:1;stroke-width:1.5;stroke-linecap:butt;stroke-linejoin:miter;stroke:rgb(13.730068%,12.159915%,12.54902%);stroke-opacity:1;stroke-miterlimit:4;" d="M 250.269531 153.480469 L 250.269531 160.230469 L 243.519531 160.230469 L 243.519531 153.480469 L 250.269531 153.480469 Z M 250.269531 153.480469 " transform="matrix(1,0,0,-1,0,793)"/>
<path style="fill-rule:nonzero;fill:rgb(100%,100%,100%);fill-opacity:1;stroke-width:1.5;stroke-linecap:butt;stroke-linejoin:miter;stroke:rgb(13.730068%,12.159915%,12.54902%);stroke-opacity:1;stroke-miterlimit:4;" d="M 257.019531 153.480469 L 257.019531 160.230469 L 250.269531 160.230469 L 250.269531 153.480469 L 257.019531 153.480469 Z M 257.019531 153.480469 " transform="matrix(1,0,0,-1,0,793)"/>
<path style="fill-rule:nonzero;fill:rgb(100%,100%,100%);fill-opacity:1;stroke-width:1.5;stroke-linecap:butt;stroke-linejoin:miter;stroke:rgb(13.730068%,12.159915%,12.54902%);stroke-opacity:1;stroke-miterlimit:4;" d="M 263.769531 153.480469 L 263.769531 160.230469 L 257.019531 160.230469 L 257.019531 153.480469 L 263.769531 153.480469 Z M 263.769531 153.480469 " transform="matrix(1,0,0,-1,0,793)"/>
<path style="fill-rule:nonzero;fill:rgb(100%,100%,100%);fill-opacity:1;stroke-width:1.5;stroke-linecap:butt;stroke-linejoin:miter;stroke:rgb(13.730068%,12.159915%,12.54902%);stroke-opacity:1;stroke-miterlimit:4;" d="M 270.519531 153.480469 L 270.519531 160.230469 L 263.769531 160.230469 L 263.769531 153.480469 L 270.519531 153.480469 Z M 270.519531 153.480469 " transform="matrix(1,0,0,-1,0,793)"/>
<path style="fill-rule:nonzero;fill:rgb(100%,100%,100%);fill-opacity:1;stroke-width:1.5;stroke-linecap:butt;stroke-linejoin:miter;stroke:rgb(13.730068%,12.159915%,12.54902%);stroke-opacity:1;stroke-miterlimit:4;" d="M 243.519531 146.882812 L 243.519531 153.632812 L 236.769531 153.632812 L 236.769531 146.882812 L 243.519531 146.882812 Z M 243.519531 146.882812 " transform="matrix(1,0,0,-1,0,793)"/>
<path style="fill-rule:nonzero;fill:rgb(100%,100%,100%);fill-opacity:1;stroke-width:1.5;stroke-linecap:butt;stroke-linejoin:miter;stroke:rgb(13.730068%,12.159915%,12.54902%);stroke-opacity:1;stroke-miterlimit:4;" d="M 250.269531 146.882812 L 250.269531 153.632812 L 243.519531 153.632812 L 243.519531 146.882812 L 250.269531 146.882812 Z M 250.269531 146.882812 " transform="matrix(1,0,0,-1,0,793)"/>
<path style="fill-rule:nonzero;fill:rgb(100%,100%,100%);fill-opacity:1;stroke-width:1.5;stroke-linecap:butt;stroke-linejoin:miter;stroke:rgb(13.730068%,12.159915%,12.54902%);stroke-opacity:1;stroke-miterlimit:4;" d="M 257.019531 146.882812 L 257.019531 153.632812 L 250.269531 153.632812 L 250.269531 146.882812 L 257.019531 146.882812 Z M 257.019531 146.882812 " transform="matrix(1,0,0,-1,0,793)"/>
<path style="fill-rule:nonzero;fill:rgb(100%,100%,100%);fill-opacity:1;stroke-width:1.5;stroke-linecap:butt;stroke-linejoin:miter;stroke:rgb(13.730068%,12.159915%,12.54902%);stroke-opacity:1;stroke-miterlimit:4;" d="M 263.769531 146.882812 L 263.769531 153.632812 L 257.019531 153.632812 L 257.019531 146.882812 L 263.769531 146.882812 Z M 263.769531 146.882812 " transform="matrix(1,0,0,-1,0,793)"/>
<path style="fill-rule:nonzero;fill:rgb(100%,100%,100%);fill-opacity:1;stroke-width:1.5;stroke-linecap:butt;stroke-linejoin:miter;stroke:rgb(13.730068%,12.159915%,12.54902%);stroke-opacity:1;stroke-miterlimit:4;" d="M 270.519531 146.882812 L 270.519531 153.632812 L 263.769531 153.632812 L 263.769531 146.882812 L 270.519531 146.882812 Z M 270.519531 146.882812 " transform="matrix(1,0,0,-1,0,793)"/>
<path style="fill-rule:nonzero;fill:rgb(100%,100%,100%);fill-opacity:1;stroke-width:1.5;stroke-linecap:butt;stroke-linejoin:miter;stroke:rgb(13.730068%,12.159915%,12.54902%);stroke-opacity:1;stroke-miterlimit:4;" d="M 243.519531 140.285156 L 243.519531 147.035156 L 236.769531 147.035156 L 236.769531 140.285156 L 243.519531 140.285156 Z M 243.519531 140.285156 " transform="matrix(1,0,0,-1,0,793)"/>
<path style="fill-rule:nonzero;fill:rgb(100%,100%,100%);fill-opacity:1;stroke-width:1.5;stroke-linecap:butt;stroke-linejoin:miter;stroke:rgb(13.730068%,12.159915%,12.54902%);stroke-opacity:1;stroke-miterlimit:4;" d="M 250.269531 140.285156 L 250.269531 147.035156 L 243.519531 147.035156 L 243.519531 140.285156 L 250.269531 140.285156 Z M 250.269531 140.285156 " transform="matrix(1,0,0,-1,0,793)"/>
<path style="fill-rule:nonzero;fill:rgb(100%,100%,100%);fill-opacity:1;stroke-width:1.5;stroke-linecap:butt;stroke-linejoin:miter;stroke:rgb(13.730068%,12.159915%,12.54902%);stroke-opacity:1;stroke-miterlimit:4;" d="M 257.019531 140.285156 L 257.019531 147.035156 L 250.269531 147.035156 L 250.269531 140.285156 L 257.019531 140.285156 Z M 257.019531 140.285156 " transform="matrix(1,0,0,-1,0,793)"/>
<path style="fill-rule:nonzero;fill:rgb(100%,100%,100%);fill-opacity:1;stroke-width:1.5;stroke-linecap:butt;stroke-linejoin:miter;stroke:rgb(13.730068%,12.159915%,12.54902%);stroke-opacity:1;stroke-miterlimit:4;" d="M 263.769531 140.285156 L 263.769531 147.035156 L 257.019531 147.035156 L 257.019531 140.285156 L 263.769531 140.285156 Z M 263.769531 140.285156 " transform="matrix(1,0,0,-1,0,793)"/>
<path style="fill-rule:nonzero;fill:rgb(100%,100%,100%);fill-opacity:1;stroke-width:1.5;stroke-linecap:butt;stroke-linejoin:miter;stroke:rgb(13.730068%,12.159915%,12.54902%);stroke-opacity:1;stroke-miterlimit:4;" d="M 270.519531 140.285156 L 270.519531 147.035156 L 263.769531 147.035156 L 263.769531 140.285156 L 270.519531 140.285156 Z M 270.519531 140.285156 " transform="matrix(1,0,0,-1,0,793)"/>
<path style="fill-rule:nonzero;fill:rgb(100%,100%,100%);fill-opacity:1;stroke-width:1.5;stroke-linecap:butt;stroke-linejoin:miter;stroke:rgb(13.730068%,12.159915%,12.54902%);stroke-opacity:1;stroke-miterlimit:4;" d="M 243.519531 133.6875 L 243.519531 140.4375 L 236.769531 140.4375 L 236.769531 133.6875 L 243.519531 133.6875 Z M 243.519531 133.6875 " transform="matrix(1,0,0,-1,0,793)"/>
<path style="fill-rule:nonzero;fill:rgb(100%,100%,100%);fill-opacity:1;stroke-width:1.5;stroke-linecap:butt;stroke-linejoin:miter;stroke:rgb(13.730068%,12.159915%,12.54902%);stroke-opacity:1;stroke-miterlimit:4;" d="M 250.269531 133.6875 L 250.269531 140.4375 L 243.519531 140.4375 L 243.519531 133.6875 L 250.269531 133.6875 Z M 250.269531 133.6875 " transform="matrix(1,0,0,-1,0,793)"/>
<path style="fill-rule:nonzero;fill:rgb(100%,100%,100%);fill-opacity:1;stroke-width:1.5;stroke-linecap:butt;stroke-linejoin:miter;stroke:rgb(13.730068%,12.159915%,12.54902%);stroke-opacity:1;stroke-miterlimit:4;" d="M 257.019531 133.6875 L 257.019531 140.4375 L 250.269531 140.4375 L 250.269531 133.6875 L 257.019531 133.6875 Z M 257.019531 133.6875 " transform="matrix(1,0,0,-1,0,793)"/>
<path style="fill-rule:nonzero;fill:rgb(100%,100%,100%);fill-opacity:1;stroke-width:1.5;stroke-linecap:butt;stroke-linejoin:miter;stroke:rgb(13.730068%,12.159915%,12.54902%);stroke-opacity:1;stroke-miterlimit:4;" d="M 263.769531 133.6875 L 263.769531 140.4375 L 257.019531 140.4375 L 257.019531 133.6875 L 263.769531 133.6875 Z M 263.769531 133.6875 " transform="matrix(1,0,0,-1,0,793)"/>
<path style="fill-rule:nonzero;fill:rgb(100%,100%,100%);fill-opacity:1;stroke-width:1.5;stroke-linecap:butt;stroke-linejoin:miter;stroke:rgb(13.730068%,12.159915%,12.54902%);stroke-opacity:1;stroke-miterlimit:4;" d="M 270.519531 133.6875 L 270.519531 140.4375 L 263.769531 140.4375 L 263.769531 133.6875 L 270.519531 133.6875 Z M 270.519531 133.6875 " transform="matrix(1,0,0,-1,0,793)"/>

</svg>