<svg xmlns="http://www.w3.org/2000/svg" xmlns:xlink="http://www.w3.org/1999/xlink" width="612pt" height="792pt" viewBox="0 0 612 792" version="1.1">

<!-- Proximity Laser -->
<path style="fill-rule:nonzero;fill:rgb(100%,100%,100%);fill-opacity:1;stroke-width:0.75;stroke-linecap:butt;stroke-linejoin:miter;stroke:rgb(13.730068%,12.159915%,12.54902%);stroke-opacity:1;stroke-miterlimit:4;" d="M 200.875 421.042969 L 200.875 423.480469 L 203.1875 423.480469 L 203.1875 426.355469 L 200.8125 426.355469 L 200.8125 428.730469 L 203.1875 428.730469 L 203.1875 431.355469 L 200.875 431.355469 L 200.875 433.792969 L 203.125 433.792969 L 197.375 442.792969 L 191.875 433.792969 L 194.125 433.792969 L 194.105469 431.375 L 187.355469 431.375 L 187.375 433.792969 L 189.625 433.792969 L 183.875 442.792969 L 178.375 433.792969 L 180.625 433.792969 L 180.5625 431.417969 L 178.167969 431.375 L 178.167969 428.625 L 180.667969 428.625 L 180.667969 426.25 L 178.0625 426.292969 L 178.0625 423.292969 L 180.582031 423.292969 L 180.625 421.042969 L 175.625 421.042969 L 175.625 398.542969 L 205.875 398.542969 L 205.875 421.042969 L 200.875 421.042969 M 193.980469 421 L 187.167969 421 L 187.167969 423.375 L 193.980469 423.375 L 193.980469 421 M 194.042969 426.125 L 187.230469 426.125 L 187.230469 428.5 L 194.042969 428.5 L 194.042969 426.125 Z M 194.042969 426.125 " transform="matrix(1,0,0,-1,0,810)"/>

<!-- Damage Boxes -->
<path style="fill-rule:nonzero;fill:rgb(100%,100%,100%);fill-opacity:1;stroke-width:1.5;stroke-linecap:butt;stroke-linejoin:miter;stroke:rgb(13.730068%,12.159915%,12.54902%);stroke-opacity:1;stroke-miterlimit:4;" d="M 180.582031 416.417969 L 180.582031 409.667969 L 187.332031 409.667969 L 187.332031 416.417969 L 180.582031 416.417969 Z M 180.582031 416.417969 " transform="matrix(1,0,0,-1,0,810)"/>
<path style="fill-rule:nonzero;fill:rgb(100%,100%,100%);fill-opacity:1;stroke-width:1.5;stroke-linecap:butt;stroke-linejoin:miter;stroke:rgb(13.730068%,12.159915%,12.54902%);stroke-opacity:1;stroke-miterlimit:4;" d="M 187.332031 416.417969 L 187.332031 409.667969 L 194.082031 409.667969 L 194.082031 416.417969 L 187.332031 416.417969 Z M 187.332031 416.417969 " transform="matrix(1,0,0,-1,0,810)"/>
<path style="fill-rule:nonzero;fill:rgb(100%,100%,100%);fill-opacity:1;stroke-width:1.5;stroke-linecap:butt;stroke-linejoin:miter;stroke:rgb(13.730068%,12.159915%,12.54902%);stroke-opacity:1;stroke-miterlimit:4;" d="M 194.082031 416.417969 L 194.082031 409.667969 L 200.832031 409.667969 L 200.832031 416.417969 L 194.082031 416.417969 Z M 194.082031 416.417969 " transform="matrix(1,0,0,-1,0,810)"/>
<path style="fill-rule:nonzero;fill:rgb(100%,100%,100%);fill-opacity:1;stroke-width:1.5;stroke-linecap:butt;stroke-linejoin:miter;stroke:rgb(13.730068%,12.159915%,12.54902%);stroke-opacity:1;stroke-miterlimit:4;" d="M 180.582031 409.667969 L 180.582031 402.917969 L 187.332031 402.917969 L 187.332031 409.667969 L 180.582031 409.667969 Z M 180.582031 409.667969 " transform="matrix(1,0,0,-1,0,810)"/>
<path style="fill-rule:nonzero;fill:rgb(100%,100%,100%);fill-opacity:1;stroke-width:1.5;stroke-linecap:butt;stroke-linejoin:miter;stroke:rgb(13.730068%,12.159915%,12.54902%);stroke-opacity:1;stroke-miterlimit:4;" d="M 187.332031 409.667969 L 187.332031 402.917969 L 194.082031 402.917969 L 194.082031 409.667969 L 187.332031 409.667969 Z M 187.332031 409.667969 " transform="matrix(1,0,0,-1,0,810)"/>
<path style="fill-rule:nonzero;fill:rgb(100%,100%,100%);fill-opacity:1;stroke-width:1.5;stroke-linecap:butt;stroke-linejoin:miter;stroke:rgb(13.730068%,12.159915%,12.54902%);stroke-opacity:1;stroke-miterlimit:4;" d="M 194.082031 409.667969 L 194.082031 402.917969 L 200.832031 402.917969 L 200.832031 409.667969 L 194.082031 409.667969 Z M 194.082031 409.667969 " transform="matrix(1,0,0,-1,0,810)"/>

</svg>