<svg xmlns="http://www.w3.org/2000/svg" xmlns:xlink="http://www.w3.org/1999/xlink" width="612pt" height="792pt" viewBox="0 0 612 792" version="1.1">

<!-- Pulse Accelerator -->
<path style="fill-rule:nonzero;fill:rgb(100%,100%,100%);fill-opacity:1;stroke-width:0.75;stroke-linecap:butt;stroke-linejoin:miter;stroke:rgb(13.730068%,12.159915%,12.54902%);stroke-opacity:1;stroke-miterlimit:4;" d="M 250.75 509.925781 L 250.75 482.707031 L 279.5 482.707031 L 279.5 509.925781 L 268.90625 509.925781 C 271.425781 509.925781 273.410156 512.4375 273.410156 514.957031 C 273.410156 517.476562 271.425781 520.019531 268.90625 520.019531 L 268.90625 520.019531 C 268.90625 522.472656 268.007812 525.730469 265.136719 525.730469 C 262.339844 525.730469 261.378906 522.472656 261.378906 520.019531 L 261.378906 520.019531 C 258.859375 520.019531 256.886719 517.476562 256.886719 514.957031 C 256.886719 512.4375 258.859375 509.925781 261.378906 509.925781 L 250.75 509.925781 Z M 250.75 509.925781 " transform="matrix(1,0,0,-1,78,780)"/>
<path style="fill-rule:nonzero;fill:rgb(100%,100%,100%);fill-opacity:1;stroke-width:0.825;stroke-linecap:butt;stroke-linejoin:miter;stroke:rgb(13.730068%,12.159915%,12.54902%);stroke-opacity:1;stroke-miterlimit:4;" d="M 268.90625 514.957031 C 268.90625 512.769531 267.324219 511 265.136719 511 C 262.949219 511 261.378906 512.769531 261.378906 514.957031 C 261.378906 517.144531 262.949219 518.917969 265.136719 518.917969 C 267.324219 518.917969 268.90625 517.144531 268.90625 514.957031 Z M 268.90625 514.957031 " transform="matrix(1,0,0,-1,78,780)"/>

<!-- Damage Boxes -->
<path style="fill-rule:nonzero;fill:rgb(100%,100%,100%);fill-opacity:1;stroke-width:1.5;stroke-linecap:butt;stroke-linejoin:miter;stroke:rgb(13.730068%,12.159915%,12.54902%);stroke-opacity:1;stroke-miterlimit:4;" d="M 261.75 506.582031 L 261.75 499.832031 L 255 499.832031 L 255 506.582031 L 261.75 506.582031 Z M 261.75 506.582031 " transform="matrix(1,0,0,-1,78,780)"/>
<path style="fill-rule:nonzero;fill:rgb(100%,100%,100%);fill-opacity:1;stroke-width:1.5;stroke-linecap:butt;stroke-linejoin:miter;stroke:rgb(13.730068%,12.159915%,12.54902%);stroke-opacity:1;stroke-miterlimit:4;" d="M 268.5 506.582031 L 268.5 499.832031 L 261.75 499.832031 L 261.75 506.582031 L 268.5 506.582031 Z M 268.5 506.582031 " transform="matrix(1,0,0,-1,78,780)"/>
<path style="fill-rule:nonzero;fill:rgb(100%,100%,100%);fill-opacity:1;stroke-width:1.5;stroke-linecap:butt;stroke-linejoin:miter;stroke:rgb(13.730068%,12.159915%,12.54902%);stroke-opacity:1;stroke-miterlimit:4;" d="M 275.25 506.582031 L 275.25 499.832031 L 268.5 499.832031 L 268.5 506.582031 L 275.25 506.582031 Z M 275.25 506.582031 " transform="matrix(1,0,0,-1,78,780)"/>
<path style="fill-rule:nonzero;fill:rgb(100%,100%,100%);fill-opacity:1;stroke-width:1.5;stroke-linecap:butt;stroke-linejoin:miter;stroke:rgb(13.730068%,12.159915%,12.54902%);stroke-opacity:1;stroke-miterlimit:4;" d="M 261.75 499.832031 L 261.75 493.082031 L 255 493.082031 L 255 499.832031 L 261.75 499.832031 Z M 261.75 499.832031 " transform="matrix(1,0,0,-1,78,780)"/>
<path style="fill-rule:nonzero;fill:rgb(100%,100%,100%);fill-opacity:1;stroke-width:1.5;stroke-linecap:butt;stroke-linejoin:miter;stroke:rgb(13.730068%,12.159915%,12.54902%);stroke-opacity:1;stroke-miterlimit:4;" d="M 268.5 499.832031 L 268.5 493.082031 L 261.75 493.082031 L 261.75 499.832031 L 268.5 499.832031 Z M 268.5 499.832031 " transform="matrix(1,0,0,-1,78,780)"/>
<path style="fill-rule:nonzero;fill:rgb(100%,100%,100%);fill-opacity:1;stroke-width:1.5;stroke-linecap:butt;stroke-linejoin:miter;stroke:rgb(13.730068%,12.159915%,12.54902%);stroke-opacity:1;stroke-miterlimit:4;" d="M 275.25 499.832031 L 275.25 493.082031 L 268.5 493.082031 L 268.5 499.832031 L 275.25 499.832031 Z M 275.25 499.832031 " transform="matrix(1,0,0,-1,78,780)"/>
<path style="fill-rule:nonzero;fill:rgb(100%,100%,100%);fill-opacity:1;stroke-width:1.5;stroke-linecap:butt;stroke-linejoin:miter;stroke:rgb(13.730068%,12.159915%,12.54902%);stroke-opacity:1;stroke-miterlimit:4;" d="M 261.75 493.082031 L 261.75 486.332031 L 255 486.332031 L 255 493.082031 L 261.75 493.082031 Z M 261.75 493.082031 " transform="matrix(1,0,0,-1,78,780)"/>
<path style="fill-rule:nonzero;fill:rgb(100%,100%,100%);fill-opacity:1;stroke-width:1.5;stroke-linecap:butt;stroke-linejoin:miter;stroke:rgb(13.730068%,12.159915%,12.54902%);stroke-opacity:1;stroke-miterlimit:4;" d="M 268.5 493.082031 L 268.5 486.332031 L 261.75 486.332031 L 261.75 493.082031 L 268.5 493.082031 Z M 268.5 493.082031 " transform="matrix(1,0,0,-1,78,780)"/>
<path style="fill-rule:nonzero;fill:rgb(100%,100%,100%);fill-opacity:1;stroke-width:1.5;stroke-linecap:butt;stroke-linejoin:miter;stroke:rgb(13.730068%,12.159915%,12.54902%);stroke-opacity:1;stroke-miterlimit:4;" d="M 275.25 493.082031 L 275.25 486.332031 L 268.5 486.332031 L 268.5 493.082031 L 275.25 493.082031 Z M 275.25 493.082031 " transform="matrix(1,0,0,-1,78,780)"/>

</svg>