<svg xmlns="http://www.w3.org/2000/svg" xmlns:xlink="http://www.w3.org/1999/xlink" width="612pt" height="792pt" viewBox="0 0 612 792" version="1.1">

<!-- Quad Particle Beam -->
<path style="fill-rule:nonzero;fill:rgb(100%,100%,100%);fill-opacity:1;stroke-width:0.75;stroke-linecap:butt;stroke-linejoin:miter;stroke:rgb(13.730068%,12.159915%,12.54902%);stroke-opacity:1;stroke-miterlimit:4;" d="M 191.751794 117.499762 L 155.751794 117.499762 L 155.751794 119.749762 L 155.751794 121.999762 L 155.751794 119.749762 L 151.251794 119.749762 L 151.251794 121.999762 L 142.251794 121.999762 L 142.251794 124.249762 L 151.251794 124.249762 L 151.251794 126.499762 L 142.251794 126.499762 L 142.251794 128.749762 L 151.251794 128.749762 L 151.251794 130.999762 L 155.751794 130.999762 L 155.751794 128.749762 L 155.751794 132.749762 L 155.751794 130.499762 L 151.251794 130.499762 L 151.251794 132.749762 L 142.251794 132.749762 L 142.251794 134.999762 L 151.251794 134.999762 L 151.251794 137.249762 L 142.251794 137.249762 L 142.251794 139.499762 L 151.251794 139.499762 L 151.251794 141.749762 L 155.751794 141.749762 L 155.751794 139.499762 L 155.751794 143.999762 L 191.751794 143.999762 L 191.751794 117.499762 Z M 191.751794 117.499762 " transform="matrix(0,1,1,0,178.2893,11.8068)"/>

<!-- Damage Boxes -->
<path style="fill-rule:nonzero;fill:rgb(100%,100%,100%);fill-opacity:1;stroke-width:1.5;stroke-linecap:butt;stroke-linejoin:miter;stroke:rgb(13.730068%,12.159915%,12.54902%);stroke-opacity:1;stroke-miterlimit:4;" d="M 166.501794 130.499762 L 166.501794 123.749762 L 159.751794 123.749762 L 159.751794 130.499762 L 166.501794 130.499762 Z M 166.501794 130.499762 " transform="matrix(0,1,1,0,178.2893,11.8068)"/>
<path style="fill-rule:nonzero;fill:rgb(100%,100%,100%);fill-opacity:1;stroke-width:1.5;stroke-linecap:butt;stroke-linejoin:miter;stroke:rgb(13.730068%,12.159915%,12.54902%);stroke-opacity:1;stroke-miterlimit:4;" d="M 166.501794 137.249762 L 166.501794 130.499762 L 159.751794 130.499762 L 159.751794 137.249762 L 166.501794 137.249762 Z M 166.501794 137.249762 " transform="matrix(0,1,1,0,178.2893,11.8068)"/>
<path style="fill-rule:nonzero;fill:rgb(100%,100%,100%);fill-opacity:1;stroke-width:1.5;stroke-linecap:butt;stroke-linejoin:miter;stroke:rgb(13.730068%,12.159915%,12.54902%);stroke-opacity:1;stroke-miterlimit:4;" d="M 173.251794 130.499762 L 173.251794 123.749762 L 166.501794 123.749762 L 166.501794 130.499762 L 173.251794 130.499762 Z M 173.251794 130.499762 " transform="matrix(0,1,1,0,178.2893,11.8068)"/>
<path style="fill-rule:nonzero;fill:rgb(100%,100%,100%);fill-opacity:1;stroke-width:1.5;stroke-linecap:butt;stroke-linejoin:miter;stroke:rgb(13.730068%,12.159915%,12.54902%);stroke-opacity:1;stroke-miterlimit:4;" d="M 173.251794 137.249762 L 173.251794 130.499762 L 166.501794 130.499762 L 166.501794 137.249762 L 173.251794 137.249762 Z M 173.251794 137.249762 " transform="matrix(0,1,1,0,178.2893,11.8068)"/>
<path style="fill-rule:nonzero;fill:rgb(100%,100%,100%);fill-opacity:1;stroke-width:1.5;stroke-linecap:butt;stroke-linejoin:miter;stroke:rgb(13.730068%,12.159915%,12.54902%);stroke-opacity:1;stroke-miterlimit:4;" d="M 180.001794 130.499762 L 180.001794 123.749762 L 173.251794 123.749762 L 173.251794 130.499762 L 180.001794 130.499762 Z M 180.001794 130.499762 " transform="matrix(0,1,1,0,178.2893,11.8068)"/>
<path style="fill-rule:nonzero;fill:rgb(100%,100%,100%);fill-opacity:1;stroke-width:1.5;stroke-linecap:butt;stroke-linejoin:miter;stroke:rgb(13.730068%,12.159915%,12.54902%);stroke-opacity:1;stroke-miterlimit:4;" d="M 180.001794 137.249762 L 180.001794 130.499762 L 173.251794 130.499762 L 173.251794 137.249762 L 180.001794 137.249762 Z M 180.001794 137.249762 " transform="matrix(0,1,1,0,178.2893,11.8068)"/>
<path style="fill-rule:nonzero;fill:rgb(100%,100%,100%);fill-opacity:1;stroke-width:1.5;stroke-linecap:butt;stroke-linejoin:miter;stroke:rgb(13.730068%,12.159915%,12.54902%);stroke-opacity:1;stroke-miterlimit:4;" d="M 186.751794 130.499762 L 186.751794 123.749762 L 180.001794 123.749762 L 180.001794 130.499762 L 186.751794 130.499762 Z M 186.751794 130.499762 " transform="matrix(0,1,1,0,178.2893,11.8068)"/>
<path style="fill-rule:nonzero;fill:rgb(100%,100%,100%);fill-opacity:1;stroke-width:1.5;stroke-linecap:butt;stroke-linejoin:miter;stroke:rgb(13.730068%,12.159915%,12.54902%);stroke-opacity:1;stroke-miterlimit:4;" d="M 186.751794 137.249762 L 186.751794 130.499762 L 180.001794 130.499762 L 180.001794 137.249762 L 186.751794 137.249762 Z M 186.751794 137.249762 " transform="matrix(0,1,1,0,178.2893,11.8068)"/>

</svg>