<svg xmlns="http://www.w3.org/2000/svg" xmlns:xlink="http://www.w3.org/1999/xlink" width="612pt" height="792pt" viewBox="0 0 612 792" version="1.1">

<!-- Quad Array -->
<path style="fill-rule:nonzero;fill:rgb(100%,100%,100%);fill-opacity:1;stroke-width:0.75;stroke-linecap:butt;stroke-linejoin:miter;stroke:rgb(13.730068%,12.159915%,12.54902%);stroke-opacity:1;stroke-miterlimit:4;" d="M 237.25 531 L 237.25 553.5 L 241.75 553.5 L 237.25 553.5 L 237.25 558 L 239.5 558 L 239.5 564.75 L 244 564.75 L 244 558 L 246.25 558 L 246.25 564.75 L 250.75 564.75 L 250.75 558 L 253 558 L 253 553.5 L 248.5 553.5 L 262 553.5 L 257.5 553.5 L 257.5 558 L 259.75 558 L 259.75 564.75 L 264.25 564.75 L 264.25 558 L 266.5 558 L 266.5 564.75 L 271 564.75 L 271 558 L 273.25 558 L 273.25 553.5 L 268.75 553.5 L 273.25 553.5 L 273.25 531 L 237.25 531 Z M 237.25 531 " transform="matrix(1,0,0,-1,0,793)"/>

<!-- Damage Boxes -->
<path style="fill-rule:nonzero;fill:rgb(100%,100%,100%);fill-opacity:1;stroke-width:1.5;stroke-linecap:butt;stroke-linejoin:miter;stroke:rgb(13.730068%,12.159915%,12.54902%);stroke-opacity:1;stroke-miterlimit:4;" d="M 248.5 542.25 L 248.5 549 L 241.75 549 L 241.75 542.25 L 248.5 542.25 Z M 248.5 542.25 " transform="matrix(1,0,0,-1,0,793)"/>
<path style="fill-rule:nonzero;fill:rgb(100%,100%,100%);fill-opacity:1;stroke-width:1.5;stroke-linecap:butt;stroke-linejoin:miter;stroke:rgb(13.730068%,12.159915%,12.54902%);stroke-opacity:1;stroke-miterlimit:4;" d="M 255.25 542.25 L 255.25 549 L 248.5 549 L 248.5 542.25 L 255.25 542.25 Z M 255.25 542.25 " transform="matrix(1,0,0,-1,0,793)"/>
<path style="fill-rule:nonzero;fill:rgb(100%,100%,100%);fill-opacity:1;stroke-width:1.5;stroke-linecap:butt;stroke-linejoin:miter;stroke:rgb(13.730068%,12.159915%,12.54902%);stroke-opacity:1;stroke-miterlimit:4;" d="M 262 542.25 L 262 549 L 255.25 549 L 255.25 542.25 L 262 542.25 Z M 262 542.25 " transform="matrix(1,0,0,-1,0,793)"/>
<path style="fill-rule:nonzero;fill:rgb(100%,100%,100%);fill-opacity:1;stroke-width:1.5;stroke-linecap:butt;stroke-linejoin:miter;stroke:rgb(13.730068%,12.159915%,12.54902%);stroke-opacity:1;stroke-miterlimit:4;" d="M 268.75 542.25 L 268.75 549 L 262 549 L 262 542.25 L 268.75 542.25 Z M 268.75 542.25 " transform="matrix(1,0,0,-1,0,793)"/>
<path style="fill-rule:nonzero;fill:rgb(100%,100%,100%);fill-opacity:1;stroke-width:1.5;stroke-linecap:butt;stroke-linejoin:miter;stroke:rgb(13.730068%,12.159915%,12.54902%);stroke-opacity:1;stroke-miterlimit:4;" d="M 248.5 535.5 L 248.5 542.25 L 241.75 542.25 L 241.75 535.5 L 248.5 535.5 Z M 248.5 535.5 " transform="matrix(1,0,0,-1,0,793)"/>
<path style="fill-rule:nonzero;fill:rgb(100%,100%,100%);fill-opacity:1;stroke-width:1.5;stroke-linecap:butt;stroke-linejoin:miter;stroke:rgb(13.730068%,12.159915%,12.54902%);stroke-opacity:1;stroke-miterlimit:4;" d="M 255.25 535.5 L 255.25 542.25 L 248.5 542.25 L 248.5 535.5 L 255.25 535.5 Z M 255.25 535.5 " transform="matrix(1,0,0,-1,0,793)"/>
<path style="fill-rule:nonzero;fill:rgb(100%,100%,100%);fill-opacity:1;stroke-width:1.5;stroke-linecap:butt;stroke-linejoin:miter;stroke:rgb(13.730068%,12.159915%,12.54902%);stroke-opacity:1;stroke-miterlimit:4;" d="M 262 535.5 L 262 542.25 L 255.25 542.25 L 255.25 535.5 L 262 535.5 Z M 262 535.5 " transform="matrix(1,0,0,-1,0,793)"/>
<path style="fill-rule:nonzero;fill:rgb(100%,100%,100%);fill-opacity:1;stroke-width:1.5;stroke-linecap:butt;stroke-linejoin:miter;stroke:rgb(13.730068%,12.159915%,12.54902%);stroke-opacity:1;stroke-miterlimit:4;" d="M 268.75 535.5 L 268.75 542.25 L 262 542.25 L 262 535.5 L 268.75 535.5 Z M 268.75 535.5 " transform="matrix(1,0,0,-1,0,793)"/>

</svg>