<svg xmlns="http://www.w3.org/2000/svg" xmlns:xlink="http://www.w3.org/1999/xlink" width="612pt" height="792pt" viewBox="0 0 612 792" version="1.1">

<!-- Quad Pulsar -->
<path style="fill-rule:nonzero;fill:rgb(100%,100%,100%);fill-opacity:1;stroke-width:0.75;stroke-linecap:butt;stroke-linejoin:miter;stroke:rgb(13.730068%,12.159915%,12.54902%);stroke-opacity:1;stroke-miterlimit:4;" d="M 49.5 335.25 L 49.5 378 L 45 378 L 60.75 402.75 L 76.5 378 L 72 378 L 72 335.25 L 49.5 335.25 Z M 49.5 335.25 " transform="matrix(1,0,0,-1,0,793)"/>
<path style="fill-rule:nonzero;fill:rgb(100%,100%,100%);fill-opacity:1;stroke-width:0.75;stroke-linecap:butt;stroke-linejoin:miter;stroke:rgb(13.730068%,12.159915%,12.54902%);stroke-opacity:1;stroke-miterlimit:4;" d="M 57.375 375.75 C 59.238281 375.75 60.75 377.261719 60.75 379.125 C 60.75 380.988281 59.238281 382.5 57.375 382.5 C 55.511719 382.5 54 380.988281 54 379.125 C 54 377.261719 55.511719 375.75 57.375 375.75 Z M 57.375 375.75 " transform="matrix(1,0,0,-1,0,793)"/>
<path style="fill-rule:nonzero;fill:rgb(100%,100%,100%);fill-opacity:1;stroke-width:0.75;stroke-linecap:butt;stroke-linejoin:miter;stroke:rgb(13.730068%,12.159915%,12.54902%);stroke-opacity:1;stroke-miterlimit:4;" d="M 64.125 375.75 C 65.988281 375.75 67.5 377.261719 67.5 379.125 C 67.5 380.988281 65.988281 382.5 64.125 382.5 C 62.261719 382.5 60.75 380.988281 60.75 379.125 C 60.75 377.261719 62.261719 375.75 64.125 375.75 Z M 64.125 375.75 " transform="matrix(1,0,0,-1,0,793)"/>
<path style="fill-rule:nonzero;fill:rgb(100%,100%,100%);fill-opacity:1;stroke-width:0.75;stroke-linecap:butt;stroke-linejoin:miter;stroke:rgb(13.730068%,12.159915%,12.54902%);stroke-opacity:1;stroke-miterlimit:4;" d="M 57.375 382.5 C 59.238281 382.5 60.75 384.011719 60.75 385.875 C 60.75 387.738281 59.238281 389.25 57.375 389.25 C 55.511719 389.25 54 387.738281 54 385.875 C 54 384.011719 55.511719 382.5 57.375 382.5 Z M 57.375 382.5 " transform="matrix(1,0,0,-1,0,793)"/>
<path style="fill-rule:nonzero;fill:rgb(100%,100%,100%);fill-opacity:1;stroke-width:0.75;stroke-linecap:butt;stroke-linejoin:miter;stroke:rgb(13.730068%,12.159915%,12.54902%);stroke-opacity:1;stroke-miterlimit:4;" d="M 64.125 382.5 C 65.988281 382.5 67.5 384.011719 67.5 385.875 C 67.5 387.738281 65.988281 389.25 64.125 389.25 C 62.261719 389.25 60.75 387.738281 60.75 385.875 C 60.75 384.011719 62.261719 382.5 64.125 382.5 Z M 64.125 382.5 " transform="matrix(1,0,0,-1,0,793)"/>

<!-- Damage Boxes -->
<path style="fill-rule:nonzero;fill:rgb(100%,100%,100%);fill-opacity:1;stroke-width:1.5;stroke-linecap:butt;stroke-linejoin:miter;stroke:rgb(13.730068%,12.159915%,12.54902%);stroke-opacity:1;stroke-miterlimit:4;" d="M 60.75 366.75 L 60.75 373.5 L 54 373.5 L 54 366.75 L 60.75 366.75 Z M 60.75 366.75 " transform="matrix(1,0,0,-1,0,793)"/>
<path style="fill-rule:nonzero;fill:rgb(100%,100%,100%);fill-opacity:1;stroke-width:1.5;stroke-linecap:butt;stroke-linejoin:miter;stroke:rgb(13.730068%,12.159915%,12.54902%);stroke-opacity:1;stroke-miterlimit:4;" d="M 67.5 366.75 L 67.5 373.5 L 60.75 373.5 L 60.75 366.75 L 67.5 366.75 Z M 67.5 366.75 " transform="matrix(1,0,0,-1,0,793)"/>
<path style="fill-rule:nonzero;fill:rgb(100%,100%,100%);fill-opacity:1;stroke-width:1.5;stroke-linecap:butt;stroke-linejoin:miter;stroke:rgb(13.730068%,12.159915%,12.54902%);stroke-opacity:1;stroke-miterlimit:4;" d="M 60.75 360 L 60.75 366.75 L 54 366.75 L 54 360 L 60.75 360 Z M 60.75 360 " transform="matrix(1,0,0,-1,0,793)"/>
<path style="fill-rule:nonzero;fill:rgb(100%,100%,100%);fill-opacity:1;stroke-width:1.5;stroke-linecap:butt;stroke-linejoin:miter;stroke:rgb(13.730068%,12.159915%,12.54902%);stroke-opacity:1;stroke-miterlimit:4;" d="M 67.5 360 L 67.5 366.75 L 60.75 366.75 L 60.75 360 L 67.5 360 Z M 67.5 360 " transform="matrix(1,0,0,-1,0,793)"/>
<path style="fill-rule:nonzero;fill:rgb(100%,100%,100%);fill-opacity:1;stroke-width:1.5;stroke-linecap:butt;stroke-linejoin:miter;stroke:rgb(13.730068%,12.159915%,12.54902%);stroke-opacity:1;stroke-miterlimit:4;" d="M 60.75 353.25 L 60.75 360 L 54 360 L 54 353.25 L 60.75 353.25 Z M 60.75 353.25 " transform="matrix(1,0,0,-1,0,793)"/>
<path style="fill-rule:nonzero;fill:rgb(100%,100%,100%);fill-opacity:1;stroke-width:1.5;stroke-linecap:butt;stroke-linejoin:miter;stroke:rgb(13.730068%,12.159915%,12.54902%);stroke-opacity:1;stroke-miterlimit:4;" d="M 67.5 353.25 L 67.5 360 L 60.75 360 L 60.75 353.25 L 67.5 353.25 Z M 67.5 353.25 " transform="matrix(1,0,0,-1,0,793)"/>
<path style="fill-rule:nonzero;fill:rgb(100%,100%,100%);fill-opacity:1;stroke-width:1.5;stroke-linecap:butt;stroke-linejoin:miter;stroke:rgb(13.730068%,12.159915%,12.54902%);stroke-opacity:1;stroke-miterlimit:4;" d="M 60.75 346.5 L 60.75 353.25 L 54 353.25 L 54 346.5 L 60.75 346.5 Z M 60.75 346.5 " transform="matrix(1,0,0,-1,0,793)"/>
<path style="fill-rule:nonzero;fill:rgb(100%,100%,100%);fill-opacity:1;stroke-width:1.5;stroke-linecap:butt;stroke-linejoin:miter;stroke:rgb(13.730068%,12.159915%,12.54902%);stroke-opacity:1;stroke-miterlimit:4;" d="M 67.5 346.5 L 67.5 353.25 L 60.75 353.25 L 60.75 346.5 L 67.5 346.5 Z M 67.5 346.5 " transform="matrix(1,0,0,-1,0,793)"/>
<path style="fill-rule:nonzero;fill:rgb(100%,100%,100%);fill-opacity:1;stroke-width:1.5;stroke-linecap:butt;stroke-linejoin:miter;stroke:rgb(13.730068%,12.159915%,12.54902%);stroke-opacity:1;stroke-miterlimit:4;" d="M 60.75 339.75 L 60.75 346.5 L 54 346.5 L 54 339.75 L 60.75 339.75 Z M 60.75 339.75 " transform="matrix(1,0,0,-1,0,793)"/>
<path style="fill-rule:nonzero;fill:rgb(100%,100%,100%);fill-opacity:1;stroke-width:1.5;stroke-linecap:butt;stroke-linejoin:miter;stroke:rgb(13.730068%,12.159915%,12.54902%);stroke-opacity:1;stroke-miterlimit:4;" d="M 67.5 339.75 L 67.5 346.5 L 60.75 346.5 L 60.75 339.75 L 67.5 339.75 Z M 67.5 339.75 " transform="matrix(1,0,0,-1,0,793)"/>

</svg>