<svg xmlns="http://www.w3.org/2000/svg" xmlns:xlink="http://www.w3.org/1999/xlink" width="612pt" height="792pt" viewBox="0 0 612 792" version="1.1">

<!-- Quarters (12) -->
<path style="fill-rule:nonzero;fill:rgb(100%,100%,100%);fill-opacity:1;stroke-width:0.75;stroke-linecap:butt;stroke-linejoin:miter;stroke:rgb(13.730068%,12.159915%,12.54902%);stroke-opacity:1;stroke-miterlimit:4;" d="M 229.5 369 L 229.5 410.207031 L 238.5 410.207031 L 238.5 412.457031 L 240.75 412.457031 L 240.75 410.207031 L 243 410.207031 L 243 412.457031 L 245.25 412.457031 L 245.25 410.207031 L 247.5 410.207031 L 247.5 412.457031 L 249.75 412.457031 L 249.75 410.207031 L 252 410.207031 L 252 412.457031 L 254.25 412.457031 L 254.25 410.207031 L 263.25 410.207031 L 263.25 369 L 254.25 369 L 254.25 366.75 L 252 366.75 L 252 369 L 249.75 369 L 249.75 366.75 L 247.5 366.75 L 247.5 369 L 245.25 369 L 245.25 366.75 L 243 366.75 L 243 369 L 240.75 369 L 240.75 366.75 L 238.5 366.75 L 238.5 369 L 229.5 369 Z M 229.5 369 " transform="matrix(1,0,0,-1,0,793)"/>

<!-- Damage Boxes -->
<path style="fill-rule:nonzero;fill:rgb(100%,100%,100%);fill-opacity:1;stroke-width:1.5;stroke-linecap:butt;stroke-linejoin:miter;stroke:rgb(13.730068%,12.159915%,12.54902%);stroke-opacity:1;stroke-miterlimit:4;" d="M 243 396 L 243 402.75 L 236.25 402.75 L 236.25 396 L 243 396 Z M 243 396 " transform="matrix(1,0,0,-1,0,793)"/>
<path style="fill-rule:nonzero;fill:rgb(100%,100%,100%);fill-opacity:1;stroke-width:1.5;stroke-linecap:butt;stroke-linejoin:miter;stroke:rgb(13.730068%,12.159915%,12.54902%);stroke-opacity:1;stroke-miterlimit:4;" d="M 249.75 396 L 249.75 402.75 L 243 402.75 L 243 396 L 249.75 396 Z M 249.75 396 " transform="matrix(1,0,0,-1,0,793)"/>
<path style="fill-rule:nonzero;fill:rgb(100%,100%,100%);fill-opacity:1;stroke-width:1.5;stroke-linecap:butt;stroke-linejoin:miter;stroke:rgb(13.730068%,12.159915%,12.54902%);stroke-opacity:1;stroke-miterlimit:4;" d="M 256.5 396 L 256.5 402.75 L 249.75 402.75 L 249.75 396 L 256.5 396 Z M 256.5 396 " transform="matrix(1,0,0,-1,0,793)"/>
<path style="fill-rule:nonzero;fill:rgb(100%,100%,100%);fill-opacity:1;stroke-width:1.5;stroke-linecap:butt;stroke-linejoin:miter;stroke:rgb(13.730068%,12.159915%,12.54902%);stroke-opacity:1;stroke-miterlimit:4;" d="M 243 389.25 L 243 396 L 236.25 396 L 236.25 389.25 L 243 389.25 Z M 243 389.25 " transform="matrix(1,0,0,-1,0,793)"/>
<path style="fill-rule:nonzero;fill:rgb(100%,100%,100%);fill-opacity:1;stroke-width:1.5;stroke-linecap:butt;stroke-linejoin:miter;stroke:rgb(13.730068%,12.159915%,12.54902%);stroke-opacity:1;stroke-miterlimit:4;" d="M 249.75 389.25 L 249.75 396 L 243 396 L 243 389.25 L 249.75 389.25 Z M 249.75 389.25 " transform="matrix(1,0,0,-1,0,793)"/>
<path style="fill-rule:nonzero;fill:rgb(100%,100%,100%);fill-opacity:1;stroke-width:1.5;stroke-linecap:butt;stroke-linejoin:miter;stroke:rgb(13.730068%,12.159915%,12.54902%);stroke-opacity:1;stroke-miterlimit:4;" d="M 256.5 389.25 L 256.5 396 L 249.75 396 L 249.75 389.25 L 256.5 389.25 Z M 256.5 389.25 " transform="matrix(1,0,0,-1,0,793)"/>
<path style="fill-rule:nonzero;fill:rgb(100%,100%,100%);fill-opacity:1;stroke-width:1.5;stroke-linecap:butt;stroke-linejoin:miter;stroke:rgb(13.730068%,12.159915%,12.54902%);stroke-opacity:1;stroke-miterlimit:4;" d="M 243 382.5 L 243 389.25 L 236.25 389.25 L 236.25 382.5 L 243 382.5 Z M 243 382.5 " transform="matrix(1,0,0,-1,0,793)"/>
<path style="fill-rule:nonzero;fill:rgb(100%,100%,100%);fill-opacity:1;stroke-width:1.5;stroke-linecap:butt;stroke-linejoin:miter;stroke:rgb(13.730068%,12.159915%,12.54902%);stroke-opacity:1;stroke-miterlimit:4;" d="M 249.75 382.5 L 249.75 389.25 L 243 389.25 L 243 382.5 L 249.75 382.5 Z M 249.75 382.5 " transform="matrix(1,0,0,-1,0,793)"/>
<path style="fill-rule:nonzero;fill:rgb(100%,100%,100%);fill-opacity:1;stroke-width:1.5;stroke-linecap:butt;stroke-linejoin:miter;stroke:rgb(13.730068%,12.159915%,12.54902%);stroke-opacity:1;stroke-miterlimit:4;" d="M 256.5 382.5 L 256.5 389.25 L 249.75 389.25 L 249.75 382.5 L 256.5 382.5 Z M 256.5 382.5 " transform="matrix(1,0,0,-1,0,793)"/>
<path style="fill-rule:nonzero;fill:rgb(100%,100%,100%);fill-opacity:1;stroke-width:1.5;stroke-linecap:butt;stroke-linejoin:miter;stroke:rgb(13.730068%,12.159915%,12.54902%);stroke-opacity:1;stroke-miterlimit:4;" d="M 243 375.75 L 243 382.5 L 236.25 382.5 L 236.25 375.75 L 243 375.75 Z M 243 375.75 " transform="matrix(1,0,0,-1,0,793)"/>
<path style="fill-rule:nonzero;fill:rgb(100%,100%,100%);fill-opacity:1;stroke-width:1.5;stroke-linecap:butt;stroke-linejoin:miter;stroke:rgb(13.730068%,12.159915%,12.54902%);stroke-opacity:1;stroke-miterlimit:4;" d="M 249.75 375.75 L 249.75 382.5 L 243 382.5 L 243 375.75 L 249.75 375.75 Z M 249.75 375.75 " transform="matrix(1,0,0,-1,0,793)"/>
<path style="fill-rule:nonzero;fill:rgb(100%,100%,100%);fill-opacity:1;stroke-width:1.5;stroke-linecap:butt;stroke-linejoin:miter;stroke:rgb(13.730068%,12.159915%,12.54902%);stroke-opacity:1;stroke-miterlimit:4;" d="M 256.5 375.75 L 256.5 382.5 L 249.75 382.5 L 249.75 375.75 L 256.5 375.75 Z M 256.5 375.75 " transform="matrix(1,0,0,-1,0,793)"/>

</svg>