<svg xmlns="http://www.w3.org/2000/svg" xmlns:xlink="http://www.w3.org/1999/xlink" width="612pt" height="792pt" viewBox="0 0 612 792" version="1.1">

<!-- Rad Cannon -->
<path style="fill-rule:nonzero;fill:rgb(100%,100%,100%);fill-opacity:1;stroke-width:0.75;stroke-linecap:butt;stroke-linejoin:miter;stroke:rgb(13.730068%,12.159915%,12.54902%);stroke-opacity:1;stroke-miterlimit:4;" d="M 321.8125 560.25 L 321.8125 596.25 L 315.0625 596.25 L 315.0625 600.75 L 315.0625 603 L 315.0625 605.25 L 312.8125 605.25 L 310.5625 614.25 L 308.3125 605.25 L 306.0625 605.25 L 306.0625 603 L 306.0625 600.75 L 306.0625 596.25 L 299.3125 596.25 L 299.3125 560.25 L 321.8125 560.25 Z M 321.8125 560.25 " transform="matrix(1,0,0,-1,0,793)"/>
<path style="fill-rule:nonzero;fill:rgb(100%,100%,100%);fill-opacity:1;stroke-width:0.75;stroke-linecap:butt;stroke-linejoin:miter;stroke:rgb(13.730068%,12.159915%,12.54902%);stroke-opacity:1;stroke-miterlimit:4;" d="M 310.5625 603 C 317.808594 603 317.3125 609.75 317.3125 609.75 C 317.3125 609.75 317.203125 606.378906 310.5625 606.5 C 303.644531 606.625 303.8125 609.75 303.8125 609.75 C 303.8125 609.75 303.648438 603 310.5625 603 Z M 310.5625 603 " transform="matrix(1,0,0,-1,0,793)"/>
<path style="fill-rule:nonzero;fill:rgb(100%,100%,100%);fill-opacity:1;stroke-width:0.75;stroke-linecap:butt;stroke-linejoin:miter;stroke:rgb(13.730068%,12.159915%,12.54902%);stroke-opacity:1;stroke-miterlimit:4;" d="M 310.5625 598.5 C 317.808594 598.5 317.3125 605.25 317.3125 605.25 C 317.3125 605.25 317.203125 601.878906 310.5625 602 C 303.644531 602.125 303.8125 605.25 303.8125 605.25 C 303.8125 605.25 303.648438 598.5 310.5625 598.5 Z M 310.5625 598.5 " transform="matrix(1,0,0,-1,0,793)"/>
<path style="fill-rule:nonzero;fill:rgb(100%,100%,100%);fill-opacity:1;stroke-width:0.75;stroke-linecap:butt;stroke-linejoin:miter;stroke:rgb(13.730068%,12.159915%,12.54902%);stroke-opacity:1;stroke-miterlimit:4;" d="M 310.5625 594 C 317.808594 594 317.3125 600.75 317.3125 600.75 C 317.3125 600.75 317.203125 597.378906 310.5625 597.5 C 303.648438 597.625 303.8125 600.75 303.8125 600.75 C 303.8125 600.75 303.648438 594 310.5625 594 Z M 310.5625 594 " transform="matrix(1,0,0,-1,0,793)"/>

<!-- Damage Boxes -->
<path style="fill-rule:nonzero;fill:rgb(100%,100%,100%);fill-opacity:1;stroke-width:1.5;stroke-linecap:butt;stroke-linejoin:miter;stroke:rgb(13.730068%,12.159915%,12.54902%);stroke-opacity:1;stroke-miterlimit:4;" d="M 310.5625 585 L 310.5625 591.75 L 303.8125 591.75 L 303.8125 585 L 310.5625 585 Z M 310.5625 585 " transform="matrix(1,0,0,-1,0,793)"/>
<path style="fill-rule:nonzero;fill:rgb(100%,100%,100%);fill-opacity:1;stroke-width:1.5;stroke-linecap:butt;stroke-linejoin:miter;stroke:rgb(13.730068%,12.159915%,12.54902%);stroke-opacity:1;stroke-miterlimit:4;" d="M 317.3125 585 L 317.3125 591.75 L 310.5625 591.75 L 310.5625 585 L 317.3125 585 Z M 317.3125 585 " transform="matrix(1,0,0,-1,0,793)"/>
<path style="fill-rule:nonzero;fill:rgb(100%,100%,100%);fill-opacity:1;stroke-width:1.5;stroke-linecap:butt;stroke-linejoin:miter;stroke:rgb(13.730068%,12.159915%,12.54902%);stroke-opacity:1;stroke-miterlimit:4;" d="M 310.5625 578.25 L 310.5625 585 L 303.8125 585 L 303.8125 578.25 L 310.5625 578.25 Z M 310.5625 578.25 " transform="matrix(1,0,0,-1,0,793)"/>
<path style="fill-rule:nonzero;fill:rgb(100%,100%,100%);fill-opacity:1;stroke-width:1.5;stroke-linecap:butt;stroke-linejoin:miter;stroke:rgb(13.730068%,12.159915%,12.54902%);stroke-opacity:1;stroke-miterlimit:4;" d="M 317.3125 578.25 L 317.3125 585 L 310.5625 585 L 310.5625 578.25 L 317.3125 578.25 Z M 317.3125 578.25 " transform="matrix(1,0,0,-1,0,793)"/>
<path style="fill-rule:nonzero;fill:rgb(100%,100%,100%);fill-opacity:1;stroke-width:1.5;stroke-linecap:butt;stroke-linejoin:miter;stroke:rgb(13.730068%,12.159915%,12.54902%);stroke-opacity:1;stroke-miterlimit:4;" d="M 310.5625 571.5 L 310.5625 578.25 L 303.8125 578.25 L 303.8125 571.5 L 310.5625 571.5 Z M 310.5625 571.5 " transform="matrix(1,0,0,-1,0,793)"/>
<path style="fill-rule:nonzero;fill:rgb(100%,100%,100%);fill-opacity:1;stroke-width:1.5;stroke-linecap:butt;stroke-linejoin:miter;stroke:rgb(13.730068%,12.159915%,12.54902%);stroke-opacity:1;stroke-miterlimit:4;" d="M 317.3125 571.5 L 317.3125 578.25 L 310.5625 578.25 L 310.5625 571.5 L 317.3125 571.5 Z M 317.3125 571.5 " transform="matrix(1,0,0,-1,0,793)"/>
<path style="fill-rule:nonzero;fill:rgb(100%,100%,100%);fill-opacity:1;stroke-width:1.5;stroke-linecap:butt;stroke-linejoin:miter;stroke:rgb(13.730068%,12.159915%,12.54902%);stroke-opacity:1;stroke-miterlimit:4;" d="M 310.5625 564.75 L 310.5625 571.5 L 303.8125 571.5 L 303.8125 564.75 L 310.5625 564.75 Z M 310.5625 564.75 " transform="matrix(1,0,0,-1,0,793)"/>
<path style="fill-rule:nonzero;fill:rgb(100%,100%,100%);fill-opacity:1;stroke-width:1.5;stroke-linecap:butt;stroke-linejoin:miter;stroke:rgb(13.730068%,12.159915%,12.54902%);stroke-opacity:1;stroke-miterlimit:4;" d="M 317.3125 564.75 L 317.3125 571.5 L 310.5625 571.5 L 310.5625 564.75 L 317.3125 564.75 Z M 317.3125 564.75 " transform="matrix(1,0,0,-1,0,793)"/>

</svg>