<svg xmlns="http://www.w3.org/2000/svg" xmlns:xlink="http://www.w3.org/1999/xlink" width="612pt" height="792pt" viewBox="0 0 612 792" version="1.1">

<!-- Railgun -->
<path style="fill-rule:nonzero;fill:rgb(100%,100%,100%);fill-opacity:1;stroke-width:0.75;stroke-linecap:butt;stroke-linejoin:miter;stroke:rgb(13.730068%,12.159915%,12.54902%);stroke-opacity:1;stroke-miterlimit:4;" d="M 391.5 479.25 L 391.5 506.25 L 398.25 513 L 398.25 510.75 L 398.25 524.25 L 400.5 524.25 L 400.5 531 L 405 526.5 L 405 524.25 L 405 524.25 L 405 506.25 L 405 508.5 L 407.25 508.5 L 407.25 506.25 L 407.25 524.25 L 407.25 524.25 L 407.25 526.5 L 411.75 531 L 411.75 524.25 L 414 524.25 L 414 510.75 L 414 513 L 420.75 506.25 L 420.75 479.25 L 391.5 479.25 Z M 391.5 479.25 " transform="matrix(1,0,0,-1,0,793)"/>

<!-- Damage Boxes -->
<path style="fill-rule:nonzero;fill:rgb(100%,100%,100%);fill-opacity:1;stroke-width:1.5;stroke-linecap:butt;stroke-linejoin:miter;stroke:rgb(13.730068%,12.159915%,12.54902%);stroke-opacity:1;stroke-miterlimit:4;" d="M 402.75 504 L 402.75 497.25 L 396 497.25 L 396 504 L 402.75 504 Z M 402.75 504 " transform="matrix(1,0,0,-1,0,793)"/>
<path style="fill-rule:nonzero;fill:rgb(100%,100%,100%);fill-opacity:1;stroke-width:1.5;stroke-linecap:butt;stroke-linejoin:miter;stroke:rgb(13.730068%,12.159915%,12.54902%);stroke-opacity:1;stroke-miterlimit:4;" d="M 409.5 504 L 409.5 497.25 L 402.75 497.25 L 402.75 504 L 409.5 504 Z M 409.5 504 " transform="matrix(1,0,0,-1,0,793)"/>
<path style="fill-rule:nonzero;fill:rgb(100%,100%,100%);fill-opacity:1;stroke-width:1.5;stroke-linecap:butt;stroke-linejoin:miter;stroke:rgb(13.730068%,12.159915%,12.54902%);stroke-opacity:1;stroke-miterlimit:4;" d="M 416.25 504 L 416.25 497.25 L 409.5 497.25 L 409.5 504 L 416.25 504 Z M 416.25 504 " transform="matrix(1,0,0,-1,0,793)"/>
<path style="fill-rule:nonzero;fill:rgb(100%,100%,100%);fill-opacity:1;stroke-width:1.5;stroke-linecap:butt;stroke-linejoin:miter;stroke:rgb(13.730068%,12.159915%,12.54902%);stroke-opacity:1;stroke-miterlimit:4;" d="M 402.75 497.25 L 402.75 490.5 L 396 490.5 L 396 497.25 L 402.75 497.25 Z M 402.75 497.25 " transform="matrix(1,0,0,-1,0,793)"/>
<path style="fill-rule:nonzero;fill:rgb(100%,100%,100%);fill-opacity:1;stroke-width:1.5;stroke-linecap:butt;stroke-linejoin:miter;stroke:rgb(13.730068%,12.159915%,12.54902%);stroke-opacity:1;stroke-miterlimit:4;" d="M 409.5 497.25 L 409.5 490.5 L 402.75 490.5 L 402.75 497.25 L 409.5 497.25 Z M 409.5 497.25 " transform="matrix(1,0,0,-1,0,793)"/>
<path style="fill-rule:nonzero;fill:rgb(100%,100%,100%);fill-opacity:1;stroke-width:1.5;stroke-linecap:butt;stroke-linejoin:miter;stroke:rgb(13.730068%,12.159915%,12.54902%);stroke-opacity:1;stroke-miterlimit:4;" d="M 416.25 497.25 L 416.25 490.5 L 409.5 490.5 L 409.5 497.25 L 416.25 497.25 Z M 416.25 497.25 " transform="matrix(1,0,0,-1,0,793)"/>
<path style="fill-rule:nonzero;fill:rgb(100%,100%,100%);fill-opacity:1;stroke-width:1.5;stroke-linecap:butt;stroke-linejoin:miter;stroke:rgb(13.730068%,12.159915%,12.54902%);stroke-opacity:1;stroke-miterlimit:4;" d="M 402.75 490.5 L 402.75 483.75 L 396 483.75 L 396 490.5 L 402.75 490.5 Z M 402.75 490.5 " transform="matrix(1,0,0,-1,0,793)"/>
<path style="fill-rule:nonzero;fill:rgb(100%,100%,100%);fill-opacity:1;stroke-width:1.5;stroke-linecap:butt;stroke-linejoin:miter;stroke:rgb(13.730068%,12.159915%,12.54902%);stroke-opacity:1;stroke-miterlimit:4;" d="M 409.5 490.5 L 409.5 483.75 L 402.75 483.75 L 402.75 490.5 L 409.5 490.5 Z M 409.5 490.5 " transform="matrix(1,0,0,-1,0,793)"/>
<path style="fill-rule:nonzero;fill:rgb(100%,100%,100%);fill-opacity:1;stroke-width:1.5;stroke-linecap:butt;stroke-linejoin:miter;stroke:rgb(13.730068%,12.159915%,12.54902%);stroke-opacity:1;stroke-miterlimit:4;" d="M 416.25 490.5 L 416.25 483.75 L 409.5 483.75 L 409.5 490.5 L 416.25 490.5 Z M 416.25 490.5 " transform="matrix(1,0,0,-1,0,793)"/>

</svg>