<svg xmlns="http://www.w3.org/2000/svg" xmlns:xlink="http://www.w3.org/1999/xlink" width="612pt" height="792pt" viewBox="0 0 612 792" version="1.1">

<!-- Ranged Fuser -->
<path style="fill-rule:nonzero;fill:rgb(100%,100%,100%);fill-opacity:1;stroke-width:0.75;stroke-linecap:butt;stroke-linejoin:miter;stroke:rgb(13.730068%,12.159915%,12.54902%);stroke-opacity:1;stroke-miterlimit:4;" d="M 295.875 580.5 L 295.875 592.875 L 293.625 595.125 L 293.625 610.875 L 295.875 617.625 L 298.125 610.875 L 302.625 626.625 L 307.125 617.625 L 311.625 633.375 L 316.125 617.625 L 320.625 626.625 L 325.125 610.875 L 327.375 617.625 L 329.625 610.875 L 329.625 595.125 L 327.375 592.875 L 327.375 580.5 L 295.875 580.5 Z M 295.875 580.5 " transform="matrix(1,0,0,-1,17,773)"/>

<!-- Damage Boxes -->
<path style="fill-rule:nonzero;fill:rgb(100%,100%,100%);fill-opacity:1;stroke-width:1.5;stroke-linecap:butt;stroke-linejoin:miter;stroke:rgb(13.730068%,12.159915%,12.54902%);stroke-opacity:1;stroke-miterlimit:4;" d="M 311.625 606.375 L 311.625 613.125 L 304.875 613.125 L 304.875 606.375 L 311.625 606.375 Z M 311.625 606.375 " transform="matrix(1,0,0,-1,17,773)"/>
<path style="fill-rule:nonzero;fill:rgb(100%,100%,100%);fill-opacity:1;stroke-width:1.5;stroke-linecap:butt;stroke-linejoin:miter;stroke:rgb(13.730068%,12.159915%,12.54902%);stroke-opacity:1;stroke-miterlimit:4;" d="M 318.375 606.375 L 318.375 613.125 L 311.625 613.125 L 311.625 606.375 L 318.375 606.375 Z M 318.375 606.375 " transform="matrix(1,0,0,-1,17,773)"/>
<path style="fill-rule:nonzero;fill:rgb(100%,100%,100%);fill-opacity:1;stroke-width:1.5;stroke-linecap:butt;stroke-linejoin:miter;stroke:rgb(13.730068%,12.159915%,12.54902%);stroke-opacity:1;stroke-miterlimit:4;" d="M 304.875 599.625 L 304.875 606.375 L 298.125 606.375 L 298.125 599.625 L 304.875 599.625 Z M 304.875 599.625 " transform="matrix(1,0,0,-1,17,773)"/>
<path style="fill-rule:nonzero;fill:rgb(100%,100%,100%);fill-opacity:1;stroke-width:1.5;stroke-linecap:butt;stroke-linejoin:miter;stroke:rgb(13.730068%,12.159915%,12.54902%);stroke-opacity:1;stroke-miterlimit:4;" d="M 311.625 599.625 L 311.625 606.375 L 304.875 606.375 L 304.875 599.625 L 311.625 599.625 Z M 311.625 599.625 " transform="matrix(1,0,0,-1,17,773)"/>
<path style="fill-rule:nonzero;fill:rgb(100%,100%,100%);fill-opacity:1;stroke-width:1.5;stroke-linecap:butt;stroke-linejoin:miter;stroke:rgb(13.730068%,12.159915%,12.54902%);stroke-opacity:1;stroke-miterlimit:4;" d="M 318.375 599.625 L 318.375 606.375 L 311.625 606.375 L 311.625 599.625 L 318.375 599.625 Z M 318.375 599.625 " transform="matrix(1,0,0,-1,17,773)"/>
<path style="fill-rule:nonzero;fill:rgb(100%,100%,100%);fill-opacity:1;stroke-width:1.5;stroke-linecap:butt;stroke-linejoin:miter;stroke:rgb(13.730068%,12.159915%,12.54902%);stroke-opacity:1;stroke-miterlimit:4;" d="M 325.125 599.625 L 325.125 606.375 L 318.375 606.375 L 318.375 599.625 L 325.125 599.625 Z M 325.125 599.625 " transform="matrix(1,0,0,-1,17,773)"/>
<path style="fill-rule:nonzero;fill:rgb(100%,100%,100%);fill-opacity:1;stroke-width:1.5;stroke-linecap:butt;stroke-linejoin:miter;stroke:rgb(13.730068%,12.159915%,12.54902%);stroke-opacity:1;stroke-miterlimit:4;" d="M 308.375 592.875 L 308.375 599.625 L 301.625 599.625 L 301.625 592.875 L 308.375 592.875 Z M 308.375 592.875 " transform="matrix(1,0,0,-1,17,773)"/>
<path style="fill-rule:nonzero;fill:rgb(100%,100%,100%);fill-opacity:1;stroke-width:1.5;stroke-linecap:butt;stroke-linejoin:miter;stroke:rgb(13.730068%,12.159915%,12.54902%);stroke-opacity:1;stroke-miterlimit:4;" d="M 315.125 592.875 L 315.125 599.625 L 308.375 599.625 L 308.375 592.875 L 315.125 592.875 Z M 315.125 592.875 " transform="matrix(1,0,0,-1,17,773)"/>
<path style="fill-rule:nonzero;fill:rgb(100%,100%,100%);fill-opacity:1;stroke-width:1.5;stroke-linecap:butt;stroke-linejoin:miter;stroke:rgb(13.730068%,12.159915%,12.54902%);stroke-opacity:1;stroke-miterlimit:4;" d="M 321.875 592.875 L 321.875 599.625 L 315.125 599.625 L 315.125 592.875 L 321.875 592.875 Z M 321.875 592.875 " transform="matrix(1,0,0,-1,17,773)"/>
<path style="fill-rule:nonzero;fill:rgb(100%,100%,100%);fill-opacity:1;stroke-width:1.5;stroke-linecap:butt;stroke-linejoin:miter;stroke:rgb(13.730068%,12.159915%,12.54902%);stroke-opacity:1;stroke-miterlimit:4;" d="M 308.375 586.125 L 308.375 592.875 L 301.625 592.875 L 301.625 586.125 L 308.375 586.125 Z M 308.375 586.125 " transform="matrix(1,0,0,-1,17,773)"/>
<path style="fill-rule:nonzero;fill:rgb(100%,100%,100%);fill-opacity:1;stroke-width:1.5;stroke-linecap:butt;stroke-linejoin:miter;stroke:rgb(13.730068%,12.159915%,12.54902%);stroke-opacity:1;stroke-miterlimit:4;" d="M 315.125 586.125 L 315.125 592.875 L 308.375 592.875 L 308.375 586.125 L 315.125 586.125 Z M 315.125 586.125 " transform="matrix(1,0,0,-1,17,773)"/>
<path style="fill-rule:nonzero;fill:rgb(100%,100%,100%);fill-opacity:1;stroke-width:1.5;stroke-linecap:butt;stroke-linejoin:miter;stroke:rgb(13.730068%,12.159915%,12.54902%);stroke-opacity:1;stroke-miterlimit:4;" d="M 321.875 586.125 L 321.875 592.875 L 315.125 592.875 L 315.125 586.125 L 321.875 586.125 Z M 321.875 586.125 " transform="matrix(1,0,0,-1,17,773)"/>

</svg>