<svg xmlns="http://www.w3.org/2000/svg" xmlns:xlink="http://www.w3.org/1999/xlink" width="612pt" height="792pt" viewBox="0 0 612 792" version="1.1">

<!-- Reactor (20) -->
<path style="fill-rule:nonzero;fill:rgb(100%,100%,100%);fill-opacity:1;stroke-width:0.75;stroke-linecap:butt;stroke-linejoin:miter;stroke:rgb(13.730068%,12.159915%,12.54902%);stroke-opacity:1;stroke-miterlimit:4;" d="M 234 369 L 234 408.375 L 240.75 408.375 L 240.75 411.75 L 254.25 411.75 L 254.25 408.375 L 261 408.375 L 261 411.75 L 274.5 411.75 L 274.5 408.375 L 281.25 408.375 L 281.25 369 L 234 369 Z M 234 369 " transform="matrix(1,0,0,-1,0,793)"/>

<!-- Damage Boxes -->
<path style="fill-rule:nonzero;fill:rgb(100%,100%,100%);fill-opacity:1;stroke-width:1.5;stroke-linecap:butt;stroke-linejoin:miter;stroke:rgb(13.730068%,12.159915%,12.54902%);stroke-opacity:1;stroke-miterlimit:4;" d="M 247.5 396 L 247.5 402.75 L 240.75 402.75 L 240.75 396 L 247.5 396 Z M 247.5 396 " transform="matrix(1,0,0,-1,0,793)"/>
<path style="fill-rule:nonzero;fill:rgb(100%,100%,100%);fill-opacity:1;stroke-width:1.5;stroke-linecap:butt;stroke-linejoin:miter;stroke:rgb(13.730068%,12.159915%,12.54902%);stroke-opacity:1;stroke-miterlimit:4;" d="M 254.25 396 L 254.25 402.75 L 247.5 402.75 L 247.5 396 L 254.25 396 Z M 254.25 396 " transform="matrix(1,0,0,-1,0,793)"/>
<path style="fill-rule:nonzero;fill:rgb(100%,100%,100%);fill-opacity:1;stroke-width:1.5;stroke-linecap:butt;stroke-linejoin:miter;stroke:rgb(13.730068%,12.159915%,12.54902%);stroke-opacity:1;stroke-miterlimit:4;" d="M 261 396 L 261 402.75 L 254.25 402.75 L 254.25 396 L 261 396 Z M 261 396 " transform="matrix(1,0,0,-1,0,793)"/>
<path style="fill-rule:nonzero;fill:rgb(100%,100%,100%);fill-opacity:1;stroke-width:1.5;stroke-linecap:butt;stroke-linejoin:miter;stroke:rgb(13.730068%,12.159915%,12.54902%);stroke-opacity:1;stroke-miterlimit:4;" d="M 267.75 396 L 267.75 402.75 L 261 402.75 L 261 396 L 267.75 396 Z M 267.75 396 " transform="matrix(1,0,0,-1,0,793)"/>
<path style="fill-rule:nonzero;fill:rgb(100%,100%,100%);fill-opacity:1;stroke-width:1.5;stroke-linecap:butt;stroke-linejoin:miter;stroke:rgb(13.730068%,12.159915%,12.54902%);stroke-opacity:1;stroke-miterlimit:4;" d="M 274.5 396 L 274.5 402.75 L 267.75 402.75 L 267.75 396 L 274.5 396 Z M 274.5 396 " transform="matrix(1,0,0,-1,0,793)"/>
<path style="fill-rule:nonzero;fill:rgb(100%,100%,100%);fill-opacity:1;stroke-width:1.5;stroke-linecap:butt;stroke-linejoin:miter;stroke:rgb(13.730068%,12.159915%,12.54902%);stroke-opacity:1;stroke-miterlimit:4;" d="M 247.5 389.25 L 247.5 396 L 240.75 396 L 240.75 389.25 L 247.5 389.25 Z M 247.5 389.25 " transform="matrix(1,0,0,-1,0,793)"/>
<path style="fill-rule:nonzero;fill:rgb(100%,100%,100%);fill-opacity:1;stroke-width:1.5;stroke-linecap:butt;stroke-linejoin:miter;stroke:rgb(13.730068%,12.159915%,12.54902%);stroke-opacity:1;stroke-miterlimit:4;" d="M 254.25 389.25 L 254.25 396 L 247.5 396 L 247.5 389.25 L 254.25 389.25 Z M 254.25 389.25 " transform="matrix(1,0,0,-1,0,793)"/>
<path style="fill-rule:nonzero;fill:rgb(100%,100%,100%);fill-opacity:1;stroke-width:1.5;stroke-linecap:butt;stroke-linejoin:miter;stroke:rgb(13.730068%,12.159915%,12.54902%);stroke-opacity:1;stroke-miterlimit:4;" d="M 261 389.25 L 261 396 L 254.25 396 L 254.25 389.25 L 261 389.25 Z M 261 389.25 " transform="matrix(1,0,0,-1,0,793)"/>
<path style="fill-rule:nonzero;fill:rgb(100%,100%,100%);fill-opacity:1;stroke-width:1.5;stroke-linecap:butt;stroke-linejoin:miter;stroke:rgb(13.730068%,12.159915%,12.54902%);stroke-opacity:1;stroke-miterlimit:4;" d="M 267.75 389.25 L 267.75 396 L 261 396 L 261 389.25 L 267.75 389.25 Z M 267.75 389.25 " transform="matrix(1,0,0,-1,0,793)"/>
<path style="fill-rule:nonzero;fill:rgb(100%,100%,100%);fill-opacity:1;stroke-width:1.5;stroke-linecap:butt;stroke-linejoin:miter;stroke:rgb(13.730068%,12.159915%,12.54902%);stroke-opacity:1;stroke-miterlimit:4;" d="M 274.5 389.25 L 274.5 396 L 267.75 396 L 267.75 389.25 L 274.5 389.25 Z M 274.5 389.25 " transform="matrix(1,0,0,-1,0,793)"/>
<path style="fill-rule:nonzero;fill:rgb(100%,100%,100%);fill-opacity:1;stroke-width:1.5;stroke-linecap:butt;stroke-linejoin:miter;stroke:rgb(13.730068%,12.159915%,12.54902%);stroke-opacity:1;stroke-miterlimit:4;" d="M 247.5 382.5 L 247.5 389.25 L 240.75 389.25 L 240.75 382.5 L 247.5 382.5 Z M 247.5 382.5 " transform="matrix(1,0,0,-1,0,793)"/>
<path style="fill-rule:nonzero;fill:rgb(100%,100%,100%);fill-opacity:1;stroke-width:1.5;stroke-linecap:butt;stroke-linejoin:miter;stroke:rgb(13.730068%,12.159915%,12.54902%);stroke-opacity:1;stroke-miterlimit:4;" d="M 254.25 382.5 L 254.25 389.25 L 247.5 389.25 L 247.5 382.5 L 254.25 382.5 Z M 254.25 382.5 " transform="matrix(1,0,0,-1,0,793)"/>
<path style="fill-rule:nonzero;fill:rgb(100%,100%,100%);fill-opacity:1;stroke-width:1.5;stroke-linecap:butt;stroke-linejoin:miter;stroke:rgb(13.730068%,12.159915%,12.54902%);stroke-opacity:1;stroke-miterlimit:4;" d="M 261 382.5 L 261 389.25 L 254.25 389.25 L 254.25 382.5 L 261 382.5 Z M 261 382.5 " transform="matrix(1,0,0,-1,0,793)"/>
<path style="fill-rule:nonzero;fill:rgb(100%,100%,100%);fill-opacity:1;stroke-width:1.5;stroke-linecap:butt;stroke-linejoin:miter;stroke:rgb(13.730068%,12.159915%,12.54902%);stroke-opacity:1;stroke-miterlimit:4;" d="M 267.75 382.5 L 267.75 389.25 L 261 389.25 L 261 382.5 L 267.75 382.5 Z M 267.75 382.5 " transform="matrix(1,0,0,-1,0,793)"/>
<path style="fill-rule:nonzero;fill:rgb(100%,100%,100%);fill-opacity:1;stroke-width:1.5;stroke-linecap:butt;stroke-linejoin:miter;stroke:rgb(13.730068%,12.159915%,12.54902%);stroke-opacity:1;stroke-miterlimit:4;" d="M 274.5 382.5 L 274.5 389.25 L 267.75 389.25 L 267.75 382.5 L 274.5 382.5 Z M 274.5 382.5 " transform="matrix(1,0,0,-1,0,793)"/>
<path style="fill-rule:nonzero;fill:rgb(100%,100%,100%);fill-opacity:1;stroke-width:1.5;stroke-linecap:butt;stroke-linejoin:miter;stroke:rgb(13.730068%,12.159915%,12.54902%);stroke-opacity:1;stroke-miterlimit:4;" d="M 247.5 375.75 L 247.5 382.5 L 240.75 382.5 L 240.75 375.75 L 247.5 375.75 Z M 247.5 375.75 " transform="matrix(1,0,0,-1,0,793)"/>
<path style="fill-rule:nonzero;fill:rgb(100%,100%,100%);fill-opacity:1;stroke-width:1.5;stroke-linecap:butt;stroke-linejoin:miter;stroke:rgb(13.730068%,12.159915%,12.54902%);stroke-opacity:1;stroke-miterlimit:4;" d="M 254.25 375.75 L 254.25 382.5 L 247.5 382.5 L 247.5 375.75 L 254.25 375.75 Z M 254.25 375.75 " transform="matrix(1,0,0,-1,0,793)"/>
<path style="fill-rule:nonzero;fill:rgb(100%,100%,100%);fill-opacity:1;stroke-width:1.5;stroke-linecap:butt;stroke-linejoin:miter;stroke:rgb(13.730068%,12.159915%,12.54902%);stroke-opacity:1;stroke-miterlimit:4;" d="M 261 375.75 L 261 382.5 L 254.25 382.5 L 254.25 375.75 L 261 375.75 Z M 261 375.75 " transform="matrix(1,0,0,-1,0,793)"/>
<path style="fill-rule:nonzero;fill:rgb(100%,100%,100%);fill-opacity:1;stroke-width:1.5;stroke-linecap:butt;stroke-linejoin:miter;stroke:rgb(13.730068%,12.159915%,12.54902%);stroke-opacity:1;stroke-miterlimit:4;" d="M 267.75 375.75 L 267.75 382.5 L 261 382.5 L 261 375.75 L 267.75 375.75 Z M 267.75 375.75 " transform="matrix(1,0,0,-1,0,793)"/>
<path style="fill-rule:nonzero;fill:rgb(100%,100%,100%);fill-opacity:1;stroke-width:1.5;stroke-linecap:butt;stroke-linejoin:miter;stroke:rgb(13.730068%,12.159915%,12.54902%);stroke-opacity:1;stroke-miterlimit:4;" d="M 274.5 375.75 L 274.5 382.5 L 267.75 382.5 L 267.75 375.75 L 274.5 375.75 Z M 274.5 375.75 " transform="matrix(1,0,0,-1,0,793)"/>

</svg>