<svg xmlns="http://www.w3.org/2000/svg" xmlns:xlink="http://www.w3.org/1999/xlink" width="612pt" height="792pt" viewBox="0 0 612 792" version="1.1">

<!-- Reload Rack (9) -->
<path style="fill-rule:nonzero;fill:rgb(100%,100%,100%);fill-opacity:1;stroke-width:0.75;stroke-linecap:butt;stroke-linejoin:miter;stroke:rgb(13.730068%,12.159915%,12.54902%);stroke-opacity:1;stroke-miterlimit:4;" d="M 297.0625 304.25 L 297.0625 315.5 L 292.5625 315.5 L 297.0625 320 L 297.0625 329 L 292.5625 329 L 297.0625 333.5 L 297.0625 342.5 L 301.5625 347 L 306.0625 342.5 L 306.0625 338 L 321.8125 338 L 321.8125 342.5 L 326.3125 347 L 330.8125 342.5 L 330.8125 333.5 L 335.3125 329 L 330.8125 329 L 330.8125 320 L 335.3125 315.5 L 330.8125 315.5 L 330.8125 304.25 L 297.0625 304.25 Z M 297.0625 304.25 " transform="matrix(1,0,0,-1,0,793)"/>

<!-- Damage Boxes -->
<path style="fill-rule:nonzero;fill:rgb(100%,100%,100%);fill-opacity:1;stroke-width:1.5;stroke-linecap:butt;stroke-linejoin:miter;stroke:rgb(13.730068%,12.159915%,12.54902%);stroke-opacity:1;stroke-miterlimit:4;" d="M 310.5625 331.25 L 303.8125 331.25 L 303.8125 324.5 L 310.5625 324.5 L 310.5625 331.25 Z M 310.5625 331.25 " transform="matrix(1,0,0,-1,0,793)"/>
<path style="fill-rule:nonzero;fill:rgb(100%,100%,100%);fill-opacity:1;stroke-width:1.5;stroke-linecap:butt;stroke-linejoin:miter;stroke:rgb(13.730068%,12.159915%,12.54902%);stroke-opacity:1;stroke-miterlimit:4;" d="M 317.3125 331.25 L 310.5625 331.25 L 310.5625 324.5 L 317.3125 324.5 L 317.3125 331.25 Z M 317.3125 331.25 " transform="matrix(1,0,0,-1,0,793)"/>
<path style="fill-rule:nonzero;fill:rgb(100%,100%,100%);fill-opacity:1;stroke-width:1.5;stroke-linecap:butt;stroke-linejoin:miter;stroke:rgb(13.730068%,12.159915%,12.54902%);stroke-opacity:1;stroke-miterlimit:4;" d="M 324.0625 331.25 L 317.3125 331.25 L 317.3125 324.5 L 324.0625 324.5 L 324.0625 331.25 Z M 324.0625 331.25 " transform="matrix(1,0,0,-1,0,793)"/>
<path style="fill-rule:nonzero;fill:rgb(100%,100%,100%);fill-opacity:1;stroke-width:1.5;stroke-linecap:butt;stroke-linejoin:miter;stroke:rgb(13.730068%,12.159915%,12.54902%);stroke-opacity:1;stroke-miterlimit:4;" d="M 310.5625 324.5 L 303.8125 324.5 L 303.8125 317.75 L 310.5625 317.75 L 310.5625 324.5 Z M 310.5625 324.5 " transform="matrix(1,0,0,-1,0,793)"/>
<path style="fill-rule:nonzero;fill:rgb(100%,100%,100%);fill-opacity:1;stroke-width:1.5;stroke-linecap:butt;stroke-linejoin:miter;stroke:rgb(13.730068%,12.159915%,12.54902%);stroke-opacity:1;stroke-miterlimit:4;" d="M 317.3125 324.5 L 310.5625 324.5 L 310.5625 317.75 L 317.3125 317.75 L 317.3125 324.5 Z M 317.3125 324.5 " transform="matrix(1,0,0,-1,0,793)"/>
<path style="fill-rule:nonzero;fill:rgb(100%,100%,100%);fill-opacity:1;stroke-width:1.5;stroke-linecap:butt;stroke-linejoin:miter;stroke:rgb(13.730068%,12.159915%,12.54902%);stroke-opacity:1;stroke-miterlimit:4;" d="M 324.0625 324.5 L 317.3125 324.5 L 317.3125 317.75 L 324.0625 317.75 L 324.0625 324.5 Z M 324.0625 324.5 " transform="matrix(1,0,0,-1,0,793)"/>
<path style="fill-rule:nonzero;fill:rgb(100%,100%,100%);fill-opacity:1;stroke-width:1.5;stroke-linecap:butt;stroke-linejoin:miter;stroke:rgb(13.730068%,12.159915%,12.54902%);stroke-opacity:1;stroke-miterlimit:4;" d="M 310.5625 317.75 L 303.8125 317.75 L 303.8125 311 L 310.5625 311 L 310.5625 317.75 Z M 310.5625 317.75 " transform="matrix(1,0,0,-1,0,793)"/>
<path style="fill-rule:nonzero;fill:rgb(100%,100%,100%);fill-opacity:1;stroke-width:1.5;stroke-linecap:butt;stroke-linejoin:miter;stroke:rgb(13.730068%,12.159915%,12.54902%);stroke-opacity:1;stroke-miterlimit:4;" d="M 317.3125 317.75 L 310.5625 317.75 L 310.5625 311 L 317.3125 311 L 317.3125 317.75 Z M 317.3125 317.75 " transform="matrix(1,0,0,-1,0,793)"/>
<path style="fill-rule:nonzero;fill:rgb(100%,100%,100%);fill-opacity:1;stroke-width:1.5;stroke-linecap:butt;stroke-linejoin:miter;stroke:rgb(13.730068%,12.159915%,12.54902%);stroke-opacity:1;stroke-miterlimit:4;" d="M 324.0625 317.75 L 317.3125 317.75 L 317.3125 311 L 324.0625 311 L 324.0625 317.75 Z M 324.0625 317.75 " transform="matrix(1,0,0,-1,0,793)"/>

</svg>