<svg xmlns="http://www.w3.org/2000/svg" xmlns:xlink="http://www.w3.org/1999/xlink" width="612pt" height="792pt" viewBox="0 0 612 792" version="1.1">

<!-- Scatter-Pulsar -->
<path style="fill-rule:nonzero;fill:rgb(100%,100%,100%);fill-opacity:1;stroke-width:0.75;stroke-linecap:butt;stroke-linejoin:miter;stroke:rgb(13.730068%,12.159915%,12.54902%);stroke-opacity:1;stroke-miterlimit:4;" d="M 258.75 578.25 L 258.75 600.75 L 254.25 600.75 L 270 616.5 L 285.75 600.75 L 281.25 600.75 L 281.25 578.25 L 258.75 578.25 Z M 258.75 578.25 " transform="matrix(1,0,0,-1,0,793)"/>
<path style="fill-rule:nonzero;fill:rgb(100%,100%,100%);fill-opacity:1;stroke-width:0.75;stroke-linecap:butt;stroke-linejoin:miter;stroke:rgb(13.730068%,12.159915%,12.54902%);stroke-opacity:1;stroke-miterlimit:4;" d="M 265.5 598.5 C 266.742188 598.5 267.75 599.507812 267.75 600.75 C 267.75 601.992188 266.742188 603 265.5 603 C 264.257812 603 263.25 601.992188 263.25 600.75 C 263.25 599.507812 264.257812 598.5 265.5 598.5 Z M 265.5 598.5 " transform="matrix(1,0,0,-1,0,793)"/>
<path style="fill-rule:nonzero;fill:rgb(100%,100%,100%);fill-opacity:1;stroke-width:0.75;stroke-linecap:butt;stroke-linejoin:miter;stroke:rgb(13.730068%,12.159915%,12.54902%);stroke-opacity:1;stroke-miterlimit:4;" d="M 270 598.5 C 271.242188 598.5 272.25 599.507812 272.25 600.75 C 272.25 601.992188 271.242188 603 270 603 C 268.757812 603 267.75 601.992188 267.75 600.75 C 267.75 599.507812 268.757812 598.5 270 598.5 Z M 270 598.5 " transform="matrix(1,0,0,-1,0,793)"/>
<path style="fill-rule:nonzero;fill:rgb(100%,100%,100%);fill-opacity:1;stroke-width:0.75;stroke-linecap:butt;stroke-linejoin:miter;stroke:rgb(13.730068%,12.159915%,12.54902%);stroke-opacity:1;stroke-miterlimit:4;" d="M 274.5 598.5 C 275.742188 598.5 276.75 599.507812 276.75 600.75 C 276.75 601.992188 275.742188 603 274.5 603 C 273.257812 603 272.25 601.992188 272.25 600.75 C 272.25 599.507812 273.257812 598.5 274.5 598.5 Z M 274.5 598.5 " transform="matrix(1,0,0,-1,0,793)"/>
<path style="fill-rule:nonzero;fill:rgb(100%,100%,100%);fill-opacity:1;stroke-width:0.75;stroke-linecap:butt;stroke-linejoin:miter;stroke:rgb(13.730068%,12.159915%,12.54902%);stroke-opacity:1;stroke-miterlimit:4;" d="M 265.5 603 C 266.742188 603 267.75 604.007812 267.75 605.25 C 267.75 606.492188 266.742188 607.5 265.5 607.5 C 264.257812 607.5 263.25 606.492188 263.25 605.25 C 263.25 604.007812 264.257812 603 265.5 603 Z M 265.5 603 " transform="matrix(1,0,0,-1,0,793)"/>
<path style="fill-rule:nonzero;fill:rgb(100%,100%,100%);fill-opacity:1;stroke-width:0.75;stroke-linecap:butt;stroke-linejoin:miter;stroke:rgb(13.730068%,12.159915%,12.54902%);stroke-opacity:1;stroke-miterlimit:4;" d="M 270 603 C 271.242188 603 272.25 604.007812 272.25 605.25 C 272.25 606.492188 271.242188 607.5 270 607.5 C 268.757812 607.5 267.75 606.492188 267.75 605.25 C 267.75 604.007812 268.757812 603 270 603 Z M 270 603 " transform="matrix(1,0,0,-1,0,793)"/>
<path style="fill-rule:nonzero;fill:rgb(100%,100%,100%);fill-opacity:1;stroke-width:0.75;stroke-linecap:butt;stroke-linejoin:miter;stroke:rgb(13.730068%,12.159915%,12.54902%);stroke-opacity:1;stroke-miterlimit:4;" d="M 274.5 603 C 275.742188 603 276.75 604.007812 276.75 605.25 C 276.75 606.492188 275.742188 607.5 274.5 607.5 C 273.257812 607.5 272.25 606.492188 272.25 605.25 C 272.25 604.007812 273.257812 603 274.5 603 Z M 274.5 603 " transform="matrix(1,0,0,-1,0,793)"/>

<!-- Damage Boxes -->
<path style="fill-rule:nonzero;fill:rgb(100%,100%,100%);fill-opacity:1;stroke-width:1.5;stroke-linecap:butt;stroke-linejoin:miter;stroke:rgb(13.730068%,12.159915%,12.54902%);stroke-opacity:1;stroke-miterlimit:4;" d="M 270 589.5 L 270 596.25 L 263.25 596.25 L 263.25 589.5 L 270 589.5 Z M 270 589.5 " transform="matrix(1,0,0,-1,0,793)"/>
<path style="fill-rule:nonzero;fill:rgb(100%,100%,100%);fill-opacity:1;stroke-width:1.5;stroke-linecap:butt;stroke-linejoin:miter;stroke:rgb(13.730068%,12.159915%,12.54902%);stroke-opacity:1;stroke-miterlimit:4;" d="M 276.75 589.5 L 276.75 596.25 L 270 596.25 L 270 589.5 L 276.75 589.5 Z M 276.75 589.5 " transform="matrix(1,0,0,-1,0,793)"/>
<path style="fill-rule:nonzero;fill:rgb(100%,100%,100%);fill-opacity:1;stroke-width:1.5;stroke-linecap:butt;stroke-linejoin:miter;stroke:rgb(13.730068%,12.159915%,12.54902%);stroke-opacity:1;stroke-miterlimit:4;" d="M 270 582.75 L 270 589.5 L 263.25 589.5 L 263.25 582.75 L 270 582.75 Z M 270 582.75 " transform="matrix(1,0,0,-1,0,793)"/>
<path style="fill-rule:nonzero;fill:rgb(100%,100%,100%);fill-opacity:1;stroke-width:1.5;stroke-linecap:butt;stroke-linejoin:miter;stroke:rgb(13.730068%,12.159915%,12.54902%);stroke-opacity:1;stroke-miterlimit:4;" d="M 276.75 582.75 L 276.75 589.5 L 270 589.5 L 270 582.75 L 276.75 582.75 Z M 276.75 582.75 " transform="matrix(1,0,0,-1,0,793)"/>

</svg>