<svg xmlns="http://www.w3.org/2000/svg" xmlns:xlink="http://www.w3.org/1999/xlink" width="612pt" height="792pt" viewBox="0 0 612 792" version="1.1">

<!-- Self-Repair (16) -->
<path style="fill-rule:nonzero;fill:rgb(100%,100%,100%);fill-opacity:1;stroke-width:0.75;stroke-linecap:butt;stroke-linejoin:miter;stroke:rgb(13.730068%,12.159915%,12.54902%);stroke-opacity:1;stroke-miterlimit:4;" d="M 346.703125 233.75 L 337.703125 251.75 L 346.703125 269.75 L 378.453125 269.75 L 387.453125 251.75 L 378.453125 233.75 L 346.703125 233.75 Z M 346.703125 233.75 " transform="matrix(1,0,0,-1,0,793)"/>

<!-- Annotation -->
<path style="opacity:0.5;fill:#ffffff;fill-opacity:1;fill-rule:nonzero;stroke:#ff1e1e;stroke-width:1.5;stroke-linecap:butt;stroke-linejoin:miter;stroke-miterlimit:4;stroke-opacity:1" d="m 383.8711,544.65245 0,-6.75 -6.75,0 0,6.75 6.75,0 z m 0,0"/>
     
<!-- Damage Boxes -->
<path style="fill-rule:nonzero;fill:rgb(100%,100%,100%);fill-opacity:1;stroke-width:1.5;stroke-linecap:butt;stroke-linejoin:miter;stroke:rgb(13.730068%,12.159915%,12.54902%);stroke-opacity:1;stroke-miterlimit:4;" d="M 355.054688 258.5 L 355.054688 265.25 L 348.304688 265.25 L 348.304688 258.5 L 355.054688 258.5 Z M 355.054688 258.5 " transform="matrix(1,0,0,-1,0,793)"/>
<path style="fill-rule:nonzero;fill:rgb(100%,100%,100%);fill-opacity:1;stroke-width:1.5;stroke-linecap:butt;stroke-linejoin:miter;stroke:rgb(13.730068%,12.159915%,12.54902%);stroke-opacity:1;stroke-miterlimit:4;" d="M 361.777344 258.5 L 361.777344 265.25 L 355.027344 265.25 L 355.027344 258.5 L 361.777344 258.5 Z M 361.777344 258.5 " transform="matrix(1,0,0,-1,0,793)"/>
<path style="fill-rule:nonzero;fill:rgb(100%,100%,100%);fill-opacity:1;stroke-width:1.5;stroke-linecap:butt;stroke-linejoin:miter;stroke:rgb(13.730068%,12.159915%,12.54902%);stroke-opacity:1;stroke-miterlimit:4;" d="M 368.5 258.5 L 368.5 265.25 L 361.75 265.25 L 361.75 258.5 L 368.5 258.5 Z M 368.5 258.5 " transform="matrix(1,0,0,-1,0,793)"/>
<path style="fill-rule:nonzero;fill:rgb(100%,100%,100%);fill-opacity:1;stroke-width:1.5;stroke-linecap:butt;stroke-linejoin:miter;stroke:rgb(13.730068%,12.159915%,12.54902%);stroke-opacity:1;stroke-miterlimit:4;" d="M 375.222656 258.5 L 375.222656 265.25 L 368.472656 265.25 L 368.472656 258.5 L 375.222656 258.5 Z M 375.222656 258.5 " transform="matrix(1,0,0,-1,0,793)"/>
<path style="fill-rule:nonzero;fill:rgb(100%,100%,100%);fill-opacity:1;stroke-width:1.5;stroke-linecap:butt;stroke-linejoin:miter;stroke:rgb(13.730068%,12.159915%,12.54902%);stroke-opacity:1;stroke-miterlimit:4;" d="M 355.054688 251.75 L 355.054688 258.5 L 348.304688 258.5 L 348.304688 251.75 L 355.054688 251.75 Z M 355.054688 251.75 " transform="matrix(1,0,0,-1,0,793)"/>
<path style="fill-rule:nonzero;fill:rgb(100%,100%,100%);fill-opacity:1;stroke-width:1.5;stroke-linecap:butt;stroke-linejoin:miter;stroke:rgb(13.730068%,12.159915%,12.54902%);stroke-opacity:1;stroke-miterlimit:4;" d="M 361.777344 251.75 L 361.777344 258.5 L 355.027344 258.5 L 355.027344 251.75 L 361.777344 251.75 Z M 361.777344 251.75 " transform="matrix(1,0,0,-1,0,793)"/>
<path style="fill-rule:nonzero;fill:rgb(100%,100%,100%);fill-opacity:1;stroke-width:1.5;stroke-linecap:butt;stroke-linejoin:miter;stroke:rgb(13.730068%,12.159915%,12.54902%);stroke-opacity:1;stroke-miterlimit:4;" d="M 368.5 251.75 L 368.5 258.5 L 361.75 258.5 L 361.75 251.75 L 368.5 251.75 Z M 368.5 251.75 " transform="matrix(1,0,0,-1,0,793)"/>
<path style="fill-rule:nonzero;fill:rgb(100%,100%,100%);fill-opacity:1;stroke-width:1.5;stroke-linecap:butt;stroke-linejoin:miter;stroke:rgb(13.730068%,12.159915%,12.54902%);stroke-opacity:1;stroke-miterlimit:4;" d="M 375.222656 251.75 L 375.222656 258.5 L 368.472656 258.5 L 368.472656 251.75 L 375.222656 251.75 Z M 375.222656 251.75 " transform="matrix(1,0,0,-1,0,793)"/>
<path style="fill-rule:nonzero;fill:rgb(100%,100%,100%);fill-opacity:1;stroke-width:1.5;stroke-linecap:butt;stroke-linejoin:miter;stroke:rgb(13.730068%,12.159915%,12.54902%);stroke-opacity:1;stroke-miterlimit:4;" d="M 355.054688 245 L 355.054688 251.75 L 348.304688 251.75 L 348.304688 245 L 355.054688 245 Z M 355.054688 245 " transform="matrix(1,0,0,-1,0,793)"/>
<path style="fill-rule:nonzero;fill:rgb(100%,100%,100%);fill-opacity:1;stroke-width:1.5;stroke-linecap:butt;stroke-linejoin:miter;stroke:rgb(13.730068%,12.159915%,12.54902%);stroke-opacity:1;stroke-miterlimit:4;" d="M 361.777344 245 L 361.777344 251.75 L 355.027344 251.75 L 355.027344 245 L 361.777344 245 Z M 361.777344 245 " transform="matrix(1,0,0,-1,0,793)"/>
<path style="fill-rule:nonzero;fill:rgb(100%,100%,100%);fill-opacity:1;stroke-width:1.5;stroke-linecap:butt;stroke-linejoin:miter;stroke:rgb(13.730068%,12.159915%,12.54902%);stroke-opacity:1;stroke-miterlimit:4;" d="M 368.5 245 L 368.5 251.75 L 361.75 251.75 L 361.75 245 L 368.5 245 Z M 368.5 245 " transform="matrix(1,0,0,-1,0,793)"/>
<path style="fill-rule:nonzero;fill:rgb(100%,100%,100%);fill-opacity:1;stroke-width:1.5;stroke-linecap:butt;stroke-linejoin:miter;stroke:rgb(13.730068%,12.159915%,12.54902%);stroke-opacity:1;stroke-miterlimit:4;" d="M 375.222656 245 L 375.222656 251.75 L 368.472656 251.75 L 368.472656 245 L 375.222656 245 Z M 375.222656 245 " transform="matrix(1,0,0,-1,0,793)"/>
<path style="fill-rule:nonzero;fill:rgb(100%,100%,100%);fill-opacity:1;stroke-width:1.5;stroke-linecap:butt;stroke-linejoin:miter;stroke:rgb(13.730068%,12.159915%,12.54902%);stroke-opacity:1;stroke-miterlimit:4;" d="M 355.054688 238.25 L 355.054688 245 L 348.304688 245 L 348.304688 238.25 L 355.054688 238.25 Z M 355.054688 238.25 " transform="matrix(1,0,0,-1,0,793)"/>
<path style="fill-rule:nonzero;fill:rgb(100%,100%,100%);fill-opacity:1;stroke-width:1.5;stroke-linecap:butt;stroke-linejoin:miter;stroke:rgb(13.730068%,12.159915%,12.54902%);stroke-opacity:1;stroke-miterlimit:4;" d="M 361.777344 238.25 L 361.777344 245 L 355.027344 245 L 355.027344 238.25 L 361.777344 238.25 Z M 361.777344 238.25 " transform="matrix(1,0,0,-1,0,793)"/>
<path style="fill-rule:nonzero;fill:rgb(100%,100%,100%);fill-opacity:1;stroke-width:1.5;stroke-linecap:butt;stroke-linejoin:miter;stroke:rgb(13.730068%,12.159915%,12.54902%);stroke-opacity:1;stroke-miterlimit:4;" d="M 368.5 238.25 L 368.5 245 L 361.75 245 L 361.75 238.25 L 368.5 238.25 Z M 368.5 238.25 " transform="matrix(1,0,0,-1,0,793)"/>
<path style="fill-rule:nonzero;fill:rgb(100%,100%,100%);fill-opacity:1;stroke-width:1.5;stroke-linecap:butt;stroke-linejoin:miter;stroke:rgb(13.730068%,12.159915%,12.54902%);stroke-opacity:1;stroke-miterlimit:4;" d="M 375.222656 238.25 L 375.222656 245 L 368.472656 245 L 368.472656 238.25 L 375.222656 238.25 Z M 375.222656 238.25 " transform="matrix(1,0,0,-1,0,793)"/>

</svg>