<svg xmlns="http://www.w3.org/2000/svg" xmlns:xlink="http://www.w3.org/1999/xlink" width="612pt" height="792pt" viewBox="0 0 612 792" version="1.1">

<!-- Sensors (8) -->
<path style="fill-rule:nonzero;fill:rgb(100%,100%,100%);fill-opacity:1;stroke-width:0.75;stroke-linecap:butt;stroke-linejoin:miter;stroke:rgb(13.730068%,12.159915%,12.54902%);stroke-opacity:1;stroke-miterlimit:4;" d="M 248.625 276.75 C 241.875 276.75 238.5 283.5 238.5 283.5 L 252 283.5 L 259.375 290.25 L 265.5 283.5 L 279 283.5 C 279 283.5 276.375 276.75 269.625 276.75 " transform="matrix(1,0,0,-1,0,793)"/>
<path style="fill-rule:nonzero;fill:rgb(100%,100%,100%);fill-opacity:1;stroke-width:0.75;stroke-linecap:butt;stroke-linejoin:miter;stroke:rgb(13.730068%,12.159915%,12.54902%);stroke-opacity:1;stroke-miterlimit:4;" d="M 268.875 276.75 L 279 276.75 L 279 249.75 L 238.5 249.75 L 238.5 276.75 L 248.625 276.75 " transform="matrix(1,0,0,-1,0,793)"/>

<!-- Annotation -->
<path style="opacity:0.5;fill:#ffffff;fill-opacity:1;fill-rule:nonzero;stroke:#ff1e1e;stroke-width:1.5;stroke-linecap:butt;stroke-linejoin:miter;stroke-miterlimit:4;stroke-opacity:1" d="m 262.25473,515.7315 0,-6.75 -6.75,0 0,6.75 6.75,0 z m 0,0"/>
     
<!-- Damage Boxes -->
<path style="fill-rule:nonzero;fill:rgb(100%,100%,100%);fill-opacity:1;stroke-width:1.5;stroke-linecap:butt;stroke-linejoin:miter;stroke:rgb(13.730068%,12.159915%,12.54902%);stroke-opacity:1;stroke-miterlimit:4;" d="M 252 263.25 L 252 270 L 245.25 270 L 245.25 263.25 L 252 263.25 Z M 252 263.25 " transform="matrix(1,0,0,-1,0,793)"/>
<path style="fill-rule:nonzero;fill:rgb(100%,100%,100%);fill-opacity:1;stroke-width:1.5;stroke-linecap:butt;stroke-linejoin:miter;stroke:rgb(13.730068%,12.159915%,12.54902%);stroke-opacity:1;stroke-miterlimit:4;" d="M 258.75 263.25 L 258.75 270 L 252 270 L 252 263.25 L 258.75 263.25 Z M 258.75 263.25 " transform="matrix(1,0,0,-1,0,793)"/>
<path style="fill-rule:nonzero;fill:rgb(100%,100%,100%);fill-opacity:1;stroke-width:1.5;stroke-linecap:butt;stroke-linejoin:miter;stroke:rgb(13.730068%,12.159915%,12.54902%);stroke-opacity:1;stroke-miterlimit:4;" d="M 265.5 263.25 L 265.5 270 L 258.75 270 L 258.75 263.25 L 265.5 263.25 Z M 265.5 263.25 " transform="matrix(1,0,0,-1,0,793)"/>
<path style="fill-rule:nonzero;fill:rgb(100%,100%,100%);fill-opacity:1;stroke-width:1.5;stroke-linecap:butt;stroke-linejoin:miter;stroke:rgb(13.730068%,12.159915%,12.54902%);stroke-opacity:1;stroke-miterlimit:4;" d="M 272.25 263.25 L 272.25 270 L 265.5 270 L 265.5 263.25 L 272.25 263.25 Z M 272.25 263.25 " transform="matrix(1,0,0,-1,0,793)"/>
<path style="fill-rule:nonzero;fill:rgb(100%,100%,100%);fill-opacity:1;stroke-width:1.5;stroke-linecap:butt;stroke-linejoin:miter;stroke:rgb(13.730068%,12.159915%,12.54902%);stroke-opacity:1;stroke-miterlimit:4;" d="M 252 256.5 L 252 263.25 L 245.25 263.25 L 245.25 256.5 L 252 256.5 Z M 252 256.5 " transform="matrix(1,0,0,-1,0,793)"/>
<path style="fill-rule:nonzero;fill:rgb(100%,100%,100%);fill-opacity:1;stroke-width:1.5;stroke-linecap:butt;stroke-linejoin:miter;stroke:rgb(13.730068%,12.159915%,12.54902%);stroke-opacity:1;stroke-miterlimit:4;" d="M 258.75 256.5 L 258.75 263.25 L 252 263.25 L 252 256.5 L 258.75 256.5 Z M 258.75 256.5 " transform="matrix(1,0,0,-1,0,793)"/>
<path style="fill-rule:nonzero;fill:rgb(100%,100%,100%);fill-opacity:1;stroke-width:1.5;stroke-linecap:butt;stroke-linejoin:miter;stroke:rgb(13.730068%,12.159915%,12.54902%);stroke-opacity:1;stroke-miterlimit:4;" d="M 265.5 256.5 L 265.5 263.25 L 258.75 263.25 L 258.75 256.5 L 265.5 256.5 Z M 265.5 256.5 " transform="matrix(1,0,0,-1,0,793)"/>
<path style="fill-rule:nonzero;fill:rgb(100%,100%,100%);fill-opacity:1;stroke-width:1.5;stroke-linecap:butt;stroke-linejoin:miter;stroke:rgb(13.730068%,12.159915%,12.54902%);stroke-opacity:1;stroke-miterlimit:4;" d="M 272.25 256.5 L 272.25 263.25 L 265.5 263.25 L 265.5 256.5 L 272.25 256.5 Z M 272.25 256.5 " transform="matrix(1,0,0,-1,0,793)"/>

</svg>