<svg xmlns="http://www.w3.org/2000/svg" xmlns:xlink="http://www.w3.org/1999/xlink" width="612pt" height="792pt" viewBox="0 0 612 792" version="1.1">

<!-- Sensors (24) -->
<path style="fill-rule:nonzero;fill:rgb(100%,100%,100%);fill-opacity:1;stroke-width:0.75;stroke-linecap:butt;stroke-linejoin:miter;stroke:rgb(13.730068%,12.159915%,12.54902%);stroke-opacity:1;stroke-miterlimit:4;" d="M 299.621094 385.042969 C 292.871094 385.042969 289.496094 391.792969 289.496094 391.792969 L 302.996094 391.792969 L 310.371094 398.542969 L 316.496094 391.792969 L 329.996094 391.792969 C 329.996094 391.792969 327.371094 385.042969 320.621094 385.042969 " transform="matrix(1,0,0,-1,0,793)"/>
<path style="fill-rule:nonzero;fill:rgb(100%,100%,100%);fill-opacity:1;stroke-width:0.75;stroke-linecap:butt;stroke-linejoin:miter;stroke:rgb(13.730068%,12.159915%,12.54902%);stroke-opacity:1;stroke-miterlimit:4;" d="M 319.871094 385.042969 L 329.996094 385.042969 L 329.996094 331.042969 L 289.496094 331.042969 L 289.496094 385.042969 L 299.621094 385.042969 " transform="matrix(1,0,0,-1,0,793)"/>

<!-- Annotation -->
<path style="opacity:0.5;fill:#ffffff;fill-opacity:1;fill-rule:nonzero;stroke:#ff1e1e;stroke-width:1.5;stroke-linecap:butt;stroke-linejoin:miter;stroke-miterlimit:4;stroke-opacity:1" d="m 313.27428,407.46326 0,-6.75 -6.75,0 0,6.75 6.75,0 z m 0,0"/>
     
<!-- Damage Boxes -->
<path style="fill-rule:nonzero;fill:rgb(100%,100%,100%);fill-opacity:1;stroke-width:1.5;stroke-linecap:butt;stroke-linejoin:miter;stroke:rgb(13.730068%,12.159915%,12.54902%);stroke-opacity:1;stroke-miterlimit:4;" d="M 302.996094 371.542969 L 302.996094 378.292969 L 296.246094 378.292969 L 296.246094 371.542969 L 302.996094 371.542969 Z M 302.996094 371.542969 " transform="matrix(1,0,0,-1,0,793)"/>
<path style="fill-rule:nonzero;fill:rgb(100%,100%,100%);fill-opacity:1;stroke-width:1.5;stroke-linecap:butt;stroke-linejoin:miter;stroke:rgb(13.730068%,12.159915%,12.54902%);stroke-opacity:1;stroke-miterlimit:4;" d="M 309.746094 371.542969 L 309.746094 378.292969 L 302.996094 378.292969 L 302.996094 371.542969 L 309.746094 371.542969 Z M 309.746094 371.542969 " transform="matrix(1,0,0,-1,0,793)"/>
<path style="fill-rule:nonzero;fill:rgb(100%,100%,100%);fill-opacity:1;stroke-width:1.5;stroke-linecap:butt;stroke-linejoin:miter;stroke:rgb(13.730068%,12.159915%,12.54902%);stroke-opacity:1;stroke-miterlimit:4;" d="M 316.496094 371.542969 L 316.496094 378.292969 L 309.746094 378.292969 L 309.746094 371.542969 L 316.496094 371.542969 Z M 316.496094 371.542969 " transform="matrix(1,0,0,-1,0,793)"/>
<path style="fill-rule:nonzero;fill:rgb(100%,100%,100%);fill-opacity:1;stroke-width:1.5;stroke-linecap:butt;stroke-linejoin:miter;stroke:rgb(13.730068%,12.159915%,12.54902%);stroke-opacity:1;stroke-miterlimit:4;" d="M 323.246094 371.542969 L 323.246094 378.292969 L 316.496094 378.292969 L 316.496094 371.542969 L 323.246094 371.542969 Z M 323.246094 371.542969 " transform="matrix(1,0,0,-1,0,793)"/>
<path style="fill-rule:nonzero;fill:rgb(100%,100%,100%);fill-opacity:1;stroke-width:1.5;stroke-linecap:butt;stroke-linejoin:miter;stroke:rgb(13.730068%,12.159915%,12.54902%);stroke-opacity:1;stroke-miterlimit:4;" d="M 302.996094 364.792969 L 302.996094 371.542969 L 296.246094 371.542969 L 296.246094 364.792969 L 302.996094 364.792969 Z M 302.996094 364.792969 " transform="matrix(1,0,0,-1,0,793)"/>
<path style="fill-rule:nonzero;fill:rgb(100%,100%,100%);fill-opacity:1;stroke-width:1.5;stroke-linecap:butt;stroke-linejoin:miter;stroke:rgb(13.730068%,12.159915%,12.54902%);stroke-opacity:1;stroke-miterlimit:4;" d="M 309.746094 364.792969 L 309.746094 371.542969 L 302.996094 371.542969 L 302.996094 364.792969 L 309.746094 364.792969 Z M 309.746094 364.792969 " transform="matrix(1,0,0,-1,0,793)"/>
<path style="fill-rule:nonzero;fill:rgb(100%,100%,100%);fill-opacity:1;stroke-width:1.5;stroke-linecap:butt;stroke-linejoin:miter;stroke:rgb(13.730068%,12.159915%,12.54902%);stroke-opacity:1;stroke-miterlimit:4;" d="M 316.496094 364.792969 L 316.496094 371.542969 L 309.746094 371.542969 L 309.746094 364.792969 L 316.496094 364.792969 Z M 316.496094 364.792969 " transform="matrix(1,0,0,-1,0,793)"/>
<path style="fill-rule:nonzero;fill:rgb(100%,100%,100%);fill-opacity:1;stroke-width:1.5;stroke-linecap:butt;stroke-linejoin:miter;stroke:rgb(13.730068%,12.159915%,12.54902%);stroke-opacity:1;stroke-miterlimit:4;" d="M 323.246094 364.792969 L 323.246094 371.542969 L 316.496094 371.542969 L 316.496094 364.792969 L 323.246094 364.792969 Z M 323.246094 364.792969 " transform="matrix(1,0,0,-1,0,793)"/>
<path style="fill-rule:nonzero;fill:rgb(100%,100%,100%);fill-opacity:1;stroke-width:1.5;stroke-linecap:butt;stroke-linejoin:miter;stroke:rgb(13.730068%,12.159915%,12.54902%);stroke-opacity:1;stroke-miterlimit:4;" d="M 302.996094 358.042969 L 302.996094 364.792969 L 296.246094 364.792969 L 296.246094 358.042969 L 302.996094 358.042969 Z M 302.996094 358.042969 " transform="matrix(1,0,0,-1,0,793)"/>
<path style="fill-rule:nonzero;fill:rgb(100%,100%,100%);fill-opacity:1;stroke-width:1.5;stroke-linecap:butt;stroke-linejoin:miter;stroke:rgb(13.730068%,12.159915%,12.54902%);stroke-opacity:1;stroke-miterlimit:4;" d="M 309.746094 358.042969 L 309.746094 364.792969 L 302.996094 364.792969 L 302.996094 358.042969 L 309.746094 358.042969 Z M 309.746094 358.042969 " transform="matrix(1,0,0,-1,0,793)"/>
<path style="fill-rule:nonzero;fill:rgb(100%,100%,100%);fill-opacity:1;stroke-width:1.5;stroke-linecap:butt;stroke-linejoin:miter;stroke:rgb(13.730068%,12.159915%,12.54902%);stroke-opacity:1;stroke-miterlimit:4;" d="M 316.496094 358.042969 L 316.496094 364.792969 L 309.746094 364.792969 L 309.746094 358.042969 L 316.496094 358.042969 Z M 316.496094 358.042969 " transform="matrix(1,0,0,-1,0,793)"/>
<path style="fill-rule:nonzero;fill:rgb(100%,100%,100%);fill-opacity:1;stroke-width:1.5;stroke-linecap:butt;stroke-linejoin:miter;stroke:rgb(13.730068%,12.159915%,12.54902%);stroke-opacity:1;stroke-miterlimit:4;" d="M 323.246094 358.042969 L 323.246094 364.792969 L 316.496094 364.792969 L 316.496094 358.042969 L 323.246094 358.042969 Z M 323.246094 358.042969 " transform="matrix(1,0,0,-1,0,793)"/>
<path style="fill-rule:nonzero;fill:rgb(100%,100%,100%);fill-opacity:1;stroke-width:1.5;stroke-linecap:butt;stroke-linejoin:miter;stroke:rgb(13.730068%,12.159915%,12.54902%);stroke-opacity:1;stroke-miterlimit:4;" d="M 302.996094 351.292969 L 302.996094 358.042969 L 296.246094 358.042969 L 296.246094 351.292969 L 302.996094 351.292969 Z M 302.996094 351.292969 " transform="matrix(1,0,0,-1,0,793)"/>
<path style="fill-rule:nonzero;fill:rgb(100%,100%,100%);fill-opacity:1;stroke-width:1.5;stroke-linecap:butt;stroke-linejoin:miter;stroke:rgb(13.730068%,12.159915%,12.54902%);stroke-opacity:1;stroke-miterlimit:4;" d="M 309.746094 351.292969 L 309.746094 358.042969 L 302.996094 358.042969 L 302.996094 351.292969 L 309.746094 351.292969 Z M 309.746094 351.292969 " transform="matrix(1,0,0,-1,0,793)"/>
<path style="fill-rule:nonzero;fill:rgb(100%,100%,100%);fill-opacity:1;stroke-width:1.5;stroke-linecap:butt;stroke-linejoin:miter;stroke:rgb(13.730068%,12.159915%,12.54902%);stroke-opacity:1;stroke-miterlimit:4;" d="M 316.496094 351.292969 L 316.496094 358.042969 L 309.746094 358.042969 L 309.746094 351.292969 L 316.496094 351.292969 Z M 316.496094 351.292969 " transform="matrix(1,0,0,-1,0,793)"/>
<path style="fill-rule:nonzero;fill:rgb(100%,100%,100%);fill-opacity:1;stroke-width:1.5;stroke-linecap:butt;stroke-linejoin:miter;stroke:rgb(13.730068%,12.159915%,12.54902%);stroke-opacity:1;stroke-miterlimit:4;" d="M 323.246094 351.292969 L 323.246094 358.042969 L 316.496094 358.042969 L 316.496094 351.292969 L 323.246094 351.292969 Z M 323.246094 351.292969 " transform="matrix(1,0,0,-1,0,793)"/>
<path style="fill-rule:nonzero;fill:rgb(100%,100%,100%);fill-opacity:1;stroke-width:1.5;stroke-linecap:butt;stroke-linejoin:miter;stroke:rgb(13.730068%,12.159915%,12.54902%);stroke-opacity:1;stroke-miterlimit:4;" d="M 302.996094 344.542969 L 302.996094 351.292969 L 296.246094 351.292969 L 296.246094 344.542969 L 302.996094 344.542969 Z M 302.996094 344.542969 " transform="matrix(1,0,0,-1,0,793)"/>
<path style="fill-rule:nonzero;fill:rgb(100%,100%,100%);fill-opacity:1;stroke-width:1.5;stroke-linecap:butt;stroke-linejoin:miter;stroke:rgb(13.730068%,12.159915%,12.54902%);stroke-opacity:1;stroke-miterlimit:4;" d="M 309.746094 344.542969 L 309.746094 351.292969 L 302.996094 351.292969 L 302.996094 344.542969 L 309.746094 344.542969 Z M 309.746094 344.542969 " transform="matrix(1,0,0,-1,0,793)"/>
<path style="fill-rule:nonzero;fill:rgb(100%,100%,100%);fill-opacity:1;stroke-width:1.5;stroke-linecap:butt;stroke-linejoin:miter;stroke:rgb(13.730068%,12.159915%,12.54902%);stroke-opacity:1;stroke-miterlimit:4;" d="M 316.496094 344.542969 L 316.496094 351.292969 L 309.746094 351.292969 L 309.746094 344.542969 L 316.496094 344.542969 Z M 316.496094 344.542969 " transform="matrix(1,0,0,-1,0,793)"/>
<path style="fill-rule:nonzero;fill:rgb(100%,100%,100%);fill-opacity:1;stroke-width:1.5;stroke-linecap:butt;stroke-linejoin:miter;stroke:rgb(13.730068%,12.159915%,12.54902%);stroke-opacity:1;stroke-miterlimit:4;" d="M 323.246094 344.542969 L 323.246094 351.292969 L 316.496094 351.292969 L 316.496094 344.542969 L 323.246094 344.542969 Z M 323.246094 344.542969 " transform="matrix(1,0,0,-1,0,793)"/>
<path style="fill-rule:nonzero;fill:rgb(100%,100%,100%);fill-opacity:1;stroke-width:1.5;stroke-linecap:butt;stroke-linejoin:miter;stroke:rgb(13.730068%,12.159915%,12.54902%);stroke-opacity:1;stroke-miterlimit:4;" d="M 302.996094 337.792969 L 302.996094 344.542969 L 296.246094 344.542969 L 296.246094 337.792969 L 302.996094 337.792969 Z M 302.996094 337.792969 " transform="matrix(1,0,0,-1,0,793)"/>
<path style="fill-rule:nonzero;fill:rgb(100%,100%,100%);fill-opacity:1;stroke-width:1.5;stroke-linecap:butt;stroke-linejoin:miter;stroke:rgb(13.730068%,12.159915%,12.54902%);stroke-opacity:1;stroke-miterlimit:4;" d="M 309.746094 337.792969 L 309.746094 344.542969 L 302.996094 344.542969 L 302.996094 337.792969 L 309.746094 337.792969 Z M 309.746094 337.792969 " transform="matrix(1,0,0,-1,0,793)"/>
<path style="fill-rule:nonzero;fill:rgb(100%,100%,100%);fill-opacity:1;stroke-width:1.5;stroke-linecap:butt;stroke-linejoin:miter;stroke:rgb(13.730068%,12.159915%,12.54902%);stroke-opacity:1;stroke-miterlimit:4;" d="M 316.496094 337.792969 L 316.496094 344.542969 L 309.746094 344.542969 L 309.746094 337.792969 L 316.496094 337.792969 Z M 316.496094 337.792969 " transform="matrix(1,0,0,-1,0,793)"/>
<path style="fill-rule:nonzero;fill:rgb(100%,100%,100%);fill-opacity:1;stroke-width:1.5;stroke-linecap:butt;stroke-linejoin:miter;stroke:rgb(13.730068%,12.159915%,12.54902%);stroke-opacity:1;stroke-miterlimit:4;" d="M 323.246094 337.792969 L 323.246094 344.542969 L 316.496094 344.542969 L 316.496094 337.792969 L 323.246094 337.792969 Z M 323.246094 337.792969 " transform="matrix(1,0,0,-1,0,793)"/>

</svg>