<svg xmlns="http://www.w3.org/2000/svg" xmlns:xlink="http://www.w3.org/1999/xlink" width="612pt" height="792pt" viewBox="0 0 612 792" version="1.1">

<!-- Shading Field (20) -->
<path style="fill-rule:nonzero;fill:rgb(100%,100%,100%);fill-opacity:1;stroke-width:0.75;stroke-linecap:butt;stroke-linejoin:miter;stroke:rgb(13.730068%,12.159915%,12.54902%);stroke-opacity:1;stroke-miterlimit:4;" d="M 314.25 220.6875 L 334.5 220.6875 L 334.5 223.6875 L 341.25 215.9375 L 334.5 230.4375 L 341.25 228.1875 L 334.5 234.9375 L 341.25 241.6875 L 334.5 239.4375 L 341.25 254.1875 L 334.5 246.1875 L 334.5 256.4375 L 314.25 256.4375 L 314.25 256.4375 L 291.75 256.4375 L 291.75 246.1875 L 285 254.1875 L 291.75 239.4375 L 285 241.6875 L 291.75 234.9375 L 285 228.1875 L 291.75 230.4375 L 285 215.9375 L 291.75 223.6875 L 291.75 220.6875 L 314.25 220.6875 L 314.25 220.6875 Z M 314.25 220.6875 " transform="matrix(1,0,0,-1,0,793)"/>

<!-- Damage Boxes -->
<path style="fill-rule:nonzero;fill:rgb(100%,100%,100%);fill-opacity:1;stroke-width:1.5;stroke-linecap:butt;stroke-linejoin:miter;stroke:rgb(13.730068%,12.159915%,12.54902%);stroke-opacity:1;stroke-miterlimit:4;" d="M 303 245.1875 L 303 251.9375 L 296.25 251.9375 L 296.25 245.1875 L 303 245.1875 Z M 303 245.1875 " transform="matrix(1,0,0,-1,0,793)"/>
<path style="fill-rule:nonzero;fill:rgb(100%,100%,100%);fill-opacity:1;stroke-width:1.5;stroke-linecap:butt;stroke-linejoin:miter;stroke:rgb(13.730068%,12.159915%,12.54902%);stroke-opacity:1;stroke-miterlimit:4;" d="M 309.75 245.1875 L 309.75 251.9375 L 303 251.9375 L 303 245.1875 L 309.75 245.1875 Z M 309.75 245.1875 " transform="matrix(1,0,0,-1,0,793)"/>
<path style="fill-rule:nonzero;fill:rgb(100%,100%,100%);fill-opacity:1;stroke-width:1.5;stroke-linecap:butt;stroke-linejoin:miter;stroke:rgb(13.730068%,12.159915%,12.54902%);stroke-opacity:1;stroke-miterlimit:4;" d="M 316.5 245.1875 L 316.5 251.9375 L 309.75 251.9375 L 309.75 245.1875 L 316.5 245.1875 Z M 316.5 245.1875 " transform="matrix(1,0,0,-1,0,793)"/>
<path style="fill-rule:nonzero;fill:rgb(100%,100%,100%);fill-opacity:1;stroke-width:1.5;stroke-linecap:butt;stroke-linejoin:miter;stroke:rgb(13.730068%,12.159915%,12.54902%);stroke-opacity:1;stroke-miterlimit:4;" d="M 323.25 245.1875 L 323.25 251.9375 L 316.5 251.9375 L 316.5 245.1875 L 323.25 245.1875 Z M 323.25 245.1875 " transform="matrix(1,0,0,-1,0,793)"/>
<path style="fill-rule:nonzero;fill:rgb(100%,100%,100%);fill-opacity:1;stroke-width:1.5;stroke-linecap:butt;stroke-linejoin:miter;stroke:rgb(13.730068%,12.159915%,12.54902%);stroke-opacity:1;stroke-miterlimit:4;" d="M 330 245.1875 L 330 251.9375 L 323.25 251.9375 L 323.25 245.1875 L 330 245.1875 Z M 330 245.1875 " transform="matrix(1,0,0,-1,0,793)"/>
<path style="fill-rule:nonzero;fill:rgb(100%,100%,100%);fill-opacity:1;stroke-width:1.5;stroke-linecap:butt;stroke-linejoin:miter;stroke:rgb(13.730068%,12.159915%,12.54902%);stroke-opacity:1;stroke-miterlimit:4;" d="M 303 238.4375 L 303 245.1875 L 296.25 245.1875 L 296.25 238.4375 L 303 238.4375 Z M 303 238.4375 " transform="matrix(1,0,0,-1,0,793)"/>
<path style="fill-rule:nonzero;fill:rgb(100%,100%,100%);fill-opacity:1;stroke-width:1.5;stroke-linecap:butt;stroke-linejoin:miter;stroke:rgb(13.730068%,12.159915%,12.54902%);stroke-opacity:1;stroke-miterlimit:4;" d="M 309.75 238.4375 L 309.75 245.1875 L 303 245.1875 L 303 238.4375 L 309.75 238.4375 Z M 309.75 238.4375 " transform="matrix(1,0,0,-1,0,793)"/>
<path style="fill-rule:nonzero;fill:rgb(100%,100%,100%);fill-opacity:1;stroke-width:1.5;stroke-linecap:butt;stroke-linejoin:miter;stroke:rgb(13.730068%,12.159915%,12.54902%);stroke-opacity:1;stroke-miterlimit:4;" d="M 316.5 238.4375 L 316.5 245.1875 L 309.75 245.1875 L 309.75 238.4375 L 316.5 238.4375 Z M 316.5 238.4375 " transform="matrix(1,0,0,-1,0,793)"/>
<path style="fill-rule:nonzero;fill:rgb(100%,100%,100%);fill-opacity:1;stroke-width:1.5;stroke-linecap:butt;stroke-linejoin:miter;stroke:rgb(13.730068%,12.159915%,12.54902%);stroke-opacity:1;stroke-miterlimit:4;" d="M 323.25 238.4375 L 323.25 245.1875 L 316.5 245.1875 L 316.5 238.4375 L 323.25 238.4375 Z M 323.25 238.4375 " transform="matrix(1,0,0,-1,0,793)"/>
<path style="fill-rule:nonzero;fill:rgb(100%,100%,100%);fill-opacity:1;stroke-width:1.5;stroke-linecap:butt;stroke-linejoin:miter;stroke:rgb(13.730068%,12.159915%,12.54902%);stroke-opacity:1;stroke-miterlimit:4;" d="M 330 238.4375 L 330 245.1875 L 323.25 245.1875 L 323.25 238.4375 L 330 238.4375 Z M 330 238.4375 " transform="matrix(1,0,0,-1,0,793)"/>
<path style="fill-rule:nonzero;fill:rgb(100%,100%,100%);fill-opacity:1;stroke-width:1.5;stroke-linecap:butt;stroke-linejoin:miter;stroke:rgb(13.730068%,12.159915%,12.54902%);stroke-opacity:1;stroke-miterlimit:4;" d="M 303 231.6875 L 303 238.4375 L 296.25 238.4375 L 296.25 231.6875 L 303 231.6875 Z M 303 231.6875 " transform="matrix(1,0,0,-1,0,793)"/>
<path style="fill-rule:nonzero;fill:rgb(100%,100%,100%);fill-opacity:1;stroke-width:1.5;stroke-linecap:butt;stroke-linejoin:miter;stroke:rgb(13.730068%,12.159915%,12.54902%);stroke-opacity:1;stroke-miterlimit:4;" d="M 309.75 231.6875 L 309.75 238.4375 L 303 238.4375 L 303 231.6875 L 309.75 231.6875 Z M 309.75 231.6875 " transform="matrix(1,0,0,-1,0,793)"/>
<path style="fill-rule:nonzero;fill:rgb(100%,100%,100%);fill-opacity:1;stroke-width:1.5;stroke-linecap:butt;stroke-linejoin:miter;stroke:rgb(13.730068%,12.159915%,12.54902%);stroke-opacity:1;stroke-miterlimit:4;" d="M 316.5 231.6875 L 316.5 238.4375 L 309.75 238.4375 L 309.75 231.6875 L 316.5 231.6875 Z M 316.5 231.6875 " transform="matrix(1,0,0,-1,0,793)"/>
<path style="fill-rule:nonzero;fill:rgb(100%,100%,100%);fill-opacity:1;stroke-width:1.5;stroke-linecap:butt;stroke-linejoin:miter;stroke:rgb(13.730068%,12.159915%,12.54902%);stroke-opacity:1;stroke-miterlimit:4;" d="M 323.25 231.6875 L 323.25 238.4375 L 316.5 238.4375 L 316.5 231.6875 L 323.25 231.6875 Z M 323.25 231.6875 " transform="matrix(1,0,0,-1,0,793)"/>
<path style="fill-rule:nonzero;fill:rgb(100%,100%,100%);fill-opacity:1;stroke-width:1.5;stroke-linecap:butt;stroke-linejoin:miter;stroke:rgb(13.730068%,12.159915%,12.54902%);stroke-opacity:1;stroke-miterlimit:4;" d="M 330 231.6875 L 330 238.4375 L 323.25 238.4375 L 323.25 231.6875 L 330 231.6875 Z M 330 231.6875 " transform="matrix(1,0,0,-1,0,793)"/>
<path style="fill-rule:nonzero;fill:rgb(100%,100%,100%);fill-opacity:1;stroke-width:1.5;stroke-linecap:butt;stroke-linejoin:miter;stroke:rgb(13.730068%,12.159915%,12.54902%);stroke-opacity:1;stroke-miterlimit:4;" d="M 303 224.9375 L 303 231.6875 L 296.25 231.6875 L 296.25 224.9375 L 303 224.9375 Z M 303 224.9375 " transform="matrix(1,0,0,-1,0,793)"/>
<path style="fill-rule:nonzero;fill:rgb(100%,100%,100%);fill-opacity:1;stroke-width:1.5;stroke-linecap:butt;stroke-linejoin:miter;stroke:rgb(13.730068%,12.159915%,12.54902%);stroke-opacity:1;stroke-miterlimit:4;" d="M 309.75 224.9375 L 309.75 231.6875 L 303 231.6875 L 303 224.9375 L 309.75 224.9375 Z M 309.75 224.9375 " transform="matrix(1,0,0,-1,0,793)"/>
<path style="fill-rule:nonzero;fill:rgb(100%,100%,100%);fill-opacity:1;stroke-width:1.5;stroke-linecap:butt;stroke-linejoin:miter;stroke:rgb(13.730068%,12.159915%,12.54902%);stroke-opacity:1;stroke-miterlimit:4;" d="M 316.5 224.9375 L 316.5 231.6875 L 309.75 231.6875 L 309.75 224.9375 L 316.5 224.9375 Z M 316.5 224.9375 " transform="matrix(1,0,0,-1,0,793)"/>
<path style="fill-rule:nonzero;fill:rgb(100%,100%,100%);fill-opacity:1;stroke-width:1.5;stroke-linecap:butt;stroke-linejoin:miter;stroke:rgb(13.730068%,12.159915%,12.54902%);stroke-opacity:1;stroke-miterlimit:4;" d="M 323.25 224.9375 L 323.25 231.6875 L 316.5 231.6875 L 316.5 224.9375 L 323.25 224.9375 Z M 323.25 224.9375 " transform="matrix(1,0,0,-1,0,793)"/>
<path style="fill-rule:nonzero;fill:rgb(100%,100%,100%);fill-opacity:1;stroke-width:1.5;stroke-linecap:butt;stroke-linejoin:miter;stroke:rgb(13.730068%,12.159915%,12.54902%);stroke-opacity:1;stroke-miterlimit:4;" d="M 330 224.9375 L 330 231.6875 L 323.25 231.6875 L 323.25 224.9375 L 330 224.9375 Z M 330 224.9375 " transform="matrix(1,0,0,-1,0,793)"/>

</svg>