<svg xmlns="http://www.w3.org/2000/svg" xmlns:xlink="http://www.w3.org/1999/xlink" width="612pt" height="792pt" viewBox="0 0 612 792" version="1.1">

<!-- Shading Field -->
<path style="fill-rule:nonzero;fill:rgb(100%,100%,100%);fill-opacity:1;stroke-width:0.75;stroke-linecap:butt;stroke-linejoin:miter;stroke:rgb(13.730068%,12.159915%,12.54902%);stroke-opacity:1;stroke-miterlimit:4;" d="M 285.75 147.5 L 306 147.5 L 306 157.5 L 312.75 149.75 L 306 164.25 L 312.75 162 L 306 168.75 L 312.75 175.5 L 306 173.25 L 312.75 188 L 306 180 L 306 190.25 L 285.75 190.25 L 285.75 190.25 L 263.25 190.25 L 263.25 180 L 256.5 188 L 263.25 173.25 L 256.5 175.5 L 263.25 168.75 L 256.5 162 L 263.25 164.25 L 256.5 149.75 L 263.25 157.5 L 263.25 147.5 L 285.75 147.5 L 285.75 147.5 Z M 285.75 147.5 " transform="matrix(1,0,0,-1,0,793)"/>

</svg>