<svg xmlns="http://www.w3.org/2000/svg" xmlns:xlink="http://www.w3.org/1999/xlink" width="612pt" height="792pt" viewBox="0 0 612 792" version="1.1">

<!-- Shading Field (16) -->
<path style="fill-rule:nonzero;fill:rgb(100%,100%,100%);fill-opacity:1;stroke-width:0.75;stroke-linecap:butt;stroke-linejoin:miter;stroke:rgb(13.730068%,12.159915%,12.54902%);stroke-opacity:1;stroke-miterlimit:4;" d="M 265.664062 206.664062 L 285.914062 206.664062 L 285.914062 209.664062 L 292.664062 201.914062 L 285.914062 216.414062 L 292.664062 214.164062 L 285.914062 220.914062 L 292.664062 227.664062 L 285.914062 225.414062 L 292.664062 240.164062 L 285.914062 232.164062 L 285.914062 242.414062 L 265.664062 242.414062 L 265.664062 242.414062 L 250.164062 242.414062 L 250.164062 232.164062 L 243.414062 240.164062 L 250.164062 225.414062 L 243.414062 227.664062 L 250.164062 220.914062 L 243.414062 214.164062 L 250.164062 216.414062 L 243.414062 201.914062 L 250.164062 209.664062 L 250.164062 206.664062 L 265.664062 206.664062 L 265.664062 206.664062 Z M 265.664062 206.664062 " transform="matrix(1,0,0,-1,0,793)"/>

<!-- Damage Boxes -->
<path style="fill-rule:nonzero;fill:rgb(100%,100%,100%);fill-opacity:1;stroke-width:1.5;stroke-linecap:butt;stroke-linejoin:miter;stroke:rgb(13.730068%,12.159915%,12.54902%);stroke-opacity:1;stroke-miterlimit:4;" d="M 261.164062 231.164062 L 261.164062 237.914062 L 254.414062 237.914062 L 254.414062 231.164062 L 261.164062 231.164062 Z M 261.164062 231.164062 " transform="matrix(1,0,0,-1,0,793)"/>
<path style="fill-rule:nonzero;fill:rgb(100%,100%,100%);fill-opacity:1;stroke-width:1.5;stroke-linecap:butt;stroke-linejoin:miter;stroke:rgb(13.730068%,12.159915%,12.54902%);stroke-opacity:1;stroke-miterlimit:4;" d="M 267.914062 231.164062 L 267.914062 237.914062 L 261.164062 237.914062 L 261.164062 231.164062 L 267.914062 231.164062 Z M 267.914062 231.164062 " transform="matrix(1,0,0,-1,0,793)"/>
<path style="fill-rule:nonzero;fill:rgb(100%,100%,100%);fill-opacity:1;stroke-width:1.5;stroke-linecap:butt;stroke-linejoin:miter;stroke:rgb(13.730068%,12.159915%,12.54902%);stroke-opacity:1;stroke-miterlimit:4;" d="M 274.664062 231.164062 L 274.664062 237.914062 L 267.914062 237.914062 L 267.914062 231.164062 L 274.664062 231.164062 Z M 274.664062 231.164062 " transform="matrix(1,0,0,-1,0,793)"/>
<path style="fill-rule:nonzero;fill:rgb(100%,100%,100%);fill-opacity:1;stroke-width:1.5;stroke-linecap:butt;stroke-linejoin:miter;stroke:rgb(13.730068%,12.159915%,12.54902%);stroke-opacity:1;stroke-miterlimit:4;" d="M 281.414062 231.164062 L 281.414062 237.914062 L 274.664062 237.914062 L 274.664062 231.164062 L 281.414062 231.164062 Z M 281.414062 231.164062 " transform="matrix(1,0,0,-1,0,793)"/>
<path style="fill-rule:nonzero;fill:rgb(100%,100%,100%);fill-opacity:1;stroke-width:1.5;stroke-linecap:butt;stroke-linejoin:miter;stroke:rgb(13.730068%,12.159915%,12.54902%);stroke-opacity:1;stroke-miterlimit:4;" d="M 261.164062 224.414062 L 261.164062 231.164062 L 254.414062 231.164062 L 254.414062 224.414062 L 261.164062 224.414062 Z M 261.164062 224.414062 " transform="matrix(1,0,0,-1,0,793)"/>
<path style="fill-rule:nonzero;fill:rgb(100%,100%,100%);fill-opacity:1;stroke-width:1.5;stroke-linecap:butt;stroke-linejoin:miter;stroke:rgb(13.730068%,12.159915%,12.54902%);stroke-opacity:1;stroke-miterlimit:4;" d="M 267.914062 224.414062 L 267.914062 231.164062 L 261.164062 231.164062 L 261.164062 224.414062 L 267.914062 224.414062 Z M 267.914062 224.414062 " transform="matrix(1,0,0,-1,0,793)"/>
<path style="fill-rule:nonzero;fill:rgb(100%,100%,100%);fill-opacity:1;stroke-width:1.5;stroke-linecap:butt;stroke-linejoin:miter;stroke:rgb(13.730068%,12.159915%,12.54902%);stroke-opacity:1;stroke-miterlimit:4;" d="M 274.664062 224.414062 L 274.664062 231.164062 L 267.914062 231.164062 L 267.914062 224.414062 L 274.664062 224.414062 Z M 274.664062 224.414062 " transform="matrix(1,0,0,-1,0,793)"/>
<path style="fill-rule:nonzero;fill:rgb(100%,100%,100%);fill-opacity:1;stroke-width:1.5;stroke-linecap:butt;stroke-linejoin:miter;stroke:rgb(13.730068%,12.159915%,12.54902%);stroke-opacity:1;stroke-miterlimit:4;" d="M 281.414062 224.414062 L 281.414062 231.164062 L 274.664062 231.164062 L 274.664062 224.414062 L 281.414062 224.414062 Z M 281.414062 224.414062 " transform="matrix(1,0,0,-1,0,793)"/>
<path style="fill-rule:nonzero;fill:rgb(100%,100%,100%);fill-opacity:1;stroke-width:1.5;stroke-linecap:butt;stroke-linejoin:miter;stroke:rgb(13.730068%,12.159915%,12.54902%);stroke-opacity:1;stroke-miterlimit:4;" d="M 261.164062 217.664062 L 261.164062 224.414062 L 254.414062 224.414062 L 254.414062 217.664062 L 261.164062 217.664062 Z M 261.164062 217.664062 " transform="matrix(1,0,0,-1,0,793)"/>
<path style="fill-rule:nonzero;fill:rgb(100%,100%,100%);fill-opacity:1;stroke-width:1.5;stroke-linecap:butt;stroke-linejoin:miter;stroke:rgb(13.730068%,12.159915%,12.54902%);stroke-opacity:1;stroke-miterlimit:4;" d="M 267.914062 217.664062 L 267.914062 224.414062 L 261.164062 224.414062 L 261.164062 217.664062 L 267.914062 217.664062 Z M 267.914062 217.664062 " transform="matrix(1,0,0,-1,0,793)"/>
<path style="fill-rule:nonzero;fill:rgb(100%,100%,100%);fill-opacity:1;stroke-width:1.5;stroke-linecap:butt;stroke-linejoin:miter;stroke:rgb(13.730068%,12.159915%,12.54902%);stroke-opacity:1;stroke-miterlimit:4;" d="M 274.664062 217.664062 L 274.664062 224.414062 L 267.914062 224.414062 L 267.914062 217.664062 L 274.664062 217.664062 Z M 274.664062 217.664062 " transform="matrix(1,0,0,-1,0,793)"/>
<path style="fill-rule:nonzero;fill:rgb(100%,100%,100%);fill-opacity:1;stroke-width:1.5;stroke-linecap:butt;stroke-linejoin:miter;stroke:rgb(13.730068%,12.159915%,12.54902%);stroke-opacity:1;stroke-miterlimit:4;" d="M 281.414062 217.664062 L 281.414062 224.414062 L 274.664062 224.414062 L 274.664062 217.664062 L 281.414062 217.664062 Z M 281.414062 217.664062 " transform="matrix(1,0,0,-1,0,793)"/>
<path style="fill-rule:nonzero;fill:rgb(100%,100%,100%);fill-opacity:1;stroke-width:1.5;stroke-linecap:butt;stroke-linejoin:miter;stroke:rgb(13.730068%,12.159915%,12.54902%);stroke-opacity:1;stroke-miterlimit:4;" d="M 261.164062 210.914062 L 261.164062 217.664062 L 254.414062 217.664062 L 254.414062 210.914062 L 261.164062 210.914062 Z M 261.164062 210.914062 " transform="matrix(1,0,0,-1,0,793)"/>
<path style="fill-rule:nonzero;fill:rgb(100%,100%,100%);fill-opacity:1;stroke-width:1.5;stroke-linecap:butt;stroke-linejoin:miter;stroke:rgb(13.730068%,12.159915%,12.54902%);stroke-opacity:1;stroke-miterlimit:4;" d="M 267.914062 210.914062 L 267.914062 217.664062 L 261.164062 217.664062 L 261.164062 210.914062 L 267.914062 210.914062 Z M 267.914062 210.914062 " transform="matrix(1,0,0,-1,0,793)"/>
<path style="fill-rule:nonzero;fill:rgb(100%,100%,100%);fill-opacity:1;stroke-width:1.5;stroke-linecap:butt;stroke-linejoin:miter;stroke:rgb(13.730068%,12.159915%,12.54902%);stroke-opacity:1;stroke-miterlimit:4;" d="M 274.664062 210.914062 L 274.664062 217.664062 L 267.914062 217.664062 L 267.914062 210.914062 L 274.664062 210.914062 Z M 274.664062 210.914062 " transform="matrix(1,0,0,-1,0,793)"/>
<path style="fill-rule:nonzero;fill:rgb(100%,100%,100%);fill-opacity:1;stroke-width:1.5;stroke-linecap:butt;stroke-linejoin:miter;stroke:rgb(13.730068%,12.159915%,12.54902%);stroke-opacity:1;stroke-miterlimit:4;" d="M 281.414062 210.914062 L 281.414062 217.664062 L 274.664062 217.664062 L 274.664062 210.914062 L 281.414062 210.914062 Z M 281.414062 210.914062 " transform="matrix(1,0,0,-1,0,793)"/>

</svg>