<svg xmlns="http://www.w3.org/2000/svg" xmlns:xlink="http://www.w3.org/1999/xlink" width="612pt" height="792pt" viewBox="0 0 612 792" version="1.1">

<!-- Shield Generator (8) -->
<path style="fill-rule:nonzero;fill:rgb(100%,100%,100%);fill-opacity:1;stroke-width:0.75;stroke-linecap:butt;stroke-linejoin:miter;stroke:rgb(13.730068%,12.159915%,12.54902%);stroke-opacity:1;stroke-miterlimit:4;" d="M 288.019531 380.25 L 288.019531 390.40625 L 279.019531 390.40625 L 279.019531 394.90625 L 288.019531 394.90625 L 288.019531 410.65625 L 308.292969 418.15625 L 328.519531 410.65625 L 328.519531 394.90625 L 337.519531 394.90625 L 337.519531 390.40625 L 328.519531 390.40625 L 328.519531 380.25 L 288.019531 380.25 Z M 288.019531 380.25 " transform="matrix(1,0,0,-1,0,793)"/>
<path style="fill-rule:nonzero;fill:rgb(100%,100%,100%);fill-opacity:1;stroke-width:0.75;stroke-linecap:butt;stroke-linejoin:miter;stroke:rgb(13.730068%,12.159915%,12.54902%);stroke-opacity:1;stroke-miterlimit:4;" d="M 286.269531 374.15625 C 286.269531 374.15625 277.269531 378.90625 277.269531 393.40625 C 277.269531 407.90625 286.269531 412.40625 286.269531 412.40625 C 286.269531 412.40625 281.769531 404.15625 281.769531 393.40625 C 281.769531 382.65625 286.269531 374.15625 286.269531 374.15625 Z M 286.269531 374.15625 " transform="matrix(1,0,0,-1,0,793)"/>
<path style="fill-rule:nonzero;fill:rgb(100%,100%,100%);fill-opacity:1;stroke-width:0.75;stroke-linecap:butt;stroke-linejoin:miter;stroke:rgb(13.730068%,12.159915%,12.54902%);stroke-opacity:1;stroke-miterlimit:4;" d="M 330.769531 374.15625 C 330.769531 374.15625 339.769531 378.90625 339.769531 393.40625 C 339.769531 407.90625 330.769531 412.40625 330.769531 412.40625 C 330.769531 412.40625 335.269531 404.15625 335.269531 393.40625 C 335.269531 382.65625 330.769531 374.15625 330.769531 374.15625 Z M 330.769531 374.15625 " transform="matrix(1,0,0,-1,0,793)"/>

<!-- Annotation -->
<path style="opacity:0.5;fill:#ffffff;fill-opacity:1;fill-rule:nonzero;stroke:#ff1e1e;stroke-width:1.5;stroke-linecap:butt;stroke-linejoin:miter;stroke-miterlimit:4;stroke-opacity:1" d="m 311.64285,384.47479 0,-6.75 -6.75,0 0,6.75 6.75,0 z m 0,0"/>
     
<!-- Damage Boxes -->
<path style="fill-rule:nonzero;fill:rgb(100%,100%,100%);fill-opacity:1;stroke-width:1.5;stroke-linecap:butt;stroke-linejoin:miter;stroke:rgb(13.730068%,12.159915%,12.54902%);stroke-opacity:1;stroke-miterlimit:4;" d="M 308.292969 399.40625 L 308.292969 406.15625 L 301.542969 406.15625 L 301.542969 399.40625 L 308.292969 399.40625 Z M 308.292969 399.40625 " transform="matrix(1,0,0,-1,0,793)"/>
<path style="fill-rule:nonzero;fill:rgb(100%,100%,100%);fill-opacity:1;stroke-width:1.5;stroke-linecap:butt;stroke-linejoin:miter;stroke:rgb(13.730068%,12.159915%,12.54902%);stroke-opacity:1;stroke-miterlimit:4;" d="M 315.042969 399.40625 L 315.042969 406.15625 L 308.292969 406.15625 L 308.292969 399.40625 L 315.042969 399.40625 Z M 315.042969 399.40625 " transform="matrix(1,0,0,-1,0,793)"/>
<path style="fill-rule:nonzero;fill:rgb(100%,100%,100%);fill-opacity:1;stroke-width:1.5;stroke-linecap:butt;stroke-linejoin:miter;stroke:rgb(13.730068%,12.159915%,12.54902%);stroke-opacity:1;stroke-miterlimit:4;" d="M 308.292969 392.65625 L 308.292969 399.40625 L 301.542969 399.40625 L 301.542969 392.65625 L 308.292969 392.65625 Z M 308.292969 392.65625 " transform="matrix(1,0,0,-1,0,793)"/>
<path style="fill-rule:nonzero;fill:rgb(100%,100%,100%);fill-opacity:1;stroke-width:1.5;stroke-linecap:butt;stroke-linejoin:miter;stroke:rgb(13.730068%,12.159915%,12.54902%);stroke-opacity:1;stroke-miterlimit:4;" d="M 315.042969 392.65625 L 315.042969 399.40625 L 308.292969 399.40625 L 308.292969 392.65625 L 315.042969 392.65625 Z M 315.042969 392.65625 " transform="matrix(1,0,0,-1,0,793)"/>
<path style="fill-rule:nonzero;fill:rgb(100%,100%,100%);fill-opacity:1;stroke-width:1.5;stroke-linecap:butt;stroke-linejoin:miter;stroke:rgb(13.730068%,12.159915%,12.54902%);stroke-opacity:1;stroke-miterlimit:4;" d="M 301.542969 385.90625 L 301.542969 392.65625 L 294.792969 392.65625 L 294.792969 385.90625 L 301.542969 385.90625 Z M 301.542969 385.90625 " transform="matrix(1,0,0,-1,0,793)"/>
<path style="fill-rule:nonzero;fill:rgb(100%,100%,100%);fill-opacity:1;stroke-width:1.5;stroke-linecap:butt;stroke-linejoin:miter;stroke:rgb(13.730068%,12.159915%,12.54902%);stroke-opacity:1;stroke-miterlimit:4;" d="M 308.292969 385.90625 L 308.292969 392.65625 L 301.542969 392.65625 L 301.542969 385.90625 L 308.292969 385.90625 Z M 308.292969 385.90625 " transform="matrix(1,0,0,-1,0,793)"/>
<path style="fill-rule:nonzero;fill:rgb(100%,100%,100%);fill-opacity:1;stroke-width:1.5;stroke-linecap:butt;stroke-linejoin:miter;stroke:rgb(13.730068%,12.159915%,12.54902%);stroke-opacity:1;stroke-miterlimit:4;" d="M 315.042969 385.90625 L 315.042969 392.65625 L 308.292969 392.65625 L 308.292969 385.90625 L 315.042969 385.90625 Z M 315.042969 385.90625 " transform="matrix(1,0,0,-1,0,793)"/>
<path style="fill-rule:nonzero;fill:rgb(100%,100%,100%);fill-opacity:1;stroke-width:1.5;stroke-linecap:butt;stroke-linejoin:miter;stroke:rgb(13.730068%,12.159915%,12.54902%);stroke-opacity:1;stroke-miterlimit:4;" d="M 321.792969 385.90625 L 321.792969 392.65625 L 315.042969 392.65625 L 315.042969 385.90625 L 321.792969 385.90625 Z M 321.792969 385.90625 " transform="matrix(1,0,0,-1,0,793)"/>

</svg>