<svg xmlns="http://www.w3.org/2000/svg" xmlns:xlink="http://www.w3.org/1999/xlink" width="612pt" height="792pt" viewBox="0 0 612 792" version="1.1">

<!-- Shield Projector -->
<path style="fill-rule:nonzero;fill:rgb(100%,100%,100%);fill-opacity:1;stroke-width:0.75;stroke-linecap:butt;stroke-linejoin:miter;stroke:rgb(13.730068%,12.159915%,12.54902%);stroke-opacity:1;stroke-miterlimit:4;" d="M 420.75 513 L 414 513 C 414 513 411.75 513 407.25 510.75 C 402.75 508.5 402.75 501.75 402.75 501.75 C 402.75 501.75 402.75 504 407.25 506.25 C 411.75 508.5 414 506.25 414 506.25 L 414 504 L 409.5 504 L 409.5 501.75 L 414 501.75 L 414 497.25 L 402.75 497.25 L 402.75 468 L 420.75 468 " transform="matrix(1,0,0,-1,0,793)"/>
<path style="fill-rule:nonzero;fill:rgb(100%,100%,100%);fill-opacity:1;stroke-width:0.75;stroke-linecap:butt;stroke-linejoin:miter;stroke:rgb(13.730068%,12.159915%,12.54902%);stroke-opacity:1;stroke-miterlimit:4;" d="M 419.5 513 L 421.75 513 C 421.75 513 424 513 428.5 510.75 C 433 508.5 433 501.75 433 501.75 C 433 501.75 433 504 428.5 506.25 C 424 508.5 421.75 506.25 421.75 506.25 L 421.75 504 L 426.25 504 L 426.25 501.75 L 421.75 501.75 L 421.75 497.25 L 433 497.25 L 433 468 L 418.5 468 " transform="matrix(1,0,0,-1,0,793)"/>

<!-- Annotation -->
<path style="opacity:0.5;fill:#ffffff;fill-opacity:1;fill-rule:nonzero;stroke:#ff1e1e;stroke-width:1.5;stroke-linecap:butt;stroke-linejoin:miter;stroke-miterlimit:4;stroke-opacity:1" d="m 421.24589,287.10754 0,-6.75 -6.75,0 0,6.75 6.75,0 z m 0,0"/>
     
<!-- Damage Boxes -->
<path style="fill-rule:nonzero;fill:rgb(100%,100%,100%);fill-opacity:1;stroke-width:1.5;stroke-linecap:butt;stroke-linejoin:miter;stroke:rgb(13.730068%,12.159915%,12.54902%);stroke-opacity:1;stroke-miterlimit:4;" d="M 414 486 L 414 492.75 L 407.25 492.75 L 407.25 486 L 414 486 Z M 414 486 " transform="matrix(1,0,0,-1,0,793)"/>
<path style="fill-rule:nonzero;fill:rgb(100%,100%,100%);fill-opacity:1;stroke-width:1.5;stroke-linecap:butt;stroke-linejoin:miter;stroke:rgb(13.730068%,12.159915%,12.54902%);stroke-opacity:1;stroke-miterlimit:4;" d="M 420.75 486 L 420.75 492.75 L 414 492.75 L 414 486 L 420.75 486 Z M 420.75 486 " transform="matrix(1,0,0,-1,0,793)"/>
<path style="fill-rule:nonzero;fill:rgb(100%,100%,100%);fill-opacity:1;stroke-width:1.5;stroke-linecap:butt;stroke-linejoin:miter;stroke:rgb(13.730068%,12.159915%,12.54902%);stroke-opacity:1;stroke-miterlimit:4;" d="M 427.5 486 L 427.5 492.75 L 420.75 492.75 L 420.75 486 L 427.5 486 Z M 427.5 486 " transform="matrix(1,0,0,-1,0,793)"/>
<path style="fill-rule:nonzero;fill:rgb(100%,100%,100%);fill-opacity:1;stroke-width:1.5;stroke-linecap:butt;stroke-linejoin:miter;stroke:rgb(13.730068%,12.159915%,12.54902%);stroke-opacity:1;stroke-miterlimit:4;" d="M 414 479.25 L 414 486 L 407.25 486 L 407.25 479.25 L 414 479.25 Z M 414 479.25 " transform="matrix(1,0,0,-1,0,793)"/>
<path style="fill-rule:nonzero;fill:rgb(100%,100%,100%);fill-opacity:1;stroke-width:1.5;stroke-linecap:butt;stroke-linejoin:miter;stroke:rgb(13.730068%,12.159915%,12.54902%);stroke-opacity:1;stroke-miterlimit:4;" d="M 420.75 479.25 L 420.75 486 L 414 486 L 414 479.25 L 420.75 479.25 Z M 420.75 479.25 " transform="matrix(1,0,0,-1,0,793)"/>
<path style="fill-rule:nonzero;fill:rgb(100%,100%,100%);fill-opacity:1;stroke-width:1.5;stroke-linecap:butt;stroke-linejoin:miter;stroke:rgb(13.730068%,12.159915%,12.54902%);stroke-opacity:1;stroke-miterlimit:4;" d="M 427.5 479.25 L 427.5 486 L 420.75 486 L 420.75 479.25 L 427.5 479.25 Z M 427.5 479.25 " transform="matrix(1,0,0,-1,0,793)"/>
<path style="fill-rule:nonzero;fill:rgb(100%,100%,100%);fill-opacity:1;stroke-width:1.5;stroke-linecap:butt;stroke-linejoin:miter;stroke:rgb(13.730068%,12.159915%,12.54902%);stroke-opacity:1;stroke-miterlimit:4;" d="M 414 472.5 L 414 479.25 L 407.25 479.25 L 407.25 472.5 L 414 472.5 Z M 414 472.5 " transform="matrix(1,0,0,-1,0,793)"/>
<path style="fill-rule:nonzero;fill:rgb(100%,100%,100%);fill-opacity:1;stroke-width:1.5;stroke-linecap:butt;stroke-linejoin:miter;stroke:rgb(13.730068%,12.159915%,12.54902%);stroke-opacity:1;stroke-miterlimit:4;" d="M 420.75 472.5 L 420.75 479.25 L 414 479.25 L 414 472.5 L 420.75 472.5 Z M 420.75 472.5 " transform="matrix(1,0,0,-1,0,793)"/>
<path style="fill-rule:nonzero;fill:rgb(100%,100%,100%);fill-opacity:1;stroke-width:1.5;stroke-linecap:butt;stroke-linejoin:miter;stroke:rgb(13.730068%,12.159915%,12.54902%);stroke-opacity:1;stroke-miterlimit:4;" d="M 427.5 472.5 L 427.5 479.25 L 420.75 479.25 L 420.75 472.5 L 427.5 472.5 Z M 427.5 472.5 " transform="matrix(1,0,0,-1,0,793)"/>

</svg>