<svg xmlns="http://www.w3.org/2000/svg" xmlns:xlink="http://www.w3.org/1999/xlink" width="612pt" height="792pt" viewBox="0 0 612 792" version="1.1">

<!-- Shield Generator (8) -->
<path style="fill-rule:nonzero;fill:rgb(100%,100%,100%);fill-opacity:1;stroke-width:0.75;stroke-linecap:butt;stroke-linejoin:miter;stroke:rgb(13.730068%,12.159915%,12.54902%);stroke-opacity:1;stroke-miterlimit:4;" d="M 337 237 L 337 254.25 L 328 254.25 L 328 258.75 L 337 258.75 L 337 274.5 L 353.269531 282 L 369 274.5 L 369 258.75 L 378 258.75 L 378 254.25 L 369 254.25 L 369 237 L 337 237 Z M 337 237 " transform="matrix(1,0,0,-1,0,793)"/>
<path style="fill-rule:nonzero;fill:rgb(100%,100%,100%);fill-opacity:1;stroke-width:0.75;stroke-linecap:butt;stroke-linejoin:miter;stroke:rgb(13.730068%,12.159915%,12.54902%);stroke-opacity:1;stroke-miterlimit:4;" d="M 335.25 238 C 335.25 238 326.25 242.75 326.25 257.25 C 326.25 271.75 335.25 276.25 335.25 276.25 C 335.25 276.25 330.75 268 330.75 257.25 C 330.75 246.5 335.25 238 335.25 238 Z M 335.25 238 " transform="matrix(1,0,0,-1,0,793)"/>
<path style="fill-rule:nonzero;fill:rgb(100%,100%,100%);fill-opacity:1;stroke-width:0.75;stroke-linecap:butt;stroke-linejoin:miter;stroke:rgb(13.730068%,12.159915%,12.54902%);stroke-opacity:1;stroke-miterlimit:4;" d="M 371.25 238 C 371.25 238 380.25 242.75 380.25 257.25 C 380.25 271.75 371.25 276.25 371.25 276.25 C 371.25 276.25 375.75 268 375.75 257.25 C 375.75 246.5 371.25 238 371.25 238 Z M 371.25 238 " transform="matrix(1,0,0,-1,0,793)"/>

<!-- Annotation -->
<path style="opacity:0.5;fill:#ffffff;fill-opacity:1;fill-rule:nonzero;stroke:#ff1e1e;stroke-width:1.5;stroke-linecap:butt;stroke-linejoin:miter;stroke-miterlimit:4;stroke-opacity:1" d="m 356.58158,520.84829 0,-6.75 -6.75,0 0,6.75 6.75,0 z m 0,0"/>
     
<!-- Damage Boxes -->
<path style="fill-rule:nonzero;fill:rgb(100%,100%,100%);fill-opacity:1;stroke-width:1.5;stroke-linecap:butt;stroke-linejoin:miter;stroke:rgb(13.730068%,12.159915%,12.54902%);stroke-opacity:1;stroke-miterlimit:4;" d="M 353.269531 263.25 L 353.269531 270 L 346.519531 270 L 346.519531 263.25 L 353.269531 263.25 Z M 353.269531 263.25 " transform="matrix(1,0,0,-1,0,793)"/>
<path style="fill-rule:nonzero;fill:rgb(100%,100%,100%);fill-opacity:1;stroke-width:1.5;stroke-linecap:butt;stroke-linejoin:miter;stroke:rgb(13.730068%,12.159915%,12.54902%);stroke-opacity:1;stroke-miterlimit:4;" d="M 360.019531 263.25 L 360.019531 270 L 353.269531 270 L 353.269531 263.25 L 360.019531 263.25 Z M 360.019531 263.25 " transform="matrix(1,0,0,-1,0,793)"/>
<path style="fill-rule:nonzero;fill:rgb(100%,100%,100%);fill-opacity:1;stroke-width:1.5;stroke-linecap:butt;stroke-linejoin:miter;stroke:rgb(13.730068%,12.159915%,12.54902%);stroke-opacity:1;stroke-miterlimit:4;" d="M 353.269531 256.5 L 353.269531 263.25 L 346.519531 263.25 L 346.519531 256.5 L 353.269531 256.5 Z M 353.269531 256.5 " transform="matrix(1,0,0,-1,0,793)"/>
<path style="fill-rule:nonzero;fill:rgb(100%,100%,100%);fill-opacity:1;stroke-width:1.5;stroke-linecap:butt;stroke-linejoin:miter;stroke:rgb(13.730068%,12.159915%,12.54902%);stroke-opacity:1;stroke-miterlimit:4;" d="M 360.019531 256.5 L 360.019531 263.25 L 353.269531 263.25 L 353.269531 256.5 L 360.019531 256.5 Z M 360.019531 256.5 " transform="matrix(1,0,0,-1,0,793)"/>
<path style="fill-rule:nonzero;fill:rgb(100%,100%,100%);fill-opacity:1;stroke-width:1.5;stroke-linecap:butt;stroke-linejoin:miter;stroke:rgb(13.730068%,12.159915%,12.54902%);stroke-opacity:1;stroke-miterlimit:4;" d="M 353.269531 249.75 L 353.269531 256.5 L 346.519531 256.5 L 346.519531 249.75 L 353.269531 249.75 Z M 353.269531 249.75 " transform="matrix(1,0,0,-1,0,793)"/>
<path style="fill-rule:nonzero;fill:rgb(100%,100%,100%);fill-opacity:1;stroke-width:1.5;stroke-linecap:butt;stroke-linejoin:miter;stroke:rgb(13.730068%,12.159915%,12.54902%);stroke-opacity:1;stroke-miterlimit:4;" d="M 360.019531 249.75 L 360.019531 256.5 L 353.269531 256.5 L 353.269531 249.75 L 360.019531 249.75 Z M 360.019531 249.75 " transform="matrix(1,0,0,-1,0,793)"/>
<path style="fill-rule:nonzero;fill:rgb(100%,100%,100%);fill-opacity:1;stroke-width:1.5;stroke-linecap:butt;stroke-linejoin:miter;stroke:rgb(13.730068%,12.159915%,12.54902%);stroke-opacity:1;stroke-miterlimit:4;" d="M 353.269531 243 L 353.269531 249.75 L 346.519531 249.75 L 346.519531 243 L 353.269531 243 Z M 353.269531 243 " transform="matrix(1,0,0,-1,0,793)"/>
<path style="fill-rule:nonzero;fill:rgb(100%,100%,100%);fill-opacity:1;stroke-width:1.5;stroke-linecap:butt;stroke-linejoin:miter;stroke:rgb(13.730068%,12.159915%,12.54902%);stroke-opacity:1;stroke-miterlimit:4;" d="M 360.019531 243 L 360.019531 249.75 L 353.269531 249.75 L 353.269531 243 L 360.019531 243 Z M 360.019531 243 " transform="matrix(1,0,0,-1,0,793)"/>

</svg>