<svg xmlns="http://www.w3.org/2000/svg" xmlns:xlink="http://www.w3.org/1999/xlink" width="612pt" height="792pt" viewBox="0 0 612 792" version="1.1">

<!-- Shield Generator (8) -->
<path style="fill-rule:nonzero;fill:rgb(100%,100%,100%);fill-opacity:1;stroke-width:0.75;stroke-linecap:butt;stroke-linejoin:miter;stroke:rgb(13.730068%,12.159915%,12.54902%);stroke-opacity:1;stroke-miterlimit:4;" d="M 182.25 455.207031 L 182.25 466.457031 L 173.25 466.457031 L 173.25 470.957031 L 182.25 470.957031 L 182.25 479.207031 L 202.519531 486.707031 L 222.75 479.207031 L 222.75 470.957031 L 231.75 470.957031 L 231.75 466.457031 L 222.75 466.457031 L 222.75 455.207031 L 182.25 455.207031 Z M 182.25 455.207031 " transform="matrix(1,0,0,-1,0,793)"/>
<path style="fill-rule:nonzero;fill:rgb(100%,100%,100%);fill-opacity:1;stroke-width:0.75;stroke-linecap:butt;stroke-linejoin:miter;stroke:rgb(13.730068%,12.159915%,12.54902%);stroke-opacity:1;stroke-miterlimit:4;" d="M 180.5 455.207031 C 180.5 455.207031 171.5 454.957031 171.5 469.457031 C 171.5 483.957031 180.5 484.457031 180.5 484.457031 C 180.5 484.457031 176 480.207031 176 469.457031 C 176 458.707031 180.5 455.207031 180.5 455.207031 Z M 180.5 455.207031 " transform="matrix(1,0,0,-1,0,793)"/>
<path style="fill-rule:nonzero;fill:rgb(100%,100%,100%);fill-opacity:1;stroke-width:0.75;stroke-linecap:butt;stroke-linejoin:miter;stroke:rgb(13.730068%,12.159915%,12.54902%);stroke-opacity:1;stroke-miterlimit:4;" d="M 225 455.207031 C 225 455.207031 234 454.957031 234 469.457031 C 234 483.957031 225 484.457031 225 484.457031 C 225 484.457031 229.5 480.207031 229.5 469.457031 C 229.5 458.707031 225 455.207031 225 455.207031 Z M 225 455.207031 " transform="matrix(1,0,0,-1,0,793)"/>

<!-- Annotation -->
<path style="opacity:0.5;fill:#ffffff;fill-opacity:1;fill-rule:nonzero;stroke:#ff1e1e;stroke-width:1.5;stroke-linecap:butt;stroke-linejoin:miter;stroke-miterlimit:4;stroke-opacity:1" d="m 205.89592,315.58358 0,-6.75 -6.75,0 0,6.75 6.75,0 z m 0,0"/>
     
<!-- Damage Boxes -->
<path style="fill-rule:nonzero;fill:rgb(100%,100%,100%);fill-opacity:1;stroke-width:1.5;stroke-linecap:butt;stroke-linejoin:miter;stroke:rgb(13.730068%,12.159915%,12.54902%);stroke-opacity:1;stroke-miterlimit:4;" d="M 195.769531 468.707031 L 195.769531 475.457031 L 189.019531 475.457031 L 189.019531 468.707031 L 195.769531 468.707031 Z M 195.769531 468.707031 " transform="matrix(1,0,0,-1,0,793)"/>
<path style="fill-rule:nonzero;fill:rgb(100%,100%,100%);fill-opacity:1;stroke-width:1.5;stroke-linecap:butt;stroke-linejoin:miter;stroke:rgb(13.730068%,12.159915%,12.54902%);stroke-opacity:1;stroke-miterlimit:4;" d="M 202.519531 468.707031 L 202.519531 475.457031 L 195.769531 475.457031 L 195.769531 468.707031 L 202.519531 468.707031 Z M 202.519531 468.707031 " transform="matrix(1,0,0,-1,0,793)"/>
<path style="fill-rule:nonzero;fill:rgb(100%,100%,100%);fill-opacity:1;stroke-width:1.5;stroke-linecap:butt;stroke-linejoin:miter;stroke:rgb(13.730068%,12.159915%,12.54902%);stroke-opacity:1;stroke-miterlimit:4;" d="M 209.269531 468.707031 L 209.269531 475.457031 L 202.519531 475.457031 L 202.519531 468.707031 L 209.269531 468.707031 Z M 209.269531 468.707031 " transform="matrix(1,0,0,-1,0,793)"/>
<path style="fill-rule:nonzero;fill:rgb(100%,100%,100%);fill-opacity:1;stroke-width:1.5;stroke-linecap:butt;stroke-linejoin:miter;stroke:rgb(13.730068%,12.159915%,12.54902%);stroke-opacity:1;stroke-miterlimit:4;" d="M 216.019531 468.707031 L 216.019531 475.457031 L 209.269531 475.457031 L 209.269531 468.707031 L 216.019531 468.707031 Z M 216.019531 468.707031 " transform="matrix(1,0,0,-1,0,793)"/>
<path style="fill-rule:nonzero;fill:rgb(100%,100%,100%);fill-opacity:1;stroke-width:1.5;stroke-linecap:butt;stroke-linejoin:miter;stroke:rgb(13.730068%,12.159915%,12.54902%);stroke-opacity:1;stroke-miterlimit:4;" d="M 195.769531 461.957031 L 195.769531 468.707031 L 189.019531 468.707031 L 189.019531 461.957031 L 195.769531 461.957031 Z M 195.769531 461.957031 " transform="matrix(1,0,0,-1,0,793)"/>
<path style="fill-rule:nonzero;fill:rgb(100%,100%,100%);fill-opacity:1;stroke-width:1.5;stroke-linecap:butt;stroke-linejoin:miter;stroke:rgb(13.730068%,12.159915%,12.54902%);stroke-opacity:1;stroke-miterlimit:4;" d="M 202.519531 461.957031 L 202.519531 468.707031 L 195.769531 468.707031 L 195.769531 461.957031 L 202.519531 461.957031 Z M 202.519531 461.957031 " transform="matrix(1,0,0,-1,0,793)"/>
<path style="fill-rule:nonzero;fill:rgb(100%,100%,100%);fill-opacity:1;stroke-width:1.5;stroke-linecap:butt;stroke-linejoin:miter;stroke:rgb(13.730068%,12.159915%,12.54902%);stroke-opacity:1;stroke-miterlimit:4;" d="M 209.269531 461.957031 L 209.269531 468.707031 L 202.519531 468.707031 L 202.519531 461.957031 L 209.269531 461.957031 Z M 209.269531 461.957031 " transform="matrix(1,0,0,-1,0,793)"/>
<path style="fill-rule:nonzero;fill:rgb(100%,100%,100%);fill-opacity:1;stroke-width:1.5;stroke-linecap:butt;stroke-linejoin:miter;stroke:rgb(13.730068%,12.159915%,12.54902%);stroke-opacity:1;stroke-miterlimit:4;" d="M 216.019531 461.957031 L 216.019531 468.707031 L 209.269531 468.707031 L 209.269531 461.957031 L 216.019531 461.957031 Z M 216.019531 461.957031 " transform="matrix(1,0,0,-1,0,793)"/>

</svg>