<svg xmlns="http://www.w3.org/2000/svg" xmlns:xlink="http://www.w3.org/1999/xlink" width="612pt" height="792pt" viewBox="0 0 612 792" version="1.1">

<!-- Shield Generator -->
<path style="fill:#ffffff;fill-opacity:1;fill-rule:nonzero;stroke:#211e1e;stroke-width:0.67500001;stroke-linecap:butt;stroke-linejoin:miter;stroke-miterlimit:4;stroke-opacity:1" d="m 328.3,439.75 0,-15.525 -8.1,0 0,-4.05 8.1,0 0,-14.175 18.24258,-6.75 18.20742,6.75 0,14.175 8.1,0 0,4.05 -8.1,0 0,15.525 -36.45,0 z m 0,0"/>
<path style="fill:#ffffff;fill-opacity:1;fill-rule:nonzero;stroke:#211e1e;stroke-width:0.67500001;stroke-linecap:butt;stroke-linejoin:miter;stroke-miterlimit:4;stroke-opacity:1" d="m 326.725,438.85 c 0,0 -8.1,-4.275 -8.1,-17.325 0,-13.05 8.1,-17.1 8.1,-17.1 0,0 -4.05,7.425 -4.05,17.1 0,9.675 4.05,17.325 4.05,17.325 z m 0,0"/>
<path style="fill:#ffffff;fill-opacity:1;fill-rule:nonzero;stroke:#211e1e;stroke-width:0.67500001;stroke-linecap:butt;stroke-linejoin:miter;stroke-miterlimit:4;stroke-opacity:1" d="m 366.775,438.85 c 0,0 8.1,-4.275 8.1,-17.325 0,-13.05 -8.1,-17.1 -8.1,-17.1 0,0 4.05,7.425 4.05,17.1 0,9.675 -4.05,17.325 -4.05,17.325 z m 0,0"/>
     
</svg>