<svg xmlns="http://www.w3.org/2000/svg" xmlns:xlink="http://www.w3.org/1999/xlink" width="612pt" height="792pt" viewBox="0 0 612 792" version="1.1">

<!-- Spark Field -->
<path style="fill-rule:nonzero;fill:rgb(100%,100%,100%);fill-opacity:1;stroke-width:0.75;stroke-linecap:butt;stroke-linejoin:miter;stroke:rgb(13.730068%,12.159915%,12.54902%);stroke-opacity:1;stroke-miterlimit:4;" d="M 276.75 408.25 L 263.25 402.75 L 267.75 396 L 258.75 398.25 L 263.25 384.75 L 252 393.75 L 247.5 378 L 243 393.75 L 231.75 384.75 L 236.25 398.25 L 227.25 396 L 231.75 402.75 L 218.25 408.25 L 218.25 408.5 L 231.75 414 L 227.25 420.75 L 236.25 418.5 L 231.75 432 L 243 423 L 247.5 438.75 L 252 423 L 263.25 432 L 258.75 418.5 L 267.75 420.75 L 263.25 414 L 276.75 408.5 L 276.75 408.25 Z M 276.75 408.25 " transform="matrix(1,0,0,-1,61,1036)"/>

<!-- Damage Boxes -->
<path style="fill-rule:nonzero;fill:rgb(100%,100%,100%);fill-opacity:1;stroke-width:1.5;stroke-linecap:butt;stroke-linejoin:miter;stroke:rgb(13.730068%,12.159915%,12.54902%);stroke-opacity:1;stroke-miterlimit:4;" d="M 247.5 418.5 L 247.5 411.75 L 240.75 411.75 L 240.75 418.5 L 247.5 418.5 Z M 247.5 418.5 " transform="matrix(1,0,0,-1,61,1036)"/>
<path style="fill-rule:nonzero;fill:rgb(100%,100%,100%);fill-opacity:1;stroke-width:1.5;stroke-linecap:butt;stroke-linejoin:miter;stroke:rgb(13.730068%,12.159915%,12.54902%);stroke-opacity:1;stroke-miterlimit:4;" d="M 254.25 418.5 L 254.25 411.75 L 247.5 411.75 L 247.5 418.5 L 254.25 418.5 Z M 254.25 418.5 " transform="matrix(1,0,0,-1,61,1036)"/>
<path style="fill-rule:nonzero;fill:rgb(100%,100%,100%);fill-opacity:1;stroke-width:1.5;stroke-linecap:butt;stroke-linejoin:miter;stroke:rgb(13.730068%,12.159915%,12.54902%);stroke-opacity:1;stroke-miterlimit:4;" d="M 240.75 411.75 L 240.75 405 L 234 405 L 234 411.75 L 240.75 411.75 Z M 240.75 411.75 " transform="matrix(1,0,0,-1,61,1036)"/>
<path style="fill-rule:nonzero;fill:rgb(100%,100%,100%);fill-opacity:1;stroke-width:1.5;stroke-linecap:butt;stroke-linejoin:miter;stroke:rgb(13.730068%,12.159915%,12.54902%);stroke-opacity:1;stroke-miterlimit:4;" d="M 247.5 411.75 L 247.5 405 L 240.75 405 L 240.75 411.75 L 247.5 411.75 Z M 247.5 411.75 " transform="matrix(1,0,0,-1,61,1036)"/>
<path style="fill-rule:nonzero;fill:rgb(100%,100%,100%);fill-opacity:1;stroke-width:1.5;stroke-linecap:butt;stroke-linejoin:miter;stroke:rgb(13.730068%,12.159915%,12.54902%);stroke-opacity:1;stroke-miterlimit:4;" d="M 254.25 411.75 L 254.25 405 L 247.5 405 L 247.5 411.75 L 254.25 411.75 Z M 254.25 411.75 " transform="matrix(1,0,0,-1,61,1036)"/>
<path style="fill-rule:nonzero;fill:rgb(100%,100%,100%);fill-opacity:1;stroke-width:1.5;stroke-linecap:butt;stroke-linejoin:miter;stroke:rgb(13.730068%,12.159915%,12.54902%);stroke-opacity:1;stroke-miterlimit:4;" d="M 261 411.75 L 261 405 L 254.25 405 L 254.25 411.75 L 261 411.75 Z M 261 411.75 " transform="matrix(1,0,0,-1,61,1036)"/>
<path style="fill-rule:nonzero;fill:rgb(100%,100%,100%);fill-opacity:1;stroke-width:1.5;stroke-linecap:butt;stroke-linejoin:miter;stroke:rgb(13.730068%,12.159915%,12.54902%);stroke-opacity:1;stroke-miterlimit:4;" d="M 247.5 405 L 247.5 398.25 L 240.75 398.25 L 240.75 405 L 247.5 405 Z M 247.5 405 " transform="matrix(1,0,0,-1,61,1036)"/>
<path style="fill-rule:nonzero;fill:rgb(100%,100%,100%);fill-opacity:1;stroke-width:1.5;stroke-linecap:butt;stroke-linejoin:miter;stroke:rgb(13.730068%,12.159915%,12.54902%);stroke-opacity:1;stroke-miterlimit:4;" d="M 254.25 405 L 254.25 398.25 L 247.5 398.25 L 247.5 405 L 254.25 405 Z M 254.25 405 " transform="matrix(1,0,0,-1,61,1036)"/>

</svg>