<svg xmlns="http://www.w3.org/2000/svg" xmlns:xlink="http://www.w3.org/1999/xlink" width="612pt" height="792pt" viewBox="0 0 612 792" version="1.1">

<!-- Spinal Laser -->
<path style="fill-rule:nonzero;fill:rgb(100%,100%,100%);fill-opacity:1;stroke-width:0.75;stroke-linecap:butt;stroke-linejoin:miter;stroke:rgb(13.730068%,12.159915%,12.54902%);stroke-opacity:1;stroke-miterlimit:4;" d="M 299.109375 512 L 299.109375 561.5 L 305.859375 561.5 L 305.859375 566 L 301.359375 566 L 301.359375 570.5 L 305.859375 570.5 L 305.859375 575 L 301.359375 575 L 301.359375 579.5 L 305.859375 579.5 L 305.859375 584 L 301.359375 584 L 301.359375 588.5 L 305.859375 588.5 L 305.859375 593 L 301.359375 593 L 301.359375 597.5 L 305.859375 597.5 L 305.859375 602 L 310.359375 608.75 L 314.859375 602 L 314.859375 597.5 L 319.359375 597.5 L 319.359375 593 L 314.859375 593 L 314.859375 588.5 L 319.359375 588.5 L 319.359375 584 L 314.859375 584 L 314.859375 579.5 L 319.359375 579.5 L 319.359375 575 L 314.859375 575 L 314.859375 570.5 L 319.359375 570.5 L 319.359375 566 L 314.859375 566 L 314.859375 561.5 L 321.609375 561.5 L 321.609375 512 L 299.109375 512 " transform="matrix(1,0,0,-1,0,792)"/>

<!-- Damage Boxes -->
<path style="fill-rule:nonzero;fill:rgb(100%,100%,100%);fill-opacity:1;stroke-width:1.5;stroke-linecap:butt;stroke-linejoin:miter;stroke:rgb(13.730068%,12.159915%,12.54902%);stroke-opacity:1;stroke-miterlimit:4;" d="M 310.359375 550.25 L 310.359375 557 L 303.609375 557 L 303.609375 550.25 L 310.359375 550.25 Z M 310.359375 550.25 " transform="matrix(1,0,0,-1,0,792)"/>
<path style="fill-rule:nonzero;fill:rgb(100%,100%,100%);fill-opacity:1;stroke-width:1.5;stroke-linecap:butt;stroke-linejoin:miter;stroke:rgb(13.730068%,12.159915%,12.54902%);stroke-opacity:1;stroke-miterlimit:4;" d="M 317.109375 550.25 L 317.109375 557 L 310.359375 557 L 310.359375 550.25 L 317.109375 550.25 Z M 317.109375 550.25 " transform="matrix(1,0,0,-1,0,792)"/>
<path style="fill-rule:nonzero;fill:rgb(100%,100%,100%);fill-opacity:1;stroke-width:1.5;stroke-linecap:butt;stroke-linejoin:miter;stroke:rgb(13.730068%,12.159915%,12.54902%);stroke-opacity:1;stroke-miterlimit:4;" d="M 310.359375 543.5 L 310.359375 550.25 L 303.609375 550.25 L 303.609375 543.5 L 310.359375 543.5 Z M 310.359375 543.5 " transform="matrix(1,0,0,-1,0,792)"/>
<path style="fill-rule:nonzero;fill:rgb(100%,100%,100%);fill-opacity:1;stroke-width:1.5;stroke-linecap:butt;stroke-linejoin:miter;stroke:rgb(13.730068%,12.159915%,12.54902%);stroke-opacity:1;stroke-miterlimit:4;" d="M 317.109375 543.5 L 317.109375 550.25 L 310.359375 550.25 L 310.359375 543.5 L 317.109375 543.5 Z M 317.109375 543.5 " transform="matrix(1,0,0,-1,0,792)"/>
<path style="fill-rule:nonzero;fill:rgb(100%,100%,100%);fill-opacity:1;stroke-width:1.5;stroke-linecap:butt;stroke-linejoin:miter;stroke:rgb(13.730068%,12.159915%,12.54902%);stroke-opacity:1;stroke-miterlimit:4;" d="M 310.359375 536.75 L 310.359375 543.5 L 303.609375 543.5 L 303.609375 536.75 L 310.359375 536.75 Z M 310.359375 536.75 " transform="matrix(1,0,0,-1,0,792)"/>
<path style="fill-rule:nonzero;fill:rgb(100%,100%,100%);fill-opacity:1;stroke-width:1.5;stroke-linecap:butt;stroke-linejoin:miter;stroke:rgb(13.730068%,12.159915%,12.54902%);stroke-opacity:1;stroke-miterlimit:4;" d="M 317.109375 536.75 L 317.109375 543.5 L 310.359375 543.5 L 310.359375 536.75 L 317.109375 536.75 Z M 317.109375 536.75 " transform="matrix(1,0,0,-1,0,792)"/>
<path style="fill-rule:nonzero;fill:rgb(100%,100%,100%);fill-opacity:1;stroke-width:1.5;stroke-linecap:butt;stroke-linejoin:miter;stroke:rgb(13.730068%,12.159915%,12.54902%);stroke-opacity:1;stroke-miterlimit:4;" d="M 310.359375 530 L 310.359375 536.75 L 303.609375 536.75 L 303.609375 530 L 310.359375 530 Z M 310.359375 530 " transform="matrix(1,0,0,-1,0,792)"/>
<path style="fill-rule:nonzero;fill:rgb(100%,100%,100%);fill-opacity:1;stroke-width:1.5;stroke-linecap:butt;stroke-linejoin:miter;stroke:rgb(13.730068%,12.159915%,12.54902%);stroke-opacity:1;stroke-miterlimit:4;" d="M 317.109375 530 L 317.109375 536.75 L 310.359375 536.75 L 310.359375 530 L 317.109375 530 Z M 317.109375 530 " transform="matrix(1,0,0,-1,0,792)"/>
<path style="fill-rule:nonzero;fill:rgb(100%,100%,100%);fill-opacity:1;stroke-width:1.5;stroke-linecap:butt;stroke-linejoin:miter;stroke:rgb(13.730068%,12.159915%,12.54902%);stroke-opacity:1;stroke-miterlimit:4;" d="M 310.359375 523.25 L 310.359375 530 L 303.609375 530 L 303.609375 523.25 L 310.359375 523.25 Z M 310.359375 523.25 " transform="matrix(1,0,0,-1,0,792)"/>
<path style="fill-rule:nonzero;fill:rgb(100%,100%,100%);fill-opacity:1;stroke-width:1.5;stroke-linecap:butt;stroke-linejoin:miter;stroke:rgb(13.730068%,12.159915%,12.54902%);stroke-opacity:1;stroke-miterlimit:4;" d="M 317.109375 523.25 L 317.109375 530 L 310.359375 530 L 310.359375 523.25 L 317.109375 523.25 Z M 317.109375 523.25 " transform="matrix(1,0,0,-1,0,792)"/>
<path style="fill-rule:nonzero;fill:rgb(100%,100%,100%);fill-opacity:1;stroke-width:1.5;stroke-linecap:butt;stroke-linejoin:miter;stroke:rgb(13.730068%,12.159915%,12.54902%);stroke-opacity:1;stroke-miterlimit:4;" d="M 310.359375 516.5 L 310.359375 523.25 L 303.609375 523.25 L 303.609375 516.5 L 310.359375 516.5 Z M 310.359375 516.5 " transform="matrix(1,0,0,-1,0,792)"/>
<path style="fill-rule:nonzero;fill:rgb(100%,100%,100%);fill-opacity:1;stroke-width:1.5;stroke-linecap:butt;stroke-linejoin:miter;stroke:rgb(13.730068%,12.159915%,12.54902%);stroke-opacity:1;stroke-miterlimit:4;" d="M 317.109375 516.5 L 317.109375 523.25 L 310.359375 523.25 L 310.359375 516.5 L 317.109375 516.5 Z M 317.109375 516.5 " transform="matrix(1,0,0,-1,0,792)"/>

</svg>