<svg xmlns="http://www.w3.org/2000/svg" xmlns:xlink="http://www.w3.org/1999/xlink" width="612pt" height="792pt" viewBox="0 0 612 792" version="1.1">

<!-- Stun Beam -->
<path style="fill-rule:nonzero;fill:rgb(100%,100%,100%);fill-opacity:1;stroke-width:0.75;stroke-linecap:butt;stroke-linejoin:miter;stroke:rgb(13.730068%,12.159915%,12.54902%);stroke-opacity:1;stroke-miterlimit:4;" d="M 301.5 508.4375 L 301.5 542.1875 L 308.25 542.1875 L 306 537.6875 L 310.5 537.6875 L 310.5 544.4375 C 310.5 544.4375 308.328125 546.441406 308.25 548.9375 C 308.175781 551.269531 310.417969 553.4375 312.832031 553.4375 C 314.667969 553.4375 317.167969 550.9375 317.25 548.9375 C 317.355469 546.441406 315 544.4375 315 544.4375 L 315 537.6875 L 319.5 537.6875 L 317.25 542.1875 L 324 542.1875 L 324 508.4375 L 301.5 508.4375 " transform="matrix(1,0,0,-1,0,793)"/>

<!-- Damage Boxes -->
<path style="fill-rule:nonzero;fill:rgb(100%,100%,100%);fill-opacity:1;stroke-width:1.5;stroke-linecap:butt;stroke-linejoin:miter;stroke:rgb(13.730068%,12.159915%,12.54902%);stroke-opacity:1;stroke-miterlimit:4;" d="M 312.75 526.4375 L 312.75 533.1875 L 306 533.1875 L 306 526.4375 L 312.75 526.4375 Z M 312.75 526.4375 " transform="matrix(1,0,0,-1,0,793)"/>
<path style="fill-rule:nonzero;fill:rgb(100%,100%,100%);fill-opacity:1;stroke-width:1.5;stroke-linecap:butt;stroke-linejoin:miter;stroke:rgb(13.730068%,12.159915%,12.54902%);stroke-opacity:1;stroke-miterlimit:4;" d="M 319.5 526.4375 L 319.5 533.1875 L 312.75 533.1875 L 312.75 526.4375 L 319.5 526.4375 Z M 319.5 526.4375 " transform="matrix(1,0,0,-1,0,793)"/>
<path style="fill-rule:nonzero;fill:rgb(100%,100%,100%);fill-opacity:1;stroke-width:1.5;stroke-linecap:butt;stroke-linejoin:miter;stroke:rgb(13.730068%,12.159915%,12.54902%);stroke-opacity:1;stroke-miterlimit:4;" d="M 312.75 519.6875 L 312.75 526.4375 L 306 526.4375 L 306 519.6875 L 312.75 519.6875 Z M 312.75 519.6875 " transform="matrix(1,0,0,-1,0,793)"/>
<path style="fill-rule:nonzero;fill:rgb(100%,100%,100%);fill-opacity:1;stroke-width:1.5;stroke-linecap:butt;stroke-linejoin:miter;stroke:rgb(13.730068%,12.159915%,12.54902%);stroke-opacity:1;stroke-miterlimit:4;" d="M 319.5 519.6875 L 319.5 526.4375 L 312.75 526.4375 L 312.75 519.6875 L 319.5 519.6875 Z M 319.5 519.6875 " transform="matrix(1,0,0,-1,0,793)"/>
<path style="fill-rule:nonzero;fill:rgb(100%,100%,100%);fill-opacity:1;stroke-width:1.5;stroke-linecap:butt;stroke-linejoin:miter;stroke:rgb(13.730068%,12.159915%,12.54902%);stroke-opacity:1;stroke-miterlimit:4;" d="M 312.75 512.9375 L 312.75 519.6875 L 306 519.6875 L 306 512.9375 L 312.75 512.9375 Z M 312.75 512.9375 " transform="matrix(1,0,0,-1,0,793)"/>
<path style="fill-rule:nonzero;fill:rgb(100%,100%,100%);fill-opacity:1;stroke-width:1.5;stroke-linecap:butt;stroke-linejoin:miter;stroke:rgb(13.730068%,12.159915%,12.54902%);stroke-opacity:1;stroke-miterlimit:4;" d="M 319.5 512.9375 L 319.5 519.6875 L 312.75 519.6875 L 312.75 512.9375 L 319.5 512.9375 Z M 319.5 512.9375 " transform="matrix(1,0,0,-1,0,793)"/>

</svg>