<svg xmlns="http://www.w3.org/2000/svg" xmlns:xlink="http://www.w3.org/1999/xlink" width="612pt" height="792pt" viewBox="0 0 612 792" version="1.1">

<!-- Surge Blaster -->
<path style="fill-rule:nonzero;fill:rgb(100%,100%,100%);fill-opacity:1;stroke-width:0.75;stroke-linecap:butt;stroke-linejoin:miter;stroke:rgb(13.730068%,12.159915%,12.54902%);stroke-opacity:1;stroke-miterlimit:4;" d="M 294.75 255 L 294.75 283.5 L 302.75 283.5 L 297 285.5 L 302.75 287.5 L 296.75 289.5 L 302.75 291.5 L 306 298 L 309.25 291.5 L 315.25 289.5 L 309.25 287.5 L 315 285.5 L 309.25 283.5 L 317.25 283.5 L 317.25 255 L 294.75 255 Z M 294.75 255 " transform="matrix(1,0,0,-1,2,557)"/>
<path style="fill-rule:nonzero;fill:rgb(100%,100%,100%);fill-opacity:1;stroke-width:0.75;stroke-linecap:butt;stroke-linejoin:miter;stroke:rgb(13.730068%,12.159915%,12.54902%);stroke-opacity:1;stroke-miterlimit:4;" d="M 303.835938 290 L 306 297.5 L 308.164062 290 L 303.835938 290 Z M 303.835938 290 " transform="matrix(1,0,0,-1,2,557)"/>

<!-- Damage Boxes -->
<path style="fill-rule:nonzero;fill:rgb(100%,100%,100%);fill-opacity:1;stroke-width:1.5;stroke-linecap:butt;stroke-linejoin:miter;stroke:rgb(13.730068%,12.159915%,12.54902%);stroke-opacity:1;stroke-miterlimit:4;" d="M 306 272.25 L 306 279 L 299.25 279 L 299.25 272.25 L 306 272.25 Z M 306 272.25 " transform="matrix(1,0,0,-1,2,557)"/>
<path style="fill-rule:nonzero;fill:rgb(100%,100%,100%);fill-opacity:1;stroke-width:1.5;stroke-linecap:butt;stroke-linejoin:miter;stroke:rgb(13.730068%,12.159915%,12.54902%);stroke-opacity:1;stroke-miterlimit:4;" d="M 312.75 272.25 L 312.75 279 L 306 279 L 306 272.25 L 312.75 272.25 Z M 312.75 272.25 " transform="matrix(1,0,0,-1,2,557)"/>
<path style="fill-rule:nonzero;fill:rgb(100%,100%,100%);fill-opacity:1;stroke-width:1.5;stroke-linecap:butt;stroke-linejoin:miter;stroke:rgb(13.730068%,12.159915%,12.54902%);stroke-opacity:1;stroke-miterlimit:4;" d="M 306 265.5 L 306 272.25 L 299.25 272.25 L 299.25 265.5 L 306 265.5 Z M 306 265.5 " transform="matrix(1,0,0,-1,2,557)"/>
<path style="fill-rule:nonzero;fill:rgb(100%,100%,100%);fill-opacity:1;stroke-width:1.5;stroke-linecap:butt;stroke-linejoin:miter;stroke:rgb(13.730068%,12.159915%,12.54902%);stroke-opacity:1;stroke-miterlimit:4;" d="M 312.75 265.5 L 312.75 272.25 L 306 272.25 L 306 265.5 L 312.75 265.5 Z M 312.75 265.5 " transform="matrix(1,0,0,-1,2,557)"/>
<path style="fill-rule:nonzero;fill:rgb(100%,100%,100%);fill-opacity:1;stroke-width:1.5;stroke-linecap:butt;stroke-linejoin:miter;stroke:rgb(13.730068%,12.159915%,12.54902%);stroke-opacity:1;stroke-miterlimit:4;" d="M 306 258.75 L 306 265.5 L 299.25 265.5 L 299.25 258.75 L 306 258.75 Z M 306 258.75 " transform="matrix(1,0,0,-1,2,557)"/>
<path style="fill-rule:nonzero;fill:rgb(100%,100%,100%);fill-opacity:1;stroke-width:1.5;stroke-linecap:butt;stroke-linejoin:miter;stroke:rgb(13.730068%,12.159915%,12.54902%);stroke-opacity:1;stroke-miterlimit:4;" d="M 312.75 258.75 L 312.75 265.5 L 306 265.5 L 306 258.75 L 312.75 258.75 Z M 312.75 258.75 " transform="matrix(1,0,0,-1,2,557)"/>

</svg>