<svg xmlns="http://www.w3.org/2000/svg" xmlns:xlink="http://www.w3.org/1999/xlink" width="612pt" height="792pt" viewBox="0 0 612 792" version="1.1">

<!-- Targeting Array -->
<path style="fill-rule:nonzero;fill:rgb(100%,100%,100%);fill-opacity:1;stroke-width:0.75;stroke-linecap:butt;stroke-linejoin:miter;stroke:rgb(0%,0%,0%);stroke-opacity:1;stroke-miterlimit:4;" d="M 188.960938 444.726663 L 188.960938 444.726663 L 188.960938 439.726663 L 182.941406 433.726663 L 188.960938 433.726663 L 188.960938 428.828225 L 186.890625 428.828225 L 186.890625 426.332131 L 191.390625 426.332131 L 191.390625 398.078225 L 170.640625 398.078225 L 170.640625 426.332131 L 175.140625 426.332131 L 175.140625 428.828225 L 173.039063 428.828225 L 173.039063 433.726663 L 179.089844 433.726663 L 173.039063 439.726663 L 173.039063 444.726663 L 173.039063 444.726663 L 181.015625 436.785256 L 188.960938 444.726663 Z M 188.960938 444.726663 " transform="matrix(1,0,0,-1,75,974.0001)"/>

<!-- Annotation -->
<path style="opacity:0.5;fill:#ffffff;fill-opacity:1;fill-rule:nonzero;stroke:#ff0000;stroke-width:1.5;stroke-linecap:butt;stroke-linejoin:miter;stroke-miterlimit:4;stroke-opacity:1" d="m 259.43679,543.76081 0,6.75 -6.75,0 0,-6.75 6.75,0 z m 0,0"/>
     
<!-- Damage Boxes -->
<path style="fill-rule:nonzero;fill:rgb(100%,100%,100%);fill-opacity:1;stroke-width:1.5;stroke-linecap:butt;stroke-linejoin:miter;stroke:rgb(0%,0%,0%);stroke-opacity:1;stroke-miterlimit:4;" d="M 181.140625 421.828225 L 181.140625 415.078225 L 174.390625 415.078225 L 174.390625 421.828225 L 181.140625 421.828225 Z M 181.140625 421.828225 " transform="matrix(1,0,0,-1,75,974.0001)"/>
<path style="fill-rule:nonzero;fill:rgb(100%,100%,100%);fill-opacity:1;stroke-width:1.5;stroke-linecap:butt;stroke-linejoin:miter;stroke:rgb(0%,0%,0%);stroke-opacity:1;stroke-miterlimit:4;" d="M 187.890625 421.828225 L 187.890625 415.078225 L 181.140625 415.078225 L 181.140625 421.828225 L 187.890625 421.828225 Z M 187.890625 421.828225 " transform="matrix(1,0,0,-1,75,974.0001)"/>
<path style="fill-rule:nonzero;fill:rgb(100%,100%,100%);fill-opacity:1;stroke-width:1.5;stroke-linecap:butt;stroke-linejoin:miter;stroke:rgb(0%,0%,0%);stroke-opacity:1;stroke-miterlimit:4;" d="M 181.140625 415.078225 L 181.140625 408.328225 L 174.390625 408.328225 L 174.390625 415.078225 L 181.140625 415.078225 Z M 181.140625 415.078225 " transform="matrix(1,0,0,-1,75,974.0001)"/>
<path style="fill-rule:nonzero;fill:rgb(100%,100%,100%);fill-opacity:1;stroke-width:1.5;stroke-linecap:butt;stroke-linejoin:miter;stroke:rgb(0%,0%,0%);stroke-opacity:1;stroke-miterlimit:4;" d="M 187.890625 415.078225 L 187.890625 408.328225 L 181.140625 408.328225 L 181.140625 415.078225 L 187.890625 415.078225 Z M 187.890625 415.078225 " transform="matrix(1,0,0,-1,75,974.0001)"/>
<path style="fill-rule:nonzero;fill:rgb(100%,100%,100%);fill-opacity:1;stroke-width:1.5;stroke-linecap:butt;stroke-linejoin:miter;stroke:rgb(0%,0%,0%);stroke-opacity:1;stroke-miterlimit:4;" d="M 181.140625 408.328225 L 181.140625 401.578225 L 174.390625 401.578225 L 174.390625 408.328225 L 181.140625 408.328225 Z M 181.140625 408.328225 " transform="matrix(1,0,0,-1,75,974.0001)"/>
<path style="fill-rule:nonzero;fill:rgb(100%,100%,100%);fill-opacity:1;stroke-width:1.5;stroke-linecap:butt;stroke-linejoin:miter;stroke:rgb(0%,0%,0%);stroke-opacity:1;stroke-miterlimit:4;" d="M 187.890625 408.328225 L 187.890625 401.578225 L 181.140625 401.578225 L 181.140625 408.328225 L 187.890625 408.328225 Z M 187.890625 408.328225 " transform="matrix(1,0,0,-1,75,974.0001)"/>

</svg>