<svg xmlns="http://www.w3.org/2000/svg" xmlns:xlink="http://www.w3.org/1999/xlink" width="612pt" height="792pt" viewBox="0 0 612 792" version="1.1">

<!-- Twin Array -->
<path style="fill-rule:nonzero;fill:rgb(100%,100%,100%);fill-opacity:1;stroke-width:0.75;stroke-linecap:butt;stroke-linejoin:miter;stroke:rgb(13.730068%,12.159915%,12.54902%);stroke-opacity:1;stroke-miterlimit:4;" d="M 549 263.25 L 549 285.75 L 555.75 285.75 L 553.5 285.75 L 553.5 290.25 L 555.75 290.25 L 555.75 297 L 560.25 297 L 560.25 290.25 L 562.5 290.25 L 562.5 285.75 L 560.25 285.75 L 567 285.75 L 564.75 285.75 L 564.75 290.25 L 567 290.25 L 567 297 L 571.5 297 L 571.5 290.25 L 573.75 290.25 L 573.75 285.75 L 571.5 285.75 L 578.25 285.75 L 578.25 263.25 L 549 263.25 Z M 549 263.25 " transform="matrix(1,0,0,-1,0,793)"/>

<!-- Damage Boxes -->
<path style="fill-rule:nonzero;fill:rgb(100%,100%,100%);fill-opacity:1;stroke-width:1.5;stroke-linecap:butt;stroke-linejoin:miter;stroke:rgb(13.730068%,12.159915%,12.54902%);stroke-opacity:1;stroke-miterlimit:4;" d="M 560.25 274.5 L 560.25 281.25 L 553.5 281.25 L 553.5 274.5 L 560.25 274.5 Z M 560.25 274.5 " transform="matrix(1,0,0,-1,0,793)"/>
<path style="fill-rule:nonzero;fill:rgb(100%,100%,100%);fill-opacity:1;stroke-width:1.5;stroke-linecap:butt;stroke-linejoin:miter;stroke:rgb(13.730068%,12.159915%,12.54902%);stroke-opacity:1;stroke-miterlimit:4;" d="M 567 274.5 L 567 281.25 L 560.25 281.25 L 560.25 274.5 L 567 274.5 Z M 567 274.5 " transform="matrix(1,0,0,-1,0,793)"/>
<path style="fill-rule:nonzero;fill:rgb(100%,100%,100%);fill-opacity:1;stroke-width:1.5;stroke-linecap:butt;stroke-linejoin:miter;stroke:rgb(13.730068%,12.159915%,12.54902%);stroke-opacity:1;stroke-miterlimit:4;" d="M 573.75 274.5 L 573.75 281.25 L 567 281.25 L 567 274.5 L 573.75 274.5 Z M 573.75 274.5 " transform="matrix(1,0,0,-1,0,793)"/>
<path style="fill-rule:nonzero;fill:rgb(100%,100%,100%);fill-opacity:1;stroke-width:1.5;stroke-linecap:butt;stroke-linejoin:miter;stroke:rgb(13.730068%,12.159915%,12.54902%);stroke-opacity:1;stroke-miterlimit:4;" d="M 560.25 267.75 L 560.25 274.5 L 553.5 274.5 L 553.5 267.75 L 560.25 267.75 Z M 560.25 267.75 " transform="matrix(1,0,0,-1,0,793)"/>
<path style="fill-rule:nonzero;fill:rgb(100%,100%,100%);fill-opacity:1;stroke-width:1.5;stroke-linecap:butt;stroke-linejoin:miter;stroke:rgb(13.730068%,12.159915%,12.54902%);stroke-opacity:1;stroke-miterlimit:4;" d="M 567 267.75 L 567 274.5 L 560.25 274.5 L 560.25 267.75 L 567 267.75 Z M 567 267.75 " transform="matrix(1,0,0,-1,0,793)"/>
<path style="fill-rule:nonzero;fill:rgb(100%,100%,100%);fill-opacity:1;stroke-width:1.5;stroke-linecap:butt;stroke-linejoin:miter;stroke:rgb(13.730068%,12.159915%,12.54902%);stroke-opacity:1;stroke-miterlimit:4;" d="M 573.75 267.75 L 573.75 274.5 L 567 274.5 L 567 267.75 L 573.75 267.75 Z M 573.75 267.75 " transform="matrix(1,0,0,-1,0,793)"/>

</svg>