<svg xmlns="http://www.w3.org/2000/svg" xmlns:xlink="http://www.w3.org/1999/xlink" width="612pt" height="792pt" viewBox="0 0 612 792" version="1.1">

<!-- Volley Laser -->
<path style="fill-rule:nonzero;fill:rgb(100%,100%,100%);fill-opacity:1;stroke-width:0.75;stroke-linecap:butt;stroke-linejoin:miter;stroke:rgb(13.730068%,12.159915%,12.54902%);stroke-opacity:1;stroke-miterlimit:4;" d="M 294.714844 562.625 L 294.714844 591.875 L 307.214844 591.875 C 307.214844 591.875 302.714844 591.875 302.714844 596.375 C 302.714844 600.875 307.214844 600.875 307.214844 600.875 L 300.464844 600.875 L 300.464844 603.125 L 307.214844 603.125 C 307.214844 603.125 302.714844 603.125 302.714844 607.625 C 302.714844 612.125 307.214844 612.125 307.214844 612.125 L 309.464844 618.875 L 311.714844 612.125 C 311.714844 612.125 316.214844 612.125 316.214844 607.625 C 316.214844 603.125 311.714844 603.125 311.714844 603.125 L 318.464844 603.125 L 318.464844 600.875 L 311.714844 600.875 C 311.714844 600.875 316.214844 600.875 316.214844 596.375 C 316.214844 591.875 311.714844 591.875 311.714844 591.875 L 323.964844 591.875 L 323.964844 562.625 L 294.714844 562.625 Z M 294.714844 562.625 " transform="matrix(1,0,0,-1,0,793)"/>

<!-- Damage Boxes -->
<path style="fill-rule:nonzero;fill:rgb(100%,100%,100%);fill-opacity:1;stroke-width:1.5;stroke-linecap:butt;stroke-linejoin:miter;stroke:rgb(13.730068%,12.159915%,12.54902%);stroke-opacity:1;stroke-miterlimit:4;" d="M 305.964844 580.625 L 305.964844 587.375 L 299.214844 587.375 L 299.214844 580.625 L 305.964844 580.625 Z M 305.964844 580.625 " transform="matrix(1,0,0,-1,0,793)"/>
<path style="fill-rule:nonzero;fill:rgb(100%,100%,100%);fill-opacity:1;stroke-width:1.5;stroke-linecap:butt;stroke-linejoin:miter;stroke:rgb(13.730068%,12.159915%,12.54902%);stroke-opacity:1;stroke-miterlimit:4;" d="M 312.714844 580.625 L 312.714844 587.375 L 305.964844 587.375 L 305.964844 580.625 L 312.714844 580.625 Z M 312.714844 580.625 " transform="matrix(1,0,0,-1,0,793)"/>
<path style="fill-rule:nonzero;fill:rgb(100%,100%,100%);fill-opacity:1;stroke-width:1.5;stroke-linecap:butt;stroke-linejoin:miter;stroke:rgb(13.730068%,12.159915%,12.54902%);stroke-opacity:1;stroke-miterlimit:4;" d="M 319.464844 580.625 L 319.464844 587.375 L 312.714844 587.375 L 312.714844 580.625 L 319.464844 580.625 Z M 319.464844 580.625 " transform="matrix(1,0,0,-1,0,793)"/>
<path style="fill-rule:nonzero;fill:rgb(100%,100%,100%);fill-opacity:1;stroke-width:1.5;stroke-linecap:butt;stroke-linejoin:miter;stroke:rgb(13.730068%,12.159915%,12.54902%);stroke-opacity:1;stroke-miterlimit:4;" d="M 305.964844 573.875 L 305.964844 580.625 L 299.214844 580.625 L 299.214844 573.875 L 305.964844 573.875 Z M 305.964844 573.875 " transform="matrix(1,0,0,-1,0,793)"/>
<path style="fill-rule:nonzero;fill:rgb(100%,100%,100%);fill-opacity:1;stroke-width:1.5;stroke-linecap:butt;stroke-linejoin:miter;stroke:rgb(13.730068%,12.159915%,12.54902%);stroke-opacity:1;stroke-miterlimit:4;" d="M 312.714844 573.875 L 312.714844 580.625 L 305.964844 580.625 L 305.964844 573.875 L 312.714844 573.875 Z M 312.714844 573.875 " transform="matrix(1,0,0,-1,0,793)"/>
<path style="fill-rule:nonzero;fill:rgb(100%,100%,100%);fill-opacity:1;stroke-width:1.5;stroke-linecap:butt;stroke-linejoin:miter;stroke:rgb(13.730068%,12.159915%,12.54902%);stroke-opacity:1;stroke-miterlimit:4;" d="M 319.464844 573.875 L 319.464844 580.625 L 312.714844 580.625 L 312.714844 573.875 L 319.464844 573.875 Z M 319.464844 573.875 " transform="matrix(1,0,0,-1,0,793)"/>
<path style="fill-rule:nonzero;fill:rgb(100%,100%,100%);fill-opacity:1;stroke-width:1.5;stroke-linecap:butt;stroke-linejoin:miter;stroke:rgb(13.730068%,12.159915%,12.54902%);stroke-opacity:1;stroke-miterlimit:4;" d="M 305.964844 567.125 L 305.964844 573.875 L 299.214844 573.875 L 299.214844 567.125 L 305.964844 567.125 Z M 305.964844 567.125 " transform="matrix(1,0,0,-1,0,793)"/>
<path style="fill-rule:nonzero;fill:rgb(100%,100%,100%);fill-opacity:1;stroke-width:1.5;stroke-linecap:butt;stroke-linejoin:miter;stroke:rgb(13.730068%,12.159915%,12.54902%);stroke-opacity:1;stroke-miterlimit:4;" d="M 312.714844 567.125 L 312.714844 573.875 L 305.964844 573.875 L 305.964844 567.125 L 312.714844 567.125 Z M 312.714844 567.125 " transform="matrix(1,0,0,-1,0,793)"/>
<path style="fill-rule:nonzero;fill:rgb(100%,100%,100%);fill-opacity:1;stroke-width:1.5;stroke-linecap:butt;stroke-linejoin:miter;stroke:rgb(13.730068%,12.159915%,12.54902%);stroke-opacity:1;stroke-miterlimit:4;" d="M 319.464844 567.125 L 319.464844 573.875 L 312.714844 573.875 L 312.714844 567.125 L 319.464844 567.125 Z M 319.464844 567.125 " transform="matrix(1,0,0,-1,0,793)"/>

</svg>