<svg xmlns="http://www.w3.org/2000/svg" xmlns:xlink="http://www.w3.org/1999/xlink" width="612pt" height="792pt" viewBox="0 0 612 792" version="1.1">

<!-- Vortex Disruptor -->
<path style="fill-rule:nonzero;fill:rgb(100%,100%,100%);fill-opacity:1;stroke-width:0.75;stroke-linecap:butt;stroke-linejoin:miter;stroke:rgb(13.730068%,12.159915%,12.54902%);stroke-opacity:1;stroke-miterlimit:4;" d="M 414 353.082031 L 414 357.582031 L 400.5 364.332031 L 414 371.082031 L 414 375.582031 L 418.5 375.582031 L 425.25 389.082031 L 432 375.582031 L 436.5 375.582031 L 436.5 371.082031 L 447.75 364.332031 L 436.5 357.582031 L 436.5 353.082031 L 414 353.082031 Z M 414 353.082031 " transform="matrix(1,0,0,-1,0,793)"/>

<!-- Damage Boxes -->
<path style="fill-rule:nonzero;fill:rgb(100%,100%,100%);fill-opacity:1;stroke-width:1.5;stroke-linecap:butt;stroke-linejoin:miter;stroke:rgb(13.730068%,12.159915%,12.54902%);stroke-opacity:1;stroke-miterlimit:4;" d="M 425.25 364.332031 L 425.25 371.082031 L 418.5 371.082031 L 418.5 364.332031 L 425.25 364.332031 Z M 425.25 364.332031 " transform="matrix(1,0,0,-1,0,793)"/>
<path style="fill-rule:nonzero;fill:rgb(100%,100%,100%);fill-opacity:1;stroke-width:1.5;stroke-linecap:butt;stroke-linejoin:miter;stroke:rgb(13.730068%,12.159915%,12.54902%);stroke-opacity:1;stroke-miterlimit:4;" d="M 432 364.332031 L 432 371.082031 L 425.25 371.082031 L 425.25 364.332031 L 432 364.332031 Z M 432 364.332031 " transform="matrix(1,0,0,-1,0,793)"/>
<path style="fill-rule:nonzero;fill:rgb(100%,100%,100%);fill-opacity:1;stroke-width:1.5;stroke-linecap:butt;stroke-linejoin:miter;stroke:rgb(13.730068%,12.159915%,12.54902%);stroke-opacity:1;stroke-miterlimit:4;" d="M 425.289062 357.582031 L 425.289062 364.332031 L 418.539062 364.332031 L 418.539062 357.582031 L 425.289062 357.582031 Z M 425.289062 357.582031 " transform="matrix(1,0,0,-1,0,793)"/>
<path style="fill-rule:nonzero;fill:rgb(100%,100%,100%);fill-opacity:1;stroke-width:1.5;stroke-linecap:butt;stroke-linejoin:miter;stroke:rgb(13.730068%,12.159915%,12.54902%);stroke-opacity:1;stroke-miterlimit:4;" d="M 432.039062 357.582031 L 432.039062 364.332031 L 425.289062 364.332031 L 425.289062 357.582031 L 432.039062 357.582031 Z M 432.039062 357.582031 " transform="matrix(1,0,0,-1,0,793)"/>

</svg>